<?xml version="1.0" encoding="UTF-8" standalone="no"?>
<svg
   viewBox="0 0 6.3499997 6.3500002"
   version="1.1"
   id="svg8"
   inkscape:version="1.3.2 (091e20e, 2023-11-25, custom)"
   sodipodi:docname="class-artificer.svg"
   xmlns:inkscape="http://www.inkscape.org/namespaces/inkscape"
   xmlns:sodipodi="http://sodipodi.sourceforge.net/DTD/sodipodi-0.dtd"
   xmlns="http://www.w3.org/2000/svg"
   xmlns:svg="http://www.w3.org/2000/svg"
   xmlns:rdf="http://www.w3.org/1999/02/22-rdf-syntax-ns#"
   xmlns:cc="http://creativecommons.org/ns#"
   xmlns:dc="http://purl.org/dc/elements/1.1/">
  <defs
     id="defs2">
    <clipPath
       clipPathUnits="userSpaceOnUse"
       id="clipPath18">
      <path
         d="M 0,2020 H 2020 V 0 H 0 Z"
         id="path16" />
    </clipPath>
    <clipPath
       clipPathUnits="userSpaceOnUse"
       id="clipPath62">
      <path
         d="M 0,2020 H 2020 V 0 H 0 Z"
         id="path60" />
    </clipPath>
    <clipPath
       clipPathUnits="userSpaceOnUse"
       id="clipPath148">
      <path
         d="M 0,2020 H 2020 V 0 H 0 Z"
         id="path146" />
    </clipPath>
    <clipPath
       clipPathUnits="userSpaceOnUse"
       id="clipPath196">
      <path
         d="M 0,2020 H 2020 V 0 H 0 Z"
         id="path194" />
    </clipPath>
  </defs>
  <sodipodi:namedview
     id="base"
     pagecolor="#ffffff"
     bordercolor="#666666"
     borderopacity="1.0"
     inkscape:pageopacity="0.0"
     inkscape:pageshadow="2"
     inkscape:zoom="16"
     inkscape:cx="16.1875"
     inkscape:cy="12.71875"
     inkscape:document-units="px"
     inkscape:current-layer="layer1"
     inkscape:document-rotation="0"
     showgrid="false"
     inkscape:window-width="1360"
     inkscape:window-height="715"
     inkscape:window-x="-8"
     inkscape:window-y="-8"
     inkscape:window-maximized="1"
     showborder="true"
     inkscape:showpageshadow="false"
     inkscape:pagecheckerboard="true"
     units="px"
     inkscape:deskcolor="#d1d1d1" />
  <metadata
     id="metadata5">
    <rdf:RDF>
      <cc:Work
         rdf:about="">
        <dc:format>image/svg+xml</dc:format>
        <dc:type
           rdf:resource="http://purl.org/dc/dcmitype/StillImage" />
      </cc:Work>
    </rdf:RDF>
  </metadata>
  <g
     inkscape:label="Layer 1"
     inkscape:groupmode="layer"
     id="layer1"
     transform="translate(-2.190408e-5,8.416127e-5)">
    <g
       id="g142"
       transform="matrix(0.00514219,0,0,-0.00514219,-2.0187355,8.3685287)"
       style="stroke:none;stroke-width:68.6044">
      <g
         id="g144"
         clip-path="url(#clipPath148)"
         style="stroke:none;stroke-width:68.6044">
        <g
           id="g150"
           transform="translate(1010.0278,647.6367)"
           style="stroke:none;stroke-width:68.6044">
          <path
             d="m 0,0 c -200.127,0 -362.363,162.235 -362.363,362.363 0,200.128 162.236,362.364 362.363,362.364 200.127,0 362.363,-162.236 362.363,-362.364 C 362.363,162.235 200.127,0 0,0 m 558.165,285.652 c 0,0 7.823,27.368 7.823,76.711 0,42.538 -7.823,76.711 -7.823,76.711 l -127.377,25.652 c -11.02,46.553 -29.391,90.257 -53.819,129.832 l 71.956,108.246 c 0,0 -13.82,24.882 -48.711,59.773 -30.08,30.079 -59.774,48.711 -59.774,48.711 L 232.194,739.332 c -39.575,24.429 -83.279,42.799 -129.832,53.819 L 76.711,920.528 c 0,0 -27.367,7.823 -76.711,7.823 -42.538,0 -76.71,-7.823 -76.71,-7.823 l -25.653,-127.377 c -46.553,-11.02 -90.257,-29.39 -129.831,-53.819 l -108.246,71.956 c 0,0 -24.882,-13.819 -59.773,-48.711 -30.079,-30.079 -48.712,-59.773 -48.712,-59.773 l 71.955,-108.246 c -24.427,-39.575 -42.798,-83.279 -53.819,-129.832 l -127.376,-25.652 c 0,0 -7.822,-27.366 -7.822,-76.711 0,-42.538 7.822,-76.711 7.822,-76.711 l 127.376,-25.65 c 11.021,-46.554 29.392,-90.258 53.819,-129.833 L -448.925,21.924 c 0,0 13.82,-24.882 48.712,-59.775 30.079,-30.078 59.773,-48.71 59.773,-48.71 l 108.246,71.955 c 39.574,-24.428 83.278,-42.798 129.831,-53.818 l 25.653,-127.377 c 0,0 27.366,-7.823 76.71,-7.823 42.538,0 76.711,7.823 76.711,7.823 l 25.651,127.377 c 46.553,11.02 90.257,29.39 129.832,53.818 L 340.44,-86.561 c 0,0 24.882,13.82 59.774,48.71 30.078,30.08 48.711,59.775 48.711,59.775 l -71.956,108.245 c 24.428,39.575 42.799,83.279 53.819,129.833 z"
             style="fill-opacity:1;fill-rule:nonzero;stroke:none;stroke-width:68.6044"
             id="path152" />
        </g>
        <g
           id="g154"
           transform="translate(1107.96,964.5293)"
           style="stroke:none;stroke-width:68.6044">
          <path
             d="M 0,0 174.689,40.247 V 50.693 L 0,90.942 c -29.065,6.697 -51.597,29.662 -57.74,58.849 l -34.947,166.05 h -10.49 l -34.948,-166.05 c -6.143,-29.187 -28.674,-52.152 -57.739,-58.849 L -370.554,50.693 V 40.247 L -195.865,0 c 29.066,-6.696 51.597,-29.661 57.74,-58.849 l 34.948,-166.049 h 10.49 L -57.74,-58.849 C -51.597,-29.661 -29.065,-6.696 0,0"
             style="fill-opacity:1;fill-rule:nonzero;stroke:none;stroke-width:68.6044"
             id="path156" />
        </g>
        <g
           id="g158"
           transform="translate(1157.2158,1086.04)"
           style="stroke:none;stroke-width:68.6044">
          <path
             d="M 0,0 54.068,-12.458 C 33.088,53.798 -19.767,105.983 -86.414,126.063 L -75.305,73.28 C -42.978,57.655 -16.502,31.813 0,0"
             style="fill-opacity:1;fill-rule:nonzero;stroke:none;stroke-width:68.6044"
             id="path160" />
        </g>
        <g
           id="g162"
           transform="translate(1081.9111,860.6797)"
           style="stroke:none;stroke-width:68.6044">
          <path
             d="m 0,0 -11.109,-52.783 c 66.647,20.08 119.502,72.265 140.482,138.521 L 75.305,73.281 C 58.802,41.468 32.326,15.626 0,0"
             style="fill-opacity:1;fill-rule:nonzero;stroke:none;stroke-width:68.6044"
             id="path164" />
        </g>
        <g
           id="g166"
           transform="translate(949.2534,807.8965)"
           style="stroke:none;stroke-width:68.6044">
          <path
             d="m 0,0 -11.109,52.784 c -32.326,15.626 -58.802,41.467 -75.304,73.28 l -54.068,12.457 C -119.501,72.266 -66.647,20.08 0,0"
             style="fill-opacity:1;fill-rule:nonzero;stroke:none;stroke-width:68.6044"
             id="path168" />
        </g>
        <g
           id="g170"
           transform="translate(862.8403,1086.04)"
           style="stroke:none;stroke-width:68.6044">
          <path
             d="m 0,0 c 16.502,31.812 42.978,57.654 75.304,73.279 l 11.109,52.784 C 19.766,105.982 -33.088,53.798 -54.068,-12.458 Z"
             style="fill-opacity:1;fill-rule:nonzero;stroke:none;stroke-width:68.6044"
             id="path172" />
        </g>
        <g
           id="g174"
           transform="translate(1046.772,1326.2803)"
           style="stroke:none;stroke-width:68.6044">
          <path
             d="m 0,0 9.934,-47.2 c 112.805,-19.511 202.128,-108.453 222.182,-221.074 l 47.382,-10.917 C 262.47,-133.086 146.152,-16.871 0,0"
             style="fill-opacity:1;fill-rule:nonzero;stroke:none;stroke-width:68.6044"
             id="path176" />
        </g>
        <g
           id="g178"
           transform="translate(963.3496,1279.0801)"
           style="stroke:none;stroke-width:68.6044">
          <path
             d="M 0,0 9.934,47.2 C -136.218,30.328 -252.535,-85.886 -269.563,-231.991 l 47.381,10.917 C -202.128,-108.453 -112.805,-19.511 0,0"
             style="fill-opacity:1;fill-rule:nonzero;stroke:none;stroke-width:68.6044"
             id="path180" />
        </g>
        <g
           id="g182"
           transform="translate(1056.7056,740.9199)"
           style="stroke:none;stroke-width:68.6044">
          <path
             d="M 0,0 -9.934,-47.2 C 136.218,-30.328 252.535,85.886 269.563,231.991 L 222.182,221.074 C 202.128,108.454 112.805,19.511 0,0"
             style="fill-opacity:1;fill-rule:nonzero;stroke:none;stroke-width:68.6044"
             id="path184" />
        </g>
        <g
           id="g186"
           transform="translate(741.168,961.9941)"
           style="stroke:none;stroke-width:68.6044">
          <path
             d="m 0,0 -47.381,10.917 c 17.028,-146.105 133.345,-262.319 279.496,-279.191 l -9.933,47.2 C 109.377,-201.562 20.054,-112.62 0,0"
             style="fill-opacity:1;fill-rule:nonzero;stroke:none;stroke-width:68.6044"
             id="path188" />
        </g>
      </g>
    </g>
    <g
       id="g190"
       transform="matrix(0.35277777,0,0,-0.35277777,-736.75503,274.15826)">
      <g
         id="g192"
         clip-path="url(#clipPath196)">
        <g
           id="g198"
           transform="translate(766.1387,135.8574)">
          <path
             d="M 0,0 C -0.937,-3.277 -2.268,-7.328 -3.996,-12.15 L -7.992,-23.599 H 12.744 L 8.748,-12.15 C 6.947,-6.967 5.579,-2.827 4.644,0.27 3.708,3.364 2.987,6.75 2.484,10.422 H 2.052 C 1.62,6.75 0.935,3.275 0,0 m 36.18,-43.2 c 2.015,-3.204 3.851,-5.491 5.508,-6.859 v -0.215 H 17.28 v 0.215 c 1.151,0.865 1.728,2.52 1.728,4.969 0,2.303 -0.577,5.075 -1.728,8.316 l -0.972,2.591 h -27.864 l -0.972,-2.591 c -1.153,-2.954 -1.728,-5.689 -1.728,-8.208 0,-2.522 0.503,-4.212 1.512,-5.077 v -0.215 h -22.68 v 0.215 c 1.657,1.44 3.473,3.744 5.454,6.913 1.979,3.167 3.653,6.696 5.022,10.583 l 15.444,44.497 c 0.648,1.943 0.972,3.707 0.972,5.292 0,1.655 -0.289,3.131 -0.864,4.428 -0.577,1.295 -1.261,2.268 -2.052,2.916 v 0.215 h 28.62 V 24.57 c -0.793,-0.72 -1.477,-1.712 -2.052,-2.97 -0.578,-1.261 -0.864,-2.719 -0.864,-4.374 0,-1.585 0.324,-3.349 0.972,-5.292 l 15.876,-44.497 c 1.367,-3.887 3.059,-7.435 5.076,-10.637"
             style="fill:#ffffff;fill-opacity:1;fill-rule:nonzero;stroke:none"
             id="path200" />
        </g>
        <g
           id="g202"
           transform="translate(879.646,87.5273)">
          <path
             d="m 0,0 v -0.217 l -22.14,-3.996 c -1.369,4.105 -3.205,8.101 -5.508,11.988 l -16.74,28.621 h 5.184 c 4.752,0 8.351,1.061 10.8,3.186 2.446,2.123 3.672,5.524 3.672,10.205 0,3.959 -1.261,7.092 -3.78,9.397 -2.521,2.303 -6.085,3.419 -10.692,3.347 l -7.56,-0.107 v -48.6 c 0,-3.888 0.54,-7.182 1.62,-9.883 1.08,-2.699 2.339,-4.589 3.78,-5.67 v -0.215 h -26.028 v 0.215 c 1.583,1.008 2.951,2.898 4.104,5.67 1.151,2.772 1.728,6.211 1.728,10.315 v 43.092 c 0,3.959 -0.577,7.29 -1.728,9.99 -1.153,2.699 -2.521,4.553 -4.104,5.562 v 0.215 h 30.672 c 8.567,0 15.263,-2.035 20.088,-6.101 4.823,-4.069 7.236,-9.631 7.236,-16.686 0,-5.617 -1.279,-10.207 -3.834,-13.77 -2.557,-3.564 -6.175,-6.103 -10.854,-7.615 L -14.04,12.636 C -9.865,5.939 -5.184,1.728 0,0"
             style="fill:#ffffff;fill-opacity:1;fill-rule:nonzero;stroke:none"
             id="path204" />
        </g>
        <g
           id="g206"
           transform="translate(936.9937,141.7432)">
          <path
             d="m 0,0 -0.216,-0.108 c -1.296,2.303 -3.186,4.212 -5.67,5.724 -2.484,1.512 -5.275,2.268 -8.37,2.268 h -8.1 v -46.981 c 0,-4.392 0.629,-8.045 1.89,-10.961 1.259,-2.916 2.825,-4.879 4.698,-5.886 V -56.16 H -43.74 v 0.216 c 1.728,1.007 3.257,3.006 4.59,5.994 1.332,2.986 1.998,6.605 1.998,10.853 V 7.884 h -8.208 c -3.097,0 -5.886,-0.756 -8.37,-2.268 -2.484,-1.512 -4.374,-3.421 -5.67,-5.724 L -59.616,0 -57.78,19.764 c 4.391,-0.577 9.323,-0.865 14.796,-0.865 h 26.352 c 5.471,0 10.403,0.288 14.796,0.865 z"
             style="fill:#ffffff;fill-opacity:1;fill-rule:nonzero;stroke:none"
             id="path208" />
        </g>
        <g
           id="g210"
           transform="translate(945.5254,85.7988)">
          <path
             d="m 0,0 c 1.583,1.08 2.951,2.986 4.104,5.725 1.151,2.734 1.728,6.156 1.728,10.259 v 42.661 c 0,4.173 -0.577,7.613 -1.728,10.313 -1.153,2.7 -2.521,4.591 -4.104,5.671 v 0.215 H 26.568 V 74.629 C 24.983,73.549 23.615,71.64 22.464,68.904 21.312,66.167 20.736,62.748 20.736,58.645 V 15.984 C 20.736,11.808 21.312,8.37 22.464,5.67 23.615,2.971 24.983,1.08 26.568,0 V -0.216 H 0 Z"
             style="fill:#ffffff;fill-opacity:1;fill-rule:nonzero;stroke:none"
             id="path212" />
        </g>
        <g
           id="g214"
           transform="translate(1037.0015,141.3105)">
          <path
             d="m 0,0 -0.216,-0.107 c -3.529,5.759 -9.936,8.639 -19.224,8.639 h -12.096 v -20.088 h 9.504 c 7.919,0 13.319,0.287 16.2,0.865 l -3.456,-19.44 h -0.216 c -0.721,2.303 -2.179,4.174 -4.374,5.615 -2.197,1.44 -4.663,2.161 -7.398,2.161 h -10.26 v -17.172 c 0,-4.177 0.575,-7.615 1.728,-10.315 1.151,-2.699 2.519,-4.59 4.104,-5.67 v -0.216 h -26.46 v 0.216 c 1.583,1.08 2.951,2.987 4.104,5.725 1.151,2.734 1.728,6.156 1.728,10.26 v 42.66 c 0,4.822 -0.523,8.44 -1.566,10.853 -1.045,2.412 -2.43,4.121 -4.158,5.131 v 0.215 h 36.18 c 6.119,0 10.763,0.287 13.932,0.864 z"
             style="fill:#ffffff;fill-opacity:1;fill-rule:nonzero;stroke:none"
             id="path216" />
        </g>
        <g
           id="g218"
           transform="translate(1047.0439,85.7988)">
          <path
             d="m 0,0 c 1.583,1.08 2.951,2.986 4.104,5.725 1.151,2.734 1.728,6.156 1.728,10.259 v 42.661 c 0,4.173 -0.577,7.613 -1.728,10.313 -1.153,2.7 -2.521,4.591 -4.104,5.671 v 0.215 H 26.568 V 74.629 C 24.983,73.549 23.615,71.64 22.464,68.904 21.312,66.167 20.736,62.748 20.736,58.645 V 15.984 C 20.736,11.808 21.312,8.37 22.464,5.67 23.615,2.971 24.983,1.08 26.568,0 V -0.216 H 0 Z"
             style="fill:#ffffff;fill-opacity:1;fill-rule:nonzero;stroke:none"
             id="path220" />
        </g>
        <g
           id="g222"
           transform="translate(1102.6641,88.9844)">
          <path
             d="m 0,0 c -5.761,3.349 -10.189,7.955 -13.284,13.824 -3.097,5.867 -4.644,12.475 -4.644,19.819 0,7.992 1.674,14.974 5.022,20.952 3.348,5.975 8.081,10.565 14.202,13.77 6.119,3.202 13.246,4.805 21.384,4.805 6.55,0 12.887,-0.9 19.008,-2.699 L 43.416,51.787 43.2,51.679 c -2.16,3.311 -5.059,5.832 -8.694,7.559 -3.637,1.729 -7.614,2.592 -11.934,2.592 -7.56,0 -13.519,-2.43 -17.874,-7.289 -4.357,-4.86 -6.534,-11.467 -6.534,-19.818 0,-8.496 1.998,-15.336 5.994,-20.52 3.996,-5.184 9.666,-7.776 17.01,-7.776 5.543,0 10.223,1.026 14.04,3.077 3.815,2.053 7.236,5.059 10.26,9.018 L 45.684,18.414 43.092,-0.918 C 35.316,-3.652 27.648,-5.021 20.088,-5.021 12.455,-5.021 5.759,-3.348 0,0"
             style="fill:#ffffff;fill-opacity:1;fill-rule:nonzero;stroke:none"
             id="path224" />
        </g>
        <g
           id="g226"
           transform="translate(1211.6353,106.2109)">
          <path
             d="m 0,0 -3.024,-21.492 c -2.017,0.361 -3.942,0.594 -5.778,0.702 -1.836,0.108 -4.303,0.162 -7.398,0.162 h -38.124 v 0.216 c 1.583,1.08 2.951,2.986 4.104,5.724 1.151,2.735 1.728,6.157 1.728,10.26 v 42.66 c 0,4.174 -0.577,7.614 -1.728,10.314 -1.153,2.7 -2.521,4.591 -4.104,5.671 v 0.215 h 38.772 c 5.112,0 8.927,0.287 11.448,0.864 l 1.836,-19.332 -0.216,-0.109 c -1.296,2.665 -3.385,4.663 -6.264,5.995 -2.88,1.332 -6.444,1.998 -10.692,1.998 H -33.696 V 24.84 h 8.208 c 4.536,0 7.884,0.055 10.044,0.162 2.16,0.107 4.428,0.306 6.804,0.594 L -11.772,7.452 h -0.216 c -0.864,2.376 -2.268,4.105 -4.212,5.185 -1.944,1.08 -4.465,1.619 -7.56,1.619 h -9.936 v -24.3 h 11.772 c 4.752,0 8.981,0.864 12.69,2.592 3.708,1.727 6.713,4.247 9.018,7.559 z"
             style="fill:#ffffff;fill-opacity:1;fill-rule:nonzero;stroke:none"
             id="path228" />
        </g>
        <g
           id="g230"
           transform="translate(1289.5024,87.5273)">
          <path
             d="m 0,0 v -0.217 l -22.14,-3.996 c -1.369,4.105 -3.205,8.101 -5.508,11.988 l -16.74,28.621 h 5.184 c 4.752,0 8.351,1.061 10.8,3.186 2.446,2.123 3.672,5.524 3.672,10.205 0,3.959 -1.261,7.092 -3.78,9.397 -2.521,2.303 -6.085,3.419 -10.692,3.347 l -7.56,-0.107 v -48.6 c 0,-3.888 0.54,-7.182 1.62,-9.883 1.08,-2.699 2.339,-4.589 3.78,-5.67 v -0.215 h -26.028 v 0.215 c 1.583,1.008 2.951,2.898 4.104,5.67 1.151,2.772 1.728,6.211 1.728,10.315 v 43.092 c 0,3.959 -0.577,7.29 -1.728,9.99 -1.153,2.699 -2.521,4.553 -4.104,5.562 v 0.215 h 30.672 c 8.567,0 15.263,-2.035 20.088,-6.101 4.823,-4.069 7.236,-9.631 7.236,-16.686 0,-5.617 -1.279,-10.207 -3.834,-13.77 -2.557,-3.564 -6.175,-6.103 -10.854,-7.615 L -14.04,12.636 C -9.865,5.939 -5.184,1.728 0,0"
             style="fill:#ffffff;fill-opacity:1;fill-rule:nonzero;stroke:none"
             id="path232" />
        </g>
      </g>
    </g>
  </g>
</svg>
