<?xml version="1.0" encoding="UTF-8" standalone="no"?>
<svg
   version="1.1"
   id="svg5"
   sodipodi:docname="phb24-warlock.svg"
   inkscape:version="1.3.2 (091e20e, 2023-11-25, custom)"
   viewBox="0 0 24 24"
   xmlns:inkscape="http://www.inkscape.org/namespaces/inkscape"
   xmlns:sodipodi="http://sodipodi.sourceforge.net/DTD/sodipodi-0.dtd"
   xmlns="http://www.w3.org/2000/svg"
   xmlns:svg="http://www.w3.org/2000/svg">
  <defs
     id="defs5" />
  <sodipodi:namedview
     id="namedview5"
     pagecolor="#ffffff"
     bordercolor="#111111"
     borderopacity="1"
     inkscape:showpageshadow="0"
     inkscape:pageopacity="0"
     inkscape:pagecheckerboard="1"
     inkscape:deskcolor="#d1d1d1"
     inkscape:zoom="32"
     inkscape:cx="11.71875"
     inkscape:cy="7.796875"
     inkscape:window-width="1366"
     inkscape:window-height="697"
     inkscape:window-x="-8"
     inkscape:window-y="-8"
     inkscape:window-maximized="1"
     inkscape:current-layer="svg5" />
  <g
     id="g5"
     transform="matrix(0.04297694,0.04279749,-0.04297694,0.04279749,12.537212,-0.30427837)"
     style="stroke-width:16.4877">
    <path
       d="M 0,0 C 3.5288682,1.1762894 4.1349147,2.1646534 6.2851562,5.1132812 L 8.1425781,7.6464844 10.0625,10.3125 l 1.931641,2.630859 c 5.130626,7.044475 5.221899,7.135748 7.097132,11.147914 4.733418,-0.417342 4.785317,-0.471403 7.225133,-0.661586 9.383717,-0.585705 9.52177,0.0977 17.502442,-1.768554 3.109525,-3.525935 5.198333,-7.599856 7.237793,-11.8100588 C 52.319535,7.3730036 53.906265,5.242455 55.625,3.0625 L 58,0 60,1 c 0.502441,1.9301758 0.502441,1.9301758 0.851562,4.4453125 L 61.242187,8.2109375 61.625,11.125 62.03125,13.96875 C 62.72563,19.027804 63.155559,23.894853 63,29 l 2,0.25 c 3.371848,0.842962 5.952752,2.262698 8.9375,4.007812 3.287054,1.182842 6.039421,0.17437 9.186646,-1.15512 l 2.127807,-1.096344 2.437378,-1.244477 2.591919,-1.347809 2.700317,-1.386627 c 1.880838,-0.967203 3.760161,-1.937355 5.638062,-2.910248 2.867141,-1.485335 5.738511,-2.962215 8.610841,-4.4375 1.82968,-0.942218 3.65911,-1.88491 5.48828,-2.828125 0.85533,-0.440728 1.71067,-0.881456 2.59192,-1.33554 3.27521,-1.697929 6.49391,-3.396775 9.64441,-5.319245 C 127,9 127,9 129,9 c -2.01703,6.376364 -4.38663,12.523415 -7.01172,18.671875 -0.7653,1.81627 -1.53026,3.63268 -2.29492,5.449219 -1.19455,2.827964 -2.39184,5.654679 -3.59497,8.479004 -1.16964,2.749817 -2.32813,5.504114 -3.48511,8.259277 -0.36244,0.842785 -0.72488,1.68557 -1.09831,2.553894 C 109.04554,58.011709 109.04554,58.011709 109,64 c 2.22265,3.774884 4.17934,4.712195 8.35767,5.815186 l 3.31654,0.899337 3.5797,0.922196 c 1.21179,0.324909 2.42358,0.649818 3.6721,0.984573 3.21717,0.860116 6.43714,1.707481 9.65932,2.548508 4.54546,1.190178 9.08429,2.40554 13.62437,3.616043 2.41727,0.642905 4.83559,1.28183 7.25504,1.916473 1.0913,0.287325 2.18261,0.57465 3.30699,0.870682 l 2.91994,0.764206 C 167,83 167,83 169,84 c -1.11976,3.359278 -1.73603,3.809148 -4.51563,5.792969 l -2.26391,1.637939 c -0.81525,0.579675 -1.6305,1.159351 -2.47046,1.756592 -1.72391,1.245664 -3.44651,2.493133 -5.16797,3.742187 -0.90669,0.6571 -1.81339,1.3142 -2.74756,1.991211 -5.78734,4.245052 -11.46438,8.636582 -17.15381,13.011472 -0.84465,0.64752 -1.68931,1.29503 -2.55957,1.96216 -0.74838,0.57597 -1.49676,1.15194 -2.26782,1.74536 C 128,117 128,117 126,118 c -0.49794,2.98463 -0.89497,5.93539 -1.25,8.9375 -3.55445,26.13472 -15.57134,48.00636 -36.046875,64.96484 C 75.879493,201.39097 59.988878,208.74597 44,210 c 0.75983,-7.00068 1.989695,-13.85989 3.4375,-20.75 l 0.599609,-3.40234 C 49.77627,177.8274 49.77627,177.8274 53.27124,175.46436 55.822339,174.47483 58.364356,173.72751 61,173 c 3.540528,-2.07597 6.743806,-4.50542 10,-7 0.616172,-0.43828 1.232344,-0.87656 1.867187,-1.32813 C 82.648431,157.18945 88.411754,145.47334 92,134 l 0.742187,-2.25391 C 97.09224,116.04419 93.390753,99.316851 85.941406,85.289062 76.809518,69.818138 63.440698,60.23507 46.3125,55.125 29.303406,51.377614 12.20123,54.20418 -2.8632813,62.894531 -16.346547,71.944943 -24.513708,83.742669 -30,99 l -0.414062,2.14844 c -0.792293,2.50364 -2.050773,3.40366 -4.085938,5.03906 -8.724191,7.37365 -15.227682,14.9528 -21.335937,24.55469 -1.653138,2.48866 -3.044519,4.24443 -5.164063,6.25781 -0.04254,-1.30453 -0.08508,-2.60906 -0.128906,-3.95313 -0.573887,-10.63127 -0.573887,-10.63127 -5.742188,-19.55468 -3.083164,-2.6216 -6.42808,-4.83184 -9.840332,-7 -3.357733,-2.1893 -6.535724,-4.60249 -9.741699,-7.00635 -2.365715,-1.771962 -4.747183,-3.519626 -7.136719,-5.259278 l -2.210449,-1.620117 c -1.509073,-1.102075 -3.024064,-2.196081 -4.543947,-3.283203 -1.09997,-0.798091 -1.09997,-0.798091 -2.22217,-1.612305 -0.66072,-0.473891 -1.32145,-0.947783 -2.00219,-1.436035 C -105.27714,85.643826 -105.27714,85.643826 -106,85 v -2 c 7.881106,-2.5493 15.819297,-4.788793 23.824219,-6.910156 l 2.90921,-0.77475 c 4.008648,-1.067025 8.017481,-2.132875 12.030975,-3.181549 2.960298,-0.77504 5.916482,-1.564331 8.872315,-2.356201 l 2.761642,-0.710465 2.541825,-0.688217 2.236373,-0.589249 C -48.632232,67.036802 -48.632232,67.036802 -47,64 -47.317456,58.667032 -49.452157,53.995609 -51.492187,49.128906 l -1.050324,-2.547134 C -53.647475,43.90621 -54.761139,41.234369 -55.875,38.5625 c -0.741451,-1.792084 -1.482342,-3.584399 -2.222656,-5.376953 -1.366262,-3.30341 -2.734592,-6.605929 -4.108887,-9.906006 L -63.117615,21.0867 c -0.580006,-1.371622 -1.173942,-2.737452 -1.782837,-4.096496 C -66.179693,14.130275 -67,12.174557 -67,9 c 5.152906,1.51747 9.612044,3.776452 14.3125,6.3125 1.675693,0.888188 3.351479,1.776199 5.027344,2.664062 2.974078,1.584119 5.943159,3.17658 8.906738,4.780274 3.369787,1.822321 6.748614,3.627003 10.128418,5.430664 l 3.259033,1.784424 3.076905,1.633545 2.728027,1.473388 c 3.736897,1.344072 6.200442,0.531571 9.7290037,-1.051513 C -6.0059645,30.284577 -4.6181911,30.012019 -2,29 l 0.1835938,-3.296875 C -1.3301298,17.123329 -0.77514929,8.5596273 0,0 Z"
       transform="translate(106)"
       id="path1"
       style="stroke-width:16.4877"
       sodipodi:nodetypes="ccccccccccccccccccccccccsccccccccccccccccccccccccccccccccccccccccccccccccccccccccccccccccccccccccccccccccccccccc" />
    <path
       d="M 0,0 C -0.45738454,3.2972647 -1.0080287,6.5714865 -1.6108398,9.8452148 -1.894571,11.416238 -2.1637599,12.989909 -2.4243164,14.564941 -2.9038731,17.387006 -3.446987,20.191486 -4,23 -4.1465503,23.919988 -4.2931006,24.839976 -4.4440918,25.787842 -5.0166032,28.516637 -5.5750412,30.598447 -7,33 c -3.15974,1.968928 -6.460217,2.916379 -10,4 -3.540528,2.075972 -6.743806,4.505424 -10,7 -0.616172,0.438281 -1.232344,0.876562 -1.867187,1.328125 C -38.648431,52.810551 -44.411754,64.526659 -48,76 c -0.367383,1.115684 -0.367383,1.115684 -0.742187,2.253906 -4.350053,15.701901 -0.648566,32.429244 6.800781,46.457034 9.131888,15.47092 22.500708,25.05399 39.628906,30.16406 17.009094,3.74739 34.11127,0.92082 49.175781,-7.76953 12.625603,-8.47472 20.557464,-19.16953 25.996094,-33.37891 C 74.847609,108.97387 76.970568,105.76975 81,102.5625 90.47051,94.38763 97.61854,83.672066 104,73 c 2.03866,3.158717 2.09189,5.736992 2.12085,9.430176 0.17369,5.393941 0.72396,9.871797 4.67603,13.796386 3.13006,2.646421 6.48723,4.949748 9.89843,7.216798 3.33453,2.25222 6.53779,4.67065 9.76001,7.07959 2.36697,1.76609 4.74741,3.51177 7.13452,5.25049 0.72945,0.53464 1.4589,1.06927 2.21045,1.62011 1.50908,1.10208 3.02407,2.19609 4.54395,3.28321 0.73331,0.53206 1.46663,1.06412 2.22217,1.6123 0.66072,0.47389 1.32145,0.94779 2.00219,1.43604 0.47236,0.42072 0.94473,0.84143 1.4314,1.2749 0,0.66 0,1.32 0,2 -7.88111,2.5493 -15.8193,4.78879 -23.82422,6.91016 -0.96004,0.25566 -1.92008,0.51133 -2.90921,0.77475 -4.00865,1.06702 -8.01748,2.13287 -12.03097,3.18155 -2.9603,0.77504 -5.91649,1.56433 -8.87232,2.3562 -0.91134,0.23445 -1.82268,0.4689 -2.761641,0.71046 -0.838802,0.22711 -1.677604,0.45422 -2.541825,0.68822 -0.738003,0.19445 -1.476006,0.3889 -2.236373,0.58925 C 92.632232,142.9632 92.632232,142.9632 91,146 c 0.317456,5.33297 2.452157,10.00439 4.492187,14.87109 0.346607,0.84056 0.693214,1.68111 1.050324,2.54714 1.104964,2.67556 2.218628,5.3474 3.332489,8.01927 0.74145,1.79208 1.48234,3.5844 2.22266,5.37695 1.36626,3.30341 2.73459,6.60593 4.10888,9.90601 0.30066,0.72364 0.60131,1.44727 0.91107,2.19284 0.58001,1.37162 1.17395,2.73745 1.78284,4.0965 C 110.17969,195.86972 111,197.82544 111,201 c -5.15291,-1.51747 -9.61204,-3.77645 -14.3125,-6.3125 -1.675693,-0.88819 -3.351479,-1.7762 -5.027344,-2.66406 -2.974078,-1.58412 -5.943159,-3.17658 -8.906738,-4.78028 -3.369787,-1.82232 -6.748614,-3.627 -10.128418,-5.43066 -1.075481,-0.58886 -2.150962,-1.17772 -3.259033,-1.78442 -1.523068,-0.80861 -1.523068,-0.80861 -3.076905,-1.63355 -0.900249,-0.48622 -1.800498,-0.97244 -2.728027,-1.47339 -3.736897,-1.34407 -6.200442,-0.53157 -9.729004,1.05152 -0.999668,0.53947 -0.999668,0.53947 -2.019531,1.08984 C 48.206406,181 48.206406,181 46,181 c -0.06059,1.08797 -0.121172,2.17594 -0.183594,3.29687 C 45.33013,192.87667 44.775149,201.44037 44,210 c -3.528868,-1.17629 -4.134915,-2.16465 -6.285156,-5.11328 -0.612949,-0.83596 -1.225899,-1.67192 -1.857422,-2.5332 -0.633574,-0.87979 -1.267149,-1.75957 -1.919922,-2.66602 -0.637441,-0.86818 -1.274883,-1.73637 -1.931641,-2.63086 C 26.875233,190.01217 26.875233,190.01217 25,186 c -0.99,0.33 -1.98,0.66 -3,1 -1.465197,-0.055 -2.928632,-0.16993 -4.386719,-0.32422 -9.8143,-1.09446 -9.8143,-1.09446 -18.42968725,2.60547 C -2.8252833,192.43052 -4.4035552,195.62499 -6,199 c -1.4555543,2.11463 -2.9541698,4.20044 -4.5,6.25 -0.670313,0.91266 -1.340625,1.82531 -2.03125,2.76562 -0.484688,0.65485 -0.969375,1.30969 -1.46875,1.98438 -0.66,-0.33 -1.32,-0.66 -2,-1 -0.502441,-1.93018 -0.502441,-1.93018 -0.851562,-4.44531 -0.128907,-0.91266 -0.257813,-1.82532 -0.390625,-2.76563 -0.126329,-0.96164 -0.252657,-1.92328 -0.382813,-2.91406 -0.134062,-0.93844 -0.268125,-1.87688 -0.40625,-2.84375 C -18.72563,190.9722 -19.155559,186.10515 -19,181 c -0.66,-0.0825 -1.32,-0.165 -2,-0.25 -3.371848,-0.84296 -5.952752,-2.2627 -8.9375,-4.00781 -3.287054,-1.18284 -6.039421,-0.17437 -9.186646,1.15512 -0.702176,0.36179 -1.404353,0.72359 -2.127807,1.09634 -0.804335,0.41068 -1.60867,0.82136 -2.437378,1.24448 -0.855333,0.44478 -1.710667,0.88955 -2.591919,1.34781 -0.891105,0.45758 -1.782209,0.91517 -2.700317,1.38662 -1.880838,0.96721 -3.760161,1.93736 -5.638062,2.91025 -2.867144,1.48534 -5.738513,2.96222 -8.61084,4.4375 -1.829679,0.94222 -3.659115,1.88491 -5.488281,2.82813 -0.855333,0.44073 -1.710667,0.88145 -2.591919,1.33554 -3.275212,1.69793 -6.493912,3.39677 -9.644409,5.31924 C -83,201 -83,201 -85,201 c 2.017031,-6.37636 4.386632,-12.52342 7.011719,-18.67188 0.765297,-1.81627 1.530261,-3.63268 2.294922,-5.44921 1.19455,-2.82797 2.391838,-5.65468 3.59497,-8.47901 1.169635,-2.74982 2.328132,-5.50411 3.485108,-8.25928 0.362443,-0.84278 0.724886,-1.68557 1.098312,-2.55389 C -65.04554,151.98829 -65.04554,151.98829 -65,146 c -2.222654,-3.77488 -4.179339,-4.71219 -8.357666,-5.81519 -1.094459,-0.29678 -2.188919,-0.59356 -3.316544,-0.89933 -1.181299,-0.30433 -2.362599,-0.60865 -3.579696,-0.9222 -1.817692,-0.48736 -1.817692,-0.48736 -3.672104,-0.98457 -3.21717,-0.86012 -6.437143,-1.70748 -9.659317,-2.54851 -4.545466,-1.19018 -9.084293,-2.40554 -13.624373,-3.61604 -2.41727,-0.64291 -4.83559,-1.28183 -7.25504,-1.91648 -1.0913,-0.28732 -2.18261,-0.57465 -3.30699,-0.87068 -0.96358,-0.25219 -1.92716,-0.50437 -2.91994,-0.7642 C -123,127 -123,127 -125,126 c 1.11976,-3.35928 1.73603,-3.80915 4.51562,-5.79297 0.7471,-0.54052 1.49419,-1.08104 2.26392,-1.63794 0.81525,-0.57967 1.6305,-1.15935 2.47046,-1.75659 1.72391,-1.24566 3.44651,-2.49313 5.16797,-3.74219 0.90669,-0.6571 1.81339,-1.3142 2.74756,-1.99121 5.78734,-4.24505 11.464385,-8.63658 17.153806,-13.011473 0.844658,-0.647512 1.689316,-1.295024 2.55957,-1.962158 0.748382,-0.575969 1.496763,-1.151939 2.267823,-1.745362 C -84,93 -84,93 -82,92 c 0.497945,-2.984633 0.894974,-5.935385 1.25,-8.9375 3.554454,-26.134724 15.571338,-48.006363 36.046875,-64.964844 C -32.573115,9.1222631 -15.372313,0 0,0 Z"
       transform="translate(125,90)"
       id="path2"
       style="stroke-width:16.4877" />
    <path
       d="m 0,0 c 2.1621709,3.2432563 2.7529917,5.5658296 3.619873,9.3481445 0.148202,0.6394707 0.2964039,1.2789415 0.4490967,1.9377895 0.4877509,2.114126 0.9658609,4.230278 1.442749,6.346878 0.3357045,1.47634 0.6715475,2.952647 1.0075226,4.428925 0.7030505,3.097536 1.4006806,6.196239 2.0952606,9.295685 0.887065,3.953911 1.7930461,7.903217 2.7039821,11.851686 0.700452,3.050329 1.38775,6.103515 2.07154,9.157618 0.328224,1.456168 0.661109,2.911294 0.998898,4.365272 C 16.154101,64.353754 17.747712,71.254355 16,79 c -0.225661,1.07824 -0.451323,2.156481 -0.683823,3.267395 -0.857122,3.953935 -1.769977,7.891849 -2.695083,11.830261 -0.335324,1.444349 -0.670191,2.888804 -1.004624,4.333359 -0.874982,3.773895 -1.7560989,7.546345 -2.6385647,11.318495 -0.9019925,3.86062 -1.7980881,7.7226 -2.6947022,11.58447 C 4.527857,128.89066 2.7660178,136.44581 1,144 c -0.66,-0.33 -1.32,-0.66 -2,-1 -0.8166962,-2.64124 -0.8166962,-2.64124 -1.619873,-6.21289 -0.148202,-0.64893 -0.2964039,-1.29787 -0.4490967,-1.96646 -0.4898565,-2.15706 -0.9668775,-4.31672 -1.442749,-6.4769 -0.3355097,-1.50166 -0.6713553,-3.00325 -1.0075226,-4.50476 -0.7043283,-3.15632 -1.4018688,-6.31404 -2.0952606,-9.47278 -0.8857018,-4.03046 -1.7919285,-8.05598 -2.7039821,-12.08054 -0.700542,-3.105257 -1.387847,-6.213334 -2.07154,-9.322337 -0.328393,-1.484021 -0.661285,-2.967054 -0.998898,-4.449005 C -16.729284,73.800269 -16.729284,73.800269 -15,66 c 0.210585,-1.060526 0.421171,-2.121052 0.638138,-3.213715 0.790081,-3.873914 1.632671,-7.734763 2.486862,-11.594879 0.310386,-1.41717 0.620439,-2.834412 0.930176,-4.251724 0.64604,-2.951484 1.2951895,-5.90226 1.9467771,-8.852524 0.8356052,-3.784071 1.6646648,-7.56954 2.4916077,-11.355513 0.6378657,-2.91803 1.2784549,-5.835456 1.9199524,-8.752689 0.3068878,-1.396529 0.6130844,-2.79321 0.9185791,-4.190044 0.4256923,-1.943815 0.8552974,-3.8867721 1.2850952,-5.8296835 C -2.017605,6.3011794 -2.017605,6.3011794 -1.6450195,4.6096344 -1,2 -1,2 0,0 Z"
       transform="translate(137,78)"
       id="path3"
       style="stroke-width:16.4877" />
    <path
       d="m 0,0 c 13.796903,1.3702404 30.116707,5.8879478 41,15 3.95489,11.382368 0.457913,25.281625 -4,36 -1.166667,-0.875 -2.333333,-1.75 -3.5,-2.625 -0.734766,-0.547852 -1.469531,-1.095703 -2.226563,-1.660156 -1.424293,-1.074338 -2.837748,-2.16337 -4.234375,-3.273438 C 21.564232,39.139754 15.513716,35.423244 8.8320313,33.316406 5.8871671,31.200374 5.6428864,28.060764 4.9375,24.6875 4.7754004,23.97634 4.6133008,23.265181 4.4462891,22.532471 4.1141637,21.070043 3.7888292,19.606056 3.4702148,18.140625 2.7756719,14.97876 2.0050649,11.835376 1.25,8.6875 0.53064924,5.6379119 0,3.1352064 0,0 Z"
       transform="translate(150,90)"
       id="path4"
       style="stroke-width:16.4877" />
    <path
       d="M 0,0 C 1.1666667,0.875 2.3333333,1.75 3.5,2.625 4.6021484,3.4467773 4.6021484,3.4467773 5.7265625,4.2851562 7.1508558,5.3594943 8.5643114,6.4485264 9.9609375,7.5585937 15.38212,11.818095 21.396582,15.563654 28.023437,17.631348 c 3.106529,2.151086 3.133128,4.72471 3.898438,8.345214 0.149713,0.685248 0.299425,1.370495 0.453674,2.076508 0.474119,2.187573 0.924491,4.379274 1.374451,6.57193 0.317458,1.484708 0.636451,2.969088 0.957031,4.453125 C 35.489185,42.715124 36.250121,46.356193 37,50 33.134409,51.28853 30.3752,50.367956 26.5625,49.375 25.848198,49.191147 25.133896,49.007295 24.397949,48.817871 14.764912,46.243172 3.6255481,42.650373 -4,36 -7.8156345,24.474016 -4.5044878,10.830355 0,0 Z"
       transform="translate(88,159)"
       id="path5"
       style="stroke-width:16.4877" />
  </g>
</svg>
