<?xml version="1.0" encoding="UTF-8" standalone="no"?>
<svg
   version="1.1"
   width="24"
   height="24"
   id="svg5"
   sodipodi:docname="phb24-wizard.svg"
   inkscape:version="1.3.2 (091e20e, 2023-11-25, custom)"
   xmlns:inkscape="http://www.inkscape.org/namespaces/inkscape"
   xmlns:sodipodi="http://sodipodi.sourceforge.net/DTD/sodipodi-0.dtd"
   xmlns="http://www.w3.org/2000/svg"
   xmlns:svg="http://www.w3.org/2000/svg">
  <defs
     id="defs5" />
  <sodipodi:namedview
     id="namedview5"
     pagecolor="#ffffff"
     bordercolor="#111111"
     borderopacity="1"
     inkscape:showpageshadow="0"
     inkscape:pageopacity="0"
     inkscape:pagecheckerboard="1"
     inkscape:deskcolor="#d1d1d1"
     inkscape:zoom="7.335689"
     inkscape:cx="14.109104"
     inkscape:cy="13.563825"
     inkscape:window-width="1366"
     inkscape:window-height="697"
     inkscape:window-x="-8"
     inkscape:window-y="-8"
     inkscape:window-maximized="1"
     inkscape:current-layer="svg5" />
  <g
     id="g5"
     transform="matrix(0.06990806,0,0,0.06990806,1.5000006,2.1048141)"
     style="stroke-width:14.3045">
    <path
       d="M 0,0 C -0.04640625,0.7528125 -0.0928125,1.505625 -0.140625,2.28125 -0.90461256,24.764312 9.179726,45.499076 24,62 35.108477,73.403392 48.100475,81.371512 61.788086,89.318359 72.426865,95.53285 82.059415,102.46305 91,111 c 3.143213,-1.39467 5.23524,-3.04493 7.6875,-5.4375 8.97834,-8.115604 19.75786,-14.074364 30.13599,-20.204834 C 136.68873,80.70845 144.14111,76.085705 151,70 c 0.81211,-0.670312 1.62422,-1.340625 2.46094,-2.03125 C 169.70798,54.171264 181.17967,34.260973 184,13 c 0.0652,-2.290833 0.0859,-4.5833579 0.0625,-6.875 -0.009,-1.1524219 -0.018,-2.3048437 -0.0273,-3.4921875 C 184.02355,1.7639844 184.01195,0.89515625 184,0 c 5.44154,0.54843908 9.54034,2.5162202 14.3125,5 1.09151,0.5530078 1.09151,0.5530078 2.20508,1.1171875 5.3131,2.713497 5.3131,2.713497 6.48242,3.8828125 0.72469,7.536825 -1.58167,13.917738 -4,21 5.00614,-3.725498 7.95578,-7.571586 11,-13 3.84375,1.757812 3.84375,1.757812 5.25,3.9375 C 220,24 220,24 220,27 c 0.51949,-0.372539 1.03898,-0.745078 1.57422,-1.128906 1.04607,-0.709629 1.04607,-0.709629 2.11328,-1.433594 0.68449,-0.475664 1.36898,-0.951328 2.07422,-1.441406 C 228.68239,21.696317 230.0138,21.919281 233,23 c 1.94922,1.707031 1.94922,1.707031 3.6875,3.8125 0.87205,1.030605 0.87205,1.030605 1.76172,2.082031 2.11406,2.870227 3.38228,5.044409 3.94531,8.589844 -0.54954,3.503979 -2.01572,4.505426 -4.70703,6.765625 -1.38445,1.177559 -1.38445,1.177559 -2.79688,2.378906 C 233.45977,47.802598 233.45977,47.802598 232,49 c -0.83016,0.689648 -1.66031,1.379297 -2.51563,2.089844 -2.26332,1.864118 -4.53843,3.712783 -6.81787,5.557129 -3.35952,2.727586 -6.7001,5.478289 -10.0415,8.228027 -0.72985,0.600542 -1.4597,1.201084 -2.21167,1.819824 -4.99346,4.116312 -9.94655,8.277064 -14.8772,12.468262 -5.99728,5.091465 -12.10367,10.046786 -18.20801,15.008789 -4.92691,4.015576 -9.80605,8.077475 -14.64062,12.203125 -4.43611,3.78281 -8.9534,7.43046 -13.5625,11 -5.67346,4.39751 -11.09946,9.02672 -16.49048,13.7644 -4.94699,4.32401 -10.04295,8.42105 -15.24389,12.43482 -2.24194,1.73025 -4.38544,3.42059 -6.39063,5.42578 -0.18563,1.70156 -0.18563,1.70156 -0.375,3.4375 C 110,156 110,156 108.125,157.875 c -5.18511,2.74506 -10.2133,2.3454 -15.9375,2.375 -1.478232,0.0309 -1.478232,0.0309 -2.986328,0.0625 C 83.694991,160.34208 79.756408,160.11329 75,157 74,156 74,156 73.835937,152.80469 72.72942,147.76848 70.572548,146.18965 66.625,143.125 65.987961,142.60599 65.350923,142.08698 64.69458,141.55225 62.80829,140.0193 60.905008,138.50957 59,137 c -1.772703,-1.45606 -3.543714,-2.91418 -5.3125,-4.375 -0.875273,-0.71156 -1.750547,-1.42313 -2.652344,-2.15625 C 47.22141,127.36671 43.421579,124.24802 39.625,121.125 38.892651,120.52277 38.160303,119.92053 37.405762,119.30005 33.007635,115.67596 28.646162,112.01328 24.3125,108.3125 20.002109,104.63316 15.604354,101.09625 11.125,97.625 5.3814767,93.170561 -0.12732951,88.490718 -5.5961914,83.70459 -10.964107,79.009943 -16.452626,74.481212 -22,70 -28.438138,64.770193 -34.81745,59.480098 -41.137207,54.108398 -45.695716,50.240159 -50.31216,46.448795 -54.953125,42.679687 -57,41 -57,41 -58,40 c 0.131213,-6.429455 2.673451,-10.33908 7,-15 3.615894,-3.013245 3.615894,-3.013245 5.8125,-2.9375 3.230313,1.38442 6.168519,3.137723 9.1875,4.9375 0.09668,-0.727031 0.193359,-1.454063 0.292969,-2.203125 0.805695,-3.187169 2.000013,-4.969503 4.019531,-7.546875 0.594258,-0.778594 1.188516,-1.557187 1.800781,-2.359375 C -27.879383,12.879133 -26.774222,12.367447 -24,12 c 0.470508,0.759258 0.941016,1.518516 1.425781,2.300781 0.622617,0.993867 1.245235,1.987735 1.886719,3.011719 0.922324,1.479199 0.922324,1.479199 1.863281,2.988281 1.668667,2.653215 1.668667,2.653215 3.554688,4.429688 C -14,26 -14,26 -14,28 c 0.66,0 1.32,0 2,0 -0.495,-1.19625 -0.99,-2.3925 -1.5,-3.625 C -15.665158,18.021838 -15.254618,11.629503 -15,5 -13.065321,4.1601392 -11.127149,3.3283197 -9.1875,2.5 -8.1085547,2.0359375 -7.0296094,1.571875 -5.9179687,1.09375 -3,0 -3,0 0,0 Z"
       transform="translate(58,123)"
       id="path1"
       style="stroke-width:14.3045" />
    <path
       d="M 0,0 C 9.9599295,-1.0587327 17.118959,1.6779189 25.136719,7.5703125 31.739481,13.499908 35.479132,22.361957 36.167969,31.140625 36.30448,45.883879 29.997074,57.566498 20.0354,68.117432 11.535253,76.739659 1.7331145,83.928301 -7.875,91.25 -22.566294,102.49093 -35.620861,114.32894 -40,133 c -2.365894,21.58813 5.68888,40.4898 17.847656,57.86328 0.380274,0.70512 0.760547,1.41024 1.152344,2.13672 -0.33,0.99 -0.66,1.98 -1,3 -8.750614,-5.33359 -16.623519,-10.81796 -24,-18 -0.854648,-0.79277 -1.709297,-1.58555 -2.589844,-2.40234 C -54.52061,169.95228 -58.993114,164.13246 -63,157 c -0.473086,-0.83531 -0.946172,-1.67063 -1.433594,-2.53125 C -71.854803,140.55123 -73.701127,124.1522 -69.375,108.875 -60.665416,85.082965 -39.89715,71.136106 -20.042969,57.226562 -6.6218439,47.800944 5.5808998,38.187958 9.875,21.625 10.116679,14.616297 7.9195566,9.7238228 3.3125,4.5 2.3785742,3.5254688 2.3785742,3.5254688 1.4257812,2.53125 0,1 0,1 0,0 Z"
       transform="translate(142)"
       id="path2"
       style="stroke-width:14.3045" />
    <path
       d="M 0,0 C 17.24748,6.169291 35.185174,21.117387 43.746094,37.300781 50.949057,52.553099 53.38212,66.690049 48,83 c -3.625377,9.119952 -8.351261,17.74566 -15,25 -0.850781,0.9423 -1.701563,1.88461 -2.578125,2.85547 C 21.434808,120.47569 10.320211,129.06115 -2,134 c -0.99,0 -1.98,0 -3,0 1.4769074,-4.21192 3.6905799,-7.65544 6.1875,-11.3125 C 11.467071,107.12034 19.162545,88.50898 15.308594,69.609375 11.513125,56.206129 4.5877777,46.778987 -5,37 -5.7399219,36.221406 -6.4798437,35.442813 -7.2421875,34.640625 -11.205826,30.538182 -15.252938,27.164708 -20,24 c 0.509319,-4.065457 2.417229,-5.517311 5.5,-8.0625 C -8.9226693,11.1156 -4.507905,5.8254329 0,0 Z"
       transform="translate(179,61)"
       id="path3"
       style="stroke-width:14.3045" />
    <path
       d="M 0,0 C 1.980406,2.970609 2.9884208,5.5273999 4.1875,8.875 11.594257,28.309638 23.625319,43.606767 41,55 c -0.852998,1.146704 -1.707499,2.292289 -2.5625,3.4375 -0.547852,0.736055 -1.095703,1.472109 -1.660156,2.230469 -1.146122,1.503812 -2.319096,2.987709 -3.523438,4.445312 C 24.413601,75.883096 18.732716,88.727745 17.40625,102.62109 15.681252,120.66478 15.681252,120.66478 10.375,125.9375 6.4887064,129 6.4887064,129 5,129 4.8604132,121.07178 4.7540859,113.14407 4.689127,105.21492 4.6579349,101.53224 4.6156907,97.850406 4.5473633,94.168213 4.481728,90.608452 4.446203,87.0495 4.4307365,83.48918 4.4144041,81.483364 4.3676357,79.477871 4.320221,77.472549 4.3175303,70.106768 4.938571,65.543368 9.8057556,59.851669 11.221951,58.07327 11.221951,58.07327 10.810455,55.92067 9.5803996,53.005604 7.5865268,51.050367 5.4375,48.75 4.6112109,47.857969 3.7849219,46.965938 2.9335938,46.046875 2.2955078,45.371406 1.6574219,44.695937 1,44 c -6.3292594,5.167652 -6.3292594,5.167652 -12,11 0.352752,3.155377 1.6021744,4.91285 3.5319824,7.353516 3.7709942,5.893265 3.0892987,12.21365 2.9562989,18.990234 -0.00934,1.378608 -0.016451,2.757233 -0.021439,4.135864 -0.018963,3.603994 -0.067968,7.206957 -0.12352,10.810547 -0.051426,3.686992 -0.074044,7.374149 -0.099182,11.061399 C -4.8092578,114.56817 -4.8944363,121.78394 -5,129 c -1.1055189,-0.93591 -2.2093545,-1.8738 -3.3125,-2.8125 -0.6148828,-0.52207 -1.2297656,-1.04414 -1.863281,-1.58203 -3.654809,-3.21655 -5.162079,-4.63665 -5.597657,-9.62109 -0.09966,-0.99685 -0.199321,-1.9937 -0.302001,-3.02076 -0.09886,-1.06049 -0.19771,-2.12099 -0.299561,-3.21362 C -18.574865,88.700651 -25.225711,71.271139 -40,57 c 1.418793,-3.41397 3.006641,-4.997577 6,-7.125 C -18.956564,38.466058 -9.7730674,24.386316 -3,7 -2.0156977,4.6595866 -1.0090432,2.3299189 0,0 Z"
       transform="translate(150,94)"
       id="path4"
       style="stroke-width:14.3045" />
    <path
       d="m 0,0 c -0.52268466,2.7627618 -1.1086959,5.3260876 -2,8 -0.5286772,5.392508 0.4603307,8.562578 3.125,13.105469 C 2,23 2,23 2,27 c -1.83744166,1.88204 -3.5760858,3.447103 -5.625,5.0625 -0.7831055,0.650654 -0.7831055,0.650654 -1.5820312,1.314453 C -8.6012545,36.130045 -12.032867,38.18322 -16,40 -20.425587,31.533659 -20.986768,23.965105 -18.320312,14.617188 -15.510196,8.2757741 -10.264671,3.6323356 -4.125,0.5625 -2,0 -2,0 0,0 Z"
       transform="translate(131,11)"
       id="path5"
       style="stroke-width:14.3045" />
  </g>
</svg>
