<?xml version="1.0" encoding="UTF-8" standalone="no"?>
<svg
   version="1.1"
   width="24"
   height="24"
   id="svg3"
   sodipodi:docname="phb24-rogue.svg"
   inkscape:version="1.3.2 (091e20e, 2023-11-25, custom)"
   viewBox="0 0 24 24"
   xmlns:inkscape="http://www.inkscape.org/namespaces/inkscape"
   xmlns:sodipodi="http://sodipodi.sourceforge.net/DTD/sodipodi-0.dtd"
   xmlns="http://www.w3.org/2000/svg"
   xmlns:svg="http://www.w3.org/2000/svg">
  <defs
     id="defs3" />
  <sodipodi:namedview
     id="namedview3"
     pagecolor="#ffffff"
     bordercolor="#111111"
     borderopacity="1"
     inkscape:showpageshadow="0"
     inkscape:pageopacity="0"
     inkscape:pagecheckerboard="1"
     inkscape:deskcolor="#d1d1d1"
     inkscape:zoom="9.7863578"
     inkscape:cx="-2.9633088"
     inkscape:cy="17.728761"
     inkscape:window-width="1366"
     inkscape:window-height="697"
     inkscape:window-x="-8"
     inkscape:window-y="-8"
     inkscape:window-maximized="1"
     inkscape:current-layer="svg3" />
  <g
     id="g3"
     transform="matrix(0.0660066,0,0,0.0660066,2.2640265,2.0840212)"
     style="stroke-width:15.15">
    <path
       d="m 132,0 c 0.99,0.495 0.99,0.495 2,1 0.54856,2.3348526 0.96983,4.5908664 1.32422,6.9570312 0.16578,1.0490577 0.16578,1.0490577 0.33491,2.1193088 0.23203,1.483069 0.45954,2.966851 0.68291,4.451248 0.34276,2.267058 0.70335,4.530752 1.06616,6.794678 0.22309,1.440588 0.44513,2.881339 0.66602,4.322265 0.16238,1.014268 0.16238,1.014268 0.32805,2.049027 0.913,6.206572 0.913,6.206572 -0.40227,9.306442 -1.93359,0.949219 -1.93359,0.949219 -4.4375,1.6875 C 127.05405,41.101777 122.83431,45.156561 118,50 c -0.6281,0.626484 -1.25619,1.252969 -1.90332,1.898437 -4.20725,4.20128 -4.20725,4.20128 -8.38818,8.428711 C 103.95938,64.127265 100.12521,67.615366 96,71 c -2.754541,3.397267 -3.675351,6.42354 -3.460938,10.84375 1.594317,7.458158 8.157498,13.179309 13.202398,18.55347 4.01576,4.27961 7.71953,8.73869 11.38354,13.32544 1.77794,2.24893 1.77794,2.24893 3.625,3.96093 C 122,119 122,119 122,121 c -1.25813,0.35062 -2.51625,0.70125 -3.8125,1.0625 -3.23872,1.26557 -4.13002,1.86142 -6.3125,4.75 -2.06971,6.2492 -0.47018,14.38415 2.01953,20.32031 2.53956,4.02687 5.65409,6.3834 10.10547,7.86719 2.92654,5.85308 1.65556,14.77105 1.78955,21.19995 0.0566,2.14308 0.13824,4.28565 0.24609,6.42676 0.92692,18.76069 0.92692,18.76069 -3.82251,24.16333 -3.13187,2.89347 -6.55808,5.03193 -10.21313,7.20996 -1.62493,1.26545 -3.23419,2.55186 -4.8125,3.875 -0.79535,0.63035 -1.5907,1.2607 -2.41016,1.91016 -3.53097,2.81584 -7.027581,5.67286 -10.52734,8.52734 -5.103673,4.16015 -10.242381,8.26723 -15.4375,12.3125 -5.086132,3.9636 -10.028841,8.0649 -14.92749,12.25708 -4.364542,3.71838 -8.847397,7.26297 -13.373291,10.78198 C 45.772634,267.36159 41.128422,271.16517 36.5,275 c -6.389841,5.29028 -12.842878,10.48468 -19.390625,15.57812 -1.977818,1.54052 -3.947562,3.09149 -5.90625,4.65625 -0.809531,0.64454 -1.619062,1.28907 -2.453125,1.95313 -0.685781,0.55043 -1.3715625,1.10086 -2.078125,1.66797 C 5,300 5,300 3,300 c 0.5966054,-3.20873 1.5908257,-5.04134 3.703125,-7.51172 0.8420801,-0.99967 0.8420801,-0.99967 1.701172,-2.01953 0.913623,-1.06734 0.913623,-1.06734 1.845703,-2.15625 4.90297,-5.83137 9.666074,-11.72707 14.25,-17.8125 4.975028,-6.58473 10.134711,-12.98606 15.407959,-19.33374 4.076668,-4.91279 8.054126,-9.89051 11.977051,-14.92651 3.499927,-4.48335 7.078124,-8.89849 10.67749,-13.30225 3.887379,-4.75919 7.710901,-9.55125 11.4375,-14.4375 4.255144,-5.57927 8.652349,-11.02822 13.091309,-16.46191 3.722159,-4.56194 7.399006,-9.15615 11.033691,-13.78809 0.67374,-0.85839 0.67374,-0.85839 1.36108,-1.73413 C 100.66146,175.01376 101.831,173.50708 103,172 c 0.59555,-0.74766 1.19109,-1.49531 1.80469,-2.26563 C 106.18916,168.0766 106.18916,168.0766 106,166 c -1.36486,-1.31475 -1.36486,-1.31475 -3.19141,-2.61719 -0.69101,-0.51909 -1.38203,-1.03818 -2.09399,-1.573 -0.75144,-0.55598 -1.50289,-1.11197 -2.2771,-1.68481 -1.553018,-1.16933 -3.105081,-2.33994 -4.65625,-3.51172 -0.792773,-0.59732 -1.585547,-1.19464 -2.402344,-1.81006 -3.679835,-2.78933 -7.319735,-5.62642 -10.941406,-8.49072 -0.648479,-0.50451 -1.296958,-1.00901 -1.965088,-1.52881 C 76.943148,143.56938 75.465484,142.29056 74,141 c 0,-0.66 0,-1.32 0,-2 0.638086,-0.19336 1.276172,-0.38672 1.933594,-0.58594 0.826289,-0.26039 1.652578,-0.52078 2.503906,-0.78906 0.823711,-0.25523 1.647422,-0.51047 2.496094,-0.77344 C 83.17798,136.19118 83.17798,136.19118 84,134 c 0.560709,-5.83137 -0.522242,-8.37855 -4,-13 -1.798915,-1.80675 -3.655192,-3.55808 -5.5625,-5.25 -0.950039,-0.85078 -1.900078,-1.70156 -2.878906,-2.57812 -3.487631,-3.23303 -3.487631,-3.23303 -7.914063,-4.08594 -3.451041,1.19282 -5.325262,3.01774 -7.957031,5.53906 -3.211821,3.04985 -6.435353,6.01864 -9.875,8.8125 C 39.463553,128.96174 34.263229,135.85009 32,144 c 0,0.66 0,1.32 0,2 C 23.915577,144.56336 15.861595,142.99708 7.8125,141.375 6.6697461,141.14555 5.5269922,140.91609 4.3496094,140.67969 1.5662261,140.12068 -1.2169719,139.56077 -4,139 c 1.3829862,-4.14896 3.3642366,-4.52993 7.1875,-6.5625 C 20.512504,122.90049 34.22217,110.02193 48,96 47.334042,92.834091 47.334042,92.834091 44.714844,91.832031 43.79832,91.495586 42.881797,91.159141 41.9375,90.8125 40.558848,90.29623 40.558848,90.29623 39.152344,89.769531 38.44207,89.515586 37.731797,89.261641 37,89 37.796875,84.195312 37.796875,84.195312 39.625,82.4375 40.07875,81.963125 40.5325,81.48875 41,81 40.769675,76.729383 37.693182,74.258699 34.875,71.375 27.909822,63.988683 22.140979,56.881951 19.117187,47.03125 18.135586,44.820277 18.135586,44.820277 15.800781,43.777344 11.541863,42.595301 7.2449069,42.171263 2.8632812,41.660156 0,41 0,41 -2,38 -2.5129347,31.331849 -0.1723176,26.046518 4,21 9.176505,15.422216 14.33879,11.238466 22,10 c 3.4375,0.0625 3.4375,0.0625 6,1 2.946771,4.326111 2.793547,9.730586 3.339844,14.785156 C 32.011803,29.057477 32.266025,30.181502 35,32 c 2.126587,0.715366 2.126587,0.715366 4.5,1.1875 C 50.893257,36.412007 59.073773,45.65983 67,54 68.36125,52.731563 68.36125,52.731563 69.75,51.4375 71.296875,49.996094 71.296875,49.996094 73,49 c 2.0625,0.101562 2.0625,0.101562 4,1 1.265625,1.777344 1.265625,1.777344 2.25,3.9375 0.502734,1.06541 0.502734,1.06541 1.015625,2.152344 C 81,58 81,58 81,60 87.446405,57.033348 91.895347,52.840485 97,48 97.733477,47.330977 98.46695,46.661953 99.22266,45.972656 111.5941,34.27479 120.4233,19.55686 129,5 c 0.99873,-1.6674275 1.99807,-3.3344939 3,-5 z"
       id="path1"
       style="stroke-width:15.15" />
    <path
       d="m 162,0 c 3.0552,2.6441027 4.64955,5.7861261 6.5625,9.3125 8.10584,14.557006 18.42588,27.786384 30.125,39.625 0.53472,0.544065 1.06944,1.08813 1.62036,1.648682 C 204.37812,54.623715 208.47534,58.158448 214,60 c 0.26812,-0.886875 0.53625,-1.77375 0.8125,-2.6875 1.10461,-3.081275 2.41599,-5.574714 4.1875,-8.3125 3.88533,0.575605 6.03047,2.537702 9,5 0.83402,-0.868828 1.66805,-1.737656 2.52734,-2.632813 8.92281,-9.188959 16.21816,-15.990603 28.96875,-19.117187 2.74971,-1.051929 2.74971,-1.051929 3.79297,-3.953125 0.96345,-4.467847 1.51744,-8.932713 2.05078,-13.46875 C 266,12 266,12 269,10 c 9.3821,0.318037 15.83264,4.017965 22.23437,10.785156 3.54471,4.446565 5.51363,8.946808 6.14063,14.589844 C 297,38 297,38 295,41 c -2.67729,0.655485 -5.22271,1.158983 -7.9375,1.5625 C 281.2432,43.407855 281.2432,43.407855 276,46 c -0.91278,2.274719 -0.91278,2.274719 -1.625,4.9375 -2.77396,8.079297 -8.20983,13.713368 -13.99609,19.835937 -0.82629,0.879141 -1.65258,1.758282 -2.50391,2.664063 -0.7657,0.782461 -1.53141,1.564922 -2.32031,2.371094 -1.79923,2.043462 -1.79923,2.043462 -1.39453,4.382812 0.75213,1.905849 0.75213,1.905849 2.40234,3.308594 C 258,85 258,85 258,89 c -3.63,1.65 -7.26,3.3 -11,5 8.67043,17.34085 29.645,29.75601 45.95312,39.22266 2.05284,1.19748 4.06945,2.45905 6.04688,3.77734 0,0.66 0,1.32 0,2 -4.00128,0.83901 -8.00317,1.67508 -12.00562,2.50854 -1.35888,0.2834 -2.71761,0.56756 -4.07617,0.85254 -1.96318,0.41167 -3.92702,0.82024 -5.89087,1.22876 -1.17828,0.24613 -2.35656,0.49226 -3.57055,0.74585 C 269.9814,145.00358 266.50691,145.5281 263,146 c -0.0412,-0.80438 -0.0825,-1.60875 -0.125,-2.4375 C 259.94514,131.63377 248.24808,121.45509 239,114 c -0.63164,-0.51949 -1.26328,-1.03898 -1.91406,-1.57422 -3.11657,-2.61755 -3.11657,-2.61755 -6.94922,-3.3125 C 222.74974,112.17881 214.60813,119.78374 211,127 c -0.43694,4.59406 -0.43694,4.59406 1.0625,8.8125 2.81296,1.72407 5.75245,2.40626 8.9375,3.1875 -1.3537,3.14248 -2.71935,4.84817 -5.45703,6.88281 -0.69489,0.52312 -1.38977,1.04624 -2.10571,1.58521 -0.74242,0.5468 -1.48484,1.09361 -2.24976,1.65698 -1.53664,1.15211 -3.07309,2.30445 -4.60938,3.45703 -0.76763,0.57186 -1.53527,1.14372 -2.32617,1.73291 -3.29662,2.46675 -6.55651,4.98008 -9.81445,7.49756 -1.06368,0.81917 -2.12747,1.6382 -3.19141,2.45703 -0.74121,0.57106 -1.48242,1.14211 -2.24609,1.73047 1.42495,4.25944 3.50669,7.05652 6.4375,10.4375 0.90798,1.06233 1.81416,2.12619 2.71875,3.19141 0.46922,0.55188 0.93844,1.10376 1.42187,1.67236 2.35027,2.80789 4.60614,5.68778 6.85938,8.57373 0.68643,0.87785 0.68643,0.87785 1.38672,1.77344 0.93024,1.19081 1.85993,2.38205 2.78906,3.57373 2.26932,2.90936 4.54601,5.81293 6.82422,8.71533 0.45254,0.57694 0.90508,1.15387 1.37134,1.74829 2.83503,3.60799 5.69585,7.19403 8.57202,10.76929 4.7715,5.93163 9.45454,11.91827 14.05664,17.98242 4.77248,6.28712 9.68078,12.44092 14.68726,18.54272 3.8944,4.7649 7.65876,9.61517 11.37524,14.51978 5.42657,7.16059 11.02768,14.16092 16.72266,21.10937 0.47453,0.58202 0.94907,1.16403 1.43798,1.76368 1.21817,1.47974 2.46294,2.93749 3.71045,4.39257 C 291,297 291,297 291,300 c -4.85936,-1.51342 -7.97001,-4.30349 -11.6875,-7.625 -1.2489,-1.0937 -2.49891,-2.18615 -3.75,-3.27734 -0.60844,-0.53223 -1.21688,-1.06445 -1.84375,-1.6128 -3.02551,-2.6138 -6.16151,-5.08338 -9.29688,-7.56299 C 259.90339,276.33624 255.45899,272.65914 251,269 c -6.3213,-5.18155 -12.65479,-10.34777 -19,-15.5 -7.19996,-5.84628 -14.38143,-11.71475 -21.55469,-17.59375 -4.71343,-3.86026 -9.42854,-7.7185 -14.15942,-11.55737 -1.36217,-1.1116 -2.71748,-2.23165 -4.06592,-3.35987 -3.40969,-2.8301 -6.79269,-5.40792 -10.57935,-7.71557 -9.73049,-6.17331 -9.73049,-6.17331 -11.29687,-11.50879 -0.70351,-5.53793 -0.19001,-10.98826 0.36719,-16.52002 0.4278,-4.80193 0.53924,-9.60455 0.67968,-14.42212 C 171.5467,165.54633 171.77266,160.27352 172,155 c 0.5427,-0.23074 1.08539,-0.46148 1.64453,-0.69922 C 178.1606,152.2421 181.09327,150.8217 183,146 c 0.59632,-2.69457 1.04642,-5.21532 1.375,-7.9375 0.10699,-0.69029 0.21398,-1.38059 0.32422,-2.0918 0.62073,-4.88707 0.10023,-7.90815 -2.69922,-11.9707 -1.97918,-1.32301 -1.97918,-1.32301 -4.1875,-1.875 -1.88719,-0.55688 -1.88719,-0.55688 -3.8125,-1.125 2.14501,-3.86101 4.60325,-6.91139 7.625,-10.125 4.30004,-4.65107 8.35899,-9.43077 12.33203,-14.367188 1.77663,-2.180865 3.60631,-4.286289 5.48047,-6.382812 3.14026,-3.68108 4.46142,-6.406715 4.75,-11.3125 C 200.70669,67.637263 187.36971,58.658986 179.0105,50.907471 176.47659,48.503414 174.04442,46.0094 171.63354,43.482422 167.23489,39.490694 161.54657,37.801653 156,36 c 2.80204,-20.85242 2.80204,-20.85242 4.125,-29.8125 0.14695,-0.9964453 0.29391,-1.9928906 0.44531,-3.0195312 C 161,1 161,1 162,0 Z"
       id="path2"
       style="stroke-width:15.15" />
    <path
       d="m 0,0 c 0.77859375,-0.02835938 1.5571875,-0.05671875 2.359375,-0.0859375 7.920142,1.2629415 13.616105,5.427715 19.113281,11.0195315 0.630951,0.626167 1.261902,1.252334 1.911972,1.897476 1.317633,1.314256 2.629078,2.634744 3.934464,3.961166 2.002282,2.029257 4.03013,4.030209 6.061767,6.03003 1.282207,1.285507 2.562864,2.572564 3.841797,3.861328 0.606106,0.595985 1.212212,1.19197 1.836685,1.806015 4.064715,4.180865 4.064715,4.180865 4.684311,7.646866 -0.737093,3.342438 -2.553368,4.938692 -4.931152,7.363525 -0.926879,0.967759 -1.851304,1.937874 -2.773438,2.910156 -0.468896,0.491294 -0.937792,0.982588 -1.420898,1.48877 C 32.527501,50.154484 30.612266,52.540044 28.6875,54.9375 25.039286,59.473467 21.198178,63.763034 17.195312,67.988281 14.014766,71.890518 11.7973,75.622802 12.0625,80.75 c 0.09281,1.794375 0.09281,1.794375 0.1875,3.625 3.96,0.33 7.92,0.66 12,1 1.122429,3.367288 0.894143,5.038062 0.3125,8.5 -0.222363,1.438594 -0.222363,1.438594 -0.449219,2.90625 -1.041867,3.130317 -2.032056,3.97517 -4.863281,5.59375 -2.313479,0.7326 -4.645752,1.41144 -7,2 -1.184588,7.48801 -1.163859,14.92575 -1.167969,22.49219 -0.0032,1.39625 -0.0066,2.7925 -0.01009,4.18875 -0.006,2.90975 -0.0078,5.81946 -0.0072,8.72922 1.03e-4,3.73259 -0.01364,7.46499 -0.03077,11.19753 -0.01109,2.87554 -0.01315,5.75104 -0.01262,8.6266 -0.0012,1.37715 -0.0056,2.7543 -0.01333,4.13143 -0.0098,1.91697 -0.0057,3.83399 -8.95e-4,5.75098 -0.0014,1.09062 -0.0029,2.18123 -0.0043,3.3049 -0.01303,2.74239 -0.01303,2.74239 2.247238,4.5784 0.198152,2.4283 0.272833,4.74254 0.258789,7.17187 0.0035,0.73836 0.007,1.47671 0.01062,2.23743 0.0088,2.447 0.003,4.8937 -0.0038,7.3407 0.0013,1.69629 0.0033,3.39258 0.0058,5.08887 0.003,3.55765 -0.0013,7.11521 -0.01068,10.67285 -0.01139,4.56679 -0.0048,9.13335 0.0071,13.70013 0.0072,3.5035 0.0049,7.00694 -2.55e-4,10.51044 -0.0013,1.68416 3.12e-4,3.36833 0.005,5.05249 0.0051,2.35125 -0.0026,4.70212 -0.0138,7.05334 0.004,0.70033 0.0081,1.40065 0.01227,2.1222 -0.04253,4.82115 -0.04253,4.82115 -2.271057,7.04968 -2.2148437,0.25879 -2.2148437,0.25879 -4.9375,0.26562 -0.9771094,0.003 -1.9542188,0.005 -2.9609375,0.008 -1.0235156,-0.008 -2.0470313,-0.0155 -3.1015625,-0.0234 -1.02351563,0.008 -2.0470312,0.0155 -3.1015625,0.0234 -0.9771094,-0.003 -1.9542187,-0.005 -2.9609375,-0.008 -0.8984766,-0.002 -1.7969531,-0.005 -2.7226563,-0.007 C -10.75,255.375 -10.75,255.375 -12.75,253.375 c -0.269919,-2.68839 -0.08737,-5.29142 0,-8 -2.64,0 -5.28,0 -8,0 0.02062,1.27875 0.04125,2.5575 0.0625,3.875 0.0625,3.875 0.0625,3.875 -1.0625,6.125 -3.916417,0.11619 -7.832391,0.18725 -11.75,0.25 -1.111172,0.0335 -2.222344,0.067 -3.367187,0.10156 -1.069922,0.0129 -2.139844,0.0258 -3.242188,0.0391 -0.984521,0.0209 -1.969043,0.0419 -2.983398,0.0635 -3.390104,-0.57934 -4.518037,-1.82623 -6.657227,-4.4541 -1.484305,-2.96861 -1.4677,-4.69466 -1,-8 1.85673,-2.50144 4.115173,-4.49794 6.4375,-6.5625 4.584734,-3.98516 4.584734,-3.98516 7.660156,-9.09766 -0.12801,-3.06713 -0.98439,-4.01959 -3.097656,-6.21484 -0.640664,-0.68707 -1.281328,-1.37414 -1.941406,-2.08203 -1.331064,-1.32096 -2.691921,-2.61284 -4.085938,-3.86719 -4.839616,-4.40415 -4.839616,-4.40415 -5.597656,-8.80078 0.655506,-3.53973 1.38238,-5.57173 3.625,-8.375 4.492194,-2.76215 8.941018,-2.3307 14.0625,-2.3125 0.910723,-0.0161 1.821445,-0.0322 2.759766,-0.0488 0.874629,-6.4e-4 1.749257,-0.001 2.65039,-0.002 1.195082,-0.004 1.195082,-0.004 2.414307,-0.009 2.660218,0.46872 3.545405,1.19357 5.113037,3.37231 0.1875,3.6875 0.1875,3.6875 0,7 2.64,0 5.28,0 8,0 -0.01047,-0.86802 -0.02095,-1.73604 -0.03174,-2.63037 -0.03406,-3.21663 -0.05915,-6.43316 -0.07813,-9.6499 -0.01007,-1.39294 -0.02372,-2.78585 -0.04102,-4.17871 -0.02422,-2.00056 -0.03453,-4.00128 -0.04443,-6.00196 -0.01571,-1.8067 -0.01571,-1.8067 -0.03174,-3.6499 C -12.75,177.375 -12.75,177.375 -10.75,175.375 c 0.314948,-3.02205 0.314948,-3.02205 0.274658,-6.62109 0.0051,-0.67983 0.01022,-1.35966 0.01549,-2.06009 0.01393,-2.2522 0.01294,-4.50409 0.01064,-6.75632 0.0039,-1.56177 0.0082,-3.12354 0.01298,-4.6853 0.0075,-3.27518 0.0072,-6.55026 0.0019,-9.82544 -0.0058,-4.20368 0.01114,-8.40692 0.03434,-12.61052 0.01471,-3.22557 0.01561,-6.45103 0.01249,-9.67662 5.14e-4,-1.5502 0.0058,-3.10041 0.01581,-4.65058 0.01229,-2.16461 0.0056,-4.32835 -0.006,-6.49295 6.3e-4,-1.23307 0.0013,-2.46613 0.0019,-3.73657 -0.18524,-1.42784 -0.18524,-1.42784 -0.374222,-2.88452 -2.92971,-2.18764 -2.92971,-2.18764 -6.5625,-2.9375 -3.4375,-1.0625 -3.4375,-1.0625 -5.4375,-4.0625 -1.237343,-4.330702 -1.075698,-8.533827 -1,-13 0.782461,-0.06059 1.564922,-0.121172 2.371094,-0.183594 1.011914,-0.08379 2.023828,-0.167578 3.066406,-0.253906 1.009336,-0.08121 2.018672,-0.162422 3.058594,-0.246094 2.440314,-0.04852 2.440314,-0.04852 3.503906,-1.316406 0.658987,-7.776047 -1.73292,-11.341677 -6.699219,-17.296875 -0.992381,-1.154244 -1.988613,-2.305186 -2.988281,-3.453125 -0.526743,-0.609807 -1.053486,-1.219614 -1.596191,-1.8479 -3.159945,-3.647011 -6.359183,-7.256275 -9.591309,-10.8396 -0.707695,-0.786328 -1.415391,-1.572656 -2.144531,-2.382813 -1.275137,-1.403405 -2.563321,-2.795121 -3.867188,-4.171875 -0.553008,-0.600703 -1.106015,-1.201406 -1.675781,-1.820312 -0.475664,-0.501445 -0.951328,-1.002891 -1.441406,-1.519531 -1.459506,-2.443956 -1.378226,-3.843766 -0.996094,-6.667969 1.588947,-2.05119 3.081081,-3.712518 4.933594,-5.492188 0.76704,-0.763542 0.76704,-0.763542 1.549576,-1.54251 1.086283,-1.076547 2.178579,-2.147056 3.276351,-3.211884 1.652823,-1.604005 3.28679,-3.225339 4.918213,-4.851074 C -9.7608081,0.15949033 -9.7608081,0.15949033 0,0 Z m -13.625,27.625 c -0.605859,0.547852 -1.211719,1.095703 -1.835938,1.660156 -3.049625,2.959523 -4.23306,4.259911 -4.527343,8.621094 1.544465,4.326452 3.612995,6.632649 6.925781,9.71875 0.517559,0.515625 1.035117,1.03125 1.568359,1.5625 C -7.5532021,52.995929 -3.5589015,56.252874 2.125,56.5 6.7860675,54.822016 9.7336548,51.786575 13.25,48.375 14.365684,47.352129 14.365684,47.352129 15.503906,46.308594 20.595262,41.762787 20.595262,41.762787 22.25,35.375 21.179925,33.32067 21.179925,33.32067 19.375,31.5625 18.734336,30.884453 18.093672,30.206406 17.433594,29.507812 10.475646,21.895855 10.475646,21.895855 1.4375,18.125 c -6.4305377,0.504356 -10.6260998,5.210826 -15.0625,9.5 z"
       transform="translate(147.75,44.625)"
       id="path3"
       style="stroke-width:15.15" />
  </g>
</svg>
