<?xml version="1.0" encoding="UTF-8" standalone="no"?>
<svg
   version="1.0"
   width="24"
   height="24"
   viewBox="0 0 18 18"
   preserveAspectRatio="xMidYMid"
   id="svg1"
   sodipodi:docname="028-03-004.cleric-symbol.svg"
   xml:space="preserve"
   inkscape:version="1.3.2 (091e20e, 2023-11-25, custom)"
   xmlns:inkscape="http://www.inkscape.org/namespaces/inkscape"
   xmlns:sodipodi="http://sodipodi.sourceforge.net/DTD/sodipodi-0.dtd"
   xmlns="http://www.w3.org/2000/svg"
   xmlns:svg="http://www.w3.org/2000/svg"><defs
     id="defs1" /><sodipodi:namedview
     id="namedview1"
     pagecolor="#ffffff"
     bordercolor="#111111"
     borderopacity="1"
     inkscape:showpageshadow="0"
     inkscape:pageopacity="0"
     inkscape:pagecheckerboard="1"
     inkscape:deskcolor="#d1d1d1"
     inkscape:document-units="pt"
     inkscape:zoom="10.38"
     inkscape:cx="5.9730251"
     inkscape:cy="14.306358"
     inkscape:window-width="1366"
     inkscape:window-height="697"
     inkscape:window-x="-8"
     inkscape:window-y="-8"
     inkscape:window-maximized="1"
     inkscape:current-layer="svg1" /><g
     transform="matrix(0.1,0,0,-0.1,0,300)"
     fill="#000000"
     stroke="none"
     id="g1" /><path
     style="stroke:none;stroke-width:1"
     d="M 9.0830894,0.74999699 C 8.8877534,1.024914 8.6412534,1.267564 8.4881724,1.573728 8.3179584,1.914157 8.1996004,2.478606 8.3874964,2.836781 8.5483464,3.1434 9.1397984,2.845681 9.3027514,2.672034 9.4793844,2.48382 9.3486814,2.33161 9.2935514,2.122881 9.1844734,1.709535 9.3755314,1.08867 9.0830424,0.74999699 M 6.1176124,1.793389 c -0.576972,0.576973 -0.864119,1.161471 -0.713899,1.976952 0.299482,0 0.911375,-0.0949 0.933562,-0.494238 0.01185,-0.213323 -0.106798,-0.440587 -0.109832,-0.658984 -0.0034,-0.248059 0.0864,-0.663843 -0.109831,-0.82373 M 11.389486,1.90322 c 0.0097,0.370007 0.147217,0.729721 0.183052,1.098306 0.01312,0.134992 -0.04371,0.267546 0.04576,0.384408 0.184513,0.240996 0.547244,0.219661 0.814577,0.219661 0,-0.660223 -0.348378,-1.501189 -1.043392,-1.702375 M 8.9182934,3.184578 c -0.427953,0.101043 -0.622622,0.476676 -0.75051,0.86034 -0.263966,0.791897 -0.240425,1.66085 0.137288,2.416276 0.213997,0.427994 0.571013,0.877171 1.107459,0.750509 0.40647,-0.09597 0.6252306,-0.45068 0.7779686,-0.805425 0.11674,-0.271138 0.127677,-0.536606 0.155593,-0.82373 0.08835,-0.908694 -0.07792,-2.716693 -1.4277986,-2.39797 m 2.9654286,0.7139 c -0.5985,0.05819 -0.850667,0.620289 -0.979324,1.134916 -0.26534,1.061363 -0.152453,2.914232 1.363732,2.745768 0.409485,-0.0455 0.645645,-0.402218 0.732204,-0.768815 0.17331,-0.734017 0.0021,-1.729415 -0.274577,-2.416275 C 12.582256,4.237793 12.322954,3.855774 11.883722,3.898478 m -5.7111966,0.05492 c -1.272367,0.300421 -1.523586,2.078731 -1.107459,3.111871 0.178796,0.443911 0.5847,1.105319 1.162374,1.025086 C 6.5746324,8.042135 6.8963854,7.77325 7.0969334,7.504591 7.6163414,6.808782 7.7154774,5.860117 7.5087994,5.0334 7.3481874,4.390886 6.9200174,3.776915 6.1725434,3.953401 m -2.361361,0.475934 c -0.153057,0.166177 -0.283594,0.351216 -0.393559,0.549153 -0.139943,0.251899 -0.159537,0.484935 -0.155594,0.768815 0.0013,0.09389 -0.0129,0.236075 0.07322,0.302035 0.198185,0.151801 0.698382,-0.153529 0.741359,-0.35695 0.02305,-0.109105 -0.0582,-0.227061 -0.08238,-0.329492 -0.03804,-0.161122 -0.02318,-0.33105 -0.05492,-0.494239 -0.03377,-0.173739 -2.2e-4,-0.316977 -0.128136,-0.439322 M 14.025427,5.08832 c 0,0.324346 0.03136,0.665897 0,0.988475 -0.01037,0.106477 -0.08115,0.225372 -0.02746,0.329492 0.134389,0.260635 0.549,0.274577 0.796272,0.274577 C 14.751189,6.135527 14.509642,5.392686 14.025424,5.08832 M 3.4267624,6.589339 c -0.313651,0.09584 -0.500256,0.411964 -0.622374,0.695594 -0.25845,0.600267 -0.379429,1.313856 -0.100676,1.922036 0.145531,0.317522 0.327045,0.813139 0.777968,0.750511 0.315763,-0.04386 0.53284,-0.288157 0.704746,-0.530849 0.386207,-0.545232 0.567895,-1.425708 0.430171,-2.086782 -0.112515,-0.540068 -0.62055,-0.924458 -1.189832,-0.75051 M 14.135313,6.918826 c -1.627791,0.384338 -0.827587,3.653048 0.82373,3.14848 C 15.306276,9.961207 15.439326,9.596815 15.453282,9.261879 15.479122,8.641687 15.297339,7.967913 14.959043,7.449674 14.778331,7.172839 14.502498,6.83213 14.135313,6.918826 m -6.5349266,6.681367 c -0.405687,-0.256224 -0.930621,-0.576448 -1.427799,-0.604069 -0.128086,-0.0071 -0.25705,0.04486 -0.384408,0.05492 v 0.05492 c 0.551307,0.174097 1.019494,0.439704 1.482715,0.78712 0.147167,0.110374 0.446013,0.369973 0.649832,0.302034 0.144415,-0.04814 0.133482,-0.305114 0.164746,-0.43017 0.106689,-0.426761 0.293219,-0.834267 0.521695,-1.208138 0.530512,-0.868109 1.5574056,-1.681721 2.5078016,-2.031868 v -0.05492 c -1.2439966,0 -2.4463456,0.801065 -2.9105136,1.976953 -0.9806,-0.38708 -0.733169,-1.743709 -0.109831,-2.306445 1.39966,-1.263581 3.6960756,-0.841498 4.7227206,0.658984 -0.333782,0.09662 -0.676648,0.182411 -0.933561,0.439323 -0.613468,0.613469 -0.765467,1.675579 -1.592546,2.077632 -0.5935226,0.288518 -1.3746456,-0.408339 -1.7481376,0.338644 -0.303277,0.606554 0.264139,1.304053 0.604069,1.757291 0.208076,0.277437 0.441004,0.562808 0.585764,0.878646 0.09016,0.196708 0.08736,0.434973 0.237965,0.604069 0.3146206,0.353258 1.1464776,0.371971 1.5833936,0.329493 1.526298,-0.14839 2.174941,-1.582444 2.599326,-2.855599 0.178636,-0.535909 0.366103,-1.078542 0.366103,-1.64746 0,-0.448888 0.021,-0.888437 -0.128136,-1.317969 -0.16043,-0.46204 -0.48382,-0.846332 -0.805426,-1.208139 C 13.095511,9.643464 12.544378,9.125446 11.883784,8.7768 11.201696,8.416809 10.463788,8.129252 9.6871694,8.053747 7.8943014,7.87944 6.2351204,8.733735 4.9095344,9.856801 c -0.382927,0.324425 -0.708335,0.681405 -1.043392,1.052544 -0.235978,0.261392 -0.534871,0.532364 -0.640679,0.878646 -0.241611,0.790724 0.14489,1.915522 0.485085,2.635937 0.307247,0.650642 0.67877,1.245954 1.134918,1.812207 0.224714,0.278954 0.396742,0.532529 0.723052,0.704748 0.932482,0.492142 2.68414,0.502656 2.947124,-0.759663 0.03507,-0.168403 0.03498,-0.377631 0.0183,-0.549154 -0.01232,-0.126718 -0.05955,-0.267629 -0.10983,-0.384407 -0.495916,-1.151805 -1.734974,0.129906 -2.581022,-0.457628 -0.501091,-0.34798 -0.849688,-0.9418 -1.226442,-1.409495 -0.115604,-0.143506 -0.391769,-0.299123 -0.256272,-0.494238 0.636229,-0.916171 2.379729,-1.07149 3.056954,-0.109831 0.175575,0.249317 0.183051,0.532005 0.183051,0.823731 z"
     id="path1" /></svg>
