<?xml version="1.0" encoding="UTF-8" standalone="no"?>
<svg
   version="1.1"
   id="svg1"
   sodipodi:docname="phb24-sorcerer.svg"
   inkscape:version="1.3.2 (091e20e, 2023-11-25, custom)"
   viewBox="0 0 24 24"
   xmlns:inkscape="http://www.inkscape.org/namespaces/inkscape"
   xmlns:sodipodi="http://sodipodi.sourceforge.net/DTD/sodipodi-0.dtd"
   xmlns="http://www.w3.org/2000/svg"
   xmlns:svg="http://www.w3.org/2000/svg">
  <defs
     id="defs1" />
  <sodipodi:namedview
     id="namedview1"
     pagecolor="#ffffff"
     bordercolor="#111111"
     borderopacity="1"
     inkscape:showpageshadow="0"
     inkscape:pageopacity="0"
     inkscape:pagecheckerboard="1"
     inkscape:deskcolor="#d1d1d1"
     inkscape:zoom="10.203957"
     inkscape:cx="0.73500898"
     inkscape:cy="16.170198"
     inkscape:window-width="1350"
     inkscape:window-height="720"
     inkscape:window-x="0"
     inkscape:window-y="0"
     inkscape:window-maximized="0"
     inkscape:current-layer="svg1"
     showgrid="false"
     shape-rendering="auto" />
  <path
     d="m 10.562143,1.7632496 c 0.970422,-0.036509 1.816866,-0.043536 2.596872,0.6191295 0.398258,0.4007066 0.59905,0.8590867 0.611673,1.4241253 -0.0329,0.8357559 -0.380023,1.4787531 -0.814183,2.1722391 -0.227864,0.3644314 -0.404066,0.6632335 -0.349242,1.1018165 0.09139,0.2051757 0.09139,0.2051757 0.272678,0.3408566 0.33215,0.052713 0.462754,0.058769 0.737093,-0.1363447 0.220151,-0.3019163 0.314236,-0.6106657 0.414619,-0.9653061 0.193607,-0.6718535 0.402433,-1.1407567 1.029754,-1.4888372 0.548286,-0.2774917 1.253116,-0.321069 1.838205,-0.143002 0.143022,0.063452 0.277756,0.1300285 0.411425,0.2111694 0,0.045004 0,0.090005 0,0.1363446 -0.105458,0.069602 -0.105458,0.069602 -0.213033,0.1406007 -0.542666,0.3749354 -0.840033,1.0399163 -0.986081,1.6685832 -0.109966,0.6597877 0.01258,1.299212 0.368279,1.867765 0.239879,0.3302746 0.469772,0.5084294 0.869181,0.6135359 0.270756,0.00486 0.373157,-0.021282 0.575191,-0.200246 0.282362,-0.5781782 0.113685,-1.189176 -0.06813,-1.77244 -0.06432,-0.1381895 -0.130784,-0.275608 -0.204515,-0.4090238 0,-0.045003 0,-0.090005 0,-0.136335 1.006256,0.3034002 1.950117,0.9756536 2.454143,1.9087748 0.2079,0.4499751 0.235506,0.9218169 0.08219,1.3936686 -0.09225,0.241607 -0.190845,0.47926 -0.297222,0.714982 -0.164554,0.370279 -0.29439,0.685461 -0.146221,1.089311 0.06403,0.140357 0.134137,0.275315 0.207839,0.41082 0.04791,0.09149 0.09587,0.183036 0.143792,0.274543 0.07322,0.138122 0.146519,0.276195 0.220093,0.414121 0.459377,0.884449 0.490499,1.981452 0.202784,2.932906 -0.450357,1.142815 -1.343901,1.966085 -2.284248,2.715636 -0.471185,0.387607 -0.857464,0.835737 -1.23932,1.309092 -1.058836,1.292192 -2.228907,2.032975 -3.911293,2.242709 -1.451069,0.07261 -2.916927,0.101962 -4.2265843,-0.613535 -0.086687,-0.0451 -0.086687,-0.0451 -0.1752163,-0.09106 C 7.8986701,21.075874 7.4579396,20.446014 6.9930483,19.704363 6.6840547,19.211719 6.3611017,18.719799 5.9265504,18.328706 5.8883813,18.294247 5.8503099,18.259787 5.8109791,18.224322 5.6094934,18.044859 5.4056549,17.870805 5.1937142,17.70372 4.5768399,17.216756 4.1143306,16.736325 3.9496082,15.942731 3.9054844,15.334573 4.0136453,14.766421 4.1373393,14.173628 4.2936177,13.34209 4.1056131,12.69921 3.7408301,11.950491 3.6789387,11.819769 3.6170297,11.689019 3.5552271,11.558248 c -0.041,-0.08482 -0.041,-0.08482 -0.082879,-0.17138 C 3.2407567,10.884276 3.2650638,10.206829 3.3801961,9.6691727 3.6456125,8.9511941 4.1465251,8.4313628 4.835745,8.1031091 c 0.090005,0 0.1799705,0 0.2726794,0 -0.015522,0.070872 -0.031141,0.1416549 -0.04715,0.2146349 -0.2007439,0.9254677 -0.2007439,0.9254677 0.025868,1.826228 0.1743867,0.230948 0.2933159,0.322163 0.5666688,0.413281 0.1567177,-0.01328 0.1567177,-0.01328 0.2726793,-0.06813 0.082195,-0.366118 0.056718,-0.6316515 -0.02987,-0.9970004 C 5.7984311,9.0410241 5.7669881,8.6114514 5.7645377,8.150006 5.7636202,8.0882131 5.7625853,8.0264301 5.7616091,7.9627729 5.7674663,7.061007 6.1292327,6.2644453 6.7443403,5.606395 7.5800668,4.8305675 8.5897994,4.3772246 9.6132668,3.9015269 9.8069334,3.8107412 9.999888,3.7188816 10.192021,3.6249134 c 0.0534,-0.026063 0.106795,-0.052128 0.161822,-0.078973 0.275864,-0.1546286 0.444461,-0.3648513 0.61708,-0.6237762 0.03299,-0.3353312 0.03505,-0.4811838 -0.127821,-0.7797029 -0.127247,-0.177325 -0.127247,-0.177325 -0.281202,-0.2428566 0,-0.045003 0,-0.090005 0,-0.1363445 z M 8.3484558,7.3796062 C 7.7206872,8.029837 7.4640271,8.7175048 7.4649056,9.6100652 c 0.029286,0.5033438 0.1682368,0.9930788 0.293072,1.4796808 0.1765832,0.697634 0.2181396,1.202452 -0.1271781,1.853484 -0.1229316,0.185456 -0.2495534,0.366822 -0.3793281,0.547465 -0.5812141,0.81683 -0.8644071,1.582846 -0.7795664,2.588391 0.041195,0.137692 0.085513,0.274601 0.136335,0.409023 0.022451,0 0.045002,0 0.068136,0 0.00195,-0.06021 0.0039,-0.120393 0.00486,-0.182412 C 6.7361014,15.143924 7.1835364,14.447326 7.9583683,13.61642 8.4201692,13.103306 8.606153,12.468459 8.5998662,11.792583 8.573021,11.415941 8.4751286,11.05801 8.3801746,10.693607 8.1779958,9.9176729 8.0331778,9.1985031 8.3801746,8.4439762 8.5122689,8.22242 8.5122689,8.22242 8.6528697,8.0349524 8.6905506,7.9823357 8.7282316,7.9296702 8.7671131,7.8754429 8.9618061,7.6526078 9.1769587,7.4985161 9.4197958,7.3319389 c 0.044318,-0.030945 0.088541,-0.061987 0.1342067,-0.093909 0.1083376,-0.075655 0.217095,-0.1507434 0.3259403,-0.2256758 -0.00292,0.054472 -0.00587,0.1089624 -0.00976,0.1650934 -0.033093,1.0082486 0.2893722,1.6990695 0.9634512,2.4378994 0.609125,0.5895891 1.40347,0.9068431 2.177727,1.2188231 0.495485,0.201009 0.969013,0.396147 1.240385,0.884614 0.08954,0.305793 0.09488,0.613518 0.114509,0.930428 0.06699,0.878775 0.06699,0.878775 0.561338,1.580969 0.315213,0.234237 0.622027,0.381144 1.019368,0.349105 0.445903,-0.0819 0.789133,-0.274954 1.090726,-0.613535 0.14233,-0.240475 0.23739,-0.490995 0.340857,-0.74987 0.463338,0.870936 0.70692,1.511464 0.545368,2.522311 -0.06374,0.206248 -0.136061,0.401556 -0.222093,0.599419 -0.07036,0.159413 -0.07036,0.159413 0.01759,0.354972 0.576164,-0.919951 0.931391,-1.759163 0.70807,-2.865832 -0.223588,-0.683568 -0.673679,-1.279347 -1.253429,-1.701608 -0.03829,-0.02804 -0.07643,-0.05601 -0.115846,-0.08492 -0.19634,-0.14513 -0.19634,-0.14513 -0.429523,-0.187731 0.002,0.05816 0.002,0.05816 0.0028,0.117583 0.0038,0.178096 0.0066,0.356171 0.0098,0.534297 0.002,0.06102 0.0028,0.122062 0.0048,0.18494 0.0038,0.387772 -0.02488,0.665897 -0.222482,1.003786 -0.227637,0.168051 -0.461552,0.168413 -0.736829,0.162966 -0.242477,-0.04324 -0.34766,-0.175881 -0.490243,-0.367476 -0.06873,-0.206134 -0.07995,-0.384239 -0.08787,-0.599958 -0.03072,-0.813688 -0.127908,-1.461012 -0.730101,-2.058703 C 13.871138,10.40192 13.235228,10.170124 12.62834,9.9190864 12.2318,9.7536516 11.871509,9.5707622 11.515503,9.3301703 11.456444,9.2921965 11.397403,9.2542227 11.336557,9.2151361 10.811328,8.7037194 10.557293,8.021899 10.527031,7.3020953 c 0.0077,-0.4450748 0.120832,-0.7957029 0.300373,-1.2001777 0.08757,-0.1792577 0.08757,-0.1792577 0.07456,-0.3847949 -0.80279,0 -1.998165,1.1254406 -2.554535,1.6624625 z m 3.5089272,6.2453358 c -0.129795,0.16646 -0.251145,0.333349 -0.37068,0.507014 -0.03624,0.05222 -0.07251,0.104374 -0.10991,0.158144 -1.112436,1.545962 -1.112436,1.545962 -1.8372089,3.288738 -0.015522,0.05621 -0.030945,0.112485 -0.046859,0.170421 -0.079363,0.635228 -0.00878,1.222875 0.3706793,1.755396 0.5334886,0.651755 1.1698686,1.004667 2.0089046,1.088874 0.728316,0.02946 1.344087,-0.253039 1.877087,-0.737367 0.491815,-0.522633 0.65686,-1.213962 0.649216,-1.912768 -0.122884,-1.483261 -1.247738,-2.845282 -2.132196,-3.977604 -0.04781,-0.06355 -0.09559,-0.127062 -0.144857,-0.192525 -0.06327,-0.07342 -0.06327,-0.07342 -0.127823,-0.148323 -0.045,0 -0.09001,0 -0.136345,0 z"
     id="path1"
     style="stroke-width:1" />
</svg>
