<?xml version="1.0" encoding="UTF-8"?>
<svg id="svg8" version="1.1" viewBox="0 0 6.35 6.35" xmlns="http://www.w3.org/2000/svg" xmlns:cc="http://creativecommons.org/ns#" xmlns:dc="http://purl.org/dc/elements/1.1/" xmlns:rdf="http://www.w3.org/1999/02/22-rdf-syntax-ns#">
 <defs id="defs2">
  <clipPath id="clipPath148">
   <path id="path146" d="m0 2020h2020v-2020h-2020z"/>
  </clipPath>
  <clipPath id="clipPath196">
   <path id="path194" d="m0 2020h2020v-2020h-2020z"/>
  </clipPath>
 </defs>
 <metadata id="metadata5">
  <rdf:RDF>
   <cc:Work rdf:about="">
    <dc:format>image/svg+xml</dc:format>
    <dc:type rdf:resource="http://purl.org/dc/dcmitype/StillImage"/>
   </cc:Work>
  </rdf:RDF>
 </metadata>
 <g id="layer1" transform="translate(-2.1904e-5 8.4161e-5)">
  <g id="g142" transform="matrix(.0051422 0 0 -.0051422 -2.0187 8.3685)">
   <g id="g144" clip-path="url(#clipPath148)">
    <g id="g150" transform="translate(1010 647.64)">
     <path id="path152" d="m0 0c-200.13 0-362.36 162.24-362.36 362.36s162.24 362.36 362.36 362.36 362.36-162.24 362.36-362.36-162.24-362.36-362.36-362.36m558.16 285.65s7.823 27.368 7.823 76.711c0 42.538-7.823 76.711-7.823 76.711l-127.38 25.652c-11.02 46.553-29.391 90.257-53.819 129.83l71.956 108.25s-13.82 24.882-48.711 59.773c-30.08 30.079-59.774 48.711-59.774 48.711l-108.25-71.956c-39.575 24.429-83.279 42.799-129.83 53.819l-25.651 127.38s-27.367 7.823-76.711 7.823c-42.538 0-76.71-7.823-76.71-7.823l-25.653-127.38c-46.553-11.02-90.257-29.39-129.83-53.819l-108.25 71.956s-24.882-13.819-59.773-48.711c-30.079-30.079-48.712-59.773-48.712-59.773l71.955-108.25c-24.427-39.575-42.798-83.279-53.819-129.83l-127.38-25.652s-7.822-27.366-7.822-76.711c0-42.538 7.822-76.711 7.822-76.711l127.38-25.65c11.021-46.554 29.392-90.258 53.819-129.83l-71.955-108.24s13.82-24.882 48.712-59.775c30.079-30.078 59.773-48.71 59.773-48.71l108.25 71.955c39.574-24.428 83.278-42.798 129.83-53.818l25.653-127.38s27.366-7.823 76.71-7.823c42.538 0 76.711 7.823 76.711 7.823l25.651 127.38c46.553 11.02 90.257 29.39 129.83 53.818l108.25-71.955s24.882 13.82 59.774 48.71c30.078 30.08 48.711 59.775 48.711 59.775l-71.956 108.24c24.428 39.575 42.799 83.279 53.819 129.83z"/>
    </g>
    <g id="g154" transform="translate(1108 964.53)">
     <path id="path156" d="m0 0 174.69 40.247v10.446l-174.69 40.249c-29.065 6.697-51.597 29.662-57.74 58.849l-34.947 166.05h-10.49l-34.948-166.05c-6.143-29.187-28.674-52.152-57.739-58.849l-174.69-40.249v-10.446l174.69-40.247c29.066-6.696 51.597-29.661 57.74-58.849l34.948-166.05h10.49l34.947 166.05c6.143 29.188 28.675 52.153 57.74 58.849"/>
    </g>
    <g id="g158" transform="translate(1157.2 1086)">
     <path id="path160" d="m0 0 54.068-12.458c-20.98 66.256-73.835 118.44-140.48 138.52l11.109-52.783c32.327-15.625 58.803-41.467 75.305-73.28"/>
    </g>
    <g id="g162" transform="translate(1081.9 860.68)">
     <path id="path164" d="m0 0-11.109-52.783c66.647 20.08 119.5 72.265 140.48 138.52l-54.068-12.457c-16.503-31.813-42.979-57.655-75.305-73.281"/>
    </g>
    <g id="g166" transform="translate(949.25 807.9)">
     <path id="path168" d="m0 0-11.109 52.784c-32.326 15.626-58.802 41.467-75.304 73.28l-54.068 12.457c20.98-66.255 73.834-118.44 140.48-138.52"/>
    </g>
    <g id="g170" transform="translate(862.84 1086)">
     <path id="path172" d="m0 0c16.502 31.812 42.978 57.654 75.304 73.279l11.109 52.784c-66.647-20.081-119.5-72.265-140.48-138.52z"/>
    </g>
    <g id="g174" transform="translate(1046.8 1326.3)">
     <path id="path176" d="m0 0 9.934-47.2c112.8-19.511 202.13-108.45 222.18-221.07l47.382-10.917c-17.028 146.1-133.35 262.32-279.5 279.19"/>
    </g>
    <g id="g178" transform="translate(963.35 1279.1)">
     <path id="path180" d="m0 0 9.934 47.2c-146.15-16.872-262.47-133.09-279.5-279.19l47.381 10.917c20.054 112.62 109.38 201.56 222.18 221.07"/>
    </g>
    <g id="g182" transform="translate(1056.7 740.92)">
     <path id="path184" d="m0 0-9.934-47.2c146.15 16.872 262.47 133.09 279.5 279.19l-47.381-10.917c-20.054-112.62-109.38-201.56-222.18-221.07"/>
    </g>
    <g id="g186" transform="translate(741.17 961.99)">
     <path id="path188" d="m0 0-47.381 10.917c17.028-146.1 133.34-262.32 279.5-279.19l-9.933 47.2c-112.8 19.512-202.13 108.45-222.18 221.07"/>
    </g>
   </g>
  </g>
  <g id="g190" transform="matrix(.35278 0 0 -.35278 -736.76 274.16)">
   <g id="g192" clip-path="url(#clipPath196)">
    <g id="g198" transform="translate(766.14 135.86)">
     <path id="path200" d="m0 0c-0.937-3.277-2.268-7.328-3.996-12.15l-3.996-11.449h20.736l-3.996 11.449c-1.801 5.183-3.169 9.323-4.104 12.42-0.936 3.094-1.657 6.48-2.16 10.152h-0.432c-0.432-3.672-1.117-7.147-2.052-10.422m36.18-43.2c2.015-3.204 3.851-5.491 5.508-6.859v-0.215h-24.408v0.215c1.151 0.865 1.728 2.52 1.728 4.969 0 2.303-0.577 5.075-1.728 8.316l-0.972 2.591h-27.864l-0.972-2.591c-1.153-2.954-1.728-5.689-1.728-8.208 0-2.522 0.503-4.212 1.512-5.077v-0.215h-22.68v0.215c1.657 1.44 3.473 3.744 5.454 6.913 1.979 3.167 3.653 6.696 5.022 10.583l15.444 44.497c0.648 1.943 0.972 3.707 0.972 5.292 0 1.655-0.289 3.131-0.864 4.428-0.577 1.295-1.261 2.268-2.052 2.916v0.215h28.62v-0.215c-0.793-0.72-1.477-1.712-2.052-2.97-0.578-1.261-0.864-2.719-0.864-4.374 0-1.585 0.324-3.349 0.972-5.292l15.876-44.497c1.367-3.887 3.059-7.435 5.076-10.637" fill="#fff"/>
    </g>
    <g id="g202" transform="translate(879.65 87.527)">
     <path id="path204" d="m0 0v-0.217l-22.14-3.996c-1.369 4.105-3.205 8.101-5.508 11.988l-16.74 28.621h5.184c4.752 0 8.351 1.061 10.8 3.186 2.446 2.123 3.672 5.524 3.672 10.205 0 3.959-1.261 7.092-3.78 9.397-2.521 2.303-6.085 3.419-10.692 3.347l-7.56-0.107v-48.6c0-3.888 0.54-7.182 1.62-9.883 1.08-2.699 2.339-4.589 3.78-5.67v-0.215h-26.028v0.215c1.583 1.008 2.951 2.898 4.104 5.67 1.151 2.772 1.728 6.211 1.728 10.315v43.092c0 3.959-0.577 7.29-1.728 9.99-1.153 2.699-2.521 4.553-4.104 5.562v0.215h30.672c8.567 0 15.263-2.035 20.088-6.101 4.823-4.069 7.236-9.631 7.236-16.686 0-5.617-1.279-10.207-3.834-13.77-2.557-3.564-6.175-6.103-10.854-7.615l10.044-16.307c4.175-6.697 8.856-10.908 14.04-12.636" fill="#fff"/>
    </g>
    <g id="g206" transform="translate(936.99 141.74)">
     <path id="path208" d="m0 0-0.216-0.108c-1.296 2.303-3.186 4.212-5.67 5.724s-5.275 2.268-8.37 2.268h-8.1v-46.981c0-4.392 0.629-8.045 1.89-10.961 1.259-2.916 2.825-4.879 4.698-5.886v-0.216h-27.972v0.216c1.728 1.007 3.257 3.006 4.59 5.994 1.332 2.986 1.998 6.605 1.998 10.853v46.981h-8.208c-3.097 0-5.886-0.756-8.37-2.268s-4.374-3.421-5.67-5.724l-0.216 0.108 1.836 19.764c4.391-0.577 9.323-0.865 14.796-0.865h26.352c5.471 0 10.403 0.288 14.796 0.865z" fill="#fff"/>
    </g>
    <g id="g210" transform="translate(945.53 85.799)">
     <path id="path212" d="m0 0c1.583 1.08 2.951 2.986 4.104 5.725 1.151 2.734 1.728 6.156 1.728 10.259v42.661c0 4.173-0.577 7.613-1.728 10.313-1.153 2.7-2.521 4.591-4.104 5.671v0.215h26.568v-0.215c-1.585-1.08-2.953-2.989-4.104-5.725-1.152-2.737-1.728-6.156-1.728-10.259v-42.661c0-4.176 0.576-7.614 1.728-10.314 1.151-2.699 2.519-4.59 4.104-5.67v-0.216h-26.568z" fill="#fff"/>
    </g>
    <g id="g214" transform="translate(1037 141.31)">
     <path id="path216" d="m0 0-0.216-0.107c-3.529 5.759-9.936 8.639-19.224 8.639h-12.096v-20.088h9.504c7.919 0 13.319 0.287 16.2 0.865l-3.456-19.44h-0.216c-0.721 2.303-2.179 4.174-4.374 5.615-2.197 1.44-4.663 2.161-7.398 2.161h-10.26v-17.172c0-4.177 0.575-7.615 1.728-10.315 1.151-2.699 2.519-4.59 4.104-5.67v-0.216h-26.46v0.216c1.583 1.08 2.951 2.987 4.104 5.725 1.151 2.734 1.728 6.156 1.728 10.26v42.66c0 4.822-0.523 8.44-1.566 10.853-1.045 2.412-2.43 4.121-4.158 5.131v0.215h36.18c6.119 0 10.763 0.287 13.932 0.864z" fill="#fff"/>
    </g>
    <g id="g218" transform="translate(1047 85.799)">
     <path id="path220" d="m0 0c1.583 1.08 2.951 2.986 4.104 5.725 1.151 2.734 1.728 6.156 1.728 10.259v42.661c0 4.173-0.577 7.613-1.728 10.313-1.153 2.7-2.521 4.591-4.104 5.671v0.215h26.568v-0.215c-1.585-1.08-2.953-2.989-4.104-5.725-1.152-2.737-1.728-6.156-1.728-10.259v-42.661c0-4.176 0.576-7.614 1.728-10.314 1.151-2.699 2.519-4.59 4.104-5.67v-0.216h-26.568z" fill="#fff"/>
    </g>
    <g id="g222" transform="translate(1102.7 88.984)">
     <path id="path224" d="m0 0c-5.761 3.349-10.189 7.955-13.284 13.824-3.097 5.867-4.644 12.475-4.644 19.819 0 7.992 1.674 14.974 5.022 20.952 3.348 5.975 8.081 10.565 14.202 13.77 6.119 3.202 13.246 4.805 21.384 4.805 6.55 0 12.887-0.9 19.008-2.699l1.728-18.684-0.216-0.108c-2.16 3.311-5.059 5.832-8.694 7.559-3.637 1.729-7.614 2.592-11.934 2.592-7.56 0-13.519-2.43-17.874-7.289-4.357-4.86-6.534-11.467-6.534-19.818 0-8.496 1.998-15.336 5.994-20.52s9.666-7.776 17.01-7.776c5.543 0 10.223 1.026 14.04 3.077 3.815 2.053 7.236 5.059 10.26 9.018l0.216-0.108-2.592-19.332c-7.776-2.734-15.444-4.103-23.004-4.103-7.633 0-14.329 1.673-20.088 5.021" fill="#fff"/>
    </g>
    <g id="g226" transform="translate(1211.6 106.21)">
     <path id="path228" d="m0 0-3.024-21.492c-2.017 0.361-3.942 0.594-5.778 0.702s-4.303 0.162-7.398 0.162h-38.124v0.216c1.583 1.08 2.951 2.986 4.104 5.724 1.151 2.735 1.728 6.157 1.728 10.26v42.66c0 4.174-0.577 7.614-1.728 10.314-1.153 2.7-2.521 4.591-4.104 5.671v0.215h38.772c5.112 0 8.927 0.287 11.448 0.864l1.836-19.332-0.216-0.109c-1.296 2.665-3.385 4.663-6.264 5.995-2.88 1.332-6.444 1.998-10.692 1.998h-14.256v-19.008h8.208c4.536 0 7.884 0.055 10.044 0.162s4.428 0.306 6.804 0.594l-3.132-18.144h-0.216c-0.864 2.376-2.268 4.105-4.212 5.185s-4.465 1.619-7.56 1.619h-9.936v-24.3h11.772c4.752 0 8.981 0.864 12.69 2.592 3.708 1.727 6.713 4.247 9.018 7.559z" fill="#fff"/>
    </g>
    <g id="g230" transform="translate(1289.5 87.527)">
     <path id="path232" d="m0 0v-0.217l-22.14-3.996c-1.369 4.105-3.205 8.101-5.508 11.988l-16.74 28.621h5.184c4.752 0 8.351 1.061 10.8 3.186 2.446 2.123 3.672 5.524 3.672 10.205 0 3.959-1.261 7.092-3.78 9.397-2.521 2.303-6.085 3.419-10.692 3.347l-7.56-0.107v-48.6c0-3.888 0.54-7.182 1.62-9.883 1.08-2.699 2.339-4.589 3.78-5.67v-0.215h-26.028v0.215c1.583 1.008 2.951 2.898 4.104 5.67 1.151 2.772 1.728 6.211 1.728 10.315v43.092c0 3.959-0.577 7.29-1.728 9.99-1.153 2.699-2.521 4.553-4.104 5.562v0.215h30.672c8.567 0 15.263-2.035 20.088-6.101 4.823-4.069 7.236-9.631 7.236-16.686 0-5.617-1.279-10.207-3.834-13.77-2.557-3.564-6.175-6.103-10.854-7.615l10.044-16.307c4.175-6.697 8.856-10.908 14.04-12.636" fill="#fff"/>
    </g>
   </g>
  </g>
 </g>
</svg>
