<?xml version="1.0" encoding="UTF-8"?>
<svg id="svg8" version="1.1" viewBox="0 0 6.35 6.35" xmlns="http://www.w3.org/2000/svg" xmlns:cc="http://creativecommons.org/ns#" xmlns:dc="http://purl.org/dc/elements/1.1/" xmlns:rdf="http://www.w3.org/1999/02/22-rdf-syntax-ns#">
 <defs id="defs2">
  <clipPath id="clipPath915">
   <path id="path913" d="m0 2020h2020v-2020h-2020z"/>
  </clipPath>
 </defs>
 <metadata id="metadata5">
  <rdf:RDF>
   <cc:Work rdf:about="">
    <dc:format>image/svg+xml</dc:format>
    <dc:type rdf:resource="http://purl.org/dc/dcmitype/StillImage"/>
   </cc:Work>
  </rdf:RDF>
 </metadata>
 <g id="layer1" transform="translate(551.17 531.32)">
  <g id="g909" transform="matrix(.0045782 0 0 -.0045731 -552.62 -523.54)" stroke-width="77.099">
   <g id="g911" clip-path="url(#clipPath915)" stroke-width="77.099">
    <g id="g917" transform="translate(1124.2 642.79)">
     <path id="path919" d="m0 0-4.207 8.2c-43.814-13.903-85.827-17.782-121.18-17.223-30.034 1.315-63.73 6.113-98.746 17.223l-4.207-8.2s110.74-75.341 110.74-242.42h7.658c0 167.08 109.95 242.42 109.95 242.42"/>
    </g>
    <g id="g921" transform="translate(645.6 893.35)">
     <path id="path923" d="m0 0 8.2 4.207c-13.903 43.814-17.782 85.827-17.223 121.18 1.315 30.034 6.113 63.73 17.223 98.746l-8.2 4.207s-75.341-110.74-242.42-110.74v-7.658c167.08 0 242.42-109.95 242.42-109.95"/>
    </g>
    <g id="g925" transform="translate(1374.4 1121.7)">
     <path id="path927" d="m0 0-8.2-4.207c13.903-43.814 17.782-85.827 17.223-121.18-1.315-30.034-6.113-63.73-17.223-98.746l8.2-4.207s75.341 110.74 242.42 110.74v7.658c-167.08 0-242.42 109.95-242.42 109.95"/>
    </g>
    <g id="g929" transform="translate(876.55 1226.1)">
     <path id="path931" d="m0 0v-87.88h-81.371l-263.64 314.09z"/>
    </g>
    <g id="g933" transform="translate(788.67 876.22)">
     <path id="path935" d="m0 0h87.88v-81.371l-314.09-263.64z"/>
    </g>
    <g id="g937" transform="translate(1306.5 1100)">
     <path id="path939" d="m0 0-37.835-19.834h-186.02v186.02l19.834 37.835s-27.158 9.154-92.458 9.154c-54.315 0-92.457-9.154-92.457-9.154l19.834-37.835v-186.02h-186.02l-37.835 19.834s-9.154-27.157-9.154-92.458c0-54.314 9.154-92.457 9.154-92.457l37.835 19.834h186.02v-186.02l-19.834-37.835s27.157-9.154 92.457-9.154c54.315 0 92.458 9.154 92.458 9.154l-19.834 37.835v186.02h186.02l37.835-19.834s9.154 27.158 9.154 92.457c0 54.316-9.154 92.458-9.154 92.458"/>
    </g>
    <g id="g941" transform="translate(1143.1 1226.1)">
     <path id="path943" d="m0 0v-87.88h81.371l263.64 314.09z"/>
    </g>
    <g id="g945" transform="translate(1231 876.22)">
     <path id="path947" d="m0 0h-87.88v-81.371l314.09-263.64z"/>
    </g>
    <g id="g949" transform="translate(895.83 1372.9)">
     <path id="path951" d="m0 0 4.207-8.199c43.814 13.902 85.827 17.781 121.18 17.222 30.034-1.315 63.73-6.112 98.746-17.222l4.207 8.199s-110.74 75.341-110.74 242.42h-7.658c0-167.08-109.95-242.42-109.95-242.42"/>
    </g>
   </g>
  </g>
 </g>
</svg>
