<?xml version="1.0" encoding="UTF-8"?>
<svg id="svg8" version="1.1" viewBox="0 0 6.35 6.35" xmlns="http://www.w3.org/2000/svg" xmlns:cc="http://creativecommons.org/ns#" xmlns:dc="http://purl.org/dc/elements/1.1/" xmlns:rdf="http://www.w3.org/1999/02/22-rdf-syntax-ns#">
 <defs id="defs2">
  <clipPath id="clipPath980">
   <path id="path978" d="m0 2020h2020v-2020h-2020z"/>
  </clipPath>
 </defs>
 <metadata id="metadata5">
  <rdf:RDF>
   <cc:Work rdf:about="">
    <dc:format>image/svg+xml</dc:format>
    <dc:type rdf:resource="http://purl.org/dc/dcmitype/StillImage"/>
   </cc:Work>
  </rdf:RDF>
 </metadata>
 <g id="layer1" transform="translate(23.921 96.715)">
  <g id="g974" transform="matrix(.0046638 0 0 -.0046638 -25.518 -88.83)" stroke-width="75.642">
   <g id="g976" clip-path="url(#clipPath980)" stroke-width="75.642">
    <g id="g982" transform="translate(987.88 1107.8)">
     <path id="path984" d="m0 0s23.198 102.64 32.172 193.58h6.261c8.973-90.932 32.172-193.58 32.172-193.58 66.889-270.78-35.303-492.64-35.303-492.64s-102.19 221.86-35.302 492.64m-104.98-24.604c-24.565-64.875-100.32-316.56 104.98-529.18l29.1-139.68h12.404l29.101 139.68c205.3 212.63 129.54 464.31 104.98 529.18 3.164 1.614 2.366 1.207 5.529 2.821 238.51-268.11-54.763-532-54.763-532 323.3 167.71 375.32 384.45 375.32 384.45h-111.48c65.032 117.17 41.544 326.28 41.544 326.28l-150.97-5.808-26.334-38.398c-66.89 164.22-219.12 385.15-219.12 385.15s-152.23-220.93-219.12-385.15l-26.335 38.398-150.97 5.808s-23.487-209.11 41.544-326.28h-111.48s52.025-216.75 375.32-384.45c0 0-293.27 263.9-54.765 532 3.164-1.614 2.365-1.207 5.529-2.821"/>
    </g>
    <g id="g986" transform="translate(664.12 1327.9)">
     <path id="path988" d="m0 0s25.067 130.92 185.68 231.63c6.685-7.114 5.327-5.669 12.013-12.782-30.83-42.152-78.634-119.53-107.11-224.96z"/>
    </g>
    <g id="g990" transform="translate(900.72 517.88)">
     <path id="path992" d="m0 0s-142.3-13.379-245.78 77.841c0 0-63.386 51.083-64.68 186.09 0 0 54.331-175.74 310.46-263.93"/>
    </g>
    <g id="g994" transform="translate(1196.6 1559.5)">
     <path id="path996" d="m0 0c160.61-100.7 185.68-231.63 185.68-231.63l-90.579-6.115c-28.48 105.43-76.285 182.81-107.12 224.96 6.687 7.113 5.328 5.668 12.014 12.782"/>
    </g>
    <g id="g998" transform="translate(1456.1 781.81)">
     <path id="path1000" d="m0 0c-1.294-135-64.68-186.09-64.68-186.09-103.49-91.22-245.78-77.841-245.78-77.841 256.13 88.187 310.46 263.93 310.46 263.93"/>
    </g>
   </g>
  </g>
 </g>
</svg>
