<?xml version="1.0" encoding="UTF-8" standalone="no"?>
<svg
   viewBox="0 0 6.3499997 6.3499997"
   version="1.1"
   id="svg8"
   inkscape:version="1.3.2 (091e20e, 2023-11-25, custom)"
   sodipodi:docname="class-fighter.svg"
   xmlns:inkscape="http://www.inkscape.org/namespaces/inkscape"
   xmlns:sodipodi="http://sodipodi.sourceforge.net/DTD/sodipodi-0.dtd"
   xmlns="http://www.w3.org/2000/svg"
   xmlns:svg="http://www.w3.org/2000/svg"
   xmlns:rdf="http://www.w3.org/1999/02/22-rdf-syntax-ns#"
   xmlns:cc="http://creativecommons.org/ns#"
   xmlns:dc="http://purl.org/dc/elements/1.1/">
  <defs
     id="defs2">
    <clipPath
       clipPathUnits="userSpaceOnUse"
       id="clipPath28">
      <path
         d="M 0,2020 H 2020 V 0 H 0 Z"
         id="path26" />
    </clipPath>
    <clipPath
       clipPathUnits="userSpaceOnUse"
       id="clipPath48">
      <path
         d="M 0,2020 H 2020 V 0 H 0 Z"
         id="path46" />
    </clipPath>
    <clipPath
       clipPathUnits="userSpaceOnUse"
       id="clipPath167">
      <path
         d="M 0,2020 H 2020 V 0 H 0 Z"
         id="path165" />
    </clipPath>
    <clipPath
       clipPathUnits="userSpaceOnUse"
       id="clipPath179">
      <path
         d="M 0,2020 H 2020 V 0 H 0 Z"
         id="path177" />
    </clipPath>
    <clipPath
       clipPathUnits="userSpaceOnUse"
       id="clipPath281">
      <path
         d="M 0,2020 H 2020 V 0 H 0 Z"
         id="path279" />
    </clipPath>
    <clipPath
       clipPathUnits="userSpaceOnUse"
       id="clipPath301">
      <path
         d="M 0,2020 H 2020 V 0 H 0 Z"
         id="path299" />
    </clipPath>
    <clipPath
       clipPathUnits="userSpaceOnUse"
       id="clipPath396">
      <path
         d="M 0,2020 H 2020 V 0 H 0 Z"
         id="path394" />
    </clipPath>
    <clipPath
       clipPathUnits="userSpaceOnUse"
       id="clipPath456">
      <path
         d="M 0,2020 H 2020 V 0 H 0 Z"
         id="path454" />
    </clipPath>
  </defs>
  <sodipodi:namedview
     id="base"
     pagecolor="#ffffff"
     bordercolor="#666666"
     borderopacity="1.0"
     inkscape:pageopacity="0.0"
     inkscape:pageshadow="2"
     inkscape:zoom="1.2938323"
     inkscape:cx="-54.102838"
     inkscape:cy="52.170593"
     inkscape:document-units="px"
     inkscape:current-layer="layer1"
     inkscape:document-rotation="0"
     showgrid="true"
     inkscape:showpageshadow="false"
     units="px"
     inkscape:window-width="1360"
     inkscape:window-height="715"
     inkscape:window-x="-8"
     inkscape:window-y="-8"
     inkscape:window-maximized="1"
     inkscape:pagecheckerboard="0"
     inkscape:deskcolor="#d1d1d1">
    <inkscape:grid
       type="xygrid"
       id="grid515"
       originx="0"
       originy="0"
       spacingy="1"
       spacingx="1"
       units="px"
       visible="true" />
  </sodipodi:namedview>
  <metadata
     id="metadata5">
    <rdf:RDF>
      <cc:Work
         rdf:about="">
        <dc:format>image/svg+xml</dc:format>
        <dc:type
           rdf:resource="http://purl.org/dc/dcmitype/StillImage" />
      </cc:Work>
    </rdf:RDF>
  </metadata>
  <g
     inkscape:label="Layer 1"
     inkscape:groupmode="layer"
     id="layer1"
     transform="translate(98.118283,152.01015)">
    <g
       id="g295"
       transform="matrix(0.35277777,0,0,-0.35277777,-822.90394,508.72331)">
      <g
         id="g297"
         clip-path="url(#clipPath301)">
        <g
           id="g303"
           transform="translate(860.3687,87.5264)">
          <path
             d="m 0,0 v -0.216 l -22.14,-3.996 c -1.369,4.105 -3.205,8.101 -5.508,11.988 l -16.74,28.62 h 5.184 c 4.752,0 8.351,1.062 10.8,3.186 2.446,2.123 3.672,5.525 3.672,10.206 0,3.959 -1.261,7.091 -3.78,9.397 -2.521,2.303 -6.085,3.419 -10.692,3.347 l -7.56,-0.107 V 13.824 c 0,-3.887 0.54,-7.181 1.62,-9.882 1.08,-2.7 2.339,-4.589 3.78,-5.67 v -0.215 h -26.028 v 0.215 c 1.583,1.008 2.951,2.898 4.104,5.67 1.151,2.771 1.728,6.21 1.728,10.315 v 43.092 c 0,3.959 -0.577,7.29 -1.728,9.99 -1.153,2.699 -2.521,4.553 -4.104,5.561 v 0.216 h 30.672 c 8.567,0 15.263,-2.035 20.088,-6.101 4.823,-4.069 7.236,-9.631 7.236,-16.687 0,-5.616 -1.279,-10.206 -3.834,-13.769 -2.557,-3.565 -6.175,-6.103 -10.854,-7.615 L -14.04,12.637 C -9.865,5.94 -5.184,1.729 0,0"
             style="fill:#ffffff;fill-opacity:1;fill-rule:nonzero;stroke:none"
             id="path305" />
        </g>
        <g
           id="g307"
           transform="translate(896.332,135.8564)">
          <path
             d="M 0,0 C -0.937,-3.276 -2.268,-7.327 -3.996,-12.149 L -7.992,-23.598 H 12.744 L 8.748,-12.149 C 6.947,-6.966 5.579,-2.826 4.644,0.271 3.708,3.365 2.987,6.75 2.484,10.422 H 2.052 C 1.62,6.75 0.935,3.275 0,0 m 36.18,-43.199 c 2.015,-3.205 3.851,-5.491 5.508,-6.859 v -0.215 H 17.28 v 0.215 c 1.151,0.865 1.728,2.52 1.728,4.968 0,2.304 -0.577,5.076 -1.728,8.317 l -0.972,2.591 h -27.864 l -0.972,-2.591 c -1.153,-2.954 -1.728,-5.689 -1.728,-8.208 0,-2.522 0.503,-4.212 1.512,-5.077 v -0.215 h -22.68 v 0.215 c 1.657,1.44 3.473,3.744 5.454,6.912 1.979,3.167 3.653,6.697 5.022,10.584 l 15.444,44.497 c 0.648,1.943 0.972,3.707 0.972,5.292 0,1.655 -0.289,3.131 -0.864,4.427 -0.577,1.296 -1.261,2.268 -2.052,2.916 v 0.216 h 28.62 V 24.57 c -0.793,-0.72 -1.477,-1.711 -2.052,-2.969 -0.578,-1.261 -0.864,-2.719 -0.864,-4.374 0,-1.585 0.324,-3.349 0.972,-5.292 l 15.876,-44.497 c 1.367,-3.887 3.059,-7.435 5.076,-10.637"
             style="fill:#ffffff;fill-opacity:1;fill-rule:nonzero;stroke:none"
             id="path309" />
        </g>
        <g
           id="g311"
           transform="translate(942.4473,85.7988)">
          <path
             d="m 0,0 c 1.583,1.08 2.951,2.986 4.104,5.724 1.151,2.735 1.728,6.156 1.728,10.26 v 43.2 c 0,3.168 -0.505,6.21 -1.512,9.126 C 3.311,71.226 1.872,73.332 0,74.628 v 0.216 h 24.516 c 0.143,-1.225 0.503,-2.575 1.08,-4.05 0.575,-1.477 1.691,-3.583 3.348,-6.318 L 44.496,38.34 c 3.024,-5.113 6.335,-12.241 9.936,-21.384 h 0.432 c -1.153,6.551 -1.728,13.968 -1.728,22.248 v 19.44 c 0,4.174 -0.523,7.63 -1.566,10.368 -1.045,2.735 -2.359,4.607 -3.942,5.616 v 0.216 h 24.948 v -0.216 c -1.585,-1.009 -2.953,-2.899 -4.104,-5.67 -1.153,-2.772 -1.728,-6.21 -1.728,-10.314 V 15.984 C 66.744,11.88 67.319,8.44 68.472,5.67 69.623,2.897 70.991,1.008 72.576,0 V -0.216 H 49.788 c -1.296,3.095 -3.097,6.516 -5.4,10.26 L 29.16,34.776 c -2.521,4.104 -4.609,7.973 -6.264,11.61 -1.657,3.635 -3.313,7.973 -4.968,13.014 h -0.432 c 0.792,-4.681 1.313,-8.893 1.566,-12.636 0.251,-3.744 0.378,-7.884 0.378,-12.42 v -18.36 c 0,-4.176 0.521,-7.632 1.566,-10.368 C 22.049,2.879 23.363,1.008 24.948,0 V -0.216 H 0 Z"
             style="fill:#ffffff;fill-opacity:1;fill-rule:nonzero;stroke:none"
             id="path313" />
        </g>
        <g
           id="g315"
           transform="translate(1094.5107,125.7588)">
          <path
             d="M 0,0 V -0.216 C -1.225,-1.009 -2.125,-2.665 -2.7,-5.184 -3.277,-7.705 -3.564,-11.377 -3.564,-16.2 v -17.821 c -3.602,-2.304 -7.884,-4.175 -12.852,-5.615 -4.968,-1.439 -9.612,-2.16 -13.932,-2.16 -7.417,0 -14.005,1.62 -19.764,4.86 -5.762,3.24 -10.243,7.739 -13.446,13.5 -3.205,5.759 -4.806,12.347 -4.806,19.764 0,8.208 1.674,15.336 5.022,21.384 3.348,6.048 8.046,10.674 14.094,13.878 6.048,3.203 13.068,4.806 21.06,4.806 7.487,0 14.327,-0.972 20.52,-2.917 l 1.62,-17.603 -0.216,-0.108 c -5.546,6.191 -12.96,9.288 -22.248,9.288 -7.489,0 -13.338,-2.467 -17.55,-7.398 -4.212,-4.932 -6.318,-11.682 -6.318,-20.25 0,-8.569 2.052,-15.336 6.156,-20.304 4.104,-4.968 9.755,-7.452 16.956,-7.452 4.536,0 8.495,0.791 11.88,2.376 v 17.604 c -7.273,-0.145 -12.636,-2.017 -16.092,-5.616 l -0.216,0.108 1.728,16.524 C -29.592,0.216 -25.201,0 -18.792,0 Z"
             style="fill:#ffffff;fill-opacity:1;fill-rule:nonzero;stroke:none"
             id="path317" />
        </g>
        <g
           id="g319"
           transform="translate(1157.9058,106.2109)">
          <path
             d="m 0,0 -3.024,-21.492 c -2.017,0.361 -3.942,0.594 -5.778,0.702 -1.836,0.107 -4.303,0.162 -7.398,0.162 h -38.124 v 0.216 c 1.583,1.08 2.951,2.986 4.104,5.724 1.151,2.735 1.728,6.156 1.728,10.26 v 42.659 c 0,4.175 -0.577,7.615 -1.728,10.315 -1.153,2.7 -2.521,4.59 -4.104,5.67 v 0.216 h 38.772 c 5.112,0 8.927,0.287 11.448,0.864 l 1.836,-19.332 -0.216,-0.109 c -1.296,2.664 -3.385,4.662 -6.264,5.995 -2.88,1.332 -6.444,1.998 -10.692,1.998 H -33.696 V 24.84 h 8.208 c 4.536,0 7.884,0.054 10.044,0.162 2.16,0.107 4.428,0.306 6.804,0.594 L -11.772,7.452 h -0.216 c -0.864,2.376 -2.268,4.104 -4.212,5.184 -1.944,1.08 -4.465,1.62 -7.56,1.62 h -9.936 v -24.3 h 11.772 c 4.752,0 8.981,0.864 12.69,2.592 3.708,1.727 6.713,4.247 9.018,7.559 z"
             style="fill:#ffffff;fill-opacity:1;fill-rule:nonzero;stroke:none"
             id="path321" />
        </g>
        <g
           id="g323"
           transform="translate(1235.7729,87.5264)">
          <path
             d="m 0,0 v -0.216 l -22.14,-3.996 c -1.369,4.105 -3.205,8.101 -5.508,11.988 l -16.74,28.62 h 5.184 c 4.752,0 8.351,1.062 10.8,3.186 2.446,2.123 3.672,5.525 3.672,10.206 0,3.959 -1.261,7.091 -3.78,9.397 -2.521,2.303 -6.085,3.419 -10.692,3.347 l -7.56,-0.107 V 13.824 c 0,-3.887 0.54,-7.181 1.62,-9.882 1.08,-2.7 2.339,-4.589 3.78,-5.67 v -0.215 h -26.028 v 0.215 c 1.583,1.008 2.951,2.898 4.104,5.67 1.151,2.771 1.728,6.21 1.728,10.315 v 43.092 c 0,3.959 -0.577,7.29 -1.728,9.99 -1.153,2.699 -2.521,4.553 -4.104,5.561 v 0.216 h 30.672 c 8.567,0 15.263,-2.035 20.088,-6.101 4.823,-4.069 7.236,-9.631 7.236,-16.687 0,-5.616 -1.279,-10.206 -3.834,-13.769 -2.557,-3.565 -6.175,-6.103 -10.854,-7.615 L -14.04,12.637 C -9.865,5.94 -5.184,1.729 0,0"
             style="fill:#ffffff;fill-opacity:1;fill-rule:nonzero;stroke:none"
             id="path325" />
        </g>
      </g>
    </g>
    <g
       id="g390"
       transform="matrix(0.00502222,0,0,-0.00502222,-100.08742,-143.76271)"
       style="stroke-width:70.2435">
      <g
         id="g392"
         clip-path="url(#clipPath396)"
         style="stroke-width:70.2435">
        <g
           id="g398"
           transform="translate(553.4961,1109.0493)"
           style="stroke-width:70.2435">
          <path
             d="m 0,0 c -11.71,-41.857 -18.108,-85.91 -18.108,-131.455 0,-98.307 29.283,-189.856 79.439,-266.58 l 49.632,49.632 40.745,40.746 c -28.999,52.259 -45.575,112.321 -45.575,176.202 0,8.212 0.372,16.335 0.909,24.413 l -0.842,0.842 z"
             style="fill-opacity:1;fill-rule:nonzero;stroke:none;stroke-width:70.2435"
             id="path400" />
        </g>
        <g
           id="g402"
           transform="translate(998.2002,1340.9609)"
           style="stroke-width:70.2435">
          <path
             d="m 0,0 c 8.536,0.601 17.124,1.016 25.811,1.016 8.401,0 16.709,-0.39 24.969,-0.952 l 106.958,106.958 c -41.998,11.796 -86.211,18.244 -131.927,18.244 -45.972,0 -90.424,-6.52 -132.633,-18.444 L -0.064,0.064 Z"
             style="fill-opacity:1;fill-rule:nonzero;stroke:none;stroke-width:70.2435"
             id="path404" />
        </g>
        <g
           id="g406"
           transform="translate(819.7168,977.5981)"
           style="stroke-width:70.2435">
          <path
             d="M 0,0 C 0,-18.616 2.706,-36.561 7.371,-53.699 L 61.375,0.306 7.496,54.185 C 2.747,36.903 0,18.791 0,0"
             style="fill-opacity:1;fill-rule:nonzero;stroke:none;stroke-width:70.2435"
             id="path408" />
        </g>
        <g
           id="g410"
           transform="translate(1077.709,1174.521)"
           style="stroke-width:70.2435">
          <path
             d="m 0,0 c -17.138,4.665 -35.083,7.371 -53.698,7.371 -19.212,0 -37.728,-2.84 -55.356,-7.798 L -54.74,-54.74 Z"
             style="fill-opacity:1;fill-rule:nonzero;stroke:none;stroke-width:70.2435"
             id="path412" />
        </g>
        <g
           id="g414"
           transform="translate(1188.5469,954.2021)"
           style="stroke-width:70.2435">
          <path
             d="m 0,0 31.961,-31.961 c 4.959,17.627 7.798,36.145 7.798,55.357 0,19.055 -2.806,37.422 -7.686,54.92 L -23.121,23.122 -0.063,0.064 Z"
             style="fill-opacity:1;fill-rule:nonzero;stroke:none;stroke-width:70.2435"
             id="path416" />
        </g>
        <g
           id="g418"
           transform="translate(969.0908,780.9888)"
           style="stroke-width:70.2435">
          <path
             d="m 0,0 c 17.498,-4.88 35.865,-7.686 54.92,-7.686 18.791,0 36.903,2.748 54.185,7.497 L 54.458,54.458 Z"
             style="fill-opacity:1;fill-rule:nonzero;stroke:none;stroke-width:70.2435"
             id="path420" />
        </g>
        <g
           id="g422"
           transform="translate(1205.9482,655.5312)"
           style="stroke-width:70.2435">
          <path
             d="m 0,0 -4.162,4.162 c -52.627,-29.548 -113.246,-46.481 -177.775,-46.481 -64.066,0 -124.288,16.678 -176.652,45.834 l -51.353,-51.354 -39.005,-39.005 c 76.81,-50.328 168.519,-79.716 267.01,-79.716 98.949,0 191.061,29.649 268.089,80.408 L 0.706,-0.706 Z"
             style="fill-opacity:1;fill-rule:nonzero;stroke:none;stroke-width:70.2435"
             id="path424" />
        </g>
        <g
           id="g426"
           transform="translate(1420.4561,724.7007)"
           style="stroke-width:70.2435">
          <path
             d="m 0,0 13.109,-13.109 c 49.927,76.607 79.069,167.94 79.069,266.003 0,45.801 -6.471,90.093 -18.308,132.161 L -33.036,278.149 c 0.576,-8.355 0.973,-16.757 0.973,-25.255 0,-63.635 -16.439,-123.484 -45.229,-175.601 L -0.769,0.769 Z"
             style="fill-opacity:1;fill-rule:nonzero;stroke:none;stroke-width:70.2435"
             id="path428" />
        </g>
        <g
           id="g430"
           transform="translate(1560.3643,1513.9507)"
           style="stroke-width:70.2435">
          <path
             d="m 0,0 c -36.552,36.552 -68.588,3.059 -68.588,3.059 0,0 20.532,-9.466 41.357,-30.29 20.096,-20.096 30.29,-41.357 30.29,-41.357 0,0 33.493,32.037 -3.059,68.588"
             style="fill-opacity:1;fill-rule:nonzero;stroke:none;stroke-width:70.2435"
             id="path432" />
        </g>
        <g
           id="g434"
           transform="translate(1070.7803,1013.8813)"
           style="stroke-width:70.2435">
          <path
             d="m 0,0 -14.417,-3.932 3.932,14.417 215.813,215.813 10.484,-10.485 z m 473.856,201.251 -84.169,-7.281 c -13.867,29.466 -35.603,58.624 -54.002,80.553 l 141.959,141.959 c 0,0 -9.466,20.532 -30.29,41.357 -16.457,16.455 -41.357,30.289 -41.357,30.289 L 264.038,346.169 c -21.93,18.4 -51.088,40.137 -80.554,54.003 l 7.282,84.17 -16.019,-0.291 L 14.307,323.61 c 0,0 65.373,-5.673 142.07,-54.811 l -590.334,-590.334 -39.318,-141.255 141.254,39.318 590.334,590.335 C 304.773,95.725 312.651,26.374 312.651,26.374 l 160.914,158.858 z"
             style="fill-opacity:1;fill-rule:nonzero;stroke:none;stroke-width:70.2435"
             id="path436" />
        </g>
        <g
           id="g438"
           transform="translate(556.7744,1517.0093)"
           style="stroke-width:70.2435">
          <path
             d="m 0,0 c 0,0 -32.037,33.493 -68.588,-3.058 -36.552,-36.552 -3.058,-68.588 -3.058,-68.588 0,0 10.194,21.26 30.29,41.356 C -20.532,-9.466 0,0 0,0"
             style="fill-opacity:1;fill-rule:nonzero;stroke:none;stroke-width:70.2435"
             id="path440" />
        </g>
        <g
           id="g442"
           transform="translate(947.7227,1043.9297)"
           style="stroke-width:70.2435">
          <path
             d="M 0,0 -185.765,185.765 -175.28,196.25 10.485,10.485 56.211,56.211 -126.329,238.75 c 76.698,49.138 142.07,54.812 142.07,54.812 l -160.44,160.44 -16.019,0.292 7.281,-84.17 c -29.465,-13.866 -58.624,-35.603 -80.553,-54.003 l -141.958,141.96 c 0,0 -24.902,-13.835 -41.357,-30.291 -20.825,-20.824 -30.291,-41.356 -30.291,-41.356 l 141.96,-141.959 c -18.399,-21.929 -40.136,-51.088 -54.003,-80.553 l -84.17,7.281 0.291,-16.019 160.914,-158.858 c 0,0 7.878,69.351 54.338,140.488 l 182.54,-182.54 0.523,0.522 z"
             style="fill-opacity:1;fill-rule:nonzero;stroke:none;stroke-width:70.2435"
             id="path444" />
        </g>
        <g
           id="g446"
           transform="translate(1451.0459,551.0918)"
           style="stroke-width:70.2435">
          <path
             d="m 0,0 -39.318,141.254 -265.789,265.789 -85.435,-85.435 -0.769,-0.768 -15.733,-15.733 265.789,-265.789 z"
             style="fill-opacity:1;fill-rule:nonzero;stroke:none;stroke-width:70.2435"
             id="path448" />
        </g>
      </g>
    </g>
  </g>
</svg>
