<?xml version="1.0" encoding="UTF-8"?>
<svg id="svg8" version="1.1" viewBox="0 0 24 24" xmlns="http://www.w3.org/2000/svg" xmlns:cc="http://creativecommons.org/ns#" xmlns:dc="http://purl.org/dc/elements/1.1/" xmlns:rdf="http://www.w3.org/1999/02/22-rdf-syntax-ns#">
 <defs id="defs2">
  <clipPath id="clipPath396">
   <path id="path394" d="m0 2020h2020v-2020h-2020z"/>
  </clipPath>
 </defs>
 <metadata id="metadata5">
  <rdf:RDF>
   <cc:Work rdf:about="">
    <dc:format>image/svg+xml</dc:format>
    <dc:type rdf:resource="http://purl.org/dc/dcmitype/StillImage"/>
   </cc:Work>
  </rdf:RDF>
 </metadata>
 <g id="layer1" transform="translate(543.16 151.45)">
  <g id="g390" transform="matrix(.019886 0 0 -.019886 -551.53 -119.37)" stroke-width="17.74">
   <g id="g392" clip-path="url(#clipPath396)" stroke-width="17.74">
    <g id="g398" transform="translate(553.5 1109)">
     <path id="path400" d="m0 0c-11.71-41.857-18.108-85.91-18.108-131.46 0-98.307 29.283-189.86 79.439-266.58l49.632 49.632 40.745 40.746c-28.999 52.259-45.575 112.32-45.575 176.2 0 8.212 0.372 16.335 0.909 24.413l-0.842 0.842z"/>
    </g>
    <g id="g402" transform="translate(998.2 1341)">
     <path id="path404" d="m0 0c8.536 0.601 17.124 1.016 25.811 1.016 8.401 0 16.709-0.39 24.969-0.952l106.96 106.96c-41.998 11.796-86.211 18.244-131.93 18.244-45.972 0-90.424-6.52-132.63-18.444l106.76-106.76z"/>
    </g>
    <g id="g406" transform="translate(819.72 977.6)">
     <path id="path408" d="M 0,0 C 0,-18.616 2.706,-36.561 7.371,-53.699 L 61.375,0.306 7.496,54.185 C 2.747,36.903 0,18.791 0,0"/>
    </g>
    <g id="g410" transform="translate(1077.7 1174.5)">
     <path id="path412" d="m0 0c-17.138 4.665-35.083 7.371-53.698 7.371-19.212 0-37.728-2.84-55.356-7.798l54.314-54.313z"/>
    </g>
    <g id="g414" transform="translate(1188.5 954.2)">
     <path id="path416" d="m0 0 31.961-31.961c4.959 17.627 7.798 36.145 7.798 55.357 0 19.055-2.806 37.422-7.686 54.92l-55.194-55.194 23.058-23.058z"/>
    </g>
    <g id="g418" transform="translate(969.09 780.99)">
     <path id="path420" d="m0 0c17.498-4.88 35.865-7.686 54.92-7.686 18.791 0 36.903 2.748 54.185 7.497l-54.647 54.647z"/>
    </g>
    <g id="g422" transform="translate(1205.9 655.53)">
     <path id="path424" d="m0 0-4.162 4.162c-52.627-29.548-113.25-46.481-177.78-46.481-64.066 0-124.29 16.678-176.65 45.834l-90.358-90.359c76.81-50.328 168.52-79.716 267.01-79.716 98.949 0 191.06 29.649 268.09 80.408l-85.446 85.446z"/>
    </g>
    <g id="g426" transform="translate(1420.5 724.7)">
     <path id="path428" d="m0 0 13.109-13.109c49.927 76.607 79.069 167.94 79.069 266 0 45.801-6.471 90.093-18.308 132.16l-106.91-106.91c0.576-8.355 0.973-16.757 0.973-25.255 0-63.635-16.439-123.48-45.229-175.6l76.523-76.524z"/>
    </g>
    <g id="g430" transform="translate(1560.4 1514)">
     <path id="path432" d="m0 0c-36.552 36.552-68.588 3.059-68.588 3.059s20.532-9.466 41.357-30.29c20.096-20.096 30.29-41.357 30.29-41.357s33.493 32.037-3.059 68.588"/>
    </g>
    <g id="g434" transform="translate(1070.8 1013.9)">
     <path id="path436" d="m0 0-14.417-3.932 3.932 14.417 215.81 215.81 10.484-10.485zm473.86 201.25-84.169-7.281c-13.867 29.466-35.603 58.624-54.002 80.553l141.96 141.96s-9.466 20.532-30.29 41.357c-16.457 16.455-41.357 30.289-41.357 30.289l-141.96-141.96c-21.93 18.4-51.088 40.137-80.554 54.003l7.282 84.17-16.019-0.291-160.44-160.44s65.373-5.673 142.07-54.811l-590.33-590.33-39.318-141.26 141.25 39.318 590.33 590.34c46.46-71.138 54.338-140.49 54.338-140.49l160.91 158.86z"/>
    </g>
    <g id="g438" transform="translate(556.77 1517)">
     <path id="path440" d="m0 0s-32.037 33.493-68.588-3.058c-36.552-36.552-3.058-68.588-3.058-68.588s10.194 21.26 30.29 41.356c20.824 20.824 41.356 30.29 41.356 30.29"/>
    </g>
    <g id="g442" transform="translate(947.72 1043.9)">
     <path id="path444" d="m0 0-185.76 185.76 10.485 10.485 185.76-185.76 45.726 45.726-182.54 182.54c76.698 49.138 142.07 54.812 142.07 54.812l-160.44 160.44-16.019 0.292 7.281-84.17c-29.465-13.866-58.624-35.603-80.553-54.003l-141.96 141.96s-24.902-13.835-41.357-30.291c-20.825-20.824-30.291-41.356-30.291-41.356l141.96-141.96c-18.399-21.929-40.136-51.088-54.003-80.553l-84.17 7.281 0.291-16.019 160.91-158.86s7.878 69.351 54.338 140.49l182.54-182.54 0.523 0.522z"/>
    </g>
    <g id="g446" transform="translate(1451 551.09)">
     <path id="path448" d="m0 0-39.318 141.25-265.79 265.79-85.435-85.435-0.769-0.768-15.733-15.733 265.79-265.79z"/>
    </g>
   </g>
  </g>
 </g>
</svg>
