<?xml version="1.0" encoding="UTF-8"?>
<svg id="svg8" version="1.1" viewBox="0 0 24 24" xml:space="preserve" xmlns="http://www.w3.org/2000/svg" xmlns:cc="http://creativecommons.org/ns#" xmlns:dc="http://purl.org/dc/elements/1.1/" xmlns:rdf="http://www.w3.org/1999/02/22-rdf-syntax-ns#"><metadata id="metadata5"><rdf:RDF><cc:Work rdf:about=""><dc:format>image/svg+xml</dc:format><dc:type rdf:resource="http://purl.org/dc/dcmitype/StillImage"/></cc:Work></rdf:RDF></metadata><g id="layer1" transform="translate(98.118 152.01)"><g id="g1" transform="translate(0 -.00096494)"><path id="path133" d="m-87.396-137.58v4.5859l0.02734 2.0801 1.1992 1.8145h0.10742l1.1992-1.8145 0.02734-2.0801v-4.5859c-0.43816 0.23293-0.45107 0.73246-0.54492 1.1738-0.22614 1.0635-0.59537 2.1698-0.68164 3.2539h-0.10742c-0.08627-1.0841-0.4555-2.1904-0.68164-3.2539-0.09385-0.44137-0.10676-0.9409-0.54492-1.1738z"/><path id="path142" d="m-94.344-141.53c-2.4736 2.187-2.9683 6.3559-0.73828 8.8535 1.1559 1.2946 2.479 1.6786 3.9902 2.3476l-2.666 0.79883v0.0547l5.334-0.21484c-0.27817-0.98026-0.58054-1.9521-0.86133-2.9316-0.09474-0.33052-0.16424-0.99448-0.41016-1.2402-0.15064-0.15053-0.50405-0.13375-0.70312-0.18359-0.39123-0.098-0.78016-0.26255-1.1191-0.48047-1.8185-1.169-2.1707-3.1438-1.3867-5.0293-0.38666 0.18044-0.6718 0.60429-0.89453 0.95899-0.7788 1.2402-0.712 2.505-0.65234 3.8945h-0.05273c-0.41294-1.4445-0.79832-2.6803-0.57227-4.2148 0.08935-0.6065 0.25192-1.18 0.44727-1.7598 0.09002-0.26716 0.29399-0.57151 0.28516-0.85352z"/><path id="path142-8" d="m-77.893-141.53c2.4736 2.187 2.9683 6.3559 0.73828 8.8535-1.1559 1.2945-2.479 1.6786-3.9902 2.3476l2.666 0.79884v0.0547l-5.334-0.21485c0.27817-0.98025 0.58054-1.9521 0.86133-2.9316 0.09474-0.33053 0.16424-0.99449 0.41016-1.2402 0.15064-0.15053 0.50405-0.13375 0.70312-0.1836 0.39123-0.098 0.78016-0.26255 1.1191-0.48047 1.8185-1.169 2.1707-3.1438 1.3867-5.0293 0.38666 0.18044 0.6718 0.60429 0.89453 0.95899 0.7788 1.2402 0.712 2.505 0.65234 3.8945h0.05273c0.41294-1.4445 0.79832-2.6803 0.57227-4.2148-0.08935-0.6065-0.25192-1.18-0.44727-1.7598-0.09002-0.26716-0.29399-0.57151-0.28516-0.85352z"/><path id="path140" d="m-86.169-143.34-0.47266 2.293-0.28516 0.83203-1.002 0.31055-2.3457 0.51172v0.0527l2.3457 0.52149 0.99219 0.30078 0.30664 0.88476 0.46094 2.2402h0.10742l0.46094-2.2402 0.30664-0.88476 0.99219-0.30078 2.3457-0.52149v-0.0527l-2.3457-0.51172-1.002-0.31055-0.28516-0.83203-0.47266-2.293z"/><g id="g150" transform="matrix(.96141 0 0 .96141 -3.3325 -5.514)"><path id="path137" d="m-89.71-137.61v-0.0527c-1.301-0.9913-1.9509-2.2981-2.1484-3.7031-0.22345-1.5896 0.13242-3.3049 0.7832-4.8301 0.53508-1.254 1.6804-2.8011 1.418-4.2148h-0.05273c-0.02767 1.3403-1.1913 2.6074-1.8828 3.6816-1.1155 1.7328-1.9321 3.9958-1.3359 5.9394 0.22071 0.71959 0.63377 1.3954 1.2988 1.9844 0.57174 0.50632 1.2065 0.91854 1.9199 1.1953z"/><path id="path137-2" d="m-82.507-137.61v-0.0527c1.301-0.9913 1.9509-2.2981 2.1484-3.7031 0.22345-1.5896-0.13242-3.3049-0.7832-4.8301-0.53508-1.254-1.6804-2.8011-1.418-4.2148h0.05273c0.02767 1.3403 1.1913 2.6074 1.8828 3.6816 1.1155 1.7328 1.9321 3.9958 1.3359 5.9394-0.22071 0.71959-0.63377 1.3954-1.2988 1.9844-0.57174 0.50632-1.2065 0.91854-1.9199 1.1953z"/></g><path id="path148" d="m-86.144-150.05c-0.38754 3e-3 -0.76937 0.0739-0.8457 0.22461-0.10648 0.21026-0.0332 0.59894-0.0332 0.83007v2.0801c-0.47311 0.01-1.2731 0.35238-1.707 0.19727-0.28185-0.10075-0.7818-0.92047-1.1016-0.77344-0.21704 0.0998-0.125 0.65228-0.125 0.84375v2.5606l2.5078-0.90821c0.27882 1.1711 0.05273 2.6376 0.05273 3.8418 0.4355-0.23152 0.45355-0.73487 0.55274-1.1738 0.23845-1.0553 0.588-2.1755 0.67383-3.2539h0.10742c0.08582 1.0784 0.43538 2.1986 0.67383 3.2539 0.09918 0.43896 0.11724 0.94231 0.55273 1.1738 0-1.2042-0.22608-2.6707 0.05273-3.8418l2.4531 0.90821c0-0.85526 0.05469-1.7084 0.05469-2.5606 0-0.19146 0.09204-0.74397-0.125-0.84375-0.31286-0.14383-0.82186 0.67287-1.1035 0.77344-0.42752 0.15265-1.2359-0.18758-1.7051-0.19727v-2.1328c0-0.2084 0.08196-0.6423-0.05469-0.81445-0.09983-0.12577-0.49332-0.19053-0.88086-0.1875z"/><path id="path136" d="m-86.15-150.92c-0.25383 2e-3 -0.50408 0.0876-0.67188 0.26172-0.10637 0.11034-0.18098 0.25423-0.20117 0.43554 0.59115-0.15295 1.2233-0.15295 1.8145 0-0.0099-0.062-0.02689-0.11798-0.04883-0.17187-0.14268-0.35055-0.5216-0.52808-0.89258-0.52539z"/></g></g></svg>
