<?xml version="1.0" encoding="UTF-8" standalone="no"?>
<svg
   viewBox="0 0 23.999999 23.999999"
   version="1.1"
   id="svg8"
   inkscape:version="1.3.2 (091e20e, 2023-11-25, custom)"
   sodipodi:docname="magus.svg"
   xml:space="preserve"
   width="24"
   height="24"
   xmlns:inkscape="http://www.inkscape.org/namespaces/inkscape"
   xmlns:sodipodi="http://sodipodi.sourceforge.net/DTD/sodipodi-0.dtd"
   xmlns="http://www.w3.org/2000/svg"
   xmlns:svg="http://www.w3.org/2000/svg"
   xmlns:rdf="http://www.w3.org/1999/02/22-rdf-syntax-ns#"
   xmlns:cc="http://creativecommons.org/ns#"
   xmlns:dc="http://purl.org/dc/elements/1.1/"><defs
     id="defs2"><clipPath
       clipPathUnits="userSpaceOnUse"
       id="clipPath28"><path
         d="M 0,2020 H 2020 V 0 H 0 Z"
         id="path26" /></clipPath><clipPath
       clipPathUnits="userSpaceOnUse"
       id="clipPath48"><path
         d="M 0,2020 H 2020 V 0 H 0 Z"
         id="path46" /></clipPath><clipPath
       clipPathUnits="userSpaceOnUse"
       id="clipPath167"><path
         d="M 0,2020 H 2020 V 0 H 0 Z"
         id="path165" /></clipPath><clipPath
       clipPathUnits="userSpaceOnUse"
       id="clipPath179"><path
         d="M 0,2020 H 2020 V 0 H 0 Z"
         id="path177" /></clipPath><clipPath
       clipPathUnits="userSpaceOnUse"
       id="clipPath281"><path
         d="M 0,2020 H 2020 V 0 H 0 Z"
         id="path279" /></clipPath><clipPath
       clipPathUnits="userSpaceOnUse"
       id="clipPath301"><path
         d="M 0,2020 H 2020 V 0 H 0 Z"
         id="path299" /></clipPath><clipPath
       clipPathUnits="userSpaceOnUse"
       id="clipPath456"><path
         d="M 0,2020 H 2020 V 0 H 0 Z"
         id="path454" /></clipPath><clipPath
       clipPathUnits="userSpaceOnUse"
       id="clipPath3"><g
         id="g4"
         transform="matrix(199.11513,0,0,-199.11513,19372.145,-30142.339)"
         style="stroke-width:0.00502222"><path
           d="m -100.08742,-153.90759 h 10.144884 v 10.14488 h -10.144884 z"
           id="path3"
           style="stroke-width:0.00502221" /></g></clipPath><clipPath
       clipPathUnits="userSpaceOnUse"
       id="clipPath4"><g
         id="g5"
         transform="matrix(199.11513,0,0,-199.11513,18858.14,-29639.211)"
         style="stroke-width:0.00502222"><path
           d="m -100.08742,-153.90759 h 10.144884 v 10.14488 h -10.144884 z"
           id="path4"
           style="stroke-width:0.00502221" /></g></clipPath><clipPath
       clipPathUnits="userSpaceOnUse"
       id="clipPath5"><g
         id="g6"
         transform="matrix(199.11513,0,0,-199.11513,18368.556,-30139.281)"
         style="stroke-width:0.00502222"><path
           d="m -100.08742,-153.90759 h 10.144884 v 10.14488 h -10.144884 z"
           id="path5"
           style="stroke-width:0.00502221" /></g></clipPath><clipPath
       clipPathUnits="userSpaceOnUse"
       id="clipPath6"><g
         id="g7"
         transform="matrix(199.11513,0,0,-199.11513,18508.464,-29350.032)"
         style="stroke-width:0.00502222"><path
           d="m -100.08742,-153.90759 h 10.144884 v 10.14488 h -10.144884 z"
           id="path6"
           style="stroke-width:0.00502221" /></g></clipPath><clipPath
       clipPathUnits="userSpaceOnUse"
       id="clipPath7"><g
         id="g8"
         transform="matrix(199.11513,0,0,-199.11513,18722.972,-29280.862)"
         style="stroke-width:0.00502222"><path
           d="m -100.08742,-153.90759 h 10.144884 v 10.14488 h -10.144884 z"
           id="path7"
           style="stroke-width:0.00502221" /></g></clipPath><clipPath
       clipPathUnits="userSpaceOnUse"
       id="clipPath8"><g
         id="g9"
         transform="matrix(199.11513,0,0,-199.11513,18959.829,-29406.32)"
         style="stroke-width:0.00502222"><path
           d="m -100.08742,-153.90759 h 10.144884 v 10.14488 h -10.144884 z"
           id="path8"
           style="stroke-width:0.00502221" /></g></clipPath><clipPath
       clipPathUnits="userSpaceOnUse"
       id="clipPath9"><g
         id="g10"
         transform="matrix(199.11513,0,0,-199.11513,18740.373,-29579.533)"
         style="stroke-width:0.00502222"><path
           d="m -100.08742,-153.90759 h 10.144884 v 10.14488 h -10.144884 z"
           id="path9"
           style="stroke-width:0.00502221" /></g></clipPath><clipPath
       clipPathUnits="userSpaceOnUse"
       id="clipPath10"><g
         id="g11"
         transform="matrix(199.11513,0,0,-199.11513,18851.211,-29799.851)"
         style="stroke-width:0.00502222"><path
           d="m -100.08742,-153.90759 h 10.144884 v 10.14488 h -10.144884 z"
           id="path10"
           style="stroke-width:0.00502221" /></g></clipPath><clipPath
       clipPathUnits="userSpaceOnUse"
       id="clipPath11"><g
         id="g12"
         transform="matrix(199.11513,0,0,-199.11513,19109.203,-29602.929)"
         style="stroke-width:0.00502222"><path
           d="m -100.08742,-153.90759 h 10.144884 v 10.14488 h -10.144884 z"
           id="path11"
           style="stroke-width:0.00502221" /></g></clipPath><clipPath
       clipPathUnits="userSpaceOnUse"
       id="clipPath12"><g
         id="g13"
         transform="matrix(199.11513,0,0,-199.11513,18930.72,-29966.292)"
         style="stroke-width:0.00502222"><path
           d="m -100.08742,-153.90759 h 10.144884 v 10.14488 h -10.144884 z"
           id="path12"
           style="stroke-width:0.00502221" /></g></clipPath><clipPath
       clipPathUnits="userSpaceOnUse"
       id="clipPath13"><g
         id="g14"
         transform="matrix(199.11513,0,0,-199.11513,19375.424,-29734.38)"
         style="stroke-width:0.00502222"><path
           d="m -100.08742,-153.90759 h 10.144884 v 10.14488 h -10.144884 z"
           id="path13"
           style="stroke-width:0.00502221" /></g></clipPath><clipPath
       clipPathUnits="userSpaceOnUse"
       id="clipPath30"><g
         id="g34"><g
           id="g33"
           style="stroke-width:1"><g
             id="g32"
             style="stroke-width:1"><g
               id="g31"
               transform="matrix(0,1.3446444,-1.3446444,0,-296.17443,-21.216639)"
               style="stroke-width:0.743691"><path
                 d="m -100.08742,-153.90759 h 10.144884 v 10.14488 h -10.144884 z"
                 id="path30"
                 style="stroke-width:0.74369" /></g></g></g></g></clipPath><clipPath
       clipPathUnits="userSpaceOnUse"
       id="clipPath35"><g
         id="g37"><g
           id="g36"
           transform="matrix(0,1.3508886,-1.3508886,0,-294.39446,-23.328333)"
           style="stroke-width:0.740253"><path
             d="m -100.08742,-153.90759 h 10.144884 v 10.14488 h -10.144884 z"
             id="path35"
             style="stroke-width:0.740252" /></g></g></clipPath><clipPath
       clipPathUnits="userSpaceOnUse"
       id="clipPath38"><g
         id="g42"><g
           id="g41"
           style="stroke-width:1"><g
             id="g40"
             style="stroke-width:1"><g
               id="g39"
               transform="matrix(0,1.3446444,-1.3446444,0,-296.17443,-21.216639)"
               style="stroke-width:0.743691"><path
                 d="m -100.08742,-153.90759 h 10.144884 v 10.14488 h -10.144884 z"
                 id="path38"
                 style="stroke-width:0.74369" /></g></g></g></g></clipPath><clipPath
       clipPathUnits="userSpaceOnUse"
       id="clipPath28-4"><path
         d="M 0,2020 H 2020 V 0 H 0 Z"
         id="path26-4" /></clipPath><clipPath
       clipPathUnits="userSpaceOnUse"
       id="clipPath48-6"><path
         d="M 0,2020 H 2020 V 0 H 0 Z"
         id="path46-8" /></clipPath><clipPath
       clipPathUnits="userSpaceOnUse"
       id="clipPath167-5"><path
         d="M 0,2020 H 2020 V 0 H 0 Z"
         id="path165-4" /></clipPath><clipPath
       clipPathUnits="userSpaceOnUse"
       id="clipPath179-7"><path
         d="M 0,2020 H 2020 V 0 H 0 Z"
         id="path177-4" /></clipPath><clipPath
       clipPathUnits="userSpaceOnUse"
       id="clipPath281-2"><path
         d="M 0,2020 H 2020 V 0 H 0 Z"
         id="path279-8" /></clipPath><clipPath
       clipPathUnits="userSpaceOnUse"
       id="clipPath301-8"><path
         d="M 0,2020 H 2020 V 0 H 0 Z"
         id="path299-9" /></clipPath><clipPath
       clipPathUnits="userSpaceOnUse"
       id="clipPath396"><path
         d="M 0,2020 H 2020 V 0 H 0 Z"
         id="path394" /></clipPath><clipPath
       clipPathUnits="userSpaceOnUse"
       id="clipPath456-8"><path
         d="M 0,2020 H 2020 V 0 H 0 Z"
         id="path454-7" /></clipPath><clipPath
       clipPathUnits="userSpaceOnUse"
       id="clipPath28-7"><path
         d="M 0,2020 H 2020 V 0 H 0 Z"
         id="path26-9" /></clipPath><clipPath
       clipPathUnits="userSpaceOnUse"
       id="clipPath48-8"><path
         d="M 0,2020 H 2020 V 0 H 0 Z"
         id="path46-1" /></clipPath><clipPath
       clipPathUnits="userSpaceOnUse"
       id="clipPath167-3"><path
         d="M 0,2020 H 2020 V 0 H 0 Z"
         id="path165-8" /></clipPath><clipPath
       clipPathUnits="userSpaceOnUse"
       id="clipPath179-76"><path
         d="M 0,2020 H 2020 V 0 H 0 Z"
         id="path177-9" /></clipPath><clipPath
       clipPathUnits="userSpaceOnUse"
       id="clipPath281-4"><path
         d="M 0,2020 H 2020 V 0 H 0 Z"
         id="path279-2" /></clipPath><clipPath
       clipPathUnits="userSpaceOnUse"
       id="clipPath301-85"><path
         d="M 0,2020 H 2020 V 0 H 0 Z"
         id="path299-0" /></clipPath><clipPath
       clipPathUnits="userSpaceOnUse"
       id="clipPath396-5"><path
         d="M 0,2020 H 2020 V 0 H 0 Z"
         id="path394-4" /></clipPath><clipPath
       clipPathUnits="userSpaceOnUse"
       id="clipPath456-5"><path
         d="M 0,2020 H 2020 V 0 H 0 Z"
         id="path454-3" /></clipPath></defs><sodipodi:namedview
     id="base"
     pagecolor="#ffffff"
     bordercolor="#666666"
     borderopacity="1.0"
     inkscape:pageopacity="0.0"
     inkscape:pageshadow="2"
     inkscape:zoom="10.350658"
     inkscape:cx="8.8883235"
     inkscape:cy="1.8839381"
     inkscape:document-units="px"
     inkscape:current-layer="layer1"
     inkscape:document-rotation="0"
     showgrid="true"
     inkscape:showpageshadow="false"
     units="px"
     inkscape:window-width="1366"
     inkscape:window-height="697"
     inkscape:window-x="-8"
     inkscape:window-y="-8"
     inkscape:window-maximized="1"
     inkscape:pagecheckerboard="0"
     inkscape:deskcolor="#d1d1d1"><inkscape:grid
       type="xygrid"
       id="grid515"
       originx="0"
       originy="0"
       spacingy="1"
       spacingx="1"
       units="px"
       visible="true" /></sodipodi:namedview><metadata
     id="metadata5"><rdf:RDF><cc:Work
         rdf:about=""><dc:format>image/svg+xml</dc:format><dc:type
           rdf:resource="http://purl.org/dc/dcmitype/StillImage" /></cc:Work></rdf:RDF></metadata><g
     inkscape:label="Layer 1"
     inkscape:groupmode="layer"
     id="layer1"
     transform="translate(98.118283,152.01015)"><g
       transform="matrix(0.13333333,0,0,-0.13333333,-120.62486,241.4122)"
       fill="#000000"
       stroke="none"
       id="g1" /><g
       id="g44"><g
         id="g43"
         transform="matrix(3.498674,0,0,3.498674,246.03007,380.84066)"
         style="stroke-width:0.285823"><path
           id="path440"
           clip-path="url(#clipPath38)"
           style="fill-opacity:1;fill-rule:nonzero;stroke:none;stroke-width:0.100832"
           d="m -92.89558,-152.61703 c -0.123645,0.006 -0.208984,0.0957 -0.208984,0.0957 0,0 0.143586,0.0674 0.279297,0.20313 0.140626,0.14063 0.205078,0.27929 0.205078,0.27929 0,0 0.225342,-0.21606 -0.02148,-0.46289 -0.09256,-0.0926 -0.17972,-0.11882 -0.253907,-0.11523 z m -0.310547,0.19726 -0.957031,0.95703 c -0.148089,-0.12424 -0.345942,-0.26963 -0.544922,-0.36328 l 0.04883,-0.56836 -0.107421,0.002 -1.072266,1.08593 c 0,0 0.466871,0.0534 0.947266,0.36719 l -1.232422,1.23242 0.002,0.002 -0.05859,0.0566 -0.267578,0.95898 0.958984,-0.26758 1.289063,-1.29101 c 0.32964,0.51634 0.367187,0.95703 0.367187,0.95703 l 1.083985,-1.08398 0.002,-0.10938 -0.56836,0.0508 c -0.09364,-0.19898 -0.240977,-0.39683 -0.365234,-0.54492 l 0.958984,-0.95898 c 0,0 -0.09395,-0.16818 -0.205078,-0.2793 -0.140627,-0.14064 -0.279297,-0.20313 -0.279297,-0.20313 z m -0.875,1.25977 0.101563,0.0996 -0.914063,0.91406 -0.101562,-0.10156 z"
           transform="translate(0.5917498,0.77289769)" /><path
           id="path2-7"
           style="stroke-width:0.285822"
           d="m -95.620472,-150.24416 c -0.1775,0.002 -0.342423,0.027 -0.517578,0.0762 -0.02352,0.006 -0.04608,0.0128 -0.07031,0.0195 -0.383463,0.11675 -0.71141,0.3782 -0.908204,0.73046 -0.271033,0.58406 -0.147838,1.20772 -0.04101,1.81446 0.0718,0.41056 0.116961,0.80292 -0.103516,1.17773 -0.121603,0.13029 -0.24912,0.17838 -0.425781,0.18946 -0.03429,7.2e-4 -0.03336,0.002 -0.06836,0.002 -0.05314,0.002 -0.05234,0.002 -0.07031,0.0195 0.159961,0.19801 0.335967,0.27822 0.585938,0.31641 0.225207,0.0121 0.452916,-0.0812 0.623046,-0.22657 0.26751,-0.26237 0.364411,-0.58451 0.375,-0.95312 0.0022,-0.3077 -0.04485,-0.61373 -0.08594,-0.91797 -0.062,-0.46601 -0.08496,-0.91391 0.171875,-1.32813 0.190023,-0.23679 0.422717,-0.40301 0.681641,-0.51953 l 0.36914,-0.36914 c -0.113983,-0.0161 -0.2297,-0.0257 -0.349609,-0.0273 -0.02961,-0.001 -0.05934,-9.5e-4 -0.08984,-0.002 -0.026,-6.3e-4 -0.05082,-0.002 -0.07617,-0.002 z m 2.044922,1.53516 -0.4375,0.4375 c -0.115869,0.25873 -0.283233,0.49027 -0.525391,0.65039 -0.309064,0.17265 -0.603148,0.21726 -0.951171,0.2207 -0.02727,6.9e-4 -0.05588,9.6e-4 -0.08399,0.002 -0.144949,0.002 -0.277745,-0.0111 -0.419922,-0.0391 -0.0639,0.0822 -0.05653,0.143 -0.04687,0.24414 0.01358,0.18687 -0.0018,0.36119 -0.02539,0.54688 0.420803,0.19908 1.012371,0.25417 1.457031,0.11719 0.403529,-0.14465 0.702061,-0.35629 0.898437,-0.7461 0.09874,-0.22904 0.168804,-0.46891 0.179688,-0.71875 0.0016,-0.0322 0.0022,-0.0644 0.0039,-0.0976 0.0069,-0.20316 -0.0072,-0.41392 -0.04883,-0.61719 z m -3.820312,1.0918 c -0.231668,0.0726 -0.377979,0.20011 -0.498047,0.41601 -0.06346,0.16445 -0.05123,0.34036 0.0039,0.50586 0.02808,0.0483 0.0285,0.05 0.06445,0.0859 0.04026,-0.059 0.07539,-0.11562 0.107422,-0.17969 0.08742,-0.10639 0.161499,-0.14594 0.291016,-0.17969 0.04978,-0.0183 0.04921,-0.0179 0.121093,-0.0898 7.99e-4,-0.0668 -0.002,-0.12751 -0.0098,-0.19336 -0.0024,-0.0258 -0.0015,-0.0245 -0.0039,-0.0508 -0.01152,-0.11047 -0.03752,-0.21051 -0.07617,-0.31445 z" /></g><path
         d="m -96.618287,-150.41257 c 0.206424,0.0413 0.355043,0.10584 0.5446,0.19543 1.119074,0.50147 2.258441,0.63763 3.457834,0.38825 0.01234,0.0833 0.02438,0.16677 0.03651,0.25016 0.0076,0.0534 0.0157,0.107 0.02378,0.16221 0.01493,0.11047 0.02792,0.22124 0.03846,0.33223 0.08046,0.81758 0.379115,1.58995 0.903052,2.22449 0.680365,0.8242 0.680365,0.8242 0.678965,1.26526 -0.03434,0.28971 -0.03434,0.28971 -0.09641,0.35179 -0.336506,-0.32459 -0.671324,-0.65083 -1.00459,-0.97871 -0.154733,-0.15235 -0.310021,-0.30407 -0.466516,-0.45461 -0.151402,-0.14543 -0.300973,-0.2926 -0.450003,-0.44046 -0.08426,-0.083 -0.169629,-0.16485 -0.255614,-0.24606 -0.307213,-0.30698 -0.471594,-0.52312 -0.505955,-0.96336 -0.01509,-0.13322 -0.01509,-0.13322 -0.122013,-0.20576 -0.172833,-0.0702 -0.337475,-0.0686 -0.522974,-0.0749 -0.07169,-0.002 -0.143279,-0.006 -0.217095,-0.008 -0.05474,-0.001 -0.109487,-0.002 -0.16595,-0.006 -0.04841,0.47935 -0.04841,0.47935 -0.04167,0.95893 0.146291,0.11677 0.271631,0.13805 0.453842,0.15931 0.402923,0.0886 0.638016,0.38043 0.914992,0.66851 0.0571,0.0578 0.114367,0.11568 0.171837,0.17303 0.149664,0.15085 0.29749,0.30345 0.445349,0.45608 0.151333,0.15609 0.304454,0.31042 0.456995,0.46535 0.298491,0.30326 0.595753,0.60768 0.892373,0.91276 -0.08511,0.007 -0.170234,0.0141 -0.255369,0.0209 -0.0474,0.005 -0.09483,0.007 -0.143643,0.0116 -0.286481,0.0183 -0.408522,0.0218 -0.634498,-0.16776 -0.04571,-0.0373 -0.09141,-0.0748 -0.138526,-0.11337 -0.04833,-0.04 -0.09665,-0.0801 -0.146452,-0.12158 -0.927609,-0.7442 -1.931567,-1.19357 -3.142531,-1.1726 -0.08317,-0.20149 -0.083,-0.33371 -0.04689,-0.54721 0.151536,-1.10283 -0.05264,-2.07273 -0.495084,-3.07999 -0.05651,-0.1386 -0.111701,-0.27771 -0.166776,-0.41692 z"
         id="path4-3"
         style="stroke-width:1" /><path
         d="m -75.618287,-129.60774 c -0.206424,-0.0413 -0.355043,-0.10584 -0.5446,-0.19543 -1.119074,-0.50147 -2.258441,-0.63763 -3.457834,-0.38825 -0.01234,-0.0833 -0.02438,-0.16677 -0.03651,-0.25016 -0.0076,-0.0534 -0.0157,-0.107 -0.02378,-0.16221 -0.01493,-0.11047 -0.02792,-0.22124 -0.03846,-0.33223 -0.08046,-0.81758 -0.379115,-1.58995 -0.903052,-2.22449 -0.680365,-0.8242 -0.680365,-0.8242 -0.678965,-1.26526 0.03434,-0.28971 0.03434,-0.28971 0.09641,-0.35179 0.336506,0.32459 0.671324,0.65083 1.00459,0.97871 0.154733,0.15235 0.310021,0.30407 0.466516,0.45461 0.151402,0.14543 0.300973,0.2926 0.450003,0.44046 0.08426,0.083 0.169629,0.16485 0.255614,0.24606 0.307213,0.30698 0.471594,0.52312 0.505955,0.96336 0.01509,0.13322 0.01509,0.13322 0.122013,0.20576 0.172833,0.0702 0.337475,0.0686 0.522974,0.0749 0.07169,0.002 0.143279,0.006 0.217095,0.008 0.05474,0.001 0.109487,0.002 0.16595,0.006 0.04841,-0.47935 0.04841,-0.47935 0.04167,-0.95893 -0.146291,-0.11677 -0.271631,-0.13805 -0.453842,-0.15931 -0.402923,-0.0886 -0.638016,-0.38043 -0.914992,-0.66851 -0.0571,-0.0578 -0.114367,-0.11568 -0.171837,-0.17303 -0.149664,-0.15085 -0.29749,-0.30345 -0.445349,-0.45608 -0.151333,-0.15609 -0.304454,-0.31042 -0.456995,-0.46535 -0.298491,-0.30326 -0.595753,-0.60768 -0.892373,-0.91276 0.08511,-0.007 0.170234,-0.0141 0.255369,-0.0209 0.0474,-0.005 0.09483,-0.007 0.143643,-0.0116 0.286481,-0.0183 0.408522,-0.0218 0.634498,0.16776 0.04571,0.0373 0.09141,0.0748 0.138526,0.11337 0.04833,0.04 0.09665,0.0801 0.146452,0.12158 0.927609,0.7442 1.931567,1.19357 3.142531,1.1726 0.08317,0.20149 0.083,0.33371 0.04689,0.54721 -0.151536,1.10283 0.05264,2.07273 0.495084,3.07999 0.05651,0.1386 0.111701,0.27771 0.166776,0.41692 z"
         id="path4-3-7"
         style="stroke-width:1" /></g></g></svg>
