<?xml version="1.0" encoding="UTF-8"?>
<svg id="svg8" version="1.1" viewBox="0 0 6.35 6.35" xmlns="http://www.w3.org/2000/svg" xmlns:cc="http://creativecommons.org/ns#" xmlns:dc="http://purl.org/dc/elements/1.1/" xmlns:rdf="http://www.w3.org/1999/02/22-rdf-syntax-ns#">
 <defs id="defs2">
  <clipPath id="clipPath167">
   <path id="path165" d="m0 2020h2020v-2020h-2020z"/>
  </clipPath>
 </defs>
 <metadata id="metadata5">
  <rdf:RDF>
   <cc:Work rdf:about="">
    <dc:format>image/svg+xml</dc:format>
    <dc:type rdf:resource="http://purl.org/dc/dcmitype/StillImage"/>
   </cc:Work>
  </rdf:RDF>
 </metadata>
 <g id="layer1" transform="translate(102.06 153.95)">
  <g id="g161" transform="matrix(.0044733 0 0 -.0044733 -103.4 -146.26)" stroke-width="78.863">
   <g id="g163" clip-path="url(#clipPath167)" stroke-width="78.863">
    <g id="g169" transform="translate(1628.3 1577.8)" stroke-width="78.863">
     <path id="path171" d="m0 0-293.13-489.66 19.721 74.431s-52.101 115.37-219.57 250.58l-31.013 4.962v-279.12l-29.772 26.05v269.19l23.57 9.924-88.077 54.583-88.077-54.583 23.57-9.924v-269.19l-29.772-26.05v279.12l-31.013-4.962c-167.47-135.22-219.57-250.58-219.57-250.58l19.721-74.431-293.13 489.66c-2.47-49.744-4.162-116.65-1.199-186.34l149.69-202.19c-2.808-2.259-1.572-1.265-4.38-3.523l-142.94 158.87c3.633-51.195 10.156-97.269 21.115-142.6l134.92-124.23c-2.252-2.739-1.315-1.6-3.567-4.339l-119.92 82.79c13.743-43.394 32.544-81.968 56.453-124.64 5.387-7.939 8.743-12.515 8.743-12.515l107.85-64.198c-1.539-3.11-0.948-1.917-2.487-5.028l-85.931 29.506c39.968-58.624 95.771-116.52 157.55-166.62v-98.686c0-16.432-4.232-32.587-12.288-46.908l-21.206-37.7 306.41-187.32 14.887 500.87h-136.46c-65.748 45.899-71.95 111.65-71.95 111.65h191.04c-7.772 12.718-4.755 29.244 7.011 38.395l5.394 4.195 59.545-98.827 59.545 98.827 5.395-4.195c11.765-9.151 14.782-25.677 7.01-38.395h191.04s-6.202-65.748-71.949-111.65h-136.46l14.886-500.87 306.41 187.32-21.206 37.7c-8.056 14.321-12.288 30.476-12.288 46.908v98.686c61.775 50.099 117.58 108 157.55 166.62l-85.931-29.506c-1.538 3.111-0.948 1.918-2.487 5.028l107.85 64.198s3.356 4.576 8.743 12.515c23.909 42.672 42.71 81.246 56.453 124.64l-119.92-82.79c-2.252 2.739-1.315 1.6-3.567 4.339l134.92 124.23c10.959 45.328 17.482 91.402 21.116 142.6l-142.94-158.87c-2.808 2.258-1.572 1.264-4.38 3.523l149.69 202.19c2.963 69.688 1.271 136.6-1.199 186.34"/>
    </g>
   </g>
  </g>
 </g>
</svg>
