<?xml version="1.0" encoding="UTF-8"?>
<svg id="svg2" width="24" height="24" version="1.1" viewBox="0 0 24 24" xmlns="http://www.w3.org/2000/svg">
 <g id="g2" transform="matrix(.074888 0 0 .074888 .7659 3.313)" stroke-width="13.353">
  <path id="path1" transform="translate(55)" d="m0 0c0.31638 0.95552 0.63277 1.911 0.95874 2.8955 8.763 26.552 8.763 26.552 20.041 52.104 0.4046 0.8134 0.80921 1.6268 1.2261 2.4648 6.9688 13.911 14.749 26.579 24.774 38.535 0.61746 0.78762 1.2349 1.5752 1.8711 2.3867 6.4242 7.7766 14.384 13.208 22.625 18.883 2.5992 1.7964 5.1772 3.6207 7.7539 5.4492 1.7076 1.199 3.4159 2.397 5.125 3.5938 0.80228 0.56952 1.6046 1.139 2.4312 1.7258 0.75233 0.51973 1.5047 1.0395 2.2798 1.575 0.66048 0.46189 1.321 0.92378 2.0015 1.3997 2.1463 1.2928 2.1463 1.2928 5.9126 0.98706 2.4896-1.3418 2.4896-1.3418 5.0352-3.2188 1.4628-1.0287 1.4628-1.0287 2.9551-2.0781 1.5208-1.0906 1.5208-1.0906 3.0723-2.2031 0.98678-0.69609 1.9736-1.3922 2.9902-2.1094 43.678-30.892 62.92-72.099 78.947-122.39 5.494 2.5785 7.7098 6.8038 9.9492 12.352 6.8626 20.019 3.5814 42.315-3.9492 61.648 5.1891-5.6747 9.7472-11.621 14.125-17.938 0.59426-0.8424 1.1885-1.6848 1.8008-2.5527 3.7179-5.3306 7.0416-10.762 10.074-16.51 0.99 0.33 1.98 0.66 3 1 5.2336 18.598 1.7534 37.012-7.2085 53.768-4.0571 7.1516-9.209 13.233-14.792 19.232 2.9064-0.60451 5.0546-1.4785 7.5469-3.082 0.67257-0.43184 1.3451-0.86367 2.0381-1.3086 1.0717-0.70383 1.0717-0.70383 2.165-1.4219 0.74282-0.4834 1.4856-0.9668 2.251-1.4648 6.0916-4.0148 11.952-8.3002 17.732-12.749 3.3204-2.5525 6.6098-4.9077 10.267-6.9734 1.6002 14.793-5.1415 28.278-14.027 39.578-11.108 13.097-25.712 21.35-41.973 26.422 13.436 2.6808 25.637-1.1559 37.305-7.5742 2.6953-1.4258 2.6953-1.4258 4.6953-1.4258-2.2646 11.575-11.444 21.143-20.668 27.977-11.073 7.3402-22.528 10.231-35.332 13.023 7.3906 0.14716 14.644-0.29223 22-1-3.7041 8.8021-13.027 13.959-21.238 17.906-7.4641 2.9561-15.311 3.1503-22.762 0.09375-0.24879 0.58008-0.49758 1.1602-0.75391 1.7578-4.2834 7.7075-13.791 13.273-20.746 18.43-0.78238 0.58185-1.5648 1.1637-2.3708 1.7632-15.107 11.049-15.107 11.049-19.129 11.049 1.4832-4.207 3.6501-7.7221 6.1484-11.383 0.61317-0.91124 0.61317-0.91124 1.2387-1.8409 0.8735-1.2977 1.7489-2.5941 2.6261-3.8893 2.2922-3.3869 4.5668-6.7856 6.8422-10.184 0.44872-0.66965 0.89744-1.3393 1.3598-2.0293 7.3037-10.914 14.343-21.986 20.91-33.361 0.55047-0.93562 0.55047-0.93562 1.1121-1.8901 4.8431-8.5834 5.3499-17.801 6.1956-27.423 0.19288-2.1925 0.39497-4.384 0.59863-6.5754 0.78327-8.1972 0.78327-8.1972 0.96875-16.424-0.32424 1.587-0.32424 1.587-0.65503 3.206-0.81725 3.9836-1.6505 7.9636-2.4883 11.943-0.35811 1.7117-0.71207 3.4242-1.0615 5.1377-5.9754 29.253-21.855 51.142-40.795 73.713-1.5222 1.8739-3.043 3.7489-4.5625 5.625-4.0148 4.9125-8.1777 9.6741-12.438 14.375-8.8713-3.6764-15.227-14.623-21-22-1.0634-1.3336-2.1273-2.6669-3.1914-4-8.1751-10.299-15.923-20.788-22.809-32-0.59168-0.96075-0.59168-0.96075-1.1953-1.9409-7.2456-12.113-9.967-25.361-12.805-39.059-0.17934-0.85336-0.35868-1.7067-0.54346-2.5859-0.86362-4.1303-1.6764-8.2671-2.4565-12.414 0.53431 8.2062 1.1128 16.408 1.7441 24.607 0.1495 1.9823 0.29217 3.9652 0.41797 5.9492 0.68288 10.718 4.3212 18.495 9.8379 27.443 0.38317 0.63664 0.76635 1.2733 1.1611 1.9292 5.3787 8.9153 11.157 17.569 16.948 26.219 0.81326 1.2157 0.81326 1.2157 1.6429 2.456 2.7662 4.1328 5.5389 8.2611 8.3219 12.383 1.0326 1.5368 2.0652 3.0737 3.0977 4.6106 0.48692 0.71687 0.97385 1.4337 1.4755 2.1723 3.3526 5.0037 3.3526 5.0037 3.3526 7.23-5.5793-1.4627-9.5906-4.2274-14.188-7.5625-0.74959-0.53722-1.4992-1.0744-2.2715-1.6279-6.0513-4.3733-11.878-8.9411-17.541-13.81-1.3206-1.1196-1.3206-1.1196-2.668-2.2617-4.7052-4.0633-4.7052-4.0633-6.332-5.7383v-2c-0.80438 0.33-1.6088 0.66-2.4375 1-8.9263 2.5056-17.242 0.80871-25.359-3.4766-6.1075-3.6948-11.709-7.9223-16.203-13.523v-2c0.75023 0.0722 1.5005 0.14437 2.2734 0.21875 1.0235 0.0928 2.047 0.18562 3.1016 0.28125 0.99773 0.0928 1.9955 0.18562 3.0234 0.28125 4.5385 0.27566 9.0564 0.25963 13.602 0.21875-1.922-0.41959-1.922-0.41959-3.8828-0.84766-19.289-4.3884-35.292-11.525-46.938-28.234-5.1797-8.4213-5.1797-8.4213-5.1797-11.918 2.5067 0.96617 4.9353 1.9672 7.332 3.1836 10.642 5.3795 22.821 8.1802 34.668 5.8164-0.78762-0.27973-1.5752-0.55945-2.3867-0.84766-20.078-7.3898-39.231-19.033-48.613-39.152-3.3685-8.4236-5.9921-16.828-5-26 3.4791 2.2528 6.8384 4.6011 10.145 7.1016 10.243 7.7432 20.632 14.661 31.855 20.898-0.56074-0.69352-1.1215-1.387-1.6992-2.1016-14.996-18.891-24.025-37.23-22.301-61.898 0.46126-3.4063 1.069-6.6916 2-10l3-1c0.7309 1.2936 0.7309 1.2936 1.4766 2.6133 4.526 7.8488 9.4572 15.281 14.836 22.574 0.59829 0.81316 1.1966 1.6263 1.813 2.4641 2.7574 3.6953 5.4609 7.2214 8.8745 10.348-0.32613-0.69223-0.65227-1.3845-0.98828-2.0977-5.489-12.29-7.2668-23.82-7.3867-37.152-0.02091-1.4903-0.02091-1.4903-0.04224-3.0107 0.056969-8.9162 1.7779-17.279 5.9172-25.239 0.40219-0.79406 0.80438-1.5881 1.2188-2.4062 3.1171-5.0938 3.1171-5.0938 6.2812-5.0938zm52 128c-1.0966 14.012 0.64029 23.08 8 35 0.79214 1.3518 1.5825 2.7047 2.3711 4.0586 5.0822 8.5624 10.819 16.493 17.16 24.162 1.0266 1.2432 2.0459 2.4924 3.0596 3.7461 1.6025 1.9807 3.2218 3.9463 4.8472 5.9082 0.49613 0.61375 0.99226 1.2275 1.5034 1.8599 1.5611 1.9048 1.5611 1.9048 4.0591 4.2651 3.9916 0.43913 3.9916 0.43913 6.2266-1.9492 0.79149-0.90363 1.583-1.8073 2.3984-2.7383 0.43313-0.49403 0.86625-0.98807 1.3125-1.4971 12.925-14.933 23.904-31.327 33.062-48.815 0.40992-0.77473 0.81984-1.5494 1.2422-2.3477 1.18-4.13 0.96559-8.1955 0.88281-12.465-9e-3 -0.88365-0.018-1.7673-0.0273-2.6777-0.0235-2.17-0.0593-4.3399-0.0977-6.5098-5.92 3.1214-11.527 6.5932-17.125 10.25-2.2214 1.4418-4.444 2.8817-6.6675 4.3203-1.4513 0.93995-2.9009 1.8826-4.3486 2.8281-2.0047 1.3017-4.0229 2.5793-6.0464 3.8516-0.8984 0.59216-0.8984 0.59216-1.8149 1.1963-2.7801 1.7204-4.5378 2.5861-7.8362 2.3538-3.5077-0.8877-5.949-2.1992-9.0129-4.1165-1.0996-0.68255-2.1991-1.3651-3.332-2.0684-1.1472-0.72583-2.2943-1.4517-3.4414-2.1777-1.1125-0.69158-2.2249-1.3832-3.3711-2.0957-6.6745-4.1687-13.241-8.4684-19.751-12.888-1.9457-1.5437-1.9457-1.5437-3.2524-1.4534z"/>
  <path id="path2" transform="translate(154,12)" d="m0 0c2.5703 1.6797 2.5703 1.6797 5.125 3.875 0.95133 0.81211 1.9027 1.6242 2.8828 2.4609 3.5461 3.1322 7.024 6.3384 10.493 9.5559 9.5644 10.062 9.5644 10.062 21.496 15.175 5.8997-0.78758 11.568-2.0923 17.316-3.6292 1.7449-0.46404 3.491-0.92384 5.2383-1.3789 0.75966-0.20311 1.5193-0.40622 2.302-0.61548 2.1472-0.44312 2.1472-0.44312 6.1472-0.44312-0.59538 4.7412-1.9507 8.8448-3.875 13.188-0.45693 1.0317-0.45693 1.0317-0.9231 2.0842-6.9862 15.318-16.27 29.191-26.202 42.728-1.5187-3.952-0.45545-6.9021 0.65234-10.883 0.17898-0.65548 0.35797-1.311 0.54237-1.9863 0.57184-2.0879 1.1567-4.1719 1.7428-6.2559 0.57997-2.0917 1.1572-4.1842 1.7321-6.2773 0.52168-1.8948 1.0508-3.7876 1.5802-5.6802 0.83326-2.7382 0.83326-2.7382 0.75024-4.9175l-1.6875 0.875-2.3125 1.125-2.25 1.125c-3.6678 1.167-6.9791 1.6288-10.75 0.875-2.623-1.459-4.6586-3.363-6.8125-5.4375-1.2138-1.1053-2.4287-2.2095-3.6445-3.3125-0.59506-0.55043-1.1901-1.1009-1.8032-1.668-3.3445-3.0414-6.8876-5.8333-10.408-8.668-1.9512-1.6015-3.7931-3.2638-5.6445-4.9766-3.3508-2.4157-4.6219-2.5057-8.6875-1.9375-2.4225 1.699-4.4218 3.3128-6.5625 5.3125-1.2273 1.0996-2.4552 2.1985-3.6836 3.2969-0.61988 0.56268-1.2398 1.1254-1.8784 1.7051-2.9457 2.6474-5.9711 5.1974-9.0005 7.748-0.53182 0.45222-1.0636 0.90444-1.6116 1.3704-1.4133 1.1983-2.8379 2.3833-4.2634 3.5671-1.0577 0.88172-1.0577 0.88172-2.1367 1.7812-3.1192 2.0403-6.3238 1.8056-9.8633 1.2188-3.1199-1.1173-6.0597-2.4754-9-4 0.58024 2.5216 1.1636 5.0423 1.75 7.5625 0.17684 0.76272 0.35369 1.5254 0.53589 2.3113 0.90092 3.8391 1.8405 7.6572 2.9055 11.454 0.28182 1.0082 0.28182 1.0082 0.56934 2.0369 0.52583 1.856 1.0639 3.7085 1.6025 5.5608 0.60185 2.9059 0.67996 4.3483-0.36328 7.0742-31-42.002-31-42.002-31-58 7.1057 0.70728 13.722 2.4063 20.578 4.3594 5.5837 1.4901 9.7621 2.024 15.422 0.64062 2.6531-1.677 2.6531-1.677 4.8125-4 3.4141-3.3047 6.846-6.4125 10.562-9.375 4.7174-3.8048 9.1814-7.8161 13.566-11.996 4.8332-4.5428 7.4041-6.5091 14.059-4.6294z"/>
 </g>
</svg>
