<?xml version="1.0" encoding="UTF-8" standalone="no"?>
<svg
   version="1.0"
   width="24"
   height="24"
   viewBox="0 0 18 18"
   preserveAspectRatio="xMidYMid"
   id="svg1"
   sodipodi:docname="027-03-003.bard-symbol.svg"
   xml:space="preserve"
   inkscape:version="1.3.2 (091e20e, 2023-11-25, custom)"
   xmlns:inkscape="http://www.inkscape.org/namespaces/inkscape"
   xmlns:sodipodi="http://sodipodi.sourceforge.net/DTD/sodipodi-0.dtd"
   xmlns="http://www.w3.org/2000/svg"
   xmlns:svg="http://www.w3.org/2000/svg"><defs
     id="defs1" /><sodipodi:namedview
     id="namedview1"
     pagecolor="#ffffff"
     bordercolor="#111111"
     borderopacity="1"
     inkscape:showpageshadow="0"
     inkscape:pageopacity="0"
     inkscape:pagecheckerboard="1"
     inkscape:deskcolor="#d1d1d1"
     inkscape:document-units="pt"
     inkscape:zoom="10.38"
     inkscape:cx="3.6608863"
     inkscape:cy="13.150289"
     inkscape:window-width="1366"
     inkscape:window-height="697"
     inkscape:window-x="-8"
     inkscape:window-y="-8"
     inkscape:window-maximized="1"
     inkscape:current-layer="svg1" /><g
     transform="matrix(0.1,0,0,-0.1,0,300)"
     fill="#000000"
     stroke="none"
     id="g1" /><path
     d="m 8.6986001,0.8075544 c -0.193915,0.03497 -0.445794,0.09204 -0.568913,0.260842 -0.219868,0.301443 0.149701,0.884246 0.405364,1.050597 0.190033,0.123649 0.550246,0.124708 0.766331,0.07044 0.345088,-0.08666 0.8197419,-0.77715 0.568914,-1.12104 -0.226115,-0.310007 -0.834043,-0.321743 -1.171696,-0.260842 m -6.411407,2.49527 c 0.157439,-0.869227 1.369882,-0.919035 1.752025,-0.164185 0.09642,0.190457 0.05632,0.450621 0.05632,0.65737 0,0.251792 0.05523,0.58259 -0.03307,0.821975 -0.140229,0.380189 -0.643325,0.664375 -0.953305,0.897239 -0.180953,0.135935 -0.472797,0.454715 -0.712379,0.454792 -0.321807,1.03e-4 -0.718387,-0.526827 -0.986371,-0.694451 l 0.155094,4.00028 0.08833,1.2603196 0.852546,0.84392 1.589152,1.271356 3.223801,2.620723 1.653252,1.949443 h 0.0548 l 1.6532529,-1.949443 3.223801,-2.620723 1.589152,-1.271356 0.852546,-0.84392 0.08833,-1.2603196 0.155091,-4.00028 c -0.267981,0.167623 -0.664563,0.694554 -0.98637,0.694451 -0.239581,-7.7e-5 -0.531428,-0.318858 -0.712379,-0.454792 -0.30998,-0.232864 -0.813076,-0.517051 -0.953305,-0.897239 -0.0883,-0.239386 -0.03307,-0.570181 -0.03307,-0.821975 0,-0.206751 -0.0401,-0.466912 0.05632,-0.65737 0.382145,-0.754854 1.594583,-0.705037 1.752025,0.164185 -0.393074,-0.31485 -0.986604,-0.355924 -1.250552,0.164606 -0.09166,0.180763 -0.06468,0.406431 -0.06461,0.602571 5.8e-5,0.149185 -0.02669,0.339601 0.05632,0.472424 0.08219,0.131514 0.253546,0.206894 0.382066,0.283759 0.184757,0.110497 0.43173,0.302821 0.657581,0.295429 0.328489,-0.01075 0.943963,-0.558786 1.095248,-0.834576 0.164115,-0.299179 0.161321,-0.76066 0.231456,-1.09381 0.02979,-0.141533 0.08558,-0.295747 0.03302,-0.438387 -0.154814,-0.420185 -0.679292,-0.783612 -1.030936,-1.029752 -0.30721,-0.215038 -0.652155,-0.436326 -1.041169,-0.358134 -0.726956,0.14612 -1.791809,0.700278 -2.135613,1.387886 -0.261619,0.523237 0.254617,1.505 -0.604304,1.683485 -0.141009,0.0293 -0.295165,0.01525 -0.438387,0.01527 l -0.0015,-1.023156 -0.93005,-0.511198 0.0548,1.534354 H 9.6849731 l 0.0548,-1.808346 h -1.479556 l 0.0548,1.808346 h -1.041168 l 0.0548,-1.534354 -0.93005,0.511198 -0.0015,1.023156 c -0.143224,-1.6e-5 -0.297373,0.01404 -0.438386,-0.01527 -0.858922,-0.178485 -0.342687,-1.160249 -0.604305,-1.683485 -0.343803,-0.687606 -1.408656,-1.241766 -2.135613,-1.387886 -0.389011,-0.07819 -0.73396,0.143096 -1.041169,0.358134 -0.351641,0.24614 -0.876123,0.609568 -1.030936,1.029752 -0.05255,0.142638 0.0032,0.296854 0.03302,0.438387 0.07013,0.333149 0.06734,0.794634 0.231455,1.09381 0.151286,0.275791 0.766759,0.823825 1.095248,0.834576 0.225848,0.0074 0.472826,-0.184933 0.657581,-0.295429 0.128522,-0.07687 0.299872,-0.152245 0.382066,-0.283759 0.08301,-0.132822 0.05626,-0.323241 0.05632,-0.472424 7.6e-5,-0.196139 0.02705,-0.42181 -0.06461,-0.602571 -0.263949,-0.520532 -0.85748,-0.479455 -1.250553,-0.164606 m 4.493423,-1.727883 c -0.302716,0.05544 -0.676344,0.249498 -0.748869,0.577117 -0.0532,0.24032 0.122776,0.729848 0.420966,0.712083 0.324823,-0.01935 0.679037,-0.289115 0.740666,-0.602696 0.07174,-0.365027 0.05483,-0.772135 -0.412763,-0.686504 m 4.0957959,0.0307 c -0.106052,0.08498 -0.09579,0.26076 -0.09446,0.382025 0.0044,0.405739 0.129686,0.602301 0.492212,0.772842 0.133918,0.063 0.283009,0.154162 0.426675,0.06495 0.574427,-0.356717 0.168615,-1.051271 -0.31712,-1.209072 -0.138905,-0.04513 -0.378307,-0.114107 -0.507308,-0.01074 m -3.7669639,10.0265336 0.114502,-1.6439496 0.04989,-4.767457 c 0.234663,0 0.880756,-0.112751 1.039646,0.08786 0.09894,0.124921 0.05564,0.366923 0.05636,0.514918 0.0018,0.36657 0.05461,0.727739 0.05476,1.095967 2.54e-4,0.656856 0.07873,1.31699 0.10744,1.972741 0.02876,0.656809 0.01695,1.3169146 0.06186,1.9727396 0.03869,0.564942 0.0359,1.136451 0.109807,1.698749 0.01892,0.14396 0.112364,0.492839 0.318643,0.458599 0.181678,-0.03016 0.254389,-0.310096 0.273908,-0.458599 0.06476,-0.492705 0.01883,-0.989555 0.08317,-1.479555 0.09449,-0.719672 0.05675,-1.4668926 0.0885,-2.1919336 0.0279,-0.637213 0.106414,-1.279828 0.10744,-1.917943 6.16e-4,-0.386387 0.05288,-0.766239 0.05476,-1.150765 7.27e-4,-0.147994 -0.04257,-0.389997 0.05636,-0.514918 0.158888,-0.200613 0.8049839,-0.08786 1.0396459,-0.08786 l 0.04989,4.712658 0.114502,1.6987486 c 0.433596,-0.327402 0.377824,-0.979922 0.3838,-1.479555 0.01354,-1.1318786 0.167308,-2.2666776 0.216826,-3.3974976 0.01516,-0.346191 0.05192,-0.695743 0.05674,-1.041169 0.0018,-0.133115 -0.0315,-0.342226 0.08808,-0.436864 0.537078,-0.425046 0.958194,0.554492 1.228312,0.797155 0.480447,0.431617 1.197471,0.865656 1.501965,1.448055 0.114178,0.218386 0.08617,0.473937 0.08617,0.712379 0,0.459172 0.06365,0.972226 -0.01805,1.424757 -0.05451,0.30192 -0.267426,0.5035306 -0.475172,0.7123776 l -0.931528,0.931572 c -1.300734,1.300734 -2.614904,2.571712 -4.0002799,3.781086 -0.692965,-0.433371 -1.281126,-1.075387 -1.863144,-1.643146 -0.74887,-0.730525 -1.50609,-1.452095 -2.246733,-2.192738 -0.421306,-0.421295 -1.240907,-0.974326 -1.351918,-1.5891556 -0.08171,-0.452528 -0.01806,-0.965586 -0.01806,-1.424757 0,-0.238439 -0.028,-0.493994 0.08617,-0.712378 0.304495,-0.582401 1.021516,-1.016437 1.501965,-1.448055 0.31993,-0.287413 0.588602,-1.114634 1.189158,-0.820411 0.162129,0.07943 0.125158,0.311777 0.127229,0.46012 0.005,0.36095 0.03478,0.735094 0.05949,1.095967 0.07588,1.108156 0.200793,2.232036 0.214077,3.3426996 0.006,0.499633 -0.0498,1.152152 0.3838,1.479555 z"
     id="path1"
     style="stroke-width:0.999999" /></svg>
