<?xml version="1.0" encoding="UTF-8"?>
<svg id="svg1" width="24" height="24" preserveAspectRatio="xMidYMid" version="1.0" viewBox="0 0 18 18" xml:space="preserve" xmlns="http://www.w3.org/2000/svg"><path id="path1" d="m9.0831 0.75c-0.19534 0.27492-0.44184 0.51757-0.59492 0.82373-0.17021 0.34043-0.28857 0.90488-0.10068 1.2631 0.16085 0.30662 0.7523 0.0089 0.91526-0.16475 0.17663-0.18821 0.04593-0.34042-0.0092-0.54915-0.10908-0.41335 0.08198-1.0342-0.21051-1.3729m-2.9654 1.0434c-0.57697 0.57697-0.86412 1.1615-0.7139 1.977 0.29948 0 0.91138-0.0949 0.93356-0.49424 0.01185-0.21332-0.1068-0.44059-0.10983-0.65898-0.0034-0.24806 0.0864-0.66384-0.10983-0.82373m5.2719 0.10983c0.0097 0.37001 0.14722 0.72972 0.18305 1.0983 0.01312 0.13499-0.04371 0.26755 0.04576 0.38441 0.18451 0.241 0.54724 0.21966 0.81458 0.21966 0-0.66022-0.34838-1.5012-1.0434-1.7024m-2.4712 1.2814c-0.42795 0.10104-0.62262 0.47668-0.75051 0.86034-0.26397 0.7919-0.24042 1.6608 0.13729 2.4163 0.214 0.42799 0.57101 0.87717 1.1075 0.75051 0.40647-0.09597 0.62523-0.45068 0.77797-0.80542 0.11674-0.27114 0.12768-0.53661 0.15559-0.82373 0.08835-0.90869-0.07792-2.7167-1.4278-2.398m2.9654 0.7139c-0.5985 0.05819-0.85067 0.62029-0.97932 1.1349-0.26534 1.0614-0.15245 2.9142 1.3637 2.7458 0.40948-0.0455 0.64564-0.40222 0.7322-0.76882 0.17331-0.73402 0.0021-1.7294-0.27458-2.4163-0.1435-0.35628-0.4028-0.7383-0.84204-0.69559m-5.7112 0.05492c-1.2724 0.30042-1.5236 2.0787-1.1075 3.1119 0.1788 0.44391 0.5847 1.1053 1.1624 1.0251 0.34719-0.04822 0.66894-0.3171 0.86949-0.58576 0.51941-0.69581 0.61854-1.6445 0.41187-2.4712-0.16061-0.64251-0.58878-1.2565-1.3363-1.08m-2.3614 0.47593c-0.15306 0.16618-0.28359 0.35122-0.39356 0.54915-0.13994 0.2519-0.15954 0.48494-0.15559 0.76882 0.0013 0.09389-0.0129 0.23608 0.07322 0.30204 0.19818 0.1518 0.69838-0.15353 0.74136-0.35695 0.02305-0.1091-0.0582-0.22706-0.08238-0.32949-0.03804-0.16112-0.02318-0.33105-0.05492-0.49424-0.03377-0.17374-2.2e-4 -0.31698-0.12814-0.43932m10.214 0.65898c0 0.32435 0.03136 0.6659 0 0.98848-0.01037 0.10648-0.08115 0.22537-0.02746 0.32949 0.13439 0.26064 0.549 0.27458 0.79627 0.27458-0.04305-0.54534-0.2846-1.2882-0.76882-1.5925m-10.599 1.501c-0.31365 0.09584-0.50026 0.41196-0.62237 0.69559-0.25845 0.60027-0.37943 1.3139-0.10068 1.922 0.14553 0.31752 0.32704 0.81314 0.77797 0.75051 0.31576-0.04386 0.53284-0.28816 0.70475-0.53085 0.38621-0.54523 0.5679-1.4257 0.43017-2.0868-0.11252-0.54007-0.62055-0.92446-1.1898-0.75051m10.709 0.32949c-1.6278 0.38434-0.82759 3.653 0.82373 3.1485 0.34723-0.1061 0.48028-0.47049 0.49424-0.80543 0.02584-0.62019-0.15594-1.294-0.49424-1.8122-0.18071-0.27684-0.45654-0.61754-0.82373-0.53085m-6.5349 6.6814c-0.40569-0.25622-0.93062-0.57645-1.4278-0.60407-0.12809-0.0071-0.25705 0.04486-0.38441 0.05492v0.05492c0.55131 0.1741 1.0195 0.4397 1.4827 0.78712 0.14717 0.11037 0.44601 0.36997 0.64983 0.30203 0.14442-0.04814 0.13348-0.30511 0.16475-0.43017 0.10669-0.42676 0.29322-0.83427 0.5217-1.2081 0.53051-0.86811 1.5574-1.6817 2.5078-2.0319v-0.05492c-1.244 0-2.4463 0.80106-2.9105 1.977-0.9806-0.38708-0.73317-1.7437-0.10983-2.3064 1.3997-1.2636 3.6961-0.8415 4.7227 0.65898-0.33378 0.09662-0.67665 0.18241-0.93356 0.43932-0.61347 0.61347-0.76547 1.6756-1.5925 2.0776-0.59352 0.28852-1.3746-0.40834-1.7481 0.33864-0.30328 0.60655 0.26414 1.3041 0.60407 1.7573 0.20808 0.27744 0.441 0.56281 0.58576 0.87865 0.09016 0.19671 0.08736 0.43497 0.23796 0.60407 0.31462 0.35326 1.1465 0.37197 1.5834 0.32949 1.5263-0.14839 2.1749-1.5824 2.5993-2.8556 0.17864-0.53591 0.3661-1.0785 0.3661-1.6475 0-0.44889 0.021-0.88844-0.12814-1.318-0.16043-0.46204-0.48382-0.84633-0.80543-1.2081-0.49065-0.55198-1.0418-1.07-1.7024-1.4186-0.68209-0.35999-1.42-0.64755-2.1966-0.72305-1.7929-0.17431-3.452 0.67999-4.7776 1.8031-0.38293 0.32442-0.70834 0.6814-1.0434 1.0525-0.23598 0.26139-0.53487 0.53236-0.64068 0.87865-0.24161 0.79072 0.14489 1.9155 0.48508 2.6359 0.30725 0.65064 0.67877 1.246 1.1349 1.8122 0.22471 0.27895 0.39674 0.53253 0.72305 0.70475 0.93248 0.49214 2.6841 0.50266 2.9471-0.75966 0.03507-0.1684 0.03498-0.37763 0.0183-0.54915-0.01232-0.12672-0.05955-0.26763-0.10983-0.38441-0.49592-1.1518-1.735 0.12991-2.581-0.45763-0.50109-0.34798-0.84969-0.9418-1.2264-1.4095-0.1156-0.14351-0.39177-0.29912-0.25627-0.49424 0.63623-0.91617 2.3797-1.0715 3.057-0.10983 0.17558 0.24932 0.18305 0.532 0.18305 0.82373z"/></svg>
