<?xml version="1.0" encoding="UTF-8" standalone="no"?>
<svg
   version="1.1"
   width="24"
   height="24"
   id="svg1"
   sodipodi:docname="phb24-sorcerer.svg"
   inkscape:version="1.3.2 (091e20e, 2023-11-25, custom)"
   viewBox="0 0 24 24"
   xmlns:inkscape="http://www.inkscape.org/namespaces/inkscape"
   xmlns:sodipodi="http://sodipodi.sourceforge.net/DTD/sodipodi-0.dtd"
   xmlns="http://www.w3.org/2000/svg"
   xmlns:svg="http://www.w3.org/2000/svg">
  <defs
     id="defs1" />
  <sodipodi:namedview
     id="namedview1"
     pagecolor="#ffffff"
     bordercolor="#111111"
     borderopacity="1"
     inkscape:showpageshadow="0"
     inkscape:pageopacity="0"
     inkscape:pagecheckerboard="1"
     inkscape:deskcolor="#d1d1d1"
     inkscape:zoom="10.203957"
     inkscape:cx="0.78400954"
     inkscape:cy="16.170197"
     inkscape:window-width="1350"
     inkscape:window-height="720"
     inkscape:window-x="0"
     inkscape:window-y="0"
     inkscape:window-maximized="0"
     inkscape:current-layer="svg1"
     showgrid="false" />
  <path
     d="m 10.52707,1.5135726 c 0.994091,-0.0374 1.86118,-0.044598 2.660211,0.6342302 0.407971,0.41048 0.613661,0.8800401 0.626591,1.4588601 -0.0337,0.8561403 -0.389291,1.5148204 -0.834041,2.2252207 -0.233421,0.37332 -0.413921,0.67941 -0.35776,1.1286901 0.09362,0.21018 0.09362,0.21018 0.279329,0.3491702 0.340251,0.053999 0.474041,0.060202 0.755071,-0.1396702 0.22552,-0.3092801 0.3219,-0.62556 0.424731,-0.9888502 0.19833,-0.6882402 0.412249,-1.1685801 1.05487,-1.5251503 0.561659,-0.2842599 1.28368,-0.3289 1.88304,-0.1464899 0.14651,0.065 0.28453,0.1331999 0.42146,0.2163199 0,0.046102 0,0.0922 0,0.1396701 -0.108031,0.0713 -0.108031,0.0713 -0.218229,0.14403 -0.555902,0.3840801 -0.860522,1.0652801 -1.010132,1.7092804 -0.112648,0.6758801 0.01289,1.3309001 0.377261,1.9133203 0.24573,0.3383301 0.48123,0.5208302 0.890381,0.6285002 0.27736,0.00498 0.382258,-0.021801 0.58922,-0.20513 0.289249,-0.5922802 0.116458,-1.2181804 -0.06979,-1.8156704 -0.06589,-0.1415599 -0.133974,-0.2823301 -0.209503,-0.419 0,-0.046101 0,-0.0922 0,-0.1396602 1.030799,0.3108002 1.997681,0.9994501 2.514,1.9553304 0.212971,0.4609501 0.24125,0.9443002 0.0842,1.427661 -0.0945,0.2475 -0.1955,0.490949 -0.304471,0.73242 -0.168568,0.379311 -0.30157,0.70218 -0.149788,1.11588 0.06559,0.14378 0.137409,0.28203 0.212909,0.42084 0.04908,0.09372 0.09821,0.1875 0.147299,0.281239 0.07501,0.141491 0.150092,0.282932 0.225461,0.424222 0.470581,0.906021 0.502462,2.02978 0.20773,3.00444 -0.461341,1.170689 -1.376679,2.014039 -2.339962,2.781871 -0.482677,0.397061 -0.878377,0.856121 -1.269547,1.341021 -1.084661,1.323709 -2.283271,2.08256 -4.006691,2.29741 -1.486461,0.07438 -2.988072,0.104449 -4.3296718,-0.6285 -0.088801,-0.0462 -0.088801,-0.0462 -0.1794899,-0.09328 -0.8031243,-0.44456 -1.2546044,-1.089783 -1.7308345,-1.849523 -0.31653,-0.50466 -0.64736,-1.008578 -1.0925101,-1.409209 -0.0391,-0.0353 -0.0781,-0.0706 -0.1183901,-0.10693 -0.2064,-0.183841 -0.4152102,-0.36214 -0.6323202,-0.5333 -0.63192,-0.498841 -1.1057101,-0.99099 -1.2744501,-1.80394 -0.0452,-0.622991 0.065599,-1.205001 0.1923099,-1.812252 0.1600901,-0.85182 -0.0325,-1.51038 -0.4061801,-2.27736 -0.063401,-0.13391 -0.12682,-0.267849 -0.19013,-0.40181 -0.042,-0.08689 -0.042,-0.08689 -0.0849,-0.17556 -0.2372404,-0.51485 -0.2123404,-1.208821 -0.0944,-1.7595906 0.27189,-0.7354903 0.78502,-1.2680004 1.4910502,-1.6042603 0.0922,0 0.18436,0 0.2793301,0 -0.015901,0.072601 -0.0319,0.1451099 -0.0483,0.2198699 -0.2056401,0.9480401 -0.2056401,0.9480401 0.026499,1.87077 0.1786401,0.236581 0.30047,0.330021 0.58049,0.423361 0.1605401,-0.0136 0.1605401,-0.0136 0.2793301,-0.06979 0.0842,-0.375048 0.058101,-0.6470581 -0.030599,-1.0213179 -0.100584,-0.462102 -0.1327939,-0.9021521 -0.135304,-1.3748523 -9.399e-4,-0.0633 -0.002,-0.1265899 -0.003,-0.1917998 0.006,-0.9237602 0.37659,-1.7397503 1.0067003,-2.4138506 0.8561101,-0.7947502 1.8904703,-1.2591502 2.9389004,-1.7464503 0.1983902,-0.093 0.396051,-0.1871001 0.5928698,-0.2833602 0.0547,-0.026699 0.1094,-0.053399 0.16577,-0.080899 0.282592,-0.1584 0.455301,-0.3737501 0.63213,-0.6389903 0.0338,-0.34351 0.0359,-0.49292 -0.130938,-0.7987201 -0.130351,-0.18165 -0.130351,-0.18165 -0.288061,-0.2487799 0,-0.046101 0,-0.0922 0,-0.13967 z M 8.2593901,7.2669137 C 7.61631,7.9330039 7.3533899,8.6374441 7.3542899,9.5517743 7.3842906,10.067395 7.52663,10.569075 7.65451,11.067545 c 0.1808901,0.71465 0.22346,1.23178 -0.13028,1.898691 -0.12593,0.189979 -0.2556401,0.375769 -0.3885801,0.560818 -0.5953901,0.836753 -0.8854902,1.621452 -0.7985802,2.651523 0.0422,0.14105 0.087599,0.281298 0.1396602,0.418999 0.022999,0 0.0461,0 0.069798,0 0.002,-0.06168 0.004,-0.12333 0.00498,-0.186861 0.056202,-1.190109 0.5145501,-1.903698 1.3082803,-2.75487 0.4730644,-0.525629 0.6635844,-1.17596 0.6571443,-1.86832 -0.0275,-0.385829 -0.12778,-0.75249 -0.22505,-1.125781 -0.20711,-0.7948594 -0.3554601,-1.5315699 0,-2.3045 0.1353161,-0.22696 0.1353161,-0.22696 0.2793462,-0.419 0.0386,-0.0539 0.0772,-0.10785 0.1170299,-0.1634 0.1994416,-0.2282701 0.4198418,-0.3861201 0.6686018,-0.5567602 0.045399,-0.0317 0.0907,-0.063499 0.13748,-0.096199 0.11098,-0.0775 0.22239,-0.1544201 0.3338901,-0.2311801 -0.00299,0.055801 -0.00601,0.11162 -0.010001,0.16912 -0.0339,1.0328401 0.2964305,1.7405103 0.9869505,2.4973605 0.623981,0.6039698 1.437701,0.9289608 2.230842,1.2485508 0.50757,0.205911 0.992648,0.405809 1.270639,0.90619 0.09172,0.313251 0.09719,0.628481 0.117301,0.953121 0.06862,0.900209 0.06862,0.900209 0.57503,1.619529 0.322901,0.23995 0.637198,0.39044 1.04423,0.35762 0.456779,-0.0839 0.80838,-0.28166 1.117329,-0.628499 0.145802,-0.246341 0.24318,-0.502971 0.349171,-0.76816 0.474639,0.892179 0.724162,1.548329 0.55867,2.583831 -0.0653,0.211279 -0.13938,0.41135 -0.22751,0.614039 -0.07208,0.163301 -0.07208,0.163301 0.01802,0.36363 0.590217,-0.942389 0.954108,-1.80207 0.72534,-2.935731 -0.229042,-0.70024 -0.69011,-1.31055 -1.284001,-1.74311 -0.03922,-0.02872 -0.07829,-0.05738 -0.118671,-0.08699 -0.201129,-0.14867 -0.201129,-0.14867 -0.439999,-0.19231 0.002,0.05958 0.002,0.05958 0.0029,0.120451 0.0039,0.182439 0.0068,0.364858 0.01001,0.547328 0.002,0.06251 0.0029,0.125039 0.0049,0.189451 0.0039,0.39723 -0.02549,0.682138 -0.227909,1.028269 -0.233189,0.17215 -0.472809,0.17252 -0.7548,0.16694 -0.248391,-0.04429 -0.35614,-0.18017 -0.5022,-0.376438 -0.07041,-0.211162 -0.0819,-0.393611 -0.09001,-0.614592 -0.03147,-0.833534 -0.131028,-1.496646 -0.747909,-2.108915 -0.519781,-0.438447 -1.171201,-0.675897 -1.792891,-0.9330574 -0.406211,-0.1694698 -0.77529,-0.3568199 -1.139979,-0.6032799 -0.0605,-0.0389 -0.120981,-0.0778 -0.183311,-0.1178399 -0.538039,-0.5238903 -0.79827,-1.2223405 -0.82927,-1.9597005 0.0079,-0.4559303 0.123779,-0.8151103 0.307699,-1.2294504 0.08971,-0.1836298 0.08971,-0.1836298 0.07638,-0.3941801 -0.82237,0 -2.0469007,1.1528904 -2.6168407,1.7030104 z m 3.5945109,6.3976613 c -0.13296,0.17052 -0.25727,0.34148 -0.379721,0.519381 -0.03712,0.05349 -0.07428,0.106919 -0.11259,0.162001 -1.139569,1.583668 -1.139569,1.583668 -1.8820196,3.368951 -0.015901,0.05758 -0.0317,0.115229 -0.048002,0.174578 -0.081299,0.650721 -0.00899,1.252701 0.3797202,1.79821 0.5465014,0.667652 1.1984024,1.029171 2.0579024,1.115432 0.74608,0.03018 1.37687,-0.259211 1.92287,-0.755351 0.503811,-0.535381 0.672881,-1.243571 0.665051,-1.959421 -0.125881,-1.519439 -1.278171,-2.91468 -2.184201,-4.074619 -0.04898,-0.0651 -0.09792,-0.130161 -0.14839,-0.197221 -0.06481,-0.07521 -0.06481,-0.07521 -0.130941,-0.151941 -0.0461,0 -0.0922,0 -0.13967,0 z"
     id="path1"
     style="stroke-width:1" />
</svg>
