<?xml version="1.0" encoding="UTF-8"?>
<svg id="svg3" width="24" height="24" version="1.1" viewBox="0 0 24 24" xmlns="http://www.w3.org/2000/svg">
 <g id="g3" transform="matrix(.066007 0 0 .066007 2.264 2.084)" stroke-width="15.15">
  <path id="path1" d="m132 0 2 1c0.54856 2.3349 0.96983 4.5909 1.3242 6.957 0.16578 1.0491 0.16578 1.0491 0.33491 2.1193 0.23203 1.4831 0.45954 2.9669 0.68291 4.4512 0.34276 2.2671 0.70335 4.5308 1.0662 6.7947 0.22309 1.4406 0.44513 2.8813 0.66602 4.3223 0.16238 1.0143 0.16238 1.0143 0.32805 2.049 0.913 6.2066 0.913 6.2066-0.40227 9.3064-1.9336 0.94922-1.9336 0.94922-4.4375 1.6875-6.5084 2.4143-10.728 6.4691-15.562 11.312-0.6281 0.62648-1.2562 1.253-1.9033 1.8984-4.2072 4.2013-4.2072 4.2013-8.3882 8.4287-3.7491 3.8001-7.5833 7.2882-11.708 10.673-2.7545 3.3973-3.6754 6.4235-3.4609 10.844 1.5943 7.4582 8.1575 13.179 13.202 18.553 4.0158 4.2796 7.7195 8.7387 11.384 13.325 1.7779 2.2489 1.7779 2.2489 3.625 3.9609 1.25 1.3164 1.25 1.3164 1.25 3.3164-1.2581 0.35062-2.5162 0.70125-3.8125 1.0625-3.2387 1.2656-4.13 1.8614-6.3125 4.75-2.0697 6.2492-0.47018 14.384 2.0195 20.32 2.5396 4.0269 5.6541 6.3834 10.105 7.8672 2.9265 5.8531 1.6556 14.771 1.7896 21.2 0.0566 2.1431 0.13824 4.2856 0.24609 6.4268 0.92692 18.761 0.92692 18.761-3.8225 24.163-3.1319 2.8935-6.5581 5.0319-10.213 7.21-1.6249 1.2654-3.2342 2.5519-4.8125 3.875-0.79535 0.63035-1.5907 1.2607-2.4102 1.9102-3.531 2.8158-7.0276 5.6729-10.527 8.5273-5.1037 4.1602-10.242 8.2672-15.438 12.312-5.0861 3.9636-10.029 8.0649-14.927 12.257-4.3645 3.7184-8.8474 7.263-13.373 10.782-4.7391 3.6975-9.3833 7.5011-14.012 11.336-6.3898 5.2903-12.843 10.485-19.391 15.578-1.9778 1.5405-3.9476 3.0915-5.9062 4.6562-0.80953 0.64454-1.6191 1.2891-2.4531 1.9531-0.68578 0.55043-1.3716 1.1009-2.0781 1.668-1.6719 1.1445-1.6719 1.1445-3.6719 1.1445 0.59661-3.2087 1.5908-5.0413 3.7031-7.5117 0.84208-0.99967 0.84208-0.99967 1.7012-2.0195 0.91362-1.0673 0.91362-1.0673 1.8457-2.1562 4.903-5.8314 9.6661-11.727 14.25-17.812 4.975-6.5847 10.135-12.986 15.408-19.334 4.0767-4.9128 8.0541-9.8905 11.977-14.927 3.4999-4.4834 7.0781-8.8985 10.677-13.302 3.8874-4.7592 7.7109-9.5512 11.438-14.438 4.2551-5.5793 8.6523-11.028 13.091-16.462 3.7222-4.5619 7.399-9.1562 11.034-13.788 0.67374-0.85839 0.67374-0.85839 1.3611-1.7341 1.1754-1.5021 2.3449-3.0088 3.5139-4.5159 0.59555-0.74766 1.1911-1.4953 1.8047-2.2656 1.3845-1.6578 1.3845-1.6578 1.1953-3.7344-1.3649-1.3148-1.3649-1.3148-3.1914-2.6172-0.69101-0.51909-1.382-1.0382-2.094-1.573-0.75144-0.55598-1.5029-1.112-2.2771-1.6848-1.553-1.1693-3.1051-2.3399-4.6562-3.5117-0.79277-0.59732-1.5855-1.1946-2.4023-1.8101-3.6798-2.7893-7.3197-5.6264-10.941-8.4907-0.64848-0.50451-1.297-1.009-1.9651-1.5288-1.5293-1.2143-3.0069-2.4931-4.4724-3.7837v-2c0.63809-0.19336 1.2762-0.38672 1.9336-0.58594 0.82629-0.26039 1.6526-0.52078 2.5039-0.78906 0.82371-0.25523 1.6474-0.51047 2.4961-0.77344 2.2444-0.66038 2.2444-0.66038 3.0664-2.8516 0.56071-5.8314-0.52224-8.3786-4-13-1.7989-1.8068-3.6552-3.5581-5.5625-5.25-0.95004-0.85078-1.9001-1.7016-2.8789-2.5781-3.4876-3.233-3.4876-3.233-7.9141-4.0859-3.451 1.1928-5.3253 3.0177-7.957 5.5391-3.2118 3.0498-6.4354 6.0186-9.875 8.8125-6.3489 5.5242-11.549 12.413-13.812 20.562v2c-8.0844-1.4366-16.138-3.0029-24.188-4.625-1.1428-0.22945-2.2855-0.45891-3.4629-0.69531-2.7834-0.55901-5.5666-1.1189-8.3496-1.6797 1.383-4.149 3.3642-4.5299 7.1875-6.5625 17.325-9.537 31.035-22.416 44.812-36.438-0.66596-3.1659-0.66596-3.1659-3.2852-4.168-0.91652-0.33644-1.833-0.67289-2.7773-1.0195-1.3787-0.51627-1.3787-0.51627-2.7852-1.043-0.71027-0.25394-1.4205-0.50789-2.1523-0.76953 0.79688-4.8047 0.79688-4.8047 2.625-6.5625 0.45375-0.47438 0.9075-0.94875 1.375-1.4375-0.23032-4.2706-3.3068-6.7413-6.125-9.625-6.9652-7.3863-12.734-14.493-15.758-24.344-0.9816-2.211-0.9816-2.211-3.3164-3.2539-4.2589-1.182-8.5559-1.6061-12.937-2.1172-2.8633-0.66016-2.8633-0.66016-4.8633-3.6602-0.51293-6.6682 1.8277-11.953 6-17 5.1765-5.5778 10.339-9.7615 18-11 3.4375 0.0625 3.4375 0.0625 6 1 2.9468 4.3261 2.7935 9.7306 3.3398 14.785 0.67196 3.2723 0.92618 4.3963 3.6602 6.2148 2.1266 0.71537 2.1266 0.71537 4.5 1.1875 11.393 3.2245 19.574 12.472 27.5 20.812 1.3612-1.2684 1.3612-1.2684 2.75-2.5625 1.5469-1.4414 1.5469-1.4414 3.25-2.4375 2.0625 0.10156 2.0625 0.10156 4 1 1.2656 1.7773 1.2656 1.7773 2.25 3.9375 0.50273 1.0654 0.50273 1.0654 1.0156 2.1523 0.73438 1.9102 0.73438 1.9102 0.73438 3.9102 6.4464-2.9667 10.895-7.1595 16-12 0.73348-0.66902 1.467-1.338 2.2227-2.0273 12.371-11.698 21.201-26.416 29.777-40.973 0.99873-1.6674 1.9981-3.3345 3-5z"/>
  <path id="path2" d="m162 0c3.0552 2.6441 4.6496 5.7861 6.5625 9.3125 8.1058 14.557 18.426 27.786 30.125 39.625 0.53472 0.54406 1.0694 1.0881 1.6204 1.6487 4.0703 4.0375 8.1675 7.5723 13.692 9.4138 0.26812-0.88688 0.53625-1.7738 0.8125-2.6875 1.1046-3.0813 2.416-5.5747 4.1875-8.3125 3.8853 0.5756 6.0305 2.5377 9 5 0.83402-0.86883 1.668-1.7377 2.5273-2.6328 8.9228-9.189 16.218-15.991 28.969-19.117 2.7497-1.0519 2.7497-1.0519 3.793-3.9531 0.96345-4.4678 1.5174-8.9327 2.0508-13.469 0.66016-2.8281 0.66016-2.8281 3.6602-4.8281 9.3821 0.31804 15.833 4.018 22.234 10.785 3.5447 4.4466 5.5136 8.9468 6.1406 14.59-0.375 2.625-0.375 2.625-2.375 5.625-2.6773 0.65548-5.2227 1.159-7.9375 1.5625-5.8193 0.84536-5.8193 0.84536-11.062 3.4375-0.91278 2.2747-0.91278 2.2747-1.625 4.9375-2.774 8.0793-8.2098 13.713-13.996 19.836-0.82629 0.87914-1.6526 1.7583-2.5039 2.6641-0.7657 0.78246-1.5314 1.5649-2.3203 2.3711-1.7992 2.0435-1.7992 2.0435-1.3945 4.3828 0.75213 1.9058 0.75213 1.9058 2.4023 3.3086 1.4375 1.5 1.4375 1.5 1.4375 5.5l-11 5c8.6704 17.341 29.645 29.756 45.953 39.223 2.0528 1.1975 4.0694 2.459 6.0469 3.7773v2c-4.0013 0.83901-8.0032 1.6751-12.006 2.5085-1.3589 0.2834-2.7176 0.56756-4.0762 0.85254-1.9632 0.41167-3.927 0.82024-5.8909 1.2288-1.1783 0.24613-2.3566 0.49226-3.5706 0.74585-3.4754 0.66789-6.9499 1.1924-10.457 1.6643-0.0412-0.80438-0.0825-1.6088-0.125-2.4375-2.9299-11.929-14.627-22.107-23.875-29.562-0.63164-0.51949-1.2633-1.039-1.9141-1.5742-3.1166-2.6176-3.1166-2.6176-6.9492-3.3125-7.387 3.0655-15.529 10.67-19.137 17.887-0.43694 4.5941-0.43694 4.5941 1.0625 8.8125 2.813 1.7241 5.7524 2.4063 8.9375 3.1875-1.3537 3.1425-2.7194 4.8482-5.457 6.8828-0.69489 0.52312-1.3898 1.0462-2.1057 1.5852-0.74242 0.5468-1.4848 1.0936-2.2498 1.657-1.5366 1.1521-3.0731 2.3044-4.6094 3.457-0.76763 0.57186-1.5353 1.1437-2.3262 1.7329-3.2966 2.4668-6.5565 4.9801-9.8144 7.4976-1.0637 0.81917-2.1275 1.6382-3.1914 2.457-0.74121 0.57106-1.4824 1.1421-2.2461 1.7305 1.425 4.2594 3.5067 7.0565 6.4375 10.438 0.90798 1.0623 1.8142 2.1262 2.7188 3.1914 0.46922 0.55188 0.93844 1.1038 1.4219 1.6724 2.3503 2.8079 4.6061 5.6878 6.8594 8.5737 0.68643 0.87785 0.68643 0.87785 1.3867 1.7734 0.93024 1.1908 1.8599 2.382 2.7891 3.5737 2.2693 2.9094 4.546 5.8129 6.8242 8.7153 0.45254 0.57694 0.90508 1.1539 1.3713 1.7483 2.835 3.608 5.6958 7.194 8.572 10.769 4.7715 5.9316 9.4545 11.918 14.057 17.982 4.7725 6.2871 9.6808 12.441 14.687 18.543 3.8944 4.7649 7.6588 9.6152 11.375 14.52 5.4266 7.1606 11.028 14.161 16.723 21.109 0.47453 0.58202 0.94907 1.164 1.438 1.7637 1.2182 1.4797 2.4629 2.9375 3.7104 4.3926 1.6289 2.2344 1.6289 2.2344 1.6289 5.2344-4.8594-1.5134-7.97-4.3035-11.688-7.625-1.2489-1.0937-2.4989-2.1862-3.75-3.2773-0.60844-0.53223-1.2169-1.0644-1.8438-1.6128-3.0255-2.6138-6.1615-5.0834-9.2969-7.563-4.5185-3.5856-8.9629-7.2627-13.422-10.922-6.3213-5.1816-12.655-10.348-19-15.5-7.2-5.8463-14.381-11.715-21.555-17.594-4.7134-3.8603-9.4285-7.7185-14.159-11.557-1.3622-1.1116-2.7175-2.2316-4.0659-3.3599-3.4097-2.8301-6.7927-5.4079-10.579-7.7156-9.7305-6.1733-9.7305-6.1733-11.297-11.509-0.70351-5.5379-0.19001-10.988 0.36719-16.52 0.4278-4.8019 0.53924-9.6046 0.67968-14.422 0.15608-5.2762 0.38204-10.549 0.60938-15.823 0.5427-0.23074 1.0854-0.46148 1.6445-0.69922 4.5161-2.0587 7.4487-3.4791 9.3555-8.3008 0.59632-2.6946 1.0464-5.2153 1.375-7.9375 0.10699-0.69029 0.21398-1.3806 0.32422-2.0918 0.62073-4.8871 0.10023-7.9082-2.6992-11.971-1.9792-1.323-1.9792-1.323-4.1875-1.875-1.8872-0.55688-1.8872-0.55688-3.8125-1.125 2.145-3.861 4.6032-6.9114 7.625-10.125 4.3-4.6511 8.359-9.4308 12.332-14.367 1.7766-2.1809 3.6063-4.2863 5.4805-6.3828 3.1403-3.6811 4.4614-6.4067 4.75-11.312-3.4808-11.175-16.818-20.154-25.177-27.905-2.5339-2.4041-4.9661-4.8981-7.377-7.425-4.3986-3.9917-10.087-5.6808-15.634-7.4824 2.802-20.852 2.802-20.852 4.125-29.812 0.14695-0.99645 0.29391-1.9929 0.44531-3.0195 0.42969-2.168 0.42969-2.168 1.4297-3.168z"/>
  <path id="path3" transform="translate(147.75,44.625)" d="m0 0c0.77859-0.028359 1.5572-0.056719 2.3594-0.085938 7.9201 1.2629 13.616 5.4277 19.113 11.02 0.63095 0.62617 1.2619 1.2523 1.912 1.8975 1.3176 1.3143 2.6291 2.6347 3.9345 3.9612 2.0023 2.0293 4.0301 4.0302 6.0618 6.03 1.2822 1.2855 2.5629 2.5726 3.8418 3.8613 0.60611 0.59598 1.2122 1.192 1.8367 1.806 4.0647 4.1809 4.0647 4.1809 4.6843 7.6469-0.73709 3.3424-2.5534 4.9387-4.9312 7.3635-0.92688 0.96776-1.8513 1.9379-2.7734 2.9102-0.4689 0.49129-0.93779 0.98259-1.4209 1.4888-2.0907 2.2556-4.0059 4.6411-5.9307 7.0386-3.6482 4.536-7.4893 8.8255-11.492 13.051-3.1805 3.9022-5.398 7.6345-5.1328 12.762 0.09281 1.7944 0.09281 1.7944 0.1875 3.625l12 1c1.1224 3.3673 0.89414 5.0381 0.3125 8.5-0.22236 1.4386-0.22236 1.4386-0.44922 2.9062-1.0419 3.1303-2.0321 3.9752-4.8633 5.5938-2.3135 0.7326-4.6458 1.4114-7 2-1.1846 7.488-1.1639 14.926-1.168 22.492-0.0032 1.3962-0.0066 2.7925-0.01009 4.1888-6e-3 2.9098-0.0078 5.8195-0.0072 8.7292 1.03e-4 3.7326-0.01364 7.465-0.03077 11.198-0.01109 2.8755-0.01315 5.751-0.01262 8.6266-0.0012 1.3772-0.0056 2.7543-0.01333 4.1314-0.0098 1.917-0.0057 3.834-8.95e-4 5.751-0.0014 1.0906-0.0029 2.1812-0.0043 3.3049-0.01303 2.7424-0.01303 2.7424 2.2472 4.5784 0.19815 2.4283 0.27283 4.7425 0.25879 7.1719 0.0035 0.73836 7e-3 1.4767 0.01062 2.2374 0.0088 2.447 3e-3 4.8937-0.0038 7.3407 0.0013 1.6963 0.0033 3.3926 0.0058 5.0889 3e-3 3.5576-0.0013 7.1152-0.01068 10.673-0.01139 4.5668-0.0048 9.1334 0.0071 13.7 0.0072 3.5035 0.0049 7.0069-2.55e-4 10.51-0.0013 1.6842 3.12e-4 3.3683 5e-3 5.0525 0.0051 2.3512-0.0026 4.7021-0.0138 7.0533 4e-3 0.70033 0.0081 1.4006 0.01227 2.1222-0.04253 4.8212-0.04253 4.8212-2.2711 7.0497-2.2148 0.25879-2.2148 0.25879-4.9375 0.26562-0.97711 3e-3 -1.9542 5e-3 -2.9609 8e-3 -1.0235-8e-3 -2.047-0.0155-3.1016-0.0234-1.0235 8e-3 -2.047 0.0155-3.1016 0.0234-0.97711-3e-3 -1.9542-5e-3 -2.9609-8e-3 -0.89848-2e-3 -1.797-5e-3 -2.7227-7e-3 -2.2149-0.25862-2.2149-0.25862-4.2149-2.2586-0.26992-2.6884-0.08737-5.2914 0-8h-8c0.02062 1.2788 0.04125 2.5575 0.0625 3.875 0.0625 3.875 0.0625 3.875-1.0625 6.125-3.9164 0.11619-7.8324 0.18725-11.75 0.25-1.1112 0.0335-2.2223 0.067-3.3672 0.10156-1.0699 0.0129-2.1398 0.0258-3.2422 0.0391-0.98452 0.0209-1.969 0.0419-2.9834 0.0635-3.3901-0.57934-4.518-1.8262-6.6572-4.4541-1.4843-2.9686-1.4677-4.6947-1-8 1.8567-2.5014 4.1152-4.4979 6.4375-6.5625 4.5847-3.9852 4.5847-3.9852 7.6602-9.0977-0.12801-3.0671-0.98439-4.0196-3.0977-6.2148-0.64066-0.68707-1.2813-1.3741-1.9414-2.082-1.3311-1.321-2.6919-2.6128-4.0859-3.8672-4.8396-4.4042-4.8396-4.4042-5.5977-8.8008 0.65551-3.5397 1.3824-5.5717 3.625-8.375 4.4922-2.7622 8.941-2.3307 14.062-2.3125 0.91072-0.0161 1.8214-0.0322 2.7598-0.0488 0.87463-6.4e-4 1.7493-1e-3 2.6504-2e-3 1.1951-4e-3 1.1951-4e-3 2.4143-9e-3 2.6602 0.46872 3.5454 1.1936 5.113 3.3723 0.1875 3.6875 0.1875 3.6875 0 7h8c-0.01047-0.86802-0.02095-1.736-0.03174-2.6304-0.03406-3.2166-0.05915-6.4332-0.07813-9.6499-0.01007-1.3929-0.02372-2.7858-0.04102-4.1787-0.02422-2.0006-0.03453-4.0013-0.04443-6.002-0.01571-1.8067-0.01571-1.8067-0.03174-3.6499 0.22706-2.8892 0.22706-2.8892 2.2271-4.8892 0.31495-3.022 0.31495-3.022 0.27466-6.6211 0.0051-0.67983 0.01022-1.3597 0.01549-2.0601 0.01393-2.2522 0.01294-4.5041 0.01064-6.7563 0.0039-1.5618 0.0082-3.1235 0.01298-4.6853 0.0075-3.2752 0.0072-6.5503 0.0019-9.8254-0.0058-4.2037 0.01114-8.4069 0.03434-12.611 0.01471-3.2256 0.01561-6.451 0.01249-9.6766 5.14e-4 -1.5502 0.0058-3.1004 0.01581-4.6506 0.01229-2.1646 0.0056-4.3284-6e-3 -6.493 6.3e-4 -1.2331 0.0013-2.4661 0.0019-3.7366-0.18524-1.4278-0.18524-1.4278-0.37422-2.8845-2.9297-2.1876-2.9297-2.1876-6.5625-2.9375-3.4375-1.0625-3.4375-1.0625-5.4375-4.0625-1.2373-4.3307-1.0757-8.5338-1-13 0.78246-0.06059 1.5649-0.12117 2.3711-0.18359 1.0119-0.08379 2.0238-0.16758 3.0664-0.25391 1.0093-0.08121 2.0187-0.16242 3.0586-0.24609 2.4403-0.04852 2.4403-0.04852 3.5039-1.3164 0.65899-7.776-1.7329-11.342-6.6992-17.297-0.99238-1.1542-1.9886-2.3052-2.9883-3.4531-0.52674-0.60981-1.0535-1.2196-1.5962-1.8479-3.1599-3.647-6.3592-7.2563-9.5913-10.84-0.7077-0.78633-1.4154-1.5727-2.1445-2.3828-1.2751-1.4034-2.5633-2.7951-3.8672-4.1719-0.55301-0.6007-1.106-1.2014-1.6758-1.8203-0.47566-0.50144-0.95133-1.0029-1.4414-1.5195-1.4595-2.444-1.3782-3.8438-0.99609-6.668 1.5889-2.0512 3.0811-3.7125 4.9336-5.4922 0.76704-0.76354 0.76704-0.76354 1.5496-1.5425 1.0863-1.0765 2.1786-2.1471 3.2764-3.2119 1.6528-1.604 3.2868-3.2253 4.9182-4.8511 18.311-18.118 18.311-18.118 28.072-18.277zm-13.625 27.625c-0.60586 0.54785-1.2117 1.0957-1.8359 1.6602-3.0496 2.9595-4.2331 4.2599-4.5273 8.6211 1.5445 4.3265 3.613 6.6326 6.9258 9.7188 0.51756 0.51562 1.0351 1.0312 1.5684 1.5625 3.9409 3.8084 7.9352 7.0654 13.619 7.3125 4.6611-1.678 7.6087-4.7134 11.125-8.125 1.1157-1.0229 1.1157-1.0229 2.2539-2.0664 5.0914-4.5458 5.0914-4.5458 6.7461-10.934-1.0701-2.0543-1.0701-2.0543-2.875-3.8125-0.64066-0.67805-1.2813-1.3561-1.9414-2.0547-6.9579-7.612-6.9579-7.612-15.996-11.383-6.4305 0.50436-10.626 5.2108-15.062 9.5z"/>
 </g>
</svg>
