<?xml version="1.0" encoding="UTF-8" standalone="no"?>
<svg
   version="1.0"
   viewBox="0 0 24 24"
   preserveAspectRatio="xMidYMid"
   id="svg1"
   sodipodi:docname="phb24-monk.svg"
   xml:space="preserve"
   inkscape:version="1.3.2 (091e20e, 2023-11-25, custom)"
   xmlns:inkscape="http://www.inkscape.org/namespaces/inkscape"
   xmlns:sodipodi="http://sodipodi.sourceforge.net/DTD/sodipodi-0.dtd"
   xmlns="http://www.w3.org/2000/svg"
   xmlns:svg="http://www.w3.org/2000/svg"><defs
     id="defs1" /><sodipodi:namedview
     id="namedview1"
     pagecolor="#ffffff"
     bordercolor="#111111"
     borderopacity="1"
     inkscape:showpageshadow="0"
     inkscape:pageopacity="0"
     inkscape:pagecheckerboard="1"
     inkscape:deskcolor="#d1d1d1"
     inkscape:document-units="px"
     inkscape:zoom="7.3397685"
     inkscape:cx="-0.81746447"
     inkscape:cy="16.6899"
     inkscape:window-width="1366"
     inkscape:window-height="697"
     inkscape:window-x="-8"
     inkscape:window-y="-8"
     inkscape:window-maximized="1"
     inkscape:current-layer="svg1" /><g
     transform="matrix(0.1,0,0,-0.1,0,300)"
     fill="#000000"
     stroke="none"
     id="g1" /><path
     style="stroke:none;stroke-width:1"
     d="M 7.0403258,9.4366215 C 6.5512161,9.2735854 6.3066336,8.8380982 5.9220602,8.5216767 5.3839889,8.0789598 4.8942021,7.5954792 4.3971523,7.098429 4.1469408,6.8482179 3.6021451,6.2267841 3.2280548,6.2512573 3.0901888,6.2602673 3.0162731,6.3469913 2.9230735,6.4376354 2.4140478,6.932716 3.0163665,7.67242 3.3805463,8.1150345 c 0.2424466,0.2946656 0.5708388,0.5186187 0.8132842,0.8132842 0.7277597,0.8845082 1.6603612,1.6050783 2.3890227,2.4906823 0.4127498,0.50165 0.8579341,0.959594 1.3215874,1.423247 l -0.050829,0.05083 C 7.6798356,12.812876 7.4525554,12.760633 7.3029486,12.630456 7.0898662,12.445046 6.9740702,12.137305 6.786175,11.927304 6.4014015,11.497263 5.6130218,11.132732 5.1087757,11.571492 c -0.1080886,0.09405 -0.1738266,0.239212 -0.2541508,0.355812 0.3137553,0.313755 0.5590249,0.673032 0.7624539,1.067436 0.1364802,0.264607 0.2158951,0.581455 0.4066423,0.813284 0.3125186,0.37983 0.7079547,0.470845 1.1013217,0.728568 0.863094,0.565474 1.4422324,1.247609 2.5584579,1.304641 0.260363,0.01339 0.8163583,0.09831 1.0081333,-0.110115 0.123329,-0.134058 0.133649,-0.365546 0.177906,-0.533718 0.09518,-0.361693 0.221557,-0.725055 0.34734,-1.075924 0.504336,-1.406835 1.000355,-2.816069 1.296171,-4.2951554 C 12.606741,9.3578586 12.863225,8.6064221 12.7079,8.1404497 12.574735,7.7409525 11.970949,7.4002666 11.665881,7.1492594 10.935636,6.5484258 10.495911,5.6430584 9.7173872,5.1329919 9.3452955,4.889208 8.5402412,4.6905151 8.4720461,5.378672 8.4425341,5.6764311 8.7567062,5.8312577 8.9210455,6.0309936 9.3279307,6.5255148 10.039142,7.0470901 10.242633,7.6575621 9.7535243,7.4945266 9.5089394,7.0590379 9.1243671,6.7426173 8.4589146,6.1950928 7.8574489,5.5773597 7.2436475,4.9635577 6.9279399,4.6478512 6.3869356,4.0129401 5.9135882,3.9723673 5.3948723,3.9279071 5.1808515,4.5580572 5.4645874,4.9127275 6.2112804,5.846093 7.1954428,6.5815878 7.9552709,7.5050712 8.1254668,7.7119249 8.2389353,7.9622607 8.4127437,8.1658648 7.8769074,8.0341018 7.5211819,7.5792846 7.1419867,7.2000898 6.5120937,6.5701971 5.8335946,5.9933578 5.2104367,5.3702 4.8827947,5.042558 4.3598141,4.3086895 3.8126043,4.4806703 3.0094505,4.7330896 3.5447221,5.5246817 3.8888545,5.8785026 4.6442924,6.6552201 5.4361617,7.4806834 6.1253858,8.3183556 6.4418073,8.7029281 6.8772948,8.9475121 7.040331,9.4366215 M 7.2944767,1.8629114 c 0.5253711,0.2279932 1.1713508,0.2185154 1.7197577,0.4151142 2.4309206,0.8714611 4.4010746,2.7858201 4.4815346,5.4811971 0.03535,1.1839724 -0.266968,2.4413813 -0.60149,3.5665903 -0.554899,1.86647 -1.259572,3.688436 -1.753645,5.565914 -0.412029,1.565705 -0.95903,3.84707 0.69468,4.930535 0.59359,0.388906 1.205791,0.488148 1.863776,0.677738 l 0.05082,-0.05082 c -0.279706,-0.238786 -0.622808,-0.36753 -0.864106,-0.660801 -0.796236,-0.967733 -0.71708,-2.547954 -0.440529,-3.693665 0.788836,-3.268044 2.732059,-6.203416 3.270081,-9.5391461 0.150576,-0.933578 0.234046,-1.986153 0,-2.9142693 C 15.319128,4.0700331 14.208532,2.80384 12.767202,2.0831758 12.043743,1.721446 11.206527,1.5302826 10.395124,1.5070996 9.3571316,1.4774425 8.2917131,1.5304988 7.2944767,1.8629114 m 9.2511083,4.5747243 c 0.442168,4.3585353 -2.818226,7.9575273 -3.337852,12.1145473 -0.18543,1.483429 -0.0016,3.003618 1.550321,3.600476 0.282519,0.108667 0.569862,0.141901 0.872587,0.14402 0.290663,0.0022 0.587524,0.02292 0.864115,-0.05082 -0.532165,-0.454287 -1.125066,-0.598703 -1.507965,-1.23687 -0.563445,-0.939074 -0.372317,-2.17095 -0.169434,-3.185362 0.456553,-2.282765 1.549528,-4.275833 2.278891,-6.463916 C 17.49612,10.16009 17.674029,8.8741425 17.265681,7.649097 17.15084,7.3045803 16.874065,6.5753915 16.545585,6.4376425 m -0.35581,9.4035975 1.533379,-0.49983 0.957303,-0.364284 -1.626569,-1.423247 -0.669265,1.567267 -0.194848,0.720094 m -0.762455,3.60895 2.651645,-0.906473 3.193836,-1.075906 c -0.474822,-0.500489 -0.872668,-1.096845 -1.457134,-1.491022 -0.140262,-0.09458 -0.274061,-0.316852 -0.440532,-0.355812 -0.149548,-0.03501 -0.313123,0.06484 -0.448998,0.110129 l -1.067437,0.35581 -1.372416,0.457473 c -0.18405,0.06134 -0.440634,0.09132 -0.59302,0.220265 -0.161732,0.136849 -0.171645,0.400221 -0.220264,0.593019 -0.164199,0.651131 -0.42283,1.4282 -0.24568,2.092513 z"
     id="path1" /></svg>
