<?xml version="1.0" encoding="UTF-8" standalone="no"?>
<svg
   version="1.1"
   width="24"
   height="24"
   id="svg1"
   sodipodi:docname="phb24-sorcerer.svg"
   inkscape:version="1.3.2 (091e20e, 2023-11-25, custom)"
   xmlns:inkscape="http://www.inkscape.org/namespaces/inkscape"
   xmlns:sodipodi="http://sodipodi.sourceforge.net/DTD/sodipodi-0.dtd"
   xmlns="http://www.w3.org/2000/svg"
   xmlns:svg="http://www.w3.org/2000/svg">
  <defs
     id="defs1" />
  <sodipodi:namedview
     id="namedview1"
     pagecolor="#ffffff"
     bordercolor="#111111"
     borderopacity="1"
     inkscape:showpageshadow="0"
     inkscape:pageopacity="0"
     inkscape:pagecheckerboard="1"
     inkscape:deskcolor="#d1d1d1"
     inkscape:zoom="9.7863578"
     inkscape:cx="0.76637296"
     inkscape:cy="16.196015"
     inkscape:window-width="1366"
     inkscape:window-height="697"
     inkscape:window-x="-8"
     inkscape:window-y="-8"
     inkscape:window-maximized="1"
     inkscape:current-layer="svg1" />
  <path
     d="m 10.527077,1.513571 c 0.99409,-0.0374 1.86118,-0.0446 2.66021,0.63423 0.40797,0.41048 0.61366,0.88004 0.62659,1.45886 -0.0337,0.85614 -0.38929,1.51482 -0.83404,2.22522 -0.23342,0.37332 -0.41392,0.67941 -0.35776,1.12869 0.0936,0.21018 0.0936,0.21018 0.27933,0.34917 0.34025,0.054 0.47404,0.0602 0.75507,-0.13967 0.22552,-0.30928 0.3219,-0.62556 0.42473,-0.98885 0.19833,-0.68824 0.41225,-1.16858 1.05487,-1.52515 0.56166,-0.28426 1.28368,-0.3289 1.88304,-0.14649 0.14651,0.065 0.28453,0.1332 0.42146,0.21632 0,0.0461 0,0.0922 0,0.13967 -0.10803,0.0713 -0.10803,0.0713 -0.21823,0.14403 -0.5559,0.38408 -0.86052,1.06528 -1.01013,1.70928 -0.11265,0.67588 0.0129,1.3309 0.37726,1.91332 0.24573,0.33833 0.48123,0.52083 0.89038,0.6285 0.27736,0.005 0.38226,-0.0218 0.58922,-0.20513 0.28925,-0.59228 0.11646,-1.21818 -0.0698,-1.81567 -0.0659,-0.14156 -0.13397,-0.28233 -0.2095,-0.419 0,-0.0461 0,-0.0922 0,-0.13966 1.0308,0.3108 1.99768,0.99945 2.514,1.95533 0.21297,0.46095 0.24125,0.9443 0.0842,1.42766 -0.0945,0.2475 -0.1955,0.49095 -0.30447,0.73242 -0.16857,0.37931 -0.30157,0.70218 -0.14979,1.11588 0.0656,0.14378 0.13741,0.28203 0.21291,0.42084 0.0491,0.0937 0.0982,0.1875 0.1473,0.28124 0.075,0.14149 0.15009,0.28293 0.22546,0.42422 0.47058,0.90602 0.50246,2.02978 0.20773,3.00444 -0.46134,1.17069 -1.37668,2.01404 -2.33996,2.78187 -0.48268,0.39706 -0.87838,0.85612 -1.26955,1.34102 -1.08466,1.32371 -2.28327,2.08256 -4.00669,2.29741 -1.48646,0.0744 -2.98807,0.10445 -4.32967,-0.6285 -0.0888,-0.0462 -0.0888,-0.0462 -0.17949,-0.0933 -0.80312,-0.44454 -1.2546,-1.08976 -1.73083,-1.8495 -0.31653,-0.50466 -0.64736,-1.00858 -1.09251,-1.40921 -0.0391,-0.0353 -0.0781,-0.0706 -0.11839,-0.10693 -0.2064,-0.18384 -0.41521,-0.36214 -0.63232,-0.5333 -0.63192,-0.49884 -1.10571,-0.99099 -1.27445,-1.80394 -0.0452,-0.62299 0.0656,-1.205 0.19231,-1.81225 0.16009,-0.85182 -0.0325,-1.51038 -0.40618,-2.27736 -0.0634,-0.13391 -0.12682,-0.26785 -0.19013,-0.40181 -0.042,-0.0869 -0.042,-0.0869 -0.0849,-0.17556 -0.23724,-0.51485 -0.21234,-1.20882 -0.0944,-1.75959 0.27189,-0.73549 0.78502,-1.268 1.49105,-1.60426 0.0922,0 0.18436,0 0.27933,0 -0.0159,0.0726 -0.0319,0.14511 -0.0483,0.21987 -0.20564,0.94804 -0.20564,0.94804 0.0265,1.87077 0.17864,0.23658 0.30047,0.33002 0.58049,0.42336 0.16054,-0.0136 0.16054,-0.0136 0.27933,-0.0698 0.0842,-0.37504 0.0581,-0.64705 -0.0306,-1.02131 -0.10058,-0.4621 -0.13279,-0.90215 -0.1353,-1.37485 -9.4e-4,-0.0633 -0.002,-0.12659 -0.003,-0.1918 0.006,-0.92376 0.37659,-1.73975 1.0067,-2.41385 0.85611,-0.79475 1.89047,-1.25915 2.9389,-1.74645 0.19839,-0.093 0.39605,-0.1871 0.59287,-0.28336 0.0547,-0.0267 0.1094,-0.0534 0.16577,-0.0809 0.28259,-0.1584 0.4553,-0.37375 0.63213,-0.63899 0.0338,-0.34351 0.0359,-0.49292 -0.13094,-0.79872 -0.13035,-0.18165 -0.13035,-0.18165 -0.28806,-0.24878 0,-0.0461 0,-0.0922 0,-0.13967 z m -2.26768,5.75334 c -0.64308,0.66609 -0.906,1.37053 -0.9051,2.28486 0.03,0.51562 0.17234,1.0173 0.30022,1.51577 0.18089,0.71465 0.22346,1.23178 -0.13028,1.89869 -0.12593,0.18998 -0.25564,0.37577 -0.38858,0.56082 -0.59539,0.83675 -0.88549,1.62145 -0.79858,2.65152 0.0422,0.14105 0.0876,0.2813 0.13966,0.419 0.023,0 0.0461,0 0.0698,0 0.002,-0.0617 0.004,-0.12333 0.005,-0.18686 0.0562,-1.19011 0.51455,-1.9037 1.30828,-2.75487 0.47306,-0.52563 0.66358,-1.17596 0.65714,-1.86832 -0.0275,-0.38583 -0.12778,-0.75249 -0.22505,-1.12578 -0.20711,-0.79486 -0.35546,-1.53157 0,-2.3045 0.1353,-0.22696 0.1353,-0.22696 0.27933,-0.419 0.0386,-0.0539 0.0772,-0.10785 0.11703,-0.1634 0.19944,-0.22827 0.41984,-0.38612 0.6686,-0.55676 0.0454,-0.0317 0.0907,-0.0635 0.13748,-0.0962 0.11098,-0.0775 0.22239,-0.15442 0.33389,-0.23118 -0.003,0.0558 -0.006,0.11162 -0.01,0.16912 -0.0339,1.03284 0.29643,1.74051 0.98695,2.49736 0.62398,0.60397 1.4377,0.92896 2.23084,1.24855 0.50757,0.20591 0.99265,0.40581 1.27064,0.90619 0.0917,0.31325 0.0972,0.62848 0.1173,0.95312 0.0686,0.90021 0.0686,0.90021 0.57503,1.61953 0.3229,0.23995 0.6372,0.39044 1.04423,0.35762 0.45678,-0.0839 0.80838,-0.28166 1.11733,-0.6285 0.1458,-0.24634 0.24318,-0.50297 0.34917,-0.76816 0.47464,0.89218 0.72416,1.54833 0.55867,2.58383 -0.0653,0.21128 -0.13938,0.41135 -0.22751,0.61404 -0.0721,0.1633 -0.0721,0.1633 0.018,0.36363 0.59022,-0.94239 0.95411,-1.80207 0.72534,-2.93573 -0.22904,-0.70024 -0.69011,-1.31055 -1.284,-1.74311 -0.0392,-0.0287 -0.0783,-0.0574 -0.11867,-0.087 -0.20113,-0.14867 -0.20113,-0.14867 -0.44,-0.19231 0.002,0.0596 0.002,0.0596 0.003,0.12045 0.004,0.18244 0.007,0.36486 0.01,0.54733 0.002,0.0625 0.003,0.12504 0.005,0.18945 0.004,0.39723 -0.0255,0.68214 -0.22791,1.02827 -0.23319,0.17215 -0.47281,0.17252 -0.7548,0.16694 -0.24839,-0.0443 -0.35614,-0.18017 -0.5022,-0.37644 -0.0704,-0.21116 -0.0819,-0.39361 -0.09,-0.61459 -0.0315,-0.83353 -0.13106,-1.49664 -0.74794,-2.10891 -0.51991,-0.43844 -1.17133,-0.67589 -1.79302,-0.93305 -0.40621,-0.16947 -0.77529,-0.35682 -1.13998,-0.60328 -0.0605,-0.0389 -0.12098,-0.0778 -0.18331,-0.11784 -0.53804,-0.52389 -0.79827,-1.22234 -0.82927,-1.9597 0.008,-0.45593 0.12378,-0.81511 0.3077,-1.22945 0.0897,-0.18363 0.0897,-0.18363 0.0764,-0.39418 -0.82237,0 -2.0469,1.15289 -2.61684,1.70301 z m 3.59451,6.39766 c -0.13296,0.17052 -0.25727,0.34148 -0.37972,0.51938 -0.0371,0.0535 -0.0743,0.10692 -0.11259,0.162 -1.13957,1.58367 -1.13957,1.58367 -1.88202,3.36895 -0.0159,0.0576 -0.0317,0.11523 -0.048,0.17458 -0.0813,0.65072 -0.009,1.2527 0.37972,1.79821 0.5465,0.66765 1.1984,1.02917 2.0579,1.11543 0.74608,0.0302 1.37687,-0.25921 1.92287,-0.75535 0.50381,-0.53538 0.67288,-1.24357 0.66505,-1.95942 -0.12588,-1.51944 -1.27817,-2.91468 -2.1842,-4.07462 -0.049,-0.0651 -0.0979,-0.13016 -0.14839,-0.19722 -0.0648,-0.0752 -0.0648,-0.0752 -0.13094,-0.15194 -0.0461,0 -0.0922,0 -0.13967,0 z"
     id="path1"
     style="stroke-width:0.999999" />
</svg>
