<?xml version="1.0" encoding="UTF-8"?>
<svg id="svg5" version="1.1" viewBox="0 0 24 24" xmlns="http://www.w3.org/2000/svg">
 <g id="g5" transform="matrix(.042977 .042797 -.042977 .042797 12.537 -.30428)" stroke-width="16.488">
  <path id="path1" transform="translate(106)" d="m0 0c3.5289 1.1763 4.1349 2.1647 6.2852 5.1133l1.8574 2.5332 1.9199 2.666 1.9316 2.6309c5.1306 7.0445 5.2219 7.1357 7.0971 11.148 4.7334-0.41734 4.7853-0.4714 7.2251-0.66159 9.3837-0.5857 9.5218 0.0977 17.502-1.7686 3.1095-3.5259 5.1983-7.5999 7.2378-11.81 1.2629-2.4781 2.8496-4.6086 4.5684-6.7886l2.375-3.0625 2 1c0.50244 1.9302 0.50244 1.9302 0.85156 4.4453l0.39062 2.7656 0.38281 2.9141 0.40625 2.8438c0.69438 5.0591 1.1243 9.9261 0.96875 15.031l2 0.25c3.3718 0.84296 5.9528 2.2627 8.9375 4.0078 3.2871 1.1828 6.0394 0.17437 9.1866-1.1551l2.1278-1.0963 2.4374-1.2445 2.5919-1.3478 2.7003-1.3866c1.8808-0.9672 3.7602-1.9374 5.6381-2.9102 2.8671-1.4853 5.7385-2.9622 8.6108-4.4375 1.8297-0.94222 3.6591-1.8849 5.4883-2.8281 0.85533-0.44073 1.7107-0.88146 2.5919-1.3355 3.2752-1.6979 6.4939-3.3968 9.6444-5.3192 2.0449-1.1968 2.0449-1.1968 4.0449-1.1968-2.017 6.3764-4.3866 12.523-7.0117 18.672-0.7653 1.8163-1.5303 3.6327-2.2949 5.4492-1.1946 2.828-2.3918 5.6547-3.595 8.479-1.1696 2.7498-2.3281 5.5041-3.4851 8.2593-0.36244 0.84278-0.72488 1.6856-1.0983 2.5539-2.4694 5.5984-2.4694 5.5984-2.515 11.587 2.2226 3.7749 4.1793 4.7122 8.3577 5.8152l3.3165 0.89934 3.5797 0.9222c1.2118 0.32491 2.4236 0.64982 3.6721 0.98457 3.2172 0.86012 6.4371 1.7075 9.6593 2.5485 4.5455 1.1902 9.0843 2.4055 13.624 3.616 2.4173 0.6429 4.8356 1.2818 7.255 1.9165 1.0913 0.28732 2.1826 0.57465 3.307 0.87068l2.9199 0.76421c2.3083 0.6628 2.3083 0.6628 4.3083 1.6628-1.1198 3.3593-1.736 3.8091-4.5156 5.793l-2.2639 1.6379c-0.81525 0.57968-1.6305 1.1594-2.4705 1.7566-1.7239 1.2457-3.4465 2.4931-5.168 3.7422-0.90669 0.6571-1.8134 1.3142-2.7476 1.9912-5.7873 4.2451-11.464 8.6366-17.154 13.011-0.84465 0.64752-1.6893 1.295-2.5596 1.9622-0.74838 0.57597-1.4968 1.1519-2.2678 1.7454-1.8533 1.3601-1.8533 1.3601-3.8533 2.3601-0.49794 2.9846-0.89497 5.9354-1.25 8.9375-3.5544 26.135-15.571 48.006-36.047 64.965-12.824 9.4886-28.714 16.844-44.703 18.098 0.75983-7.0007 1.9897-13.86 3.4375-20.75l0.59961-3.4023c1.7392-8.0203 1.7392-8.0203 5.2341-10.383 2.5511-0.98953 5.0931-1.7368 7.7288-2.4644 3.5405-2.076 6.7438-4.5054 10-7 0.61617-0.43828 1.2323-0.87656 1.8672-1.3281 9.7812-7.4824 15.545-19.199 19.133-30.672l0.74219-2.2539c4.3501-15.702 0.64857-32.429-6.8008-46.457-9.1319-15.471-22.501-25.054-39.629-30.164-17.009-3.7474-34.111-0.92082-49.176 7.7695-13.483 9.0504-21.65 20.848-27.137 36.105l-0.41406 2.1484c-0.79229 2.5036-2.0508 3.4037-4.0859 5.0391-8.7242 7.3736-15.228 14.953-21.336 24.555-1.6531 2.4887-3.0445 4.2444-5.1641 6.2578-0.04254-1.3045-0.08508-2.6091-0.12891-3.9531-0.57389-10.631-0.57389-10.631-5.7422-19.555-3.0832-2.6216-6.4281-4.8318-9.8403-7-3.3577-2.1893-6.5357-4.6025-9.7417-7.0064-2.3657-1.772-4.7472-3.5196-7.1367-5.2593l-2.2104-1.6201c-1.5091-1.1021-3.0241-2.1961-4.5439-3.2832-1.1-0.79809-1.1-0.79809-2.2222-1.6123-0.66072-0.47389-1.3214-0.94778-2.0022-1.436-0.70854-0.63108-0.70854-0.63108-1.4314-1.2749v-2c7.8811-2.5493 15.819-4.7888 23.824-6.9102l2.9092-0.77475c4.0086-1.067 8.0175-2.1329 12.031-3.1815 2.9603-0.77504 5.9165-1.5643 8.8723-2.3562l2.7616-0.71046 2.5418-0.68822 2.2364-0.58925c2.1912-0.75261 2.1912-0.75261 3.8234-3.7894-0.31746-5.333-2.4522-10.004-4.4922-14.871l-1.0503-2.5471c-1.105-2.6756-2.2186-5.3474-3.3325-8.0193-0.74145-1.7921-1.4823-3.5844-2.2227-5.377-1.3663-3.3034-2.7346-6.6059-4.1089-9.906l-0.91107-2.1928c-0.58001-1.3716-1.1739-2.7375-1.7828-4.0965-1.2792-2.8599-2.0995-4.8156-2.0995-7.9902 5.1529 1.5175 9.612 3.7765 14.312 6.3125 1.6757 0.88819 3.3515 1.7762 5.0273 2.6641 2.9741 1.5841 5.9432 3.1766 8.9067 4.7803 3.3698 1.8223 6.7486 3.627 10.128 5.4307l3.259 1.7844 3.0769 1.6335 2.728 1.4734c3.7369 1.3441 6.2004 0.53157 9.729-1.0515 3.8261-1.7428 5.2138-2.0153 7.832-3.0273l0.18359-3.2969c0.48628-8.5798 1.0413-17.143 1.8164-25.703z"/>
  <path id="path2" transform="translate(125,90)" d="m0 0c-0.45738 3.2973-1.008 6.5715-1.6108 9.8452-0.28373 1.571-0.55292 3.1447-0.81348 4.7197-0.47956 2.8221-1.0227 5.6265-1.5757 8.4351-0.14655 0.91999-0.2931 1.84-0.44409 2.7878-0.57251 2.7288-1.1309 4.8106-2.5559 7.2122-3.1597 1.9689-6.4602 2.9164-10 4-3.5405 2.076-6.7438 4.5054-10 7-0.61617 0.43828-1.2323 0.87656-1.8672 1.3281-9.7812 7.4824-15.545 19.199-19.133 30.672-0.36738 1.1157-0.36738 1.1157-0.74219 2.2539-4.3501 15.702-0.64857 32.429 6.8008 46.457 9.1319 15.471 22.501 25.054 39.629 30.164 17.009 3.7474 34.111 0.92082 49.176-7.7695 12.626-8.4747 20.557-19.17 25.996-33.379 1.9882-4.7527 4.1112-7.9568 8.1406-11.164 9.4705-8.1749 16.619-18.89 23-29.562 2.0387 3.1587 2.0919 5.737 2.1208 9.4302 0.17369 5.3939 0.72396 9.8718 4.676 13.796 3.1301 2.6464 6.4872 4.9497 9.8984 7.2168 3.3345 2.2522 6.5378 4.6706 9.76 7.0796 2.367 1.7661 4.7474 3.5118 7.1345 5.2505 0.72945 0.53464 1.4589 1.0693 2.2104 1.6201 1.5091 1.1021 3.0241 2.1961 4.544 3.2832 0.73331 0.53206 1.4666 1.0641 2.2222 1.6123 0.66072 0.47389 1.3214 0.94779 2.0022 1.436 0.47236 0.42072 0.94473 0.84143 1.4314 1.2749v2c-7.8811 2.5493-15.819 4.7888-23.824 6.9102-0.96004 0.25566-1.9201 0.51133-2.9092 0.77475-4.0086 1.067-8.0175 2.1329-12.031 3.1816-2.9603 0.77504-5.9165 1.5643-8.8723 2.3562-0.91134 0.23445-1.8227 0.4689-2.7616 0.71046-0.8388 0.22711-1.6776 0.45422-2.5418 0.68822-0.738 0.19445-1.476 0.3889-2.2364 0.58925-2.1912 0.75261-2.1912 0.75261-3.8234 3.7894 0.31746 5.333 2.4522 10.004 4.4922 14.871 0.34661 0.84056 0.69321 1.6811 1.0503 2.5471 1.105 2.6756 2.2186 5.3474 3.3325 8.0193 0.74145 1.7921 1.4823 3.5844 2.2227 5.377 1.3663 3.3034 2.7346 6.6059 4.1089 9.906 0.30066 0.72364 0.60131 1.4473 0.91107 2.1928 0.58001 1.3716 1.174 2.7374 1.7828 4.0965 1.2792 2.8599 2.0996 4.8156 2.0996 7.9902-5.1529-1.5175-9.612-3.7764-14.312-6.3125-1.6757-0.88819-3.3515-1.7762-5.0273-2.6641-2.9741-1.5841-5.9432-3.1766-8.9067-4.7803-3.3698-1.8223-6.7486-3.627-10.128-5.4307-1.0755-0.58886-2.151-1.1777-3.259-1.7844-1.5231-0.80861-1.5231-0.80861-3.0769-1.6336-0.90025-0.48622-1.8005-0.97244-2.728-1.4734-3.7369-1.3441-6.2004-0.53157-9.729 1.0515-0.99967 0.53947-0.99967 0.53947-2.0195 1.0898-3.6061 1.9375-3.6061 1.9375-5.8125 1.9375-0.06059 1.088-0.12117 2.1759-0.18359 3.2969-0.48628 8.5798-1.0413 17.144-1.8164 25.703-3.5289-1.1763-4.1349-2.1646-6.2852-5.1133-0.61295-0.83596-1.2259-1.6719-1.8574-2.5332-0.63357-0.87979-1.2671-1.7596-1.9199-2.666-0.63744-0.86818-1.2749-1.7364-1.9316-2.6309-5.1306-7.0445-5.1306-7.0445-7.0059-11.057-0.99 0.33-1.98 0.66-3 1-1.4652-0.055-2.9286-0.16993-4.3867-0.32422-9.8143-1.0945-9.8143-1.0945-18.43 2.6055-2.0089 3.1493-3.5871 6.3437-5.1836 9.7188-1.4556 2.1146-2.9542 4.2004-4.5 6.25-0.67031 0.91266-1.3406 1.8253-2.0312 2.7656-0.48469 0.65485-0.96938 1.3097-1.4688 1.9844l-2-1c-0.50244-1.9302-0.50244-1.9302-0.85156-4.4453-0.12891-0.91266-0.25781-1.8253-0.39062-2.7656-0.12633-0.96164-0.25266-1.9233-0.38281-2.9141-0.13406-0.93844-0.26812-1.8769-0.40625-2.8438-0.69438-5.059-1.1243-9.9261-0.96875-15.031l-2-0.25c-3.3718-0.84296-5.9528-2.2627-8.9375-4.0078-3.2871-1.1828-6.0394-0.17437-9.1866 1.1551-0.70218 0.36179-1.4044 0.72359-2.1278 1.0963-0.80434 0.41068-1.6087 0.82136-2.4374 1.2445-0.85533 0.44478-1.7107 0.88955-2.5919 1.3478-0.8911 0.45758-1.7822 0.91517-2.7003 1.3866-1.8808 0.96721-3.7602 1.9374-5.6381 2.9102-2.8671 1.4853-5.7385 2.9622-8.6108 4.4375-1.8297 0.94222-3.6591 1.8849-5.4883 2.8281-0.85533 0.44073-1.7107 0.88145-2.5919 1.3355-3.2752 1.6979-6.4939 3.3968-9.6444 5.3192-2.0449 1.1968-2.0449 1.1968-4.0449 1.1968 2.017-6.3764 4.3866-12.523 7.0117-18.672 0.7653-1.8163 1.5303-3.6327 2.2949-5.4492 1.1946-2.828 2.3918-5.6547 3.595-8.479 1.1696-2.7498 2.3281-5.5041 3.4851-8.2593 0.36244-0.84278 0.72489-1.6856 1.0983-2.5539 2.4694-5.5984 2.4694-5.5984 2.515-11.587-2.2227-3.7749-4.1793-4.7122-8.3577-5.8152-1.0945-0.29678-2.1889-0.59356-3.3165-0.89933-1.1813-0.30433-2.3626-0.60865-3.5797-0.9222-1.8177-0.48736-1.8177-0.48736-3.6721-0.98457-3.2172-0.86012-6.4371-1.7075-9.6593-2.5485-4.5455-1.1902-9.0843-2.4055-13.624-3.616-2.4173-0.64291-4.8356-1.2818-7.255-1.9165-1.0913-0.28732-2.1826-0.57465-3.307-0.87068-0.96358-0.25219-1.9272-0.50437-2.9199-0.7642-2.3083-0.6628-2.3083-0.6628-4.3083-1.6628 1.1198-3.3593 1.736-3.8092 4.5156-5.793 0.7471-0.54052 1.4942-1.081 2.2639-1.6379 0.81525-0.57967 1.6305-1.1594 2.4705-1.7566 1.7239-1.2457 3.4465-2.4931 5.168-3.7422 0.90669-0.6571 1.8134-1.3142 2.7476-1.9912 5.7873-4.245 11.464-8.6366 17.154-13.011 0.84466-0.64751 1.6893-1.295 2.5596-1.9622 0.74838-0.57597 1.4968-1.1519 2.2678-1.7454 1.8533-1.3601 1.8533-1.3601 3.8533-2.3601 0.49794-2.9846 0.89497-5.9354 1.25-8.9375 3.5545-26.135 15.571-48.006 36.047-64.965 12.13-8.9754 29.331-18.098 44.703-18.098z"/>
  <path id="path3" transform="translate(137,78)" d="m0 0c2.1622 3.2433 2.753 5.5658 3.6199 9.3481 0.1482 0.63947 0.2964 1.2789 0.4491 1.9378 0.48775 2.1141 0.96586 4.2303 1.4427 6.3469 0.3357 1.4763 0.67155 2.9526 1.0075 4.4289 0.70305 3.0975 1.4007 6.1962 2.0953 9.2957 0.88706 3.9539 1.793 7.9032 2.704 11.852 0.70045 3.0503 1.3878 6.1035 2.0715 9.1576 0.32822 1.4562 0.66111 2.9113 0.9989 4.3653 1.7652 7.6218 3.3588 14.522 1.6111 22.268-0.22566 1.0782-0.45132 2.1565-0.68382 3.2674-0.85712 3.9539-1.77 7.8918-2.6951 11.83-0.33532 1.4443-0.67019 2.8888-1.0046 4.3334-0.87498 3.7739-1.7561 7.5463-2.6386 11.318-0.90199 3.8606-1.7981 7.7226-2.6947 11.584-1.7553 7.5567-3.5172 15.112-5.2832 22.666l-2-1c-0.8167-2.6412-0.8167-2.6412-1.6199-6.2129-0.1482-0.64893-0.2964-1.2979-0.4491-1.9665-0.48986-2.1571-0.96688-4.3167-1.4427-6.4769-0.33551-1.5017-0.67136-3.0032-1.0075-4.5048-0.70433-3.1563-1.4019-6.314-2.0953-9.4728-0.8857-4.0305-1.7919-8.056-2.704-12.081-0.70054-3.1053-1.3878-6.2133-2.0715-9.3223-0.32839-1.484-0.66128-2.9671-0.9989-4.449-3.3404-14.714-3.3404-14.714-1.6111-22.514 0.21058-1.0605 0.42117-2.1211 0.63814-3.2137 0.79008-3.8739 1.6327-7.7348 2.4869-11.595 0.31039-1.4172 0.62044-2.8344 0.93018-4.2517 0.64604-2.9515 1.2952-5.9023 1.9468-8.8525 0.83561-3.7841 1.6647-7.5695 2.4916-11.356 0.63787-2.918 1.2785-5.8355 1.92-8.7527 0.30689-1.3965 0.61308-2.7932 0.91858-4.19 0.42569-1.9438 0.8553-3.8868 1.2851-5.8297 0.36521-1.658 0.36521-1.658 0.73779-3.3496 0.64502-2.6096 0.64502-2.6096 1.645-4.6096z"/>
  <path id="path4" transform="translate(150,90)" d="m0 0c13.797 1.3702 30.117 5.8879 41 15 3.9549 11.382 0.45791 25.282-4 36-1.1667-0.875-2.3333-1.75-3.5-2.625-0.73477-0.54785-1.4695-1.0957-2.2266-1.6602-1.4243-1.0743-2.8377-2.1634-4.2344-3.2734-5.4748-4.3017-11.525-8.0182-18.207-10.125-2.9449-2.116-3.1891-5.2556-3.8945-8.6289-0.1621-0.71116-0.3242-1.4223-0.49121-2.155-0.33213-1.4624-0.65746-2.9264-0.97607-4.3918-0.69454-3.1619-1.4651-6.3052-2.2202-9.4531-0.71935-3.0496-1.25-5.5523-1.25-8.6875z"/>
  <path id="path5" transform="translate(88,159)" d="m0 0c1.1667 0.875 2.3333 1.75 3.5 2.625 1.1021 0.82178 1.1021 0.82178 2.2266 1.6602 1.4243 1.0743 2.8377 2.1634 4.2344 3.2734 5.4212 4.2595 11.436 8.0051 18.062 10.073 3.1065 2.1511 3.1331 4.7247 3.8984 8.3452 0.14971 0.68525 0.29942 1.3705 0.45367 2.0765 0.47412 2.1876 0.92449 4.3793 1.3745 6.5719 0.31746 1.4847 0.63645 2.9691 0.95703 4.4531 0.78215 3.637 1.5431 7.2781 2.293 10.922-3.8656 1.2885-6.6248 0.36796-10.438-0.625-0.7143-0.18385-1.4286-0.3677-2.1646-0.55713-9.633-2.5747-20.772-6.1675-28.398-12.818-3.8156-11.526-0.50449-25.17 4-36z"/>
 </g>
</svg>
