<?xml version="1.0" encoding="UTF-8" standalone="no"?>
<svg
   version="1.0"
   viewBox="0 0 24 24"
   preserveAspectRatio="xMidYMid"
   id="svg1"
   sodipodi:docname="phb24-fighter.svg"
   xml:space="preserve"
   inkscape:version="1.3.2 (091e20e, 2023-11-25, custom)"
   xmlns:inkscape="http://www.inkscape.org/namespaces/inkscape"
   xmlns:sodipodi="http://sodipodi.sourceforge.net/DTD/sodipodi-0.dtd"
   xmlns="http://www.w3.org/2000/svg"
   xmlns:svg="http://www.w3.org/2000/svg"><defs
     id="defs1" /><sodipodi:namedview
     id="namedview1"
     pagecolor="#ffffff"
     bordercolor="#111111"
     borderopacity="1"
     inkscape:showpageshadow="0"
     inkscape:pageopacity="0"
     inkscape:pagecheckerboard="1"
     inkscape:deskcolor="#d1d1d1"
     inkscape:document-units="px"
     inkscape:zoom="20.76"
     inkscape:cx="11.536609"
     inkscape:cy="9.0799613"
     inkscape:window-width="1366"
     inkscape:window-height="697"
     inkscape:window-x="-8"
     inkscape:window-y="-8"
     inkscape:window-maximized="1"
     inkscape:current-layer="svg1" /><g
     transform="matrix(0.1,0,0,-0.1,-1.1250049,298.88843)"
     fill="#000000"
     stroke="none"
     id="g1" /><path
     style="stroke:none;stroke-width:1"
     d="m 2.1755327,12.582468 h 0.051348 C 2.1481311,12.155724 2.0634484,11.731749 2.0215035,11.301052 1.9942385,11.021126 2.0462401,10.754186 2.0728511,10.480945 2.2093841,9.0789863 2.7012507,7.7018819 3.6645179,6.6366952 4.25768,5.9807722 4.9313797,5.5115104 5.6669388,5.0477381 l 0.094134,1.5889571 0.2139333,0.6663369 C 6.079809,7.0937843 6.1117987,6.8566872 6.1974976,6.6366952 6.3836983,6.1587085 6.6133121,5.6715923 6.9163149,5.2527653 8.0670369,3.66217 9.7457267,2.7745879 11.674203,2.587418 12.309964,2.5257111 12.904086,2.7436983 13.522591,2.7924452 13.354358,2.5557945 13.010215,2.4000094 12.75243,2.2713356 12.215234,2.0031951 11.696224,1.7591799 11.109418,1.5964551 8.4232465,0.85156449 5.6684109,1.606522 3.6131771,3.458782 1.8197775,5.0750668 1.1275643,7.6429327 1.3540357,9.9683781 1.4462857,10.915593 1.855263,11.714622 2.1755415,12.582468 M 15.165594,2.7924452 C 14.414483,3.1673619 13.584454,3.4353271 12.803765,3.7492364 12.47686,3.8806817 12.119807,3.9953623 11.828226,4.1934596 10.739303,4.9332709 9.9059177,5.9841977 9.0898747,6.9954922 8.4259095,7.8183196 7.7442866,8.6275418 7.0874534,9.4558121 7.0137989,9.5486944 6.9066526,9.7399193 6.7965032,9.78898 6.6621636,9.8488161 6.5252157,9.6943728 6.3857502,9.729183 6.2096795,9.7731244 6.0578076,9.9793596 5.9749974,10.12215 H 5.9236497 C 5.7193524,9.7791461 5.2624686,9.5979384 5.0508001,9.2507869 4.9510216,9.087146 5.0017368,8.7652894 4.8368659,8.6613355 4.7328566,8.5957595 4.5425189,8.6369821 4.4346702,8.6699114 4.0985774,8.7724308 3.678417,9.207974 3.7757539,9.6096171 c 0.04838,0.1996273 0.460282,0.1510081 0.6075716,0.2306543 0.1193882,0.064562 0.2132919,0.1873006 0.3080655,0.2819116 0.2624635,0.262016 0.782056,0.663168 0.7188173,1.076391 -0.049093,0.320815 -0.5118268,0.478157 -0.7017028,0.717593 -0.2552437,0.321864 -0.3289041,0.697543 -0.5476705,1.025133 -0.1655494,0.247901 -0.4541797,0.376735 -0.6332444,0.615081 -0.099947,0.133035 -0.1049728,0.348987 -0.2310489,0.452767 -0.1919679,0.15802 -0.4997883,-0.1674 -0.6931454,0.02562 -0.085924,0.08578 -0.06846,0.232167 -0.06846,0.341712 0,0.313162 0.015102,0.625337 0.265278,0.854277 0.2327747,0.213013 0.5172777,0.222112 0.8129485,0.222112 0.1097307,0 0.2563663,0.01743 0.3422936,-0.06834 0.1845801,-0.184263 -0.097983,-0.452231 -0.00859,-0.64925 0.073048,-0.160939 0.3541162,-0.180713 0.4877695,-0.27337 0.2462364,-0.170705 0.3667013,-0.466163 0.6161299,-0.632164 0.3285947,-0.218691 0.7054571,-0.289134 1.0268817,-0.546739 0.2319538,-0.185899 0.372499,-0.601986 0.6674736,-0.691965 0.4225156,-0.128881 0.8701919,0.450115 1.1295707,0.709051 0.094769,0.09461 0.2177249,0.188356 0.2823926,0.30754 0.079784,0.147039 0.031082,0.558241 0.2310492,0.606538 0.4023284,0.09717 0.8386137,-0.322275 0.9413079,-0.657794 0.032956,-0.107665 0.074249,-0.297681 0.00859,-0.401512 C 9.233899,12.990277 8.9114953,13.04091 8.7475733,12.941301 8.3998306,12.729992 8.2183127,12.273887 7.8747233,12.069939 v -0.05126 L 8.268362,11.608625 8.285475,11.113144 9.9284866,9.7975558 12.187627,7.9694018 11.417465,5.7653654 13.11182,6.9442681 h 0.05135 C 14.010744,6.0981347 14.334716,5.003821 14.771949,3.9201248 l 0.308066,-0.7688495 c 0.05019,-0.1244072 0.131422,-0.2469143 0.08557,-0.3587969 m 0.102689,1.7427269 0.154032,2.2040366 -0.376525,1.6914696 -0.54767,1.2301599 -0.521998,-1.1276464 -1.018325,-1.2301597 -0.718817,-0.5125671 0.410753,1.9990102 0.05135,0.512566 -0.205374,1.2814176 -0.753048,-0.9738768 -0.5819,-0.512567 c 0.752472,2.5950278 -0.683006,5.6396928 -3.3887113,6.3899978 -0.9473549,0.262707 -1.8154269,0.244361 -2.7725823,0.06834 v 0.05126 c 0.7131554,0.262295 1.3473311,0.665156 2.1051087,0.854276 1.9798575,0.494121 4.1585809,0.169606 5.9045739,-0.871362 2.859773,-1.705013 4.173848,-5.098333 3.508513,-8.2864948 C 16.372186,6.606016 16.10481,5.9833069 15.790278,5.3553159 15.652388,5.0800038 15.505604,4.7356784 15.268281,4.5352092 Z"
     id="path1" /></svg>
