<?xml version="1.0" encoding="UTF-8" standalone="no"?>
<svg
   version="1.1"
   width="24"
   height="24"
   id="svg3"
   sodipodi:docname="phb24-ranger.svg"
   inkscape:version="1.3.2 (091e20e, 2023-11-25, custom)"
   viewBox="0 0 24 24"
   xmlns:inkscape="http://www.inkscape.org/namespaces/inkscape"
   xmlns:sodipodi="http://sodipodi.sourceforge.net/DTD/sodipodi-0.dtd"
   xmlns="http://www.w3.org/2000/svg"
   xmlns:svg="http://www.w3.org/2000/svg">
  <defs
     id="defs3" />
  <sodipodi:namedview
     id="namedview3"
     pagecolor="#ffffff"
     bordercolor="#111111"
     borderopacity="1"
     inkscape:showpageshadow="0"
     inkscape:pageopacity="0"
     inkscape:pagecheckerboard="1"
     inkscape:deskcolor="#d1d1d1"
     inkscape:zoom="9.7863578"
     inkscape:cx="-10.831405"
     inkscape:cy="10.167215"
     inkscape:window-width="1366"
     inkscape:window-height="697"
     inkscape:window-x="-8"
     inkscape:window-y="-8"
     inkscape:window-maximized="1"
     inkscape:current-layer="svg3" />
  <g
     id="g3">
    <path
       d="m 2.7333329,2.7333329 c 0.4952515,0.1504365 0.9463222,0.3551779 1.4083334,0.5875 0.1128574,0.056606 0.1128574,0.056606 0.2279948,0.1143555 1.010958,0.5152269 1.9738208,1.1056416 2.8970053,1.7648113 -0.022,0.056375 -0.044,0.11275 -0.066667,0.1708333 -0.099631,0.3424833 -0.1153142,0.5884034 0.033333,0.9166667 0.033,0.059125 0.066,0.11825 0.1,0.1791667 0,0.044 0,0.088 0,0.1333333 0.043484,-0.00309 0.086969,-0.00619 0.1317708,-0.00937 0.3955551,-0.016336 0.6254704,0.00345 0.9348959,0.2760417 0.3948207,0.4061014 0.4852914,0.8966081 0.5518227,1.4388021 0.059616,0.1994719 0.1401387,0.2549631 0.314844,0.361198 0.042883,-0.02982 0.085765,-0.059641 0.129948,-0.090365 C 9.8042499,8.3035801 10.201342,8.1058658 10.663801,7.9427127 11.042692,7.8006894 11.31075,7.6478553 11.591666,7.354171 c 0.05208,-0.053883 0.104156,-0.1077656 0.157812,-0.1632812 0.03867,-0.040992 0.07734,-0.081984 0.117188,-0.1242188 0.02982,0.025781 0.05964,0.051563 0.09036,0.078125 0.04031,0.034719 0.08061,0.069438 0.122136,0.1052084 0.03945,0.034031 0.07889,0.068062 0.119531,0.103125 0.04443,0.037469 0.08886,0.074937 0.134635,0.1135416 0.04984,0.045289 0.09969,0.090578 0.151042,0.1372396 0.217274,0.1542647 0.432834,0.2165667 0.686458,0.2835938 1.100372,0.3202816 1.969796,0.997048 2.550001,1.9848961 0.582243,1.0795755 0.698558,2.2251355 0.364062,3.4020835 -0.161496,0.519408 -0.403093,0.975376 -0.751563,1.392188 0.152075,0.334922 0.360847,0.593119 0.666667,0.8 0.262828,0.05161 0.513098,0.03054 0.779167,0.0125 0.506103,-0.01014 0.861847,0.0048 1.242139,0.361149 0.445361,0.485737 0.445361,0.485737 0.445361,0.693018 -0.495,0.066 -0.495,0.066 -1,0.133333 0.184122,0.09206 0.344176,0.05709 0.544824,0.04544 0.696542,-0.03384 0.696542,-0.03384 0.986426,0.139713 0.128137,0.132083 0.236502,0.2599 0.335417,0.414844 -0.022,0.044 -0.044,0.088 -0.06667,0.133333 -0.169961,0.02083 -0.333575,0.0342 -0.504167,0.04167 -0.04739,0.0026 -0.09479,0.0052 -0.14362,0.0078 -0.117374,0.0063 -0.234792,0.01182 -0.352213,0.01719 0.022,0.022 0.044,0.044 0.06667,0.06667 0.139731,-0.01045 0.279462,-0.0209 0.419189,-0.0314 0.788229,-0.04694 0.788229,-0.04694 1.094613,0.192074 0.184259,0.173885 0.341636,0.364423 0.486198,0.572656 0,0.022 0,0.044 0,0.06667 -0.462,0.022 -0.924,0.044 -1.4,0.06667 0.08662,0.07975 0.17325,0.1595 0.2625,0.241667 0.176544,0.176857 0.264627,0.274355 0.35,0.5125 -0.0125,0.179167 -0.0125,0.179167 -0.08333,0.308333 -0.129166,0.07083 -0.129166,0.07083 -0.308333,0.08333 -0.337731,-0.121074 -0.512468,-0.349965 -0.754167,-0.6125 -0.022,0.462 -0.044,0.924 -0.06667,1.4 -0.509066,-0.436343 -1.008366,-0.878184 -1.495118,-1.339193 -0.108132,-0.101015 -0.217662,-0.200555 -0.32858,-0.298503 -0.977463,-0.865964 -0.977463,-0.865964 -1.05044,-1.514844 -0.01405,-0.279928 -0.0027,-0.552696 0.01488,-0.832128 0.01059,-0.256568 -0.0065,-0.397276 -0.163493,-0.60319 C 15.148395,15.58562 14.992911,15.453772 14.8,15.333333 c -0.03403,0.01942 -0.06806,0.03885 -0.103125,0.05886 -1.13292,0.638774 -1.13292,0.638774 -1.742708,0.795312 -0.46104,0.129424 -0.720478,0.382614 -1.020834,0.745834 -0.02905,-0.02501 -0.05809,-0.05002 -0.08802,-0.07578 -0.0836,-0.07184 -0.16757,-0.14325 -0.251824,-0.214322 C 11.490418,16.553915 11.392272,16.458939 11.295833,16.3625 11.030475,16.139116 10.692015,16.063065 10.36875,15.953386 9.3429259,15.57551 8.5570528,14.74774 8.0791665,13.779167 7.6261272,12.701668 7.6079094,11.561881 7.9999998,10.466667 8.1840125,10.024537 8.4174055,9.6083639 8.6666665,9.1999999 8.4866927,8.9587018 8.2777767,8.9528392 7.9916665,8.9083332 7.5245647,8.8250685 7.1050585,8.7213425 6.7713539,8.3648436 6.5528287,8.0445912 6.5728559,7.7080694 6.5999997,7.3333331 6.0854296,7.1247236 5.7334815,7.0762984 5.1999997,7.2666664 4.4502495,6.1779335 3.7878947,5.0549877 3.1916662,3.8749996 3.1608952,3.8143922 3.1301242,3.7537847 3.0984208,3.6913407 2.941724,3.3756459 2.8164525,3.0760848 2.7333329,2.7333329 Z M 10.5125,9.1624999 c -0.04301,0.022559 -0.08602,0.045117 -0.130339,0.068359 -0.105609,0.055543 -0.210615,0.1122307 -0.315494,0.1691407 0,0.3173093 0.222453,0.4530087 0.437239,0.6710944 0.08882,0.08856 0.08882,0.08856 0.179427,0.178906 0.08727,0.0901 0.08727,0.0901 0.176302,0.182031 0.05629,0.05646 0.112578,0.112922 0.170574,0.171094 0.05167,0.05214 0.103339,0.104285 0.156575,0.158008 0.135809,0.122679 0.135809,0.122679 0.287435,0.08981 0.04151,-0.01681 0.08302,-0.03362 0.125781,-0.05094 0.454788,-0.04548 0.847221,-0.05467 1.225,0.226302 0.290488,0.286997 0.389215,0.581907 0.395833,0.986198 -0.0053,0.174249 -0.01767,0.311333 -0.07298,0.477213 -0.03444,0.185646 -0.03444,0.185646 0.10031,0.337191 0.05621,0.05411 0.112417,0.108228 0.170328,0.163981 0.06037,0.05908 0.120743,0.118164 0.182943,0.179037 0.06478,0.06144 0.12958,0.122851 0.194401,0.184245 0.06463,0.06262 0.129172,0.12534 0.19362,0.188151 0.158215,0.153492 0.317286,0.305978 0.477214,0.457682 0.555417,-0.539386 0.7436,-1.221905 0.758333,-1.979167 -0.0029,-0.962586 -0.363841,-1.672193 -1.008333,-2.3708334 -0.298615,-0.2886607 -0.64568,-0.4695027 -1.016667,-0.65 -0.044,-0.022 -0.088,-0.044 -0.133333,-0.066667 -0.380612,-0.0366 -0.571187,0.024906 -0.866669,0.2666643 -0.122201,0.140384 -0.122201,0.140384 -0.2,0.2666666 -0.188196,-0.079621 -0.305784,-0.1674566 -0.4625,-0.3041666 -0.387672,-0.3085554 -0.612905,-0.2253581 -1.025,0 z m -1.0458335,0.8375 C 8.8888692,10.844207 8.6690578,11.713283 8.8307292,12.725781 c 0.2264113,0.827068 0.7125393,1.529029 1.4302078,2.002344 0.285084,0.161368 0.543409,0.299933 0.872396,0.338542 0.314978,-0.118117 0.501539,-0.2951 0.733334,-0.533334 0.044,0 0.088,0 0.133333,0 0.08296,0.100428 0.165845,0.200926 0.247917,0.302084 0.169536,0.194347 0.30867,0.225172 0.560416,0.260416 0.48671,-0.05495 0.854941,-0.28282 1.191667,-0.629166 -0.182491,-0.192384 -0.366275,-0.383424 -0.551351,-0.573324 -0.06276,-0.06477 -0.125156,-0.129896 -0.187174,-0.195378 -0.08923,-0.09408 -0.179895,-0.186802 -0.27059,-0.279476 -0.05411,-0.05621 -0.108227,-0.112416 -0.163981,-0.170328 -0.151545,-0.134751 -0.151545,-0.134751 -0.337191,-0.10031 -0.07741,0.02581 -0.07741,0.02581 -0.15638,0.05215 -0.452422,0.04502 -0.82865,0.01378 -1.2,-0.266667 -0.241253,-0.303113 -0.342835,-0.54058 -0.341666,-0.925 -2.67e-4,-0.0843 -2.67e-4,-0.0843 -5.34e-4,-0.170312 0.0089,-0.171354 0.0089,-0.171354 0.06043,-0.328467 0.03497,-0.184819 0.03497,-0.184819 -0.09867,-0.336458 -0.05578,-0.05411 -0.111568,-0.108228 -0.169043,-0.163981 -0.06007,-0.05908 -0.120141,-0.118164 -0.182031,-0.179037 -0.06449,-0.06142 -0.128987,-0.122837 -0.19349,-0.184245 -0.06406,-0.06263 -0.12804,-0.125344 -0.191927,-0.188151 C 9.7718546,10.168209 9.7718546,10.168209 9.4666665,9.9999999 Z m 2.2041665,1.6708331 c -0.115277,0.210212 -0.06144,0.370839 -0.0042,0.595834 0.188379,0.154692 0.188379,0.154692 0.404166,0.120833 0.215661,-0.03667 0.215661,-0.03667 0.329167,-0.254167 0.02359,-0.18872 0.02614,-0.29122 -0.075,-0.454166 -0.217431,-0.137706 -0.430373,-0.131059 -0.654167,-0.0083 z"
       id="path1"
       style="stroke-width:0.999993" />
    <path
       d="m 6.333333,8.7999998 c 0.2200546,0.1079314 0.4350383,0.2239494 0.6500001,0.3416667 0.065656,0.035922 0.1313125,0.071844 0.1989583,0.108854 0.049844,0.027328 0.099688,0.054657 0.1510417,0.082813 -0.042433,0.2583727 -0.1222786,0.4763607 -0.225,0.7166665 -0.5182928,1.323524 -0.4893574,2.75074 0.05581,4.061686 0.5852523,1.316334 1.6438816,2.282316 2.9691899,2.821648 1.352857,0.46795 2.784829,0.449578 4.089323,-0.172917 0.139848,-0.07051 0.279076,-0.142263 0.417448,-0.215625 0.159896,-0.07813 0.159896,-0.07813 0.293229,-0.07813 0,0.44 0,0.88 0,1.333333 -0.349375,0.174688 -0.624854,0.30826 -0.9875,0.416667 -0.0733,0.02234 -0.146609,0.04469 -0.222135,0.06771 -0.190365,0.04896 -0.190365,0.04896 -0.390365,0.04896 -0.0055,0.05046 -0.0109,0.100912 -0.01652,0.152897 -0.07051,0.347463 -0.195343,0.669091 -0.319157,1.000749 -0.02654,0.07194 -0.05308,0.143882 -0.08043,0.218003 -0.08458,0.229019 -0.169646,0.457852 -0.254729,0.686684 -0.05754,0.155543 -0.11505,0.311099 -0.172526,0.466667 C 12.349243,21.239028 12.20811,21.61957 12.066667,22 c -0.044,0 -0.088,0 -0.133334,0 -0.01292,-0.03556 -0.02584,-0.07113 -0.03915,-0.107772 -0.135166,-0.372074 -0.270369,-0.744134 -0.405594,-1.116186 -0.05038,-0.138625 -0.100748,-0.277254 -0.151107,-0.415886 -0.07263,-0.199922 -0.145286,-0.399832 -0.217953,-0.599739 -0.03345,-0.09211 -0.03345,-0.09211 -0.06757,-0.186092 -0.03201,-0.08803 -0.03201,-0.08803 -0.06467,-0.17784 -0.02024,-0.05579 -0.04048,-0.111579 -0.06134,-0.169059 -0.05661,-0.153498 -0.115739,-0.305834 -0.175087,-0.458285 -0.0842,-0.235807 -0.0842,-0.235807 -0.0842,-0.435807 -0.04056,-0.0042 -0.08113,-0.0084 -0.122917,-0.01276 C 9.3153232,18.148955 8.278276,17.441554 7.3999998,16.6 7.3575466,16.560985 7.3150935,16.521969 7.271354,16.481771 6.492721,15.744666 5.9182458,14.639421 5.6666663,13.6 c 0,-0.088 0,-0.176 0,-0.266667 -0.050456,-0.0055 -0.1009121,-0.0109 -0.1528971,-0.01652 C 5.1663057,13.2463 4.8446777,13.12147 4.5130205,12.997656 4.4410794,12.971115 4.3691382,12.944575 4.2950171,12.917229 4.0659979,12.832651 3.8371647,12.747583 3.6083329,12.6625 3.4527894,12.604959 3.297234,12.54745 3.1416662,12.489974 2.7609721,12.349243 2.3804293,12.20811 1.9999995,12.066667 c 0,-0.044 0,-0.088 0,-0.133334 0.035565,-0.01292 0.071129,-0.02584 0.1077718,-0.03915 0.3720742,-0.135165 0.7441343,-0.270368 1.1161866,-0.405593 0.1386249,-0.05038 0.2772533,-0.100748 0.4158854,-0.151107 0.1999226,-0.07263 0.3998323,-0.145286 0.5997396,-0.217953 0.06141,-0.0223 0.1228209,-0.0446 0.1860922,-0.06757 0.058687,-0.02134 0.1173745,-0.04268 0.1778401,-0.06467 0.05579,-0.02024 0.1115792,-0.04048 0.1690593,-0.06134 0.1534969,-0.05661 0.305833,-0.115739 0.4582846,-0.175087 0.2358072,-0.0842 0.2358072,-0.0842 0.4358072,-0.0842 0.00705,-0.07743 0.014094,-0.15486 0.021354,-0.234636 0.036649,-0.291966 0.123025,-0.5413211 0.2369792,-0.8111978 0.025652,-0.063744 0.025652,-0.063744 0.051823,-0.128776 0.100324,-0.244256 0.2144285,-0.469576 0.3565104,-0.6920574 z"
       id="path2"
       style="stroke-width:0.999993" />
    <path
       d="m 11.933333,1.9999995 c 0.044,0 0.088,0 0.133334,0 0.01292,0.035565 0.02584,0.071129 0.03915,0.1077718 0.135166,0.3720742 0.270369,0.7441343 0.405594,1.1161866 0.05038,0.1386249 0.100748,0.2772533 0.151107,0.4158854 0.07263,0.1999226 0.145286,0.3998323 0.217953,0.5997396 0.0223,0.06141 0.0446,0.1228209 0.06757,0.1860922 0.02134,0.058687 0.04268,0.1173745 0.06467,0.1778401 0.02024,0.05579 0.04048,0.1115792 0.06134,0.1690593 0.05661,0.1534969 0.115739,0.305833 0.175087,0.4582846 0.0842,0.2358072 0.0842,0.2358072 0.0842,0.4358072 0.105188,0.00619 0.105188,0.00619 0.2125,0.0125 1.010728,0.1298998 1.963872,0.7384827 2.720834,1.3875 0.03927,0.029649 0.07855,0.059297 0.119011,0.089844 0.994577,0.768858 1.639007,2.048959 1.947656,3.2434897 0,0.088 0,0.176 0,0.266667 0.05046,0.0055 0.100912,0.0109 0.152897,0.01652 0.347463,0.07051 0.669091,0.195343 1.000749,0.319157 0.07194,0.02654 0.143882,0.05308 0.218003,0.08043 0.229019,0.08458 0.457852,0.169646 0.686684,0.254729 0.155543,0.05754 0.311099,0.11505 0.466667,0.172526 0.380694,0.140731 0.761236,0.281864 1.141666,0.423307 0,0.044 0,0.088 0,0.133334 -0.03556,0.01292 -0.07113,0.02584 -0.107772,0.03915 -0.372074,0.135166 -0.744134,0.270369 -1.116186,0.405594 -0.138625,0.05038 -0.277254,0.100748 -0.415886,0.151107 -0.199922,0.07263 -0.399832,0.145286 -0.599739,0.217953 -0.09211,0.03345 -0.09211,0.03345 -0.186092,0.06757 -0.08803,0.03201 -0.08803,0.03201 -0.17784,0.06467 -0.05579,0.02024 -0.111579,0.04048 -0.169059,0.06134 -0.153498,0.05661 -0.305834,0.115739 -0.458285,0.175087 -0.235807,0.0842 -0.235807,0.0842 -0.435807,0.0842 -0.0076,0.06703 -0.0153,0.134063 -0.02318,0.203125 -0.03747,0.261579 -0.115356,0.498375 -0.205989,0.746875 -0.02879,0.08009 -0.05758,0.160188 -0.08724,0.242708 -0.08359,0.207292 -0.08359,0.207292 -0.216928,0.407292 -0.137532,0.02271 -0.137532,0.02271 -0.304687,0.01953 -0.05973,-6.67e-4 -0.119453,-0.0013 -0.18099,-0.002 -0.06248,-0.0017 -0.124953,-0.0034 -0.189323,-0.0051 -0.06299,-9e-4 -0.125984,-0.0018 -0.190885,-0.0027 -0.155854,-0.0024 -0.311632,-0.0057 -0.467448,-0.0098 0.07143,-0.182853 0.146517,-0.362749 0.226823,-0.541927 0.632294,-1.414215 0.758835,-2.841389 0.223177,-4.312239 C 16.353808,8.7425825 15.407588,7.7068789 14.059375,7.1372394 12.632489,6.6146907 11.255434,6.5994521 9.851302,7.1942706 9.67786,7.2622775 9.516716,7.3031603 9.333333,7.3333331 9.269385,7.2166987 9.205511,7.1000243 9.141666,6.9833331 9.106089,6.9183643 9.07051,6.8533956 9.033854,6.7864581 8.953054,6.6365795 8.874968,6.4861811 8.8,6.333333 c 1.26758,-0.6666667 1.26758,-0.6666667 1.866667,-0.6666667 0.0082,-0.075684 0.0082,-0.075684 0.01652,-0.1528971 0.07051,-0.3474635 0.195343,-0.6690915 0.319157,-1.0007488 0.03981,-0.1079116 0.03981,-0.1079116 0.08043,-0.2180033 0.08458,-0.2290192 0.169646,-0.4578524 0.254729,-0.6866842 0.05754,-0.1555435 0.11505,-0.3110989 0.172526,-0.4666667 0.140731,-0.3806941 0.281864,-0.761237 0.423307,-1.1416667 z"
       id="path3"
       style="stroke-width:0.999993" />
  </g>
</svg>
