<?xml version="1.0" encoding="UTF-8"?>
<svg id="svg1" width="24" height="24" preserveAspectRatio="xMidYMid" version="1.0" viewBox="0 0 18 18" xml:space="preserve" xmlns="http://www.w3.org/2000/svg"><path id="path1" d="m8.6986 0.80755c-0.19392 0.03497-0.44579 0.09204-0.56891 0.26084-0.21987 0.30144 0.1497 0.88425 0.40536 1.0506 0.19003 0.12365 0.55025 0.12471 0.76633 0.07044 0.34509-0.08666 0.81974-0.77715 0.56891-1.121-0.22612-0.31001-0.83404-0.32174-1.1717-0.26084m-6.4114 2.4953c0.15744-0.86923 1.3699-0.91904 1.752-0.16418 0.09642 0.19046 0.05632 0.45062 0.05632 0.65737 0 0.25179 0.05523 0.58259-0.03307 0.82198-0.14023 0.38019-0.64332 0.66438-0.9533 0.89724-0.18095 0.13594-0.4728 0.45472-0.71238 0.45479-0.32181 1.03e-4 -0.71839-0.52683-0.98637-0.69445l0.15509 4.0003 0.08833 1.2603 0.85255 0.84392 1.5892 1.2714 3.2238 2.6207 1.6533 1.9494h0.0548l1.6533-1.9494 3.2238-2.6207 1.5892-1.2714 0.85255-0.84392 0.08833-1.2603 0.15509-4.0003c-0.26798 0.16762-0.66456 0.69455-0.98637 0.69445-0.23958-7.7e-5 -0.53143-0.31886-0.71238-0.45479-0.30998-0.23286-0.81308-0.51705-0.9533-0.89724-0.0883-0.23939-0.03307-0.57018-0.03307-0.82198 0-0.20675-0.0401-0.46691 0.05632-0.65737 0.38214-0.75485 1.5946-0.70504 1.752 0.16418-0.39307-0.31485-0.9866-0.35592-1.2506 0.16461-0.09166 0.18076-0.06468 0.40643-0.06461 0.60257 5.8e-5 0.14918-0.02669 0.3396 0.05632 0.47242 0.08219 0.13151 0.25355 0.20689 0.38207 0.28376 0.18476 0.1105 0.43173 0.30282 0.65758 0.29543 0.32849-0.01075 0.94396-0.55879 1.0952-0.83458 0.16412-0.29918 0.16132-0.76066 0.23146-1.0938 0.02979-0.14153 0.08558-0.29575 0.03302-0.43839-0.15481-0.42018-0.67929-0.78361-1.0309-1.0298-0.30721-0.21504-0.65216-0.43633-1.0412-0.35813-0.72696 0.14612-1.7918 0.70028-2.1356 1.3879-0.26162 0.52324 0.25462 1.505-0.6043 1.6835-0.14101 0.0293-0.29516 0.01525-0.43839 0.01527l-0.0015-1.0232-0.93005-0.5112 0.0548 1.5344h-1.0412l0.0548-1.8083h-1.4796l0.0548 1.8083h-1.0412l0.0548-1.5344-0.93005 0.5112-0.0015 1.0232c-0.14322-1.6e-5 -0.29737 0.01404-0.43839-0.01527-0.85892-0.17848-0.34269-1.1602-0.6043-1.6835-0.3438-0.68761-1.4087-1.2418-2.1356-1.3879-0.38901-0.07819-0.73396 0.1431-1.0412 0.35813-0.35164 0.24614-0.87612 0.60957-1.0309 1.0298-0.05255 0.14264 0.0032 0.29685 0.03302 0.43839 0.07013 0.33315 0.06734 0.79463 0.23146 1.0938 0.15129 0.27579 0.76676 0.82382 1.0952 0.83458 0.22585 0.0074 0.47283-0.18493 0.65758-0.29543 0.12852-0.07687 0.29987-0.15224 0.38207-0.28376 0.08301-0.13282 0.05626-0.32324 0.05632-0.47242 7.6e-5 -0.19614 0.02705-0.42181-0.06461-0.60257-0.26395-0.52053-0.85748-0.47946-1.2506-0.16461m4.4934-1.7279c-0.30272 0.05544-0.67634 0.2495-0.74887 0.57712-0.0532 0.24032 0.12278 0.72985 0.42097 0.71208 0.32482-0.01935 0.67904-0.28912 0.74067-0.6027 0.07174-0.36503 0.05483-0.77214-0.41276-0.6865m4.0958 0.0307c-0.10605 0.08498-0.09579 0.26076-0.09446 0.38202 0.0044 0.40574 0.12969 0.6023 0.49221 0.77284 0.13392 0.063 0.28301 0.15416 0.42668 0.06495 0.57443-0.35672 0.16862-1.0513-0.31712-1.2091-0.1389-0.04513-0.37831-0.11411-0.50731-0.01074m-3.767 10.027 0.1145-1.6439 0.04989-4.7675c0.23466 0 0.88076-0.11275 1.0396 0.08786 0.09894 0.12492 0.05564 0.36692 0.05636 0.51492 0.0018 0.36657 0.05461 0.72774 0.05476 1.096 2.54e-4 0.65686 0.07873 1.317 0.10744 1.9727 0.02876 0.65681 0.01695 1.3169 0.06186 1.9727 0.03869 0.56494 0.0359 1.1365 0.10981 1.6987 0.01892 0.14396 0.11236 0.49284 0.31864 0.4586 0.18168-0.03016 0.25439-0.3101 0.27391-0.4586 0.06476-0.4927 0.01883-0.98956 0.08317-1.4796 0.09449-0.71967 0.05675-1.4669 0.0885-2.1919 0.0279-0.63721 0.10641-1.2798 0.10744-1.9179 6.16e-4 -0.38639 0.05288-0.76624 0.05476-1.1508 7.27e-4 -0.14799-0.04257-0.39 0.05636-0.51492 0.15889-0.20061 0.80498-0.08786 1.0396-0.08786l0.04989 4.7127 0.1145 1.6987c0.4336-0.3274 0.37782-0.97992 0.3838-1.4796 0.01354-1.1319 0.16731-2.2667 0.21683-3.3975 0.01516-0.34619 0.05192-0.69574 0.05674-1.0412 0.0018-0.13312-0.0315-0.34223 0.08808-0.43686 0.53708-0.42505 0.95819 0.55449 1.2283 0.79716 0.48045 0.43162 1.1975 0.86566 1.502 1.4481 0.11418 0.21839 0.08617 0.47394 0.08617 0.71238 0 0.45917 0.06365 0.97223-0.01805 1.4248-0.05451 0.30192-0.26743 0.50353-0.47517 0.71238l-0.93153 0.93157c-1.3007 1.3007-2.6149 2.5717-4.0003 3.7811-0.69296-0.43337-1.2811-1.0754-1.8631-1.6431-0.74887-0.73052-1.5061-1.4521-2.2467-2.1927-0.42131-0.4213-1.2409-0.97433-1.3519-1.5892-0.08171-0.45253-0.01806-0.96559-0.01806-1.4248 0-0.23844-0.028-0.49399 0.08617-0.71238 0.3045-0.5824 1.0215-1.0164 1.502-1.4481 0.31993-0.28741 0.5886-1.1146 1.1892-0.82041 0.16213 0.07943 0.12516 0.31178 0.12723 0.46012 5e-3 0.36095 0.03478 0.73509 0.05949 1.096 0.07588 1.1082 0.20079 2.232 0.21408 3.3427 6e-3 0.49963-0.0498 1.1522 0.3838 1.4796z"/></svg>
