<?xml version="1.0" encoding="UTF-8"?>
<svg id="svg5" width="24" height="24" version="1.1" xmlns="http://www.w3.org/2000/svg">
 <g id="g5" transform="matrix(.069908 0 0 .069908 1.5 2.1048)" stroke-width="14.304">
  <path id="path1" transform="translate(58,123)" d="m0 0c-0.046406 0.75281-0.092812 1.5056-0.14062 2.2812-0.76399 22.483 9.3204 43.218 24.141 59.719 11.108 11.403 24.1 19.372 37.788 27.318 10.639 6.2145 20.271 13.145 29.212 21.682 3.1432-1.3947 5.2352-3.0449 7.6875-5.4375 8.9783-8.1156 19.758-14.074 30.136-20.205 7.8652-4.6492 15.318-9.272 22.177-15.358 0.81211-0.67031 1.6242-1.3406 2.4609-2.0312 16.247-13.797 27.719-33.708 30.539-54.969 0.0652-2.2908 0.0859-4.5834 0.0625-6.875-9e-3 -1.1524-0.018-2.3048-0.0273-3.4922-0.01165-0.86883-0.02325-1.7377-0.0352-2.6328 5.4415 0.54844 9.5403 2.5162 14.312 5 1.0915 0.55301 1.0915 0.55301 2.2051 1.1172 5.3131 2.7135 5.3131 2.7135 6.4824 3.8828 0.72469 7.5368-1.5817 13.918-4 21 5.0061-3.7255 7.9558-7.5716 11-13 3.8438 1.7578 3.8438 1.7578 5.25 3.9375 0.75 2.0625 0.75 2.0625 0.75 5.0625 0.51949-0.37254 1.039-0.74508 1.5742-1.1289 1.0461-0.70963 1.0461-0.70963 2.1133-1.4336 0.68449-0.47566 1.369-0.95133 2.0742-1.4414 2.9207-1.2998 4.2521-1.0768 7.2383 0.003906 1.9492 1.707 1.9492 1.707 3.6875 3.8125 0.87205 1.0306 0.87205 1.0306 1.7617 2.082 2.1141 2.8702 3.3823 5.0444 3.9453 8.5898-0.54954 3.504-2.0157 4.5054-4.707 6.7656-1.3844 1.1776-1.3844 1.1776-2.7969 2.3789-1.4308 1.1737-1.4308 1.1737-2.8906 2.3711-0.83016 0.68965-1.6603 1.3793-2.5156 2.0898-2.2633 1.8641-4.5384 3.7128-6.8179 5.5571-3.3595 2.7276-6.7001 5.4783-10.042 8.228-0.72985 0.60054-1.4597 1.2011-2.2117 1.8198-4.9935 4.1163-9.9466 8.2771-14.877 12.468-5.9973 5.0915-12.104 10.047-18.208 15.009-4.9269 4.0156-9.806 8.0775-14.641 12.203-4.4361 3.7828-8.9534 7.4305-13.562 11-5.6735 4.3975-11.099 9.0267-16.49 13.764-4.947 4.324-10.043 8.421-15.244 12.435-2.2419 1.7302-4.3854 3.4206-6.3906 5.4258-0.18563 1.7016-0.18563 1.7016-0.375 3.4375-0.625 3.5625-0.625 3.5625-2.5 5.4375-5.1851 2.7451-10.213 2.3454-15.938 2.375-1.4782 0.0309-1.4782 0.0309-2.9863 0.0625-5.5062 0.02958-9.4448-0.19921-14.201-3.3125-1-1-1-1-1.1641-4.1953-1.1065-5.0362-3.2634-6.615-7.2109-9.6797-0.63704-0.51901-1.2741-1.038-1.9304-1.5728-1.8863-1.533-3.7896-3.0427-5.6946-4.5522-1.7727-1.4561-3.5437-2.9142-5.3125-4.375-0.87527-0.71156-1.7505-1.4231-2.6523-2.1562-3.8137-3.102-7.6136-6.2207-11.41-9.3438-0.73235-0.60223-1.4647-1.2045-2.2192-1.825-4.3981-3.6241-8.7596-7.2868-13.093-10.988-4.3104-3.6793-8.7081-7.2162-13.188-10.688-5.7435-4.4544-11.252-9.1343-16.721-13.92-5.3679-4.6946-10.856-9.2234-16.404-13.705-6.4381-5.2298-12.817-10.52-19.137-15.892-4.5585-3.8682-9.175-7.6596-13.816-11.429-2.0469-1.6797-2.0469-1.6797-3.0469-2.6797 0.13121-6.4295 2.6735-10.339 7-15 3.6159-3.0132 3.6159-3.0132 5.8125-2.9375 3.2303 1.3844 6.1685 3.1377 9.1875 4.9375 0.09668-0.72703 0.19336-1.4541 0.29297-2.2031 0.8057-3.1872 2-4.9695 4.0195-7.5469 0.59426-0.77859 1.1885-1.5572 1.8008-2.3594 2.0073-2.0115 3.1125-2.5232 5.8867-2.8906 0.47051 0.75926 0.94102 1.5185 1.4258 2.3008 0.62262 0.99387 1.2452 1.9877 1.8867 3.0117 0.92232 1.4792 0.92232 1.4792 1.8633 2.9883 1.6687 2.6532 1.6687 2.6532 3.5547 4.4297 1.2695 1.2695 1.2695 1.2695 1.2695 3.2695h2l-1.5-3.625c-2.1652-6.3532-1.7546-12.745-1.5-19.375 1.9347-0.83986 3.8729-1.6717 5.8125-2.5 1.0789-0.46406 2.1579-0.92812 3.2695-1.4062 2.918-1.0938 2.918-1.0938 5.918-1.0938z"/>
  <path id="path2" transform="translate(142)" d="m0 0c9.9599-1.0587 17.119 1.6779 25.137 7.5703 6.6028 5.9296 10.342 14.792 11.031 23.57 0.13651 14.743-6.1709 26.426-16.133 36.977-8.5001 8.6222-18.302 15.811-27.91 23.133-14.691 11.241-27.746 23.079-32.125 41.75-2.3659 21.588 5.6889 40.49 17.848 57.863 0.38027 0.70512 0.76055 1.4102 1.1523 2.1367l-1 3c-8.7506-5.3336-16.624-10.818-24-18-0.85465-0.79277-1.7093-1.5856-2.5898-2.4023-5.9308-5.6454-10.403-11.465-14.41-18.598-0.47309-0.83531-0.94617-1.6706-1.4336-2.5312-7.4212-13.918-9.2675-30.317-4.9414-45.594 8.7096-23.792 29.478-37.739 49.332-51.648 13.421-9.4256 25.624-19.039 29.918-35.602 0.24168-7.0087-1.9554-11.901-6.5625-17.125-0.93393-0.97453-0.93393-0.97453-1.8867-1.9688-1.4258-1.5312-1.4258-1.5312-1.4258-2.5312z"/>
  <path id="path3" transform="translate(179,61)" d="m0 0c17.247 6.1693 35.185 21.117 43.746 37.301 7.203 15.252 9.636 29.389 4.2539 45.699-3.6254 9.12-8.3513 17.746-15 25-0.85078 0.9423-1.7016 1.8846-2.5781 2.8555-8.9871 9.6202-20.102 18.206-32.422 23.145h-3c1.4769-4.2119 3.6906-7.6554 6.1875-11.312 10.28-15.567 17.975-34.179 14.121-53.078-3.7955-13.403-10.721-22.83-20.309-32.609-0.73992-0.77859-1.4798-1.5572-2.2422-2.3594-3.9636-4.1024-8.0108-7.4759-12.758-10.641 0.50932-4.0655 2.4172-5.5173 5.5-8.0625 5.5773-4.8219 9.9921-10.112 14.5-15.938z"/>
  <path id="path4" transform="translate(150,94)" d="m0 0c1.9804 2.9706 2.9884 5.5274 4.1875 8.875 7.4068 19.435 19.438 34.732 36.812 46.125-0.853 1.1467-1.7075 2.2923-2.5625 3.4375-0.54785 0.73606-1.0957 1.4721-1.6602 2.2305-1.1461 1.5038-2.3191 2.9877-3.5234 4.4453-8.8403 10.77-14.521 23.614-15.848 37.508-1.725 18.044-1.725 18.044-7.0312 23.316-3.8863 3.0625-3.8863 3.0625-5.375 3.0625-0.13959-7.9282-0.24591-15.856-0.31087-23.785-0.031192-3.6827-0.073436-7.3645-0.14176-11.047-0.065635-3.5598-0.10116-7.1187-0.11663-10.679-0.016332-2.0058-0.063101-4.0113-0.11052-6.0166-0.0026907-7.3658 0.61835-11.929 5.4855-17.621 1.4162-1.7784 1.4162-1.7784 1.0047-3.931-1.2301-2.9151-3.2239-4.8703-5.373-7.1707-0.82629-0.89203-1.6526-1.7841-2.5039-2.7031-0.63809-0.67547-1.2762-1.3509-1.9336-2.0469-6.3293 5.1677-6.3293 5.1677-12 11 0.35275 3.1554 1.6022 4.9128 3.532 7.3535 3.771 5.8933 3.0893 12.214 2.9563 18.99-0.00934 1.3786-0.016451 2.7572-0.021439 4.1359-0.018963 3.604-0.067968 7.207-0.12352 10.811-0.051426 3.687-0.074044 7.3741-0.099182 11.061-0.053398 7.2166-0.13858 14.432-0.24414 21.648-1.1055-0.93591-2.2094-1.8738-3.3125-2.8125-0.61488-0.52207-1.2298-1.0441-1.8633-1.582-3.6548-3.2166-5.1621-4.6366-5.5977-9.6211-0.09966-0.99685-0.19932-1.9937-0.302-3.0208-0.09886-1.0605-0.19771-2.121-0.29956-3.2136-2.1999-20.049-8.8507-37.479-23.625-51.75 1.4188-3.414 3.0066-4.9976 6-7.125 15.043-11.409 24.227-25.489 31-42.875 0.9843-2.3404 1.991-4.6701 3-7z"/>
  <path id="path5" transform="translate(131,11)" d="m0 0c-0.52268 2.7628-1.1087 5.3261-2 8-0.52868 5.3925 0.46033 8.5626 3.125 13.105 0.875 1.8945 0.875 1.8945 0.875 5.8945-1.8374 1.882-3.5761 3.4471-5.625 5.0625-0.78311 0.65065-0.78311 0.65065-1.582 1.3145-3.3942 2.7531-6.8258 4.8063-10.793 6.623-4.4256-8.4663-4.9868-16.035-2.3203-25.383 2.8101-6.3414 8.0556-10.985 14.195-14.055 2.125-0.5625 2.125-0.5625 4.125-0.5625z"/>
 </g>
</svg>
