<?xml version="1.0" encoding="UTF-8"?>
<svg id="svg3" version="1.1" viewBox="0 0 24 24" xmlns="http://www.w3.org/2000/svg">
 <g id="g3" transform="matrix(1.025 0 0 1.025 -.3 -.3)" stroke-width=".9756">
  <path id="path1" d="m2.7333 2.7333c0.49525 0.15044 0.94632 0.35518 1.4083 0.5875 0.11286 0.056606 0.11286 0.056606 0.22799 0.11436 1.011 0.51523 1.9738 1.1056 2.897 1.7648-0.022 0.056375-0.044 0.11275-0.066667 0.17083-0.099631 0.34248-0.11531 0.5884 0.033333 0.91667 0.033 0.059125 0.066 0.11825 0.1 0.17917v0.13333c0.043484-0.00309 0.086969-0.00619 0.13177-0.00937 0.39556-0.016336 0.62547 0.00345 0.9349 0.27604 0.39482 0.4061 0.48529 0.89661 0.55182 1.4388 0.059616 0.19947 0.14014 0.25496 0.31484 0.3612 0.042883-0.02982 0.085765-0.059641 0.12995-0.090365 0.40764-0.27273 0.80473-0.47044 1.2672-0.63359 0.37889-0.14202 0.64695-0.29486 0.92786-0.58854 0.05208-0.053883 0.10416-0.10777 0.15781-0.16328 0.03867-0.040992 0.07734-0.081984 0.11719-0.12422 0.02982 0.025781 0.05964 0.051563 0.09036 0.078125 0.04031 0.034719 0.08061 0.069438 0.12214 0.10521 0.03945 0.034031 0.07889 0.068062 0.11953 0.10312 0.04443 0.037469 0.08886 0.074937 0.13464 0.11354 0.04984 0.045289 0.09969 0.090578 0.15104 0.13724 0.21727 0.15426 0.43283 0.21657 0.68646 0.28359 1.1004 0.32028 1.9698 0.99705 2.55 1.9849 0.58224 1.0796 0.69856 2.2251 0.36406 3.4021-0.1615 0.51941-0.40309 0.97538-0.75156 1.3922 0.15208 0.33492 0.36085 0.59312 0.66667 0.8 0.26283 0.05161 0.5131 0.03054 0.77917 0.0125 0.5061-0.01014 0.86185 0.0048 1.2421 0.36115 0.44536 0.48574 0.44536 0.48574 0.44536 0.69302-0.495 0.066-0.495 0.066-1 0.13333 0.18412 0.09206 0.34418 0.05709 0.54482 0.04544 0.69654-0.03384 0.69654-0.03384 0.98643 0.13971 0.12814 0.13208 0.2365 0.2599 0.33542 0.41484-0.022 0.044-0.044 0.088-0.06667 0.13333-0.16996 0.02083-0.33358 0.0342-0.50417 0.04167-0.04739 0.0026-0.09479 0.0052-0.14362 0.0078-0.11737 0.0063-0.23479 0.01182-0.35221 0.01719l0.06667 0.06667c0.13973-0.01045 0.27946-0.0209 0.41919-0.0314 0.78823-0.04694 0.78823-0.04694 1.0946 0.19207 0.18426 0.17388 0.34164 0.36442 0.4862 0.57266v0.06667c-0.462 0.022-0.924 0.044-1.4 0.06667 0.08662 0.07975 0.17325 0.1595 0.2625 0.24167 0.17654 0.17686 0.26463 0.27436 0.35 0.5125-0.0125 0.17917-0.0125 0.17917-0.08333 0.30833-0.12917 0.07083-0.12917 0.07083-0.30833 0.08333-0.33773-0.12107-0.51247-0.34996-0.75417-0.6125-0.022 0.462-0.044 0.924-0.06667 1.4-0.50907-0.43634-1.0084-0.87818-1.4951-1.3392-0.10813-0.10102-0.21766-0.20056-0.32858-0.2985-0.97746-0.86596-0.97746-0.86596-1.0504-1.5148-0.01405-0.27993-0.0027-0.5527 0.01488-0.83213 0.01059-0.25657-0.0065-0.39728-0.16349-0.60319-0.16218-0.15985-0.31767-0.2917-0.51058-0.41214-0.03403 0.01942-0.06806 0.03885-0.10312 0.05886-1.1329 0.63877-1.1329 0.63877-1.7427 0.79531-0.46104 0.12942-0.72048 0.38261-1.0208 0.74583-0.02905-0.02501-0.05809-0.05002-0.08802-0.07578-0.0836-0.07184-0.16757-0.14325-0.25182-0.21432-0.10307-0.089322-0.20122-0.1843-0.29766-0.28074-0.26536-0.22338-0.60382-0.29944-0.92708-0.40911-1.0258-0.37788-1.8117-1.2056-2.2896-2.1742-0.45304-1.0775-0.47126-2.2173-0.079167-3.3125 0.18401-0.44213 0.41741-0.8583 0.66667-1.2667-0.17997-0.2413-0.38889-0.24716-0.675-0.29167-0.4671-0.083265-0.88661-0.18699-1.2203-0.54349-0.21853-0.32025-0.1985-0.65677-0.17135-1.0315-0.51457-0.20861-0.86652-0.25703-1.4-0.066667-0.74975-1.0887-1.4121-2.2117-2.0083-3.3917-0.030771-0.060607-0.061542-0.12121-0.093245-0.18366-0.1567-0.31569-0.28197-0.61526-0.36509-0.95801zm7.7792 6.4292c-0.04301 0.022559-0.08602 0.045117-0.13034 0.068359-0.10561 0.055543-0.21062 0.11223-0.31549 0.16914 0 0.31731 0.22245 0.45301 0.43724 0.67109 0.08882 0.08856 0.08882 0.08856 0.17943 0.17891 0.08727 0.0901 0.08727 0.0901 0.1763 0.18203 0.05629 0.05646 0.11258 0.11292 0.17057 0.17109 0.05167 0.05214 0.10334 0.10428 0.15658 0.15801 0.13581 0.12268 0.13581 0.12268 0.28744 0.08981 0.04151-0.01681 0.08302-0.03362 0.12578-0.05094 0.45479-0.04548 0.84722-0.05467 1.225 0.2263 0.29049 0.287 0.38922 0.58191 0.39583 0.9862-0.0053 0.17425-0.01767 0.31133-0.07298 0.47721-0.03444 0.18565-0.03444 0.18565 0.10031 0.33719 0.05621 0.05411 0.11242 0.10823 0.17033 0.16398 0.06037 0.05908 0.12074 0.11816 0.18294 0.17904 0.06478 0.06144 0.12958 0.12285 0.1944 0.18424 0.06463 0.06262 0.12917 0.12534 0.19362 0.18815 0.15822 0.15349 0.31729 0.30598 0.47721 0.45768 0.55542-0.53939 0.7436-1.2219 0.75833-1.9792-0.0029-0.96259-0.36384-1.6722-1.0083-2.3708-0.29862-0.28866-0.64568-0.4695-1.0167-0.65-0.044-0.022-0.088-0.044-0.13333-0.066667-0.38061-0.0366-0.57119 0.024906-0.86667 0.26666-0.1222 0.14038-0.1222 0.14038-0.2 0.26667-0.1882-0.079621-0.30578-0.16746-0.4625-0.30417-0.38767-0.30856-0.6129-0.22536-1.025 0zm-1.0458 0.8375c-0.5778 0.84421-0.79761 1.7133-0.63594 2.7258 0.22641 0.82707 0.71254 1.529 1.4302 2.0023 0.28508 0.16137 0.54341 0.29993 0.8724 0.33854 0.31498-0.11812 0.50154-0.2951 0.73333-0.53333h0.13333c0.08296 0.10043 0.16584 0.20093 0.24792 0.30208 0.16954 0.19435 0.30867 0.22517 0.56042 0.26042 0.48671-0.05495 0.85494-0.28282 1.1917-0.62917-0.18249-0.19238-0.36628-0.38342-0.55135-0.57332-0.06276-0.06477-0.12516-0.1299-0.18717-0.19538-0.08923-0.09408-0.1799-0.1868-0.27059-0.27948-0.05411-0.05621-0.10823-0.11242-0.16398-0.17033-0.15154-0.13475-0.15154-0.13475-0.33719-0.10031-0.07741 0.02581-0.07741 0.02581-0.15638 0.05215-0.45242 0.04502-0.82865 0.01378-1.2-0.26667-0.24125-0.30311-0.34284-0.54058-0.34167-0.925-2.67e-4 -0.0843-2.67e-4 -0.0843-5.34e-4 -0.17031 0.0089-0.17135 0.0089-0.17135 0.06043-0.32847 0.03497-0.18482 0.03497-0.18482-0.09867-0.33646-0.05578-0.05411-0.11157-0.10823-0.16904-0.16398-0.06007-0.05908-0.12014-0.11816-0.18203-0.17904-0.06449-0.06142-0.12899-0.12284-0.19349-0.18424-0.06406-0.06263-0.12804-0.12534-0.19193-0.18815-0.24455-0.28947-0.24455-0.28947-0.54974-0.45768zm2.2042 1.6708c-0.11528 0.21021-0.06144 0.37084-0.0042 0.59583 0.18838 0.15469 0.18838 0.15469 0.40417 0.12083 0.21566-0.03667 0.21566-0.03667 0.32917-0.25417 0.02359-0.18872 0.02614-0.29122-0.075-0.45417-0.21743-0.13771-0.43037-0.13106-0.65417-0.0083z"/>
  <path id="path2" d="m6.3333 8.8c0.22005 0.10793 0.43504 0.22395 0.65 0.34167 0.065656 0.035922 0.13131 0.071844 0.19896 0.10885 0.049844 0.027328 0.099688 0.054657 0.15104 0.082813-0.042433 0.25837-0.12228 0.47636-0.225 0.71667-0.51829 1.3235-0.48936 2.7507 0.05581 4.0617 0.58525 1.3163 1.6439 2.2823 2.9692 2.8216 1.3529 0.46795 2.7848 0.44958 4.0893-0.17292 0.13985-0.07051 0.27908-0.14226 0.41745-0.21562 0.1599-0.07813 0.1599-0.07813 0.29323-0.07813v1.3333c-0.34938 0.17469-0.62485 0.30826-0.9875 0.41667-0.0733 0.02234-0.14661 0.04469-0.22214 0.06771-0.19036 0.04896-0.19036 0.04896-0.39036 0.04896-0.0055 0.05046-0.0109 0.10091-0.01652 0.1529-0.07051 0.34746-0.19534 0.66909-0.31916 1.0007-0.02654 0.07194-0.05308 0.14388-0.08043 0.218-0.08458 0.22902-0.16965 0.45785-0.25473 0.68668-0.05754 0.15554-0.11505 0.3111-0.17253 0.46667-0.14073 0.3807-0.28186 0.76124-0.4233 1.1417h-0.13333c-0.01292-0.03556-0.02584-0.07113-0.03915-0.10777-0.13517-0.37207-0.27037-0.74413-0.40559-1.1162-0.05038-0.13862-0.10075-0.27725-0.15111-0.41589-0.07263-0.19992-0.14529-0.39983-0.21795-0.59974-0.03345-0.09211-0.03345-0.09211-0.06757-0.18609-0.03201-0.08803-0.03201-0.08803-0.06467-0.17784-0.02024-0.05579-0.04048-0.11158-0.06134-0.16906-0.05661-0.1535-0.11574-0.30583-0.17509-0.45828-0.0842-0.23581-0.0842-0.23581-0.0842-0.43581-0.04056-0.0042-0.08113-0.0084-0.12292-0.01276-1.2284-0.17162-2.2655-0.87902-3.1437-1.7206-0.042453-0.039015-0.084906-0.078031-0.12865-0.11823-0.77863-0.7371-1.3531-1.8424-1.6047-2.8818v-0.26667c-0.050456-0.0055-0.10091-0.0109-0.1529-0.01652-0.34746-0.070513-0.66909-0.19534-1.0007-0.31916-0.071941-0.026541-0.14388-0.053081-0.218-0.080427-0.22902-0.084578-0.45785-0.16965-0.68668-0.25473-0.15554-0.057541-0.3111-0.11505-0.46667-0.17253-0.38069-0.14073-0.76124-0.28186-1.1417-0.42331v-0.13333c0.035565-0.01292 0.071129-0.02584 0.10777-0.03915 0.37207-0.13516 0.74413-0.27037 1.1162-0.40559 0.13862-0.05038 0.27725-0.10075 0.41589-0.15111 0.19992-0.07263 0.39983-0.14529 0.59974-0.21795 0.06141-0.0223 0.12282-0.0446 0.18609-0.06757 0.058687-0.02134 0.11737-0.04268 0.17784-0.06467 0.05579-0.02024 0.11158-0.04048 0.16906-0.06134 0.1535-0.05661 0.30583-0.11574 0.45828-0.17509 0.23581-0.0842 0.23581-0.0842 0.43581-0.0842 0.00705-0.07743 0.014094-0.15486 0.021354-0.23464 0.036649-0.29197 0.12302-0.54132 0.23698-0.8112 0.025652-0.063744 0.025652-0.063744 0.051823-0.12878 0.10032-0.24426 0.21443-0.46958 0.35651-0.69206z"/>
  <path id="path3" d="m11.933 2h0.13333c0.01292 0.035565 0.02584 0.071129 0.03915 0.10777 0.13517 0.37207 0.27037 0.74413 0.40559 1.1162 0.05038 0.13862 0.10075 0.27725 0.15111 0.41589 0.07263 0.19992 0.14529 0.39983 0.21795 0.59974 0.0223 0.06141 0.0446 0.12282 0.06757 0.18609 0.02134 0.058687 0.04268 0.11737 0.06467 0.17784 0.02024 0.05579 0.04048 0.11158 0.06134 0.16906 0.05661 0.1535 0.11574 0.30583 0.17509 0.45828 0.0842 0.23581 0.0842 0.23581 0.0842 0.43581 0.10519 0.00619 0.10519 0.00619 0.2125 0.0125 1.0107 0.1299 1.9639 0.73848 2.7208 1.3875 0.03927 0.029649 0.07855 0.059297 0.11901 0.089844 0.99458 0.76886 1.639 2.049 1.9477 3.2435v0.26667c0.05046 0.0055 0.10091 0.0109 0.1529 0.01652 0.34746 0.07051 0.66909 0.19534 1.0007 0.31916 0.07194 0.02654 0.14388 0.05308 0.218 0.08043 0.22902 0.08458 0.45785 0.16965 0.68668 0.25473 0.15554 0.05754 0.3111 0.11505 0.46667 0.17253 0.38069 0.14073 0.76124 0.28186 1.1417 0.42331v0.13333c-0.03556 0.01292-0.07113 0.02584-0.10777 0.03915-0.37207 0.13517-0.74413 0.27037-1.1162 0.40559-0.13862 0.05038-0.27725 0.10075-0.41589 0.15111-0.19992 0.07263-0.39983 0.14529-0.59974 0.21795-0.09211 0.03345-0.09211 0.03345-0.18609 0.06757-0.08803 0.03201-0.08803 0.03201-0.17784 0.06467-0.05579 0.02024-0.11158 0.04048-0.16906 0.06134-0.1535 0.05661-0.30583 0.11574-0.45828 0.17509-0.23581 0.0842-0.23581 0.0842-0.43581 0.0842-0.0076 0.06703-0.0153 0.13406-0.02318 0.20312-0.03747 0.26158-0.11536 0.49838-0.20599 0.74688-0.02879 0.08009-0.05758 0.16019-0.08724 0.24271-0.08359 0.20729-0.08359 0.20729-0.21693 0.40729-0.13753 0.02271-0.13753 0.02271-0.30469 0.01953-0.05973-6.67e-4 -0.11945-0.0013-0.18099-2e-3 -0.06248-0.0017-0.12495-0.0034-0.18932-0.0051-0.06299-9e-4 -0.12598-0.0018-0.19088-0.0027-0.15585-0.0024-0.31163-0.0057-0.46745-0.0098 0.07143-0.18285 0.14652-0.36275 0.22682-0.54193 0.63229-1.4142 0.75884-2.8414 0.22318-4.3122-0.56286-1.3365-1.5091-2.3722-2.8573-2.9419-1.4269-0.52255-2.8039-0.53779-4.2081 0.057031-0.17344 0.068007-0.33459 0.10889-0.51797 0.13906-0.063948-0.11663-0.12782-0.23331-0.19167-0.35-0.035577-0.064969-0.071156-0.12994-0.10781-0.19688-0.0808-0.14988-0.15889-0.30028-0.23385-0.45313 1.2676-0.66667 1.2676-0.66667 1.8667-0.66667 0.0082-0.075684 0.0082-0.075684 0.01652-0.1529 0.07051-0.34746 0.19534-0.66909 0.31916-1.0007 0.03981-0.10791 0.03981-0.10791 0.08043-0.218 0.08458-0.22902 0.16965-0.45785 0.25473-0.68668 0.05754-0.15554 0.11505-0.3111 0.17253-0.46667 0.14073-0.38069 0.28186-0.76124 0.42331-1.1417z"/>
 </g>
</svg>
