<?xml version="1.0" encoding="UTF-8"?>
<svg id="svg1" preserveAspectRatio="xMidYMid" version="1.0" viewBox="0 0 24 24" xml:space="preserve" xmlns="http://www.w3.org/2000/svg"><path id="path1" d="m2.1755 12.582h0.051348c-0.07875-0.42674-0.16343-0.85072-0.20538-1.2814-0.027265-0.27993 0.024737-0.54687 0.051348-0.82011 0.13653-1.402 0.6284-2.7791 1.5917-3.8442 0.59316-0.65592 1.2669-1.1252 2.0024-1.589l0.094134 1.589 0.21393 0.66634c0.1048-0.20925 0.13679-0.44634 0.22249-0.66634 0.1862-0.47799 0.41581-0.9651 0.71882-1.3839 1.1507-1.5906 2.8294-2.4782 4.7579-2.6653 0.63576-0.061707 1.2299 0.15628 1.8484 0.20503-0.16823-0.23665-0.51238-0.39244-0.77016-0.52111-0.5372-0.26814-1.0562-0.51216-1.643-0.67488-2.6862-0.74489-5.441 0.010067-7.4962 1.8623-1.7934 1.6163-2.4856 4.1842-2.2591 6.5096 0.09225 0.94721 0.50123 1.7462 0.82151 2.6141m12.99-9.79c-0.75111 0.37492-1.5811 0.64288-2.3618 0.95679-0.3269 0.13145-0.68396 0.24613-0.97554 0.44422-1.0889 0.73981-1.9223 1.7907-2.7384 2.802-0.66397 0.82283-1.3456 1.632-2.0024 2.4603-0.073654 0.092882-0.1808 0.28411-0.29095 0.33317-0.13434 0.059836-0.27129-0.094607-0.41075-0.059797-0.17607 0.043941-0.32794 0.25018-0.41075 0.39297h-0.051348c-0.2043-0.343-0.66118-0.52421-0.87285-0.87136-0.099778-0.16364-0.049063-0.4855-0.21393-0.58945-0.10401-0.065576-0.29435-0.024353-0.4022 0.0085759-0.33609 0.10252-0.75625 0.53806-0.65892 0.93971 0.04838 0.19963 0.46028 0.15101 0.60757 0.23065 0.11939 0.064562 0.21329 0.1873 0.30807 0.28191 0.26246 0.26202 0.78206 0.66317 0.71882 1.0764-0.049093 0.32082-0.51183 0.47816-0.7017 0.71759-0.25524 0.32186-0.3289 0.69754-0.54767 1.0251-0.16555 0.2479-0.45418 0.37674-0.63324 0.61508-0.099947 0.13304-0.10497 0.34899-0.23105 0.45277-0.19197 0.15802-0.49979-0.1674-0.69315 0.02562-0.085924 0.08578-0.06846 0.23217-0.06846 0.34171 0 0.31316 0.015102 0.62534 0.26528 0.85428 0.23277 0.21301 0.51728 0.22211 0.81295 0.22211 0.10973 0 0.25637 0.01743 0.34229-0.06834 0.18458-0.18426-0.097983-0.45223-0.00859-0.64925 0.073048-0.16094 0.35412-0.18071 0.48777-0.27337 0.24624-0.1707 0.3667-0.46616 0.61613-0.63216 0.32859-0.21869 0.70546-0.28913 1.0269-0.54674 0.23195-0.1859 0.3725-0.60199 0.66747-0.69196 0.42252-0.12888 0.87019 0.45012 1.1296 0.70905 0.094769 0.09461 0.21772 0.18836 0.28239 0.30754 0.079784 0.14704 0.031082 0.55824 0.23105 0.60654 0.40233 0.09717 0.83861-0.32228 0.94131-0.65779 0.032956-0.10766 0.074249-0.29768 0.00859-0.40151-0.10413-0.16459-0.42654-0.11395-0.59046-0.21356-0.34774-0.21131-0.52926-0.66741-0.87285-0.87136v-0.05126l0.39364-0.41005 0.017113-0.49548 1.643-1.3156 2.2591-1.8282-0.77016-2.204 1.6944 1.1789h0.05135c0.84757-0.84613 1.1715-1.9404 1.6088-3.0241l0.30807-0.76885c0.05019-0.12441 0.13142-0.24691 0.08557-0.3588m0.10269 1.7427 0.15403 2.204-0.37652 1.6915-0.54767 1.2302-0.522-1.1276-1.0183-1.2302-0.71882-0.51257 0.41075 1.999 0.05135 0.51257-0.20537 1.2814-0.75305-0.97388-0.5819-0.51257c0.75247 2.595-0.68301 5.6397-3.3887 6.39-0.94735 0.26271-1.8154 0.24436-2.7726 0.06834v0.05126c0.71316 0.2623 1.3473 0.66516 2.1051 0.85428 1.9799 0.49412 4.1586 0.16961 5.9046-0.87136 2.8598-1.705 4.1738-5.0983 3.5085-8.2865-0.14547-0.69705-0.41284-1.3198-0.72738-1.9477-0.13789-0.27531-0.28467-0.61964-0.522-0.82011z"/></svg>
