<?xml version="1.0" encoding="UTF-8" standalone="no"?>
<svg
   version="1.0"
   width="24"
   height="24"
   viewBox="0 0 18 18"
   preserveAspectRatio="xMidYMid"
   id="svg1"
   sodipodi:docname="030-03-006.fighter-symbol.svg"
   xml:space="preserve"
   inkscape:version="1.3.2 (091e20e, 2023-11-25, custom)"
   xmlns:inkscape="http://www.inkscape.org/namespaces/inkscape"
   xmlns:sodipodi="http://sodipodi.sourceforge.net/DTD/sodipodi-0.dtd"
   xmlns="http://www.w3.org/2000/svg"
   xmlns:svg="http://www.w3.org/2000/svg"><defs
     id="defs1" /><sodipodi:namedview
     id="namedview1"
     pagecolor="#ffffff"
     bordercolor="#111111"
     borderopacity="1"
     inkscape:showpageshadow="0"
     inkscape:pageopacity="0"
     inkscape:pagecheckerboard="1"
     inkscape:deskcolor="#d1d1d1"
     inkscape:document-units="px"
     inkscape:zoom="14.679537"
     inkscape:cx="9.2645975"
     inkscape:cy="12.432272"
     inkscape:window-width="1366"
     inkscape:window-height="697"
     inkscape:window-x="-8"
     inkscape:window-y="-8"
     inkscape:window-maximized="1"
     inkscape:current-layer="svg1" /><g
     transform="matrix(0.1,0,0,-0.1,0,300)"
     fill="#000000"
     stroke="none"
     id="g1" /><path
     style="stroke:none;stroke-width:0.999997"
     d="m 2.0090871,12.676102 h 0.0526 c -0.08067,-0.437899 -0.167418,-0.872954 -0.210386,-1.314909 -0.02793,-0.287243 0.02534,-0.561159 0.0526,-0.841542 0.139863,-1.4386022 0.643726,-2.8517002 1.630487,-3.944728 0.607629,-0.673067 1.29776,-1.154594 2.051259,-1.630488 l 0.09643,1.630488 0.219151,0.6837531 C 6.0085871,7.0439591 6.0413571,6.800665 6.1291461,6.574923 6.3198881,6.084443 6.5551021,5.584595 6.8654951,5.154821 8.0442826,3.522652 9.763915,2.611871 11.739427,2.419809 12.390693,2.356489 12.999306,2.580174 13.632896,2.630195 13.46056,2.387359 13.108024,2.227502 12.843951,2.095465 12.293653,1.820316 11.761985,1.569923 11.160867,1.402945 8.40918,0.63858501 5.5871551,1.413275 3.4817951,3.313948 c -1.83714,1.65853 -2.54623602,4.2935128 -2.314241,6.6797388 0.0945,0.9719722 0.513452,1.7918862 0.841542,2.6824152 M 15.315971,2.630195 C 14.546541,3.014911 13.696267,3.28988 12.896538,3.611994 12.56166,3.746875 12.195898,3.864553 11.897207,4.067828 10.781725,4.826976 9.928013,5.905371 9.092067,6.943098 8.411908,7.7874318 7.7136606,8.6178048 7.0408076,9.4677238 c -0.075451,0.09531 -0.1852105,0.291533 -0.2980465,0.341876 -0.137616,0.0614 -0.277904,-0.09708 -0.420771,-0.06136 -0.180365,0.04509 -0.335941,0.2567152 -0.420771,0.4032382 h -0.0526 c -0.20928,-0.3519692 -0.677307,-0.5379132 -0.894138,-0.8941382 -0.102212,-0.167918 -0.05026,-0.498187 -0.219152,-0.604858 -0.106546,-0.06729 -0.301526,-0.02499 -0.412005,0.0088 -0.34429,0.105199 -0.774698,0.552126 -0.674987,0.964267 0.04956,0.204845 0.471508,0.154955 0.62239,0.236683 0.1223,0.06625 0.218494,0.1921962 0.315579,0.2892802 0.268865,0.268865 0.80113,0.680501 0.736349,1.104524 -0.05029,0.329201 -0.52431,0.490656 -0.718817,0.73635 -0.261469,0.330276 -0.336926,0.715774 -0.561028,1.051927 -0.169587,0.25438 -0.465257,0.386581 -0.648689,0.631157 -0.102385,0.136512 -0.107533,0.358108 -0.236684,0.464601 -0.19665,0.16215 -0.511978,-0.171775 -0.710051,0.0263 -0.08802,0.08802 -0.07013,0.238235 -0.07013,0.350643 0,0.321347 0.01547,0.641682 0.271748,0.876605 0.238452,0.218582 0.529894,0.227918 0.832776,0.227918 0.112407,0 0.262619,0.01789 0.350642,-0.07013 0.189082,-0.18908 -0.100373,-0.464051 -0.0088,-0.66622 0.07483,-0.165145 0.362753,-0.185436 0.499666,-0.280515 0.252242,-0.175167 0.375645,-0.478347 0.631157,-0.648687 0.336609,-0.224407 0.722663,-0.296691 1.051927,-0.561029 0.237611,-0.190758 0.381584,-0.617721 0.683753,-0.710051 0.4328205,-0.13225 0.8914155,0.461879 1.1571205,0.727584 0.09708,0.09708 0.223035,0.193279 0.28928,0.315578 0.08173,0.150882 0.03184,0.572831 0.2366844,0.62239 0.412141,0.09971 0.859067,-0.330698 0.964266,-0.674986 0.03376,-0.110479 0.07606,-0.305462 0.0088,-0.412006 C 9.239604,13.094569 8.909337,13.146526 8.741417,13.044314 8.385193,12.827482 8.199248,12.359455 7.8472786,12.150176 v -0.0526 l 0.4032394,-0.420771 0.01753,-0.508431 1.683084,-1.3499742 2.314241,-1.875937 -0.788946,-2.2616438 1.73568,1.209716 h 0.0526 C 14.132955,6.022286 14.464828,4.89937 14.912726,3.787349 l 0.315579,-0.788945 c 0.05142,-0.127659 0.134627,-0.253368 0.08766,-0.368175 m 0.105193,1.788277 0.157789,2.261644 -0.385707,1.7356798 -0.561028,1.262313 -0.53473,-1.15712 -1.043161,-1.2623127 -0.736349,-0.5259641 0.420771,2.0512588 0.0526,0.525963 -0.210385,1.3149102 -0.771414,-0.9993312 -0.596092,-0.525964 c 0.770824,2.6628542 -0.699665,5.7870982 -3.4713614,6.5570142 -0.9704605,0.269573 -1.8597045,0.250748 -2.8402045,0.07013 v 0.0526 c 0.730549,0.26915 1.380192,0.682541 2.1564515,0.876605 2.0281454,0.507036 4.2600074,0.174039 6.0485844,-0.894138 2.929522,-1.749576 4.275646,-5.231588 3.594085,-8.5030799 C 16.551992,6.543442 16.278094,5.904457 15.955891,5.260052 15.814638,4.977544 15.664274,4.624219 15.421162,4.41851 Z"
     id="path1" /></svg>
