<?xml version="1.0" encoding="UTF-8" standalone="no"?>
<svg
   version="1.0"
   width="24"
   height="24"
   viewBox="0 0 18 18"
   preserveAspectRatio="xMidYMid"
   id="svg1"
   sodipodi:docname="031-03-007.monk-symbol.svg"
   xml:space="preserve"
   inkscape:version="1.3.2 (091e20e, 2023-11-25, custom)"
   xmlns:inkscape="http://www.inkscape.org/namespaces/inkscape"
   xmlns:sodipodi="http://sodipodi.sourceforge.net/DTD/sodipodi-0.dtd"
   xmlns="http://www.w3.org/2000/svg"
   xmlns:svg="http://www.w3.org/2000/svg"><defs
     id="defs1" /><sodipodi:namedview
     id="namedview1"
     pagecolor="#ffffff"
     bordercolor="#111111"
     borderopacity="1"
     inkscape:showpageshadow="0"
     inkscape:pageopacity="0"
     inkscape:pagecheckerboard="1"
     inkscape:deskcolor="#d1d1d1"
     inkscape:document-units="pt"
     inkscape:zoom="14.679537"
     inkscape:cx="10.286428"
     inkscape:cy="6.8462651"
     inkscape:window-width="1366"
     inkscape:window-height="697"
     inkscape:window-x="-8"
     inkscape:window-y="-8"
     inkscape:window-maximized="1"
     inkscape:current-layer="svg1" /><g
     transform="matrix(0.1,0,0,-0.1,0,300)"
     fill="#000000"
     stroke="none"
     id="g1" /><path
     style="stroke:none;stroke-width:1"
     d="M 5.2802442,7.0774662 C 4.9134119,6.9551892 4.7299751,6.6285737 4.441545,6.3912576 4.0379916,6.05922 3.6706515,5.6966095 3.2978641,5.3238219 3.1102055,5.1361635 2.7016087,4.6700882 2.4210411,4.6884431 c -0.1033995,0.00676 -0.1588364,0.0718 -0.228736,0.1397836 -0.3817693,0.3713104 0.06997,0.9260884 0.3431045,1.2580492 0.181835,0.2209992 0.4281292,0.3889641 0.6099632,0.6099632 0.5458198,0.6633812 1.2452709,1.2038091 1.791767,1.8680124 0.3095623,0.3762369 0.6434505,0.7196951 0.9911905,1.0674352 l -0.038122,0.038122 C 5.7598766,9.6096576 5.5894164,9.5704753 5.4772113,9.4728425 5.3173995,9.3337848 5.2305525,9.1029791 5.0896311,8.9454785 4.801051,8.6229474 4.2097663,8.3495496 3.8315817,8.6786196 3.7505152,8.7491553 3.7012117,8.8580283 3.6409686,8.9454785 3.876285,9.180795 4.0602373,9.4502526 4.212809,9.7460552 c 0.1023605,0.1984551 0.1619213,0.4360908 0.3049817,0.6099628 0.234389,0.284873 0.530966,0.353134 0.8259912,0.546426 0.6473205,0.424106 1.0816743,0.935707 1.9188434,0.978482 0.1952722,0.01 0.6122688,0.07374 0.7561006,-0.08259 0.092496,-0.10054 0.1002362,-0.27416 0.1334294,-0.400289 C 8.2235369,11.126781 8.318323,10.854259 8.4126601,10.591108 8.7909123,9.5359814 9.1629263,8.4790554 9.3847887,7.3697405 9.4550529,7.018394 9.6474187,6.4548166 9.5309251,6.1053374 9.4310515,5.8057145 8.9782122,5.5502 8.7494106,5.3619447 8.2017274,4.9113195 7.8719327,4.2322939 7.2880402,3.8497441 7.0089714,3.6669062 6.4051808,3.5178865 6.3540344,4.0340041 6.3319004,4.2573235 6.5675295,4.3734434 6.6907839,4.5232453 6.9959478,4.8941363 7.5293566,5.2853177 7.6819744,5.7431717 7.315143,5.620895 7.1317043,5.2942786 6.8432752,5.0569631 6.3441858,4.6463198 5.8930865,4.1830199 5.4327355,3.7226685 5.1959547,3.4858885 4.7902016,3.0097052 4.435191,2.9792756 4.0461541,2.9459305 3.8856385,3.4185431 4.0984405,3.6845458 4.6584602,4.3845699 5.396582,4.936191 5.9664531,5.6288035 6.0941,5.7839438 6.1792013,5.9716956 6.3095576,6.1243987 5.9076804,6.0255764 5.6408863,5.6844636 5.3564899,5.4000674 4.8840701,4.927648 4.3751959,4.4950185 3.9078274,4.0276501 3.6620959,3.7819187 3.2698604,3.2315173 2.8594531,3.3605029 2.2570878,3.5498174 2.6585415,4.1435114 2.9166408,4.4088771 3.4832192,4.9914152 4.0771211,5.6105127 4.5940392,6.2387668 4.8313553,6.5271962 5.157971,6.7106341 5.2802481,7.0774662 M 5.4708574,1.3971838 c 0.3940283,0.1709949 0.878513,0.1638865 1.2898182,0.3113356 1.8231907,0.6535958 3.3008064,2.089365 3.3611514,4.1108978 0.02651,0.8879792 -0.2002259,1.8310361 -0.4511176,2.6749429 -0.4161741,1.3998527 -0.9446787,2.7663269 -1.315234,4.1744349 -0.3090213,1.174279 -0.7192727,2.885303 0.5210106,3.697902 0.4451924,0.291679 0.9043425,0.366111 1.397832,0.508303 l 0.03812,-0.03812 C 10.102655,16.657792 9.8453289,16.561234 9.6643555,16.341282 9.0671786,15.615482 9.1265453,14.430316 9.3339589,13.571033 9.9255858,11.12 11.383003,8.9184712 11.786519,6.416673 c 0.112932,-0.7001835 0.175535,-1.4896147 0,-2.1857019 C 11.489346,3.052525 10.656399,2.1028802 9.5754019,1.5623821 9.0328071,1.2910847 8.4048956,1.1477122 7.7963429,1.1303249 7.0178485,1.1080821 6.2187847,1.1478743 5.4708574,1.3971838 m 6.9383316,3.4310431 c 0.331626,3.2689018 -2.11367,5.9681461 -2.5033895,9.0859101 -0.1390718,1.112572 -0.00118,2.252714 1.1627415,2.700358 0.211889,0.0815 0.427396,0.106426 0.65444,0.108014 0.217997,0.0016 0.440643,0.01719 0.648086,-0.03812 C 11.971943,16.343673 11.527268,16.235362 11.240093,15.756736 10.81751,15.052431 10.960856,14.128524 11.113018,13.367714 11.455432,11.655641 12.275164,10.16084 12.822186,8.5197775 13.12209,7.6200647 13.255522,6.6556039 12.949261,5.7368198 12.863131,5.4784323 12.655549,4.9315406 12.409189,4.8282289 m -0.266858,7.0526991 1.150035,-0.374873 0.717977,-0.273213 -1.219927,-1.067435 -0.501948,1.17545 -0.146137,0.540071 m -0.571841,2.706712 1.988734,-0.679855 2.395377,-0.80693 C 15.598485,12.725489 15.3001,12.278222 14.86175,11.982589 14.756554,11.911649 14.656204,11.74495 14.531352,11.71573 c -0.112162,-0.02625 -0.234843,0.04863 -0.336749,0.0826 l -0.800578,0.266858 -1.029312,0.343104 c -0.138038,0.04601 -0.330475,0.06849 -0.444765,0.165199 -0.121299,0.102637 -0.128734,0.300166 -0.165198,0.444764 -0.123149,0.488348 -0.317122,1.07115 -0.18426,1.569385 z"
     id="path1" /></svg>
