<?xml version="1.0" encoding="UTF-8"?>
<svg id="svg1" version="1.1" viewBox="0 0 24 24" xmlns="http://www.w3.org/2000/svg">
 <path id="path1" d="m10.562 1.7632c0.97042-0.036509 1.8169-0.043536 2.5969 0.61913 0.39826 0.40071 0.59905 0.85909 0.61167 1.4241-0.0329 0.83576-0.38002 1.4788-0.81418 2.1722-0.22786 0.36443-0.40407 0.66323-0.34924 1.1018 0.09139 0.20518 0.09139 0.20518 0.27268 0.34086 0.33215 0.052713 0.46275 0.058769 0.73709-0.13634 0.22015-0.30192 0.31424-0.61067 0.41462-0.96531 0.19361-0.67185 0.40243-1.1408 1.0298-1.4888 0.54829-0.27749 1.2531-0.32107 1.8382-0.143 0.14302 0.063452 0.27776 0.13003 0.41142 0.21117v0.13634c-0.10546 0.069602-0.10546 0.069602-0.21303 0.1406-0.54267 0.37494-0.84003 1.0399-0.98608 1.6686-0.10997 0.65979 0.01258 1.2992 0.36828 1.8678 0.23988 0.33027 0.46977 0.50843 0.86918 0.61354 0.27076 0.00486 0.37316-0.021282 0.57519-0.20025 0.28236-0.57818 0.11368-1.1892-0.06813-1.7724-0.06432-0.13819-0.13078-0.27561-0.20452-0.40902v-0.13634c1.0063 0.3034 1.9501 0.97565 2.4541 1.9088 0.2079 0.44998 0.23551 0.92182 0.08219 1.3937-0.09225 0.24161-0.19084 0.47926-0.29722 0.71498-0.16455 0.37028-0.29439 0.68546-0.14622 1.0893 0.06403 0.14036 0.13414 0.27532 0.20784 0.41082 0.04791 0.09149 0.09587 0.18304 0.14379 0.27454 0.07322 0.13812 0.14652 0.2762 0.22009 0.41412 0.45938 0.88445 0.4905 1.9815 0.20278 2.9329-0.45036 1.1428-1.3439 1.9661-2.2842 2.7156-0.47118 0.38761-0.85746 0.83574-1.2393 1.3091-1.0588 1.2922-2.2289 2.033-3.9113 2.2427-1.4511 0.07261-2.9169 0.10196-4.2266-0.61354-0.086687-0.0451-0.086687-0.0451-0.17522-0.09106-0.784-0.43398-1.2247-1.0638-1.6896-1.8055-0.30899-0.49264-0.63195-0.98456-1.0665-1.3757-0.038169-0.034459-0.07624-0.068919-0.11557-0.10438-0.20149-0.17946-0.40532-0.35352-0.61726-0.5206-0.61687-0.48696-1.0794-0.9674-1.2441-1.761-0.044124-0.60816 0.064037-1.1763 0.18773-1.7691 0.15628-0.83154-0.031726-1.4744-0.39651-2.2231-0.061891-0.13072-0.1238-0.26147-0.1856-0.39224-0.041-0.08482-0.041-0.08482-0.082879-0.17138-0.23159-0.50259-0.20728-1.18-0.092152-1.7177 0.26542-0.71798 0.76633-1.2378 1.4555-1.5661h0.27268c-0.015522 0.070872-0.031141 0.14165-0.04715 0.21463-0.20074 0.92547-0.20074 0.92547 0.025868 1.8262 0.17439 0.23095 0.29332 0.32216 0.56667 0.41328 0.15672-0.01328 0.15672-0.01328 0.27268-0.06813 0.082195-0.36612 0.056718-0.63165-0.02987-0.997-0.098189-0.4511-0.12963-0.88067-0.13208-1.3421-9.175e-4 -0.061793-0.0019524-0.12358-0.0029286-0.18723 0.0058572-0.90177 0.36762-1.6983 0.98273-2.3564 0.83573-0.77583 1.8455-1.2292 2.8689-1.7049 0.19367-0.090786 0.38662-0.18265 0.57875-0.27661 0.0534-0.026063 0.1068-0.052128 0.16182-0.078973 0.27586-0.15463 0.44446-0.36485 0.61708-0.62378 0.03299-0.33533 0.03505-0.48118-0.12782-0.7797-0.12725-0.17732-0.12725-0.17732-0.2812-0.24286v-0.13634zm-2.2137 5.6164c-0.62777 0.65023-0.88443 1.3379-0.88355 2.2305 0.029286 0.50334 0.16824 0.99308 0.29307 1.4797 0.17658 0.69763 0.21814 1.2025-0.12718 1.8535-0.12293 0.18546-0.24955 0.36682-0.37933 0.54746-0.58121 0.81683-0.86441 1.5828-0.77957 2.5884 0.041195 0.13769 0.085513 0.2746 0.13634 0.40902h0.068136c0.00195-0.06021 0.0039-0.12039 0.00486-0.18241 0.054865-1.1618 0.5023-1.8584 1.2771-2.6893 0.4618-0.51311 0.64778-1.148 0.6415-1.8238-0.026845-0.37664-0.12474-0.73457-0.21969-1.099-0.20218-0.77593-0.347-1.4951 0-2.2496 0.13209-0.22156 0.13209-0.22156 0.2727-0.40902 0.037681-0.052617 0.075362-0.10528 0.11424-0.15951 0.19469-0.22284 0.40985-0.37693 0.65268-0.5435 0.044318-0.030945 0.088541-0.061987 0.13421-0.093909 0.10834-0.075655 0.2171-0.15074 0.32594-0.22568-0.00292 0.054472-0.00587 0.10896-0.00976 0.16509-0.033093 1.0082 0.28937 1.6991 0.96345 2.4379 0.60912 0.58959 1.4035 0.90684 2.1777 1.2188 0.49548 0.20101 0.96901 0.39615 1.2404 0.88461 0.08954 0.30579 0.09488 0.61352 0.11451 0.93043 0.06699 0.87878 0.06699 0.87878 0.56134 1.581 0.31521 0.23424 0.62203 0.38114 1.0194 0.3491 0.4459-0.0819 0.78913-0.27495 1.0907-0.61354 0.14233-0.24048 0.23739-0.491 0.34086-0.74987 0.46334 0.87094 0.70692 1.5115 0.54537 2.5223-0.06374 0.20625-0.13606 0.40156-0.22209 0.59942-0.07036 0.15941-0.07036 0.15941 0.01759 0.35497 0.57616-0.91995 0.93139-1.7592 0.70807-2.8658-0.22359-0.68357-0.67368-1.2793-1.2534-1.7016-0.03829-0.02804-0.07643-0.05601-0.11585-0.08492-0.19634-0.14513-0.19634-0.14513-0.42952-0.18773 2e-3 0.05816 2e-3 0.05816 0.0028 0.11758 0.0038 0.1781 0.0066 0.35617 0.0098 0.5343 2e-3 0.06102 0.0028 0.12206 0.0048 0.18494 0.0038 0.38777-0.02488 0.6659-0.22248 1.0038-0.22764 0.16805-0.46155 0.16841-0.73683 0.16297-0.24248-0.04324-0.34766-0.17588-0.49024-0.36748-0.06873-0.20613-0.07995-0.38424-0.08787-0.59996-0.03072-0.81369-0.12791-1.461-0.7301-2.0587-0.50742-0.42801-1.1433-0.6598-1.7502-0.91084-0.39654-0.16543-0.75683-0.34832-1.1128-0.58892-0.059059-0.037974-0.1181-0.075948-0.17895-0.11503-0.52523-0.51142-0.77926-1.1932-0.80953-1.913 0.0077-0.44507 0.12083-0.7957 0.30037-1.2002 0.08757-0.17926 0.08757-0.17926 0.07456-0.38479-0.80279 0-1.9982 1.1254-2.5545 1.6625zm3.5089 6.2453c-0.1298 0.16646-0.25114 0.33335-0.37068 0.50701-0.03624 0.05222-0.07251 0.10437-0.10991 0.15814-1.1124 1.546-1.1124 1.546-1.8372 3.2887-0.015522 0.05621-0.030945 0.11248-0.046859 0.17042-0.079363 0.63523-0.00878 1.2229 0.37068 1.7554 0.53349 0.65176 1.1699 1.0047 2.0089 1.0889 0.72832 0.02946 1.3441-0.25304 1.8771-0.73737 0.49182-0.52263 0.65686-1.214 0.64922-1.9128-0.12288-1.4833-1.2477-2.8453-2.1322-3.9776-0.04781-0.06355-0.09559-0.12706-0.14486-0.19252-0.06327-0.07342-0.06327-0.07342-0.12782-0.14832h-0.13634z"/>
</svg>
