<?xml version="1.0" encoding="UTF-8"?>
<svg id="svg1" preserveAspectRatio="xMidYMid" version="1.0" viewBox="0 0 24 24" xml:space="preserve" xmlns="http://www.w3.org/2000/svg"><path id="path1" d="m12 1.75c-1.3778 0-1.4946 0.0060471-1.6211 0.091797-0.21412 0.14512-0.28687 0.34444-0.33008 0.9043-0.066589 0.86286-0.30374 1.4351-0.85547 2.0566-0.72297 0.81449-1.1776 1.5241-1.502 2.3496-0.17251 0.43904-0.39422 1.3192-0.43945 1.7461l-0.035156 0.33398 0.71484 0.71484 0.68359 0.68555c-0.17787 0.43782-0.2727 0.91762-0.26562 1.418 0.0041822 0.29565 0.044273 0.5826 0.11523 0.85742l-0.49023 0.12109-0.52539 0.12891-0.083984-0.10547c-0.26385-0.33678-0.6748-1.2403-0.83789-1.8438-0.4616-1.708-0.14985-3.6026 0.82422-5.0254 0.22817-0.33329 0.22206-0.34844-0.097656-0.27148-0.31185 0.075068-1.0377 0.062009-1.4219-0.025391-0.19365-0.044054-0.56181-0.18851-0.81836-0.32031-0.27988-0.14379-0.531-0.23828-0.62695-0.23828-0.30582 0-0.43576 0.15454-1.2031 1.4355-0.70761 1.1813-0.7283 1.2243-0.70898 1.4492 0.023798 0.2772 0.084459 0.34959 0.57227 0.69141 0.70734 0.49565 1.1224 1.0786 1.3848 1.9434 0.44978 1.4825 1.327 2.7692 2.4707 3.627l0.2793 0.21094 0.97266-0.24414 0.94336-0.23438c0.4777 0.62588 1.1517 1.0923 1.9277 1.3086 2.2e-4 9.57e-4 0.001953 0.003021 0.001953 0.003906-8.5e-5 0.13296-0.26034 0.98152-0.31055 1.0137-0.082453 0.05275-0.82374 0.045108-1.2969-0.013672-2.056-0.25543-3.8343-1.4976-4.7598-3.3281l-0.19531-0.38867-0.058594 0.2168c-0.032049 0.11926-0.13871 0.38125-0.23633 0.58203-0.21426 0.44067-0.84696 1.1127-1.291 1.3691-0.36355 0.20992-0.49219 0.37676-0.49219 0.64258 0 0.17169 0.10502 0.3905 0.67383 1.3965 0.37079 0.65577 0.71959 1.2422 0.77539 1.3027 0.13653 0.14818 0.42396 0.22206 0.60352 0.15625 0.076228-0.027956 0.29112-0.12614 0.47852-0.21875 0.41244-0.20383 0.80243-0.3099 1.2891-0.34766 0.35365-0.027446 0.521-0.0076 1.2422 0.15039 1.3851 0.30343 2.9706 0.13935 4.3066-0.44726l0.2207-0.095703 0.1875-0.70117c0.10356-0.38505 0.2217-0.82165 0.26172-0.9707l0.058594-0.2207c0.81967-0.10981 1.5543-0.49281 2.1094-1.0547l0.35156 0.35352c0.43562 0.43819 0.43271 0.40571 0.074219 1.0195-0.76427 1.3086-2.0474 2.3155-3.5312 2.7715-0.65428 0.20104-1.0463 0.25707-1.8105 0.25977l-0.64453 0.001953 0.26562 0.31836c0.48994 0.59027 0.72126 1.1969 0.78125 2.041 0.0186 0.26182 0.062416 0.53191 0.097656 0.60156 0.073158 0.14457 0.24162 0.26789 0.41406 0.30273 0.064962 0.01309 0.74289 0.019525 1.5059 0.015625 1.2753-0.00661 1.3981-0.014661 1.5234-0.099609 0.21412-0.14512 0.28687-0.34249 0.33008-0.90234 0.07038-0.91197 0.29368-1.417 0.97656-2.1992 0.77446-0.88711 1.2343-1.6873 1.5449-2.6953 0.14687-0.47659 0.29688-1.2256 0.29688-1.4766 0-0.098418-0.15778-0.28772-0.70703-0.83789l-0.67773-0.67773c0.17017-0.42084 0.26562-0.87933 0.26562-1.3594v-0.003906-0.003906l-0.001953-0.091797v-0.003907c-0.007221-0.25537-0.040377-0.50463-0.097657-0.74414-1.46e-4 -6.14e-4 1.47e-4 -0.00134 0-0.001953 0.040166-0.076919 0.2195-0.12277 0.91211-0.29688 0.088185-0.022168 0.13364 0.021254 0.27734 0.25781 0.59394 0.97773 0.88231 1.9083 0.93555 3.0254 0.061001 1.2799-0.31836 2.6372-1.0254 3.6699-0.23005 0.33603-0.22415 0.35086 0.095703 0.27344 0.10708-0.02593 0.41393-0.047828 0.68164-0.048828 0.60343-0.00226 1.0569 0.11532 1.6133 0.41797 0.45439 0.24716 0.65262 0.27008 0.88867 0.10547 0.10808-0.075368 0.38508-0.48875 0.88672-1.3262 0.70764-1.1813 0.7283-1.2243 0.70898-1.4492-0.023798-0.2772-0.084458-0.34959-0.57227-0.69141-0.44793-0.31387-0.85451-0.75478-1.0664-1.1523-0.086357-0.16202-0.24466-0.55929-0.34961-0.88477-0.24182-0.74995-0.57841-1.4454-0.97266-2.002-0.34881-0.49243-1.0478-1.2219-1.4668-1.5332l-0.2793-0.20898-0.98047 0.24609-0.93945 0.23438c-0.47553-0.62085-1.1438-1.0837-1.9121-1.3008-0.004667-0.0052811-0.013674-0.01197-0.013672-0.015625 8.6e-5 -0.1321 0.26059-0.98168 0.31055-1.0137 0.082453-0.05275 0.82374-0.043155 1.2969 0.015625 2.0581 0.2557 3.8334 1.4957 4.7598 3.3281l0.19531 0.38672 0.058594-0.2168c0.19725-0.7385 0.77759-1.4861 1.4941-1.9238 0.40446-0.24708 0.52542-0.39959 0.52539-0.66797-1.7e-5 -0.17146-0.10485-0.39074-0.67383-1.3965-0.37105-0.65588-0.72181-1.2422-0.77734-1.3027-0.1358-0.14799-0.42193-0.22212-0.60156-0.15625-0.076228 0.027956-0.29112 0.12614-0.47852 0.21875-0.74183 0.36661-1.4047 0.43795-2.3125 0.24609-1.661-0.35104-3.1075-0.22415-4.5254 0.39844l-0.2207 0.095703-0.1875 0.70117c-0.10356 0.38505-0.2217 0.82164-0.26172 0.9707l-0.060547 0.22852c-0.81805 0.10986-1.5501 0.49214-2.1035 1.0508l-0.35547-0.35938c-0.43562-0.4382-0.43271-0.40376-0.074219-1.0176 0.76392-1.308 2.0495-2.3168 3.5313-2.7715 0.65641-0.20143 1.0477-0.25786 1.8125-0.25781h0.64648l-0.26758-0.32031c-0.49218-0.59295-0.72313-1.1977-0.7832-2.043-0.037327-0.52528-0.095392-0.68439-0.29883-0.82227-0.12654-0.08581-0.24332-0.091797-1.6211-0.091797zm-0.052734 7.8008c1.3533-0.028717 2.4637 1.0278 2.502 2.3809l0.001953 0.068359c0 1.3536-1.0801 2.4416-2.4336 2.4512-1.3535 0.0096-2.4496-1.0626-2.4687-2.416-0.019146-1.3534 1.0452-2.4557 2.3984-2.4844zm0.052734 0.81641c-0.54973 0-0.81446 0.10353-1.1699 0.45898-0.29949 0.29948-0.44574 0.62324-0.47461 1.0547-0.051468 0.769 0.38024 1.4267 1.1094 1.6914 0.3187 0.1157 0.92091 0.081619 1.2402-0.070313 0.30861-0.14684 0.65092-0.4873 0.80469-0.80078 0.10125-0.20644 0.11914-0.31284 0.11914-0.70508 0-0.54974-0.10353-0.81447-0.45898-1.1699-0.35546-0.35547-0.62019-0.45898-1.1699-0.45898z"/><path id="path2" d="m13.781 12a1.7814 1.7814 0 0 1-1.7688 1.7813 1.7814 1.7814 0 0 1-1.7938-1.7561 1.7814 1.7814 0 0 1 1.7434-1.8062 1.7814 1.7814 0 0 1 1.8185 1.7306z" stroke-dashoffset="7" stroke-linecap="square" stroke-width="10" style="paint-order:fill markers stroke"/></svg>
