<?xml version="1.0" encoding="UTF-8" standalone="no"?>
<svg
   version="1.0"
   width="24"
   height="24"
   viewBox="0 0 18 18"
   preserveAspectRatio="xMidYMid"
   id="svg1"
   sodipodi:docname="phb24-cleric.svg"
   xml:space="preserve"
   inkscape:version="1.3.2 (091e20e, 2023-11-25, custom)"
   xmlns:inkscape="http://www.inkscape.org/namespaces/inkscape"
   xmlns:sodipodi="http://sodipodi.sourceforge.net/DTD/sodipodi-0.dtd"
   xmlns="http://www.w3.org/2000/svg"
   xmlns:svg="http://www.w3.org/2000/svg"><defs
     id="defs1" /><sodipodi:namedview
     id="namedview1"
     pagecolor="#ffffff"
     bordercolor="#111111"
     borderopacity="1"
     inkscape:showpageshadow="0"
     inkscape:pageopacity="0"
     inkscape:pagecheckerboard="1"
     inkscape:deskcolor="#d1d1d1"
     inkscape:document-units="pt"
     inkscape:zoom="7.3397684"
     inkscape:cx="5.7222514"
     inkscape:cy="10.831404"
     inkscape:window-width="1366"
     inkscape:window-height="697"
     inkscape:window-x="-8"
     inkscape:window-y="-8"
     inkscape:window-maximized="1"
     inkscape:current-layer="svg1" /><g
     transform="matrix(0.1,0,0,-0.1,0,300)"
     fill="#000000"
     stroke="none"
     id="g1" /><path
     style="stroke:none;stroke-width:1"
     d="m 8.972295,0.7500005 c -0.0335,0.423923 -0.19767,0.869874 -0.33221,1.27349 -0.40861,1.225817 -1.00094,2.937288 -2.49161,3.082215 -0.93834,0.09123 -1.78254,-0.517095 -2.65772,-0.701343 0.32079,0.870728 0.5745,1.732776 0.66443,2.657718 0.071,0.729962 -0.0291,1.462306 -0.60906,1.993289 -0.20728,0.189765 -0.46865,0.363517 -0.7198,0.489093 -0.34127,0.170635 -0.73423,0.272704 -1.10738,0.341444 v 0.05537 c 0.35825,0.0094 0.72318,0.1813125 1.05201,0.3137575 0.29793,0.12 0.57063,0.279319 0.83054,0.470637 0.23558,0.173412 0.46682,0.36531 0.64597,0.599833 0.7568,0.99072 0.60255,2.222291 0.57215,3.377517 l 0.57215,-0.609061 0.81208,-0.941275 0.55369,-0.719798 C 6.221165,12.122356 5.807275,11.485607 5.548645,10.93792 5.326835,10.468203 5.282905,9.9909655 4.653505,9.9412765 l 0.47987,-0.341444 0.20302,-0.932046 0.26761,-0.775168 0.26762,-0.60906 -0.27684,-0.830537 c 0.21777,0.08023 0.47736,0.234945 0.7198,0.221477 0.39494,-0.02194 0.76444,-0.428365 1.10738,-0.599833 0.31632,-0.158161 0.76763,-0.16619 1.05201,-0.359899 0.30005,-0.20438 0.47096,-0.908476 0.49832,-1.255034 h 0.0554 c 0.0274,0.346557 0.19828,1.050654 0.49832,1.255034 0.28438,0.193709 0.7357,0.201739 1.05202,0.359899 0.34293,0.171468 0.71244,0.577891 1.10738,0.599833 0.24244,0.01347 0.50202,-0.141243 0.7198,-0.221477 l -0.27685,0.830537 0.26762,0.60906 0.26762,0.775168 0.20302,0.932046 0.47986,0.341444 c -0.62939,0.04969 -0.67332,0.5269275 -0.89513,0.9966435 -0.25863,0.547689 -0.67252,1.184435 -1.20889,1.494967 l 0.55369,0.719798 0.81208,0.941275 0.57215,0.609061 c -0.0304,-1.155226 -0.18466,-2.386797 0.57214,-3.377517 0.17915,-0.234523 0.4104,-0.426421 0.64598,-0.599833 0.2599,-0.191318 0.5326,-0.350636 0.83053,-0.470637 0.32883,-0.132445 0.69377,-0.3043305 1.05202,-0.3137575 v -0.05537 c -0.37315,-0.06874 -0.76612,-0.170809 -1.10738,-0.341444 -0.25116,-0.125576 -0.51252,-0.299328 -0.7198,-0.489093 -0.58,-0.530983 -0.68003,-1.263329 -0.60906,-1.993289 0.0899,-0.924942 0.34363,-1.786992 0.66443,-2.657718 -0.28639,0.06029 -0.55731,0.207503 -0.83054,0.313759 -0.54668,0.212598 -1.13894,0.331436 -1.71644,0.387584 -0.60997,0.0593 -1.16278,-0.353057 -1.51343,-0.812081 -0.56585,-0.740753 -0.93168,-1.648678 -1.1812,-2.54698 -0.0809,-0.291218 -0.12195,-0.772302 -0.29531,-0.996644 m 0,5.315436 c -0.14452,0.499248 -0.29641,0.999966 -0.46141,1.494967 -0.085,0.255088 -0.23742,0.516464 -0.53523,0.553691 -0.35528,0.04441 -0.69833,-0.248924 -1.05201,-0.276846 0.15497,0.490741 0.57167,1.155123 0.0554,1.596476 -0.27281,0.233212 -0.73164,0.223319 -0.99664,0.452182 0.23605,0.2038575 0.62316,0.2210045 0.88591,0.4060395 0.59164,0.416651 0.26583,1.025378 0.22147,1.587248 0.28194,-0.02226 0.55054,-0.221476 0.83054,-0.221476 0.6996,0 0.85542,0.68452 1.05201,1.218121 h 0.0554 c 0.19659,-0.533601 0.35242,-1.218121 1.05202,-1.218121 0.28,0 0.5486,0.199218 0.83053,0.221476 -0.0395,-0.499755 -0.35875,-1.119193 0.11997,-1.531879 0.27341,-0.235699 0.72324,-0.233262 0.98742,-0.4614085 -0.265,-0.228862 -0.72383,-0.21897 -0.99665,-0.452182 -0.5163,-0.441353 -0.0996,-1.105736 0.0554,-1.596476 -0.35368,0.02792 -0.69674,0.321255 -1.05201,0.276846 -0.29781,-0.03723 -0.45021,-0.298602 -0.53524,-0.553691 -0.11674,-0.350211 -0.21559,-0.702144 -0.33221,-1.052014 -0.0534,-0.160166 -0.0694,-0.332828 -0.18457,-0.442953 m -1.55033,6.3674495 -1.32886,1.550335 -0.59983,0.719799 0.0461,0.442953 0.11074,0.830537 0.71979,-0.378357 0.41527,-0.286073 0.1292,-0.553691 0.30453,-1.218121 0.20302,-1.107382 m 3.0453,0 0.47987,2.048657 0.24916,0.885906 1.09815,0.609061 0.11074,-0.941276 0.0369,-0.332214 -0.70134,-0.830536 -1.27349,-1.439597 m -2.65772,0.719797 -0.54446,2.048658 -0.16611,0.765939 0.32299,0.341443 1.10738,0.941276 v -1.771812 c 0,-0.811992 -0.0334,-1.766252 -0.7198,-2.325503 m 2.3255,0 c -0.20066,0.363104 -0.48656,0.691218 -0.5906,1.107383 -0.23111,0.924432 -0.0738,2.038627 -0.0738,2.989932 l 1.10738,-0.941276 0.33221,-0.387584 -0.11996,-0.498322 -0.30453,-1.162751 z"
     id="path1" /></svg>
