<?xml version="1.0" encoding="UTF-8" standalone="no"?>
<svg
   version="1.1"
   width="24"
   height="24"
   id="svg2"
   sodipodi:docname="phb24-paladin.svg"
   inkscape:version="1.3.2 (091e20e, 2023-11-25, custom)"
   xmlns:inkscape="http://www.inkscape.org/namespaces/inkscape"
   xmlns:sodipodi="http://sodipodi.sourceforge.net/DTD/sodipodi-0.dtd"
   xmlns="http://www.w3.org/2000/svg"
   xmlns:svg="http://www.w3.org/2000/svg">
  <defs
     id="defs2" />
  <sodipodi:namedview
     id="namedview2"
     pagecolor="#ffffff"
     bordercolor="#111111"
     borderopacity="1"
     inkscape:showpageshadow="0"
     inkscape:pageopacity="0"
     inkscape:pagecheckerboard="1"
     inkscape:deskcolor="#d1d1d1"
     inkscape:zoom="8.9482759"
     inkscape:cx="9.2196532"
     inkscape:cy="25.535645"
     inkscape:window-width="1366"
     inkscape:window-height="697"
     inkscape:window-x="-8"
     inkscape:window-y="-8"
     inkscape:window-maximized="1"
     inkscape:current-layer="svg2" />
  <g
     id="g2"
     transform="matrix(0.07322392,0,0,0.07322392,1.0155426,3.5060253)"
     style="stroke-width:13.6568">
    <path
       d="M 0,0 C 0.31638428,0.95551758 0.63276855,1.9110352 0.95874023,2.8955078 9.7217725,29.447181 9.7217725,29.447181 21,55 c 0.404604,0.813398 0.809209,1.626797 1.226074,2.464844 C 29.194848,71.375599 36.975397,84.043875 47,96 c 0.617461,0.787617 1.234922,1.575234 1.871094,2.386719 6.424184,7.776641 14.383705,13.207831 22.625,18.882811 2.59925,1.79636 5.177192,3.62071 7.753906,5.44922 1.707561,1.19902 3.415873,2.39697 5.125,3.59375 0.80228,0.56952 1.604561,1.13905 2.431152,1.72583 0.752329,0.51973 1.504659,1.03947 2.279785,1.57495 0.660484,0.46189 1.320967,0.92378 2.001465,1.39966 2.146309,1.2928 2.146309,1.2928 5.912598,0.98706 2.489557,-1.34181 2.489557,-1.34181 5.03516,-3.21875 1.46276,-1.02867 1.46276,-1.02867 2.95507,-2.07812 1.52078,-1.09055 1.52078,-1.09055 3.07227,-2.20313 0.98678,-0.69609 1.97355,-1.39219 2.99023,-2.10937 C 154.73025,91.498863 173.97253,50.291455 190,0 c 5.49402,2.5784532 7.70984,6.8038058 9.94922,12.351563 C 206.81186,32.370378 203.53057,54.666494 196,74 c 5.18907,-5.674746 9.74722,-11.620996 14.125,-17.9375 0.59426,-0.842402 1.18852,-1.684805 1.80078,-2.552734 C 215.64369,48.179122 218.96733,42.748179 222,37 c 0.99,0.33 1.98,0.66 3,1 5.23357,18.597874 1.75342,37.012201 -7.2085,53.767578 C 213.7344,98.919189 208.58247,105.00015 203,111 c 2.90643,-0.60451 5.05455,-1.47851 7.54687,-3.08203 0.67257,-0.43184 1.34514,-0.86367 2.03809,-1.30859 1.0717,-0.70383 1.0717,-0.70383 2.16504,-1.42188 0.74282,-0.4834 1.48564,-0.9668 2.25098,-1.46484 6.09161,-4.014754 11.95208,-8.300173 17.73242,-12.749271 C 238.05377,88.420883 241.3432,86.065671 245,84 c 1.60023,14.793282 -5.14149,28.27819 -14.02734,39.57813 C 219.86431,136.67513 205.261,144.928 189,150 c 13.43634,2.68081 25.63742,-1.15589 37.30469,-7.57422 C 229,141 229,141 231,141 228.73536,152.57484 219.55587,162.14309 210.33203,168.97656 199.25921,176.3168 187.80421,179.20743 175,182 c 7.39055,0.14716 14.64425,-0.29223 22,-1 -3.70406,8.80211 -13.0267,13.95943 -21.23828,17.90625 C 168.29758,201.86234 160.4504,202.05657 153,199 c -0.24879,0.58008 -0.49758,1.16016 -0.75391,1.75781 -4.28342,7.70747 -13.79105,13.27282 -20.74609,18.42969 -0.78238,0.58185 -1.56476,1.1637 -2.37085,1.76318 C 114.02234,232 114.02234,232 110,232 c 1.48315,-4.20697 3.65014,-7.72214 6.14844,-11.38281 0.61317,-0.91124 0.61317,-0.91124 1.23872,-1.84088 0.8735,-1.29769 1.74893,-2.59409 2.62612,-3.88929 2.29224,-3.38691 4.56684,-6.78562 6.84219,-10.1839 0.44872,-0.66965 0.89744,-1.33931 1.35976,-2.02926 7.30368,-10.91446 14.34324,-21.98612 20.90977,-33.36136 0.55047,-0.93562 0.55047,-0.93562 1.11206,-1.89014 4.84307,-8.58338 5.34989,-17.80096 6.19556,-27.42309 0.19288,-2.19247 0.39497,-4.38395 0.59863,-6.57544 0.78327,-8.19719 0.78327,-8.19719 0.96875,-16.42383 -0.32424,1.587 -0.32424,1.587 -0.65503,3.20605 -0.81725,3.98355 -1.65052,7.9636 -2.48828,11.94288 -0.35811,1.71167 -0.71207,3.42423 -1.06152,5.13769 C 147.8198,166.53941 131.93992,188.42874 113,211 c -1.5222,1.87389 -3.04302,3.7489 -4.5625,5.625 C 104.42266,221.53752 100.25982,226.29911 96,231 87.128739,227.32362 80.773052,216.37721 75,209 73.936576,207.66636 72.87274,206.33306 71.808594,205 63.63347,194.70101 55.885188,184.21162 49,173 48.40832,172.03925 48.40832,172.03925 47.804687,171.05908 40.559038,158.94605 37.837731,145.69844 35,132 34.820659,131.14664 34.641318,130.29328 34.456543,129.41406 33.592918,125.28376 32.780177,121.147 32,117 c 0.534313,8.20625 1.112767,16.40804 1.744141,24.60742 0.149502,1.98233 0.29217,3.96524 0.417968,5.94922 C 34.844993,158.27495 38.483281,166.05139 44,175 c 0.383174,0.63664 0.766348,1.27327 1.161133,1.9292 5.378741,8.9153 11.157444,17.56863 16.948242,26.21924 0.813257,1.21569 0.813257,1.21569 1.642944,2.45595 2.766188,4.13285 5.538891,8.26112 8.3219,12.38267 1.032643,1.5368 2.065199,3.07367 3.097656,4.6106 0.486923,0.71687 0.973846,1.43374 1.475525,2.17233 C 80,229.77369 80,229.77369 80,232 c -5.579262,-1.46269 -9.590648,-4.22741 -14.1875,-7.5625 -0.74959,-0.53722 -1.49918,-1.07443 -2.271484,-1.62793 C 57.489678,218.43627 51.663372,213.86851 46,209 44.679355,207.88045 44.679355,207.88045 43.332031,206.73828 38.626815,202.67502 38.626815,202.67502 37,201 c 0,-0.66 0,-1.32 0,-2 -0.804375,0.33 -1.60875,0.66 -2.4375,1 -8.926335,2.50564 -17.242295,0.80871 -25.359375,-3.47656 C 3.0956674,192.82859 -2.5062382,188.60111 -7,183 c 0,-0.66 0,-1.32 0,-2 0.7502344,0.0722 1.5004687,0.14437 2.2734375,0.21875 1.0235156,0.0928 2.0470312,0.18562 3.1015625,0.28125 0.99773438,0.0928 1.99546875,0.18562 3.0234375,0.28125 C 5.9369356,182.05691 10.454822,182.04088 15,182 c -1.921992,-0.41959 -1.921992,-0.41959 -3.882812,-0.84766 -19.2893125,-4.38835 -35.292343,-11.5246 -46.9375,-28.23437 C -41,144.49669 -41,144.49669 -41,141 c 2.50669,0.96617 4.935299,1.96716 7.332031,3.18359 C -23.026231,149.56312 -10.847178,152.36374 1,150 0.21238281,149.72027 -0.57523438,149.44055 -1.3867187,149.15234 -21.465013,141.76258 -40.617983,130.11982 -50,110 c -3.368544,-8.4236 -5.992114,-16.828457 -5,-26 3.479079,2.252801 6.838405,4.601055 10.144531,7.101562 C -34.612744,98.844803 -24.22389,105.76291 -13,112 c -0.560742,-0.69352 -1.121484,-1.38703 -1.699219,-2.10156 C -29.695274,91.006972 -38.724205,72.668494 -37,48 c 0.461264,-3.406254 1.069,-6.691624 2,-10 1.485,-0.495 1.485,-0.495 3,-1 0.730898,1.293574 0.730898,1.293574 1.476563,2.613281 4.526028,7.848825 9.45724,15.280987 14.835937,22.574219 0.598286,0.813157 1.196572,1.626313 1.812988,2.464111 C -11.117069,68.346926 -8.4135829,71.872989 -5,75 -5.3261328,74.307773 -5.6522656,73.615547 -5.9882812,72.902344 -11.477296,60.61278 -13.255048,49.082111 -13.375,35.75 -13.39591,34.259683 -13.39591,34.259683 -13.41724,32.739258 -13.360271,23.823084 -11.639356,15.4603 -7.5,7.5 -7.0978125,6.7059375 -6.695625,5.911875 -6.28125,5.09375 -3.1641791,0 -3.1641791,0 0,0 Z m 52,128 c -1.09656,14.0116 0.640293,23.08018 8,35 0.792135,1.35183 1.582486,2.7047 2.371094,4.05859 5.082214,8.56239 10.819077,16.49279 17.159668,24.16211 1.026557,1.2432 2.045852,2.49241 3.05957,3.7461 1.602486,1.98069 3.221792,3.94626 4.847168,5.9082 0.496128,0.61375 0.992256,1.22751 1.503418,1.85986 1.561085,1.90475 1.561085,1.90475 4.059082,4.26514 3.991596,0.43913 3.991596,0.43913 6.226562,-1.94922 0.791488,-0.90363 1.582968,-1.80726 2.398438,-2.73828 0.43313,-0.49403 0.86625,-0.98807 1.3125,-1.49707 C 115.86276,185.88227 126.84151,169.48797 136,152 c 0.40992,-0.77473 0.81984,-1.54945 1.24219,-2.34766 1.17999,-4.12997 0.96559,-8.19551 0.88281,-12.46484 -0.009,-0.88365 -0.018,-1.7673 -0.0273,-2.67773 C 138.0742,132.33973 138.0384,130.16983 138,128 c -5.92,3.12145 -11.52737,6.59316 -17.125,10.25 -2.22138,1.44183 -4.44399,2.88173 -6.66748,4.32031 -1.45134,0.93995 -2.90094,1.88258 -4.34863,2.82813 -2.00473,1.30168 -4.0229,2.5793 -6.04639,3.85156 -0.8984,0.59216 -0.8984,0.59216 -1.81494,1.19629 -2.780089,1.72037 -4.537773,2.5861 -7.836183,2.35376 -3.507732,-0.8877 -5.949008,-2.19917 -9.01294,-4.11646 -1.09957,-0.68255 -2.19914,-1.36511 -3.332031,-2.06836 -1.147185,-0.72583 -2.29432,-1.45174 -3.441406,-2.17773 -1.112461,-0.69158 -2.224922,-1.38316 -3.371094,-2.0957 C 68.329392,138.17314 61.762454,133.87336 55.252441,129.45337 53.306727,127.90964 53.306727,127.90964 52,128 Z"
       transform="translate(55)"
       id="path1"
       style="stroke-width:13.6568" />
    <path
       d="M 0,0 C 2.5703125,1.6796875 2.5703125,1.6796875 5.125,3.875 6.0763281,4.6871094 7.0276562,5.4992187 8.0078125,6.3359375 11.553939,9.4681558 15.031828,12.674333 18.500488,15.891846 28.064844,25.954 28.064844,25.954 39.996826,31.06665 45.896544,30.279065 51.565295,28.974393 57.3125,27.4375 c 1.744929,-0.464036 3.490991,-0.923841 5.238281,-1.378906 0.759661,-0.203108 1.519322,-0.406216 2.302002,-0.615479 C 67,25 67,25 71,25 c -0.595376,4.741227 -1.950672,8.844768 -3.875,13.1875 -0.456932,1.031693 -0.456932,1.031693 -0.923096,2.084229 C 59.215671,55.590008 49.931745,69.463014 40,83 c -1.518728,-3.952012 -0.455446,-6.902109 0.652344,-10.882813 0.178983,-0.655478 0.357966,-1.310956 0.542373,-1.986297 0.571842,-2.087927 1.156739,-4.171909 1.742783,-6.25589 0.579969,-2.09173 1.157208,-4.184175 1.732071,-6.277313 0.521678,-1.8948 1.050758,-3.787557 1.580185,-5.680207 C 47.083017,49.179237 47.083017,49.179237 47,47 46.443125,47.28875 45.88625,47.5775 45.3125,47.875 44.549375,48.24625 43.78625,48.6175 43,49 42.2575,49.37125 41.515,49.7425 40.75,50.125 37.082185,51.292032 33.770876,51.753812 30,51 27.376998,49.541014 25.341356,47.636987 23.1875,45.5625 21.973685,44.457202 20.758829,43.353047 19.542969,42.25 18.947905,41.69957 18.352842,41.149141 17.739746,40.582031 14.395197,37.540678 10.852129,34.748695 7.3320312,31.914062 5.3807982,30.312548 3.5389564,28.650217 1.6875,26.9375 -1.6633079,24.521801 -2.9344231,24.431799 -7,25 c -2.4224811,1.698998 -4.421827,3.312813 -6.5625,5.3125 -1.227315,1.099572 -2.455193,2.198516 -3.683594,3.296875 -0.619878,0.562676 -1.239756,1.125352 -1.878418,1.705078 -2.945694,2.647367 -5.97112,5.19739 -9.000488,7.748047 -0.531819,0.452219 -1.063638,0.904438 -1.611572,1.370361 C -31.149912,45.631172 -32.574518,46.81616 -34,48 c -1.057676,0.881719 -1.057676,0.881719 -2.136719,1.78125 C -39.255948,51.821501 -42.460525,51.586824 -46,51 c -3.119857,-1.117344 -6.059738,-2.47542 -9,-4 0.580241,2.52158 1.163646,5.042338 1.75,7.5625 0.176843,0.762722 0.353687,1.525444 0.535889,2.311279 0.900916,3.83912 1.840523,7.657182 2.905517,11.454346 0.281822,1.008248 0.281822,1.008248 0.569336,2.036865 0.525827,1.855984 1.063871,3.708494 1.602539,5.560791 C -47.034871,78.831634 -46.95676,80.274115 -48,83 -79,40.997912 -79,40.997912 -79,25 c 7.105734,0.707284 13.721671,2.406324 20.578125,4.359375 5.583741,1.49014 9.762107,2.02399 15.421875,0.640625 2.653136,-1.677049 2.653136,-1.677049 4.8125,-4 3.414132,-3.304672 6.845954,-6.412458 10.5625,-9.375 4.717395,-3.804784 9.181381,-7.8161268 13.565918,-11.9956055 C -9.2258349,0.0865713 -6.6550191,-1.8796619 0,0 Z"
       transform="translate(154,12)"
       id="path2"
       style="stroke-width:13.6568" />
  </g>
</svg>
