<?xml version="1.0" encoding="UTF-8"?>
<svg id="svg1" preserveAspectRatio="xMidYMid" version="1.0" viewBox="0 0 24 24" xml:space="preserve" xmlns="http://www.w3.org/2000/svg"><path id="path1" d="m7.0403 9.4366c-0.48911-0.16304-0.73369-0.59852-1.1183-0.91494-0.53807-0.44272-1.0279-0.9262-1.5249-1.4232-0.25021-0.25021-0.79501-0.87164-1.1691-0.84717-0.13787 0.00901-0.21178 0.095734-0.30498 0.18638-0.50903 0.49508 0.093293 1.2348 0.45747 1.6774 0.24245 0.29467 0.57084 0.51862 0.81328 0.81328 0.72776 0.88451 1.6604 1.6051 2.389 2.4907 0.41275 0.50165 0.85793 0.95959 1.3216 1.4232l-0.050829 0.05083c-0.17378-0.080202-0.40106-0.13244-0.55066-0.26262-0.21308-0.18541-0.32888-0.49315-0.51677-0.70315-0.38477-0.43004-1.1732-0.79457-1.6774-0.35581-0.10809 0.09405-0.17383 0.23921-0.25415 0.35581 0.31376 0.31376 0.55902 0.67303 0.76245 1.0674 0.13648 0.26461 0.2159 0.58146 0.40664 0.81328 0.31252 0.37983 0.70795 0.47084 1.1013 0.72857 0.86309 0.56547 1.4422 1.2476 2.5585 1.3046 0.26036 0.01339 0.81636 0.09831 1.0081-0.11012 0.12333-0.13406 0.13365-0.36555 0.17791-0.53372 0.09518-0.36169 0.22156-0.72506 0.34734-1.0759 0.50434-1.4068 1.0004-2.8161 1.2962-4.2952 0.09369-0.46846 0.35017-1.2199 0.19485-1.6859-0.13316-0.3995-0.73695-0.74018-1.042-0.99119-0.73024-0.60083-1.17-1.5062-1.9485-2.0163-0.37209-0.24378-1.1771-0.44248-1.2453 0.24568-0.029512 0.29776 0.28466 0.45259 0.449 0.65232 0.40689 0.49452 1.1181 1.0161 1.3216 1.6266-0.48911-0.16304-0.73369-0.59852-1.1183-0.91494-0.66545-0.54752-1.2669-1.1653-1.8807-1.7791-0.31571-0.31571-0.85671-0.95062-1.3301-0.99119-0.51872-0.04446-0.73274 0.58569-0.449 0.94036 0.74669 0.93337 1.7309 1.6689 2.4907 2.5923 0.1702 0.20685 0.28366 0.45719 0.45747 0.66079-0.53584-0.13176-0.89156-0.58658-1.2708-0.96578-0.62989-0.62989-1.3084-1.2067-1.9316-1.8299-0.32764-0.32764-0.85062-1.0615-1.3978-0.88953-0.80315 0.25242-0.26788 1.044 0.07625 1.3978 0.75544 0.77672 1.5473 1.6022 2.2365 2.4399 0.31642 0.38457 0.75191 0.62916 0.91495 1.1183m0.25415-7.5737c0.52537 0.22799 1.1714 0.21852 1.7198 0.41511 2.4309 0.87146 4.4011 2.7858 4.4815 5.4812 0.03535 1.184-0.26697 2.4414-0.60149 3.5666-0.5549 1.8665-1.2596 3.6884-1.7536 5.5659-0.41203 1.5657-0.95903 3.8471 0.69468 4.9305 0.59359 0.38891 1.2058 0.48815 1.8638 0.67774l0.05082-0.05082c-0.27971-0.23879-0.62281-0.36753-0.86411-0.6608-0.79624-0.96773-0.71708-2.548-0.44053-3.6937 0.78884-3.268 2.7321-6.2034 3.2701-9.5391 0.15058-0.93358 0.23405-1.9862 0-2.9143-0.39623-1.5713-1.5068-2.8375-2.9482-3.5581-0.72346-0.36173-1.5607-0.55289-2.3721-0.57608-1.038-0.029657-2.1034 0.023399-3.1006 0.35581m9.2511 4.5747c0.44217 4.3585-2.8182 7.9575-3.3379 12.115-0.18543 1.4834-0.0016 3.0036 1.5503 3.6005 0.28252 0.10867 0.56986 0.1419 0.87259 0.14402 0.29066 0.0022 0.58752 0.02292 0.86412-0.05082-0.53216-0.45429-1.1251-0.5987-1.508-1.2369-0.56344-0.93907-0.37232-2.171-0.16943-3.1854 0.45655-2.2828 1.5495-4.2758 2.2789-6.4639 0.39987-1.1996 0.57778-2.4856 0.16943-3.7106-0.11484-0.34452-0.39162-1.0737-0.7201-1.2115m-0.35581 9.4036 1.5334-0.49983 0.9573-0.36428-1.6266-1.4232-0.66926 1.5673-0.19485 0.72009m-0.76246 3.609 2.6516-0.90647 3.1938-1.0759c-0.47482-0.50049-0.87267-1.0968-1.4571-1.491-0.14026-0.09458-0.27406-0.31685-0.44053-0.35581-0.14955-0.03501-0.31312 0.06484-0.449 0.11013l-2.4399 0.81328c-0.18405 0.06134-0.44063 0.09132-0.59302 0.22026-0.16173 0.13685-0.17164 0.40022-0.22026 0.59302-0.1642 0.65113-0.42283 1.4282-0.24568 2.0925z"/></svg>
