<?xml version="1.0" encoding="UTF-8" standalone="no"?>
<svg
   viewBox="0 0 6.3500002 6.3499997"
   version="1.1"
   id="svg8"
   inkscape:version="1.3.2 (091e20e, 2023-11-25, custom)"
   sodipodi:docname="class-ranger.svg"
   xmlns:inkscape="http://www.inkscape.org/namespaces/inkscape"
   xmlns:sodipodi="http://sodipodi.sourceforge.net/DTD/sodipodi-0.dtd"
   xmlns="http://www.w3.org/2000/svg"
   xmlns:svg="http://www.w3.org/2000/svg"
   xmlns:rdf="http://www.w3.org/1999/02/22-rdf-syntax-ns#"
   xmlns:cc="http://creativecommons.org/ns#"
   xmlns:dc="http://purl.org/dc/elements/1.1/">
  <defs
     id="defs2">
    <clipPath
       clipPathUnits="userSpaceOnUse"
       id="clipPath28">
      <path
         d="M 0,2020 H 2020 V 0 H 0 Z"
         id="path26" />
    </clipPath>
    <clipPath
       clipPathUnits="userSpaceOnUse"
       id="clipPath48">
      <path
         d="M 0,2020 H 2020 V 0 H 0 Z"
         id="path46" />
    </clipPath>
    <clipPath
       clipPathUnits="userSpaceOnUse"
       id="clipPath167">
      <path
         d="M 0,2020 H 2020 V 0 H 0 Z"
         id="path165" />
    </clipPath>
    <clipPath
       clipPathUnits="userSpaceOnUse"
       id="clipPath179">
      <path
         d="M 0,2020 H 2020 V 0 H 0 Z"
         id="path177" />
    </clipPath>
    <clipPath
       clipPathUnits="userSpaceOnUse"
       id="clipPath281">
      <path
         d="M 0,2020 H 2020 V 0 H 0 Z"
         id="path279" />
    </clipPath>
    <clipPath
       clipPathUnits="userSpaceOnUse"
       id="clipPath301">
      <path
         d="M 0,2020 H 2020 V 0 H 0 Z"
         id="path299" />
    </clipPath>
  </defs>
  <sodipodi:namedview
     id="base"
     pagecolor="#ffffff"
     bordercolor="#666666"
     borderopacity="1.0"
     inkscape:pageopacity="0.0"
     inkscape:pageshadow="2"
     inkscape:zoom="10.350658"
     inkscape:cx="11.979914"
     inkscape:cy="10.965486"
     inkscape:document-units="px"
     inkscape:current-layer="layer1"
     inkscape:document-rotation="0"
     showgrid="false"
     inkscape:showpageshadow="false"
     units="px"
     inkscape:window-width="1360"
     inkscape:window-height="715"
     inkscape:window-x="-8"
     inkscape:window-y="-8"
     inkscape:window-maximized="1"
     inkscape:pagecheckerboard="0"
     inkscape:deskcolor="#d1d1d1" />
  <metadata
     id="metadata5">
    <rdf:RDF>
      <cc:Work
         rdf:about="">
        <dc:format>image/svg+xml</dc:format>
        <dc:type
           rdf:resource="http://purl.org/dc/dcmitype/StillImage" />
      </cc:Work>
    </rdf:RDF>
  </metadata>
  <g
     inkscape:label="Layer 1"
     inkscape:groupmode="layer"
     id="layer1"
     transform="translate(102.05932,153.95177)">
    <g
       id="g275"
       transform="matrix(0.00496355,0,0,-0.00496355,-104.00921,-145.77418)"
       style="stroke-width:71.0737">
      <g
         id="g277"
         clip-path="url(#clipPath281)"
         style="stroke-width:71.0737">
        <g
           id="g283"
           transform="translate(1087.6489,1321.1396)"
           style="stroke-width:71.0737">
          <path
             d="m 0,0 c 0.407,5.972 6.869,9.288 11.708,6.008 l 49.586,-33.612 c 2.838,2.397 2.704,2.283 5.541,4.68 L -53.449,269.157 v 3.926 l -0.753,-1.963 -0.754,1.963 v -3.926 L -175.241,-22.924 c 2.838,-2.397 2.703,-2.283 5.541,-4.68 l 49.587,33.612 c 4.839,3.28 11.301,-0.036 11.708,-6.008 l 41.224,-788.247 -70.662,-99.434 c 4.615,-6.231 4.238,-5.721 8.853,-11.952 l 74.787,30.153 74.787,-30.153 c 4.616,6.231 4.238,5.721 8.853,11.952 l -70.661,99.434 z"
             style="fill-opacity:1;fill-rule:nonzero;stroke:none;stroke-width:71.0737"
             id="path285" />
        </g>
        <g
           id="g287"
           transform="translate(1127.9307,1241.748)"
           style="stroke-width:71.0737">
          <path
             d="m 0,0 c -2.557,-0.44 -2.259,-0.389 -4.817,-0.829 l -19.148,-210.264 c 52.986,-9.826 95.852,-28.686 130.602,-52.565 l -138.768,-396.485 13.758,-6.048 171.794,362.796 c 81.463,-84.437 97.735,-196.372 102.021,-226.457 l -287.465,-198.312 16.808,-22.174 472.287,310.357 -1.762,19.083 -129.991,80.249 c -19.142,52.6 -56.55,110.716 -114.022,159.479 l 50.874,107.434 c 2.034,4.125 7.604,4.463 10.091,0.613 l 25.486,-39.452 c 2.721,0.818 2.592,0.779 5.313,1.597 l -0.308,245.614 1.147,2.795 -1.109,-1.161 0.037,1.633 -1.147,-2.796 L 130.699,-35.21 c 1.321,-2.595 1.258,-2.472 2.578,-5.066 l 45.127,8.412 c 4.404,0.821 8.036,-3.563 6.58,-7.943 l -34.419,-98.342 c -32.478,19.063 -69.318,35.152 -110.8,46.747 l 0.005,0.009 z"
             style="fill-opacity:1;fill-rule:nonzero;stroke:none;stroke-width:71.0737"
             id="path289" />
        </g>
        <g
           id="g291"
           transform="translate(969.8643,513.0576)"
           style="stroke-width:71.0737">
          <path
             d="m 0,0 -288.229,198.838 c 4.287,30.086 20.557,142.02 102.021,226.458 L -14.415,62.5 -0.656,68.547 -139.424,465.032 c 34.749,23.88 77.615,42.739 130.601,52.565 v 10e-4 l 0.001,-10e-4 -19.149,210.265 c -2.556,0.44 -2.259,0.388 -4.816,0.828 l -39.77,-91.393 0.005,-0.009 c -41.482,-11.595 -78.322,-27.684 -110.801,-46.746 l -34.419,98.342 c -1.455,4.379 2.177,8.763 6.581,7.942 l 45.127,-8.412 c 1.32,2.595 1.257,2.472 2.578,5.066 l -170.982,170.318 -1.147,2.795 0.037,-1.633 -1.109,1.162 1.147,-2.795 -0.308,-245.614 c 2.721,-0.818 2.592,-0.779 5.313,-1.598 l 25.486,39.453 c 2.487,3.849 8.057,3.511 10.091,-0.613 l 50.874,-107.435 c -57.472,-48.762 -94.88,-106.879 -114.022,-159.478 l -129.991,-80.25 -1.762,-19.083 473.063,-310.866 z"
             style="fill-opacity:1;fill-rule:nonzero;stroke:none;stroke-width:71.0737"
             id="path293" />
        </g>
      </g>
    </g>
    <g
       id="g295"
       transform="matrix(0.35277777,0,0,-0.35277777,-822.90394,508.72331)">
      <g
         id="g297"
         clip-path="url(#clipPath301)">
        <g
           id="g303"
           transform="translate(860.3687,87.5264)">
          <path
             d="m 0,0 v -0.216 l -22.14,-3.996 c -1.369,4.105 -3.205,8.101 -5.508,11.988 l -16.74,28.62 h 5.184 c 4.752,0 8.351,1.062 10.8,3.186 2.446,2.123 3.672,5.525 3.672,10.206 0,3.959 -1.261,7.091 -3.78,9.397 -2.521,2.303 -6.085,3.419 -10.692,3.347 l -7.56,-0.107 V 13.824 c 0,-3.887 0.54,-7.181 1.62,-9.882 1.08,-2.7 2.339,-4.589 3.78,-5.67 v -0.215 h -26.028 v 0.215 c 1.583,1.008 2.951,2.898 4.104,5.67 1.151,2.771 1.728,6.21 1.728,10.315 v 43.092 c 0,3.959 -0.577,7.29 -1.728,9.99 -1.153,2.699 -2.521,4.553 -4.104,5.561 v 0.216 h 30.672 c 8.567,0 15.263,-2.035 20.088,-6.101 4.823,-4.069 7.236,-9.631 7.236,-16.687 0,-5.616 -1.279,-10.206 -3.834,-13.769 -2.557,-3.565 -6.175,-6.103 -10.854,-7.615 L -14.04,12.637 C -9.865,5.94 -5.184,1.729 0,0"
             style="fill:#ffffff;fill-opacity:1;fill-rule:nonzero;stroke:none"
             id="path305" />
        </g>
        <g
           id="g307"
           transform="translate(896.332,135.8564)">
          <path
             d="M 0,0 C -0.937,-3.276 -2.268,-7.327 -3.996,-12.149 L -7.992,-23.598 H 12.744 L 8.748,-12.149 C 6.947,-6.966 5.579,-2.826 4.644,0.271 3.708,3.365 2.987,6.75 2.484,10.422 H 2.052 C 1.62,6.75 0.935,3.275 0,0 m 36.18,-43.199 c 2.015,-3.205 3.851,-5.491 5.508,-6.859 v -0.215 H 17.28 v 0.215 c 1.151,0.865 1.728,2.52 1.728,4.968 0,2.304 -0.577,5.076 -1.728,8.317 l -0.972,2.591 h -27.864 l -0.972,-2.591 c -1.153,-2.954 -1.728,-5.689 -1.728,-8.208 0,-2.522 0.503,-4.212 1.512,-5.077 v -0.215 h -22.68 v 0.215 c 1.657,1.44 3.473,3.744 5.454,6.912 1.979,3.167 3.653,6.697 5.022,10.584 l 15.444,44.497 c 0.648,1.943 0.972,3.707 0.972,5.292 0,1.655 -0.289,3.131 -0.864,4.427 -0.577,1.296 -1.261,2.268 -2.052,2.916 v 0.216 h 28.62 V 24.57 c -0.793,-0.72 -1.477,-1.711 -2.052,-2.969 -0.578,-1.261 -0.864,-2.719 -0.864,-4.374 0,-1.585 0.324,-3.349 0.972,-5.292 l 15.876,-44.497 c 1.367,-3.887 3.059,-7.435 5.076,-10.637"
             style="fill:#ffffff;fill-opacity:1;fill-rule:nonzero;stroke:none"
             id="path309" />
        </g>
        <g
           id="g311"
           transform="translate(942.4473,85.7988)">
          <path
             d="m 0,0 c 1.583,1.08 2.951,2.986 4.104,5.724 1.151,2.735 1.728,6.156 1.728,10.26 v 43.2 c 0,3.168 -0.505,6.21 -1.512,9.126 C 3.311,71.226 1.872,73.332 0,74.628 v 0.216 h 24.516 c 0.143,-1.225 0.503,-2.575 1.08,-4.05 0.575,-1.477 1.691,-3.583 3.348,-6.318 L 44.496,38.34 c 3.024,-5.113 6.335,-12.241 9.936,-21.384 h 0.432 c -1.153,6.551 -1.728,13.968 -1.728,22.248 v 19.44 c 0,4.174 -0.523,7.63 -1.566,10.368 -1.045,2.735 -2.359,4.607 -3.942,5.616 v 0.216 h 24.948 v -0.216 c -1.585,-1.009 -2.953,-2.899 -4.104,-5.67 -1.153,-2.772 -1.728,-6.21 -1.728,-10.314 V 15.984 C 66.744,11.88 67.319,8.44 68.472,5.67 69.623,2.897 70.991,1.008 72.576,0 V -0.216 H 49.788 c -1.296,3.095 -3.097,6.516 -5.4,10.26 L 29.16,34.776 c -2.521,4.104 -4.609,7.973 -6.264,11.61 -1.657,3.635 -3.313,7.973 -4.968,13.014 h -0.432 c 0.792,-4.681 1.313,-8.893 1.566,-12.636 0.251,-3.744 0.378,-7.884 0.378,-12.42 v -18.36 c 0,-4.176 0.521,-7.632 1.566,-10.368 C 22.049,2.879 23.363,1.008 24.948,0 V -0.216 H 0 Z"
             style="fill:#ffffff;fill-opacity:1;fill-rule:nonzero;stroke:none"
             id="path313" />
        </g>
        <g
           id="g315"
           transform="translate(1094.5107,125.7588)">
          <path
             d="M 0,0 V -0.216 C -1.225,-1.009 -2.125,-2.665 -2.7,-5.184 -3.277,-7.705 -3.564,-11.377 -3.564,-16.2 v -17.821 c -3.602,-2.304 -7.884,-4.175 -12.852,-5.615 -4.968,-1.439 -9.612,-2.16 -13.932,-2.16 -7.417,0 -14.005,1.62 -19.764,4.86 -5.762,3.24 -10.243,7.739 -13.446,13.5 -3.205,5.759 -4.806,12.347 -4.806,19.764 0,8.208 1.674,15.336 5.022,21.384 3.348,6.048 8.046,10.674 14.094,13.878 6.048,3.203 13.068,4.806 21.06,4.806 7.487,0 14.327,-0.972 20.52,-2.917 l 1.62,-17.603 -0.216,-0.108 c -5.546,6.191 -12.96,9.288 -22.248,9.288 -7.489,0 -13.338,-2.467 -17.55,-7.398 -4.212,-4.932 -6.318,-11.682 -6.318,-20.25 0,-8.569 2.052,-15.336 6.156,-20.304 4.104,-4.968 9.755,-7.452 16.956,-7.452 4.536,0 8.495,0.791 11.88,2.376 v 17.604 c -7.273,-0.145 -12.636,-2.017 -16.092,-5.616 l -0.216,0.108 1.728,16.524 C -29.592,0.216 -25.201,0 -18.792,0 Z"
             style="fill:#ffffff;fill-opacity:1;fill-rule:nonzero;stroke:none"
             id="path317" />
        </g>
        <g
           id="g319"
           transform="translate(1157.9058,106.2109)">
          <path
             d="m 0,0 -3.024,-21.492 c -2.017,0.361 -3.942,0.594 -5.778,0.702 -1.836,0.107 -4.303,0.162 -7.398,0.162 h -38.124 v 0.216 c 1.583,1.08 2.951,2.986 4.104,5.724 1.151,2.735 1.728,6.156 1.728,10.26 v 42.659 c 0,4.175 -0.577,7.615 -1.728,10.315 -1.153,2.7 -2.521,4.59 -4.104,5.67 v 0.216 h 38.772 c 5.112,0 8.927,0.287 11.448,0.864 l 1.836,-19.332 -0.216,-0.109 c -1.296,2.664 -3.385,4.662 -6.264,5.995 -2.88,1.332 -6.444,1.998 -10.692,1.998 H -33.696 V 24.84 h 8.208 c 4.536,0 7.884,0.054 10.044,0.162 2.16,0.107 4.428,0.306 6.804,0.594 L -11.772,7.452 h -0.216 c -0.864,2.376 -2.268,4.104 -4.212,5.184 -1.944,1.08 -4.465,1.62 -7.56,1.62 h -9.936 v -24.3 h 11.772 c 4.752,0 8.981,0.864 12.69,2.592 3.708,1.727 6.713,4.247 9.018,7.559 z"
             style="fill:#ffffff;fill-opacity:1;fill-rule:nonzero;stroke:none"
             id="path321" />
        </g>
        <g
           id="g323"
           transform="translate(1235.7729,87.5264)">
          <path
             d="m 0,0 v -0.216 l -22.14,-3.996 c -1.369,4.105 -3.205,8.101 -5.508,11.988 l -16.74,28.62 h 5.184 c 4.752,0 8.351,1.062 10.8,3.186 2.446,2.123 3.672,5.525 3.672,10.206 0,3.959 -1.261,7.091 -3.78,9.397 -2.521,2.303 -6.085,3.419 -10.692,3.347 l -7.56,-0.107 V 13.824 c 0,-3.887 0.54,-7.181 1.62,-9.882 1.08,-2.7 2.339,-4.589 3.78,-5.67 v -0.215 h -26.028 v 0.215 c 1.583,1.008 2.951,2.898 4.104,5.67 1.151,2.771 1.728,6.21 1.728,10.315 v 43.092 c 0,3.959 -0.577,7.29 -1.728,9.99 -1.153,2.699 -2.521,4.553 -4.104,5.561 v 0.216 h 30.672 c 8.567,0 15.263,-2.035 20.088,-6.101 4.823,-4.069 7.236,-9.631 7.236,-16.687 0,-5.616 -1.279,-10.206 -3.834,-13.769 -2.557,-3.565 -6.175,-6.103 -10.854,-7.615 L -14.04,12.637 C -9.865,5.94 -5.184,1.729 0,0"
             style="fill:#ffffff;fill-opacity:1;fill-rule:nonzero;stroke:none"
             id="path325" />
        </g>
      </g>
    </g>
  </g>
</svg>
