<?xml version="1.0" encoding="UTF-8"?>
<svg id="svg8" version="1.1" viewBox="0 0 6.35 6.35" xmlns="http://www.w3.org/2000/svg" xmlns:cc="http://creativecommons.org/ns#" xmlns:dc="http://purl.org/dc/elements/1.1/" xmlns:rdf="http://www.w3.org/1999/02/22-rdf-syntax-ns#">
 <defs id="defs2">
  <clipPath id="clipPath782">
   <path id="path780" d="m0 2020h2020v-2020h-2020z"/>
  </clipPath>
 </defs>
 <metadata id="metadata5">
  <rdf:RDF>
   <cc:Work rdf:about="">
    <dc:format>image/svg+xml</dc:format>
    <dc:type rdf:resource="http://purl.org/dc/dcmitype/StillImage"/>
   </cc:Work>
  </rdf:RDF>
 </metadata>
 <g id="layer1" transform="translate(23.921 96.715)">
  <g id="g776" transform="matrix(.005018 0 0 -.005018 -25.815 -88.472)" stroke-width="70.302">
   <g id="g778" clip-path="url(#clipPath782)" stroke-width="70.302">
    <g id="g784" transform="translate(1010 1381.8)">
     <path id="path786" d="m0 0h0.121l102.34 97.892s-16.706 68.991-102.34 110.26h-0.242c-85.635-41.269-102.34-110.26-102.34-110.26l102.34-97.892z"/>
    </g>
    <g id="g788" transform="translate(1271.8 1000.5)">
     <path id="path790" d="m0 0c-76.389 54.66-120.16 14.135-141.68-21.729-0.094-0.157-0.31-0.052-0.271 0.126l25.783 117.94c0.018 0.082 0.045 0.138-0.034 0.165-2.17 0.751-58.463 19.964-114.18 12.894-0.077-0.011-0.139-0.075-0.147-0.152l-31.152-340.28c-0.018-0.198-0.307-0.198-0.326 0l-31.152 340.28c-7e-3 0.077-0.069 0.141-0.146 0.152-55.718 7.07-112.01-12.143-114.18-12.894-0.078-0.027-0.051-0.083-0.033-0.165l25.782-117.94c0.039-0.178-0.176-0.283-0.271-0.126-21.524 35.864-65.293 76.389-141.68 21.729l-6.825-4.884c1.813 51.269 35.526 145.88 260.07 145.88h17.201c224.86 0 258.41-94.661 260.13-145.92zm297.49-137.33c-38.783-51.428-105.28-0.204-105.28-0.204l-45.077 32.255c-0.058 0.042-0.083 0.115-0.061 0.182l14.159 44.932c8.765 27.816 21.877 54.07 38.849 77.789l14.747 20.61c0.031 0.042 0.078 0.068 0.129 0.07l39.78 1.288c0.064 2e-3 0.092-0.027 0.118 0.032 0.556 1.292 19.27 45.719-25.47 77.732l-0.127 0.091c-44.382 31.758-80.731-0.038-81.792-0.98-0.048-0.043-0.011-0.062 7e-3 -0.123l11.619-38.069c0.015-0.048 7e-3 -0.101-0.023-0.142l-14.747-20.609c-16.971-23.717-37.588-44.601-61.087-61.875l-37.959-27.904c-0.058-0.042-0.135-0.043-0.193-2e-3l-15.403 11.023c-0.053 0.038-0.077 0.106-0.062 0.17 47.712 200.53-117.34 246.99-221.43 256.72-0.079 8e-3 -0.138 0.071-0.144 0.15l-11.911 161.18c-0.01 0.139-0.179 0.203-0.278 0.106l-57.58-56.381c-0.064-0.062-0.165-0.062-0.229 0l-57.58 56.381c-0.1 0.097-0.268 0.033-0.278-0.106l-11.911-161.18c-6e-3 -0.079-0.065-0.142-0.144-0.15-104.09-9.73-269.14-56.184-221.43-256.72 0.015-0.064-9e-3 -0.132-0.063-0.17l-15.402-11.023c-0.058-0.041-0.135-0.04-0.193 2e-3l-37.959 27.904c-23.499 17.274-44.117 38.158-61.088 61.875l-14.746 20.609c-0.03 0.041-0.038 0.094-0.024 0.142l11.619 38.069c0.019 0.061 0.056 0.08 8e-3 0.123-1.061 0.942-37.41 32.738-81.793 0.98l-0.127-0.091c-44.739-32.013-26.026-76.44-25.469-77.732 0.025-0.059 0.054-0.03 0.118-0.032l39.78-1.288c0.051-2e-3 0.098-0.028 0.128-0.07l14.747-20.61c16.973-23.719 30.084-49.973 38.85-77.789l14.159-44.932c0.021-0.067-4e-3 -0.14-0.061-0.182l-45.077-32.255s-66.501-51.224-105.28 0.204l-6.071-6.357s39.997-145.02 158.73-60.058l192.2 137.53s65.073 50.072 104.02 1.341c0.017-0.022 0.03-0.048 0.035-0.074l95.26-435.73-9.569-9.569-175.96 423.31c-0.04 0.097-0.159 0.131-0.245 0.072l-75.248-52.554c-0.07-0.048-0.09-0.143-0.048-0.216l133.5-229.62c0.1-0.172-0.136-0.34-0.266-0.19l-174.25 200.46c-0.056 0.064-0.152 0.075-0.221 0.024l-74.027-54.26c-0.084-0.061-0.09-0.184-0.012-0.255l391.38-347.02h0.263l391.38 347.02c0.078 0.071 0.072 0.194-0.012 0.255l-74.027 54.26c-0.07 0.051-0.165 0.04-0.221-0.024l-174.25-200.46c-0.13-0.15-0.365 0.018-0.265 0.19l133.5 229.62c0.043 0.073 0.022 0.168-0.048 0.216l-75.248 52.554c-0.086 0.059-0.204 0.025-0.244-0.072l-175.96-423.31-9.568 9.569 95.259 435.73c6e-3 0.026 0.019 0.052 0.035 0.074 38.944 48.731 104.02-1.341 104.02-1.341l192.2-137.53c118.73-84.96 158.73 60.058 158.73 60.058z"/>
    </g>
   </g>
  </g>
 </g>
</svg>
