<?xml version="1.0" encoding="UTF-8" standalone="no"?>
<svg

   viewBox="0 0 6.3499997 6.3499997"
   version="1.1"
   id="svg8"
   inkscape:version="1.3.2 (091e20e, 2023-11-25, custom)"
   sodipodi:docname="class-rogue.svg"
   xmlns:inkscape="http://www.inkscape.org/namespaces/inkscape"
   xmlns:sodipodi="http://sodipodi.sourceforge.net/DTD/sodipodi-0.dtd"
   xmlns="http://www.w3.org/2000/svg"
   xmlns:svg="http://www.w3.org/2000/svg"
   xmlns:rdf="http://www.w3.org/1999/02/22-rdf-syntax-ns#"
   xmlns:cc="http://creativecommons.org/ns#"
   xmlns:dc="http://purl.org/dc/elements/1.1/">
  <defs
     id="defs2">
    <clipPath
       clipPathUnits="userSpaceOnUse"
       id="clipPath28">
      <path
         d="M 0,2020 H 2020 V 0 H 0 Z"
         id="path26" />
    </clipPath>
    <clipPath
       clipPathUnits="userSpaceOnUse"
       id="clipPath48">
      <path
         d="M 0,2020 H 2020 V 0 H 0 Z"
         id="path46" />
    </clipPath>
    <clipPath
       clipPathUnits="userSpaceOnUse"
       id="clipPath167">
      <path
         d="M 0,2020 H 2020 V 0 H 0 Z"
         id="path165" />
    </clipPath>
    <clipPath
       clipPathUnits="userSpaceOnUse"
       id="clipPath179">
      <path
         d="M 0,2020 H 2020 V 0 H 0 Z"
         id="path177" />
    </clipPath>
    <clipPath
       clipPathUnits="userSpaceOnUse"
       id="clipPath281">
      <path
         d="M 0,2020 H 2020 V 0 H 0 Z"
         id="path279" />
    </clipPath>
    <clipPath
       clipPathUnits="userSpaceOnUse"
       id="clipPath301">
      <path
         d="M 0,2020 H 2020 V 0 H 0 Z"
         id="path299" />
    </clipPath>
    <clipPath
       clipPathUnits="userSpaceOnUse"
       id="clipPath396">
      <path
         d="M 0,2020 H 2020 V 0 H 0 Z"
         id="path394" />
    </clipPath>
    <clipPath
       clipPathUnits="userSpaceOnUse"
       id="clipPath456">
      <path
         d="M 0,2020 H 2020 V 0 H 0 Z"
         id="path454" />
    </clipPath>
    <clipPath
       clipPathUnits="userSpaceOnUse"
       id="clipPath619">
      <path
         d="M 0,2020 H 2020 V 0 H 0 Z"
         id="path617" />
    </clipPath>
    <clipPath
       clipPathUnits="userSpaceOnUse"
       id="clipPath659">
      <path
         d="M 0,2020 H 2020 V 0 H 0 Z"
         id="path657" />
    </clipPath>
    <clipPath
       clipPathUnits="userSpaceOnUse"
       id="clipPath782">
      <path
         d="M 0,2020 H 2020 V 0 H 0 Z"
         id="path780" />
    </clipPath>
    <clipPath
       clipPathUnits="userSpaceOnUse"
       id="clipPath798">
      <path
         d="M 0,2020 H 2020 V 0 H 0 Z"
         id="path796" />
    </clipPath>
  </defs>
  <sodipodi:namedview
     id="base"
     pagecolor="#ffffff"
     bordercolor="#666666"
     borderopacity="1.0"
     inkscape:pageopacity="0.0"
     inkscape:pageshadow="2"
     inkscape:zoom="5.1753292"
     inkscape:cx="0.96612211"
     inkscape:cy="15.554566"
     inkscape:document-units="px"
     inkscape:current-layer="layer1"
     inkscape:document-rotation="0"
     showgrid="false"
     inkscape:showpageshadow="false"
     units="px"
     inkscape:window-width="1360"
     inkscape:window-height="715"
     inkscape:window-x="-8"
     inkscape:window-y="-8"
     inkscape:window-maximized="1"
     inkscape:pagecheckerboard="0"
     inkscape:deskcolor="#d1d1d1" />
  <metadata
     id="metadata5">
    <rdf:RDF>
      <cc:Work
         rdf:about="">
        <dc:format>image/svg+xml</dc:format>
        <dc:type
           rdf:resource="http://purl.org/dc/dcmitype/StillImage" />
      </cc:Work>
    </rdf:RDF>
  </metadata>
  <g
     inkscape:label="Layer 1"
     inkscape:groupmode="layer"
     id="layer1"
     transform="translate(23.921389,96.715152)">
    <g
       id="g776"
       transform="matrix(0.00501803,0,0,-0.00501803,-25.8146,-88.471943)"
       style="stroke-width:70.302">
      <g
         id="g778"
         clip-path="url(#clipPath782)"
         style="stroke-width:70.302">
        <g
           id="g784"
           transform="translate(1010,1381.8398)"
           style="stroke-width:70.302">
          <path
             d="m 0,0 h 0.121 l 102.341,97.892 c 0,0 -16.706,68.991 -102.341,110.26 H 0 -0.121 C -85.756,166.883 -102.462,97.892 -102.462,97.892 L -0.121,0 Z"
             style="fill-opacity:1;fill-rule:nonzero;stroke:none;stroke-width:70.302"
             id="path786" />
        </g>
        <g
           id="g788"
           transform="translate(1271.8477,1000.5078)"
           style="stroke-width:70.302">
          <path
             d="m 0,0 c -76.389,54.66 -120.158,14.135 -141.683,-21.729 -0.094,-0.157 -0.31,-0.052 -0.271,0.126 l 25.783,117.935 c 0.018,0.082 0.045,0.138 -0.034,0.165 -2.17,0.751 -58.463,19.964 -114.181,12.894 -0.077,-0.011 -0.139,-0.075 -0.147,-0.152 l -31.152,-340.276 c -0.018,-0.198 -0.307,-0.198 -0.326,0 l -31.152,340.276 c -0.007,0.077 -0.069,0.141 -0.146,0.152 -55.718,7.07 -112.011,-12.143 -114.182,-12.894 -0.078,-0.027 -0.051,-0.083 -0.033,-0.165 l 25.782,-117.935 c 0.039,-0.178 -0.176,-0.283 -0.271,-0.126 C -403.537,14.135 -447.306,54.66 -523.695,0 l -6.825,-4.884 c 1.813,51.269 35.526,145.88 260.072,145.88 h 17.201 c 224.855,0 258.411,-94.661 260.128,-145.92 z m 297.489,-137.328 c -38.783,-51.428 -105.284,-0.204 -105.284,-0.204 l -45.077,32.255 c -0.058,0.042 -0.083,0.115 -0.061,0.182 l 14.159,44.932 c 8.765,27.816 21.877,54.07 38.849,77.789 l 14.747,20.61 c 0.031,0.042 0.078,0.068 0.129,0.07 l 39.78,1.288 c 0.064,0.002 0.092,-0.027 0.118,0.032 0.556,1.292 19.27,45.719 -25.47,77.732 l -0.127,0.091 c -44.382,31.758 -80.731,-0.038 -81.792,-0.98 -0.048,-0.043 -0.011,-0.062 0.007,-0.123 l 11.619,-38.069 c 0.015,-0.048 0.007,-0.101 -0.023,-0.142 L 144.316,57.526 C 127.345,33.809 106.728,12.925 83.229,-4.349 L 45.27,-32.253 c -0.058,-0.042 -0.135,-0.043 -0.193,-0.002 l -15.403,11.023 c -0.053,0.038 -0.077,0.106 -0.062,0.17 47.712,200.532 -117.343,246.986 -221.432,256.716 -0.079,0.008 -0.138,0.071 -0.144,0.15 l -11.911,161.184 c -0.01,0.139 -0.179,0.203 -0.278,0.106 l -57.58,-56.381 c -0.064,-0.062 -0.165,-0.062 -0.229,0 l -57.58,56.381 c -0.1,0.097 -0.268,0.033 -0.278,-0.106 l -11.911,-161.184 c -0.006,-0.079 -0.065,-0.142 -0.144,-0.15 -104.089,-9.73 -269.144,-56.184 -221.432,-256.716 0.015,-0.064 -0.009,-0.132 -0.063,-0.17 l -15.402,-11.023 c -0.058,-0.041 -0.135,-0.04 -0.193,0.002 l -37.959,27.904 c -23.499,17.274 -44.117,38.158 -61.088,61.875 l -14.746,20.609 c -0.03,0.041 -0.038,0.094 -0.024,0.142 l 11.619,38.069 c 0.019,0.061 0.056,0.08 0.008,0.123 -1.061,0.942 -37.41,32.738 -81.793,0.98 l -0.127,-0.091 c -44.739,-32.013 -26.026,-76.44 -25.469,-77.732 0.025,-0.059 0.054,-0.03 0.118,-0.032 l 39.78,-1.288 c 0.051,-0.002 0.098,-0.028 0.128,-0.07 l 14.747,-20.61 c 16.973,-23.719 30.084,-49.973 38.85,-77.789 l 14.159,-44.932 c 0.021,-0.067 -0.004,-0.14 -0.061,-0.182 l -45.077,-32.255 c 0,0 -66.501,-51.224 -105.284,0.204 l -6.071,-6.357 c 0,0 39.997,-145.018 158.732,-60.058 l 192.205,137.532 c 0,0 65.073,50.072 104.016,1.341 0.017,-0.022 0.03,-0.048 0.035,-0.074 l 95.26,-435.732 -9.569,-9.569 -175.962,423.31 c -0.04,0.097 -0.159,0.131 -0.245,0.072 l -75.248,-52.554 c -0.07,-0.048 -0.09,-0.143 -0.048,-0.216 l 133.496,-229.62 c 0.1,-0.172 -0.136,-0.34 -0.266,-0.19 l -174.248,200.459 c -0.056,0.064 -0.152,0.075 -0.221,0.024 l -74.027,-54.26 c -0.084,-0.061 -0.09,-0.184 -0.012,-0.255 L -261.979,-570.5 h 0.263 l 391.378,347.025 c 0.078,0.071 0.072,0.194 -0.012,0.255 l -74.027,54.26 c -0.07,0.051 -0.165,0.04 -0.221,-0.024 l -174.249,-200.459 c -0.13,-0.15 -0.365,0.018 -0.265,0.19 l 133.495,229.62 c 0.043,0.073 0.022,0.168 -0.048,0.216 l -75.248,52.554 c -0.086,0.059 -0.204,0.025 -0.244,-0.072 l -175.963,-423.31 -9.568,9.569 95.259,435.732 c 0.006,0.026 0.019,0.052 0.035,0.074 38.944,48.731 104.017,-1.341 104.017,-1.341 l 192.205,-137.532 c 118.734,-84.96 158.732,60.058 158.732,60.058 z"
             style="fill-opacity:1;fill-rule:nonzero;stroke:none;stroke-width:70.302"
             id="path790" />
        </g>
      </g>
    </g>
  </g>
</svg>
