<?xml version="1.0" encoding="UTF-8"?>
<svg id="svg8" version="1.1" viewBox="0 0 6.35 6.35" xmlns="http://www.w3.org/2000/svg" xmlns:cc="http://creativecommons.org/ns#" xmlns:dc="http://purl.org/dc/elements/1.1/" xmlns:rdf="http://www.w3.org/1999/02/22-rdf-syntax-ns#">
 <defs id="defs2">
  <clipPath id="clipPath619">
   <path id="path617" d="m0 2020h2020v-2020h-2020z"/>
  </clipPath>
 </defs>
 <metadata id="metadata5">
  <rdf:RDF>
   <cc:Work rdf:about="">
    <dc:format>image/svg+xml</dc:format>
    <dc:type rdf:resource="http://purl.org/dc/dcmitype/StillImage"/>
   </cc:Work>
  </rdf:RDF>
 </metadata>
 <g id="layer1" transform="translate(38.947 117.34)">
  <g id="g613" transform="matrix(.0043512 0 0 -.0043512 -40.264 -109.59)" stroke-width="81.075">
   <g id="g615" clip-path="url(#clipPath619)" stroke-width="81.075">
    <g id="g621" transform="translate(672.46 1169.5)">
     <path id="path623" d="m0 0-0.078 0.023c16.268 112.97 76.919 194.39 100.02 221.91-2.017 2.509-1.65 2.054-3.669 4.563-87.523-42.558-145.7-146.61-145.7-146.61 9.832 102.01 80.459 190.31 115.07 228.01-2.244 2.647-1.593 1.878-3.837 4.524-124.55-77.135-206.43-205.82-214.45-369.88l145.79 18.391c1.628 13.237 3.896 26.281 6.854 39.066"/>
    </g>
    <g id="g625" transform="translate(903.17 1160)">
     <path id="path627" d="m0 0 119.51-55.661s-1.637-27.83-31.105-31.105l40.928-134.24 40.928 134.24c-29.468 3.275-31.105 31.105-31.105 31.105l119.51 55.661c76.398-128.24 27.992-193.32-30.126-225.84-30.633-17.14-64.919-25.709-99.205-25.709s-68.572 8.569-99.204 25.709c-58.118 32.517-106.52 97.596-30.127 225.84m-18.008-388.74s81.856-228.44 111.32-357.78l5.928 3.192c9.615 5.177 16.072 14.748 17.275 25.602l12.814 115.77 12.815-115.77c1.202-10.854 7.66-20.425 17.274-25.602l5.928-3.192c29.466 129.33 111.32 357.78 111.32 357.78 76.943 197.34 203.08 217.27 203.08 217.27l257.58 68.333c-7.084 12.145-19.862 19.747-33.915 20.201-102.73 3.311-211.31 17.478-211.31 17.478-103.8 13.123-115.57 99.837-115.57 99.837l-47.476 262.88c-27.83 159.75 34.379 233.16 34.379 233.16-137.52-40.927-119.51-270.12-119.51-270.12l13.096-176.81c-63.701 57.201-86.107 137.11-92.634 167.6-2.84-0.011-2.319-9e-3 -5.16-0.021l-29.899-131.56-29.899 131.56c-2.841 0.012-2.319 0.01-5.16 0.021-6.526-30.483-28.933-110.4-92.634-167.6l13.096 176.81s18.008 229.19-119.51 270.12c0 0 62.209-73.41 34.378-233.16l-47.475-262.88s-11.775-86.714-115.57-99.837c0 0-108.58-14.167-211.31-17.478-14.053-0.454-26.831-8.056-33.915-20.201l257.58-68.333s126.14-19.928 203.08-217.27"/>
    </g>
    <g id="g629" transform="translate(959.65 1092)">
     <path id="path631" d="m0 0c-54.843-33.97-21.691-117.87-21.691-117.87h-6.139c-56.89 74.897-4.912 134.65-4.912 134.65z"/>
    </g>
    <g id="g633" transform="translate(842.17 766.84)">
     <path id="path635" d="m0 0c13.901-43.293 45.977-139.14 63.534-191.45-195.18 50.457-342.42 212.46-378.21 414.43l162.06-42.828c30.199-75.215 84.144-138.43 152.62-180.16"/>
    </g>
    <g id="g637" transform="translate(1005.5 1542.4)">
     <path id="path639" d="m0 0c0 41.132 27.012 86.561 27.012 86.561s27.011-45.429 27.011-86.561c0-32.33-27.011-126.46-27.011-126.46s-27.012 94.135-27.012 126.46"/>
    </g>
    <g id="g641" transform="translate(1133.2 974.16)">
     <path id="path643" d="m0 0h-6.14s33.152 83.901-21.69 117.87l32.741 16.78s51.978-59.754-4.911-134.65"/>
    </g>
    <g id="g645" transform="translate(1392.5 1169.5)">
     <path id="path647" d="m0 0 0.078 0.023c-16.268 112.97-76.919 194.39-100.02 221.91 2.017 2.509 1.651 2.054 3.669 4.563 87.523-42.558 145.7-146.61 145.7-146.61-9.831 102.01-80.459 190.31-115.07 228.01 2.244 2.647 1.593 1.878 3.837 4.524 124.55-77.135 206.43-205.82 214.45-369.88l-145.79 18.391c-1.627 13.237-3.896 26.281-6.854 39.066"/>
    </g>
    <g id="g649" transform="translate(1375.5 946.99)">
     <path id="path651" d="m0 0 162.06 42.829c-35.789-201.98-183.03-363.98-378.21-414.43 17.557 52.311 49.632 148.16 63.534 191.45 68.472 41.727 122.42 104.94 152.62 180.16"/>
    </g>
   </g>
  </g>
 </g>
</svg>
