<?xml version="1.0" encoding="UTF-8"?>
<svg id="svg8" version="1.1" viewBox="0 0 6.35 6.35" xmlns="http://www.w3.org/2000/svg" xmlns:cc="http://creativecommons.org/ns#" xmlns:dc="http://purl.org/dc/elements/1.1/" xmlns:rdf="http://www.w3.org/1999/02/22-rdf-syntax-ns#">
 <defs id="defs2">
  <clipPath id="clipPath1217">
   <path id="path1215" d="m0 2020h2020v-2020h-2020z"/>
  </clipPath>
 </defs>
 <metadata id="metadata5">
  <rdf:RDF>
   <cc:Work rdf:about="">
    <dc:format>image/svg+xml</dc:format>
    <dc:type rdf:resource="http://purl.org/dc/dcmitype/StillImage"/>
   </cc:Work>
  </rdf:RDF>
 </metadata>
 <g id="layer1" transform="translate(181.04 519.63)">
  <g id="g1211" transform="matrix(.0045038 0 0 -.0045038 -182.33 -511.9)">
   <g id="g1213" clip-path="url(#clipPath1217)">
    <g id="g1219" transform="translate(1323 1265.5)">
     <path id="path1221" d="m0 0s104.77-86.843 155.22-213.48c76.824-192.81 13.311-382.18-46.318-460.2 0 0 233.12 156.64 127.16 441.6-57.949 155.84-236.06 232.08-236.06 232.08"/>
    </g>
    <g id="g1223" transform="translate(1010.4 1248.9)">
     <path id="path1225" d="m0 0 38.276-42.104-74.242-111-25.277-10.819-193.94 151.17 11.66 93.278 237.64 194.65 267.44-201.17 7.325-140.22-6.049-29.479-294.73-330.46 74.001-96.617-33.311-315.92-39.601-15.736-39.758 316.42-102.96 118.23 312.59 387.87-145.3 128.44-98.4-91.439 43.381-47.208z"/>
    </g>
    <g id="g1227" transform="translate(859.73 1628.2)">
     <path id="path1229" d="m 0,0 c -28.551,-44.451 -24.084,-116.47 31.531,-153.909 l 60.895,49.825 C 6.77,-76.567 0,0 0,0"/>
    </g>
    <g id="g1231" transform="translate(714.37 929.94)">
     <path id="path1233" d="m0 0c0 56.672 19.87 108.83 53.171 150.42l-0.019 3e-3s-154.47-72.685-148.42-300.44c0 0-81.735 202.77 82.981 439.64-108.88-68.048-202.44-227.5-202.44-348.81 0-168.94 114.32-316.08 276.18-384.47 6.106-4.289 9.831-6.739 9.831-6.739l-193.94-25.517 352.24-41.22-34.939 278.06c-111.66 25.966-194.65 123.12-194.65 239.07"/>
    </g>
    <g id="g1235" transform="translate(1339.6 597.08)">
     <path id="path1237" d="m0 0-0.05 0.016c68.46 73.354 109.72 167.81 109.72 270.94 0 67.328-18.367 131.1-54.351 186.53-15.413 23.744-46.613 73.651-72.011 110.31l-5.969-29.088-51.326-57.547c111.34-214.94-9.883-323.96-9.883-323.96 22.463 133.57-25.518 224.49-48.306 258.72l-0.649-0.728c11.84-31.509 16.771-59.868 16.176-82.335-2.502-94.241-56.394-176.09-136.07-217.38l-31.555-299.27 348.07 40.731-193.94 25.517s79.942 52.128 130.15 117.55"/>
    </g>
   </g>
  </g>
 </g>
</svg>
