<?xml version="1.0" encoding="UTF-8" standalone="no"?>
<svg
   viewBox="0 0 24 24"
   version="1.1"
   id="svg1"
   sodipodi:docname="trait-darkvision.svg"
   inkscape:version="1.3.2 (091e20e, 2023-11-25, custom)"
   xmlns:inkscape="http://www.inkscape.org/namespaces/inkscape"
   xmlns:sodipodi="http://sodipodi.sourceforge.net/DTD/sodipodi-0.dtd"
   xmlns="http://www.w3.org/2000/svg"
   xmlns:svg="http://www.w3.org/2000/svg">
  <defs
     id="defs1" />
  <sodipodi:namedview
     id="namedview1"
     pagecolor="#ffffff"
     bordercolor="#666666"
     borderopacity="1.0"
     inkscape:showpageshadow="2"
     inkscape:pageopacity="0.0"
     inkscape:pagecheckerboard="0"
     inkscape:deskcolor="#d1d1d1"
     inkscape:zoom="7.9107571"
     inkscape:cx="11.124093"
     inkscape:cy="11.945759"
     inkscape:window-width="1360"
     inkscape:window-height="715"
     inkscape:window-x="-8"
     inkscape:window-y="-8"
     inkscape:window-maximized="1"
     inkscape:current-layer="svg1" />
  <path
     id="path1"
     d="M 12 4.5 C 7.000005 4.5 2.7299983 7.6100044 1 12 C 2.7299983 16.389996 7.000005 19.5 12 19.5 C 16.999995 19.5 21.270002 16.389996 23 12 C 21.270002 7.6100044 16.999995 4.5 12 4.5 z M 12 7 A 5 5 0 0 1 17 12 A 5 5 0 0 1 12 17 A 5 5 0 0 1 7 12 A 5 5 0 0 1 12 7 z " />
  <path
     sodipodi:type="star"
     style="stroke-width:0.93936;paint-order:stroke markers fill"
     id="path2"
     inkscape:flatsided="false"
     sodipodi:sides="4"
     sodipodi:cx="10.234637"
     sodipodi:cy="9.8770952"
     sodipodi:r1="3.6716111"
     sodipodi:r2="1.4659303"
     sodipodi:arg1="0"
     sodipodi:arg2="0.78539816"
     inkscape:rounded="-3.469447e-18"
     inkscape:randomized="0"
     d="M 13.906248,9.8770952 11.271207,10.913665 10.234637,13.548706 9.198068,10.913665 6.5630262,9.8770952 9.198068,8.8405259 l 1.036569,-2.6350417 1.03657,2.6350417 z"
     transform="matrix(1.0645545,0,0,1.0645545,1.1046708,1.4852938)" />
</svg>
