<?xml version="1.0" encoding="UTF-8"?>
<svg id="svg1" version="1.1" viewBox="0 0 24 24" xmlns="http://www.w3.org/2000/svg">
 <path id="path1" d="m16.914 1.899-14.889 9.2085a1.0059 1.0059 0 0 0-0.525 0.8925 1.0395 1.0395 0 0 0 0.4935 0.8925l14.889 9.2085v-0.021c0.4095 0.2625 0.8925 0.42 1.4175 0.42 1.575 0 4.2-1.365 4.2-10.5 0-3.927-0.525-10.5-4.2-10.5-0.4095 0-0.8925 0.0945-1.386 0.399m-12.369 10.101 10.164-6.3c-0.3675 1.5435-0.609 3.57-0.609 6.3 0 1.8375 0.126 4.242 0.63 6.3l-10.185-6.3m15.855 0c0 4.641-0.9345 8.4-2.1 8.4-1.155 0-2.1-3.759-2.1-8.4s0.945-8.4 2.1-8.4c1.1655 0 2.1 3.759 2.1 8.4z"/>
</svg>
