<?xml version="1.0" encoding="UTF-8" standalone="no"?>
<svg
   viewBox="0 0 24 24"
   version="1.1"
   id="svg1"
   sodipodi:docname="cone.svg"
   inkscape:version="1.3.2 (091e20e, 2023-11-25, custom)"
   xmlns:inkscape="http://www.inkscape.org/namespaces/inkscape"
   xmlns:sodipodi="http://sodipodi.sourceforge.net/DTD/sodipodi-0.dtd"
   xmlns="http://www.w3.org/2000/svg"
   xmlns:svg="http://www.w3.org/2000/svg">
  <defs
     id="defs1" />
  <sodipodi:namedview
     id="namedview1"
     pagecolor="#ffffff"
     bordercolor="#111111"
     borderopacity="1"
     inkscape:showpageshadow="0"
     inkscape:pageopacity="0"
     inkscape:pagecheckerboard="1"
     inkscape:deskcolor="#d1d1d1"
     inkscape:zoom="15.821514"
     inkscape:cx="9.7967867"
     inkscape:cy="11.282106"
     inkscape:window-width="1360"
     inkscape:window-height="715"
     inkscape:window-x="-8"
     inkscape:window-y="-8"
     inkscape:window-maximized="1"
     inkscape:current-layer="svg1" />
  <path
     d="m 16.680019,2.379981 -14.18,8.77 a 0.958,0.958 0 0 0 -0.5,0.85 0.99,0.99 0 0 0 0.47,0.85 l 14.18,8.77 v -0.02 c 0.39,0.25 0.85,0.4 1.35,0.4 1.5,0 4,-1.3 4,-10 0,-3.74 -0.5,-10 -4,-10 -0.39,0 -0.85,0.09 -1.32,0.38 m -11.78,9.62 9.68,-6 c -0.35,1.47 -0.58,3.4 -0.58,6 0,1.75 0.12,4.04 0.6,6 l -9.7,-6 m 15.1,0 c 0,4.42 -0.89,8 -2,8 -1.1,0 -2,-3.58 -2,-8 0,-4.42 0.9,-8 2,-8 1.11,0 2,3.58 2,8 z"
     id="path1" />
</svg>
