<?xml version="1.0" encoding="UTF-8"?>
<svg id="svg1" version="1.1" viewBox="0 0 24 24" xmlns="http://www.w3.org/2000/svg">
 <path id="path1" d="m21.45 16.725c0 0.399-0.2205 0.7455-0.5565 0.924l-8.295 4.662c-0.168 0.126-0.378 0.189-0.5985 0.189s-0.4305-0.063-0.5985-0.189l-8.295-4.662a1.0406 1.0406 0 0 1-0.5565-0.924v-9.45c0-0.399 0.2205-0.7455 0.5565-0.924l8.295-4.662c0.168-0.126 0.378-0.189 0.5985-0.189s0.4305 0.063 0.5985 0.189l8.295 4.662c0.336 0.1785 0.5565 0.525 0.5565 0.924v9.45m-9.45-12.968-6.258 3.5175 6.258 3.5175 6.258-3.5175-6.258-3.5175m-7.35 12.348 6.3 3.549v-7.0455l-6.3-3.5385v7.035m14.7 0v-7.035l-6.3 3.5385v7.0455z"/>
</svg>
