<?xml version="1.0" encoding="UTF-8" standalone="no"?>
<svg
   viewBox="0 0 24 24"
   version="1.1"
   id="svg1"
   sodipodi:docname="cube.svg"
   inkscape:version="1.3.2 (091e20e, 2023-11-25, custom)"
   xmlns:inkscape="http://www.inkscape.org/namespaces/inkscape"
   xmlns:sodipodi="http://sodipodi.sourceforge.net/DTD/sodipodi-0.dtd"
   xmlns="http://www.w3.org/2000/svg"
   xmlns:svg="http://www.w3.org/2000/svg">
  <defs
     id="defs1" />
  <sodipodi:namedview
     id="namedview1"
     pagecolor="#ffffff"
     bordercolor="#111111"
     borderopacity="1"
     inkscape:showpageshadow="0"
     inkscape:pageopacity="0"
     inkscape:pagecheckerboard="1"
     inkscape:deskcolor="#d1d1d1"
     inkscape:zoom="10.8125"
     inkscape:cx="1.2947977"
     inkscape:cy="18.543353"
     inkscape:window-width="1366"
     inkscape:window-height="697"
     inkscape:window-x="-8"
     inkscape:window-y="-8"
     inkscape:window-maximized="1"
     inkscape:current-layer="svg1" />
  <path
     d="m 21.450002,16.725 c 0,0.399 -0.2205,0.7455 -0.5565,0.924 l -8.295,4.662 c -0.168,0.126 -0.378,0.189 -0.5985,0.189 -0.2205,0 -0.4305,-0.063 -0.5985,-0.189 L 3.1065021,17.649 a 1.04055,1.04055 0 0 1 -0.5565,-0.924 v -9.45 c 0,-0.399 0.2205,-0.7455 0.5565,-0.924 L 11.401502,1.689 c 0.168,-0.126 0.378,-0.189 0.5985,-0.189 0.2205,0 0.4305,0.063 0.5985,0.189 l 8.295,4.662 c 0.336,0.1785 0.5565,0.525 0.5565,0.924 v 9.45 m -9.45,-12.9675 -6.2579999,3.5175 6.2579999,3.5175 6.258,-3.5175 -6.258,-3.5175 m -7.3499999,12.348 6.2999999,3.549 V 12.609 L 4.6500021,9.0705 v 7.035 m 14.6999999,0 v -7.035 l -6.3,3.5385 v 7.0455 z"
     id="path1"
     style="stroke-width:1" />
</svg>
