<?xml version="1.0" encoding="UTF-8"?>
<svg id="svg1" version="1.1" viewBox="0 0 24 24" xmlns="http://www.w3.org/2000/svg">
 <path id="path1" d="m12 1.5c-2.2155 0-9.45 0.3045-9.45 4.2v12.6c0 3.8955 7.2345 4.2 9.45 4.2s9.45-0.3045 9.45-4.2v-12.6c0-3.8955-7.2345-4.2-9.45-4.2m0 8.4c1.449 0 5.04-0.1365 7.35-1.3125v6.825c-2.31-1.176-5.901-1.3125-7.35-1.3125s-5.04 0.1365-7.35 1.3125v-6.825c2.31 1.176 5.901 1.3125 7.35 1.3125m0-6.3c4.0635 0 7.35 0.9345 7.35 2.1s-3.2865 2.1-7.35 2.1-7.35-0.9345-7.35-2.1 3.2865-2.1 7.35-2.1m0 16.8c-4.0635 0-7.35-0.9345-7.35-2.1 0-1.155 3.2865-2.1 7.35-2.1s7.35 0.945 7.35 2.1c0 1.1655-3.2865 2.1-7.35 2.1z"/>
</svg>
