<?xml version="1.0" encoding="UTF-8" standalone="no"?>
<svg
   viewBox="0 0 24 24"
   version="1.1"
   id="svg1"
   sodipodi:docname="emanation.svg"
   inkscape:version="1.3.2 (091e20e, 2023-11-25, custom)"
   xmlns:inkscape="http://www.inkscape.org/namespaces/inkscape"
   xmlns:sodipodi="http://sodipodi.sourceforge.net/DTD/sodipodi-0.dtd"
   xmlns="http://www.w3.org/2000/svg"
   xmlns:svg="http://www.w3.org/2000/svg">
  <defs
     id="defs1" />
  <sodipodi:namedview
     id="namedview1"
     pagecolor="#ffffff"
     bordercolor="#111111"
     borderopacity="1"
     inkscape:showpageshadow="0"
     inkscape:pageopacity="0"
     inkscape:pagecheckerboard="1"
     inkscape:deskcolor="#d1d1d1"
     inkscape:zoom="21.625"
     inkscape:cx="11.976879"
     inkscape:cy="12"
     inkscape:window-width="1366"
     inkscape:window-height="697"
     inkscape:window-x="-8"
     inkscape:window-y="-8"
     inkscape:window-maximized="1"
     inkscape:current-layer="svg1" />
  <path
     d="M 17.25,1.5 22.5,6.75 V 1.5 m 0,15.75 -5.25,5.25 H 22.5 M 6.75,22.5 1.5,17.25 V 22.5 M 1.5,6.75 6.75,1.5 H 1.5 m 16.996875,4.003125 a 9.1966875,9.1966875 0 0 0 -12.99375,0 9.1966875,9.1966875 0 0 0 0,12.99375 9.1966875,9.1966875 0 0 0 12.99375,0 c 3.583125,-3.583125 3.583125,-9.3975 0,-12.99375 m -1.44375,11.55 a 7.0875,7.0875 0 0 1 -10.10625,0 7.0875,7.0875 0 0 1 0,-10.10625 7.0875,7.0875 0 0 1 10.10625,0 7.0875,7.0875 0 0 1 0,10.10625"
     id="path1"
     style="stroke-width:1" />
</svg>
