<?xml version="1.0" encoding="UTF-8"?>
<svg id="svg1" version="1.1" viewBox="0 0 24 24" xmlns="http://www.w3.org/2000/svg">
 <path id="path1" d="m17.25 1.5 5.25 5.25v-5.25m0 15.75-5.25 5.25h5.25m-15.75 0-5.25-5.25v5.25m0-15.75 5.25-5.25h-5.25m16.997 4.0031a9.1967 9.1967 0 0 0-12.994 0 9.1967 9.1967 0 0 0 0 12.994 9.1967 9.1967 0 0 0 12.994 0c3.5831-3.5831 3.5831-9.3975 0-12.994m-1.4438 11.55a7.0875 7.0875 0 0 1-10.106 0 7.0875 7.0875 0 0 1 0-10.106 7.0875 7.0875 0 0 1 10.106 0 7.0875 7.0875 0 0 1 0 10.106"/>
</svg>
