<?xml version="1.0" encoding="UTF-8"?>
<svg id="svg1" version="1.1" viewBox="0 0 24 24" xml:space="preserve" xmlns="http://www.w3.org/2000/svg"><path id="path4" d="m17.936 3a3 3 0 0 0-2.9355 3.043 3 3 0 0 0 0.23242 1.0977l-2.4805 2.4805a2.5 2.5 0 0 0-0.80469-0.12109 2.5 2.5 0 0 0-2.4473 2.5352 2.5 2.5 0 0 0 2.5176 2.4648 2.5 2.5 0 0 0 2.4824-2.5l-0.001953-0.070312a2.5 2.5 0 0 0-0.11524-0.68555l2.4746-2.4746a3 3 0 0 0 1.1641 0.23047 3 3 0 0 0 2.9785-3l-0.001953-0.083984a3 3 0 0 0-3.0625-2.916z" style="paint-order:stroke markers fill"/><path id="path5" d="m11.787 2.002c-5.4824 0.11634-9.8627 4.6556-9.7852 10.139 0.077564 5.4831 4.5848 9.8982 10.068 9.8594 5.4835-0.038783 9.9297-4.5164 9.9297-10v-0.007812-0.00586l-0.003906-0.26172v-0.007812c-0.027157-0.95964-0.19164-1.8835-0.4707-2.7559a4.6075 4.6075 0 0 1-1.7227 1.2695c0.1116 0.49759 0.17838 1.0135 0.19336 1.543l0.003906 0.22656c0 4.4078-3.5357 7.9688-7.9434 8-4.4077 0.031174-7.9943-3.4794-8.0566-7.8867-0.062346-4.4073 3.4233-8.0178 7.8301-8.1113 0.66558-0.014124 1.3127 0.054381 1.9336 0.19336a4.6075 4.6075 0 0 1 1.2793-1.7188c-1.026-0.32928-2.1206-0.4987-3.2559-0.47461z" style="-inkscape-stroke:none;paint-order:stroke markers fill"/></svg>
