<?xml version="1.0" encoding="UTF-8"?>
<svg id="svg1" version="1.1" viewBox="0 0 24 24" xmlns="http://www.w3.org/2000/svg">
 <path id="path1" d="m12 1.5c-5.775 0-10.5 4.725-10.5 10.5s4.725 10.5 10.5 10.5 10.5-4.725 10.5-10.5-4.725-10.5-10.5-10.5m0 12.6c-4.641 0-8.4-0.9345-8.4-2.1 0-1.155 3.759-2.1 8.4-2.1s8.4 0.945 8.4 2.1c0 1.1655-3.759 2.1-8.4 2.1m0-10.5c3.5385 0 6.5625 2.1945 7.8015 5.3025-1.575-0.651-4.011-1.1025-7.8015-1.1025-2.31 0-5.5335 0.1995-7.8015 1.1025 1.239-3.108 4.263-5.3025 7.8015-5.3025m0 16.8c-3.5385 0-6.5625-2.1945-7.8015-5.3025 1.575 0.651 4.011 1.1025 7.8015 1.1025 2.31 0 5.5335-0.1995 7.8015-1.1025-1.239 3.108-4.263 5.3025-7.8015 5.3025z"/>
</svg>
