<?xml version="1.0" encoding="UTF-8"?>
<svg id="svg1" version="1.1" viewBox="0 0 24 24" xmlns="http://www.w3.org/2000/svg">
 <!--! Font Awesome Free 6.5.2 by @fontawesome - https://fontawesome.com License - https://fontawesome.com/license/free (Icons: CC BY 4.0, Fonts: SIL OFL 1.1, Code: MIT License) Copyright 2024 Fonticons, Inc.-->
 <path id="path1" d="m12.025 3.0442c0.26251 0 0.50582 0.11414 0.66989 0.31922 0.99534 1.2578 4.5555 5.9364 4.5555 8.4302 0 2.8985-2.3521 5.2506-5.2506 5.2506-2.8985 0-5.2506-2.3521-5.2506-5.2506 0-2.4938 3.5602-7.1723 4.5555-8.4302 0.16407-0.20508 0.40738-0.31922 0.66989-0.31922zm1.9908 6.5699a2.0128 2.0128 0 0 0-2.0144 1.9546 2.0128 2.0128 0 0 1 0.0048 0.0629 2.0128 2.0128 0 0 1-2.016 2.0081 2.0128 2.0128 0 0 1-2.0097-2.0112h-0.00629a4.0257 4.0257 0 0 0 4.0209 4.0256 4.0257 4.0257 0 0 0 4.0052-3.7363 2.0128 2.0128 0 0 0 0-0.0031 4.0257 4.0257 0 0 0 0.02516-0.27676 4.0257 4.0257 0 0 0 0-0.0094h-0.0048a2.0128 2.0128 0 0 0-2.0049-2.0144z"/>
 <path id="path2" d="m3.4688 10.5a1.5 1.5 0 0 0-1.4648 1.4375c9e-7 0.005884 6.95e-5 0.011715 0 0.017578a1.5 1.5 0 0 0-0.0039062 0.066406 1.5 1.5 0 0 0 0.0019531 0.029297c-8.3e-5 0.009124-1.166e-4 0.018165 0 0.027344 0.07748 5.4773 4.5906 9.8981 10.068 9.8594 5.4449-0.038508 9.8749-4.4692 9.9277-9.9023a1.5 1.5 0 0 0 0.001953-0.035156v-0.042969a1.5 1.5 0 0 0 0-0.003906c8e-6 -0.005241 0-0.010382 0-0.015625h-0.001953a1.5 1.5 0 0 0-1.5293-1.4375 1.5 1.5 0 0 0-1.4648 1.4375h-0.003906v0.001953c-0.0011 3.8631-3.0879 6.9707-6.9512 6.998-3.8639 0.02733-6.9942-3.0367-7.0488-6.9004-4.73e-4 -0.03347 0.0019531-0.066249 0.0019531-0.099609h-0.0039062a1.5 1.5 0 0 0-1.5293-1.4375z" style="-inkscape-stroke:none;paint-order:stroke markers fill"/>
</svg>
