<?xml version="1.0" encoding="UTF-8"?>
<svg id="svg1" version="1.1" viewBox="0 0 24 24" xml:space="preserve" xmlns="http://www.w3.org/2000/svg"><path id="path1-3" d="m12 2c0.51953 0 0.9375 0.41797 0.9375 0.9375v1.8008l0.89843-0.89844c0.36719-0.36718 0.96094-0.36718 1.3242 0 0.36328 0.36719 0.36719 0.96094 0 1.3242l-2.2266 2.2266v2.9883l2.5859-1.4922 0.8164-3.0391c0.13282-0.5 0.64844-0.79688 1.1484-0.66407 0.5 0.13282 0.79688 0.64844 0.66406 1.1484l-0.32812 1.2227 1.4492-0.83594c0.44922-0.25781 1.0234-0.10547 1.2812 0.34375 0.25781 0.44922 0.10547 1.0234-0.34375 1.2812l-1.4492 0.83594 1.2305 0.32812c0.5 0.13282 0.79687 0.64844 0.66406 1.1484s-0.64844 0.79688-1.1484 0.66406l-3.0391-0.8164-2.5898 1.4961 2.5859 1.4922 3.0391-0.81641c0.5-0.13281 1.0156 0.16406 1.1484 0.66406 0.13282 0.5-0.16406 1.0156-0.66406 1.1484l-1.2266 0.33203 1.4492 0.83594c0.44922 0.25781 0.60156 0.83203 0.34375 1.2812-0.25782 0.44922-0.83203 0.60156-1.2812 0.34375l-1.4492-0.83594 0.32812 1.2305c0.13282 0.5-0.16406 1.0156-0.66406 1.1484s-1.0156-0.16406-1.1484-0.66406l-0.8164-3.0391-2.582-1.4961v2.9883l2.2266 2.2266c0.36719 0.36719 0.36719 0.96094 0 1.3242s-0.96094 0.36719-1.3242 0l-0.89844-0.89843v1.7969c0 0.51953-0.41797 0.9375-0.9375 0.9375s-0.9375-0.41797-0.9375-0.9375v-1.8008l-0.89844 0.89844c-0.36718 0.36718-0.96093 0.36718-1.3242 0-0.36329-0.36719-0.36719-0.96094 0-1.3242l2.2266-2.2266v-2.9844l-2.5859 1.4922-0.81641 3.0391c-0.13281 0.5-0.64843 0.79688-1.1484 0.66406-0.5-0.13281-0.79688-0.64843-0.66407-1.1484l0.32422-1.2266-1.4492 0.83594c-0.44921 0.25781-1.0234 0.10547-1.2812-0.34375-0.25781-0.44922-0.10546-1.0234 0.34375-1.2812l1.4492-0.83594-1.2305-0.32812c-0.5-0.13281-0.79687-0.64844-0.66406-1.1484s0.64844-0.79687 1.1484-0.66406l3.0391 0.8164 2.5898-1.4961-2.5859-1.4922-3.043 0.8125c-0.5 0.13282-1.0156-0.16406-1.1484-0.66406s0.16406-1.0156 0.66406-1.1484l1.2305-0.32812-1.4492-0.83594c-0.44921-0.25781-0.60156-0.83203-0.34375-1.2812 0.25782-0.44922 0.83204-0.60156 1.2812-0.34375l1.4492 0.83594-0.32812-1.2305c-0.13281-0.5 0.16406-1.0156 0.66406-1.1484s1.0156 0.16406 1.1484 0.66406l0.8164 3.0391 2.582 1.4961v-2.9883l-2.2266-2.2227c-0.36718-0.36718-0.36718-0.96093 0-1.3242 0.36719-0.36328 0.96094-0.36718 1.3242 0l0.89844 0.89844v-1.8008c0-0.51953 0.41797-0.9375 0.9375-0.9375z"/></svg>
