<?xml version="1.0" encoding="UTF-8" standalone="no"?>
<svg
   id="svg1"
   version="1.1"
   viewBox="0 0 24 24"
   xml:space="preserve"
   xmlns="http://www.w3.org/2000/svg"
   xmlns:svg="http://www.w3.org/2000/svg"><defs
     id="defs1" /><path
     d="m 3.128061,14.217985 q 0,-2.911105 1.38624,-5.1845398 Q 5.9005419,6.7600107 7.5640299,5.2074212 9.2275189,3.6548319 10.613759,2.8369499 L 12,2.0190682 v 3.659675 q 0,1.025818 0.69312,1.6219012 0.69312,0.5960835 1.55259,0.5960835 0.471322,0 0.901056,-0.1940738 0.429735,-0.1940735 0.790157,-0.6376704 l 0.499047,-0.609946 q 1.996186,1.164442 3.216078,3.2299405 1.219891,2.0654988 1.219891,4.5330068 0,2.439783 -1.192166,4.449832 -1.192168,2.010049 -3.132904,3.174491 0.471322,-0.665396 0.734707,-1.455553 0.263386,-0.790157 0.263386,-1.677351 0,-1.108992 -0.415872,-2.093223 -0.415872,-0.984231 -1.192167,-1.760526 L 12,11.001907 8.0908019,14.855655 q -0.80402,0.80402 -1.219892,1.774388 -0.415872,0.970369 -0.415872,2.079361 0,0.887194 0.263385,1.677351 0.263386,0.790157 0.734708,1.455553 Q 5.5123939,20.677866 4.320227,18.667817 3.128061,16.657768 3.128061,14.217985 Z M 12,14.107086 l 2.356609,2.301159 q 0.471322,0.471322 0.720845,1.053543 0.249523,0.582221 0.249523,1.247616 0,1.358516 -0.970368,2.315022 Q 13.38624,21.980932 12,21.980932 q -1.386241,0 -2.3566091,-0.956506 -0.970368,-0.956506 -0.970368,-2.315022 0,-0.637671 0.249523,-1.233754 0.249523,-0.596083 0.720845,-1.067405 z"
     id="path1"
     style="fill-opacity:1;fill-rule:nonzero;stroke-width:0.025" /></svg>
