<?xml version="1.0" encoding="UTF-8"?>
<svg id="svg1" version="1.1" viewBox="0 0 24 24" xml:space="preserve" xmlns="http://www.w3.org/2000/svg"><path id="path1-4" d="m18.204 11.111c-0.25162-0.33334-0.55795-0.62224-0.8424-0.91114-0.733-0.66669-1.5645-1.1445-2.2646-1.8445-1.6301-1.6223-1.9911-4.3001-0.9518-6.3557-1.0393 0.25556-1.9474 0.83336-2.7241 1.4667-2.8335 2.3112-3.9494 6.3891-2.6147 9.8892 0.043764 0.11111 0.087518 0.22223 0.087518 0.36668 0 0.24445-0.1641 0.46668-0.38291 0.55557-0.25163 0.11111-0.51419 0.04444-0.72206-0.13334a0.63453 0.64446 0 0 1-0.15316-0.1889c-1.2362-1.5889-1.4332-3.8668-0.60171-5.6891-1.827 1.5112-2.8226 4.0668-2.6804 6.478 0.065645 0.55557 0.13128 1.1111 0.31727 1.6667 0.15316 0.66669 0.44855 1.3334 0.77676 1.9223 1.1815 1.9223 3.2274 3.3001 5.4264 3.5779 2.3412 0.30001 4.8465-0.13334 6.6407-1.7778 2.0021-1.8445 2.7022-4.8001 1.6739-7.3335l-0.14222-0.2889c-0.22975-0.51113-0.8424-1.4-0.8424-1.4m-3.4571 7.0002c-0.30633 0.26667-0.80958 0.55557-1.2034 0.66669-1.2253 0.44446-2.4506-0.17778-3.1727-0.91114 1.3019-0.31112 2.0786-1.2889 2.3084-2.2778 0.18598-0.88891-0.1641-1.6223-0.30633-2.4778-0.13128-0.82224-0.1094-1.5223 0.18598-2.289 0.20786 0.42224 0.42667 0.84447 0.68924 1.1778 0.8424 1.1111 2.1662 1.6 2.4506 3.1112 0.04376 0.15556 0.06565 0.31112 0.06565 0.47779 0.03282 0.91114-0.36103 1.9112-1.0174 2.5223z"/></svg>
