<?xml version="1.0" encoding="UTF-8"?>
<svg id="svg1" version="1.1" viewBox="0 0 24 24" xmlns="http://www.w3.org/2000/svg">
 <path id="path1" d="M21 11c0 5.55-3.84 10.74-9 12-5.16-1.26-9-6.45-9-12V5l9-4 9 4zm-9 10c3.75-1 7-5.46 7-9.78V6.3l-7-3.12L5 6.3v4.92C5 15.54 8.25 20 12 21"/>
 <path id="path1-6-4" d="m17.727 11.364c0 3.5318-2.4436 6.8345-5.7273 7.6364-3.2836-0.80182-5.7273-4.1045-5.7273-7.6364v-3.8182l5.7273-2.5455 5.7273 2.5455zm-5.7273 6.3636c2.3864-0.63636 4.4545-3.4745 4.4545-6.2236v-3.1309l-4.4545-1.9855z"/>
</svg>
