<?xml version="1.0" encoding="UTF-8"?>
<svg id="svg1" version="1.1" viewBox="0 0 24 24" xml:space="preserve" xmlns="http://www.w3.org/2000/svg"><path id="path1-4" d="m20.254 2c0.48832 0.80678 0.6934 1.7331 0.78275 2.6117 0.25744 2.5356-0.84439 5.0883-2.8067 6.7131l-0.0012-0.0037c-0.51282 0.42152-1.0827 0.78182-1.7034 1.0598-0.09649 0.04196-0.19328 0.08395-0.28328 0.17395-0.15231 0.15231-0.1878 0.39225-0.10685 0.58396 0.08755 0.22602 0.29149 0.34904 0.53178 0.36777 0.0718 0.0063 0.14435-0.0013 0.2137-0.02236 0.60344-0.07532 1.1797-0.2808 1.7034-0.58023v0.01c0.99424-0.575 1.7926-1.4991 2.1954-2.5781 0.1968 2.0799-1.0549 3.9982-2.3681 5.7054-0.13439 0.10599-0.22668 0.23113-0.36421 0.33398l-0.1449 0.13432c-0.17228 0.18203-0.0462 0.06853-0.3219 0.35869-0.43158 0.45029-0.9641 0.98234-1.4005 1.4219-1.5928 1.5896-3.8739 2.2794-6.0806 1.8389l-1.8712 1.8711-1.0598-1.0598 1.5904-1.5904-1.0611-1.0611-1.5904 1.5904-1.0598-1.0598 1.5904-1.5904-1.0598-1.0598-1.5904 1.5904-1.0611-1.0611 1.8761-1.8761c-0.4347-2.1841 0.24478-4.4841 1.8351-6.0744 0.34179-0.34091 0.62942-0.65537 1.0584-1.0503 0.547-0.57483 0.36345-0.45392 0.71273-0.78057l0.67061-0.6844c0.70298-0.4992 0.54337-0.32561 1.3005-0.64553l0.26972-0.093182c0.4616-0.17531 1.3965-0.34541 1.3965-0.34541 0.36447-0.050915 0.7349-0.040716 1.0921-0.043486 0.87217 0.041292 1.6883 0.26206 2.5607 0.26216 2.0264 0.0048793 3.9217-1.4388 4.5549-3.3671zm-4.489 6.4646c-0.39259 0.13356-0.79728 0.14126-1.1629 0.30316-1.2396 0.38062-1.5289-0.24078-3.1188-0.16088-0.19448 0.046233-0.20227 0.037324-0.61122 0.30024-0.29935 0.28307-0.29261 0.53296-0.25631 0.95785 0.10646 0.78537 0.18385 1.1523 0.27259 1.7911 0.02721 0.75086-0.0041 1.09 0.31668 1.6174 0.51662 0.57691 0.85229 0.94901 1.5334 0.94372-0.51069-0.89838-0.49164-2.0996-0.01863-2.8589 0.43796-0.66972 1.114-0.90858 1.7357-1.353 0.5941-0.4305 1.0159-0.87892 1.3096-1.5407zm-2.137 7.2436c-0.60038-0.62623-1.5936-0.65064-2.224-0.05467l-0.03236 0.02978c-0.61408 0.61326-0.61796 1.6072-0.0087 2.2253 0.6091 0.61829 1.6031 0.62879 2.2253 0.02361 0.62198-0.60453 0.63974-1.5976 0.03976-2.224zm-4.3611-4.3611c-0.60038-0.62623-1.5936-0.65064-2.224-0.054667l-0.031067 0.03107c-0.61408 0.61326-0.61796 1.6072-0.00871 2.2253 0.6091 0.61829 1.6031 0.62879 2.2253 0.02361 0.62246-0.60501 0.63966-1.5991 0.038516-2.2253zm0.51065 3.8032-2.5483 0.68212 1.8662 1.8662z"/></svg>
