<?xml version="1.0" encoding="UTF-8" standalone="no"?>
<!-- Created with Inkscape (http://www.inkscape.org/) -->

<svg

   viewBox="0 0 24 24.000001"
   id="svg2"
   version="1.1"
   inkscape:version="1.3.2 (091e20e, 2023-11-25, custom)"
   sodipodi:docname="piercing.svg"
   xmlns:inkscape="http://www.inkscape.org/namespaces/inkscape"
   xmlns:sodipodi="http://sodipodi.sourceforge.net/DTD/sodipodi-0.dtd"
   xmlns="http://www.w3.org/2000/svg"
   xmlns:svg="http://www.w3.org/2000/svg"
   xmlns:rdf="http://www.w3.org/1999/02/22-rdf-syntax-ns#"
   xmlns:cc="http://creativecommons.org/ns#"
   xmlns:dc="http://purl.org/dc/elements/1.1/">
  <defs
     id="defs4" />
  <sodipodi:namedview
     id="base"
     pagecolor="#ffffff"
     bordercolor="#666666"
     borderopacity="1.0"
     inkscape:pageopacity="0.0"
     inkscape:pageshadow="2"
     inkscape:zoom="5.656854"
     inkscape:cx="-17.67767"
     inkscape:cy="3.6239224"
     inkscape:document-units="px"
     inkscape:current-layer="layer1"
     showgrid="false"
     units="px"
     inkscape:window-width="1360"
     inkscape:window-height="715"
     inkscape:window-x="-8"
     inkscape:window-y="-8"
     inkscape:window-maximized="1"
     inkscape:showpageshadow="2"
     inkscape:pagecheckerboard="0"
     inkscape:deskcolor="#d1d1d1" />
  <metadata
     id="metadata7">
    <rdf:RDF>
      <cc:Work
         rdf:about="">
        <dc:format>image/svg+xml</dc:format>
        <dc:type
           rdf:resource="http://purl.org/dc/dcmitype/StillImage" />
      </cc:Work>
    </rdf:RDF>
  </metadata>
  <g
     inkscape:label="Layer 1"
     inkscape:groupmode="layer"
     id="layer1"
     transform="translate(0,-1020.3622)">
    <path
       id="path3349-6"
       style="fill-opacity:1;fill-rule:evenodd;stroke:none;stroke-width:1px;stroke-linecap:butt;stroke-linejoin:miter;stroke-opacity:1"
       d="m 17.23227,1035.9929 -1.470959,1.471 4.821562,4.5273 c 0.331994,0.042 1.172392,-0.6791 1.06227,-1.0082 z" />
    <path
       id="path1"
       style="fill-opacity:1;fill-rule:evenodd;stroke:none;stroke-width:1px;stroke-linecap:butt;stroke-linejoin:miter;stroke-opacity:1"
       d="m 3.367741,1021.3627 c -0.8775603,0.036 -2.6047535,1.8281 -2.3405589,2.4252 l 10.1937939,9.574 1.566583,-1.5666 -9.1776327,-10.3835 c -0.06946,-0.037 -0.1514034,-0.053 -0.2421853,-0.049 z" />
    <path
       id="path2"
       style="fill-opacity:1;fill-rule:evenodd;stroke:none;stroke-width:0.999995px;stroke-linecap:butt;stroke-linejoin:miter;stroke-opacity:1"
       d="m 19.125086,1023.0617 c -0.158363,0.01 -0.325233,0.02 -0.49968,0.045 -1.685024,0.2394 -4.139317,1.4139 -7.62758,4.7488 l 0.729011,0.7289 c 1.546765,-1.3817 5.834443,-4.9978 7.776738,-4.3889 1.180233,2.9209 -12.5303656,15.8826 -16.2396057,15.5217 -0.1558015,-1.2905 2.293589,-4.7979 4.3367764,-7.1557 l -0.8315574,-0.8316 c -5.2521564,5.4788 -5.8236056,8.9357 -4.6705178,10.2154 0.025639,0.024 0.055137,0.041 0.082036,0.063 0.00168,-10e-5 0.00389,0.012 0.00559,0.012 0.032501,0.03 0.068001,0.053 0.1025462,0.08 0.00137,-2e-4 0.00303,4e-4 0.00559,0.011 0.025639,0.024 0.055138,0.041 0.082037,0.063 0.00168,-3e-4 0.00389,0.01 0.00559,0.01 0.071908,0.066 0.1509923,0.1248 0.2330598,0.1771 0.015619,0.011 0.030959,0.025 0.046612,0.037 0.00137,-10e-5 0.003,0 0.00559,0.01 0.025639,0.024 0.055138,0.039 0.082037,0.061 0.00168,-2e-4 0.00389,0.013 0.00559,0.013 3.9277831,3.6428 23.3271215,-14.5489 19.2973495,-18.257 -0.01577,-0.01 -0.03564,-0.024 -0.05221,-0.035 -0.01216,-0.012 -0.02277,-0.024 -0.03543,-0.035 -0.02038,-0.014 -0.04546,-0.028 -0.06712,-0.043 -0.01422,-0.014 -0.02425,-0.03 -0.03916,-0.045 -0.01577,-0.01 -0.03565,-0.024 -0.05221,-0.035 -0.01216,-0.012 -0.02277,-0.024 -0.03543,-0.035 -0.02258,-0.016 -0.05047,-0.033 -0.07458,-0.049 -0.0065,-0.01 -0.01064,-0.013 -0.01678,-0.018 -0.01577,-0.01 -0.03564,-0.022 -0.05221,-0.033 -0.01216,-0.012 -0.02091,-0.026 -0.03356,-0.037 -0.02038,-0.014 -0.04733,-0.028 -0.06899,-0.043 -0.01422,-0.014 -0.02426,-0.029 -0.03916,-0.043 -0.01577,-0.01 -0.03565,-0.024 -0.05221,-0.035 -0.01216,-0.012 -0.02277,-0.024 -0.03543,-0.035 -0.442975,-0.3129 -1.164263,-0.6844 -2.272799,-0.6395 z" />
  </g>
</svg>
