<?xml version="1.0" encoding="UTF-8"?>
<svg id="svg1" version="1.1" viewBox="0 0 24 24" xmlns="http://www.w3.org/2000/svg">
 <!--! Font Awesome Free 6.5.2 by @fontawesome - https://fontawesome.com License - https://fontawesome.com/license/free (Icons: CC BY 4.0, Fonts: SIL OFL 1.1, Code: MIT License) Copyright 2024 Fonticons, Inc.-->
 <path id="path1" d="m17.623 7.0001c0 1.7344-0.99222 3.2618-2.5001 4.1564v0.84378c0 0.69143-0.55861 1.25-1.25 1.25h-3.7501c-0.69143 0-1.25-0.55861-1.25-1.25v-0.84378c-1.5079-0.89846-2.5001-2.4259-2.5001-4.1564 0-2.7618 2.5196-5.0001 5.6252-5.0001 3.1056 0 5.6252 2.2383 5.6252 5.0001zm-7.8127 1.8751a1.25 1.25 0 1 0 0-2.5001 1.25 1.25 0 1 0 0 2.5001zm5.6252-1.25a1.25 1.25 0 1 0-2.5001 0 1.25 1.25 0 1 0 2.5001 0zm-12.055 5.0666c0.3086-0.6172 1.0586-0.86721 1.6758-0.55861l6.9416 3.4689 6.9416-3.4689c0.61721-0.3086 1.3672-0.0586 1.6758 0.55861 0.3086 0.61721 0.05859 1.3672-0.55861 1.6758l-5.2619 2.6329 5.2658 2.6329c0.61721 0.3086 0.86721 1.0586 0.55861 1.6758-0.3086 0.61721-1.0586 0.86721-1.6758 0.55861l-6.9455-3.4689-6.9416 3.4689c-0.61721 0.3086-1.3672 0.0586-1.6758-0.55861-0.3086-0.61721-0.058596-1.3672 0.55861-1.6758l5.2619-2.6329-5.2619-2.6329c-0.61721-0.3086-0.86721-1.0586-0.55861-1.6758z"/>
</svg>
