<?xml version="1.0" encoding="UTF-8"?>
<!-- Created with Inkscape (http://www.inkscape.org/) -->
<svg id="svg2" version="1.1" viewBox="0 0 24 24" xmlns="http://www.w3.org/2000/svg" xmlns:cc="http://creativecommons.org/ns#" xmlns:dc="http://purl.org/dc/elements/1.1/" xmlns:rdf="http://www.w3.org/1999/02/22-rdf-syntax-ns#">
 <metadata id="metadata7">
  <rdf:RDF>
   <cc:Work rdf:about="">
    <dc:format>image/svg+xml</dc:format>
    <dc:type rdf:resource="http://purl.org/dc/dcmitype/StillImage"/>
   </cc:Work>
  </rdf:RDF>
 </metadata>
 <g id="layer1" transform="translate(0 -1020.4)" fill-rule="evenodd">
  <path id="path3349-6" d="m17.232 1036-1.471 1.471 4.8216 4.5273c0.33199 0.042 1.1724-0.6791 1.0623-1.0082z"/>
  <path id="path1" d="m3.3677 1021.4c-0.87756 0.036-2.6048 1.8281-2.3406 2.4252l10.194 9.574 1.5666-1.5666-9.1776-10.384c-0.06946-0.037-0.1514-0.053-0.24219-0.049z"/>
  <path id="path2" d="m19.125 1023.1c-0.15836 0.01-0.32523 0.02-0.49968 0.045-1.685 0.2394-4.1393 1.4139-7.6276 4.7488l0.72901 0.7289c1.5468-1.3817 5.8344-4.9978 7.7767-4.3889 1.1802 2.9209-12.53 15.883-16.24 15.522-0.1558-1.2905 2.2936-4.7979 4.3368-7.1557l-0.83156-0.8316c-5.2522 5.4788-5.8236 8.9357-4.6705 10.215 0.025639 0.024 0.055137 0.041 0.082036 0.063 0.00168-1e-4 0.00389 0.012 0.00559 0.012 0.032501 0.03 0.068001 0.053 0.10255 0.08 0.00137-2e-4 0.00303 4e-4 0.00559 0.011 0.025639 0.024 0.055138 0.041 0.082037 0.063 0.00168-3e-4 0.00389 0.01 0.00559 0.01 0.071908 0.066 0.15099 0.1248 0.23306 0.1771 0.015619 0.011 0.030959 0.025 0.046612 0.037 0.00137-1e-4 3e-3 0 0.00559 0.01 0.025639 0.024 0.055138 0.039 0.082037 0.061 0.00168-2e-4 0.00389 0.013 0.00559 0.013 3.9278 3.6428 23.327-14.549 19.297-18.257-0.01577-0.01-0.03564-0.024-0.05221-0.035-0.01216-0.012-0.02277-0.024-0.03543-0.035-0.02038-0.014-0.04546-0.028-0.06712-0.043-0.01422-0.014-0.02425-0.03-0.03916-0.045-0.01577-0.01-0.03565-0.024-0.05221-0.035-0.01216-0.012-0.02277-0.024-0.03543-0.035-0.02258-0.016-0.05047-0.033-0.07458-0.049-0.0065-0.01-0.01064-0.013-0.01678-0.018-0.01577-0.01-0.03564-0.022-0.05221-0.033-0.01216-0.012-0.02091-0.026-0.03356-0.037-0.02038-0.014-0.04733-0.028-0.06899-0.043-0.01422-0.014-0.02426-0.029-0.03916-0.043-0.01577-0.01-0.03565-0.024-0.05221-0.035-0.01216-0.012-0.02277-0.024-0.03543-0.035-0.44298-0.3129-1.1643-0.6844-2.2728-0.6395z"/>
 </g>
</svg>
