<?xml version="1.0" encoding="UTF-8" standalone="no"?>
<svg
   viewBox="0 0 24 24"
   version="1.1"
   id="svg1"
   sodipodi:docname="psychic.svg"
   inkscape:version="1.3.2 (091e20e, 2023-11-25, custom)"
   xmlns:inkscape="http://www.inkscape.org/namespaces/inkscape"
   xmlns:sodipodi="http://sodipodi.sourceforge.net/DTD/sodipodi-0.dtd"
   xmlns="http://www.w3.org/2000/svg"
   xmlns:svg="http://www.w3.org/2000/svg">
  <defs
     id="defs1" />
  <sodipodi:namedview
     id="namedview1"
     pagecolor="#ffffff"
     bordercolor="#666666"
     borderopacity="1.0"
     inkscape:showpageshadow="2"
     inkscape:pageopacity="0.0"
     inkscape:pagecheckerboard="0"
     inkscape:deskcolor="#d1d1d1"
     inkscape:zoom="3.9553785"
     inkscape:cx="-13.146656"
     inkscape:cy="-18.329472"
     inkscape:window-width="1360"
     inkscape:window-height="715"
     inkscape:window-x="-8"
     inkscape:window-y="-8"
     inkscape:window-maximized="1"
     inkscape:current-layer="svg1" />
  <g
     id="g1">
    <path
       d="M 12,9.8397693 A 2.1602318,2.1602318 0 0 0 9.8397688,12.000001 2.1602318,2.1602318 0 0 0 12,14.160231 2.1602318,2.1602318 0 0 0 14.160231,12.000001 2.1602318,2.1602318 0 0 0 12,9.8397693 m 0,5.7606177 A 3.6003863,3.6003863 0 0 1 8.3996138,12.000001 3.6003863,3.6003863 0 0 1 12,8.3996139 3.6003863,3.6003863 0 0 1 15.600386,12.000001 3.6003863,3.6003863 0 0 1 12,15.600387 m 0,-9.0009662 c -3.6003862,0 -6.6751161,2.2394404 -7.9208498,5.4005802 C 5.3248839,15.16114 8.3996138,17.400579 12,17.400579 c 3.600386,0 6.675116,-2.239439 7.92085,-5.400578 C 18.675116,8.8388612 15.600386,6.5994208 12,6.5994208 Z"
       id="path1"
       style="stroke-width:0.999997" />
    <path
       style="stroke-width:1;paint-order:stroke markers fill"
       id="path2-5-7"
       sodipodi:type="arc"
       sodipodi:cx="17.213261"
       sodipodi:cy="20.051924"
       sodipodi:rx="2"
       sodipodi:ry="2"
       sodipodi:start="0"
       sodipodi:end="6.254895"
       sodipodi:open="true"
       sodipodi:arc-type="chord"
       d="m 19.213261,20.051924 a 2,2 0 0 1 -1.985855,1.99995 2,2 0 0 1 -2.013945,-1.971661 2,2 0 0 1 1.957367,-2.027839 2,2 0 0 1 2.041632,1.942977 z" />
    <path
       style="stroke-width:1;paint-order:stroke markers fill"
       id="path2-5-7-34"
       sodipodi:type="arc"
       sodipodi:cx="12"
       sodipodi:cy="3.3138597"
       sodipodi:rx="2"
       sodipodi:ry="2"
       sodipodi:start="0"
       sodipodi:end="6.254895"
       sodipodi:open="true"
       sodipodi:arc-type="chord"
       d="M 14,3.3138597 A 2,2 0 0 1 12.014145,5.3138097 2,2 0 0 1 10.0002,3.3421491 2,2 0 0 1 11.957568,1.3143099 2,2 0 0 1 13.9992,3.2572866 Z" />
    <path
       style="stroke-width:1;paint-order:stroke markers fill"
       id="path2-5-7-3"
       sodipodi:type="arc"
       sodipodi:cx="6.7867393"
       sodipodi:cy="20.12641"
       sodipodi:rx="2"
       sodipodi:ry="2"
       sodipodi:start="0"
       sodipodi:end="6.254895"
       sodipodi:open="true"
       sodipodi:arc-type="chord"
       d="m 8.7867393,20.12641 a 2,2 0 0 1 -1.9858549,1.99995 2,2 0 0 1 -2.013945,-1.971661 2,2 0 0 1 1.9573677,-2.027839 2,2 0 0 1 2.041632,1.942976 z" />
  </g>
</svg>
