<?xml version="1.0" encoding="UTF-8" standalone="no"?>
<svg
   viewBox="0 0 24 24"
   version="1.1"
   id="svg1"
   sodipodi:docname="psyc.svg"
   inkscape:version="1.4 (86a8ad7, 2024-10-11)"
   xmlns:inkscape="http://www.inkscape.org/namespaces/inkscape"
   xmlns:sodipodi="http://sodipodi.sourceforge.net/DTD/sodipodi-0.dtd"
   xmlns="http://www.w3.org/2000/svg"
   xmlns:svg="http://www.w3.org/2000/svg">
  <defs
     id="defs1" />
  <sodipodi:namedview
     id="namedview1"
     pagecolor="#ffffff"
     bordercolor="#666666"
     borderopacity="1.0"
     inkscape:showpageshadow="2"
     inkscape:pageopacity="0.0"
     inkscape:pagecheckerboard="0"
     inkscape:deskcolor="#d1d1d1"
     inkscape:zoom="7.910757"
     inkscape:cx="16.054089"
     inkscape:cy="13.336271"
     inkscape:window-width="1920"
     inkscape:window-height="1017"
     inkscape:window-x="-8"
     inkscape:window-y="-8"
     inkscape:window-maximized="1"
     inkscape:current-layer="svg1" />
  <path
     d="M 12,9.5454561 A 2.4545456,2.4545456 0 0 0 9.545455,12.000001 2.4545456,2.4545456 0 0 0 12,14.454545 2.4545456,2.4545456 0 0 0 14.454545,12.000001 2.4545456,2.4545456 0 0 0 12,9.5454561 m 0,6.5454529 A 4.0909093,4.0909093 0 0 1 7.9090909,12.000001 4.0909093,4.0909093 0 0 1 12,7.9090913 4.0909093,4.0909093 0 0 1 16.09091,12.000001 4.0909093,4.0909093 0 0 1 12,16.090909 M 12,5.8636368 c -4.0909091,0 -7.5845454,2.5445458 -9,6.1363642 1.4154546,3.591819 4.9090909,6.136362 9,6.136362 4.09091,0 7.584545,-2.544543 9,-6.136362 C 19.584545,8.4081825 16.09091,5.8636368 12,5.8636368 Z"
     id="path1"
     style="stroke-width:1.13624" />
  <g
     id="g1"
     transform="matrix(-1,0,0,-1.0395465,24,24.590708)">
    <rect
       style="stroke-width:0.907546"
       id="rect1"
       width="4"
       height="6"
       x="10"
       y="2.0111732" />
    <rect
       style="stroke-width:0.907546"
       id="rect1-8"
       width="4"
       height="6"
       x="10"
       y="16.21229" />
  </g>
</svg>
