<?xml version="1.0" encoding="UTF-8"?>
<svg id="svg1" version="1.1" viewBox="0 0 24 24" xmlns="http://www.w3.org/2000/svg">
 <path id="path1" d="m12 9.5455a2.4545 2.4545 0 0 0-2.4545 2.4545 2.4545 2.4545 0 0 0 2.4545 2.4545 2.4545 2.4545 0 0 0 2.4545-2.4545 2.4545 2.4545 0 0 0-2.4545-2.4545m0 6.5455a4.0909 4.0909 0 0 1-4.0909-4.0909 4.0909 4.0909 0 0 1 4.0909-4.0909 4.0909 4.0909 0 0 1 4.0909 4.0909 4.0909 4.0909 0 0 1-4.0909 4.0909m0-10.227c-4.0909 0-7.5845 2.5445-9 6.1364 1.4155 3.5918 4.9091 6.1364 9 6.1364 4.0909 0 7.5845-2.5445 9-6.1364-1.4155-3.5918-4.9091-6.1364-9-6.1364z" stroke-width="1.1362"/>
 <g id="g1" transform="matrix(-1 0 0 -1.0395 24 24.591)" stroke-width=".90755">
  <rect id="rect1" x="10" y="2.0112" width="4" height="6"/>
  <rect id="rect1-8" x="10" y="16.212" width="4" height="6"/>
 </g>
</svg>
