<?xml version="1.0" encoding="UTF-8" standalone="no"?>
<!-- Uploaded to: SVG Repo, www.svgrepo.com, Generator: SVG Repo Mixer Tools -->

<svg
   fill="#000000"

   viewBox="0 0 0.96000001 0.96000001"
   version="1.1"
   id="svg5"
   sodipodi:docname="radiant.svg"
   inkscape:version="1.3.2 (091e20e, 2023-11-25, custom)"
   xmlns:inkscape="http://www.inkscape.org/namespaces/inkscape"
   xmlns:sodipodi="http://sodipodi.sourceforge.net/DTD/sodipodi-0.dtd"
   xmlns="http://www.w3.org/2000/svg"
   xmlns:svg="http://www.w3.org/2000/svg"
   xmlns:rdf="http://www.w3.org/1999/02/22-rdf-syntax-ns#"
   xmlns:cc="http://creativecommons.org/ns#"
   xmlns:dc="http://purl.org/dc/elements/1.1/">
  <defs
     id="defs5" />
  <sodipodi:namedview
     id="namedview5"
     pagecolor="#ffffff"
     bordercolor="#666666"
     borderopacity="1.0"
     inkscape:showpageshadow="2"
     inkscape:pageopacity="0.0"
     inkscape:pagecheckerboard="0"
     inkscape:deskcolor="#d1d1d1"
     inkscape:zoom="10.74"
     inkscape:cx="18.621974"
     inkscape:cy="5.4469274"
     inkscape:window-width="1360"
     inkscape:window-height="715"
     inkscape:window-x="-8"
     inkscape:window-y="-8"
     inkscape:window-maximized="1"
     inkscape:current-layer="svg5" />
  <title
     id="title1">crimson_days</title>
  <g
     id="g6"
     transform="matrix(1.05,0,0,1.05,-0.024,-0.024)"
     style="stroke-width:0.952381">
    <path
       d="m 0.735442,0.39995453 c -0.0183077,-0.009108 -0.0893408,-0.0436847 -0.10782976,-0.0518191 -0.007204,-0.002991 -0.0128471,-0.008565 -0.0158153,-0.0155434 l -6.797e-5,-1.8126e-4 c -0.010468,-0.0256263 -0.0434808,-0.0935098 -0.0487149,-0.1053373 0,-1.1329e-4 0,-2.7189e-4 0,-4.0785e-4 0,-0.005958 0.00179,-0.0115102 0.004848,-0.0161325 l -6.798e-5,1.133e-4 C 0.57547509,0.19743682 0.62430329,0.09187283 0.62983189,0.08 c 0.001699,0.0023563 0.0678156,0.13556322 0.0696963,0.13880333 0.002356,0.007976 -0.00256,0.0144332 -0.005415,0.0215025 -0.005528,0.0137534 -0.0107399,0.0276202 -0.0164271,0.0423706 0.0203922,-0.006186 0.039493,-0.0156794 0.0594548,-0.0227714 0.0199391,0.009448 0.13501943,0.0647794 0.14285912,0.0706026 -0.0476953,0.0241988 -0.0966367,0.0449536 -0.14458114,0.0694923 z"
       id="path1"
       style="stroke-width:0.952374" />
    <path
       d="m 0.73544203,0.56004548 c -0.0183077,0.009108 -0.0893408,0.0436847 -0.10782976,0.0518191 -0.007204,0.002991 -0.0128471,0.008565 -0.0158153,0.0155434 l -6.797e-5,1.8126e-4 c -0.010468,0.0256263 -0.0434808,0.0935098 -0.0487149,0.1053373 0,1.1329e-4 0,2.7189e-4 0,4.0785e-4 0,0.005958 0.00179,0.0115102 0.004848,0.0161325 l -6.798e-5,-1.133e-4 c 0.007681,0.0132096 0.0565092,0.11877359 0.0620378,0.13064642 0.001699,-0.002356 0.0678156,-0.13556322 0.0696963,-0.13880333 0.002356,-0.007976 -0.00256,-0.0144332 -0.005415,-0.0215025 -0.005528,-0.0137534 -0.0107399,-0.0276202 -0.0164271,-0.0423706 0.0203922,0.006186 0.039493,0.0156794 0.0594548,0.0227714 0.0199391,-0.009448 0.13501939,-0.0647794 0.14285909,-0.0706026 -0.047695,-0.0241988 -0.0966367,-0.0449536 -0.14458111,-0.0694923 z"
       id="path1-2"
       style="stroke-width:0.952374" />
    <path
       d="m 0.22455801,0.39995453 c 0.0183077,-0.009108 0.0893408,-0.0436847 0.10782976,-0.0518191 0.007204,-0.002991 0.0128471,-0.008565 0.0158153,-0.0155434 l 6.797e-5,-1.8126e-4 c 0.010468,-0.0256263 0.0434808,-0.0935098 0.0487149,-0.1053373 0,-1.1329e-4 0,-2.7189e-4 0,-4.0785e-4 0,-0.005958 -0.00179,-0.0115102 -0.004848,-0.0161325 l 6.798e-5,1.133e-4 C 0.38452492,0.19743682 0.33569672,0.09187283 0.33016812,0.08 c -0.001699,0.002356 -0.0678156,0.13556322 -0.0696963,0.13880333 -0.002356,0.007976 0.00256,0.0144332 0.005415,0.0215025 0.005528,0.0137534 0.0107399,0.0276202 0.0164271,0.0423706 -0.0203922,-0.006186 -0.039493,-0.0156794 -0.0594548,-0.0227714 -0.0199391,0.009448 -0.13501943,0.0647794 -0.14285912,0.0706026 0.0476953,0.0241988 0.0966367,0.0449536 0.14458114,0.0694923 z"
       id="path1-7"
       style="stroke-width:0.952374" />
    <path
       d="m 0.22455798,0.56004549 c 0.0183077,0.009108 0.0893408,0.0436847 0.10782976,0.0518191 0.007204,0.002991 0.0128471,0.008565 0.0158153,0.0155434 l 6.797e-5,1.8126e-4 c 0.010468,0.0256263 0.0434808,0.0935098 0.0487149,0.1053373 0,1.1329e-4 0,2.7189e-4 0,4.0785e-4 0,0.005958 -0.00179,0.0115102 -0.004848,0.0161325 l 6.798e-5,-1.133e-4 c -0.007681,0.0132096 -0.0565092,0.11877361 -0.0620378,0.13064641 -0.001699,-0.00236 -0.0678156,-0.13556321 -0.0696963,-0.13880332 -0.002356,-0.007976 0.00256,-0.0144332 0.005415,-0.0215025 0.005528,-0.0137534 0.0107399,-0.0276202 0.0164271,-0.0423706 -0.0203922,0.006186 -0.039493,0.0156794 -0.0594548,0.0227714 C 0.20291999,0.69064699 0.0878397,0.63531559 0.08,0.62949239 0.127695,0.60529359 0.1766367,0.58453879 0.22458111,0.56000009 Z"
       id="path1-2-8"
       style="stroke-width:0.952374" />
    <path
       d="m 0.36312014,0.55930767 -0.16312037,-0.0783248 0.16172619,-0.0793617 0.0658131,0.0269544 c -0.006006,-0.0155863 -0.024309,-0.0633464 -0.0236298,-0.0701387 l 0.0755723,-0.15761512 c 0.002861,0.005613 0.0487251,0.10384934 0.0733559,0.14878525 0.007506,0.0134778 8.2222e-4,0.0233437 -0.00243,0.0339969 -0.005648,0.0184463 -0.0112606,0.0333178 -0.0175526,0.0478315 l 0.001144,-0.002896 c 0,0 0.0428625,-0.0179816 0.0578411,-0.0233437 0.002182,-0.001144 0.004754,-0.001787 0.00747,-0.001787 0.003003,0 0.00579,7.8647e-4 0.008223,0.002217 l -7.149e-5,-3.574e-5 c 0.0382152,0.019626 0.0768594,0.0385012 0.11543177,0.0574121 0.008687,0.004219 0.0327098,0.0151933 0.037107,0.0179816 l -0.16312039,0.0781462 -0.0626671,-0.0256675 c 0.004503,0.0192326 0.0131558,0.0369282 0.02245,0.0591281 0.001429,0.006685 -0.001931,0.0161225 -0.007222,0.026132 -0.0191969,0.0359274 -0.0602005,0.13091104 -0.0695664,0.14045581 -0.003218,-0.004898 -0.0605579,-0.12186661 -0.0718902,-0.14349446 -0.002681,-0.004898 -0.00429,-0.010724 -0.00429,-0.0169091 0,-0.003467 5.0049e-4,-0.006827 0.001429,-0.0100088 l -7.15e-5,2.5024e-4 0.02245,-0.0563397 z"
       id="path5"
       style="stroke-width:0.952381" />
  </g>
  <metadata
     id="metadata5">
    <rdf:RDF>
      <cc:Work
         rdf:about="">
        <dc:title>crimson_days</dc:title>
      </cc:Work>
    </rdf:RDF>
  </metadata>
</svg>
