<?xml version="1.0" encoding="UTF-8"?>
<!-- Uploaded to: SVG Repo, www.svgrepo.com, Generator: SVG Repo Mixer Tools -->
<svg id="svg5" fill="#000000" version="1.1" viewBox="0 0 .96 .96" xmlns="http://www.w3.org/2000/svg" xmlns:cc="http://creativecommons.org/ns#" xmlns:dc="http://purl.org/dc/elements/1.1/" xmlns:rdf="http://www.w3.org/1999/02/22-rdf-syntax-ns#">
 <title id="title1">crimson_days</title>
 <g id="g6" transform="matrix(1.05 0 0 1.05 -.024 -.024)">
  <path id="path1" d="m0.73544 0.39995c-0.018308-0.009108-0.089341-0.043685-0.10783-0.051819-0.007204-0.002991-0.012847-0.008565-0.015815-0.015543l-6.797e-5 -1.8126e-4c-0.010468-0.025626-0.043481-0.09351-0.048715-0.10534v-4.0785e-4c0-0.005958 0.00179-0.01151 0.004848-0.016132l-6.798e-5 1.133e-4c0.007681-0.01321 0.056509-0.11877 0.062038-0.13065 0.001699 0.0023563 0.067816 0.13556 0.069696 0.1388 0.002356 0.007976-0.00256 0.014433-0.005415 0.021502-0.005528 0.013753-0.01074 0.02762-0.016427 0.042371 0.020392-0.006186 0.039493-0.015679 0.059455-0.022771 0.019939 0.009448 0.13502 0.064779 0.14286 0.070603-0.047695 0.024199-0.096637 0.044954-0.14458 0.069492z" stroke-width=".95237"/>
  <path id="path1-2" d="m0.73544 0.56005c-0.018308 0.009108-0.089341 0.043685-0.10783 0.051819-0.007204 0.002991-0.012847 0.008565-0.015815 0.015543l-6.797e-5 1.8126e-4c-0.010468 0.025626-0.043481 0.09351-0.048715 0.10534v4.0785e-4c0 0.005958 0.00179 0.01151 0.004848 0.016132l-6.798e-5 -1.133e-4c0.007681 0.01321 0.056509 0.11877 0.062038 0.13065 0.001699-0.002356 0.067816-0.13556 0.069696-0.1388 0.002356-0.007976-0.00256-0.014433-0.005415-0.021502-0.005528-0.013753-0.01074-0.02762-0.016427-0.042371 0.020392 0.006186 0.039493 0.015679 0.059455 0.022771 0.019939-0.009448 0.13502-0.064779 0.14286-0.070603-0.047695-0.024199-0.096637-0.044954-0.14458-0.069492z" stroke-width=".95237"/>
  <path id="path1-7" d="m0.22456 0.39995c0.018308-0.009108 0.089341-0.043685 0.10783-0.051819 0.007204-0.002991 0.012847-0.008565 0.015815-0.015543l6.797e-5 -1.8126e-4c0.010468-0.025626 0.043481-0.09351 0.048715-0.10534v-4.0785e-4c0-0.005958-0.00179-0.01151-0.004848-0.016132l6.798e-5 1.133e-4c-0.007681-0.01321-0.056509-0.11877-0.062038-0.13065-0.001699 0.002356-0.067816 0.13556-0.069696 0.1388-0.002356 0.007976 0.00256 0.014433 0.005415 0.021502 0.005528 0.013753 0.01074 0.02762 0.016427 0.042371-0.020392-0.006186-0.039493-0.015679-0.059455-0.022771-0.019939 0.009448-0.13502 0.064779-0.14286 0.070603 0.047695 0.024199 0.096637 0.044954 0.14458 0.069492z" stroke-width=".95237"/>
  <path id="path1-2-8" d="m0.22456 0.56005c0.018308 0.009108 0.089341 0.043685 0.10783 0.051819 0.007204 0.002991 0.012847 0.008565 0.015815 0.015543l6.797e-5 1.8126e-4c0.010468 0.025626 0.043481 0.09351 0.048715 0.10534v4.0785e-4c0 0.005958-0.00179 0.01151-0.004848 0.016132l6.798e-5 -1.133e-4c-0.007681 0.01321-0.056509 0.11877-0.062038 0.13065-0.001699-0.00236-0.067816-0.13556-0.069696-0.1388-0.002356-0.007976 0.00256-0.014433 0.005415-0.021502 0.005528-0.013753 0.01074-0.02762 0.016427-0.042371-0.020392 0.006186-0.039493 0.015679-0.059455 0.022771-0.019939-0.009448-0.13502-0.064779-0.14286-0.070603 0.047695-0.024199 0.096637-0.044954 0.14458-0.069492z" stroke-width=".95237"/>
  <path id="path5" d="m0.36312 0.55931-0.16312-0.078325 0.16173-0.079362 0.065813 0.026954c-0.006006-0.015586-0.024309-0.063346-0.02363-0.070139l0.075572-0.15762c0.002861 0.005613 0.048725 0.10385 0.073356 0.14879 0.007506 0.013478 8.2222e-4 0.023344-0.00243 0.033997-0.005648 0.018446-0.011261 0.033318-0.017553 0.047832l0.001144-0.002896s0.042862-0.017982 0.057841-0.023344c0.002182-0.001144 0.004754-0.001787 0.00747-0.001787 0.003003 0 0.00579 7.8647e-4 0.008223 0.002217l-7.149e-5 -3.574e-5c0.038215 0.019626 0.076859 0.038501 0.11543 0.057412 0.008687 0.004219 0.03271 0.015193 0.037107 0.017982l-0.16312 0.078146-0.062667-0.025668c0.004503 0.019233 0.013156 0.036928 0.02245 0.059128 0.001429 0.006685-0.001931 0.016122-0.007222 0.026132-0.019197 0.035927-0.0602 0.13091-0.069566 0.14046-0.003218-0.004898-0.060558-0.12187-0.07189-0.14349-0.002681-0.004898-0.00429-0.010724-0.00429-0.016909 0-0.003467 5.0049e-4 -0.006827 0.001429-0.010009l-7.15e-5 2.5024e-4 0.02245-0.05634z" stroke-width=".95238"/>
 </g>
 <metadata id="metadata5">
  <rdf:RDF>
   <cc:Work rdf:about="">
    <dc:title>crimson_days</dc:title>
   </cc:Work>
  </rdf:RDF>
 </metadata>
</svg>
