<?xml version="1.0" encoding="UTF-8"?>
<!-- Created with Inkscape (http://www.inkscape.org/) -->
<svg id="svg2" version="1.1" viewBox="0 0 24 24" xml:space="preserve" xmlns="http://www.w3.org/2000/svg" xmlns:cc="http://creativecommons.org/ns#" xmlns:dc="http://purl.org/dc/elements/1.1/" xmlns:rdf="http://www.w3.org/1999/02/22-rdf-syntax-ns#"><metadata id="metadata7"><rdf:RDF><cc:Work rdf:about=""><dc:format>image/svg+xml</dc:format><dc:type rdf:resource="http://purl.org/dc/dcmitype/StillImage"/></cc:Work></rdf:RDF></metadata><g id="layer1" transform="translate(0 -1020.4)"><g id="g1" transform="matrix(.90909 0 0 .90909 1.0909 93.851)" stroke-width="1.1"><path id="path4192" d="m13.627 1023.7c1.4131-1.2763 9.3602-4.8269 9.3733 1.4482 0.0067 3.228-2.3659 6.8972-4.4764 9.3905-3.2338 3.8206-10.055 9.9888-17.524 8.2609 6.8902-0.3798 12.053-6.5718 14.916-10.249 6.4859-8.3333 1.6359-11.177-2.2891-8.8502z"/><path id="path4192-0" d="m10.668 1025.9c0.90596-0.8183 6.0009-3.0946 6.0093 0.9284 0.0043 2.0695-1.5168 4.4219-2.8698 6.0204-2.0733 2.4494-6.4466 6.4039-11.235 5.2962 4.4174-0.2435 7.7276-4.2133 9.5627-6.571 4.1582-5.3426 1.0488-7.1659-1.4676-5.674z"/></g></g></svg>
