<?xml version="1.0" encoding="UTF-8" standalone="no"?>
<svg
   viewBox="0 0 23.999971 24.000002"
   version="1.1"
   id="svg1"
   sodipodi:docname="thun-lg.svg"
   width="23.999971"
   height="24.000002"
   inkscape:version="1.4 (86a8ad7, 2024-10-11)"
   xmlns:inkscape="http://www.inkscape.org/namespaces/inkscape"
   xmlns:sodipodi="http://sodipodi.sourceforge.net/DTD/sodipodi-0.dtd"
   xmlns="http://www.w3.org/2000/svg"
   xmlns:svg="http://www.w3.org/2000/svg">
  <defs
     id="defs1" />
  <sodipodi:namedview
     id="namedview1"
     pagecolor="#ffffff"
     bordercolor="#111111"
     borderopacity="1"
     inkscape:showpageshadow="0"
     inkscape:pageopacity="0"
     inkscape:pagecheckerboard="1"
     inkscape:deskcolor="#d1d1d1"
     inkscape:zoom="18.009126"
     inkscape:cx="28.096866"
     inkscape:cy="-3.8036272"
     inkscape:window-width="1920"
     inkscape:window-height="1017"
     inkscape:window-x="-8"
     inkscape:window-y="-8"
     inkscape:window-maximized="1"
     inkscape:current-layer="g1" />
  <g
     class=""
     transform="matrix(0.05514635,0,0,0.05514635,-2.190904,-2.253275)"
     id="g1">
    <path
       d="m 122.99207,123.53312 c -34.751192,34.55885 -56.285139,82.40396 -56.284573,135.21578 0,90.36825 63.202903,165.42792 147.639933,185.01704 -45.09757,-21.19624 -80.04618,-74.31014 -90.8734,-140.5123 15.50544,45.89858 54.1542,81.06724 102.01854,92.16995 -34.30826,-16.12486 -60.68674,-57.19079 -67.91959,-108.08551 10.51044,35.64949 39.76203,63.19272 76.31606,71.67178 -29.79239,-14.00298 -51.46663,-53.55062 -51.4672,-100.38767 5.7e-4,-49.63946 24.24245,-91.43456 56.81858,-102.93778 -38.39986,6.75994 -69.57252,34.65276 -81.08309,71.21301 8.54412,-52.75017 37.61299,-94.56167 74.59638,-107.62561 -50.33469,8.86542 -91.52791,44.46287 -108.39099,91.57542 12.60178,-68.66686 51.12212,-122.726588 99.78691,-139.916637 -39.1081,6.886655 -74.13081,25.727373 -101.15813,52.603087 z m 101.15926,-52.603092 0.008,-0.0011 -0.001,-0.0011 c -0.002,0.0017 -0.005,0.0017 -0.007,0.0023 z m 8.60238,48.341782 c 10e-4,0.001 0.005,0 0.007,-5.7e-4 l -10e-4,-0.001 c -0.002,0.002 -0.005,0.002 -0.007,0.002 z m 57.74912,-48.341782 c 48.67045,17.186654 87.19589,71.250342 99.79653,139.926252 -16.86195,-47.11481 -58.05347,-82.71735 -108.39212,-91.58221 36.98565,13.06394 66.05679,54.8811 74.59977,107.63579 -11.50774,-36.56194 -42.6821,-64.45872 -81.08082,-71.22205 32.57216,11.50604 56.81405,53.29888 56.81291,102.93664 0,46.83875 -21.67536,86.38526 -51.46945,100.38767 36.55855,-8.48132 65.81693,-36.03247 76.32341,-71.68932 -7.23003,50.90321 -33.60964,91.97706 -67.92468,108.10305 47.86151,-11.10327 86.51254,-46.26967 102.01967,-92.16542 C 380.3597,369.46146 345.41109,422.5731 300.31521,443.7665 384.75225,424.17738 447.95628,349.11658 447.95515,258.74947 447.95571,164.86096 379.90093,86.667962 290.5034,70.929462 Z m -15.07664,84.756642 -0.006,-0.002 -10e-4,10e-4 z m 6.48105,-36.41373 -0.006,-0.002 -10e-4,0.001 z"
       fill-opacity="1"
       id="path1"
       style="stroke-width:0.99734615;stroke-dasharray:none" />
  </g>
</svg>
