<?xml version="1.0" encoding="UTF-8"?>
<svg id="svg1" width="24" height="24" version="1.1" viewBox="0 0 24 24" xmlns="http://www.w3.org/2000/svg">
 <g id="g1" class="" transform="matrix(.055146 0 0 .055146 -2.1909 -2.2533)">
  <path id="path1" d="m122.99 123.53c-34.751 34.559-56.285 82.404-56.285 135.22 0 90.368 63.203 165.43 147.64 185.02-45.098-21.196-80.046-74.31-90.873-140.51 15.505 45.899 54.154 81.067 102.02 92.17-34.308-16.125-60.687-57.191-67.92-108.09 10.51 35.649 39.762 63.193 76.316 71.672-29.792-14.003-51.467-53.551-51.467-100.39 5.7e-4 -49.639 24.242-91.435 56.819-102.94-38.4 6.7599-69.573 34.653-81.083 71.213 8.5441-52.75 37.613-94.562 74.596-107.63-50.335 8.8654-91.528 44.463-108.39 91.575 12.602-68.667 51.122-122.73 99.787-139.92-39.108 6.8867-74.131 25.727-101.16 52.603zm101.16-52.603 8e-3 -0.0011-1e-3 -0.0011c-2e-3 0.0017-5e-3 0.0017-7e-3 0.0023zm8.6024 48.342c1e-3 1e-3 5e-3 0 7e-3 -5.7e-4l-1e-3 -1e-3c-2e-3 2e-3 -5e-3 2e-3 -7e-3 2e-3zm57.749-48.342c48.67 17.187 87.196 71.25 99.797 139.93-16.862-47.115-58.053-82.717-108.39-91.582 36.986 13.064 66.057 54.881 74.6 107.64-11.508-36.562-42.682-64.459-81.081-71.222 32.572 11.506 56.814 53.299 56.813 102.94 0 46.839-21.675 86.385-51.469 100.39 36.559-8.4813 65.817-36.032 76.323-71.689-7.23 50.903-33.61 91.977-67.925 108.1 47.862-11.103 86.513-46.27 102.02-92.165-10.828 66.201-45.777 119.31-90.873 140.51 84.437-19.589 147.64-94.65 147.64-185.02 5.6e-4 -93.889-68.054-172.08-157.45-187.82zm-15.077 84.757-6e-3 -2e-3 -1e-3 1e-3zm6.481-36.414-6e-3 -2e-3 -1e-3 1e-3z" stroke-width=".99735"/>
 </g>
</svg>
