<?xml version="1.0" encoding="UTF-8" standalone="no"?>
<svg
   height="24"
   viewBox="0 0 24 24"
   width="24"
   version="1.1"
   id="svg1"
   sodipodi:docname="void.svg"
   inkscape:version="1.3.2 (091e20e, 2023-11-25, custom)"
   xmlns:inkscape="http://www.inkscape.org/namespaces/inkscape"
   xmlns:sodipodi="http://sodipodi.sourceforge.net/DTD/sodipodi-0.dtd"
   xmlns="http://www.w3.org/2000/svg"
   xmlns:svg="http://www.w3.org/2000/svg">
  <defs
     id="defs1" />
  <sodipodi:namedview
     id="namedview1"
     pagecolor="#ffffff"
     bordercolor="#666666"
     borderopacity="1.0"
     inkscape:showpageshadow="2"
     inkscape:pageopacity="0.0"
     inkscape:pagecheckerboard="0"
     inkscape:deskcolor="#d1d1d1"
     inkscape:zoom="2.0976562"
     inkscape:cx="-91.530727"
     inkscape:cy="42.189944"
     inkscape:window-width="1360"
     inkscape:window-height="715"
     inkscape:window-x="-8"
     inkscape:window-y="-8"
     inkscape:window-maximized="1"
     inkscape:current-layer="svg1" />
  <path
     d="M 21.215,8.1171881 Q 22,9.968438 22,12.000312 q 0,2.031876 -0.785,3.903125 -0.764375,1.770625 -2.1325,3.15875 -1.388125,1.40875 -3.179374,2.153125 -1.871251,0.785 -3.903126,0.785 -2.0318748,0 -3.8831247,-0.785 -1.7706249,-0.744375 -3.1793752,-2.153125 -1.348125,-1.328125 -2.1325,-3.15875 -0.805,-1.911249 -0.805,-3.903125 0,-1.991874 0.805,-3.8831239 0.785,-1.8712506 2.1325,-3.1793753 1.4087503,-1.40875 3.1793752,-2.153125 1.9112497,-0.785 3.8831247,-0.785 1.951875,0 3.903126,0.7849999 1.790624,0.7443751 3.179374,2.153125 1.368125,1.3681248 2.1325,3.1793754 z M 11.899375,3.3884378 q -3.4206249,-0.02 -5.8050001,2.2637504 -2.3843747,2.2837494 -2.6862497,5.6237488 h 0.02 v -0.120625 l 0.02,-0.06062 v -0.04 l 0.04,-0.221249 0.04,-0.120625 0.02,-0.100625 q 0.04,-0.161251 0.060625,-0.221251 0,-0.02 0.01,-0.06062 0.01,-0.04062 0.01,-0.06062 l 0.04,-0.100624 0.02,-0.120625 q 0.02,-0.02 0.02,-0.04 0.02,-0.04 0.02,-0.060622 Q 4.0506252,9.0421962 4.4931252,8.277821 4.9156251,7.5734459 5.6400001,6.8290708 6.2637499,6.2053206 7.10875,5.6821961 7.8331251,5.2196958 8.7987501,4.8771957 q 0.04,-0.02 0.1106248,-0.04 0.070622,-0.02 0.1106249,-0.02 0.02,0 0.060622,-0.02 0.040622,-0.02 0.060622,-0.02 l 0.1206258,-0.02 q 0.060622,-0.02 0.2212497,-0.060625 l 0.2412498,-0.060625 q 0.060622,0 0.1006249,-0.02 l 0.1206249,-0.02 q 0.04,0 0.1206251,-0.01 0.08062,-0.01 0.120626,-0.01 l 0.241249,-0.02 q 0.02,0 0.06062,-0.02 h 0.16125 q 0.04,0 0.120626,-0.01 0.08062,-0.01 0.120624,-0.01 h 0.24125 q 0.04,0 0.120625,0.01 0.08062,0.01 0.120625,0.01 h 0.100625 q 0.08062,0 0.120625,0.02 0.18125,0 0.4625,0.04 0.04,0.02 0.120625,0.02 l 0.06062,0.02 h 0.06062 q 0.04,0.02 0.110625,0.04 0.07062,0.02 0.110625,0.02 h 0.08062 q 0.02,0.02 0.04,0.02 0.02,0 0.05,0.01 0.03,0.01 0.05,0.01 0.02,0 0.06062,0.02 0.04062,0.02 0.06062,0.02 h 0.06062 l 0.04,0.02 q 0.161249,0.04 0.221249,0.080625 h 0.06062 l 0.06062,0.02 q 0.08062,0.04 0.100625,0.04 0.08062,0.04 0.120625,0.04 l 0.04,0.02 0.06062,0.02 q 0.02,0.02 0.09063,0.05 0.07062,0.03 0.110625,0.05 l 0.120624,0.04 q 0.04,0.04 0.100625,0.04 0.02,0.02 0.100625,0.060625 l 0.04,0.02 0.06062,0.02 q 1.609376,0.8450003 2.615625,2.2937497 0.483126,0.6843751 0.764375,1.4487502 0.04,0.080622 0.04,0.1006249 0.02,0.02 0.02,0.04 0,0.02 0.02,0.04 0.02,0.080622 0.06062,0.2012507 0,0.02 0.02,0.04 l 0.02,0.04 v 0.060622 l 0.02,0.04 q 0.02,0.02 0.04,0.1006249 0.02,0.080622 0.02,0.1006249 0.04,0.1206249 0.04,0.1812498 0.02,0.080622 0.06062,0.2012502 0,0.02 0.01,0.09062 0.01,0.07062 0.01,0.110625 l 0.02,0.04 v 0.04 q 0,0.02 0.02,0.06062 v 0.04 q 0.100626,0.865 0.02,1.50875 -0.06062,0.66375 -0.281875,1.348125 -0.18125,0.523125 -0.503125,1.126875 -0.361875,0.563125 -0.623749,0.885 -0.04,0.06062 -0.161251,0.18125 -0.02,0.04 -0.08062,0.100625 -0.06062,0.06062 -0.08062,0.100625 -0.02,0.04 -0.08062,0.09063 -0.06062,0.05062 -0.100625,0.07062 l -0.100625,0.08062 q -0.02,0.02 -0.04,0.05 -0.02,0.03 -0.04,0.05 l -0.100624,0.08062 q -0.04,0.02 -0.100625,0.08062 -0.04,0.02 -0.100626,0.07062 -0.06062,0.05062 -0.08062,0.07062 -0.08062,0.06062 -0.20125,0.140625 -0.120625,0.08 -0.22125,0.140625 -0.04,0.04 -0.08062,0.04 0.321875,-0.100625 0.764375,-0.321875 0.663749,-0.341875 1.186875,-0.785 0.58375,-0.523125 0.985625,-1.06625 0.3825,-0.523125 0.724375,-1.2675 l 0.02,-0.04 v -0.04 l 0.08062,-0.16125 q 0,-0.02 0.01,-0.05 0.01,-0.03 0.01,-0.05 0.02,-0.02 0.04,-0.08062 0.02,-0.06062 0.02,-0.08062 l 0.02,-0.100625 0.04,-0.08062 q 0.02,-0.04 0.02,-0.100625 0,-0.06062 0.02,-0.08062 0.02,-0.02 0.02,-0.04 v -0.04 l 0.02,-0.100625 q 0.04,-0.08062 0.04,-0.161251 0.02,-0.02 0.02,-0.08062 0,-0.06062 0.02,-0.100625 l 0.02,-0.100625 v -0.08062 q 0,-0.02 0.02,-0.08062 0.02,-0.06062 0.02,-0.100625 v -0.181253 q 0.02,-0.06062 0.02,-0.18125 v -0.181259 l 0.02,-0.100624 v -0.08062 q 0,-0.120625 -0.02,-0.18125 V 10.50594 q 0,-0.06062 -0.01,-0.18125 -0.01,-0.120624 -0.01,-0.181249 -0.02,-0.06062 -0.02,-0.1812502 -0.02,-0.02 -0.02,-0.080622 l -0.02,-0.1006249 q 0,-0.02 -0.01,-0.080622 -0.01,-0.060622 -0.01,-0.1006258 -0.04,-0.080622 -0.04,-0.1612498 -0.04,-0.1206249 -0.04,-0.1812497 l -0.06062,-0.1812507 q -0.02,-0.060622 -0.05,-0.1612498 -0.03,-0.1006249 -0.03,-0.1206249 Q 18.75375,8.3109455 18.553125,7.9084459 18.231249,7.2446957 17.82875,6.7215712 q -0.02,-0.060622 -0.100625,-0.1406257 -0.04,-0.080622 -0.100626,-0.1406249 -0.02,-0.02 -0.05,-0.060622 -0.03,-0.040622 -0.05,-0.060622 -0.02,-0.02 -0.05,-0.070622 -0.03,-0.050622 -0.05,-0.070622 -0.08062,-0.080622 -0.23125,-0.2412498 -0.150625,-0.1606267 -0.23125,-0.2412516 -0.161249,-0.1612498 -0.483125,-0.4424998 -0.02,-0.02 -0.21125,-0.16125 -0.191249,-0.1412686 -0.291874,-0.2212686 -0.945624,-0.66375 -2.0725,-1.06625 h -0.04 l -0.04,-0.02 q -0.02,-0.02 -0.06062,-0.02 -0.08062,-0.04 -0.120625,-0.04 -0.02,0 -0.06062,-0.02 -0.04062,-0.02 -0.06062,-0.02 h -0.02 q -0.04,-0.02 -0.06062,-0.02 -0.02062,0 -0.06062,-0.02 -0.04,0 -0.120625,-0.04 -0.02,0 -0.06062,-0.01 -0.04062,-0.01 -0.06062,-0.01 L 12.89939,3.5234378 Q 12.155,3.3828128 11.893125,3.3828128 Z m 3.963751,8.6118742 q 0,-1.549375 -1.096876,-2.6356242 -1.096875,-1.0862498 -2.625625,-1.0862498 -1.549374,0 -2.6456252,1.0862498 -1.0962498,1.0862492 -1.0968746,2.6356242 -6.249e-4,1.549375 1.0968746,2.635625 1.0975002,1.08625 2.6456252,1.08625 1.529375,0 2.625625,-1.08625 1.096251,-1.08625 1.096876,-2.635625 z m -3.742501,8.611875 q 1.69,0.06062 3.219375,-0.543125 1.529375,-0.60375 2.625625,-1.69 1.09625,-1.086249 1.790625,-2.555625 0.694375,-1.469375 0.835,-3.09875 v 0.02 l -0.02,0.100625 v 0.06062 l -0.02,0.02 v 0.04 q 0,0.06062 -0.04,0.221251 l -0.02,0.100625 -0.02,0.120625 q -0.02,0.06062 -0.06062,0.22125 0,0.02 -0.04,0.100624 l -0.06062,0.22125 v 0.06062 l -0.02,0.04 q -0.301875,0.905625 -0.785,1.67 -0.483126,0.785 -1.146875,1.44875 -0.724375,0.724375 -1.46875,1.166875 -0.764375,0.483125 -1.67,0.785 -0.16125,0.04 -0.24125,0.08062 -0.02,0 -0.05,0.01 -0.03,0.01 -0.05,0.01 l -0.120626,0.04 q -0.16125,0.04 -0.22125,0.06062 -0.08062,0 -0.241249,0.04 -0.02,0 -0.06062,0.01 -0.04062,0.01 -0.06062,0.01 l -0.120625,0.02 q -0.06062,0 -0.22125,0.04 -0.16125,0 -0.24125,0.02 h -0.24125 q -0.08062,0.02 -0.24125,0.02 h -0.221251 q -0.161249,0 -0.241249,-0.02 h -0.24125 q -0.140625,-0.02 -0.462501,-0.06062 -0.02,0 -0.06062,-0.01 -0.04062,-0.01 -0.06062,-0.01 h -0.06064 q -0.02,-0.02 -0.04,-0.02 -0.04,-0.02 -0.120625,-0.02 -0.08062,0 -0.120625,-0.02 l -0.04,-0.02 h -0.06062 q -0.02,0 -0.06062,-0.02 -0.04062,-0.02 -0.06062,-0.02 -0.02,0 -0.05,-0.01 -0.03,-0.01 -0.05,-0.01 l -0.120625,-0.04 q -0.04,-0.02 -0.110625,-0.04 -0.07062,-0.02 -0.110625,-0.02 l -0.06062,-0.02 -0.04,-0.02 q -0.02,0 -0.06062,-0.02 -0.04062,-0.02 -0.06062,-0.02 -0.02,-0.02 -0.04,-0.02 -0.02,0 -0.03,-0.01 -0.01,-0.01 -0.03,-0.01 l -0.06062,-0.02 -0.04,-0.02 q -0.04,0 -0.110625,-0.03 -0.07062,-0.03 -0.110625,-0.05 l -0.04,-0.02 -0.06062,-0.04 q -0.02,0 -0.1006246,-0.04 -0.080622,-0.04 -0.1006249,-0.04 l -0.060622,-0.04 -0.04,-0.02 q -1.6094226,-0.804985 -2.6156724,-2.293735 -0.4831253,-0.684375 -0.785,-1.44875 l -0.04,-0.08062 q 0,-0.02 -0.02,-0.06062 v -0.04 q -0.04,-0.06062 -0.080622,-0.18125 0,-0.02 -0.01,-0.05 -0.01,-0.03 -0.01,-0.05 -0.02,-0.02 -0.02,-0.04 v -0.02 q -0.04,-0.08062 -0.04,-0.100625 0,-0.02 -0.01,-0.05 -0.01,-0.03 -0.01,-0.05 l -0.060622,-0.181251 q -0.02,-0.08062 -0.060622,-0.20125 0,-0.04 -0.04,-0.201249 0,-0.06062 -0.04,-0.18125 v -0.100625 q -0.02,-0.04 -0.02,-0.100626 -0.1006249,-0.865 -0.02,-1.488749 0.060612,-0.704384 0.281864,-1.348135 0.2212498,-0.6843743 0.5031254,-1.1268739 0.3218746,-0.5431253 0.6237493,-0.9056249 0.04,-0.060622 0.1612507,-0.1812506 0.02,-0.02 0.070622,-0.080622 0.050622,-0.060622 0.090625,-0.1006248 L 7.7987554,7.8584407 7.8993803,7.7778184 7.9800025,7.6971962 8.0806283,7.616574 q 0.02,-0.04 0.1006249,-0.080622 0.04,-0.02 0.1006248,-0.070622 Q 8.3425,7.414708 8.3625,7.374704 8.4831249,7.314082 8.5637498,7.2340791 q 0.04,-0.02 0.1106249,-0.060622 0.070622,-0.040622 0.1106249,-0.060622 0.04,-0.04 0.080622,-0.060622 -0.5231244,0.2012498 -0.7643742,0.3218747 -0.6843751,0.3618747 -1.1868756,0.805 -0.5631244,0.4625004 -0.9856249,1.0462498 -0.4224997,0.6037502 -0.7243747,1.2675004 0,0.02 -0.02,0.04 v 0.04 l -0.04,0.100625 -0.04,0.08062 q 0,0.02 -0.01,0.04 -0.01,0.02 -0.01,0.04 l -0.060625,0.181249 -0.04,0.08062 -0.02,0.08062 q -0.04,0.120625 -0.04,0.181251 l -0.02,0.04 v 0.06062 l -0.02,0.08062 q -0.04,0.120625 -0.04,0.18125 -0.04,0.120625 -0.04,0.18125 l -0.02,0.08062 q 0,0.06062 -0.02,0.100626 0,0.120624 -0.02,0.181249 0,0.120625 -0.02,0.18125 v 0.18125 q 0,0.120625 -0.02,0.181251 v 0.442499 q 0,0.02 0.01,0.05 0.01,0.03 0.01,0.05 0,0.24125 0.02,0.341875 0.02,0.06062 0.02,0.18125 0,0.02 0.01,0.05 0.01,0.03 0.01,0.05 l 0.02,0.08062 q 0,0.02 0.01,0.08062 0.01,0.06062 0.01,0.100625 0.04,0.120625 0.04,0.18125 0,0.02 0.02,0.08062 0.02,0.06062 0.02,0.08062 0.04,0.120625 0.04,0.18125 0.24125,0.785 0.5231251,1.328124 0.2412499,0.523126 0.704375,1.207501 0.02,0.02 0.1006249,0.140625 0.080622,0.08062 0.1006249,0.120624 0.02,0.02 0.060622,0.07062 0.040622,0.05062 0.060622,0.07062 0.02,0.04 0.1006249,0.120626 0.1812506,0.241249 0.4625005,0.483124 0.1812497,0.20125 0.4831243,0.442501 0.1612507,0.140624 0.4831254,0.382499 1.0262498,0.724375 2.0925008,1.06625 0.02,0 0.02,0.02 l 0.04,0.02 q 0.04,0 0.06062,0.02 0.06062,0 0.140625,0.04 0.02,0 0.06062,0.01 0.04062,0.01 0.06062,0.01 0.02,0.02 0.06062,0.02 0.02,0.02 0.06062,0.02 0.02,0 0.06062,0.02 0.04062,0.02 0.06062,0.02 0.02,0 0.07062,0.01 0.05062,0.01 0.07062,0.01 l 0.241249,0.06062 q 0.4225,0.100625 0.925625,0.140625 h 0.08062 z"
     id="path1"
     style="stroke-width:1" />
</svg>
