<?xml version="1.0" encoding="UTF-8"?>
<svg id="svg1" version="1.1" viewBox="0 0 24 24" xmlns="http://www.w3.org/2000/svg">
 <path id="path1-6-4" d="m12 2-5.5966 2.4876 5.5966 5.5966v-6.1026l6.3636 2.8374v4.4727c0 1.41-0.38313 2.8357-1.0298 4.1264l1.3335 1.3334c0.96097-1.6988 1.5146-3.6536 1.5146-5.6605v-5.4545zm-9.0412 1.614-1.2855 1.2855 2.1449 2.1449v4.0465c0 5.0454 3.4909 9.7636 8.1818 10.909 1.6446-0.40158 3.1401-1.2428 4.391-2.3828l2.255 2.255 1.2855-1.2855-16.768-16.768zm9.0412 11.612 3.1392 3.1392c-0.93717 0.8695-2.0125 1.5159-3.1392 1.8164z"/>
</svg>
