<?xml version="1.0" encoding="UTF-8"?>
<svg id="svg1" version="1.1" viewBox="0 0 24 24" xml:space="preserve" xmlns="http://www.w3.org/2000/svg"><path id="path34-3" d="m12 1 9 4v6c0 3.1992-1.2784 6.2765-3.3477 8.5527l-4.1875-7.252a1.6919 1.6919 0 0 0-1.4648-0.8457v-8.2754l-7 3.1211v4.9199c0 2.3216 0.94018 4.6817 2.3906 6.5254l-1.043 1.8066c-2.0692-2.2762-3.3477-5.3535-3.3477-8.5527v-6z"/><path id="path34-8" d="m12 1-9 4v6c0 3.1992 1.2784 6.2766 3.3477 8.5527l1.043-1.8066 3.1445-5.4453a1.6919 1.6919 0 0 1 1.4648-0.8457 1.6919 1.6919 0 0 1 1.4648 0.8457l3.1445 5.4453 1.043 1.8066c2.0692-2.2762 3.3477-5.3535 3.3477-8.5527v-6z"/><path id="path3-2-0" transform="matrix(.94501 0 0 .94501 30.417 19.959)" d="m-15.73 2.7094h-7.5164a1.1935 1.1935 60 0 1-1.0336-1.7903l3.7582-6.5094a1.1935 1.1935 180 0 1 2.0673-1e-7l3.7582 6.5094a1.1935 1.1935 120 0 1-1.0336 1.7903z" stroke-width="1.0582" style="paint-order:fill markers stroke"/></svg>
