<?xml version="1.0" encoding="UTF-8"?>
<svg id="svg2" width="24" height="24" version="1.1" viewBox="0 0 24 24" xml:space="preserve" xmlns="http://www.w3.org/2000/svg"><path id="path1" d="m12 7c-0.10508 0-0.2046 0.030312-0.2846 0.090212l-3.9509 2.2201c-0.16006 0.085033-0.26414 0.2499-0.26414 0.43992v4.4996c0 0.19 0.1042 0.35492 0.26414 0.43992l3.9509 2.2201c0.07993 0.0601 0.17951 0.09021 0.2846 0.09021 0.10508 0 0.2046-0.03031 0.2846-0.09021l3.9509-2.2201c0.16007-0.08503 0.26414-0.24992 0.26414-0.43992v-4.4996c0-0.19002-0.1042-0.35492-0.26414-0.43992l-3.9509-2.2201c-0.07993-0.0601-0.1797-0.090212-0.2846-0.090213z" stroke-width=".26458"/><g id="g3" transform="matrix(.9375 0 0 .9375 .75 .74056)" stroke-width="1.0667"><path id="path1-8" d="m12 1.2299c-0.22591 0-0.4399 0.065168-0.61189 0.19396l-8.4944 4.7731c-0.34414 0.18283-0.56789 0.53729-0.56789 0.94582v9.6742c0 0.4085 0.22404 0.76307 0.56789 0.94582l8.4944 4.7731c0.17187 0.12919 0.38594 0.19396 0.61189 0.19396 0.22591 0 0.4399-0.06516 0.61188-0.19396l8.4944-4.7731c0.34414-0.18285 0.5679-0.53733 0.5679-0.94582v-9.6742c0-0.40854-0.22404-0.76307-0.5679-0.94582l-8.4944-4.7731c-0.17187-0.1292-0.38635-0.19396-0.61188-0.19396zm0 2.5595c0.17184 0 0.33497 0.049533 0.46591 0.14797l6.4728 3.6373c0.26198 0.13924 0.43192 0.4086 0.43192 0.71987v7.3706c0 0.31123-0.16972 0.58055-0.43192 0.71986l-6.4728 3.6373c-0.13104 0.09813-0.29379 0.14797-0.46591 0.14797-0.17215 0-0.33497-0.04954-0.46591-0.14797l-6.4728-3.6373c-0.26198-0.13924-0.43192-0.40863-0.43192-0.71986v-7.3706c0-0.31127 0.16972-0.58056 0.43192-0.71987l6.4728-3.6373c0.13104-0.098131 0.29379-0.14797 0.46591-0.14797z"/><rect id="rect3" x="10.75" y=".020131" width="2.5" height="3" rx=".74463" ry=".74463" style="paint-order:fill markers stroke"/><rect id="rect3-8" x="10.75" y="21" width="2.5" height="3" rx=".74463" ry=".74463" style="paint-order:fill markers stroke"/><rect id="rect3-89" transform="rotate(90)" x="10.75" y="-24" width="2.5" height="3" rx=".74463" ry=".74463" style="paint-order:fill markers stroke"/><rect id="rect3-8-4" transform="rotate(90)" x="10.75" y="-3" width="2.5" height="3" rx=".74463" ry=".74463" style="paint-order:fill markers stroke"/></g></svg>
