<?xml version="1.0" encoding="UTF-8" standalone="no"?>
<svg
   id="svg2"
   width="24"
   height="24"
   version="1.1"
   viewBox="0 0 24 24"
   xml:space="preserve"
   sodipodi:docname="check.svg"
   inkscape:version="1.4 (86a8ad7, 2024-10-11)"
   xmlns:inkscape="http://www.inkscape.org/namespaces/inkscape"
   xmlns:sodipodi="http://sodipodi.sourceforge.net/DTD/sodipodi-0.dtd"
   xmlns="http://www.w3.org/2000/svg"
   xmlns:svg="http://www.w3.org/2000/svg"><defs
     id="defs1" /><sodipodi:namedview
     id="namedview1"
     pagecolor="#ffffff"
     bordercolor="#111111"
     borderopacity="1"
     inkscape:showpageshadow="0"
     inkscape:pageopacity="0"
     inkscape:pagecheckerboard="1"
     inkscape:deskcolor="#d1d1d1"
     inkscape:zoom="16.8125"
     inkscape:cx="11.657993"
     inkscape:cy="18.468401"
     inkscape:window-width="1920"
     inkscape:window-height="1009"
     inkscape:window-x="-8"
     inkscape:window-y="-8"
     inkscape:window-maximized="1"
     inkscape:current-layer="svg2" /><g
     id="g1"
     transform="matrix(0.85714531,0,0,-0.85714531,1.7142563,22.285744)"><path
       id="path1-7"
       d="M 8.9442,1.8863 2.1164,5.7234 C 1.74289,5.92184 1.50003,6.30655 1.50003,6.75 v 10.5 c 0,0.44337 0.24317,0.83038 0.61637,1.0287 l 6.8278,3.835 V 18.7345 L 4.9421,16.4839 C 4.67553,16.34222 4.49935,16.06702 4.49935,15.75033 v -7.5006 c 0,-0.31672 0.17595,-0.59182 0.44275,-0.73357 l 4.0021,-2.2506 z m 6.1116,0 v 3.3792 l 4.0021,2.2506 c 0.26658,0.14168 0.44275,0.41685 0.44275,0.73357 v 7.5006 c 0,0.31669 -0.17595,0.59182 -0.44275,0.73357 l -4.0021,2.2506 v 3.3792 l 6.8278,-3.835 c 0.37351,-0.19844 0.61637,-0.58536 0.61637,-1.0287 v -10.5 c 0,-0.44341 -0.24317,-0.82821 -0.61637,-1.0266 z"
       stroke-width="0.26458" /><path
       id="path1"
       d="m 12,7 c -0.10508,0 -0.2046,0.030312 -0.2846,0.090212 l -3.9509,2.2201 c -0.16006,0.085033 -0.26414,0.2499 -0.26414,0.43992 v 4.4996 c 0,0.19 0.1042,0.35492 0.26414,0.43992 l 3.9509,2.2201 c 0.07993,0.0601 0.17951,0.09021 0.2846,0.09021 0.10508,0 0.2046,-0.03031 0.2846,-0.09021 l 3.9509,-2.2201 c 0.16007,-0.08503 0.26414,-0.24992 0.26414,-0.43992 v -4.4996 c 0,-0.19002 -0.1042,-0.35492 -0.26414,-0.43992 l -3.9509,-2.2201 C 12.20467,7.030112 12.1049,7 12,7 Z"
       stroke-width="0.26458" /></g></svg>
