<?xml version="1.0" encoding="UTF-8"?>
<svg id="svg2" width="24" height="24" version="1.1" viewBox="0 0 24 24" xml:space="preserve" xmlns="http://www.w3.org/2000/svg"><path id="path1-7" d="m8.9442 1.8863-6.8278 3.8371c-0.37351 0.19844-0.61637 0.58315-0.61637 1.0266v10.5c0 0.44337 0.24317 0.83038 0.61637 1.0287l6.8278 3.835v-3.3792l-4.0021-2.2506c-0.26657-0.14168-0.44275-0.41688-0.44275-0.73357v-7.5006c0-0.31672 0.17595-0.59182 0.44275-0.73357l4.0021-2.2506zm6.1116 0v3.3792l4.0021 2.2506c0.26658 0.14168 0.44275 0.41685 0.44275 0.73357v7.5006c0 0.31669-0.17595 0.59182-0.44275 0.73357l-4.0021 2.2506v3.3792l6.8278-3.835c0.37351-0.19844 0.61637-0.58536 0.61637-1.0287v-10.5c0-0.44341-0.24317-0.82821-0.61637-1.0266z" stroke-width=".26458"/><path id="path1" d="m12 7c-0.10508 0-0.2046 0.030312-0.2846 0.090212l-3.9509 2.2201c-0.16006 0.085033-0.26414 0.2499-0.26414 0.43992v4.4996c0 0.19 0.1042 0.35492 0.26414 0.43992l3.9509 2.2201c0.07993 0.0601 0.17951 0.09021 0.2846 0.09021 0.10508 0 0.2046-0.03031 0.2846-0.09021l3.9509-2.2201c0.16007-0.08503 0.26414-0.24992 0.26414-0.43992v-4.4996c0-0.19002-0.1042-0.35492-0.26414-0.43992l-3.9509-2.2201c-0.07993-0.0601-0.1797-0.090212-0.2846-0.090212z" stroke-width=".26458"/></svg>
