<?xml version="1.0" encoding="UTF-8"?>
<!-- Created with Inkscape (http://www.inkscape.org/) -->
<svg id="svg1" width="24" height="24" version="1.1" viewBox="0 0 24 24" xml:space="preserve" xmlns="http://www.w3.org/2000/svg"><g id="layer1"><path id="path1" d="m20.894 6.3509-8.2951-4.662c-0.16787-0.1262-0.3782-0.1889-0.5985-0.1889-0.22065 0-0.43051 0.0631-0.5985 0.1889l-8.2951 4.662c-0.33614 0.17858-0.55651 0.525-0.55651 0.92403v9.4501c0 0.399 0.22065 0.74549 0.55651 0.924l8.2951 4.662c0.16787 0.1262 0.3778 0.1889 0.5985 0.1889 0.22065 0 0.43051-0.0631 0.5985-0.1889l8.2951-4.662c0.33614-0.17858 0.55651-0.525 0.55651-0.924v-9.4501c0-0.39904-0.22065-0.74553-0.55651-0.92403m-9.4711 9.8071-5.3971-0.03175v-1.071s3.6015-3.4965 3.612-4.557c0-1.302-1.071-1.1655-1.071-1.1655s-1.029 0.042066-1.1445 1.3125l-1.575 0.05238s0.042066-2.625 2.8245-2.625c2.4885 0 2.52 1.869 2.52 2.352 0 1.764-3.234 4.4836-3.234 4.4836l3.4651-0.01192v1.26m6.3526-2.583c0 1.47-1.2075 2.6775-2.6985 2.6775-1.5015 0-2.6985-1.2075-2.6985-2.6775v-2.793c0-1.491 1.197-2.6985 2.6985-2.6985 1.5015 0 2.6985 1.2075 2.6985 2.6985v2.7931m-1.575-2.8666v2.898c0 0.61953-0.525 1.1235-1.134 1.1235s-1.113-0.504-1.113-1.1235v-2.898c0-0.61949 0.504-1.113 1.113-1.113s1.134 0.49353 1.134 1.113z" stroke-width=".26458"/></g></svg>
