<?xml version="1.0" encoding="UTF-8"?>
<svg id="svg1" version="1.1" viewBox="0 0 24 24" xmlns="http://www.w3.org/2000/svg">
 <g id="g43" transform="matrix(.94628 0 0 -.94628 .57349 23.023)" stroke-dashoffset="2.76">
  <path id="path36-1" transform="matrix(1.0675 0 0 1.0675 16.517 5.2322)" d="m-10.162 16.352h11.862a0.44278 0.44278 112.5 0 0 0.31309-0.75587l-5.4883-5.4883a1.069 1.069 8.1851e-7 0 0-1.5117 0l-5.4883 5.4883a0.44278 0.44278 67.5 0 0 0.31309 0.75587z" stroke-width="1.7599" style="paint-order:stroke markers fill"/>
  <path id="path43" d="m12 1.5531a1.8183 1.8183 0 0 0-0.9098 0.24464l-7.145 4.1245a1.8183 1.8183 0 0 0-0.90981 1.575v8.2529a1.8183 1.8183 0 0 0 0.90981 1.575l2.4504 1.4153 4.6501-4.6501a1.35 1.35 0 0 1 1.9086 0l4.6501 4.6501 2.4504-1.4153a1.8183 1.8183 0 0 0 0.9098-1.575v-8.2529a1.8183 1.8183 0 0 0-0.9098-1.575l-7.145-4.1245a1.8183 1.8183 0 0 0-0.90981-0.24464z" stroke-width="1.8787" style="paint-order:stroke markers fill"/>
 </g>
</svg>
