<?xml version="1.0" encoding="UTF-8"?>
<svg id="svg1" version="1.1" viewBox="0 0 24 24" xmlns="http://www.w3.org/2000/svg">
 <path id="path1" d="m20.63 2.435v5.7391h1.913v-5.7391zm1.913 19.13v-5.7391h-1.913v5.7391zm-2.8696-9.5652c0 1.0617 0.8513 1.913 1.913 1.913a1.913 1.913 0 1 0-1.913-1.913m-18.174-5.7391v11.478c0 1.0617 0.8513 1.913 1.913 1.913h11.478a1.913 1.913 0 0 0 1.913-1.913v-3.8261l1.913-1.913-1.913-1.913v-3.8261a1.913 1.913 0 0 0-1.913-1.913h-11.478c-1.0617 0-1.913 0.8513-1.913 1.913m8.6087 0.95652v5.7391h-1.913v-5.7391zm0 7.6522v1.913h-1.913v-1.913z"/>
</svg>
