<?xml version="1.0" encoding="UTF-8" standalone="no"?>
<svg
   id="svg1"
   version="1.1"
   viewBox="0 0 24 24"
   sodipodi:docname="inv.svg"
   xml:space="preserve"
   inkscape:version="1.4 (86a8ad7, 2024-10-11)"
   xmlns:inkscape="http://www.inkscape.org/namespaces/inkscape"
   xmlns:sodipodi="http://sodipodi.sourceforge.net/DTD/sodipodi-0.dtd"
   xmlns="http://www.w3.org/2000/svg"
   xmlns:svg="http://www.w3.org/2000/svg"><defs
     id="defs1" /><sodipodi:namedview
     id="namedview1"
     pagecolor="#ffffff"
     bordercolor="#111111"
     borderopacity="1"
     inkscape:showpageshadow="0"
     inkscape:pageopacity="0"
     inkscape:pagecheckerboard="1"
     inkscape:deskcolor="#d1d1d1"
     inkscape:zoom="16.8125"
     inkscape:cx="2.1710037"
     inkscape:cy="8.8921933"
     inkscape:window-width="1920"
     inkscape:window-height="1009"
     inkscape:window-x="-8"
     inkscape:window-y="-8"
     inkscape:window-maximized="1"
     inkscape:current-layer="svg1" /><path
     style="stroke-width:1.21689"
     d="m 8.4227614,20.837748 c -0.129264,-0.129263 -0.162991,-0.273582 -0.165889,-0.709851 -0.0019,-0.301181 -0.03551,-1.332496 -0.07446,-2.291812 C 8.1239884,16.397169 8.0763594,15.95698 7.9102984,15.321179 7.6047424,14.15126 7.4497344,13.799271 6.4276758,11.954449 3.6821603,6.9987756 2.9057064,5.2730412 3.0131943,4.3654751 3.1110323,3.5394037 3.5849442,3.0622577 4.3635217,3.0059406 c 0.5557904,-0.040202 0.9680352,0.1232219 1.2697291,0.5033526 0.1097513,0.1382836 0.4830081,0.8720387 0.829463,1.6305665 1.7306146,3.789009 2.8386356,5.1074623 4.9617102,5.9040243 0.873055,0.327563 1.567611,0.468251 2.697733,0.546449 1.283478,0.08881 2.030534,0.283197 2.98717,0.77728 1.587768,0.820051 2.560166,2.125129 3.355075,4.502923 0.613001,1.833662 0.713955,3.777769 0.210173,4.047384 C 20.575135,20.97115 18.422973,21 14.553111,21 8.6931814,21 8.5820724,20.9971 8.4227604,20.837748 Z M 12.543778,10.139313 C 11.527768,9.8043815 10.786612,9.1579655 10.304513,8.186295 10.011044,7.5948049 10.004719,7.5622847 10.004719,6.6449002 c 0,-0.909291 0.0087,-0.9554063 0.293113,-1.5509123 0.377527,-0.7905068 0.932366,-1.3501041 1.728993,-1.743818 0.520052,-0.2570236 0.705275,-0.3045702 1.323897,-0.3398426 1.131986,-0.064543 1.967701,0.2314375 2.754477,0.9755379 1.344874,1.2719259 1.541601,3.365547 0.451026,4.799926 -0.420746,0.5533848 -1.052102,1.0480787 -1.6155,1.2658108 -0.662983,0.256219 -1.76361,0.296493 -2.396947,0.08771 z"
     id="path1" /></svg>
