<?xml version="1.0" encoding="UTF-8"?>
<svg id="svg1" version="1.1" viewBox="0 0 24 24" xml:space="preserve" xmlns="http://www.w3.org/2000/svg"><path id="path4" d="m4.6207 5.7192c-1.2729-0.051219-1.9287 1.0125-1.4791 2.4993 0.26048 0.86153 0.97334 2.3144 1.5878 3.2373 1.2677 1.9043 2.6422 3.2504 4.4417 4.3501l0.6645 0.40573v2.2714c0 1.2493 0.024268 2.2968 0.05431 2.3268 0.030021 0.03005 1.6356 0.04455 3.5674 0.03302l3.5131-0.02023 0.02236-1.149c0.02148-1.1028 0.02882-1.1529 0.20979-1.2715 0.13907-0.09112 0.24148-0.10364 0.39082-0.04686 0.25025 0.09516 0.31639 0.39367 0.30243 1.3641-0.0055 0.3848-7e-3 0.80039-0.0043 0.92327l0.0054 0.22363 1.5516-0.02236 1.5516-0.021305-0.0032-1.854c-3e-3 -1.5233-0.02962-1.9485-0.14802-2.379-0.31521-1.1461-0.9631-1.8941-2.0872-2.4131-0.82196-0.37945-1.6254-0.59168-3.0818-0.81359-2.7696-0.42199-3.6355-0.68564-4.9401-1.5047-1.7395-1.0921-3.3699-2.819-4.4237-4.6856-0.52427-0.92865-0.95311-1.356-1.4334-1.428-0.090208-0.013527-0.17711-0.022142-0.26197-0.025555z" stroke-width="1.0147"/><path id="path3" d="m15.196 3.3945c-3.3302-0.19423-5.5758 3.2808-4.0605 6.284 0.50335 0.99755 1.6198 1.8881 2.7474 2.1916 0.55992 0.15071 1.6034 0.15306 2.1586 0.0054 1.9258-0.51248 3.2256-2.2111 3.2256-4.217 0-2.2771-1.7691-4.1296-4.0711-4.2639z" stroke-width="1.0147"/></svg>
