<?xml version="1.0" encoding="UTF-8" standalone="no"?>
<svg
   id="svg2"
   width="24"
   height="24"
   version="1.1"
   viewBox="0 0 24 24"
   xml:space="preserve"
   sodipodi:docname="save.svg"
   inkscape:version="1.4 (86a8ad7, 2024-10-11)"
   xmlns:inkscape="http://www.inkscape.org/namespaces/inkscape"
   xmlns:sodipodi="http://sodipodi.sourceforge.net/DTD/sodipodi-0.dtd"
   xmlns="http://www.w3.org/2000/svg"
   xmlns:svg="http://www.w3.org/2000/svg"><defs
     id="defs1" /><sodipodi:namedview
     id="namedview1"
     pagecolor="#ffffff"
     bordercolor="#111111"
     borderopacity="1"
     inkscape:showpageshadow="0"
     inkscape:pageopacity="0"
     inkscape:pagecheckerboard="1"
     inkscape:deskcolor="#d1d1d1"
     inkscape:zoom="2.9720582"
     inkscape:cx="-98.921347"
     inkscape:cy="35.497286"
     inkscape:window-width="1920"
     inkscape:window-height="1009"
     inkscape:window-x="-8"
     inkscape:window-y="-8"
     inkscape:window-maximized="1"
     inkscape:current-layer="svg2" /><path
     id="path1-8"
     d="m 11.999997,2.5 c -0.199642,0 -0.388749,0.05759 -0.540741,0.1714068 L 3.9525623,6.8895031 C 3.6484379,7.0510741 3.4507051,7.3643184 3.4507051,7.7253456 v 8.5493094 c 0,0.361 0.1979891,0.674341 0.5018572,0.835842 l 7.5066937,4.218097 C 11.611141,21.442762 11.80032,21.5 11.999997,21.5 c 0.199642,0 0.38875,-0.0576 0.540742,-0.171406 l 7.506691,-4.218097 c 0.304124,-0.161589 0.501865,-0.47485 0.501865,-0.835842 V 7.7253456 c 0,-0.3610361 -0.197988,-0.6743422 -0.501865,-0.8358425 L 12.540739,2.6714068 C 12.388852,2.5572299 12.199312,2.5 11.999997,2.5 Z m 0,2.261888 c 0.151859,0 0.296021,0.043774 0.411735,0.1307644 l 5.720159,3.2143642 c 0.231518,0.1230495 0.381698,0.361089 0.381698,0.6361653 v 6.5135661 c 0,0.27504 -0.149985,0.513044 -0.381698,0.636156 l -5.720159,3.214365 c -0.115803,0.08672 -0.259628,0.130763 -0.411735,0.130763 -0.152133,0 -0.296019,-0.04378 -0.411734,-0.130763 L 5.8681017,15.892904 C 5.636584,15.769854 5.4864043,15.531788 5.4864043,15.256748 V 8.7431819 C 5.4864044,8.4681056 5.6363896,8.230128 5.8681017,8.1070166 L 11.588263,4.8926524 c 0.115803,-0.08672 0.259628,-0.1307644 0.411734,-0.1307644 z"
     style="stroke-width:0.883722" /><path
     id="path1"
     d="m 16.281161,11.524297 c 0,2.640061 -1.826627,5.108912 -4.281161,5.708271 C 9.5454651,16.6332 7.7188385,14.164358 7.7188385,11.524297 V 8.6701613 L 12,6.7674322 16.281161,8.6701613 Z M 12,16.281162 c 1.783846,-0.475687 3.329838,-2.59728 3.329838,-4.652214 V 9.2885253 L 12,7.8044016 Z"
     stroke-width="0.837202" /></svg>
