<?xml version="1.0" encoding="UTF-8"?>
<svg id="svg2" width="24" height="24" version="1.1" viewBox="0 0 24 24" xml:space="preserve" xmlns="http://www.w3.org/2000/svg"><path id="path1-8" d="m12 1.25c-0.22591 0-0.4399 0.065168-0.61189 0.19396l-8.4944 4.7731c-0.34414 0.18283-0.56789 0.53729-0.56789 0.94582v9.6742c0 0.4085 0.22404 0.76307 0.56789 0.94582l8.4944 4.7731c0.17187 0.12919 0.38594 0.19396 0.61189 0.19396 0.22591 0 0.4399-0.06517 0.61189-0.19396l8.4944-4.7731c0.34414-0.18285 0.5679-0.53733 0.5679-0.94582v-9.6742c0-0.40854-0.22404-0.76307-0.5679-0.94582l-8.4944-4.7731c-0.17187-0.1292-0.38635-0.19396-0.61189-0.19396zm0 2.5595c0.17184 0 0.33497 0.049533 0.46591 0.14797l6.4728 3.6373c0.26198 0.13924 0.43192 0.4086 0.43192 0.71987v7.3706c0 0.31123-0.16972 0.58055-0.43192 0.71986l-6.4728 3.6373c-0.13104 0.098129-0.29379 0.14797-0.46591 0.14797-0.17215 0-0.33497-0.04954-0.46591-0.14797l-6.4728-3.6373c-0.26198-0.13924-0.43192-0.40863-0.43192-0.71986v-7.3706c1e-7 -0.31127 0.16972-0.58056 0.43192-0.71987l6.4728-3.6373c0.13104-0.098131 0.29379-0.14797 0.46591-0.14797z"/><path id="path1" d="m17.114 11.432c0 3.1534-2.1818 6.1023-5.1136 6.8182-2.9318-0.71591-5.1136-3.6648-5.1136-6.8182v-3.4091l5.1136-2.2727 5.1136 2.2727zm-5.1136 5.6818c2.1307-0.56818 3.9773-3.1023 3.9773-5.5568v-2.7955l-3.9773-1.7727z" stroke-width=".99999"/></svg>
