<?xml version="1.0" encoding="UTF-8" standalone="no"?>
<svg
   viewBox="0 0 24 24"
   version="1.1"
   id="svg1"
   sodipodi:docname="save.svg"
   inkscape:version="1.3.2 (091e20e, 2023-11-25, custom)"
   xml:space="preserve"
   xmlns:inkscape="http://www.inkscape.org/namespaces/inkscape"
   xmlns:sodipodi="http://sodipodi.sourceforge.net/DTD/sodipodi-0.dtd"
   xmlns="http://www.w3.org/2000/svg"
   xmlns:svg="http://www.w3.org/2000/svg"><defs
     id="defs1" /><sodipodi:namedview
     id="namedview1"
     pagecolor="#ffffff"
     bordercolor="#666666"
     borderopacity="1.0"
     inkscape:showpageshadow="2"
     inkscape:pageopacity="0.0"
     inkscape:pagecheckerboard="0"
     inkscape:deskcolor="#d1d1d1"
     inkscape:zoom="11.1875"
     inkscape:cx="10.994413"
     inkscape:cy="10.145251"
     inkscape:window-width="1360"
     inkscape:window-height="715"
     inkscape:window-x="-8"
     inkscape:window-y="-8"
     inkscape:window-maximized="1"
     inkscape:current-layer="svg1" /><g
     id="g4"><path
       id="path3"
       style="stroke-width:1"
       d="M 12 7.5 L 12 16.5 C 12.0945 16.5 12.183859 16.473922 12.255859 16.419922 L 15.810547 14.419922 C 15.954545 14.343432 16.050781 14.196389 16.050781 14.025391 L 16.050781 9.9746094 C 16.050781 9.8036115 15.954551 9.6546249 15.810547 9.578125 L 12.255859 7.5800781 C 12.183859 7.5260782 12.094501 7.5 12 7.5 z " /><path
       id="path2"
       style="stroke-width:1"
       d="M 12 1 L 3 5 L 3 11 C 2.9999997 16.549994 6.8400051 21.740001 12 23 C 17.159993 21.740001 21 16.549995 21 11 L 21 5 L 12 1 z M 12 3.1796875 L 19 6.3007812 L 19 11.220703 C 19 15.540699 15.749994 20.000001 12 21 L 12 16.5 C 11.905499 16.5 11.816141 16.473922 11.744141 16.419922 L 8.1894531 14.421875 C 8.0454523 14.345375 7.9492188 14.196389 7.9492188 14.025391 L 7.9492188 9.9746094 C 7.9492188 9.8036105 8.0454553 9.656568 8.1894531 9.5800781 L 11.744141 7.5800781 C 11.816141 7.5260782 11.9055 7.5 12 7.5 L 12 3.1796875 z " /></g></svg>
