<?xml version="1.0" encoding="UTF-8" standalone="no"?>
<!-- Created with Inkscape (http://www.inkscape.org/) -->

<svg
   version="1.1"
   id="svg1"
   width="24"
   height="24"
   viewBox="0 0 24 24"
   sodipodi:docname="albion.svg"
   inkscape:version="1.3.2 (091e20e, 2023-11-25, custom)"
   xml:space="preserve"
   xmlns:inkscape="http://www.inkscape.org/namespaces/inkscape"
   xmlns:sodipodi="http://sodipodi.sourceforge.net/DTD/sodipodi-0.dtd"
   xmlns="http://www.w3.org/2000/svg"
   xmlns:svg="http://www.w3.org/2000/svg"><defs
     id="defs1" /><sodipodi:namedview
     id="namedview1"
     pagecolor="#ffffff"
     bordercolor="#111111"
     borderopacity="1"
     inkscape:showpageshadow="0"
     inkscape:pageopacity="0"
     inkscape:pagecheckerboard="1"
     inkscape:deskcolor="#d1d1d1"
     inkscape:zoom="12.232947"
     inkscape:cx="9.5234615"
     inkscape:cy="14.918727"
     inkscape:window-width="1366"
     inkscape:window-height="697"
     inkscape:window-x="-8"
     inkscape:window-y="-8"
     inkscape:window-maximized="1"
     inkscape:current-layer="g1" /><g
     inkscape:groupmode="layer"
     inkscape:label="Image"
     id="g1"><path
       style="stroke-width:1"
       d="m 11.863311,22.444745 c -0.26671,-0.81884 -0.4061,-1.32978 -0.51491,-1.88739 -0.0715,-0.36659 -0.45022,-3.21354 -0.45028,-3.38524 -4e-5,-0.0907 -0.53977,-0.65819 -0.73292,-0.77066 -0.15777,-0.0919 -0.1636,-0.0919 -0.16326,0 2.1e-4,0.0524 0.0953,0.74567 0.21144,1.5406 0.1161,0.79494 0.20432,1.45211 0.19604,1.46039 -0.045,0.0449 -0.7438901,-0.53748 -0.9528601,-0.79402 -0.52317,-0.64225 -0.74816,-1.33253 -0.73985,-2.2699 0.006,-0.71118 0.10544,-1.17035 0.39012,-1.80702 0.17345,-0.38792 0.2619,-0.47667 0.26197,-0.26285 6e-5,0.21414 0.30742,0.77396 0.56487,1.02891 0.2269701,0.22476 1.3734201,0.93958 1.4247001,0.8883 0.0115,-0.0115 0.004,-0.16702 -0.0159,-0.34569 -0.0307,-0.27155 -0.0704,-0.36548 -0.24196,-0.57245 -0.22453,-0.2709 -0.46608,-0.71672 -0.46608,-0.86021 0,-0.0599 0.0584,-0.10339 0.1714,-0.12747 0.2887,-0.0615 0.72341,-0.29007 0.91361,-0.48028 l 0.18065,-0.18064 0.18064,0.18064 c 0.1902,0.19021 0.62492,0.41873 0.91362,0.48028 0.11297,0.0241 0.17139,0.0675 0.17139,0.12747 0,0.15464 -0.25075,0.60377 -0.50031,0.89614 l -0.23799,0.27881 v 0.46198 c 0,0.25408 -0.0155,0.78609 -0.0345,1.18224 l -0.0345,0.72027 0.17957,-5.3e-4 c 0.31009,-8.9e-4 0.95136,-0.37097 1.47486,-0.85116 0.30565,-0.28037 0.28278,-0.2774 0.56668,-0.0734 0.77844,0.55925 2.27499,0.94419 3.01606,0.77579 l 0.23731,-0.0539 -0.18457,0.15851 c -0.41744,0.35848 -1.41871,0.75672 -2.31132,0.9193 -0.41612,0.0758 -0.5459,0.12578 -0.84205,0.32437 -0.65258,0.4376 -1.23809,0.66568 -1.87698,0.73113 l -0.3345,0.0343 -0.0323,0.61309 c -0.0178,0.33719 -0.0482,1.00432 -0.0677,1.48251 -0.0499,1.22546 -0.0593,1.23835 -0.32005,0.43787 z m -4.3223701,-3.85645 c -0.55702,-0.44177 -1.2356,-1.29036 -1.58819,-1.9861 -0.0667,-0.13159 -0.23328,-0.30343 -0.44285,-0.45682 -0.58331,-0.42692 -1.19234,-1.16369 -1.37151,-1.65917 -0.0354,-0.0979 -0.0904,-0.178 -0.12219,-0.178 -0.0496,0 -2.76308,0.79627 -2.97669,0.87351 -0.23736996,0.0858 0.63554,-0.60923 1.50001,-1.19439 0.23203,-0.15707 1.16845,-0.66527 2.08093,-1.12935 l 1.65904,-0.84376 0.17061,-0.31642 c 0.13149,-0.24385 0.31117,-0.76592 0.2631,-0.76443 -0.004,1.1e-4 -0.62458,0.31937 -1.3787,0.70941 -1.00527,0.51994 -1.37572,0.68852 -1.38833,0.63177 -0.009,-0.0426 0.0323,-0.22536 0.0928,-0.40618 0.48176,-1.44026 1.89288,-2.3502193 3.65548,-2.3572493 0.25379,-10e-4 0.46144,-0.008 0.46144,-0.0154 0,-0.007 -0.0229,-0.0935 -0.0509,-0.19114 -0.0466,-0.16234 -0.0221,-0.23198 0.28466,-0.81056 l 0.33559,-0.63296 -0.52508,-0.7316 c -0.28879,-0.40238 -0.55755,-0.7316 -0.59723,-0.7316 -0.11245,0 -0.38777,0.36716 -0.49991,0.66667 -0.0558,0.14914 -0.15454,0.52381 -0.21933,0.8326 -0.0858,0.40885 -0.1366,0.55422 -0.18694,0.5349 -0.13509,-0.0518 -0.99963,0.0884 -1.42481,0.23108 -0.53703,0.18025 -1.13961,0.52121 -1.5195,0.8598 -0.33593,0.29941 -0.3591,0.25818 -0.15081,-0.26834 0.25117,-0.63492 0.6762,-1.29222 1.18229,-1.82837 0.16426,-0.17403 0.31568,-0.38723 0.33647,-0.47377 0.15787,-0.65697 0.5791,-1.41917 1.06702,-1.9307 l 0.29054,-0.3046 -0.83094,-1.17677 c -1.10967,-1.57151 -1.05677,-1.49288 -0.96881,-1.43993 1.18672,0.71447 1.9138,1.3046 3.31952,2.69429 1.11694,1.1042 1.32313,1.28554 1.52156,1.33823 0.24764,0.0657 0.8769101,0.0989 0.9269701,0.0488 0.0283,-0.0283 -0.4492901,-0.50849 -1.7013601,-1.71083 l -0.49211,-0.47257 0.28117,-0.0264 c 1.15546,-0.10835 2.3119601,0.44609 3.0234201,1.44949 0.40425,0.57014 0.71536,1.31337 0.79499,1.89922 0.0197,0.14502 0.0454,0.28038 0.0571,0.3008 0.0117,0.0204 0.28342,-0.12843 0.60384,-0.33078 0.32042,-0.20236 0.69408,-0.42442 0.83037,-0.49349 0.22784,-0.11545 0.26194,-0.11961 0.42349,-0.0517 0.19776,0.0831 0.1262,0.14158 0.64888,-0.52982 0.22715,-0.29179 0.24059,-0.32506 0.16501,-0.40857 -0.0453,-0.05 -0.16839,-0.12019 -0.27365,-0.15597 -0.19952,-0.0678 -0.95351,-0.0897 -1.52652,-0.0444 l -0.33316,0.0264 -0.14804,-0.37961 c -0.0814,-0.20879 -0.21063,-0.48642 -0.28713,-0.61697 -0.37146,-0.63383 -1.11704,-1.38248 -1.63279,-1.63949 -0.35439,-0.1766 -0.22137,-0.22042 0.43524,-0.14338 0.65412,0.0767 1.33524,0.27449 1.92989,0.5603 0.4528,0.21762 0.5025,0.22949 1.08108,0.25807 0.70366,0.0348 1.08484,0.12697 1.6348,0.39544 0.21753,0.10619 0.4102,0.1934 0.42815,0.19379 0.0179,4.3e-4 0.33688,-0.39083 0.70874,-0.86941 1.30844,-1.68393 1.30772,-1.68309 1.26393,-1.47547 -0.10074,0.47762 -0.62982,1.95387 -0.90958,2.53793 -0.17161,0.3583 -0.59186,1.17134 -0.93387,1.80677 l -0.62184,1.15533 0.0347,0.30687 c 0.0394,0.3487 0.17338,0.83673 0.22956,0.8365 0.0206,-1.1e-4 0.32658,-0.57556 0.67988,-1.27884 0.35331,-0.70327 0.67637,-1.32432 0.71791,-1.38011 0.0705,-0.0947 0.0831,-0.0811 0.19039,0.20556 0.47025,1.25688 0.0773,2.72633 -1.00235,3.74858 -0.41126,0.3893903 -0.68354,0.5778693 -1.23409,0.8542693 -0.36145,0.18147 -0.46548,0.26675 -0.72418,0.59373 -0.18822,0.23788 -0.31153,0.35443 -0.3271,0.30916 -0.0138,-0.04 -0.11905,-0.39084 -0.23398,-0.77974 -0.24079,-0.814729 -0.24141,-0.811399 0.21197,-1.1442093 0.14257,-0.10466 0.2919,-0.25349 0.33185,-0.33073 0.0806,-0.15582 0.20229,-0.748 0.16201,-0.78827 -0.05,-0.05 -0.69473,0.3155 -1.08005,0.61234 -0.35936,0.27684 -0.8815,0.8363303 -0.82925,0.8885803 0.0122,0.0122 0.0887,-0.003 0.17007,-0.0341 0.11277,-0.0429 0.15819,-0.0401 0.19096,0.0117 0.0237,0.0374 0.24747,0.544609 0.49738,1.127179 l 0.45438,1.05921 -0.11664,0.27115 c -0.0645,0.15001 -0.21803,0.36459 -0.34356,0.48031 -0.25907,0.2388 -0.75692,0.50583 -1.04322,0.55954 -0.23675,0.0444 -0.33061,-0.0452 -0.57488,-0.54873 l -0.16308,-0.33617 0.31127,-0.26879 c 0.59145,-0.51074 0.66133,-0.60248 0.64358,-0.84486 -0.0206,-0.28105 -0.13093,-0.30458 -0.42254,-0.0901 -0.21018,0.15457 -0.24448,0.16222 -0.72716,0.16222 -0.48269,0 -0.51698,-0.008 -0.72716,-0.16222 -0.29161,-0.21445 -0.40197,-0.19092 -0.42255,0.0901 -0.0177,0.24232 0.0522,0.33421 0.64275,0.84412 l 0.31044,0.26807 -0.14203,0.31053 c -0.0781,0.1708 -0.20593,0.37733 -0.28402,0.45897 -0.17212,0.17993 -0.33845,0.16431 -0.81564,-0.0766 -0.42061,-0.21233 -0.7408201,-0.51968 -0.8810601,-0.84567 l -0.11632,-0.2704 0.4544,-1.05996 c 0.2499201,-0.58298 0.4736001,-1.090549 0.4970601,-1.127929 0.0325,-0.0518 0.0778,-0.0546 0.19061,-0.0117 0.0814,0.0309 0.15778,0.0464 0.16977,0.0344 0.0481,-0.0481 -0.52146,-0.6655903 -0.8229901,-0.8922603 -0.34828,-0.2618 -0.80413,-0.53242 -0.99272,-0.58934 -0.11369,-0.0343 -0.1169,-0.0261 -0.0859,0.21823 0.0456,0.35919 0.19804,0.68356 0.37274,0.79301 0.2537,0.15894 0.49045,0.34875 0.49045,0.39319 0,0.0394 -1.21064,2.8924893 -1.2467,2.9380493 -0.009,0.0114 -0.55682,0.18318 -1.21739,0.38179 -0.66056,0.19862 -1.23123,0.37269 -1.26815,0.38683 -0.0976,0.0374 0.0546,0.37776 0.26756,0.59852 0.19305,0.20013 0.76092,0.5857 1.11845,0.7594 0.1975,0.0959 0.23712,0.13791 0.21216,0.22467 -0.22779,0.79165 -0.28177,1.36523 -0.19192,2.03902 0.0643,0.48208 0.2512,1.10101 0.40199,1.33114 0.12817,0.19561 0.0239,0.17099 -0.27297,-0.0645 z m 8.5077801,-2.62106 c -0.81566,-0.153 -1.60408,-0.58066 -2.26336,-1.22773 -0.19578,-0.19215 -0.35596,-0.36323 -0.35596,-0.38016 0,-0.0169 0.16018,-0.14807 0.35596,-0.2914 0.53039,-0.38829 1.28133,-1.156 1.58337,-1.61874 0.14675,-0.22482 0.27541,-0.43456 0.28592,-0.46608 0.0116,-0.0348 0.49277,0.11151 1.22424,0.3722 0.66282,0.23622 1.2376,0.41704 1.27729,0.40181 0.072,-0.0276 0.097,-0.20918 0.0768,-0.55835 -0.013,-0.22569 -0.18118,-0.75564 -0.38225,-1.20465 -0.0824,-0.18398 -0.14979,-0.35053 -0.14979,-0.37012 0,-0.0196 0.0606,-0.0723 0.13456,-0.11725 0.22094,-0.134059 0.75795,-0.6847393 1.00649,-1.0321093 0.31416,-0.43909 0.62821,-1.12626 0.71755,-1.57012 l 0.0736,-0.36545 0.0911,0.22768 c 0.22826,0.57048 0.30517,2.03724 0.1424,2.7157993 -0.0399,0.16637 -0.0283,0.2732 0.0574,0.52736 0.24934,0.73994 0.31508,1.50064 0.18383,2.12705 -0.0382,0.18246 -0.0544,0.34107 -0.0359,0.35248 0.0185,0.0114 0.67317,0.25072 1.45491,0.5318 0.78174,0.28108 1.4439,0.53183 1.47145,0.55721 0.0694,0.064 -1.99388,0.0579 -2.5814,-0.008 -0.26104,-0.0291 -1.15644,-0.17512 -1.98977,-0.32449 l -1.51516,-0.2716 -0.3844,0.18999 c -0.21142,0.10449 -0.43732,0.24631 -0.502,0.31515 l -0.11759,0.12518 0.7515,0.1193 c 0.41332,0.0656 1.04813,0.165 1.41069,0.22086 0.36256,0.0559 0.71852,0.1156 0.79103,0.13275 l 0.13184,0.0312 -0.20089,0.17472 c -0.26705,0.23227 -0.8462,0.5324 -1.21038,0.62726 -0.46519,0.12116 -1.06839,0.14323 -1.533,0.0561 z"
       id="path1" /></g></svg>
