<?xml version="1.0" encoding="UTF-8" standalone="no"?>
<!-- Created with Inkscape (http://www.inkscape.org/) -->

<svg
   width="24"
   height="24"
   viewBox="0 0 6.3499999 6.35"
   version="1.1"
   id="svg1"
   xml:space="preserve"
   inkscape:version="1.3.2 (091e20e, 2023-11-25, custom)"
   sodipodi:docname="lothringen.svg"
   xmlns:inkscape="http://www.inkscape.org/namespaces/inkscape"
   xmlns:sodipodi="http://sodipodi.sourceforge.net/DTD/sodipodi-0.dtd"
   xmlns="http://www.w3.org/2000/svg"
   xmlns:svg="http://www.w3.org/2000/svg"><sodipodi:namedview
     id="namedview1"
     pagecolor="#ffffff"
     bordercolor="#111111"
     borderopacity="1"
     inkscape:showpageshadow="0"
     inkscape:pageopacity="0"
     inkscape:pagecheckerboard="1"
     inkscape:deskcolor="#d1d1d1"
     inkscape:document-units="mm"
     inkscape:zoom="0.9247054"
     inkscape:cx="17.843521"
     inkscape:cy="-71.914796"
     inkscape:window-width="1366"
     inkscape:window-height="697"
     inkscape:window-x="-8"
     inkscape:window-y="-8"
     inkscape:window-maximized="1"
     inkscape:current-layer="layer1" /><defs
     id="defs1"><clipPath
       clipPathUnits="userSpaceOnUse"
       id="clipPath28"><path
         d="M 0,2020 H 2020 V 0 H 0 Z"
         id="path26" /></clipPath><clipPath
       clipPathUnits="userSpaceOnUse"
       id="clipPath48"><path
         d="M 0,2020 H 2020 V 0 H 0 Z"
         id="path46" /></clipPath><clipPath
       clipPathUnits="userSpaceOnUse"
       id="clipPath167"><path
         d="M 0,2020 H 2020 V 0 H 0 Z"
         id="path165" /></clipPath><clipPath
       clipPathUnits="userSpaceOnUse"
       id="clipPath179"><path
         d="M 0,2020 H 2020 V 0 H 0 Z"
         id="path177" /></clipPath><clipPath
       clipPathUnits="userSpaceOnUse"
       id="clipPath281"><path
         d="M 0,2020 H 2020 V 0 H 0 Z"
         id="path279" /></clipPath><clipPath
       clipPathUnits="userSpaceOnUse"
       id="clipPath301"><path
         d="M 0,2020 H 2020 V 0 H 0 Z"
         id="path299" /></clipPath><clipPath
       clipPathUnits="userSpaceOnUse"
       id="clipPath396"><path
         d="M 0,2020 H 2020 V 0 H 0 Z"
         id="path394" /></clipPath><clipPath
       clipPathUnits="userSpaceOnUse"
       id="clipPath456"><path
         d="M 0,2020 H 2020 V 0 H 0 Z"
         id="path454" /></clipPath><clipPath
       clipPathUnits="userSpaceOnUse"
       id="clipPath619"><path
         d="M 0,2020 H 2020 V 0 H 0 Z"
         id="path617" /></clipPath><clipPath
       clipPathUnits="userSpaceOnUse"
       id="clipPath659"><path
         d="M 0,2020 H 2020 V 0 H 0 Z"
         id="path657" /></clipPath><clipPath
       clipPathUnits="userSpaceOnUse"
       id="clipPath782"><path
         d="M 0,2020 H 2020 V 0 H 0 Z"
         id="path780" /></clipPath><clipPath
       clipPathUnits="userSpaceOnUse"
       id="clipPath798"><path
         d="M 0,2020 H 2020 V 0 H 0 Z"
         id="path796" /></clipPath><clipPath
       clipPathUnits="userSpaceOnUse"
       id="clipPath881"><path
         d="M 0,2020 H 2020 V 0 H 0 Z"
         id="path879" /></clipPath><clipPath
       clipPathUnits="userSpaceOnUse"
       id="clipPath901"><path
         d="M 0,2020 H 2020 V 0 H 0 Z"
         id="path899" /></clipPath><clipPath
       clipPathUnits="userSpaceOnUse"
       id="clipPath28-1"><path
         d="M 0,2020 H 2020 V 0 H 0 Z"
         id="path26-9" /></clipPath><clipPath
       clipPathUnits="userSpaceOnUse"
       id="clipPath48-7"><path
         d="M 0,2020 H 2020 V 0 H 0 Z"
         id="path46-8" /></clipPath><clipPath
       clipPathUnits="userSpaceOnUse"
       id="clipPath167-6"><path
         d="M 0,2020 H 2020 V 0 H 0 Z"
         id="path165-5" /></clipPath><clipPath
       clipPathUnits="userSpaceOnUse"
       id="clipPath179-8"><path
         d="M 0,2020 H 2020 V 0 H 0 Z"
         id="path177-5" /></clipPath><clipPath
       clipPathUnits="userSpaceOnUse"
       id="clipPath281-9"><path
         d="M 0,2020 H 2020 V 0 H 0 Z"
         id="path279-7" /></clipPath><clipPath
       clipPathUnits="userSpaceOnUse"
       id="clipPath301-6"><path
         d="M 0,2020 H 2020 V 0 H 0 Z"
         id="path299-7" /></clipPath><clipPath
       clipPathUnits="userSpaceOnUse"
       id="clipPath396-1"><path
         d="M 0,2020 H 2020 V 0 H 0 Z"
         id="path394-4" /></clipPath><clipPath
       clipPathUnits="userSpaceOnUse"
       id="clipPath456-8"><path
         d="M 0,2020 H 2020 V 0 H 0 Z"
         id="path454-7" /></clipPath><clipPath
       clipPathUnits="userSpaceOnUse"
       id="clipPath619-5"><path
         d="M 0,2020 H 2020 V 0 H 0 Z"
         id="path617-3" /></clipPath><clipPath
       clipPathUnits="userSpaceOnUse"
       id="clipPath659-9"><path
         d="M 0,2020 H 2020 V 0 H 0 Z"
         id="path657-6" /></clipPath><clipPath
       clipPathUnits="userSpaceOnUse"
       id="clipPath782-6"><path
         d="M 0,2020 H 2020 V 0 H 0 Z"
         id="path780-5" /></clipPath><clipPath
       clipPathUnits="userSpaceOnUse"
       id="clipPath798-1"><path
         d="M 0,2020 H 2020 V 0 H 0 Z"
         id="path796-5" /></clipPath><clipPath
       clipPathUnits="userSpaceOnUse"
       id="clipPath881-7"><path
         d="M 0,2020 H 2020 V 0 H 0 Z"
         id="path879-2" /></clipPath><clipPath
       clipPathUnits="userSpaceOnUse"
       id="clipPath901-4"><path
         d="M 0,2020 H 2020 V 0 H 0 Z"
         id="path899-1" /></clipPath></defs><g
     inkscape:label="Layer 1"
     inkscape:groupmode="layer"
     id="layer1"><path
       id="path39"
       style="stroke-width:0.999997"
       d="m 0.76999254,3.586998 c 0.0017,-0.0017 0.0073,0.0027 0.01733,0.01265 0.01388,0.01377 0.02009,0.03015 0.01384,0.0364 -0.0063,0.0063 -0.0176,-0.005 -0.02522,-0.02506 -0.0055,-0.01447 -0.0077,-0.02228 -0.0059,-0.02399 z" /><path
       id="path38"
       style="stroke-width:0.999993"
       d="m 4.7919109,2.5866854 c -0.00908,0 -0.057384,0.032019 -0.1073364,0.071133 C 4.6346161,2.696933 4.5162752,2.7775613 4.4215962,2.8370155 L 4.2494515,2.9451145 V 4.161687 c 0,0.6691026 0.00403,1.2165358 0.00908,1.2165358 0.00907,0 0.2311122,-0.1852045 0.2882041,-0.2404072 0.016738,-0.016188 0.080245,-0.074919 0.1411036,-0.1304895 l 0.1106437,-0.1010113 0.00495,-1.1598326 c 0.00284,-0.6653296 -0.00202,-1.1597968 -0.011522,-1.1597968 z" /><path
       id="path37"
       style="stroke-width:0.999993"
       d="m 1.5547453,2.5866854 c -0.00936,0 -0.015052,0.5015384 -0.013227,1.1652849 l 0.00321,1.1652849 0.063608,0.055541 c 0.034989,0.030543 0.1294005,0.1154131 0.2098015,0.1886109 0.080401,0.073196 0.1662414,0.1454936 0.1907549,0.160658 0.024512,0.015162 0.044559,0.034008 0.044559,0.041873 0,0.00788 0.00816,0.014282 0.018031,0.014282 0.011413,0 0.018196,-0.446421 0.018535,-1.218899 L 2.0905213,2.940423 1.9306259,2.8372309 C 1.8426716,2.7804891 1.7258221,2.7009297 1.670955,2.6603965 1.6160832,2.6198614 1.5637864,2.586678 1.5547499,2.586678 Z" /><path
       id="path36"
       style="stroke-width:0.999993"
       d="m 1.2336465,0.83626828 -0.24611338,0.005133 -0.24611346,0.005225 -3.667e-5,1.56326102 c -3.666e-5,0.8597925 0.005317,1.5801845 0.0118525,1.6008809 0.0111375,0.035063 0.0382984,0.070877 0.21754367,0.2866779 C 1.128414,4.487233 1.2558079,4.6188125 1.2690519,4.6055694 c 0.00568,-0.00568 0.012347,-0.5020106 0.014832,-1.1029845 0.00248,-0.600974 0.00495,-1.1971529 0.0055,-1.3248173 0.00101,-0.2234434 0.0022,-0.2303972 0.032313,-0.186102 0.017206,0.025309 0.1116914,0.1255753 0.2099463,0.2228136 0.1978545,0.1958077 0.4553338,0.3876305 0.6753121,0.503095 l 0.1442295,0.075717 0.00101,0.7574227 c 5.298e-4,0.4165835 7.966e-4,1.042159 6.178e-4,1.3901702 -3.217e-4,0.6276334 0.00339,0.697885 0.036896,0.697885 0.00954,0 0.033055,0.014658 0.052232,0.032569 0.05412,0.050554 0.1387377,0.1135889 0.3613368,0.2690851 0.1129491,0.078898 0.212391,0.1391301 0.2209601,0.1338345 0.00853,-0.00532 0.015556,-0.7126141 0.015556,-1.5718025 V 2.9402842 H 3.170064 3.3003362 v 1.572566 c 0,0.9553249 0.00678,1.5725661 0.017298,1.5725661 0.00951,0 0.029828,-0.012558 0.045182,-0.027913 0.015354,-0.015354 0.033596,-0.027913 0.040526,-0.027913 0.010826,0 0.052012,-0.030323 0.1521165,-0.1119527 0.012366,-0.010083 0.02651,-0.018315 0.031442,-0.018315 0.00495,0 0.095289,-0.065404 0.2008237,-0.1453561 l 0.1918815,-0.145356 0.00467,-1.3946417 c 0.00257,-0.7670486 0.00825,-1.404275 0.01265,-1.4160505 0.0044,-0.011779 0.060931,-0.04818 0.1256193,-0.080914 C 4.3872734,2.5830489 4.6894283,2.3521036 4.9073395,2.1171881 l 0.1423393,-0.1534612 6.536e-4,0.9582096 c 9.075e-4,1.3529572 0.00486,1.6932775 0.019883,1.6932775 0.018223,0 0.3075503,-0.3171277 0.4319981,-0.4735067 l 0.1028291,-0.1291814 0.00183,-1.5876141 0.00174,-1.58757744 H 5.3404771 5.072337 L 5.0428937,0.9071203 C 4.9250587,1.1866289 4.7326189,1.4317872 4.4237751,1.6957656 4.2717467,1.8257097 3.9200083,2.0190946 3.7338147,2.0751314 3.6856988,2.0896148 3.6445862,2.0996706 3.6424687,2.0974889 3.636877,2.0917139 3.5872303,1.6607544 3.5490171,1.286598 l -0.033,-0.32302561 0.059794,-0.0491792 c 0.03289,-0.0270325 0.059739,-0.0554218 0.059648,-0.0631034 -9.16e-5,-0.0077 -0.2288782,-0.0139609 -0.5084015,-0.0139609 -0.3778377,0 -0.5160905,0.005958 -0.5388615,0.023265 -0.032487,0.0246767 -0.1135623,0.19946791 -0.099194,0.21383671 0.00468,0.00468 0.034494,-0.00688 0.066266,-0.025658 0.064167,-0.037904 0.047823,-0.043624 0.2350997,0.082766 0.067458,0.045531 0.104524,0.058988 0.142376,0.051654 0.028151,-0.00541 0.051178,-0.00715 0.051178,-0.00376 0,0.00339 -0.044477,0.1141261 -0.098831,0.2461134 C 2.8307328,1.5575334 2.7665509,1.7157641 2.74246,1.7771781 2.71837,1.8385951 2.679063,1.9323526 2.65512,1.9855257 L 2.611578,2.0822117 2.513946,2.0536757 C 2.3064158,1.993031 2.0034213,1.8200969 1.8228597,1.6592281 1.594965,1.4561871 1.4445068,1.2597799 1.3103515,0.99034918 Z" /><path
       id="path35"
       style="stroke-width:0.999993"
       d="m 3.1660946,0.26480274 c -0.01925,0.003575 -0.039573,0.0490326 -0.079823,0.1398313 -0.028353,0.0639743 -0.055935,0.11631417 -0.061279,0.11631417 -0.00532,0 -0.054615,-0.0338892 -0.1094804,-0.0753134 -0.054863,-0.0414242 -0.1068679,-0.0709409 -0.1155506,-0.0655693 -0.013741,0.008525 -0.0022,0.11662493 0.026281,0.24662221 0.00532,0.0243467 0.025639,0.0429642 0.050738,0.0465301 0.071638,0.010175 0.6101113,0.0022 0.6215165,-0.009231 0.013924,-0.0139242 0.057915,-0.27157849 0.048052,-0.28144368 -0.00412,-0.004125 -0.057136,0.0266109 -0.1178413,0.0682643 -0.060702,0.0416534 -0.1137668,0.0723709 -0.1179129,0.0682276 -0.00413,-0.004125 -0.036218,-0.0685301 -0.07128,-0.14306622 C 3.2035169,0.29944542 3.1853399,0.26121206 3.1660899,0.2648164 Z" /></g></svg>
