<?xml version="1.0" encoding="UTF-8" standalone="no"?>
<!-- Created with Inkscape (http://www.inkscape.org/) -->

<svg
   version="1.1"
   id="svg1"
   width="24"
   height="24"
   viewBox="0 0 24 24"
   sodipodi:docname="tartessia.svg"
   inkscape:version="1.3.2 (091e20e, 2023-11-25, custom)"
   xmlns:inkscape="http://www.inkscape.org/namespaces/inkscape"
   xmlns:sodipodi="http://sodipodi.sourceforge.net/DTD/sodipodi-0.dtd"
   xmlns="http://www.w3.org/2000/svg"
   xmlns:svg="http://www.w3.org/2000/svg">
  <defs
     id="defs1" />
  <sodipodi:namedview
     id="namedview1"
     pagecolor="#ffffff"
     bordercolor="#111111"
     borderopacity="1"
     inkscape:showpageshadow="0"
     inkscape:pageopacity="0"
     inkscape:pagecheckerboard="1"
     inkscape:deskcolor="#d1d1d1"
     inkscape:zoom="2.8206522"
     inkscape:cx="-38.111753"
     inkscape:cy="29.248555"
     inkscape:window-width="1366"
     inkscape:window-height="697"
     inkscape:window-x="-8"
     inkscape:window-y="-8"
     inkscape:window-maximized="1"
     inkscape:current-layer="g1" />
  <g
     inkscape:groupmode="layer"
     inkscape:label="Image"
     id="g1">
    <path
       id="path20"
       style="stroke-width:1"
       d="m 12.000033,0.9980469 c -0.01212,0 -0.02401,0.0045 -0.0332,0.01367 -9.5e-4,9.5e-4 -0.01727,0.06051 -0.01953,0.06641 -0.0022,-0.0056 -0.01861,-0.06353 -0.01953,-0.06445 -0.0092,-0.0092 -0.02109,-0.01367 -0.03321,-0.01367 v 0.25586 c -0.08591,0.284003 -0.274054,0.958325 -0.52539,1.896484 -0.310309,1.158263 -0.595523,2.153139 -0.632813,2.210937 -0.01616,0.02506 -0.05536,0.05092 -0.105469,0.07813 -0.843779,0.175206 -1.627896,0.508066 -2.322265,0.966797 -0.0128,0.0025 -0.03343,0.01172 -0.04297,0.01172 -0.066,0 -0.454799,-0.19342 -0.865234,-0.429687 C 6.989987,5.7539679 6.121558,5.2526949 5.470734,4.8769659 4.785335,4.4812889 4.266715,4.2137479 4.240265,4.2402479 c -0.02645,0.02645 0.192886,0.455777 0.519532,1.021484 0.310167,0.537167 0.811432,1.404194 1.113281,1.925781 0.301848,0.521587 0.548828,1.003766 0.548828,1.072266 0,0.0079 -0.0082,0.02513 -0.0098,0.03516 -0.471878,0.707882 -0.811419,1.511001 -0.986328,2.3710941 -0.02069,0.03294 -0.04306,0.05773 -0.0625,0.07031 -0.05782,0.0374 -1.050981,0.32091 -2.208984,0.63086 C 1.99629,11.67712 1.03232,11.946242 1.01367,11.964842 1.00437,11.974242 1,11.987572 1,12.000002 c 0,0.01243 0.0044,0.02586 0.01367,0.03516 0.01865,0.0186 0.982621,0.287722 2.140625,0.597656 1.158004,0.30995 2.151164,0.59346 2.208984,0.63086 0.01944,0.01258 0.04181,0.03737 0.0625,0.07031 0.174909,0.860094 0.51445,1.663213 0.986328,2.371094 0.0016,0.01003 0.0098,0.02726 0.0098,0.03516 0,0.0685 -0.24698,0.550679 -0.548828,1.072266 -0.30185,0.521586 -0.803115,1.388615 -1.113281,1.925781 -0.326646,0.565708 -0.545982,0.995035 -0.519532,1.021485 0.02645,0.0265 0.545071,-0.241043 1.230469,-0.636719 0.650824,-0.375729 1.519254,-0.877002 1.929688,-1.113281 0.410435,-0.236267 0.799234,-0.429688 0.865234,-0.429688 0.0096,0 0.03017,0.0092 0.04297,0.01172 0.694369,0.45873 1.478486,0.791591 2.322265,0.966797 0.05011,0.0272 0.08931,0.05307 0.105469,0.07813 0.03729,0.0578 0.322504,1.052674 0.632813,2.210937 0.251336,0.938145 0.43948,1.612468 0.52539,1.896471 V 23 c 0.01212,0 0.024,-0.0045 0.0332,-0.01367 9.2e-4,-9.2e-4 0.01733,-0.05885 0.01953,-0.06445 0.0023,0.0059 0.01858,0.06546 0.01953,0.06641 0.0092,0.0092 0.02108,0.01367 0.0332,0.01367 v -0.259765 c 0.08591,-0.284003 0.274129,-0.958292 0.525391,-1.896485 0.310306,-1.158264 0.595522,-2.153137 0.632812,-2.210937 0.01616,-0.02506 0.05536,-0.05092 0.105469,-0.07813 0.843781,-0.175206 1.627894,-0.508067 2.322266,-0.966797 0.0128,-0.0024 0.03337,-0.01172 0.04297,-0.01172 0.066,0 0.454797,0.19342 0.865235,0.429687 0.410434,0.23628 1.278864,0.737553 1.929687,1.113282 0.685399,0.395676 1.204019,0.663218 1.230469,0.636718 0.02645,-0.02645 -0.192887,-0.455777 -0.519531,-1.021484 -0.310168,-0.537166 -0.811432,-1.404195 -1.113282,-1.925781 -0.301846,-0.521589 -0.548828,-1.003766 -0.548828,-1.072266 0,-0.0079 0.0082,-0.02513 0.0098,-0.03516 0.471877,-0.707882 0.811418,-1.511 0.986328,-2.371094 0.02069,-0.03293 0.04306,-0.05773 0.0625,-0.07031 0.05782,-0.0374 1.050982,-0.32091 2.208984,-0.63086 1.158011,-0.309934 2.12198,-0.579055 2.14063,-0.597655 0.0089,-0.0089 0.01324,-0.02138 0.01367,-0.0332 -4.28e-4,-0.01182 -0.0048,-0.0243 -0.01367,-0.0332 -0.01865,-0.0186 -0.982619,-0.287721 -2.140625,-0.597656 -1.158002,-0.30995 -2.151164,-0.59346 -2.208984,-0.63086 -0.01944,-0.01258 -0.04181,-0.03738 -0.0625,-0.07031 -0.17491,-0.8600941 -0.514451,-1.6632111 -0.986328,-2.3710941 -0.0016,-0.01003 -0.0098,-0.02724 -0.0098,-0.03516 0,-0.0685 0.246982,-0.550678 0.548828,-1.072266 0.301854,-0.521592 0.803118,-1.388619 1.113286,-1.925786 0.326644,-0.565707 0.545981,-0.995034 0.519531,-1.021484 -0.02645,-0.0265 -0.54507,0.241041 -1.230469,0.636718 -0.650823,0.375729 -1.519253,0.877002 -1.929687,1.113282 -0.410438,0.236268 -0.799235,0.429687 -0.865235,0.429687 -0.0096,0 -0.03017,-0.0093 -0.04297,-0.01172 -0.694372,-0.458731 -1.478485,-0.791591 -2.322266,-0.966797 -0.05011,-0.0272 -0.08931,-0.05307 -0.105469,-0.07813 -0.03729,-0.0578 -0.322506,-1.052677 -0.632812,-2.21094 -0.251296,-0.938151 -0.439481,-1.612481 -0.525391,-1.896485 z m -4.203125,0.832031 c -0.002,2.49e-4 -0.0042,9.51e-4 -0.0059,0.002 -0.04733,0.02741 -0.018,0.28931 0.158203,1.640625 0.115358,0.884696 0.215622,1.469523 0.263672,1.544922 0.0616,0.09674 0.110058,0.116853 0.240234,0.09766 0.213657,-0.03163 1.181912,-0.440031 1.232422,-0.519531 0.117784,-0.185259 0.0246,-0.345484 -0.888672,-1.535156 -0.511337,-0.666087 -0.952019,-1.219516 -0.980469,-1.228516 -0.0049,-0.0016 -0.0094,-0.0019 -0.01367,-0.002 -0.0021,-4.3e-5 -0.0039,-2.48e-4 -0.0059,0 z m 8.294922,0.002 c -0.0043,8.7e-5 -0.0088,2.92e-4 -0.01367,0.0019 -0.02845,0.009 -0.46913,0.562429 -0.980469,1.228516 -0.913269,1.189674 -1.006457,1.349897 -0.888672,1.535156 0.05051,0.0795 1.018764,0.487901 1.232422,0.519531 0.130177,0.01921 0.178635,-9.07e-4 0.240235,-0.09765 0.04805,-0.0754 0.148316,-0.660226 0.263671,-1.544921 0.176203,-1.351318 0.205534,-1.613218 0.158204,-1.640625 -0.0034,-0.002 -0.0074,-0.0019 -0.01172,-0.0019 z m -4.197266,5.2168 v 0.0039 c 0.03541,1e-5 0.0699,-0.0027 0.105469,-0.002 2.705807,0.05731 4.852755,2.257394 4.853516,4.9492121 -7.61e-4,2.691818 -2.147709,4.891899 -4.853516,4.949219 -0.03557,7e-4 -0.07006,-0.002 -0.105469,-0.002 v 0.0039 C 9.188099,16.893823 7.040719,14.692702 7.041049,11.99999 7.040719,9.3072779 9.1881,7.1061569 11.894564,7.0488179 Z M 1.884799,7.7695309 c -0.0085,7.1e-4 -0.01528,0.0027 -0.02148,0.0039 -0.03309,0.0067 -0.03779,0.02167 -0.03125,0.04102 0.0095,0.02801 0.561116,0.468692 1.226563,0.980469 1.190617,0.915594 1.352354,1.009335 1.539062,0.890625 0.07944,-0.05051 0.485948,-1.020716 0.517578,-1.234375 0.0193,-0.13032 0.0011,-0.177281 -0.0957,-0.238281 C 4.945652,8.1663689 4.34197,8.0628959 3.476604,7.9492169 2.613785,7.8358739 2.194199,7.7826839 1.996135,7.7714829 c -0.04952,-0.0028 -0.08596,-0.004 -0.111328,-0.0019 z m 20.095703,0.002 c -0.02185,-3.29e-4 -0.04902,4.1e-5 -0.08203,0.0019 -0.198065,0.0112 -0.61765,0.06439 -1.480469,0.177735 -0.865368,0.113587 -1.469049,0.217152 -1.542969,0.263672 -0.0968,0.061 -0.115006,0.107964 -0.0957,0.238281 0.03163,0.213666 0.438138,1.183871 0.517578,1.234381 0.186709,0.11871 0.348444,0.02497 1.539063,-0.890625 0.665446,-0.511777 1.217062,-0.952459 1.226562,-0.980469 0.0065,-0.01935 0.0019,-0.03433 -0.03125,-0.04102 -0.01241,-0.0025 -0.02893,-0.0036 -0.05078,-0.0039 z m -9.980469,0.519532 c -0.03512,-1.2e-5 -0.0703,0.0012 -0.105469,0.002 -0.01368,2.85e-4 -0.02735,-5.59e-4 -0.04101,0 -0.189071,0.0077 -0.378313,0.02951 -0.566407,0.06836 -1.409485,0.291138 -2.516459,1.323268 -2.86914,2.6738271 -0.04113,0.15756 -0.06074,0.298553 -0.04492,0.314453 0.05039,0.0504 1.629343,0.02901 1.865234,-0.02539 0.74033,-0.17068 1.315588,-0.674637 1.613281,-1.4140621 0.02965,-0.07364 0.06559,-0.136007 0.0957,-0.173828 0.03005,0.03788 0.06616,0.102397 0.0957,0.175781 0.297694,0.7394261 0.872954,1.2433821 1.613281,1.4140621 0.235891,0.0544 1.814844,0.07579 1.865234,0.02539 0.01582,-0.0159 -0.0038,-0.156893 -0.04492,-0.314453 -0.35268,-1.3505601 -1.459654,-2.3826881 -2.86914,-2.6738271 -0.188094,-0.03885 -0.377338,-0.06064 -0.566406,-0.06836 -0.01368,-5.58e-4 -0.02734,2.86e-4 -0.04102,0 z m 2.970703,4.3281281 c -0.495618,-0.0013 -1.167021,0.02069 -1.314453,0.05469 -0.740327,0.17068 -1.315587,0.674636 -1.613281,1.414063 -0.02954,0.07338 -0.06565,0.137901 -0.0957,0.175781 -0.03011,-0.03782 -0.06605,-0.100188 -0.0957,-0.173828 -0.297693,-0.739427 -0.872951,-1.243383 -1.613281,-1.414063 -0.235891,-0.0544 -1.814844,-0.07579 -1.865234,-0.02539 -0.01582,0.0159 0.0038,0.156893 0.04492,0.314453 0.352681,1.350559 1.459654,2.38269 2.86914,2.673828 0.188094,0.03885 0.377336,0.06066 0.566407,0.06836 0.01366,5.59e-4 0.02733,-2.86e-4 0.04101,0 0.03517,9e-4 0.07035,0.002 0.105469,0.002 v -0.0039 c 0.01368,-2.86e-4 0.02734,5.58e-4 0.04102,0 0.189068,-0.0077 0.378312,-0.02951 0.566406,-0.06836 1.409486,-0.29114 2.51646,-1.323268 2.86914,-2.673828 0.04112,-0.15756 0.06074,-0.298554 0.04492,-0.314453 -0.0189,-0.0189 -0.25341,-0.02854 -0.550781,-0.0293 z m 4.435547,1.652343 c -0.0402,0.0033 -0.07437,0.01876 -0.109375,0.04102 -0.07944,0.05051 -0.485948,1.020715 -0.517578,1.234375 -0.01931,0.130317 -0.0011,0.177281 0.0957,0.238281 0.07392,0.04652 0.6776,0.150082 1.542969,0.263672 0.862819,0.113345 1.282404,0.166535 1.480469,0.177734 0.03301,0.0019 0.06018,0.0023 0.08203,0.002 0.02185,-3e-4 0.03837,-0.0014 0.05078,-0.0039 0.03315,-0.0067 0.03775,-0.02167 0.03125,-0.04102 -0.0095,-0.02801 -0.561119,-0.468693 -1.226562,-0.980469 -0.967378,-0.74392 -1.255494,-0.945954 -1.429688,-0.931641 z m -14.939453,0.0019 c -0.176728,0.0027 -0.478034,0.216332 -1.408203,0.93164 -0.665447,0.511777 -1.217063,0.952459 -1.226563,0.980469 -0.0065,0.01935 -0.0019,0.03432 0.03125,0.04102 0.0062,0.0012 0.01299,0.0032 0.02148,0.0039 0.02537,0.0021 0.06181,8.47e-4 0.111328,-0.002 0.198064,-0.0112 0.61765,-0.06439 1.480469,-0.177735 0.865367,-0.113679 1.469048,-0.217152 1.542968,-0.263672 0.0968,-0.061 0.115003,-0.107957 0.0957,-0.238281 C 5.083629,15.335166 4.677121,14.36496 4.597681,14.31445 4.556841,14.28848 4.516301,14.27269 4.466822,14.27344 Z m 11.058594,4.603469 c -0.02381,-6.97e-4 -0.05144,0.0011 -0.08398,0.0059 -0.213658,0.03163 -1.181912,0.440032 -1.232422,0.519532 -0.117785,0.185259 -0.0246,0.345481 0.888672,1.535156 0.511339,0.666086 0.952019,1.219516 0.980469,1.228516 0.0049,0.0017 0.0094,0.0019 0.01367,0.002 0.0043,0 0.0083,4.7e-5 0.01172,-0.002 0.04733,-0.02741 0.018,-0.289308 -0.158204,-1.640625 -0.115355,-0.884695 -0.215621,-1.469522 -0.263671,-1.544922 -0.0462,-0.07256 -0.08482,-0.101424 -0.15625,-0.103516 z m -7.15625,0.002 c -0.07144,0.0021 -0.110058,0.03096 -0.15625,0.103516 -0.04805,0.0754 -0.148314,0.660227 -0.263672,1.544922 -0.176204,1.351314 -0.205533,1.613215 -0.158203,1.640625 0.0034,0.002 0.0074,0.002 0.01172,0.002 0.0043,-10e-5 0.0088,-3.53e-4 0.01367,-0.002 0.02845,-0.009 0.469131,-0.56243 0.980469,-1.228516 0.913271,-1.189673 1.006456,-1.349897 0.888672,-1.535156 -0.05051,-0.0795 -1.018765,-0.487901 -1.232422,-0.519531 -0.03254,-0.0048 -0.06017,-0.0066 -0.08398,-0.0059 z" />
  </g>
</svg>
