<?xml version="1.0" encoding="UTF-8" standalone="no"?>
<!-- Created with Inkscape (http://www.inkscape.org/) -->

<svg
   version="1.1"
   id="svg1"
   width="24"
   height="24"
   viewBox="0 0 24 24"
   sodipodi:docname="urga.svg"
   inkscape:version="1.3.2 (091e20e, 2023-11-25, custom)"
   xml:space="preserve"
   xmlns:inkscape="http://www.inkscape.org/namespaces/inkscape"
   xmlns:sodipodi="http://sodipodi.sourceforge.net/DTD/sodipodi-0.dtd"
   xmlns="http://www.w3.org/2000/svg"
   xmlns:svg="http://www.w3.org/2000/svg"><defs
     id="defs1" /><sodipodi:namedview
     id="namedview1"
     pagecolor="#ffffff"
     bordercolor="#111111"
     borderopacity="1"
     inkscape:showpageshadow="0"
     inkscape:pageopacity="0"
     inkscape:pagecheckerboard="1"
     inkscape:deskcolor="#d1d1d1"
     inkscape:zoom="2.8206522"
     inkscape:cx="-68.069363"
     inkscape:cy="17.194605"
     inkscape:window-width="1366"
     inkscape:window-height="697"
     inkscape:window-x="-8"
     inkscape:window-y="-8"
     inkscape:window-maximized="1"
     inkscape:current-layer="g1" /><g
     inkscape:groupmode="layer"
     inkscape:label="Image"
     id="g1"><path
       id="path4"
       style="fill-opacity:1;stroke-width:1"
       d="m 11.999996,1.499945 c -0.444237,0 -0.888478,0.018 -1.183594,0.05273 -0.0071,8.41e-4 -0.01435,0.0011 -0.02148,0.002 -2.2061538,0.264111 -4.1842238,1.163699 -5.8593758,2.666016 -1.17361,1.052519 -2.175438,2.507905 -2.736328,3.976562 -0.333584,0.873476 -0.538554,1.703852 -0.646484,2.615235 -0.06997,0.59079 -0.06997,1.778348 0,2.369141 0.199442,1.684184 0.770126,3.244601 1.693359,4.628906 1.344483,2.015922 3.334473,3.505333 5.638672,4.220703 0.833469,0.258769 1.4080198,0.365695 2.4863288,0.460938 0.270563,0.02395 1.459605,-0.01046 1.828125,-0.05273 1.33908,-0.153735 2.718178,-0.593225 3.865234,-1.232422 1.71621,-0.95635 3.127677,-2.355395 4.09375,-4.054687 0.682689,-1.200842 1.120786,-2.549659 1.289063,-3.970703 0.06997,-0.590793 0.06997,-1.778351 0,-2.369141 -0.0073,-0.06177 -0.019,-0.122134 -0.02734,-0.183594 C 21.968081,7.301285 20.014466,4.430999 17.064453,2.787102 15.915192,2.146675 14.55234,1.713924 13.183594,1.552727 12.888473,1.517987 12.444237,1.499997 12,1.499997 Z m 0.07617,1.441406 c 0.173244,0.0018 0.346365,0.0091 0.521484,0.02148 0.27523,0.01947 0.553221,0.04951 0.841797,0.0957 3.359849,0.537788 6.135196,2.942612 7.175781,6.16211 0.05091,0.157513 0.102074,0.315262 0.144532,0.476562 0.811581,3.083281 -0.07306,6.39312 -2.310547,8.648438 -1.432159,1.44356 -3.156265,2.310256 -5.207031,2.621094 -0.457208,0.06928 -1.615272,0.100207 -2.054688,0.05469 -1.7565768,-0.181905 -3.3137508,-0.792118 -4.6874998,-1.83789 -1.495129,-1.138171 -2.623769,-2.763819 -3.166016,-4.558594 -0.482551,-1.596996 -0.516297,-3.322445 -0.09375,-4.927735 0.903752,-3.433465 3.75135,-6.036126 7.2460938,-6.625 0.552263,-0.09305 1.070111,-0.136143 1.589844,-0.130859 z" /><path
       style="stroke-width:0.999999"
       d="m 5.2104492,14.9327 c -0.2359133,-0.589575 -0.2274687,-1.321862 0.023738,-2.058528 0.01036,-0.03039 -0.00605,-0.04009 -0.043903,-0.026 -0.033248,0.01235 -0.2113747,0.0424 -0.3958387,0.06671 -0.406511,0.05357 -0.870874,-0.02595 -1.245122,-0.213214 -0.2793698,-0.139789 -1.035185,-0.652791 -1.0491705,-0.712111 -0.011567,-0.04903 0.6172917,-0.504745 0.9308201,-0.674546 0.5110199,-0.276754 1.0389712,-0.358124 1.5607376,-0.240543 0.125716,0.02832 0.2354974,0.04452 0.2439657,0.03599 0.00847,-0.0085 -0.03004,-0.15764 -0.085578,-0.331342 C 5.0147699,10.355845 5.0102281,9.5670618 5.140955,9.1919538 5.22865,8.9403236 5.2696089,8.8823322 5.6215546,8.5114969 5.9941901,8.1188843 6.0151862,8.1029232 6.2888977,8.0042114 6.8265054,7.8103361 7.2268143,7.8870254 7.7955551,8.2928517 8.5992602,8.8663376 8.6569532,9.6047918 7.953043,10.3087 7.6027843,10.658961 7.4119372,10.732476 7.078558,10.645566 6.4234465,10.47478 6.2749682,9.7626048 6.787594,9.2499778 c 0.1881715,-0.188172 0.1936933,-0.23612 0.025879,-0.224731 -0.3242752,0.02201 -0.7323669,0.430281 -0.7921604,0.792514 -0.041411,0.2508822 0.092057,0.7370812 0.264277,0.9626972 0.1550325,0.2031 0.5037377,0.380331 0.8212243,0.417382 0.8129748,0.09488 1.7556253,-0.672781 1.9276524,-1.5698192 0.01956,-0.102008 0.03865,-0.182365 0.04243,-0.178591 0.0038,0.0038 0.110345,0.178528 0.236832,0.388334 0.55727,0.9244062 1.0499637,1.3012432 1.8588367,1.4217392 0.106322,0.01584 0.10735,0.01445 0.0907,-0.1216 -0.03049,-0.249248 -0.131833,-0.561972 -0.254399,-0.785095 C 10.83871,10.043047 10.290081,9.5471518 9.8141593,9.2729288 l -0.358306,-0.206449 0.2274,-0.05625 C 10.079515,8.9122114 10.333321,8.7603612 10.673008,8.4180594 11.049499,8.0386757 11.187071,7.75835 11.210339,7.3231602 11.242236,6.7264737 10.972831,6.2887485 10.453332,6.0932129 9.9558383,5.9059588 9.5669923,5.9939335 9.2588783,6.3634498 9.0991373,6.5550227 8.9808026,6.8494963 9.0398333,6.9085267 c 0.01604,0.01604 0.127511,-0.053321 0.247721,-0.1541287 0.483296,-0.405295 0.9305607,-0.3900131 1.2611637,0.043093 0.129497,0.1696524 0.174377,0.4815734 0.101538,0.7057751 C 10.583056,7.7101416 10.15228,8.1477395 9.8595983,8.3064443 9.3790013,8.5670675 8.8631624,8.4224708 8.4159639,7.9017822 7.9100049,7.3126644 7.7950721,6.8309589 8.0211213,6.2468583 8.1015495,6.0390428 8.1610007,5.9612883 8.4944596,5.6278284 8.8684388,5.253849 8.882111,5.244395 9.1999293,5.1384181 9.3781913,5.0789921 9.6461773,5.0225479 9.7954573,5.012991 10.101005,4.99343 10.610492,5.067857 10.929517,5.1786625 l 0.212919,0.073952 -0.06011,-0.3021776 c -0.151981,-0.7641566 0.04468,-1.3453138 0.797827,-2.3575994 0.118013,-0.1586241 0.124234,-0.1543437 0.449287,0.3096708 0.564294,0.8055102 0.713873,1.3470587 0.569323,2.0612031 l -0.05825,0.2877862 0.292292,-0.088807 c 0.796264,-0.2419299 1.448933,-0.1890847 2.052621,0.1661975 0.385286,0.2267483 0.661445,0.5653592 0.807812,0.9905288 0.20114,0.5842521 0.03412,1.1311434 -0.513477,1.6813489 -0.308328,0.3097816 -0.505223,0.414742 -0.807002,0.4301499 C 14.32015,8.448921 14.044623,8.3170006 13.67545,7.9534168 13.401062,7.6831799 13.358975,7.6245521 13.320236,7.4585752 13.223706,7.044982 13.512914,6.5559983 13.900674,6.4771865 c 0.227511,-0.046243 0.559608,0.068483 0.815332,0.2816595 0.230297,0.1919822 0.281645,0.1695725 0.195869,-0.085498 C 14.817836,6.3937578 14.622876,6.1821117 14.364628,6.0792976 14.09386,5.9714927 13.896865,5.9714334 13.574392,6.079057 c -0.447236,0.1492626 -0.668707,0.4040576 -0.780498,0.897935 -0.176914,0.7815952 0.515074,1.7429796 1.455668,2.022369 0.138276,0.041074 0.244635,0.081454 0.236351,0.089736 -0.0083,0.0083 -0.148458,0.09496 -0.311509,0.192585 -0.512045,0.306629 -0.823155,0.557869 -1.031116,0.832687 -0.198699,0.262585 -0.377671,0.699006 -0.403792,0.984658 l -0.01522,0.166485 0.236843,-0.0376 c 0.724061,-0.11495 1.248446,-0.548173 1.76263,-1.456221 0.08418,-0.148677 0.160318,-0.27757 0.16918,-0.28643 0.0088,-0.0088 0.04791,0.09824 0.08681,0.238014 0.214509,0.771139 0.963393,1.439853 1.66205,1.484126 0.552001,0.03497 1.008513,-0.217469 1.21381,-0.671233 C 18.09859,9.999096 17.981651,9.484048 17.55177,9.19804 17.352459,9.065432 17.119019,8.9890884 17.06821,9.039899 c -0.01504,0.01505 0.02574,0.08044 0.09061,0.145314 0.169371,0.169372 0.338538,0.501944 0.355418,0.698729 0.0079,0.09311 -0.02489,0.257372 -0.07305,0.364997 -0.07551,0.168721 -0.112516,0.210106 -0.268626,0.300363 -0.220129,0.127273 -0.485361,0.168412 -0.688934,0.106858 -0.185454,-0.05607 -0.661019,-0.513949 -0.799711,-0.769954 -0.133502,-0.246422 -0.164319,-0.594191 -0.07632,-0.861191 0.065,-0.1972254 0.118831,-0.2746794 0.354861,-0.5106605 0.542081,-0.5419614 1.063309,-0.7089726 1.652765,-0.5295785 1.068926,0.3253162 1.581635,1.469117 1.238421,2.762811 l -0.104813,0.395079 0.291527,-0.06272 c 0.532503,-0.114558 1.03218,-0.02675 1.581066,0.277906 0.277277,0.153898 0.878594,0.585339 0.87858,0.630383 -1.5e-5,0.0441 -0.489287,0.401782 -0.811597,0.593318 -0.163275,0.09703 -0.405459,0.213871 -0.538185,0.259649 -0.303619,0.104712 -0.80271,0.129145 -1.139434,0.05576 -0.291977,-0.06364 -0.282258,-0.09124 -0.143556,0.407766 0.163576,0.588488 0.119972,1.228967 -0.117218,1.722097 -0.169513,0.352412 -0.654453,0.798877 -1.009711,0.929601 -0.311181,0.114499 -0.687329,0.138479 -0.931467,0.05936 -0.405219,-0.131317 -0.940538,-0.565848 -1.128708,-0.916194 -0.241811,-0.450219 -0.15707,-0.869609 0.272074,-1.346504 0.287158,-0.319109 0.461708,-0.432832 0.71001,-0.462572 0.307325,-0.0368 0.732596,0.227503 0.82191,0.510823 0.0926,0.293725 0.01028,0.578966 -0.267775,0.928101 -0.191422,0.240346 -0.167742,0.275225 0.114783,0.16908 0.23363,-0.08778 0.528361,-0.373722 0.604104,-0.586102 0.08998,-0.252236 0.04135,-0.62936 -0.12225,-0.948181 l -0.145782,-0.284082 -0.277118,-0.147931 c -0.882439,-0.471056 -2.020326,0.127613 -2.377889,1.251062 l -0.107596,0.338042 -0.06527,-0.126296 c -0.312056,-0.603849 -0.85281,-1.23029 -1.249957,-1.448029 -0.119211,-0.06536 -0.362534,-0.150193 -0.540723,-0.188523 l -0.323982,-0.0697 0.01474,0.162706 c 0.0082,0.08949 0.06808,0.31787 0.133285,0.507513 0.116304,0.338244 0.125375,0.351522 0.476397,0.697474 0.330621,0.325874 0.565519,0.494792 1.10901,0.797627 l 0.09366,0.05218 -0.20012,0.04079 c -0.445268,0.09076 -0.952812,0.426833 -1.235021,0.817757 -0.341541,0.473105 -0.417151,0.948906 -0.232776,1.464812 0.08776,0.245521 0.130027,0.310105 0.286016,0.436891 0.193262,0.157081 0.579308,0.307929 0.815228,0.318555 0.355491,0.01602 0.802431,-0.309797 0.94489,-0.688802 0.03949,-0.105037 0.05821,-0.204547 0.0416,-0.221148 -0.0166,-0.0166 -0.119089,0.04087 -0.227761,0.127722 -0.435898,0.348368 -0.756728,0.397882 -1.108141,0.171021 -0.263259,-0.169956 -0.400055,-0.652133 -0.272846,-0.961734 0.07725,-0.188008 0.493512,-0.59989 0.742983,-0.735206 0.217452,-0.117919 0.611444,-0.169356 0.811063,-0.105864 0.06937,0.02205 0.227225,0.106579 0.350786,0.187804 0.189962,0.124883 0.259452,0.198113 0.449995,0.474206 0.416233,0.603111 0.469132,1.07171 0.185132,1.63994 -0.107171,0.214439 -0.18719,0.313617 -0.444776,0.551329 -0.284534,0.262577 -0.346813,0.300932 -0.661742,0.407626 -0.51451,0.174305 -1.269313,0.149289 -1.77182,-0.05871 -0.07428,-0.03076 -0.143429,-0.04678 -0.153661,-0.03565 -0.01017,0.01118 0.0044,0.112681 0.0322,0.225637 0.07436,0.300516 0.06482,0.825825 -0.01966,1.083656 -0.108658,0.331606 -0.311111,0.702913 -0.600428,1.101198 -0.141218,0.194401 -0.264879,0.353346 -0.274807,0.353203 -0.0319,-4.27e-4 -0.484872,-0.633178 -0.62625,-0.874791 -0.293721,-0.501969 -0.399426,-1.124353 -0.280404,-1.650998 0.02717,-0.120242 0.04244,-0.225553 0.03394,-0.234039 -0.0085,-0.0084 -0.13634,0.02251 -0.284083,0.06889 -0.556479,0.17465 -1.1713227,0.181154 -1.6557867,0.01749 C 8.9666051,18.750534 8.9016441,18.704197 8.5378735,18.358769 8.1581026,17.998165 8.1285509,17.960271 8.0384687,17.717818 7.9075968,17.365664 7.8845454,17.14346 7.9520735,16.885032 8.076568,16.408608 8.5617509,15.800407 8.9571733,15.625089 c 0.46477,-0.206068 0.961964,-0.04578 1.4301267,0.461039 0.316393,0.342514 0.373383,0.540855 0.256555,0.892875 -0.09304,0.280342 -0.200371,0.393259 -0.459516,0.483414 -0.2967797,0.103248 -0.5766137,0.01302 -0.9745237,-0.314074 -0.152273,-0.125195 -0.202266,-0.09488 -0.153897,0.09335 0.05005,0.194768 0.310411,0.506385 0.526907,0.630636 0.35524,0.20389 0.9357837,0.08636 1.2883367,-0.260856 0.462083,-0.455099 0.475573,-1.183421 0.03382,-1.827929 -0.260188,-0.379616 -0.824769,-0.758644 -1.2515047,-0.840213 -0.100923,-0.0193 -0.173176,-0.04476 -0.160539,-0.05661 0.01263,-0.01176 0.154664,-0.09792 0.315617,-0.191287 0.5026037,-0.291559 0.8868457,-0.607831 1.0936627,-0.900193 0.179714,-0.254051 0.326128,-0.638403 0.360763,-0.94706 l 0.01801,-0.160352 -0.289208,0.05853 c -0.37997,0.07692 -0.535438,0.143928 -0.83139,0.358395 -0.2929287,0.212277 -0.6394627,0.641306 -0.9018377,1.116685 -0.164143,0.297349 -0.223448,0.350425 -0.208138,0.186296 C 9.0632653,14.269962 8.8666439,13.821897 8.677424,13.557757 8.2112154,12.906959 7.4614067,12.625018 6.7715689,12.841128 c -0.5690052,0.178254 -0.9182126,0.967375 -0.6719115,1.518363 0.1004932,0.22481 0.3961961,0.491464 0.6260596,0.56456 0.2154567,0.06851 0.2480008,-0.0016 0.085536,-0.183939 -0.398186,-0.44719 -0.4420829,-0.870494 -0.1233411,-1.189233 0.1848263,-0.184828 0.3384108,-0.256933 0.5605447,-0.263147 0.279354,-0.0078 0.4020743,0.05209 0.684002,0.334038 0.4515197,0.451519 0.5928461,0.838336 0.4665151,1.276881 -0.068165,0.236639 -0.09975,0.28392 -0.3686962,0.551986 -0.4174461,0.416118 -0.7881711,0.606569 -1.1803674,0.606495 -0.1592659,-3.1e-5 -0.3932607,-0.03538 -0.5199884,-0.07856 C 6.1259618,15.909094 6.0525667,15.854798 5.6907128,15.505701 5.3610056,15.187592 5.2681012,15.076762 5.2104492,14.9327 Z"
       id="path2" /></g></svg>
