<?xml version="1.0" encoding="UTF-8"?>
<svg id="svg1" version="1.1" viewBox="0 0 24 24" xmlns="http://www.w3.org/2000/svg">
 <g id="g23" stroke-linecap="round" stroke-linejoin="round" stroke-width="5.625">
  <path id="rect1" transform="matrix(.8 0 0 .8 12.58 10.445)" d="m-13.225-9.5962v8.0791a0.96045 0.96045 45 0 0 0.96045 0.96045h2.0791a0.96045 0.96045 135 0 0 0.96045-0.96045v-4.0791a0.96045 0.96045 135 0 1 0.96045-0.96045h4.0791a0.96045 0.96045 135 0 0 0.96045-0.96045v-2.0791a0.96045 0.96045 45 0 0-0.96045-0.96045h-8.0791a0.96045 0.96045 135 0 0-0.96045 0.96045z" style="paint-order:fill markers stroke"/>
  <path id="rect1-9" transform="matrix(-.8 0 0 -.8 11.42 13.555)" d="m-13.225-9.5962v8.0791a0.96045 0.96045 45 0 0 0.96045 0.96045h2.0791a0.96045 0.96045 135 0 0 0.96045-0.96045v-4.0791a0.96045 0.96045 135 0 1 0.96045-0.96045h4.0791a0.96045 0.96045 135 0 0 0.96045-0.96045v-2.0791a0.96045 0.96045 45 0 0-0.96045-0.96045h-8.0791a0.96045 0.96045 135 0 0-0.96045 0.96045z" style="paint-order:fill markers stroke"/>
 </g>
 <path id="rect1-2" transform="matrix(.8 0 0 -.8 24.58 1.5547)" d="m-12.265-0.55668c-0.52968-5.3883e-4 -0.95893-0.42979-0.95947-0.95947v-4.8268a1.0887 1.0887 45 0 0-1.0887-1.0887h-5.8204c-0.6733 0-1.2158-0.54252-1.2158-1.2158v-5.8204a1.0887 1.0887 45 0 0-1.0887-1.0887h-4.8268c-0.52968-5.39e-4 -0.95893-0.42979-0.95947-0.95947v-2.0801c5.39e-4 -0.52968 0.42979-0.95893 0.95947-0.95947h4.0796c0.53159 8.11e-4 0.96272-0.43033 0.96191-0.96191v-4.0796c5.39e-4 -0.52968 0.42979-0.95893 0.95947-0.95947h2.0801c0.52968 5.39e-4 0.95893 0.42979 0.95947 0.95947v4.8268a1.0887 1.0887 45 0 0 1.0887 1.0887h5.8204c0.6733 0 1.2158 0.54252 1.2158 1.2158v5.8204a1.0887 1.0887 45 0 0 1.0887 1.0887h4.8268c0.52968 5.39e-4 0.95893 0.42979 0.95947 0.95947v2.0801c-5.39e-4 0.52968-0.42979 0.95893-0.95947 0.95947h-4.0796c-0.53159-8.106e-4 -0.96272 0.43033-0.96191 0.96191v4.0796c-5.39e-4 0.52968-0.42979 0.95893-0.95947 0.95947z" stroke-linecap="round" stroke-linejoin="round" stroke-width="5.625" style="paint-order:fill markers stroke"/>
</svg>
