<?xml version="1.0" encoding="UTF-8" standalone="no"?>
<svg
   viewBox="0 0 24 24"
   version="1.1"
   id="svg1"
   sodipodi:docname="a.svg"
   inkscape:version="1.3.2 (091e20e, 2023-11-25, custom)"
   xmlns:inkscape="http://www.inkscape.org/namespaces/inkscape"
   xmlns:sodipodi="http://sodipodi.sourceforge.net/DTD/sodipodi-0.dtd"
   xmlns="http://www.w3.org/2000/svg"
   xmlns:svg="http://www.w3.org/2000/svg">
  <defs
     id="defs1" />
  <sodipodi:namedview
     id="namedview1"
     pagecolor="#ffffff"
     bordercolor="#111111"
     borderopacity="1"
     inkscape:showpageshadow="0"
     inkscape:pageopacity="0"
     inkscape:pagecheckerboard="1"
     inkscape:deskcolor="#d1d1d1"
     inkscape:zoom="1.911398"
     inkscape:cx="-50.486607"
     inkscape:cy="29.559516"
     inkscape:window-width="1366"
     inkscape:window-height="697"
     inkscape:window-x="-8"
     inkscape:window-y="-8"
     inkscape:window-maximized="1"
     inkscape:current-layer="svg1" />
  <path
     id="path1"
     style="stroke-width:0.999999"
     d="M 12 3 A 8.9999999 8.9999999 0 0 0 3 12 A 8.9999999 8.9999999 0 0 0 12 21 A 8.9999999 8.9999999 0 0 0 21 12 A 8.9999999 8.9999999 0 0 0 12 3 z M 11.914062 7.9785156 A 4.0231214 4.0231214 0 0 1 16.021484 11.886719 L 16.023438 12 A 4.0231214 4.0231214 0 0 1 12.029297 16.023438 A 4.0231214 4.0231214 0 0 1 7.9765625 12.056641 A 4.0231214 4.0231214 0 0 1 11.914062 7.9785156 z " />
</svg>
