<?xml version="1.0" encoding="UTF-8"?>
<svg id="svg1" version="1.1" viewBox="0 0 24 24" xmlns="http://www.w3.org/2000/svg">
 <g id="g20">
  <path id="rect9-85" transform="matrix(.97503 0 0 .97503 .2996 .2996)" d="m21.724 1.7656-6.7225 2.3015a1.1474 1.1474 125.55 0 0-0.77576 1.0856v1.328a0.81997 0.81997 135 0 1-0.81997 0.81997h-5.2854a0.81997 0.81997 135 0 0-0.81997 0.81997v6.1053h-2.148a1.1474 1.1474 144.45 0 0-1.0856 0.77576l-2.3015 6.7225a0.40171 0.40171 45 0 0 0.51017 0.51017l6.7225-2.3015a1.1474 1.1474 125.55 0 0 0.77576-1.0856v-2.148h6.1053a0.81997 0.81997 135 0 0 0.81997-0.81997v-5.2854a0.81997 0.81997 135 0 1 0.81997-0.81997h1.328a1.1474 1.1474 144.45 0 0 1.0856-0.77576l2.3015-6.7225a0.40171 0.40171 45 0 0-0.51017-0.51017z" style="paint-order:stroke markers fill"/>
  <path id="rect1" transform="matrix(.8 0 0 .8 12.58 10.445)" d="m-13.225-9.5962v8.0791a0.96045 0.96045 45 0 0 0.96045 0.96045h2.0791a0.96045 0.96045 135 0 0 0.96045-0.96045v-4.0791a0.96045 0.96045 135 0 1 0.96045-0.96045h4.0791a0.96045 0.96045 135 0 0 0.96045-0.96045v-2.0791a0.96045 0.96045 45 0 0-0.96045-0.96045h-8.0791a0.96045 0.96045 135 0 0-0.96045 0.96045z" stroke-linecap="round" stroke-linejoin="round" stroke-width="5.625" style="paint-order:fill markers stroke"/>
  <path id="rect1-9" transform="matrix(-.8 0 0 -.8 11.42 13.555)" d="m-13.225-9.5962v8.0791a0.96045 0.96045 45 0 0 0.96045 0.96045h2.0791a0.96045 0.96045 135 0 0 0.96045-0.96045v-4.0791a0.96045 0.96045 135 0 1 0.96045-0.96045h4.0791a0.96045 0.96045 135 0 0 0.96045-0.96045v-2.0791a0.96045 0.96045 45 0 0-0.96045-0.96045h-8.0791a0.96045 0.96045 135 0 0-0.96045 0.96045z" stroke-linecap="round" stroke-linejoin="round" stroke-width="5.625" style="paint-order:fill markers stroke"/>
 </g>
</svg>
