<?xml version="1.0" encoding="UTF-8"?>
<svg id="svg1" version="1.1" viewBox="0 0 24 24" xmlns="http://www.w3.org/2000/svg">
 <path id="path1" d="m12 2c-0.21 0-0.41031 0.059688-0.57031 0.17969l-7.9004 4.4395c-0.32 0.17-0.5293 0.50086-0.5293 0.88086v4.2617h4.1211l2.1152-4.3164a1.0001 1.0001 0 0 1 0.98437-0.55469 1.0001 1.0001 0 0 1 0.87305 0.7168l1.5801 5.4414 0.26367-0.6582a1.0001 1.0001 0 0 1 0.92773-0.62891h7.1348v-4.2617c0-0.38-0.2093-0.71086-0.5293-0.88086l-7.9004-4.4395c-0.16-0.12-0.36031-0.17969-0.57031-0.17969zm-2.1055 8.6465-1.252 2.5547a1.0001 1.0001 0 0 1-0.89648 0.56055h-4.7461v2.7383c0 0.38 0.2093 0.71086 0.5293 0.88086l7.9004 4.4395c0.16 0.12 0.36031 0.17969 0.57031 0.17969s0.41031-0.059688 0.57031-0.17969l7.9004-4.4395c0.32-0.17 0.5293-0.50086 0.5293-0.88086v-2.7383h-6.457l-1.0918 2.7246a1.0001 1.0001 0 0 1-1.8887-0.09375l-1.668-5.7461z"/>
</svg>
