<?xml version="1.0" encoding="UTF-8" standalone="no"?>
<svg
   viewBox="0 0 24 24"
   version="1.1"
   id="svg1"
   sodipodi:docname="hitdie.svg"
   inkscape:version="1.3.2 (091e20e, 2023-11-25, custom)"
   xmlns:inkscape="http://www.inkscape.org/namespaces/inkscape"
   xmlns:sodipodi="http://sodipodi.sourceforge.net/DTD/sodipodi-0.dtd"
   xmlns="http://www.w3.org/2000/svg"
   xmlns:svg="http://www.w3.org/2000/svg">
  <defs
     id="defs1" />
  <sodipodi:namedview
     id="namedview1"
     pagecolor="#ffffff"
     bordercolor="#111111"
     borderopacity="1"
     inkscape:showpageshadow="0"
     inkscape:pageopacity="0"
     inkscape:pagecheckerboard="1"
     inkscape:deskcolor="#d1d1d1"
     inkscape:zoom="4"
     inkscape:cx="-13.25"
     inkscape:cy="14.625"
     inkscape:window-width="1360"
     inkscape:window-height="715"
     inkscape:window-x="-8"
     inkscape:window-y="-8"
     inkscape:window-maximized="1"
     inkscape:current-layer="svg1" />
  <path
     id="path1"
     d="M 12 2 C 11.79 2 11.589686 2.0596877 11.429688 2.1796875 L 3.5292969 6.6191406 C 3.2092975 6.7891404 3 7.1200008 3 7.5 L 3 11.761719 L 7.1210938 11.761719 L 9.2363281 7.4453125 A 1.0001 1.0001 0 0 1 10.220703 6.890625 A 1.0001 1.0001 0 0 1 11.09375 7.6074219 L 12.673828 13.048828 L 12.9375 12.390625 A 1.0001 1.0001 0 0 1 13.865234 11.761719 L 21 11.761719 L 21 7.5 C 21 7.1200008 20.790703 6.7891404 20.470703 6.6191406 L 12.570312 2.1796875 C 12.410314 2.0596877 12.21 2 12 2 z M 9.8945312 10.646484 L 8.6425781 13.201172 A 1.0001 1.0001 0 0 1 7.7460938 13.761719 L 3 13.761719 L 3 16.5 C 3 16.88 3.2092975 17.210861 3.5292969 17.380859 L 11.429688 21.820312 C 11.589686 21.940312 11.79 22 12 22 C 12.21 22 12.410314 21.940312 12.570312 21.820312 L 20.470703 17.380859 C 20.790703 17.210861 21 16.88 21 16.5 L 21 13.761719 L 14.542969 13.761719 L 13.451172 16.486328 A 1.0001 1.0001 0 0 1 11.5625 16.392578 L 9.8945312 10.646484 z " />
</svg>
