<?xml version="1.0" encoding="UTF-8"?>
<svg id="svg1" version="1.1" viewBox="0 0 24 24" xmlns="http://www.w3.org/2000/svg">
 <path id="rect9-85-8" transform="matrix(1.0286 0 0 1.0286 -.34292 -.34377)" d="m11.623 2.2707-1.9668 4.0125a1.1992 1.1992 80.543 0 0 0.22924 1.3762l0.2718 0.27155a0.85693 0.85693 89.996 0 1 9.4e-5 1.2123l-1.0139 1.0133a0.85785 0.85785 0.008784 0 1-1.213-1.86e-4l-0.27099-0.27099a1.1998 1.1998 9.4439 0 0-1.3765-0.22896l-4.0125 1.9668a0.42025 0.42025 89.994 0 0 7.49e-5 0.75474l4.0124 1.9657a1.2001 1.2001 170.55 0 0 1.3765-0.22911l0.27099-0.27099a0.85785 0.85785 179.99 0 1 1.213-1.86e-4l1.0139 1.0133a0.85693 0.85693 90.004 0 1-9.4e-5 1.2123l-0.87848 0.87767 2.3442 4.7826a0.42025 0.42025 179.99 0 0 0.75474-7.5e-5l2.343-4.7825-0.8774-0.8774a0.85759 0.85759 90 0 1 0-1.2128l1.0129-1.0129a0.85759 0.85759 180 0 1 1.2128 0l0.27099 0.27099a1.2002 1.2002 9.4524 0 0 1.3766 0.22918l4.0137-1.9659a0.42014 0.42014 90.006 0 0 7.5e-5 -0.7546l-4.0138-1.9669a1.1999 1.1999 170.55 0 0-1.3765 0.22903l-0.27099 0.27099a0.85759 0.85759 5.1486e-6 0 1-1.2128 0l-1.0129-1.0129a0.85759 0.85759 90 0 1 1e-6 -1.2128l0.27099-0.27099a1.2001 1.2001 99.45 0 0 0.22911-1.3765l-1.9657-4.0124a0.42025 0.42025 0.0056874 0 0-0.75474-7.49e-5z" style="paint-order:stroke markers fill"/>
</svg>
