<?xml version="1.0" encoding="UTF-8"?>
<svg id="svg1" version="1.1" viewBox="0 0 24 24" xml:space="preserve" xmlns="http://www.w3.org/2000/svg"><path id="rect28" d="m3.5898 2.25c-0.74279 0-1.3398 0.59705-1.3398 1.3398v6.3203c0 0.4326 0.20561 0.81206 0.52148 1.0566l5.832-2.3633 2.3633-5.832c-0.24458-0.31587-0.62404-0.52148-1.0566-0.52148h-6.3203zm10.5 0c-0.4326 0-0.81206 0.20561-1.0566 0.52148l2.3633 5.832 5.832 2.3633c0.31587-0.24458 0.52148-0.62404 0.52148-1.0566v-6.3203c0-0.74279-0.59705-1.3398-1.3398-1.3398h-6.3203zm-11.318 10.783c-0.31587 0.24458-0.52148 0.62404-0.52148 1.0566v6.3203c0 0.74279 0.59705 1.3398 1.3398 1.3398h6.3203c0.4326 0 0.81206-0.20562 1.0566-0.52148l-2.3633-5.832-5.832-2.3633zm18.457 0-5.832 2.3633-2.3633 5.832c0.24458 0.31587 0.62404 0.52148 1.0566 0.52148h6.3203c0.74279 0 1.3398-0.59705 1.3398-1.3398v-6.3203c0-0.4326-0.20562-0.81206-0.52148-1.0566z" style="paint-order:stroke markers fill"/><path id="path40" transform="matrix(.93926 0 0 .93926 18.465 17.877)" d="m0.30382-6.257-5.114 2.0725-2.0725 5.114-2.0725-5.114-5.114-2.0725 5.114-2.0725 2.0725-5.114 2.0725 5.114z" stroke-width="1.0647" style="paint-order:stroke markers fill"/></svg>
