<?xml version="1.0" encoding="UTF-8" standalone="no"?>
<svg
   width="24"
   height="24"
   version="1.1"
   viewBox="0 0 26.181818 26.181818"
   id="svg1"
   sodipodi:docname="arrow.svg"
   inkscape:version="1.4 (86a8ad7, 2024-10-11)"
   xmlns:inkscape="http://www.inkscape.org/namespaces/inkscape"
   xmlns:sodipodi="http://sodipodi.sourceforge.net/DTD/sodipodi-0.dtd"
   xmlns="http://www.w3.org/2000/svg"
   xmlns:svg="http://www.w3.org/2000/svg">
  <defs
     id="defs1" />
  <sodipodi:namedview
     id="namedview1"
     pagecolor="#ffffff"
     bordercolor="#111111"
     borderopacity="1"
     inkscape:showpageshadow="0"
     inkscape:pageopacity="0"
     inkscape:pagecheckerboard="1"
     inkscape:deskcolor="#d1d1d1"
     inkscape:zoom="11.313709"
     inkscape:cx="-9.5459415"
     inkscape:cy="20.285126"
     inkscape:window-width="1920"
     inkscape:window-height="1017"
     inkscape:window-x="-8"
     inkscape:window-y="-8"
     inkscape:window-maximized="1"
     inkscape:current-layer="svg1" />
  <path
     id="path1"
     style="fill-opacity:0.903614;stroke-width:0.299992"
     d="m 23.969018,2.1829544 c -0.0055,2.585e-4 -0.05566,0.015902 -0.06392,0.017045 -0.115598,0.02151 -0.337293,0.07507 -0.637074,0.1555398 -0.08394,0.022721 -0.137465,0.035465 -0.232244,0.06179 -1.53965,0.4226886 -4.390918,1.2843545 -4.487216,1.3806818 -0.0342,0.034193 0.503262,0.366156 1.195313,0.7372159 l 0.462358,0.2450284 0.08949,0.098011 -2.354403,2.3458807 -0.01278,-0.012784 -9.0660514,9.034091 -0.5731534,-0.01278 -1.6235795,-0.03196 -4.4829545,4.495738 2.6867897,0.615767 0.6157671,2.68679 4.4957386,-4.482954 -0.03196,-1.62358 -0.012784,-0.573153 9.0340904,-9.0660516 -0.01278,-0.012784 2.345881,-2.3544034 0.09801,0.089489 0.245028,0.4623579 c 0.37106,0.692051 0.703026,1.2295125 0.737216,1.1953125 0.09633,-0.096298 0.957993,-2.9475659 1.380682,-4.4872159 0.02633,-0.094779 0.03907,-0.1483043 0.06179,-0.2322443 0.08047,-0.299781 0.13403,-0.5214758 0.15554,-0.6370738 0.0012,-0.00826 0.01679,-0.05842 0.01705,-0.063921 5e-4,-0.00898 -3.1e-5,-0.011944 -0.0021,-0.012784 2.88e-4,-0.00606 -0.0013,-0.00807 -0.0021,-0.010653 -1.58e-4,-5.028e-4 1.74e-4,-0.0017 0,-0.00213 -4.32e-4,-1.749e-4 -0.0016,1.594e-4 -0.0021,0 -0.0026,-8.193e-4 -0.0046,-0.00242 -0.01065,-0.00213 -8.4e-4,-0.00214 -0.0038,-0.00256 -0.01278,-0.00213 z" />
</svg>
