<?xml version="1.0" encoding="UTF-8" standalone="no"?>
<svg
   width="24"
   height="24"
   version="1.1"
   viewBox="0 0 24 24"
   id="svg1"
   sodipodi:docname="battleaxe.svg"
   inkscape:version="1.3.2 (091e20e, 2023-11-25, custom)"
   xmlns:inkscape="http://www.inkscape.org/namespaces/inkscape"
   xmlns:sodipodi="http://sodipodi.sourceforge.net/DTD/sodipodi-0.dtd"
   xmlns="http://www.w3.org/2000/svg"
   xmlns:svg="http://www.w3.org/2000/svg">
  <defs
     id="defs1" />
  <sodipodi:namedview
     id="namedview1"
     pagecolor="#ffffff"
     bordercolor="#111111"
     borderopacity="1"
     inkscape:showpageshadow="0"
     inkscape:pageopacity="0"
     inkscape:pagecheckerboard="1"
     inkscape:deskcolor="#d1d1d1"
     inkscape:zoom="4.53125"
     inkscape:cx="-0.77241379"
     inkscape:cy="29.903448"
     inkscape:window-width="1366"
     inkscape:window-height="697"
     inkscape:window-x="-8"
     inkscape:window-y="-8"
     inkscape:window-maximized="1"
     inkscape:current-layer="svg1" />
  <path
     d="M 14.71541,2.0024796 C 12.996429,2.0482811 11.364447,2.7371116 10.15186,3.9485584 8.7673953,5.3345033 8.065683,7.2679222 8.2261012,9.2531006 9.5693466,8.9570438 10.941672,9.1356738 12.103859,9.7577751 12.17332,9.6063947 12.273363,9.4640583 12.397996,9.3394196 L 15.542961,6.1944539 C 15.667894,6.0695173 15.810738,5.9706563 15.962497,5.9022771 15.339484,4.7396498 15.160386,3.3667047 15.456642,2.0227194 15.208485,2.0026636 14.961208,1.9958637 14.71563,2.0024076 Z m 2.516773,3.9651568 c -0.204738,0 -0.409416,0.078165 -0.565614,0.2343774 l -0.03047,0.030468 C 16.407564,6.1339005 16.077448,6.2255115 15.82557,6.4773988 L 12.680605,9.6223645 C 12.428727,9.8742618 12.337108,10.204358 12.435687,10.432896 L 2.2345985,20.634385 c -0.00468,0.0047 -0.00509,0.0076 -0.00938,0.01211 a 0.79999128,0.80001128 0 0 0 -0.2249974,0.553514 0.79999128,0.80001128 0 0 0 0.7999913,0.799992 0.79999128,0.80001128 0 0 0 0.5535139,-0.224998 c 0.00451,-0.0043 0.00743,-0.0047 0.012109,-0.0094 L 13.566929,11.564539 c 0.228538,0.09858 0.558654,0.0066 0.810531,-0.245317 l 3.144966,-3.1449657 c 0.251877,-0.2518972 0.343496,-0.5819936 0.244918,-0.8105311 l 0.03047,-0.030468 c 0.312417,-0.3124166 0.312417,-0.8188311 0,-1.1312277 -0.156207,-0.156208 -0.360899,-0.2343771 -0.565617,-0.2343771 z m 0.865231,2.0699774 c -0.06838,0.1517584 -0.167253,0.2945968 -0.292177,0.4195354 l -3.144966,3.1453658 c -0.123989,0.123991 -0.265517,0.223538 -0.416015,0.292957 0.624513,1.161688 0.805491,2.534573 0.510934,3.878958 1.982378,0.15785 3.912157,-0.543874 5.295942,-1.926159 1.384685,-1.385845 2.086378,-3.319164 1.926159,-5.3045427 -1.344285,0.2964168 -2.71737,0.1173027 -3.879957,-0.5058545 z"
     id="path1"
     style="stroke-width:0.999999" />
</svg>
