<?xml version="1.0" encoding="UTF-8" standalone="no"?>
<svg
   width="24"
   height="24"
   version="1.1"
   viewBox="0 0 26.181818 26.181818"
   xml:space="preserve"
   id="svg1"
   sodipodi:docname="flail.svg"
   inkscape:version="1.3.2 (091e20e, 2023-11-25, custom)"
   xmlns:inkscape="http://www.inkscape.org/namespaces/inkscape"
   xmlns:sodipodi="http://sodipodi.sourceforge.net/DTD/sodipodi-0.dtd"
   xmlns="http://www.w3.org/2000/svg"
   xmlns:svg="http://www.w3.org/2000/svg"><defs
     id="defs1" /><sodipodi:namedview
     id="namedview1"
     pagecolor="#ffffff"
     bordercolor="#111111"
     borderopacity="1"
     inkscape:showpageshadow="0"
     inkscape:pageopacity="0"
     inkscape:pagecheckerboard="1"
     inkscape:deskcolor="#d1d1d1"
     inkscape:zoom="13.98143"
     inkscape:cx="5.1139263"
     inkscape:cy="6.5443952"
     inkscape:window-width="1366"
     inkscape:window-height="697"
     inkscape:window-x="-8"
     inkscape:window-y="-8"
     inkscape:window-maximized="1"
     inkscape:current-layer="svg1" /><path
     d="m 23.008066,2.8176864 a 0.34247887,0.34247887 0 0 0 -0.484079,-2e-7 l -0.08369,0.083688 -0.04472,-0.044716 -0.232602,-0.2326029 c 0,0 -0.169619,-0.138041 -0.268712,-0.1809158 -0.107053,-0.04632 -0.340908,-0.077535 -0.340908,-0.077535 L 18.911406,2.181817 18.175437,3.3231005 c 0,0 0.305585,0.3235626 0.393839,0.5234601 0.06458,0.1462904 0.113016,0.3137444 0.08861,0.471773 -0.01915,0.1239727 -0.09216,0.2400428 -0.178044,0.3314825 -0.141639,0.1507741 -0.337679,0.2439483 -0.527148,0.3269662 -0.153824,0.067394 -0.320879,0.1008041 -0.485322,0.1349691 -0.144265,0.029974 -0.437715,0.061126 -0.437715,0.061126 0,0 -0.67023,1.860932 -0.844273,2.8298088 -0.02548,0.1418156 -0.03708,0.2877373 -0.02872,0.4315623 0.0053,0.091317 0.0085,0.1878452 0.04964,0.2695191 0.0011,0.00223 0.0033,0.00471 0.0045,0.00698 L 14.154288,10.767274 A 0.89113888,0.89113888 0 0 0 13.89871,11.442937 L 3.8621616,21.479486 2.181818,22.739744 v 1.260257 H 3.4420757 L 4.7023333,22.319658 14.738882,12.283109 a 0.89113888,0.89113888 0 0 0 0.675663,-0.255578 l 2.056532,-2.0565309 c 0.0023,0.00118 0.0047,0.00338 0.007,0.00451 0.08168,0.041175 0.178208,0.04433 0.269519,0.049638 0.143843,0.0084 0.289745,-0.0032 0.431562,-0.028717 0.968877,-0.1740497 2.829809,-0.8442736 2.829809,-0.8442736 0,0 0.03115,-0.2934536 0.06113,-0.4377149 0.03416,-0.1644279 0.06757,-0.3314826 0.134967,-0.4853221 0.08301,-0.1894815 0.176185,-0.385526 0.326966,-0.5271473 0.09143,-0.085887 0.207501,-0.1588992 0.331482,-0.1780445 0.158038,-0.024406 0.325483,0.02403 0.471773,0.088612 0.199902,0.088246 0.52346,0.3938387 0.52346,0.3938387 L 24,7.2704133 23.947488,6.5155722 23.842469,5.0058899 23.816213,4.6284802 c 0,0 -0.03121,-0.2338465 -0.07754,-0.3409079 -0.04287,-0.099087 -0.180916,-0.2687119 -0.180916,-0.2687119 l -0.27733,-0.27733 0.08369,-0.083688 a 0.34247887,0.34247887 0 0 0 0,-0.4840784 L 23.186078,2.995722 Z"
     id="path1"
     style="stroke-width:1" /></svg>
