<?xml version="1.0" encoding="UTF-8" standalone="no"?>
<svg
   width="24"
   height="24"
   version="1.1"
   viewBox="0 0 26.181818 26.181818"
   xml:space="preserve"
   id="svg1"
   sodipodi:docname="pike.svg"
   inkscape:version="1.3.2 (091e20e, 2023-11-25, custom)"
   xmlns:inkscape="http://www.inkscape.org/namespaces/inkscape"
   xmlns:sodipodi="http://sodipodi.sourceforge.net/DTD/sodipodi-0.dtd"
   xmlns="http://www.w3.org/2000/svg"
   xmlns:svg="http://www.w3.org/2000/svg"><defs
     id="defs1" /><sodipodi:namedview
     id="namedview1"
     pagecolor="#ffffff"
     bordercolor="#111111"
     borderopacity="1"
     inkscape:showpageshadow="0"
     inkscape:pageopacity="0"
     inkscape:pagecheckerboard="1"
     inkscape:deskcolor="#d1d1d1"
     inkscape:zoom="4.9431818"
     inkscape:cx="-15.678161"
     inkscape:cy="22.556322"
     inkscape:window-width="1366"
     inkscape:window-height="697"
     inkscape:window-x="-8"
     inkscape:window-y="-8"
     inkscape:window-maximized="1"
     inkscape:current-layer="svg1" /><path
     d="m 25.090823,1.090903 c 0,0 -2.59414,1.7047544 -3.83277,2.6380589 -1.550699,1.1684546 -3.059735,2.3964768 -4.497564,3.7014904 -1.060407,0.9624163 -2.146135,1.9174166 -3.037895,3.0378957 -0.781146,0.981472 -1.995608,3.190294 -1.995608,3.190294 l -0.217484,0.217484 c -0.323398,-0.06093 -0.656059,0.04145 -0.889241,0.27367 -0.23222,0.233185 -0.334606,0.565844 -0.27367,0.889241 l -0.124425,0.124425 -0.3077972,-0.307798 c -0.097461,-0.09746 -0.2554779,-0.09746 -0.3529412,0 L 8.5908514,15.82624 7.7860658,15.021455 c 0.1119999,-0.07276 0.227223,-0.140015 0.3491492,-0.193357 0.2222599,-0.09724 0.7006984,-0.196803 0.7006984,-0.196803 0,0 -0.5803873,-0.372981 -0.8975208,-0.5039 C 7.51122,13.951044 6.8651932,13.820845 6.6024673,13.755158 6.3397414,13.689475 5.6605468,13.642025 5.1883026,13.658995 4.7505461,13.674725 3.887177,13.842013 3.887177,13.842013 c 0,0 0.7840978,0.484196 1.0732954,0.832721 0.256174,0.30871 0.4760602,0.541628 0.624187,0.864761 0.1766482,0.385389 0.2953897,1.236999 0.2953897,1.236999 l 0.4167087,-0.420837 c 0,0 0.1107039,-0.08823 0.1764681,-0.08823 0.065767,-1e-6 0.1764706,0.08823 0.1764706,0.08823 l 0.7058824,0.705882 -2.7352581,2.735258 c -0.097461,0.09746 -0.097461,0.255478 0,0.352942 L 1.090909,23.67915 v 1.411765 h 1.4117647 l 3.5294118,-3.529412 c 0.097461,0.09746 0.2554779,0.09746 0.3529411,0 l 2.7352582,-2.735258 0.7058823,0.705882 c 0,0 0.088235,0.110702 0.088235,0.176468 0,0.06577 -0.088235,0.176469 -0.088235,0.176469 l -0.4208366,0.416708 c 0,0 0.8516095,0.11873 1.2369985,0.29539 0.323157,0.14812 0.556051,0.368037 0.864761,0.624187 0.348525,0.289198 0.832721,1.073295 0.832721,1.073295 0,0 0.167286,-0.863369 0.183018,-1.301125 0.01697,-0.472244 -0.03048,-1.151439 -0.09616,-1.414165 -0.06568,-0.262726 -0.195889,-0.908753 -0.372237,-1.335925 -0.130919,-0.317134 -0.5039,-0.897521 -0.5039,-0.897521 0,0 -0.09956,0.478436 -0.196805,0.700698 -0.05334,0.121924 -0.120595,0.237147 -0.193357,0.34915 l -0.804789,-0.804786 0.970577,-0.970576 c 0.09746,-0.09746 0.09746,-0.255478 0,-0.352941 L 11.01836,15.959655 11.142785,15.83523 c 0.323397,0.06093 0.656058,-0.04144 0.88924,-0.273669 0.233163,-0.233216 0.336094,-0.56654 0.275038,-0.890609 l 0.216107,-0.216107 c 0,0 2.208726,-1.214462 3.190294,-1.995608 1.120431,-0.891736 2.075503,-1.977512 3.037896,-3.0378953 1.304917,-1.4377565 2.532939,-2.9469364 3.70149,-4.497564 0.933329,-1.2386541 2.638059,-3.8327693 2.638059,-3.8327693 z"
     color="#000000"
     stroke-linejoin="round"
     style="stroke-width:1;-inkscape-stroke:none;paint-order:stroke fill markers"
     id="path1" /></svg>
