<?xml version="1.0" encoding="UTF-8" standalone="no"?>
<svg
   width="24"
   height="24"
   version="1.1"
   viewBox="0 0 26.181818 26.181818"
   xml:space="preserve"
   id="svg1"
   sodipodi:docname="rapier.svg"
   inkscape:version="1.3.2 (091e20e, 2023-11-25, custom)"
   xmlns:inkscape="http://www.inkscape.org/namespaces/inkscape"
   xmlns:sodipodi="http://sodipodi.sourceforge.net/DTD/sodipodi-0.dtd"
   xmlns="http://www.w3.org/2000/svg"
   xmlns:svg="http://www.w3.org/2000/svg"><defs
     id="defs1" /><sodipodi:namedview
     id="namedview1"
     pagecolor="#ffffff"
     bordercolor="#111111"
     borderopacity="1"
     inkscape:showpageshadow="0"
     inkscape:pageopacity="0"
     inkscape:pagecheckerboard="1"
     inkscape:deskcolor="#d1d1d1"
     inkscape:zoom="13.98143"
     inkscape:cx="8.6185751"
     inkscape:cy="8.2609578"
     inkscape:window-width="1366"
     inkscape:window-height="697"
     inkscape:window-x="-8"
     inkscape:window-y="-8"
     inkscape:window-maximized="1"
     inkscape:current-layer="svg1" /><path
     d="m 22.648915,2.1819721 -5.749708,5.9654885 -3.604559,3.7457214 c 0,0 -0.202953,-0.184609 -0.468324,-0.401845 -0.41415,-0.339052 -0.811303,-0.542375 -1.410929,-0.722723 -0.248376,-0.0747 -0.512069,-0.08319 -0.640905,-0.02045 -0.0328,0.01597 -0.148999,0.0495 -0.257802,0.07457 -0.359648,0.08288 -0.8440305,0.317256 -1.1062397,0.535218 -0.1626098,0.135176 -0.3129579,0.375009 -0.4610806,0.568884 -0.063589,0.08324 -0.1299613,0.164888 -0.1836621,0.254835 -0.1186618,0.198749 -0.2634964,0.426389 -0.303838,0.624301 -0.00947,0.04648 -0.023902,0.204293 -0.031959,0.350288 -0.00806,0.145994 -0.027504,0.287497 -0.043038,0.314486 -0.01553,0.027 -0.079603,0.0622 -0.1423278,0.07841 -0.1026757,0.02653 -0.1226065,0.02258 -0.2024125,-0.04134 -0.067387,-0.05397 -0.087925,-0.09372 -0.085226,-0.165342 0.00782,-0.20361 0.1129498,-0.550512 0.2522602,-0.8331 0.1518841,-0.308067 0.3420632,-0.416263 0.5313784,-0.607236 0.098214,-0.09907 0.2099157,-0.183579 0.312347,-0.278267 0.1040306,-0.09616 0.2206241,-0.22141 0.3068053,-0.294042 0.086181,-0.07263 0.1278385,-0.133808 0.1278385,-0.133808 0,0 -0.4447608,0.154341 -0.6592321,0.250558 -0.1933908,0.08677 -0.391852,0.17021 -0.5641927,0.293606 -0.1889682,0.1353 -0.3662813,0.294827 -0.5041058,0.48196 -0.1175054,0.159527 -0.1871508,0.30554 -0.264631,0.532251 -0.033085,0.09682 -0.08821,0.174717 -0.08821,0.174717 0,0 -0.3445723,-0.314464 -0.3613504,-0.332376 -0.016783,-0.01793 -0.6273999,-0.626243 -1.5583539,-1.586499 L 4.8537965,10.356548 C 4.2778439,9.7624647 3.7817017,9.2651006 3.738611,9.2383735 3.684827,9.2050095 3.3930351,9.4604375 3.287763,9.6329746 c -0.035,0.057366 -0.057628,0.090859 -0.056674,0.1248581 0.00155,0.055149 0.064867,0.1111869 0.2365076,0.2710233 0.4280481,0.398638 0.8729616,0.824351 1.3218677,1.246029 0.1542056,0.146732 0.3052344,0.287016 0.4580916,0.429968 0.1769858,0.165529 0.3547831,0.330107 0.5318147,0.495596 0.3328342,0.311169 0.6839519,0.643305 0.9967135,0.934947 0.5122222,0.477597 0.5682727,0.538687 0.5612037,0.616185 -0.00431,0.04732 -0.017206,0.09477 -0.028551,0.105257 -0.011339,0.01048 -0.3607395,0.002 -0.7764168,-0.01875 -0.5874289,-0.02926 -0.6648829,-0.03682 -0.9945972,-0.0017 -0.2339766,0.02492 -0.4648115,0.0814 -0.6899082,0.150001 -0.092212,0.0281 -0.1799792,0.06928 -0.2688855,0.106533 -0.073525,0.03081 -0.1464558,0.06284 -0.218595,0.09673 -0.1137134,0.05343 -0.226144,0.109704 -0.3375032,0.167899 -0.1509176,0.07887 -0.3114089,0.144145 -0.4482953,0.245453 -0.3394232,0.251235 -0.706119,0.513051 -0.9059504,0.885092 -0.386463,0.719428 -0.5568619,1.725458 -0.4602298,2.406312 0.039486,0.278202 0.055442,0.340754 0.1623568,0.64049 0.1341286,0.376012 0.2905072,0.631938 0.6153342,1.006532 0.1047135,0.120767 0.1901464,0.230333 0.1896293,0.243315 -4.975e-4,0.01299 -0.028128,0.05047 -0.061363,0.08352 -0.033235,0.03305 -0.090266,0.112407 -0.1265599,0.175996 -0.064867,0.113635 -0.064968,0.117431 -0.016193,0.22586 0.080135,0.178133 0.1773719,0.236071 0.41079,0.245038 0.1889966,0.0073 0.2067652,0.002 0.3076562,-0.08864 C 3.8191775,20.310545 3.8742921,20.175306 3.861738,20.005496 3.852259,19.877319 3.7063925,19.773731 3.6218258,19.662895 3.3986273,19.370359 3.0769639,19.144346 2.9174304,18.812755 2.7419807,18.448089 2.6102761,18.02447 2.6702757,17.624261 c 0.082869,-0.552782 0.4033064,-1.08368 0.8075292,-1.46975 0.2819764,-0.269322 0.6678284,-0.438216 1.0499932,-0.515626 0.685501,-0.138846 1.4177799,-0.05609 2.0948591,0.119319 0.3441578,0.08916 0.6532321,0.285227 0.9604956,0.464069 0.2524784,0.146947 0.7434934,0.463306 0.7214353,0.497735 -0.020664,0.03226 -0.2228058,0.267664 -0.3379178,0.398005 -0.096451,0.109217 -0.199358,0.212453 -0.2957435,0.321729 -0.1454434,0.164914 -0.2859909,0.334252 -0.4261282,0.503691 -0.1605546,0.194146 -0.3153579,0.392507 -0.4747169,0.587647 -0.1802214,0.22069 -0.3610885,0.440921 -0.5441637,0.659232 -0.107816,0.128561 -0.2210168,0.252544 -0.3264197,0.383103 -0.071042,0.08798 -0.1377242,0.17979 -0.2062481,0.269737 -0.081305,0.106731 -0.2398239,0.319001 -0.2433148,0.320463 -0.053592,0.02244 -0.1486659,0.03036 -0.2914672,0.02514 -0.4160482,-0.0152 -0.895936,0.127404 -1.181665,0.351554 -0.084903,0.06661 -0.162359,0.114643 -0.2897654,0.2429 -0.1274087,0.128258 -0.2949363,0.408063 -0.3941647,0.67457 -0.1186247,0.318587 -0.1414573,0.822693 -0.052413,1.150989 0.060774,0.224071 0.06065,0.229941 0.00469,0.287213 -0.031411,0.03215 -0.1161571,0.08523 -0.1887762,0.11804 -0.2194895,0.09918 -0.3082453,0.325634 -0.2062482,0.525858 0.068592,0.134648 0.2840491,0.334493 0.4410517,0.409089 0.1143374,0.05432 0.1569219,0.06104 0.2505584,0.03963 0.1345584,-0.03076 0.2535038,-0.151871 0.2850745,-0.290616 0.012603,-0.05538 0.043034,-0.116221 0.078835,-0.178553 0.035799,-0.06234 0.05297,-0.07013 0.084375,-0.05668 0.1012794,0.04342 0.3828412,0.07465 0.5769781,0.07884 0.1670345,0.0036 0.3381142,-0.0014 0.4990004,-0.04645 0.2473075,-0.06926 0.4827459,-0.189437 0.6928973,-0.337067 0.094448,-0.06635 0.1757596,-0.1516 0.2480057,-0.241613 0.3973501,-0.495073 0.5294802,-0.881405 0.4938949,-1.500012 l -0.015771,-0.27231 C 6.615312,21.034022 6.8604486,20.796401 6.8604486,20.796401 l 0.8944523,-0.786213 c 0,0 0.3683976,-0.299932 0.6421704,-0.548003 0.2737946,-0.248072 0.5424619,-0.488266 0.9136304,-0.852693 0.1972351,-0.194316 0.5991452,-0.593603 0.5991452,-0.593603 0,0 0.1467131,0.04834 0.3464491,0.189203 0.618694,0.436339 1.243999,0.751414 1.82257,0.918322 0.259852,0.07497 0.408215,0.09793 0.80923,0.125711 l 0.491321,0.03409 c 0,0 0.10618,0.09922 0.1598,0.148297 0.06353,0.05814 0.127729,0.115851 0.191758,0.173438 0.117835,0.105979 0.237053,0.210265 0.354543,0.316623 0.156366,0.14154 0.311257,0.284726 0.466187,0.427852 0.744802,0.687988 1.919071,1.779741 2.226967,2.071885 0.170748,0.162016 0.339838,0.311627 0.375837,0.332376 0.0949,0.05472 0.172738,0.02126 0.264631,-0.113779 0.04452,-0.06542 0.113459,-0.155028 0.152982,-0.199007 0.108135,-0.120326 0.09732,-0.21071 -0.04176,-0.349438 -0.124716,-0.124398 -0.896634,-0.766641 -1.348267,-1.145882 -0.207326,-0.174088 -0.416725,-0.345816 -0.625131,-0.518615 -0.129139,-0.107061 -0.259765,-0.212392 -0.387357,-0.321314 -0.123709,-0.105612 -0.244755,-0.214251 -0.366478,-0.322165 -0.109677,-0.09724 -0.221191,-0.192507 -0.328121,-0.292755 -0.133616,-0.125261 -0.393183,-0.336739 -0.391612,-0.385219 6.54e-4,-0.01968 0.04484,-0.05642 0.09801,-0.08139 0.219053,-0.102872 0.714191,-0.550622 0.925564,-0.934947 0.351925,-0.639901 0.414609,-1.258181 0.49047,-1.911653 0.05411,-0.466055 0.0232,-0.941165 -0.02812,-1.407525 -0.02104,-0.191163 -0.04079,-0.387729 -0.114203,-0.56548 -0.109003,-0.263933 -0.29679,-0.48927 -0.472164,-0.714628 -0.168402,-0.216427 -0.55396,-0.608091 -0.55396,-0.608091 L 18.101404,8.9425493 21.885961,4.8708666 23.999999,2.5961177 V 2.1819023 Z M 10.254523,11.399658 c 0.0755,0.0029 0.07391,0.01272 -0.02855,0.154687 -0.170059,0.235635 -0.22381,0.38762 -0.2531331,0.715915 l -0.022158,0.244602 -0.2024125,0.173864 c -0.1114575,0.09567 -0.2160488,0.188778 -0.2160488,0.188778 0,0 -0.3948411,0.29426 -0.5433128,0.332398 l -0.071165,0.01832 0.026419,-0.18537 c 0.058632,-0.410264 0.2574966,-0.807919 0.5744255,-1.149721 0.1386187,-0.149495 0.5029277,-0.407233 0.6068037,-0.429117 0.03782,-0.008 0.06932,-0.02615 0.06988,-0.04048 5.45e-4,-0.01433 0.0271,-0.02509 0.05923,-0.02387 z m 1.225977,0.05625 c 0.185122,0.0027 0.352711,0.01317 0.372434,0.02301 0.06138,0.03062 0.055,0.225598 0.118038,0.35199 0.04204,0.08429 0.102185,0.167192 0.161929,0.234806 0.05974,0.06761 0.07969,0.143609 0.07969,0.143609 0,0 -0.519531,0.544665 -0.750846,0.729965 -0.193412,0.135809 -0.573421,0.276762 -0.619588,0.256952 -0.05191,-0.02225 -0.276806,-0.523655 -0.297446,-0.663072 -0.01089,-0.07354 0.006,-0.138449 0.06477,-0.249708 0.109438,-0.207271 0.143262,-0.299517 0.172583,-0.468324 0.03458,-0.199113 0.0576,-0.2309 0.220319,-0.302136 0.117996,-0.05165 0.1973,-0.06113 0.47812,-0.0571 z m 1.071288,1.0892 c 0.01177,0.0045 0.02038,0.01703 0.03196,0.03366 l 0.04645,0.06648 c 0,0 0.02381,0.02459 -0.147014,0.215626 -0.342393,0.38293 -0.356946,0.39733 -0.498567,0.555249 -0.141625,0.157921 -0.166539,0.180049 -0.324718,0.350289 l -0.220733,0.251431 -0.152981,-0.179831 c -0.08413,-0.09892 -0.152511,-0.197137 -0.151703,-0.21818 8.07e-4,-0.02105 0.06115,-0.06438 0.133805,-0.09631 0.210806,-0.09264 0.575211,-0.365867 0.935361,-0.700992 0.249948,-0.232581 0.312849,-0.290857 0.348151,-0.277417 z m -2.519765,0.496447 c 0.0215,-0.0023 0.06314,0.05336 0.0929,0.12358 0.05742,0.13549 0.09574,0.281649 0.0733,0.28082 -0.0074,-2.84e-4 -0.105406,0.02941 -0.2177533,0.06562 -0.1123476,0.03622 -0.2708055,0.08168 -0.3519904,0.100994 -0.4510444,0.107277 -0.613567,0.140739 -0.624716,0.128693 -0.00684,-0.0074 0.1200341,-0.09367 0.2816709,-0.191335 0.1616368,-0.09766 0.3869648,-0.251038 0.5007022,-0.340907 0.1137375,-0.08988 0.2243766,-0.165128 0.2458676,-0.167471 z m 3.613067,0.628971 c 0.02094,-0.0076 0.03207,7.63e-4 0.03111,0.02557 -6.11e-4,0.01566 -0.04436,0.04874 -0.09758,0.0733 l -0.09673,0.04432 0.07372,-0.07372 c 0.03809,-0.03824 0.06854,-0.06189 0.08949,-0.06946 z m -3.211834,0.188353 c 0.03806,0.01391 0.09456,0.0777 0.213492,0.231816 0.108117,0.140105 0.195867,0.268471 0.195169,0.285511 -7.86e-4,0.0202 -0.130557,0.02592 -0.373285,0.01662 -0.406645,-0.01558 -1.2902534,-0.108152 -1.2890534,-0.135086 4.145e-4,-0.0092 0.1037229,-0.04508 0.2296785,-0.07969 0.1259621,-0.03461 0.2425729,-0.07151 0.2590892,-0.08225 0.016501,-0.01073 0.1763989,-0.06275 0.3553937,-0.115483 0.178996,-0.05273 0.348064,-0.10683 0.375838,-0.120171 0.01019,-0.0049 0.02098,-0.0059 0.03366,-0.0013 z m 3.66434,0.120597 c 0.02777,0.0026 0.13355,0.06642 0.23522,0.141904 0.101674,0.07549 0.2897,0.193786 0.418034,0.26293 0.240631,0.129631 0.240805,0.129764 0.317474,0.390346 0.04711,0.160138 0.04343,0.719275 -0.0064,0.958379 -0.05478,0.262929 -0.138237,0.380441 -0.311496,0.43935 -0.177082,0.0602 -0.294085,0.05373 -0.583807,-0.03153 -0.392441,-0.115494 -0.789311,-0.343984 -1.184654,-0.682251 -0.218246,-0.186745 -0.58156,-0.549443 -0.57868,-0.57785 10e-4,-0.01009 0.07346,-0.08963 0.160651,-0.176846 0.165555,-0.165597 0.240347,-0.205904 0.558651,-0.299584 0.224791,-0.06615 0.459684,-0.169511 0.73038,-0.321314 0.106608,-0.05978 0.216835,-0.106197 0.244602,-0.103551 z m -7.9720936,0.354128 c 0.1420573,-0.0025 0.2671837,0.0014 0.3447469,0.0115 0.247722,0.03245 0.563189,0.09631 0.8220164,0.166195 l 0.2701728,0.07287 0.095879,0.210511 c 0.082075,0.180599 0.28898,0.537989 0.3392051,0.585945 0.00878,0.0084 0.054482,0.07618 0.1018444,0.150427 0.047363,0.07425 0.1325097,0.189546 0.1892017,0.2561 0.2391693,0.280798 0.2349585,0.271984 0.079686,0.167899 -0.4853423,-0.325329 -1.11032,-0.598469 -1.7262651,-0.753835 -0.5216475,-0.131583 -0.7279371,-0.16381 -1.1445962,-0.179829 -0.4916041,-0.01889 -0.8891724,0.01663 -1.1923123,0.106533 -0.2886963,0.08562 -0.7951366,0.351401 -0.9276812,0.487066 -0.035332,0.03617 -0.070739,0.0571 -0.070739,0.0571 0,0 0.00183,-0.05182 0.077129,-0.139347 0.1806119,-0.209938 0.4480771,-0.457045 0.4653351,-0.472579 0.017269,-0.01555 0.2763692,-0.201077 0.5450147,-0.348151 0.4379971,-0.23978 0.6142214,-0.288172 1.285628,-0.353277 0.1445271,-0.01401 0.3036853,-0.02268 0.4457425,-0.02514 z m 3.7127759,0.51519 c 0.069078,-0.0034 0.1792307,-0.0023 0.3438957,0.003 l 0.440201,0.01449 -0.165339,0.200285 -0.25141,-0.02088 c -0.2573652,-0.02143 -0.4676692,-0.09917 -0.4648984,-0.171734 5.237e-4,-0.01356 0.028505,-0.0217 0.097583,-0.02514 z m -1.2264139,0.223722 c 0.041417,0.0064 0.095879,0.03239 0.095879,0.03239 l 0.6387668,0.418033 c 0,0 0.073885,0.07564 0.073296,0.09077 -0.00135,0.03538 -0.2211477,0.25226 -0.2543983,0.250994 -0.013883,-5.01e-4 -0.065973,-0.05193 -0.1159084,-0.114204 -0.049935,-0.06228 -0.1521546,-0.189915 -0.2271258,-0.283373 -0.074975,-0.09347 -0.177625,-0.232187 -0.2279767,-0.308529 -0.052104,-0.07898 -0.023945,-0.09245 0.017472,-0.08608 z m 3.2803426,0.400994 c 0.0127,0.003 0.02307,0.01179 0.03111,0.02599 0.03386,0.05984 0.669508,0.557058 0.890198,0.696301 0.230529,0.145463 0.296179,0.200944 0.23522,0.198579 -0.05311,-0.002 -0.933463,-0.34603 -1.140756,-0.445739 -0.110574,-0.05319 -0.230617,-0.107009 -0.266333,-0.119318 -0.09114,-0.03138 -0.07959,-0.07176 0.06264,-0.225424 0.08962,-0.09683 0.149814,-0.139274 0.187923,-0.130398 z m -0.512637,0.713777 c 0.0781,0.01518 0.146554,0.04478 0.369467,0.152556 0.222893,0.107775 0.325656,0.153771 0.399292,0.175995 0.07362,0.02223 0.132845,0.04296 0.277416,0.09588 0.144566,0.05292 0.297773,0.106319 0.417183,0.15767 0.228042,0.09806 0.396521,0.142131 0.780671,0.204119 0.127913,0.02064 0.283984,0.04936 0.346863,0.06392 l 0.114204,0.02642 -0.07585,0.0456 c -0.322975,0.194385 -0.883785,0.280143 -1.290321,0.196874 -0.307983,-0.06309 -0.475088,-0.112948 -0.635777,-0.168324 -0.306391,-0.212272 -0.613458,-0.522062 -0.767472,-0.711224 0.01963,-0.03905 0.03742,-0.109784 0.0392,-0.157245 0.0018,-0.04746 0.01316,-0.08455 0.02514,-0.08225 z m 3.705576,0.724424 c 0.02909,0.0011 -0.02428,0.269431 -0.09204,0.462368 -0.08834,0.251519 -0.430404,0.708737 -0.714628,0.955827 -0.365125,0.31743 -0.400601,0.340448 -0.551844,0.354128 l -0.140196,0.01278 c 0,0 -0.159045,-0.15462 -0.239911,-0.230529 -0.09974,-0.09364 -0.20433,-0.182189 -0.302551,-0.277416 -0.04891,-0.04742 -0.0991,-0.09387 -0.142753,-0.146166 -0.02955,-0.0354 -0.08011,-0.112926 -0.08011,-0.112926 0,0 0.06669,-0.02403 0.1598,-0.03068 0.479452,-0.03424 0.976096,-0.191779 1.398995,-0.443605 0.184956,-0.110142 0.596919,-0.430862 0.625567,-0.475153 0.02864,-0.04427 0.07047,-0.06898 0.07969,-0.06861 z m -4.207173,0.04986 c 0.205821,0.204088 0.227912,0.192895 0.407801,0.378412 0.05011,0.05167 0.283439,0.283744 0.309795,0.300849 0.02636,0.01711 0.128912,0.10846 0.227976,0.202842 0.09907,0.09438 0.24373,0.230355 0.376274,0.346885 0.132553,0.116513 0.326747,0.296878 0.334514,0.311082 0.0078,0.0142 0.133837,0.111972 0.132527,0.145738 -0.0026,0.06809 -0.949455,-0.403241 -1.251548,-0.623014 -0.254311,-0.185017 -0.748729,-0.612127 -0.792169,-0.684367 -0.04074,-0.06775 -0.03793,-0.07649 0.05838,-0.174291 0.0557,-0.05656 0.112415,-0.12099 0.126135,-0.143183 -0.0071,-0.03745 0.07031,-0.06094 0.07031,-0.06094 z"
     id="path1"
     style="stroke-width:0.999999" /></svg>
