<?xml version="1.0" encoding="UTF-8" standalone="no"?>
<svg
   width="24"
   height="24"
   version="1.1"
   viewBox="0 0 26.181818 26.181818"
   xml:space="preserve"
   id="svg1"
   sodipodi:docname="sickle.svg"
   inkscape:version="1.3.2 (091e20e, 2023-11-25, custom)"
   xmlns:inkscape="http://www.inkscape.org/namespaces/inkscape"
   xmlns:sodipodi="http://sodipodi.sourceforge.net/DTD/sodipodi-0.dtd"
   xmlns="http://www.w3.org/2000/svg"
   xmlns:svg="http://www.w3.org/2000/svg"><defs
     id="defs1" /><sodipodi:namedview
     id="namedview1"
     pagecolor="#ffffff"
     bordercolor="#111111"
     borderopacity="1"
     inkscape:showpageshadow="0"
     inkscape:pageopacity="0"
     inkscape:pagecheckerboard="1"
     inkscape:deskcolor="#d1d1d1"
     inkscape:zoom="4.9431818"
     inkscape:cx="23.567816"
     inkscape:cy="2.7310345"
     inkscape:window-width="1366"
     inkscape:window-height="697"
     inkscape:window-x="-8"
     inkscape:window-y="-8"
     inkscape:window-maximized="1"
     inkscape:current-layer="svg1" /><path
     d="M 20.917242,3.8679943 C 20.094775,3.2265545 19.912482,3.1074041 19.444956,2.9050382 18.047552,2.3002098 16.769364,2.0888329 15.289638,2.2180853 13.263711,2.3950719 11.461815,3.3771016 10.175837,5.004734 9.3401915,6.062382 8.807822,7.1896307 8.5081678,8.5347364 8.0625047,10.535246 8.365879,12.824456 9.3358496,14.78615 l 0.2099238,0.424849 -0.2563665,0.257413 c -0.1633785,0.164243 -0.4760343,0.27908 -0.5257367,0.297015 A 1.0799464,1.0800773 0 0 0 8.0723099,16.102914 L 2.467594,22.188071 a 1.0799464,1.0800773 0 0 0 0.062447,1.526286 1.0799464,1.0800773 0 0 0 1.5260894,-0.06245 l 5.6049342,-6.085594 a 1.0799464,1.0800773 0 0 0 0.2849704,-0.75003 c -0.00116,-0.08346 0.011614,-0.439335 0.323633,-0.824256 l 0.401568,-0.49602 0.06996,-0.933065 c 0.05406,-0.720382 0.03568,-1.21566 -0.08101,-2.171699 -0.165888,-1.359157 -0.156523,-1.969898 0.04446,-2.9574873 0.213282,-1.0480261 0.594007,-1.8700569 1.262371,-2.725339 1.578627,-2.0202549 4.276628,-2.7421391 6.948294,-1.8587986 0.741542,0.2451955 1.31936,0.5622608 2.003542,1.0995394 1.476692,1.1596054 2.480972,2.7604666 2.892904,4.6126325 0.07022,0.315581 0.143556,0.554144 0.162613,0.529795 0.06901,-0.0882 -0.01134,-1.594425 -0.12214,-2.2902799 C 23.672441,7.6722236 23.314667,6.7072385 22.74789,5.821127 22.161215,4.9039678 21.934718,4.6619361 20.916779,3.868051 Z"
     id="path1"
     style="stroke-width:0.999999" /></svg>
