<?xml version="1.0" encoding="UTF-8" standalone="no"?>
<svg
   width="24"
   height="24"
   version="1.1"
   viewBox="0 0 26.181818 26.181818"
   id="svg1"
   sodipodi:docname="spear.svg"
   inkscape:version="1.3.2 (091e20e, 2023-11-25, custom)"
   xmlns:inkscape="http://www.inkscape.org/namespaces/inkscape"
   xmlns:sodipodi="http://sodipodi.sourceforge.net/DTD/sodipodi-0.dtd"
   xmlns="http://www.w3.org/2000/svg"
   xmlns:svg="http://www.w3.org/2000/svg">
  <defs
     id="defs1" />
  <sodipodi:namedview
     id="namedview1"
     pagecolor="#ffffff"
     bordercolor="#111111"
     borderopacity="1"
     inkscape:showpageshadow="0"
     inkscape:pageopacity="0"
     inkscape:pagecheckerboard="1"
     inkscape:deskcolor="#d1d1d1"
     inkscape:zoom="1.7476787"
     inkscape:cx="-56.360474"
     inkscape:cy="67.804225"
     inkscape:window-width="1366"
     inkscape:window-height="697"
     inkscape:window-x="-8"
     inkscape:window-y="-8"
     inkscape:window-maximized="1"
     inkscape:current-layer="svg1" />
  <g
     id="g5"
     transform="matrix(1.1,0,0,1.1,-2.509091,-0.10907456)"
     style="stroke-width:0.909091">
    <path
       id="path1"
       style="stroke-width:0.909091"
       d="m 9.1491478,18.051136 -1.018466,-1.018465 -4.647017,4.647017 v 0.0021 A 0.72000861,0.72000861 0 0 0 3.2727273,22.18889 0.72000861,0.72000861 0 0 0 3.9928977,22.909061 0.72000861,0.72000861 0 0 0 4.5,22.698123 h 0.00213 z" />
    <path
       id="path5"
       style="stroke-width:0.909091"
       d="m 13.640625,11.522727 -7.6917614,7.691762 1.0184659,1.018465 7.6917615,-7.691761 -0.496449,-0.528409 z" />
    <path
       id="path4"
       style="stroke-width:0.909091"
       d="m 25.090909,1.0909091 -7.491477,4.2613636 -0.568892,2.3416193 -3.09375,2.793324 0.909801,0.848011 v 0.0021 l 0.848011,0.90767 2.793324,-3.0937497 2.341619,-0.568892 z" />
  </g>
</svg>
