<?xml version="1.0" encoding="UTF-8" standalone="no"?>
<svg
   width="24"
   height="24"
   version="1.1"
   viewBox="0 0 26.181818 26.181818"
   xml:space="preserve"
   id="svg1"
   sodipodi:docname="staff.svg"
   inkscape:version="1.3.2 (091e20e, 2023-11-25, custom)"
   xmlns:inkscape="http://www.inkscape.org/namespaces/inkscape"
   xmlns:sodipodi="http://sodipodi.sourceforge.net/DTD/sodipodi-0.dtd"
   xmlns="http://www.w3.org/2000/svg"
   xmlns:svg="http://www.w3.org/2000/svg"><defs
     id="defs1" /><sodipodi:namedview
     id="namedview1"
     pagecolor="#ffffff"
     bordercolor="#111111"
     borderopacity="1"
     inkscape:showpageshadow="0"
     inkscape:pageopacity="0"
     inkscape:pagecheckerboard="1"
     inkscape:deskcolor="#d1d1d1"
     inkscape:zoom="9.8863636"
     inkscape:cx="17.448276"
     inkscape:cy="1.7701149"
     inkscape:window-width="1366"
     inkscape:window-height="697"
     inkscape:window-x="-8"
     inkscape:window-y="-8"
     inkscape:window-maximized="1"
     inkscape:current-layer="svg1" /><g
     id="g3"
     transform="matrix(1.0000305,0,0,1.0000305,1.090876,-1.090935)"
     style="stroke-width:0.999969"><path
       id="path1"
       style="stroke-width:0.999969"
       d="m 12.581676,12.581676 -5.6505681,5.650568 a 0.23999741,0.23999741 0 0 0 -0.3387784,0 l -0.509233,0.509233 -4.9218749,4.921875 a 0.23999741,0.23999741 0 0 0 0,0.338779 l 1.0184659,1.018465 a 0.23999741,0.23999741 0 0 0 0.3387784,0 l 4.921875,-4.921875 0.5092329,-0.509232 a 0.23999741,0.23999741 0 0 0 0,-0.338779 l 5.6505682,-5.650568 z" /><path
       id="path2"
       style="stroke-width:0.999969"
       d="m 10.399858,14.763494 1.018466,1.018466 5.650568,-5.650568 a 0.23999741,0.23999741 0 0 0 0.338779,0 l 0.509232,-0.5092332 4.921875,-4.9218747 a 0.23999741,0.23999741 0 0 0 0,-0.3387784 L 21.820313,3.3430398 a 0.23999741,0.23999741 0 0 0 -0.232245,-0.06179 0.23999741,0.23999741 0 0 0 -0.106534,0.06179 l -4.921875,4.921875 -0.509233,0.509233 a 0.23999741,0.23999741 0 0 0 0,0.338778 z" /></g></svg>
