<?xml version="1.0" encoding="UTF-8" standalone="no"?>
<svg
   width="24"
   height="24"
   version="1.1"
   viewBox="0 0 24 24"
   id="svg1"
   sodipodi:docname="sword.svg"
   inkscape:version="1.3.2 (091e20e, 2023-11-25, custom)"
   xmlns:inkscape="http://www.inkscape.org/namespaces/inkscape"
   xmlns:sodipodi="http://sodipodi.sourceforge.net/DTD/sodipodi-0.dtd"
   xmlns="http://www.w3.org/2000/svg"
   xmlns:svg="http://www.w3.org/2000/svg">
  <defs
     id="defs1" />
  <sodipodi:namedview
     id="namedview1"
     pagecolor="#ffffff"
     bordercolor="#111111"
     borderopacity="1"
     inkscape:showpageshadow="0"
     inkscape:pageopacity="0"
     inkscape:pagecheckerboard="1"
     inkscape:deskcolor="#d1d1d1"
     inkscape:zoom="9.0625"
     inkscape:cx="17.048276"
     inkscape:cy="22.786207"
     inkscape:window-width="1366"
     inkscape:window-height="697"
     inkscape:window-x="-8"
     inkscape:window-y="-8"
     inkscape:window-maximized="1"
     inkscape:current-layer="svg1" />
  <path
     id="path1"
     style="stroke-width:1"
     d="M 22,1.9999999 19.272135,3.0004339 13.358506,8.914062 8.9140623,13.358506 7.1801215,15.090277 5.7065972,13.601562 a 0.61110621,0.61110621 0 0 0 -0.4318577,-0.182291 0.61110621,0.61110621 0 0 0 -0.4318576,0.177951 0.61110621,0.61110621 0 0 0 -0.00651,0.863715 l 1.7816827,1.799045 -2.7300347,2.727864 A 1.5277655,1.5277655 0 0 0 3.5277777,18.944444 1.5277655,1.5277655 0 0 0 2,20.472222 1.5277655,1.5277655 0 0 0 3.5277777,22 1.5277655,1.5277655 0 0 0 5.0555555,20.472222 1.5277655,1.5277655 0 0 0 5.0121527,20.111978 l 2.721354,-2.723524 1.7469619,1.766493 a 0.61110621,0.61110621 0 0 0 0.8658854,0.0044 0.61110621,0.61110621 0 0 0 0.0044,-0.863715 l -1.4518193,-1.46705 1.7426213,-1.742621 4.444445,-4.444445 5.913627,-5.9136283 z" />
</svg>
