<?xml version="1.0" encoding="UTF-8" standalone="no"?>
<svg
   viewBox="0 0 24 24"
   version="1.1"
   id="svg1"
   sodipodi:docname="dex.svg"
   xml:space="preserve"
   inkscape:version="1.3.2 (091e20e, 2023-11-25, custom)"
   xmlns:inkscape="http://www.inkscape.org/namespaces/inkscape"
   xmlns:sodipodi="http://sodipodi.sourceforge.net/DTD/sodipodi-0.dtd"
   xmlns="http://www.w3.org/2000/svg"
   xmlns:svg="http://www.w3.org/2000/svg"><defs
     id="defs1" /><sodipodi:namedview
     id="namedview1"
     pagecolor="#ffffff"
     bordercolor="#666666"
     borderopacity="1.0"
     inkscape:showpageshadow="false"
     inkscape:pageopacity="0.0"
     inkscape:pagecheckerboard="true"
     inkscape:deskcolor="#d1d1d1"
     inkscape:zoom="5.9330678"
     inkscape:cx="7.4160622"
     inkscape:cy="4.6350389"
     inkscape:window-width="1360"
     inkscape:window-height="715"
     inkscape:window-x="-8"
     inkscape:window-y="-8"
     inkscape:window-maximized="1"
     inkscape:current-layer="svg1" /><path
     d="m 19.326781,23 3.654696,-8.500932 -2.66993,0.614686 1.90978,-8.0992079 c 0,0 0.828127,-2.0280565 -1.210663,-2.4220336 C 18.990475,4.1831852 1.4221593,1.0000004 1.4221593,1.0000004 c 0,0 -0.5676231,0.1306811 -0.3566216,1.720267 0.1161615,0.5045563 0.3916981,5.4995082 12.1666773,5.0576933 -5.8094776,1.0164949 -9.1969221,0.8223259 -9.1969221,0.8223259 0,0 -0.1969012,2.4140294 4.3419858,3.8595174 2.1548643,-0.496104 5.8629413,-1.216972 5.8280813,-1.031847 -0.06321,0.302339 -5.1000543,1.838281 -5.1000543,1.838281 0,0 -2.1413987,1.035368 3.8483913,3.109798 1.089576,0.501823 3.71124,-2.149456 3.71124,-2.149456 0,0 -0.28855,2.977495 0.08866,3.65439 0.374793,0.666385 2.448966,-0.132134 2.448966,-0.132134 z"
     id="path1"
     style="stroke-width:1" /></svg>
