<?xml version="1.0" encoding="UTF-8"?>
<svg id="svg1" version="1.1" viewBox="0 0 24 24" xml:space="preserve" xmlns="http://www.w3.org/2000/svg"><path id="path1" d="m19.327 23 3.6547-8.5009-2.6699 0.61469 1.9098-8.0992s0.82813-2.0281-1.2107-2.422c-2.0202-0.40933-19.589-3.5925-19.589-3.5925s-0.56762 0.13068-0.35662 1.7203c0.11616 0.50456 0.3917 5.4995 12.167 5.0577-5.8095 1.0165-9.1969 0.82233-9.1969 0.82233s-0.1969 2.414 4.342 3.8595c2.1549-0.4961 5.8629-1.217 5.8281-1.0318-0.06321 0.30234-5.1001 1.8383-5.1001 1.8383s-2.1414 1.0354 3.8484 3.1098c1.0896 0.50182 3.7112-2.1495 3.7112-2.1495s-0.28855 2.9775 0.08866 3.6544c0.37479 0.66638 2.449-0.13213 2.449-0.13213z"/></svg>
