<?xml version="1.0" encoding="UTF-8" standalone="no"?>
<svg
   id="svg1"
   version="1.1"
   viewBox="0 0 24 24"
   xmlns="http://www.w3.org/2000/svg"
   xmlns:svg="http://www.w3.org/2000/svg">
  <defs
     id="defs1" />
  <!--! Font Awesome Free 6.5.2 by @fontawesome - https://fontawesome.com License - https://fontawesome.com/license/free (Icons: CC BY 4.0, Fonts: SIL OFL 1.1, Code: MIT License) Copyright 2024 Fonticons, Inc.-->
  <path
     id="path1"
     d="m15.658 2.0416-10.386 0.012245c0.38231 0.53256 0.6124 1.1923 0.61312 1.9082l0.00783 6.4307h0.00196l0.00196 2.0898h-0.00392l0.00588 5.6613c0.00141 1.4041 1.097 2.5444 2.4447 2.5429 1.3476-0.0016 2.4422-1.145 2.4407-2.549v-0.21021c-0.0012-1.2887 1.002-2.3375 2.239-2.3388l6.3115-0.0061-0.0039-2.8899h0.0039l-0.0039-3.398-0.0039-3.4388c-0.002201-2.1081-1.6456-3.8167-3.669-3.8144zm-12.829 0.014286c-1.0117 0.0011169-1.8307 0.85825-1.8296 1.9123l0.00196 1.9082c7.199e-4 0.70402 0.5466 1.2722 1.2223 1.2715l2.4427-0.00204-0.00196-3.1817c-0.0010714-1.054-0.82377-1.9093-1.8355-1.9082zm19.559 14.796-9.3634 0.01021c-0.5612 5.97e-4 -1.0192 0.47462-1.0186 1.0633v0.21021c0.0021 2.1081-1.6377 3.8203-3.6611 3.8225l10.384-0.01021c2.3632-0.0026 4.2728-1.9972 4.2703-4.4593-3.68e-4 -0.35002-0.2752-0.63712-0.61116-0.63675z" />
</svg>
