<?xml version="1.0" encoding="UTF-8" standalone="no"?>
<svg
   viewBox="0 0 24 24"
   version="1.1"
   id="svg1"
   sodipodi:docname="feat-advanced.svg"
   inkscape:version="1.3.2 (091e20e, 2023-11-25, custom)"
   xml:space="preserve"
   xmlns:inkscape="http://www.inkscape.org/namespaces/inkscape"
   xmlns:sodipodi="http://sodipodi.sourceforge.net/DTD/sodipodi-0.dtd"
   xmlns="http://www.w3.org/2000/svg"
   xmlns:svg="http://www.w3.org/2000/svg"><defs
     id="defs1" /><sodipodi:namedview
     id="namedview1"
     pagecolor="#ffffff"
     bordercolor="#111111"
     borderopacity="1"
     inkscape:showpageshadow="0"
     inkscape:pageopacity="0"
     inkscape:pagecheckerboard="1"
     inkscape:deskcolor="#d1d1d1"
     inkscape:zoom="15.291184"
     inkscape:cx="6.9647975"
     inkscape:cy="10.038464"
     inkscape:window-width="1366"
     inkscape:window-height="697"
     inkscape:window-x="-8"
     inkscape:window-y="-8"
     inkscape:window-maximized="1"
     inkscape:current-layer="svg1" /><path
     id="path1"
     d="M 7 2 C 5.9000022 2 5 2.9000022 5 4 L 5 20 C 5 21.099998 5.9000022 22 7 22 L 17 22 C 18.099998 22 19 21.099998 19 20 L 19 4 C 19 2.9000022 18.099998 2 17 2 L 7 2 z M 12 4.8574219 A 1.4285714 1.4285714 0 0 1 13.427734 6.2851562 C 13.427734 6.6137274 13.313895 6.9362167 13.099609 7.1933594 C 13.713895 7.4290734 14.27076 7.7850451 14.742188 8.2421875 L 11.492188 11.492188 L 12.507812 12.507812 L 15.685547 9.328125 A 6.3857143 6.3857143 0 0 1 17 12.714844 C 17 14.68627 14.764283 16.285156 12 16.285156 C 9.2357173 16.285156 7 14.68627 7 12.714844 C 7 11.014845 8.6646787 7.9933586 10.900391 7.1933594 C 10.686105 6.9362167 10.572266 6.6137274 10.572266 6.2851562 A 1.4285714 1.4285714 0 0 1 12 4.8574219 z M 7 17.714844 L 17 17.714844 L 17 19.142578 L 7 19.142578 L 7 17.714844 z " /></svg>
