<?xml version="1.0" encoding="UTF-8" standalone="no"?>
<!-- Created with Inkscape (http://www.inkscape.org/) -->

<svg
   id="svg1"
   version="1.1"
   viewBox="0 0 24 24"
   xml:space="preserve"
   sodipodi:docname="dash.svg"
   inkscape:version="1.4 (86a8ad7, 2024-10-11)"
   xmlns:inkscape="http://www.inkscape.org/namespaces/inkscape"
   xmlns:sodipodi="http://sodipodi.sourceforge.net/DTD/sodipodi-0.dtd"
   xmlns="http://www.w3.org/2000/svg"
   xmlns:svg="http://www.w3.org/2000/svg"><defs
     id="defs1"><linearGradient
       id="swatch1"
       inkscape:swatch="solid"><stop
         style="stop-color:#000000;stop-opacity:1;"
         offset="0"
         id="stop1" /></linearGradient></defs><sodipodi:namedview
     id="namedview1"
     pagecolor="#ffffff"
     bordercolor="#111111"
     borderopacity="1"
     inkscape:showpageshadow="0"
     inkscape:pageopacity="0"
     inkscape:pagecheckerboard="1"
     inkscape:deskcolor="#d1d1d1"
     inkscape:zoom="4.203125"
     inkscape:cx="-50.795539"
     inkscape:cy="17.011152"
     inkscape:window-width="1920"
     inkscape:window-height="1009"
     inkscape:window-x="-8"
     inkscape:window-y="-8"
     inkscape:window-maximized="1"
     inkscape:current-layer="svg1" /><g
     id="g3"
     transform="matrix(1.0157162,0,0,1.0157162,-0.34095209,-0.29714827)"><path
       style="stroke-width:0.848082"
       d="M 10.83921,5.7739054 10.775,5.6542053 11.039805,5.0905794 c 0.173156,-0.3685547 0.267073,-0.6106064 0.271358,-0.6993671 0.0036,-0.074657 -0.01384,-0.3620201 -0.03877,-0.6385827 -0.05164,-0.5729384 -0.03946,-0.6566764 0.106794,-0.734349 0.104232,-0.055358 0.133676,-0.0481 3.939453,0.9716537 l 3.834434,1.0274339 0.06899,0.1195111 c 0.03795,0.065727 0.06225,0.1447294 0.05395,0.1755664 -0.0082,0.030824 -0.164713,0.269139 -0.347678,0.5295807 -0.207107,0.2948068 -0.348241,0.5340406 -0.373939,0.6338556 -0.02266,0.088187 -0.05875,0.3871456 -0.08012,0.6643702 -0.04089,0.5305763 -0.07854,0.638911 -0.234729,0.6754151 -0.05956,0.013921 -1.230135,-0.2859627 -3.711578,-0.9508629 L 10.903427,5.8936019 Z"
       id="path3" /><path
       style="stroke-width:0.830195"
       d="M 7.9210871,14.491864 C 7.8148391,14.410774 7.7046371,14.314591 7.6761934,14.278134 7.5558667,14.123917 7.4686706,13.96637 7.4800794,13.92379 7.4868194,13.89865 7.624774,13.87437 7.7866464,13.86976 8.1860595,13.85844 9.083306,13.67838 9.2868121,13.568701 9.506717,13.450194 9.5647819,13.265884 9.4466784,13.061318 9.3346046,12.867195 9.2211755,12.849367 8.7260326,12.94805 7.5954081,13.173388 6.602354,13.106349 5.9996963,12.764 5.3738419,12.408478 4.9526214,11.697559 4.9529407,10.99733 c 1.458e-4,-0.309407 0.033703,-0.3191 0.5594291,-0.161608 0.8718104,0.261164 2.4022429,0.496378 2.7013121,0.41516 0.1444476,-0.03922 0.2776416,-0.203829 0.2888252,-0.356932 0.00869,-0.118907 -0.1017712,-0.31141 -0.2082498,-0.362933 -0.045255,-0.0219 -0.2392327,-0.05748 -0.4310871,-0.07901 C 7.6713251,10.430454 7.0875887,10.309608 6.5659763,10.183473 5.2244697,9.859049 4.6876681,9.6363223 4.1753716,9.1915485 3.2475602,8.3860324 2.9570836,6.983859 3.581928,6.3269065 3.667758,6.2366695 3.7714388,6.1528822 3.8123348,6.1407152 c 0.08947,-0.026624 -0.00692,-0.070049 2.6170669,1.179238 1.110312,0.5286236 2.4203865,1.1522398 2.9112776,1.3858128 0.9748727,0.4638595 1.1453357,0.5820712 1.2716297,0.8818236 0.113838,0.2701948 1.377491,5.0557554 1.370564,5.1904434 -0.0078,0.151717 -0.143162,0.396136 -0.283605,0.512101 -0.220143,0.181772 -0.637329,0.171271 -0.888067,-0.02235 -0.06086,-0.047 -0.148881,-0.173036 -0.195602,-0.280083 -0.150115,-0.34394 -0.226592,-0.462143 -0.314193,-0.485616 -0.04712,-0.01262 -0.3476129,0.04536 -0.6677534,0.128887 -0.32013,0.08356 -0.6646752,0.154359 -0.765625,0.157448 -0.2963138,0.009 -0.7206772,-0.123857 -0.9469375,-0.296553 z"
       id="path2" /><path
       style="stroke-width:0.854914"
       d="M 8.7050859,18.109689 C 8.5002154,17.925107 8.4810906,17.802975 8.5796287,17.308513 8.7205048,16.601611 8.831779,16.20813 8.9082165,16.146619 c 0.037495,-0.03018 0.2073095,-0.05429 0.3773776,-0.05358 0.1700642,7.04e-4 0.4835049,-0.03533 0.6965316,-0.08007 0.2130283,-0.04474 0.4090153,-0.07553 0.4355273,-0.06843 0.02652,0.0071 0.09601,0.07451 0.154422,0.149796 0.652936,0.841411 1.840716,0.878624 2.52002,0.07895 0.175605,-0.206719 0.202601,-0.261853 0.291652,-0.595645 0.08365,-0.313522 0.09186,-0.403215 0.05566,-0.607403 -0.07347,-0.414397 -1.3535,-5.1435238 -1.464152,-5.4094092 -0.186027,-0.4469784 -0.51293,-0.7600793 -1.12531,-1.0778025 -0.2326,-0.1206809 -0.244907,-0.2207415 -0.103334,-0.8401442 0.11276,-0.493331 0.130916,-0.5426933 0.225772,-0.6136821 L 11.075534,6.952 14.221481,7.794954 c 3.122702,0.8367254 3.146321,0.8436828 3.196514,0.9415817 0.04929,0.096158 0.03083,0.159209 -0.737918,2.5181403 -0.579226,1.777386 -0.783958,2.446588 -0.771423,2.521526 0.01399,0.08377 0.395895,0.391032 2.135043,1.717873 1.473728,1.124346 2.179507,1.686297 2.320257,1.847417 0.312501,0.357727 0.531657,0.807016 0.623796,1.278829 0.11134,0.570143 0.08137,0.902636 -0.155514,1.725151 -0.211269,0.733567 -0.25358,0.798986 -0.558767,0.863955 -0.14158,0.03016 -0.498309,-0.06098 -5.802327,-1.482189 -5.304025,-1.421207 -5.6585228,-1.52062 -5.766063,-1.61755 z"
       id="path1" /></g></svg>
