<?xml version="1.0" encoding="UTF-8" standalone="no"?>
<svg
   viewBox="0 0 24 24"
   version="1.1"
   id="svg1"
   sodipodi:docname="u-strike.svg"
   width="24"
   height="24"
   inkscape:version="1.4 (86a8ad7, 2024-10-11)"
   xmlns:inkscape="http://www.inkscape.org/namespaces/inkscape"
   xmlns:sodipodi="http://sodipodi.sourceforge.net/DTD/sodipodi-0.dtd"
   xmlns="http://www.w3.org/2000/svg"
   xmlns:svg="http://www.w3.org/2000/svg">
  <defs
     id="defs1" />
  <sodipodi:namedview
     id="namedview1"
     pagecolor="#ffffff"
     bordercolor="#111111"
     borderopacity="1"
     inkscape:showpageshadow="0"
     inkscape:pageopacity="0"
     inkscape:pagecheckerboard="1"
     inkscape:deskcolor="#d1d1d1"
     inkscape:zoom="6.3046875"
     inkscape:cx="-6.7410161"
     inkscape:cy="24.664188"
     inkscape:window-width="1920"
     inkscape:window-height="1009"
     inkscape:window-x="-8"
     inkscape:window-y="-8"
     inkscape:window-maximized="1"
     inkscape:current-layer="svg1" />
  <!--! Font Awesome Free 6.7.2 by @fontawesome - https://fontawesome.com License - https://fontawesome.com/license/free (Icons: CC BY 4.0, Fonts: SIL OFL 1.1, Code: MIT License) Copyright 2024 Fonticons, Inc.-->
  <path
     d="M 5.2454733,5.4142142 C 4.8462274,5.9125523 4.9262848,6.6377195 5.424623,7.0369657 L 8.5779491,9.5632692 10.021552,7.7613677 6.8682245,5.2350646 C 6.3698863,4.8358186 5.6447192,4.915876 5.2454733,5.4142142 m 4.689104,-2.1602 C 9.4362391,2.854768 8.7110711,2.9348258 8.3118261,3.4331638 7.9125801,3.9315018 7.9926376,4.6566688 8.4909758,5.0559152 l 2.2523762,1.8045024 1.4436,-1.8019012 z M 5.6037717,8.6597169 C 5.1054335,8.2604708 4.3802664,8.3405285 3.9810205,8.8388669 3.5817745,9.3372038 3.661832,10.062371 4.1601702,10.461618 l 2.7028513,2.165403 c 0.4983382,0.399246 1.2235053,0.319188 1.6227512,-0.17915 C 8.8850196,11.949535 8.8049622,11.224365 8.306624,10.82512 Z M 5.2402703,12.80617 C 4.7419321,12.406925 4.016765,12.486983 3.6175191,12.985319 c -0.399246,0.498339 -0.3191885,1.223506 0.1791497,1.622753 l 1.8019009,1.443601 c 0.4983382,0.399247 1.2235052,0.319189 1.6227512,-0.179148 0.3992459,-0.498339 0.3191885,-1.223506 -0.1791497,-1.622752 z m 4.6430168,-0.717899 -0.016889,-0.01353 c -0.059985,0.386463 -0.2157607,0.76553 -0.4796689,1.09494 -0.2977432,0.371641 -0.6855477,0.624904 -1.1070748,0.758699 0.5048127,0.806598 0.4719431,1.880437 -0.1573781,2.665954 -0.2639082,0.329409 -0.5970504,0.566369 -0.9639306,0.706967 l 0.2421299,0.193983 c 1.4724858,1.17969 3.3478424,1.521874 5.0473984,1.085299 l 2.702851,2.165402 c 0.498336,0.399247 1.223506,0.31919 1.622751,-0.179148 l 3.609005,-4.504753 c 0.399246,-0.498338 0.319188,-1.223505 -0.179149,-1.622751 l -2.207328,-1.768418 c 0.167798,-0.66527 0.21956,-1.358793 0.142861,-2.053534 l -0.06495,-0.588249 C 17.93956,8.8120692 17.326227,7.6966461 16.371781,6.9319885 L 15.611606,6.3229687 C 14.617744,5.5267319 13.16234,5.6874069 12.366101,6.6812677 l -1.98495,2.477614 C 9.8826566,9.7811 9.9828687,10.688826 10.605087,11.187321 c 0.622219,0.498493 1.529945,0.398281 2.028439,-0.223939 l 1.263152,-1.576661 c 0.198495,-0.2477618 0.563615,-0.2880703 0.811376,-0.089575 0.24776,0.1984948 0.28807,0.5636138 0.08958,0.811376 l -1.263151,1.576663 c -0.897742,1.120555 -2.530633,1.300826 -3.6511911,0.403086"
     id="path1"
     style="stroke-width:0.036076" />
</svg>
