<?xml version="1.0" encoding="UTF-8"?>
<svg id="svg1" version="1.1" viewBox="0 0 24 24" xmlns="http://www.w3.org/2000/svg">
 <path id="path1" d="m17.8 21.702-11.9-11.9-2.12 2.12-1.41-1.41 2.47-2.47-3.18-3.18c-0.39-0.39-0.39-1.02 0-1.41l0.71-0.71a0.996 0.996 0 0 1 1.41 0l3.22 3.17 2.44-2.47 1.41 1.41-2.12 2.12 11.9 11.9v2.83zm-9.69-7.56-4.74 4.74v2.82h2.83l4.74-4.74zm4.95-5 2.83 2.87 2.21-2.21 2.12 2.12 1.41-1.41-2.47-2.47 3.18-3.19a0.996 0.996 0 0 0 0-1.41l-0.71-0.71c-0.39-0.39-1.02-0.39-1.41 0l-3.22 3.18-2.44-2.47-1.41 1.41 2.12 2.12z"/>
</svg>
