<?xml version="1.0" encoding="UTF-8" standalone="no"?>
<svg
   viewBox="0 0 24 24"
   version="1.1"
   id="svg1"
   sodipodi:docname="martial.svg"
   inkscape:version="1.3.2 (091e20e, 2023-11-25, custom)"
   xmlns:inkscape="http://www.inkscape.org/namespaces/inkscape"
   xmlns:sodipodi="http://sodipodi.sourceforge.net/DTD/sodipodi-0.dtd"
   xmlns="http://www.w3.org/2000/svg"
   xmlns:svg="http://www.w3.org/2000/svg">
  <defs
     id="defs1" />
  <sodipodi:namedview
     id="namedview1"
     pagecolor="#ffffff"
     bordercolor="#111111"
     borderopacity="1"
     inkscape:showpageshadow="0"
     inkscape:pageopacity="0"
     inkscape:pagecheckerboard="1"
     inkscape:deskcolor="#d1d1d1"
     inkscape:zoom="2.703125"
     inkscape:cx="-78.797688"
     inkscape:cy="4.6242774"
     inkscape:window-width="1366"
     inkscape:window-height="697"
     inkscape:window-x="-8"
     inkscape:window-y="-8"
     inkscape:window-maximized="1"
     inkscape:current-layer="svg1" />
  <path
     d="m 17.800056,21.7025 -11.9,-11.9 -2.12,2.12 -1.41,-1.41 2.47,-2.47 -3.18,-3.18 c -0.39,-0.39 -0.39,-1.02 0,-1.41 l 0.71,-0.71 a 0.996,0.996 0 0 1 1.41,0 l 3.22,3.17 2.44,-2.47 1.41,1.41 -2.12,2.12 11.9,11.9 v 2.83 z m -9.69,-7.56 -4.74,4.74 v 2.82 h 2.83 l 4.74,-4.74 z m 4.95,-5 2.83,2.87 2.21,-2.21 2.12,2.12 1.41,-1.41 -2.47,-2.47 3.18,-3.19 a 0.996,0.996 0 0 0 0,-1.41 l -0.71,-0.71 c -0.39,-0.39 -1.02,-0.39 -1.41,0 l -3.22,3.18 -2.44,-2.47 -1.41,1.41 2.12,2.12 z"
     id="path1" />
</svg>
