<?xml version="1.0" encoding="UTF-8" standalone="no"?>
<svg
   viewBox="0 0 24 24"
   version="1.1"
   id="svg1"
   sodipodi:docname="simple.svg"
   xml:space="preserve"
   inkscape:version="1.3.2 (091e20e, 2023-11-25, custom)"
   xmlns:inkscape="http://www.inkscape.org/namespaces/inkscape"
   xmlns:sodipodi="http://sodipodi.sourceforge.net/DTD/sodipodi-0.dtd"
   xmlns="http://www.w3.org/2000/svg"
   xmlns:svg="http://www.w3.org/2000/svg"><defs
     id="defs1" /><sodipodi:namedview
     id="namedview1"
     pagecolor="#ffffff"
     bordercolor="#111111"
     borderopacity="1"
     inkscape:showpageshadow="0"
     inkscape:pageopacity="0"
     inkscape:pagecheckerboard="1"
     inkscape:deskcolor="#d1d1d1"
     inkscape:zoom="5.6568543"
     inkscape:cx="-4.5961941"
     inkscape:cy="36.681164"
     inkscape:window-width="1366"
     inkscape:window-height="697"
     inkscape:window-x="-8"
     inkscape:window-y="-8"
     inkscape:window-maximized="1"
     inkscape:current-layer="svg1" /><g
     id="g2"
     transform="matrix(0.92198994,0,0,0.92198994,3.3095219,0.97341153)"
     style="stroke-width:1.08461"><path
       id="path1"
       d="m 5.3524972,2.562607 c -0.769999,2e-7 -1.536954,0.2975791 -2.126953,0.8925781 l -3.59960599,3.6093785 1.41991799,1.41016 -2.839851,3e-7 -0.710937,0.7109372 3.550782,3.5898429 0.708985,-0.710937 V 9.185661 l 1.470704,1.41992 0.708986,-0.710937 3.679689,3.679688 2.130858,-2.130859 L 6.0653842,7.7637848 6.7743722,7.0645686 5.3544462,5.6348847 7.4950722,3.4551976 C 6.8950762,2.8601859 6.1224962,2.5626074 5.3524972,2.562607 Z m 7.2207028,11.708986 -2.130858,2.130858 4.921875,4.921875 2.130871,-2.128892 z"
       style="stroke-width:1.08461" /><path
       id="path1-5"
       style="stroke-width:1.08461"
       d="M 17.065003,5.5288442 16.433707,6.1628166 15.652331,5.3814459 15.069263,5.9645155 C 13.349091,4.5607151 11.411207,3.4343986 9.3350995,2.6434991 l -0.820471,1.770078 c 1.7300925,0.909535 3.3211845,2.0063523 4.8041275,3.3014504 L 12.824386,8.2093971 13.305704,8.6907227 2.6435,19.368586 4.6314133,21.356501 15.310584,10.692987 l 0.481323,0.481321 0.493066,-0.493065 c 1.2951,1.482944 2.391914,3.074035 3.301447,4.80413 L 21.3565,14.6649 C 20.565592,12.588787 19.439331,10.65094 18.035483,8.9307332 L 18.617246,8.3489684 17.835911,7.5676292 18.468547,6.9349928 Z" /></g></svg>
