<?xml version="1.0" encoding="UTF-8"?>
<svg id="svg1" version="1.1" viewBox="0 0 24 24" xml:space="preserve" xmlns="http://www.w3.org/2000/svg"><g id="g2" transform="matrix(.92199 0 0 .92199 3.3095 .97341)" stroke-width="1.0846"><path id="path1" d="m5.3525 2.5626c-0.77 2e-7 -1.537 0.29758-2.127 0.89258l-3.5996 3.6094 1.4199 1.4102-2.8399 3e-7 -0.71094 0.71094 3.5508 3.5898 0.70898-0.71094v-2.8789l1.4707 1.4199 0.70899-0.71094 3.6797 3.6797 2.1309-2.1309-3.6797-3.6797 0.70899-0.69922-1.4199-1.4297 2.1406-2.1797c-0.6-0.59501-1.3726-0.89259-2.1426-0.89259zm7.2207 11.709-2.1309 2.1309 4.9219 4.9219 2.1309-2.1289z"/><path id="path1-5" d="m17.065 5.5288-0.6313 0.63397-0.78138-0.78137-0.58307 0.58307c-1.7202-1.4038-3.6581-2.5301-5.7342-3.321l-0.82047 1.7701c1.7301 0.90954 3.3212 2.0064 4.8041 3.3015l-0.49437 0.49437 0.48132 0.48133-10.662 10.678 1.9879 1.9879 10.679-10.664 0.48132 0.48132 0.49307-0.49306c1.2951 1.4829 2.3919 3.074 3.3014 4.8041l1.7701-0.82047c-0.79091-2.0761-1.9172-4.014-3.321-5.7342l0.58176-0.58176-0.78134-0.78134 0.63264-0.63264z"/></g></svg>
