<?xml version="1.0" encoding="UTF-8"?>
<svg id="svg1" version="1.1" viewBox="0 0 24 24" xml:space="preserve" xmlns="http://www.w3.org/2000/svg"><path id="path4" d="m12 1.8061a1.2536 0.5262 0 0 0-1.1228 0.29066l-7.7543 6.5339a10.688 4.4865 0 0 0-1.1228 2.0008v2.7354a10.688 4.4865 0 0 0 1.1228 2.0008l7.7543 6.5339a1.2536 0.5262 0 0 0 2.2457 0l7.7543-6.5339a10.688 4.4865 0 0 0 1.1228-2.0008v-2.7354a10.688 4.4865 0 0 0-1.1228-2.0008l-7.7543-6.5339a1.2536 0.5262 0 0 0-1.1228-0.29066zm2.1103 6.3289c1.4576 0 2.6199 1.1725 2.6199 2.6199v2.6896c0 1.4474-1.1623 2.6299-2.6199 2.6299-1.4576 0-2.6199-1.1825-2.6199-2.6299v-2.6896a2.6196 2.6196 0 0 1 2.6199-2.6199zm-3.7826 0.20307h0.14334v7.7364h-1.529v-5.9009l-1.8137 0.55943v-1.2522zm3.7726 1.2642c-0.60139 0-1.081 0.48983-1.081 1.081v2.8429c0 0.581 0.47964 1.0611 1.081 1.0611 0.5912 0 1.1009-0.49031 1.1009-1.0611v-2.8429c0-0.60139-0.50974-1.081-1.1009-1.081z" style="paint-order:stroke markers fill"/></svg>
