<?xml version="1.0" encoding="UTF-8" standalone="no"?>
<svg
   viewBox="0 0 24 24"
   version="1.1"
   id="svg1"
   sodipodi:docname="inv2.svg"
   inkscape:version="1.3.2 (091e20e, 2023-11-25, custom)"
   xml:space="preserve"
   xmlns:inkscape="http://www.inkscape.org/namespaces/inkscape"
   xmlns:sodipodi="http://sodipodi.sourceforge.net/DTD/sodipodi-0.dtd"
   xmlns="http://www.w3.org/2000/svg"
   xmlns:svg="http://www.w3.org/2000/svg"><defs
     id="defs1" /><sodipodi:namedview
     id="namedview1"
     pagecolor="#ffffff"
     bordercolor="#111111"
     borderopacity="1"
     inkscape:showpageshadow="0"
     inkscape:pageopacity="0"
     inkscape:pagecheckerboard="1"
     inkscape:deskcolor="#d1d1d1"
     inkscape:zoom="10.735577"
     inkscape:cx="23.566502"
     inkscape:cy="16.440663"
     inkscape:window-width="1366"
     inkscape:window-height="697"
     inkscape:window-x="-8"
     inkscape:window-y="-8"
     inkscape:window-maximized="1"
     inkscape:current-layer="svg1" /><path
     id="path4"
     style="fill-rule:nonzero;stroke-width:1.01469"
     d="m 4.6206828,5.7192065 c -1.2728909,-0.051219 -1.928698,1.0124644 -1.4791492,2.4993259 0.2604809,0.86153 0.9733399,2.3143586 1.5877694,3.2373026 1.2677155,1.904258 2.6422056,3.250399 4.4417085,4.350128 l 0.6644992,0.405727 v 2.271437 c 0,1.249339 0.024268,2.296797 0.05431,2.326812 0.030021,0.03005 1.6355603,0.04455 3.5674223,0.03302 l 3.513114,-0.02023 0.02236,-1.14903 c 0.02148,-1.102786 0.02882,-1.15292 0.209786,-1.271494 0.139072,-0.09112 0.241476,-0.103635 0.39082,-0.04686 0.250249,0.09516 0.31639,0.39367 0.302432,1.36414 -0.0055,0.384795 -0.007,0.800388 -0.0043,0.923271 l 0.0054,0.223629 1.551564,-0.02236 L 21,20.82272 20.9968,18.968726 C 20.9938,17.445465 20.96718,17.02022 20.848779,16.589733 20.533571,15.443663 19.885681,14.695593 18.761576,14.176661 17.93962,13.797215 17.136155,13.584977 15.679748,13.363075 12.910108,12.941088 12.044285,12.677436 10.739666,11.858368 9.0001675,10.766308 7.369784,9.0393468 6.3160136,7.1727974 5.7917427,6.2441491 5.3629072,5.8167813 4.8826549,5.7447635 4.7924467,5.7312364 4.7055484,5.7226217 4.6206888,5.7192086 Z" /><path
     id="path3"
     style="fill-rule:nonzero;stroke-width:1.01469"
     d="m 15.196229,3.3945243 c -3.330174,-0.1942306 -5.5758181,3.2808292 -4.060473,6.2839891 0.503346,0.9975536 1.619822,1.8880536 2.747449,2.1915696 0.559918,0.150707 1.60336,0.153065 2.158557,0.0054 1.925827,-0.512475 3.22559,-2.2111398 3.22559,-4.2170139 0,-2.2771011 -1.769092,-4.1296047 -4.071123,-4.2638692 z" /></svg>
