<?xml version="1.0" encoding="UTF-8" standalone="no"?>
<svg
   version="1.0"
   width="24"
   height="24"
   viewBox="0 0 18 18"
   preserveAspectRatio="xMidYMid"
   id="svg1"
   sodipodi:docname="phb24-cleric.svg"
   xml:space="preserve"
   inkscape:version="1.3.2 (091e20e, 2023-11-25, custom)"
   xmlns:inkscape="http://www.inkscape.org/namespaces/inkscape"
   xmlns:sodipodi="http://sodipodi.sourceforge.net/DTD/sodipodi-0.dtd"
   xmlns="http://www.w3.org/2000/svg"
   xmlns:svg="http://www.w3.org/2000/svg"><defs
     id="defs1" /><sodipodi:namedview
     id="namedview1"
     pagecolor="#ffffff"
     bordercolor="#111111"
     borderopacity="1"
     inkscape:showpageshadow="0"
     inkscape:pageopacity="0"
     inkscape:pagecheckerboard="1"
     inkscape:deskcolor="#d1d1d1"
     inkscape:document-units="pt"
     inkscape:zoom="7.3397684"
     inkscape:cx="1.1580747"
     inkscape:cy="6.6078379"
     inkscape:window-width="1366"
     inkscape:window-height="697"
     inkscape:window-x="-8"
     inkscape:window-y="-8"
     inkscape:window-maximized="1"
     inkscape:current-layer="svg1" /><g
     transform="matrix(0.1,0,0,-0.1,0,300)"
     fill="#000000"
     stroke="none"
     id="g1" /><path
     style="stroke:none;stroke-width:1"
     d="M 15.576694,2.4013592 C 15.21568,2.7094951 14.734151,2.9318869 14.309418,3.1442516 13.019469,3.789221 11.201225,4.6724878 9.9103532,3.6103785 9.0977791,2.9418084 8.9116175,1.7954229 8.3663089,0.95928378 7.9322778,1.8996732 7.4521553,2.7802699 6.7931335,3.5812438 6.2730567,4.2133922 5.6160617,4.7123821 4.739265,4.6737276 4.4259026,4.6599042 4.0824885,4.5907529 3.7851627,4.4916453 3.3811487,4.356974 2.9904537,4.1273923 2.6416981,3.8871407 l -0.0437,0.043701 c 0.2753252,0.2901618 0.4276617,0.7138574 0.5826558,1.0779124 0.1404289,0.3298456 0.2299132,0.6708107 0.2840485,1.0269361 0.049065,0.3227915 0.080116,0.6567473 0.036413,0.9832331 -0.1846185,1.3792064 -1.2783588,2.2294672 -2.214098,3.1172197 l 0.9322547,-0.02913 1.3838115,-0.101964 1.005083,-0.1310987 C 4.4299266,9.2055438 4.6058149,8.3763413 4.8339493,7.7399666 5.0296065,7.1941884 5.3715886,6.782864 4.9140596,6.2469023 L 5.5622705,6.3561531 6.4581058,5.7807793 7.2811042,5.380196 7.9730118,5.1107192 8.4100096,4.2367369 C 8.5185607,4.4719294 8.6013324,4.798914 8.8033043,4.979627 9.132321,5.2740123 9.7447096,5.2448696 10.150699,5.3802016 10.525177,5.5050265 10.887703,5.85488 11.265028,5.9264407 11.663143,6.0019477 12.35373,5.5811372 12.64884,5.3292144 l 0.04372,0.043724 c -0.251887,0.2951402 -0.67272,0.9857039 -0.597222,1.3838105 0.07156,0.3773252 0.421421,0.7398609 0.546247,1.1143378 0.135324,0.4059816 0.10619,1.0183762 0.400575,1.3473943 0.180711,0.201974 0.507686,0.2847388 0.74289,0.3932952 l -0.87399,0.4369898 -0.269477,0.691907 -0.400575,0.823007 -0.575375,0.895834 0.109238,0.648203 c -0.535955,-0.45752 -0.947279,-0.115538 -1.493057,0.08011 -0.6363756,0.228136 -1.465576,0.404022 -2.1339819,0.225782 l -0.1310985,1.005083 -0.1019658,1.383811 -0.029132,0.932254 c 0.8877537,-0.935738 1.7380067,-2.029485 3.1172132,-2.214105 0.326486,-0.04369 0.66045,-0.01265 0.983241,0.03642 0.356118,0.05412 0.697082,0.143613 1.026929,0.284041 0.364055,0.154995 0.787738,0.30736 1.077922,0.582663 l 0.0437,-0.04369 c -0.240252,-0.348755 -0.469841,-0.739459 -0.604504,-1.143464 -0.09911,-0.297334 -0.168259,-0.640741 -0.182083,-0.954104 -0.03868,-0.876827 0.460361,-1.533768 1.092484,-2.053867 0.80095,-0.659046 1.681564,-1.139154 2.62196,-1.5731753 C 16.788889,9.4770304 16.458884,9.3793967 16.15938,9.2476147 15.56013,8.9839446 14.998906,8.6103029 14.498808,8.198833 13.970595,7.7642241 13.859744,7.0024793 13.945277,6.3634551 c 0.138039,-1.0312185 0.56588,-2.0365123 1.077924,-2.9424153 0.16599,-0.2936889 0.513281,-0.7057761 0.553518,-1.019657 M 11.381584,6.5965181 C 10.873498,6.8764824 10.358435,7.1517902 9.8375394,7.412239 9.5691296,7.5464786 9.242547,7.6324707 8.9781233,7.4268091 8.6626734,7.1814591 8.6234358,6.6792018 8.3663358,6.3780275 8.101333,6.8876462 7.9058533,7.7408755 7.1500625,7.6817481 6.7506915,7.650496 6.3963741,7.2805627 6.0065994,7.2520422 c 0.025408,0.347191 0.3173958,0.6662452 0.3787313,1.0196534 0.1381077,0.7957799 -0.5994628,1.019068 -1.0779216,1.4275061 0.2400856,0.2049486 0.609303,0.2597092 0.8302893,0.4806953 0.5521498,0.552149 0.1348805,1.215376 -0.131101,1.791669 l 0.043724,0.04372 c 0.5762933,-0.265981 1.2395281,-0.683242 1.7916778,-0.131093 0.2209863,0.220987 0.275745,0.590205 0.4806877,0.830282 0.3632499,-0.4256 0.6001692,-1.166446 1.3036995,-1.11433 0.4018066,0.02977 0.7549056,0.386709 1.1434676,0.415147 C 10.741334,11.625518 10.3714,11.271201 10.34014,10.871822 10.28098,10.116007 11.134219,9.9205269 11.643861,9.6555489 11.342688,9.3984478 10.840422,9.3592023 10.595079,9.0437616 10.38942,8.7793356 10.475424,8.4527718 10.609649,8.1843375 c 0.184264,-0.3685347 0.384006,-0.724309 0.568095,-1.09248 0.08427,-0.168554 0.207908,-0.3174529 0.203925,-0.4952639 M 5.1326675,10.398446 2.860302,10.573241 1.8188029,10.667927 1.505592,11.053905 0.93750203,11.796795 1.8041997,12.066267 2.357725,12.168238 2.8966874,11.833214 4.098419,11.112176 5.1326358,10.39842 m 2.4034615,2.403462 -1.2381436,1.995604 -0.5025433,0.895836 0.3860069,1.347394 0.8302892,-0.65549 0.2913182,-0.233073 0.1019658,-1.209011 0.1310977,-2.141268 M 4.870429,11.272395 2.8238459,12.459563 2.0882389,12.932971 2.073675,13.457365 2.2047703,15.074238 3.6031487,13.675859 C 4.2439983,13.034997 4.9707745,12.2555 4.8704238,11.272387 M 6.705793,13.107755 C 6.26085,13.235963 5.7762478,13.269279 5.3656831,13.515619 4.4536874,14.062815 3.6984789,15.066333 2.9476744,15.817138 l 1.6168737,0.131095 0.5680877,-0.04369 0.2986171,-0.487971 0.6773392,-1.158032 z"
     id="path1" /></svg>
