<?xml version="1.0" encoding="UTF-8"?>
<svg id="svg1" width="24" height="24" preserveAspectRatio="xMidYMid" version="1.0" viewBox="0 0 18 18" xml:space="preserve" xmlns="http://www.w3.org/2000/svg"><path id="path1" d="m15.577 2.4014c-0.36101 0.30814-0.84254 0.53053-1.2673 0.74289-1.2899 0.64497-3.1082 1.5282-4.3991 0.46613-0.81257-0.66857-0.99874-1.815-1.544-2.6511-0.43403 0.94039-0.91415 1.821-1.5732 2.622-0.52008 0.63215-1.1771 1.1311-2.0539 1.0925-0.31336-0.013823-0.65678-0.082975-0.9541-0.18208-0.40401-0.13467-0.79471-0.36425-1.1435-0.6045l-0.0437 0.043701c0.27533 0.29016 0.42766 0.71386 0.58266 1.0779 0.14043 0.32985 0.22991 0.67081 0.28405 1.0269 0.049065 0.32279 0.080116 0.65675 0.036413 0.98323-0.18462 1.3792-1.2784 2.2295-2.2141 3.1172l0.93225-0.02913 1.3838-0.10196 1.0051-0.1311c-0.17824-0.66841-0.0023517-1.4976 0.22578-2.134 0.19566-0.54578 0.53764-0.9571 0.08011-1.4931l0.64821 0.10925 0.89584-0.57537 0.823-0.40058 0.69191-0.26948 0.437-0.87398c0.10855 0.23519 0.19132 0.56218 0.39329 0.74289 0.32902 0.29439 0.94141 0.26524 1.3474 0.40057 0.37448 0.12482 0.737 0.47468 1.1143 0.54624 0.39812 0.075507 1.0887-0.3453 1.3838-0.59723l0.04372 0.043724c-0.25189 0.29514-0.67272 0.9857-0.59722 1.3838 0.07156 0.37733 0.42142 0.73986 0.54625 1.1143 0.13532 0.40598 0.10619 1.0184 0.40058 1.3474 0.18071 0.20197 0.50769 0.28474 0.74289 0.3933l-0.87399 0.43699-0.26948 0.69191-0.40058 0.82301-0.57538 0.89583 0.10924 0.6482c-0.53596-0.45752-0.94728-0.11554-1.4931 0.08011-0.63638 0.22814-1.4656 0.40402-2.134 0.22578l-0.1311 1.0051-0.10197 1.3838-0.029132 0.93225c0.88775-0.93574 1.738-2.0295 3.1172-2.2141 0.32649-0.04369 0.66045-0.01265 0.98324 0.03642 0.35612 0.05412 0.69708 0.14361 1.0269 0.28404 0.36406 0.155 0.78774 0.30736 1.0779 0.58266l0.0437-0.04369c-0.24025-0.34876-0.46984-0.73946-0.6045-1.1435-0.09911-0.29733-0.16826-0.64074-0.18208-0.9541-0.03868-0.87683 0.46036-1.5338 1.0925-2.0539 0.80095-0.65905 1.6816-1.1392 2.622-1.5732-0.27361-0.17845-0.60361-0.27608-0.90312-0.40786-0.59925-0.26367-1.1605-0.63731-1.6606-1.0488-0.52821-0.43461-0.63906-1.1964-0.55353-1.8354 0.13804-1.0312 0.56588-2.0365 1.0779-2.9424 0.16599-0.29369 0.51328-0.70578 0.55352-1.0197m-4.1951 4.1951c-0.50809 0.27996-1.0231 0.55527-1.544 0.81572-0.26841 0.13424-0.59499 0.22023-0.85942 0.01457-0.31545-0.24535-0.35469-0.74761-0.61179-1.0488-0.265 0.50962-0.46048 1.3628-1.2163 1.3037-0.39937-0.031252-0.75369-0.40119-1.1435-0.42971 0.025408 0.34719 0.3174 0.66625 0.37873 1.0197 0.13811 0.79578-0.59946 1.0191-1.0779 1.4275 0.24009 0.20495 0.6093 0.25971 0.83029 0.4807 0.55215 0.55215 0.13488 1.2154-0.1311 1.7917l0.043724 0.04372c0.57629-0.26598 1.2395-0.68324 1.7917-0.13109 0.22099 0.22099 0.27574 0.5902 0.48069 0.83028 0.36325-0.4256 0.60017-1.1664 1.3037-1.1143 0.40181 0.02977 0.75491 0.38671 1.1435 0.41515-0.02852-0.38977-0.39845-0.74409-0.42971-1.1435-0.05916-0.75582 0.79408-0.9513 1.3037-1.2163-0.30117-0.2571-0.80344-0.29635-1.0488-0.61179-0.20566-0.26443-0.11966-0.59099 0.01457-0.85942 0.18426-0.36853 0.38401-0.72431 0.5681-1.0925 0.08427-0.16855 0.20791-0.31745 0.20392-0.49526m-6.249 3.8019-2.2724 0.1748-1.0415 0.094686-0.31321 0.38598-0.56809 0.74289 0.8667 0.26947 0.55353 0.10197 0.53896-0.33502 1.2017-0.72104 1.0342-0.71376m2.4035 2.4035-1.2381 1.9956-0.50254 0.89584 0.38601 1.3474 0.83029-0.65549 0.29132-0.23307 0.10197-1.209 0.1311-2.1413m-2.6657-1.5295-2.0466 1.1872-0.73561 0.47341-0.014564 0.52439 0.1311 1.6169 1.3984-1.3984c0.64085-0.64086 1.3676-1.4204 1.2673-2.4035m1.8354 1.8354c-0.44494 0.12821-0.92955 0.16152-1.3401 0.40786-0.912 0.5472-1.6672 1.5507-2.418 2.3015l1.6169 0.1311 0.56809-0.04369 0.29862-0.48797 0.67734-1.158z"/></svg>
