<?xml version="1.0" encoding="UTF-8"?>
<svg id="svg1" width="24" height="24" preserveAspectRatio="xMidYMid" version="1.0" viewBox="0 0 18 18" xml:space="preserve" xmlns="http://www.w3.org/2000/svg"><path id="path2" d="m2.2661 5.366c0.69075-0.4865 1.2255-1.1689 2.0882-1.3738-0.79151 1.0388-2.1138 2.0475-2.4845 3.3521-0.2351 0.82738 0.11978 2.2522 0.45124 3.0224l2.253-1.154c-0.5832 0.73539-1.447 1.9467-1.1915 2.9674 0.083882 0.33509 0.50162 0.64561 0.75186 0.86333 0.79078 0.68802 1.6954 1.2295 2.6927 1.5546-0.39592-0.56874-0.80193-1.0321-1.0258-1.7035-0.15764-0.47283-0.23813-0.93043-0.23813-1.4288 0-0.3936 0.037086-0.77481 0.14951-1.154 0.7727-2.6062 3.9065-2.4932 5.6754-4.1214-0.49916 2.1064-2.7875 1.6598-3.8466 3.1323l0.93419-0.1099v3.3521h-0.27476v3.7917h0.32971c0 0.2156-0.049587 0.51307 0.06479 0.70624 0.1317 0.22243 0.65218 0.26074 0.80461 0.03926 0.12798-0.18595 0.06479-0.53052 0.06479-0.7455h0.32971v-3.7917h-0.27476v-3.2971c0.80879 0.109 1.489 0.56676 1.9783 1.2089l1.8684-1.5387c-0.1879 0.81221-0.6759 1.4804-0.94436 2.253-0.17514 0.50402-0.08919 1.1177-0.24928 1.6486-0.20875 0.69221-0.65722 1.1807-1.0594 1.7585 3.692-1.0685 6.4394-6.0777 4.3962-9.6716l-1.154 1.5936c0.45462-1.0566 0.29782-2.1559 0.53133-3.2422 0.11793-0.54861 0.47378-0.99748 0.73257-1.4837-0.41432 0.001178-0.79653 0.079932-1.154 0.3005-0.16783 0.10355-0.39259 0.3946-0.60447 0.37178-0.3582-0.038579-0.89021-0.63686-1.2089-0.83357-0.6989-0.43133-1.5062-0.71731-2.308-0.8828 0.31061 0.47004 0.64863 0.88106 0.82271 1.4288 0.4303 1.3538-0.05683 3.1523-1.592 3.5169 4.25e-5 -0.3888-0.056068-1.0266 0.21981-1.3189l-0.76933-1.099h-0.1099l-0.76933 1.099c0.28671 0.30369 0.21981 0.92022 0.21981 1.3189-0.95434-0.45221-1.7786-1.1406-1.5681-2.308 0.060484-0.33548 0.2299-0.62376 0.35914-0.93419l-0.98914 0.49457 1.4288-2.1981c-2.2848 0.47158-4.764 2.2314-5.3304 4.616z"/></svg>
