<?xml version="1.0" encoding="UTF-8" standalone="no"?>
<!-- Created with Inkscape (http://www.inkscape.org/) -->

<svg
   version="1.1"
   id="svg1"
   width="24"
   height="24"
   viewBox="0 0 24 24"
   sodipodi:docname="gallia.svg"
   inkscape:version="1.3.2 (091e20e, 2023-11-25, custom)"
   xml:space="preserve"
   xmlns:inkscape="http://www.inkscape.org/namespaces/inkscape"
   xmlns:sodipodi="http://sodipodi.sourceforge.net/DTD/sodipodi-0.dtd"
   xmlns="http://www.w3.org/2000/svg"
   xmlns:svg="http://www.w3.org/2000/svg"><defs
     id="defs1" /><sodipodi:namedview
     id="namedview1"
     pagecolor="#ffffff"
     bordercolor="#111111"
     borderopacity="1"
     inkscape:showpageshadow="0"
     inkscape:pageopacity="0"
     inkscape:pagecheckerboard="1"
     inkscape:deskcolor="#d1d1d1"
     inkscape:zoom="3.46"
     inkscape:cx="7.8034682"
     inkscape:cy="16.040462"
     inkscape:window-width="1366"
     inkscape:window-height="697"
     inkscape:window-x="-8"
     inkscape:window-y="-8"
     inkscape:window-maximized="1"
     inkscape:current-layer="g1" /><g
     inkscape:groupmode="layer"
     inkscape:label="Image"
     id="g1"><path
       id="path58"
       style="stroke-width:1"
       d="m 9.4779338,1.5004519 c -0.073183,-2.1e-5 -0.1399725,0.01575 -0.2566774,0.047354 C 8.8075338,1.6597965 8.5197035,1.8971439 8.3642123,2.2545457 8.2793743,2.449579 8.1832277,2.8806157 8.217016,2.914404 8.229301,2.926584 8.4310749,2.896134 8.6655978,2.84668 9.144671,2.7456721 9.4228625,2.756172 9.6749623,2.884794 10.260355,3.1834391 10.305021,4.0641917 9.7872673,5.0988604 9.6994873,5.2743011 9.3767265,5.8379605 9.0700176,6.3514414 7.9712163,8.1909598 7.7152108,8.7951378 7.5461014,9.9486005 7.4252175,10.773138 7.4892974,11.64233 7.7249126,12.375739 c 0.1282967,0.399328 0.3846172,0.922468 0.464069,0.947143 0.029609,0.0095 0.055964,-0.05649 0.071083,-0.177173 0.092818,-0.740308 0.258599,-1.283409 0.5410219,-1.7721 0.3771099,-0.652561 0.8142158,-1.077161 1.5745245,-1.5294395 0.466967,-0.277782 0.469078,-0.288092 0.08253,-0.4000511 C 10.216298,9.3740855 9.6715393,9.3758704 9.4975999,9.4472689 9.4537109,9.4652235 9.6495003,9.2485292 9.9326993,8.9656023 10.915342,7.9838524 11.430135,7.1507583 11.496714,6.4344217 l 0.02594,-0.2788845 -0.175221,-0.0042 c -0.283746,-0.00735 -0.362263,0.0063 -0.603789,0.1028978 -0.237085,0.094813 -0.268889,0.091873 -0.173278,-0.01554 0.136088,-0.1529922 0.442135,-0.648109 0.58362,-0.9441081 0.293138,-0.6133334 0.368568,-0.8972368 0.388518,-1.4621562 0.01596,-0.4504508 0.0074,-0.5416728 -0.07245,-0.7906119 C 11.230135,2.2956628 10.586646,1.729389 9.7729563,1.5483624 9.6307053,1.5167581 9.5510753,1.5009034 9.4778708,1.5009034 Z m 5.0441332,0 c -0.07318,1.05e-5 -0.152835,0.015855 -0.295076,0.047459 -0.81369,0.1810266 -1.45719,0.7473004 -1.69711,1.4934564 -0.08001,0.2489391 -0.0883,0.3401611 -0.07245,0.790612 0.01995,0.5649193 0.09534,0.8488227 0.388534,1.4621565 0.141474,0.2960096 0.447521,0.791116 0.583609,0.9441082 0.09565,0.1074861 0.06384,0.1103946 -0.173278,0.01554 -0.241525,-0.096598 -0.320042,-0.1100275 -0.603777,-0.1028982 l -0.175231,0.0042 0.02593,0.2788845 c 0.06657,0.7163366 0.581373,1.5494307 1.564015,2.5311806 0.2832,0.2829374 0.478969,0.4996737 0.435111,0.4816666 -0.17395,-0.071398 -0.71871,-0.073183 -0.960551,-0.00315 -0.386518,0.11197 -0.384407,0.12227 0.08253,0.400052 0.76031,0.4522785 1.197405,0.8768785 1.574525,1.5294395 0.282423,0.488701 0.448183,1.031792 0.541012,1.77211 0.01512,0.120674 0.04147,0.18636 0.07108,0.177162 0.07948,-0.02467 0.335783,-0.547815 0.464069,-0.947142 C 16.510645,11.64188 16.574704,10.772687 16.45382,9.9481505 16.284716,8.7946869 16.028711,8.1905089 14.92992,6.3509905 14.6232,5.8375096 14.300458,5.2738502 14.21267,5.0984095 13.694905,4.0637408 13.739581,3.1829882 14.324965,2.8843431 c 0.25211,-0.1286117 0.530291,-0.139101 1.009375,-0.038114 0.234523,0.049454 0.436349,0.080008 0.448571,0.067723 0.03381,-0.033809 -0.06237,-0.464825 -0.147186,-0.6598583 C 15.480223,1.8966924 15.192393,1.659345 14.778681,1.5473544 14.661966,1.5157501 14.595197,1.5000004 14.521993,1.5000004 Z m -5.18945,2.3821993 c -0.019005,0 -0.077908,0.081898 -0.1310687,0.1820765 C 8.957166,4.5253948 8.2495023,5.122622 7.5576302,5.4521889 6.9246933,5.7536899 6.6743892,6.1127297 6.5629761,6.8786777 L 6.518667,7.1831816 6.333472,6.9918337 C 6.1045874,6.7553578 5.9036218,6.7088963 5.5521313,6.8110801 5.3188684,6.8789087 5.2345552,6.9720102 5.3373375,7.048375 c 0.1287797,0.095653 0.3175026,0.4092707 0.3963979,0.6586823 0.068878,0.2178494 0.088513,0.422217 0.1151825,1.1996307 0.020475,0.5976155 0.055544,1.0453365 0.096808,1.236076 0.183494,0.849222 0.6538629,1.929753 1.1931628,2.740976 0.084733,0.12751 0.1730573,0.178906 0.1344076,0.07822 -0.01092,-0.02845 -0.057119,-0.185464 -0.1026878,-0.348893 C 6.8718374,11.541691 6.8763838,10.371942 7.1840482,9.1459569 7.4203666,8.2043791 8.0269176,6.8209184 8.6088255,5.8962768 8.7468346,5.6769785 8.9170884,5.3719496 8.9871534,5.2184324 9.1949019,4.7632672 9.422663,3.8826827 9.332617,3.8826827 Z m 5.334766,0 c -0.09009,0 0.137715,0.8805845 0.345474,1.3357497 0.07003,0.1535172 0.240309,0.4585461 0.378328,0.6778444 0.581898,0.9246416 1.188449,2.3081023 1.424767,3.2496801 0.307696,1.2259856 0.312253,2.3957336 0.01344,3.4671096 -0.04557,0.163429 -0.09177,0.320432 -0.102688,0.348897 -0.03864,0.100693 0.04966,0.04935 0.134418,-0.07822 0.53929,-0.811223 1.009658,-1.891755 1.193163,-2.740977 0.04126,-0.1907385 0.07633,-0.6384595 0.09681,-1.2360755 0.02667,-0.7774137 0.0463,-0.9817813 0.115182,-1.1996307 0.07885,-0.2494146 0.267627,-0.5630113 0.396396,-0.6586853 0.102793,-0.076333 0.01848,-0.1694873 -0.214783,-0.2372949 -0.351501,-0.1021628 -0.552467,-0.055754 -0.781351,0.1807536 L 17.481344,7.1831501 17.437035,6.8786462 C 17.325632,6.1126982 17.075328,5.7536584 16.442381,5.4521574 15.750509,5.1225905 15.042855,4.5253633 14.798463,4.0646962 14.745334,3.9645284 14.686378,3.8826197 14.667394,3.8826197 Z M 12,9.1196024 c -0.04168,0.031079 -0.13487,0.1969863 -0.662116,1.1528966 -0.428254,0.776448 -0.544287,1.018867 -0.543972,1.136391 5.25e-4,0.202015 0.154094,0.517912 0.429105,0.882663 0.431372,0.572154 0.559879,0.799894 0.69078,1.223696 0.03633,0.117482 0.06888,0.20127 0.0862,0.231058 0.01732,-0.02982 0.04998,-0.113576 0.0862,-0.231058 0.130901,-0.423802 0.259407,-0.651542 0.69077,-1.223696 0.27501,-0.364751 0.428579,-0.680648 0.429104,-0.882663 3.26e-4,-0.117524 -0.115718,-0.359943 -0.543972,-1.136391 -0.52723,-0.9559103 -0.620373,-1.1217752 -0.66211,-1.1528966 z M 4.243471,9.9067075 c -0.2370009,-8.61e-4 -0.4966393,0.06636 -0.8587555,0.2101215 -0.5793145,0.230009 -0.9637428,0.461686 -1.2655903,0.762494 -0.3444031,0.343217 -0.4340081,0.548487 -0.4354886,0.99793 -9.975e-4,0.306824 0.01554,0.399327 0.1144055,0.637966 0.1483828,0.358295 0.302467,0.584197 0.584701,0.857275 0.2687207,0.260006 0.5508601,0.410069 0.9751875,0.518595 0.4051337,0.103633 0.6194236,0.09555 1.1754812,-0.0442 0.252194,-0.06331 0.8532851,-0.180775 1.3357602,-0.260888 0.4824646,-0.08011 0.8911893,-0.157969 0.9083565,-0.172963 0.065309,-0.05712 -0.024989,-0.156426 -0.2525511,-0.277719 C 6.0940142,12.905622 5.3971967,12.817844 4.6023323,12.893117 4.1186812,12.938896 4.0849664,12.937216 3.8265985,12.852693 3.3918553,12.710578 2.9537838,12.46629 2.8114593,12.286597 2.3806011,11.742593 2.9285318,10.890789 3.8091479,10.735665 c 0.4494218,-0.07917 0.7335877,0.102793 0.9071174,0.58089 0.116495,0.320925 0.1200124,0.441337 0.01806,0.608535 -0.1817091,0.298015 -0.4235398,0.301722 -0.7743373,0.01186 -0.2939727,-0.242923 -0.3549449,-0.204945 -0.1343341,0.08358 0.1924924,0.251816 0.4302807,0.364972 0.7276868,0.346167 0.3463771,-0.02184 0.4521098,-0.08904 0.6465341,-0.410174 0.2163265,-0.357335 0.307706,-0.708269 0.2777186,-1.06669 C 5.4375893,10.411558 5.2157921,10.163816 4.6629055,9.9798275 4.5197096,9.9321585 4.3856589,9.9071695 4.2434605,9.9066445 Z m 15.513058,0 c -0.142198,5.25e-4 -0.276238,0.02551 -0.419445,0.07318 -0.552876,0.1839885 -0.774652,0.4317305 -0.814677,0.9100055 -0.03003,0.358421 0.06142,0.709355 0.277708,1.066693 0.194425,0.321157 0.300158,0.388282 0.646545,0.410174 0.297406,0.01879 0.535195,-0.09439 0.727687,-0.346167 0.2206,-0.288576 0.159628,-0.326553 -0.134345,-0.08358 -0.350797,0.289878 -0.592617,0.286171 -0.774337,-0.01187 -0.101953,-0.167198 -0.09838,-0.28761 0.01806,-0.608535 0.17354,-0.478087 0.457695,-0.660048 0.907117,-0.58089 0.880627,0.155124 1.428557,1.006928 0.997689,1.550932 -0.142314,0.179693 -0.580396,0.423981 -1.015129,0.566096 -0.258368,0.08442 -0.292093,0.0862 -0.775744,0.04042 -0.794865,-0.07528 -1.491682,0.01249 -1.922635,0.242198 -0.227562,0.121293 -0.317891,0.220632 -0.252562,0.277719 0.01712,0.01501 0.425903,0.09282 0.908367,0.172963 0.482465,0.08011 1.083556,0.197522 1.335761,0.260888 0.556057,0.13972 0.770347,0.147774 1.175481,0.0442 0.424317,-0.108526 0.706467,-0.258589 0.975177,-0.518595 0.282244,-0.273078 0.436328,-0.49898 0.584711,-0.857275 0.0988,-0.238639 0.115393,-0.331142 0.114406,-0.637966 -0.001,-0.449443 -0.09114,-0.654713 -0.435499,-0.99793 C 21.579017,10.57856 21.194599,10.346883 20.615274,10.116874 20.253169,9.9730905 19.99352,9.9058915 19.756519,9.9067525 Z M 9.6346223,12.17887 c -0.02698,-9.24e-4 -0.05355,-7.67e-4 -0.07969,4.62e-4 -0.3132604,0.0147 -0.5560257,0.181131 -0.5552697,0.423812 0.00105,0.448645 0.2746216,0.945064 0.6142997,1.116063 0.5373677,0.270527 1.5202507,1.000587 1.7289547,1.284207 0.102058,0.138723 0.158694,0.155071 0.196409,0.0568 0.07119,-0.185573 -0.224716,-1.13512 -0.508073,-1.630374 -0.286077,-0.50001 -0.89266,-1.141504 -1.1459657,-1.211852 -0.08526,-0.02363 -0.169729,-0.03633 -0.250693,-0.03906 z m 4.7307557,0 c -0.08095,0.0031 -0.165434,0.01543 -0.250692,0.03906 -0.253297,0.07035 -0.85989,0.711842 -1.145967,1.211852 -0.283346,0.495254 -0.579283,1.444801 -0.508073,1.630374 0.03769,0.09828 0.09429,0.0819 0.196409,-0.0568 0.208714,-0.28362 1.191598,-1.01368 1.728955,-1.284207 0.339689,-0.170999 0.612904,-0.667407 0.6143,-1.116063 7.67e-4,-0.242681 -0.242009,-0.409081 -0.555259,-0.423812 -0.02614,-10e-4 -0.05271,-10e-4 -0.07969,-4.62e-4 z m -7.23911,1.772886 c -0.3765219,0.0021 -0.7575797,0.0484 -1.1374826,0.141107 -0.5897618,0.143878 -0.8776236,0.268773 -1.0156746,0.44056 -0.2957156,0.367975 -0.8238648,0.476448 -1.2870098,0.264311 -0.1598906,-0.07318 -0.2292731,-0.08946 -0.2292731,-0.05355 0,0.116285 0.512368,0.542859 0.9415463,0.783913 0.3826432,0.21492 1.1302376,0.32101 1.6878386,0.239479 0.1809741,-0.02646 0.3386283,-0.03853 0.350367,-0.02678 0.01176,0.01176 -0.046514,0.179011 -0.1294307,0.371629 -0.2024882,0.470285 -0.257402,0.692723 -0.2587039,1.048004 -6.09e-4,0.164479 -0.027089,0.406709 -0.058904,0.538292 -0.1041577,0.431393 -0.075283,0.437735 0.3381452,0.07392 0.2705372,-0.238093 0.4675655,-0.400745 0.8174074,-0.674568 0.065834,-0.05145 0.2721332,-0.213429 0.4585462,-0.35987 1.0278649,-0.807506 2.2397173,-1.413091 2.72992,-1.364183 0.178107,0.01774 0.151238,-0.05775 -0.09576,-0.268521 C 9.3444817,14.342968 8.2557811,13.946108 7.126205,13.951746 Z m 9.747464,0 c -1.129576,-0.0052 -2.218266,0.391222 -3.111597,1.153758 -0.246955,0.210793 -0.273824,0.286286 -0.09565,0.268521 0.490192,-0.04893 1.702045,0.556677 2.72992,1.364183 0.186403,0.14644 0.392755,0.308368 0.458546,0.359869 0.349832,0.273824 0.54686,0.436476 0.817397,0.674569 0.413397,0.363838 0.442314,0.357496 0.338145,-0.07392 -0.03181,-0.131583 -0.05827,-0.373813 -0.0589,-0.538292 -10e-4,-0.35528 -0.05628,-0.577718 -0.258715,-1.048003 -0.08295,-0.192618 -0.141169,-0.35989 -0.12943,-0.371629 0.01176,-0.01176 0.169403,3.15e-4 0.350367,0.02677 0.557611,0.08158 1.305195,-0.02457 1.687849,-0.239478 0.429167,-0.241054 0.941535,-0.667629 0.941535,-0.783914 0,-0.03591 -0.0694,-0.01974 -0.229273,0.05355 -0.463134,0.212138 -0.991283,0.103633 -1.286999,-0.264311 -0.138051,-0.171786 -0.425913,-0.296681 -1.015685,-0.44056 -0.379903,-0.09271 -0.76095,-0.139227 -1.137483,-0.141106 z m -6.32794,1.892889 c -0.0399,0 -0.108904,0.05827 -0.153497,0.129588 -0.09838,0.157245 -0.08011,0.358053 0.04452,0.490781 0.152163,0.16198 0.9122,0.293763 1.563154,0.314552 0.650965,-0.02079 1.410991,-0.152572 1.563165,-0.314552 0.124695,-0.132728 0.142912,-0.333536 0.04452,-0.490781 -0.04462,-0.07129 -0.113639,-0.129588 -0.153496,-0.129588 -0.0399,0 -0.24202,0.04483 -0.449191,0.09964 -0.36933,0.09775 -0.695946,0.148078 -1.005018,0.15568 -0.309071,-0.0073 -0.635677,-0.05796 -1.005007,-0.15568 -0.207181,-0.05481 -0.409344,-0.09964 -0.449201,-0.09964 z m -7.0307113,0.331289 c -0.027929,-1.15e-4 -0.056069,5.36e-4 -0.084838,0.0021 -0.076753,0.0032 -0.1582526,0.01218 -0.2533385,0.02488 -0.5435208,0.07297 -0.7683945,0.236718 -0.7639846,0.556195 0.0042,0.288407 0.234838,0.563879 0.6252825,0.746229 0.2754721,0.128643 0.7353727,0.127635 1.0853827,-0.0021 0.1364235,-0.05071 0.3642791,-0.16786 0.5063621,-0.260426 0.2968811,-0.193427 0.7933629,-0.661948 0.7713764,-0.727918 -0.0084,-0.02446 -0.094708,-0.05029 -0.1922089,-0.05743 -0.4469334,-0.03255 -0.6405807,-0.06279 -0.974715,-0.152089 -0.3375887,-0.0903 -0.5237077,-0.128086 -0.7192765,-0.128968 z m 16.9698393,0 c -0.195559,8.82e-4 -0.381678,0.03874 -0.719277,0.128969 -0.334134,0.08935 -0.527781,0.119582 -0.974715,0.152089 -0.09754,0.0073 -0.18404,0.03297 -0.192198,0.05743 -0.02194,0.06594 0.474495,0.534491 0.771376,0.727918 0.142073,0.09261 0.369928,0.209733 0.506362,0.260425 0.35,0.130051 0.8099,0.131059 1.085372,0.0021 0.390445,-0.182339 0.621293,-0.457821 0.625283,-0.746218 0.0042,-0.319488 -0.220453,-0.483221 -0.763974,-0.556205 -0.09513,-0.01281 -0.176564,-0.02132 -0.253339,-0.02488 -0.02877,-0.001 -0.05691,-0.0021 -0.08484,-0.0021 z m -10.423756,0.665549 c -0.1792097,3.2e-5 -0.7609283,0.263471 -1.4402742,0.652225 -0.8307946,0.475409 -1.2398238,1.154744 -1.1018883,1.82988 0.056594,0.276931 0.1083892,0.36367 0.1469548,0.245947 0.013755,-0.0421 0.080638,-0.190382 0.1487503,-0.329578 0.1746323,-0.357129 0.4576432,-0.597248 1.0250195,-0.869738 0.6649927,-0.319372 1.0040832,-0.575577 1.2519609,-0.946135 0.15252,-0.228013 0.133925,-0.582643 -0.03055,-0.582601 z m 3.877682,0 c -0.164458,-4.2e-5 -0.183053,0.354588 -0.03055,0.582601 0.247878,0.370558 0.586969,0.626763 1.251961,0.946135 0.567377,0.27249 0.850398,0.512609 1.02503,0.869738 0.06804,0.139196 0.134964,0.287526 0.14874,0.329578 0.03853,0.117723 0.0904,0.03097 0.146955,-0.245947 0.137935,-0.675136 -0.271083,-1.354471 -1.101888,-1.82988 -0.679346,-0.388754 -1.261065,-0.652193 -1.440265,-0.652225 z m -2.708354,0.472795 c -0.02688,0.0063 -0.05638,0.108252 -0.100587,0.308934 -0.03328,0.151208 -0.07066,0.490224 -0.08305,0.753391 -0.02971,0.63385 0.06625,1.122678 0.320695,1.634804 0.177845,0.357937 0.494277,0.756582 0.632443,0.807359 0.138177,-0.05082 0.454599,-0.449422 0.632444,-0.807359 0.254451,-0.512126 0.350377,-1.000954 0.320705,-1.634804 -0.01229,-0.263167 -0.04966,-0.602183 -0.08305,-0.753391 -0.08851,-0.401364 -0.118039,-0.408178 -0.185584,-0.04284 -0.08022,0.433882 -0.186612,0.647626 -0.458074,0.920432 l -0.226469,0.227635 -0.22647,-0.227635 c -0.271461,-0.272806 -0.377866,-0.48655 -0.458073,-0.920432 -0.03381,-0.182675 -0.05806,-0.272311 -0.08494,-0.266106 z m 0.756898,3.99613 a 0.59485926,0.59485926 0 0 0 -0.582213,0.603159 0.59485926,0.59485926 0 0 0 0.59288,0.586034 c 6.41e-4,7.4e-5 0.001,3.15e-4 0.0021,3.99e-4 3.15e-4,-4.2e-5 6.83e-4,-1.99e-4 10e-4,-2.41e-4 a 0.59485926,0.59485926 0 0 0 0.0031,2.41e-4 0.59485926,0.59485926 0 0 0 0.590623,-0.594833 l -2.42e-4,-0.0168 a 0.59485926,0.59485926 0 0 0 -0.607212,-0.577929 z" /></g></svg>
