<?xml version="1.0" encoding="UTF-8"?>
<!-- Created with Inkscape (http://www.inkscape.org/) -->
<svg id="svg1" width="24" height="24" version="1.1" viewBox="0 0 24 24" xml:space="preserve" xmlns="http://www.w3.org/2000/svg"><g id="g1"><path id="path58" d="m9.4779 1.5005c-0.073183-2.1e-5 -0.13997 0.01575-0.25668 0.047354-0.41372 0.11199-0.70155 0.34934-0.85704 0.70674-0.084838 0.19503-0.18098 0.62607-0.1472 0.65986 0.012285 0.01218 0.21406-0.01827 0.44858-0.067724 0.47907-0.10101 0.75726-0.090508 1.0094 0.038114 0.58539 0.29865 0.63006 1.1794 0.1123 2.2141-0.08778 0.17544-0.41054 0.7391-0.71725 1.2526-1.0988 1.8395-1.3548 2.4437-1.5239 3.5972-0.12088 0.82454-0.056804 1.6937 0.17881 2.4271 0.1283 0.39933 0.38462 0.92247 0.46407 0.94714 0.029609 0.0095 0.055964-0.05649 0.071083-0.17717 0.092818-0.74031 0.2586-1.2834 0.54102-1.7721 0.37711-0.65256 0.81422-1.0772 1.5745-1.5294 0.46697-0.27778 0.46908-0.28809 0.08253-0.40005-0.24184-0.070033-0.7866-0.068248-0.96054 0.0031505-0.043889 0.017955 0.1519-0.19874 0.4351-0.48167 0.98264-0.98175 1.4974-1.8148 1.564-2.5312l0.02594-0.27888-0.17522-0.0042c-0.28375-0.00735-0.36226 0.0063-0.60379 0.1029-0.23708 0.094813-0.26889 0.091873-0.17328-0.01554 0.13609-0.15299 0.44214-0.64811 0.58362-0.94411 0.29314-0.61333 0.36857-0.89724 0.38852-1.4622 0.01596-0.45045 0.0074-0.54167-0.07245-0.79061-0.23992-0.74616-0.88341-1.3124-1.6971-1.4935-0.14225-0.031604-0.22188-0.047459-0.29509-0.047459zm5.0441 0c-0.07318 1.05e-5 -0.15284 0.015855-0.29508 0.047459-0.81369 0.18103-1.4572 0.7473-1.6971 1.4935-0.08001 0.24894-0.0883 0.34016-0.07245 0.79061 0.01995 0.56492 0.09534 0.84882 0.38853 1.4622 0.14147 0.29601 0.44752 0.79112 0.58361 0.94411 0.09565 0.10749 0.06384 0.11039-0.17328 0.01554-0.24152-0.096598-0.32004-0.11003-0.60378-0.1029l-0.17523 0.0042 0.02593 0.27888c0.06657 0.71634 0.58137 1.5494 1.564 2.5312 0.2832 0.28294 0.47897 0.49967 0.43511 0.48167-0.17395-0.071398-0.71871-0.073183-0.96055-0.00315-0.38652 0.11197-0.38441 0.12227 0.08253 0.40005 0.76031 0.45228 1.1974 0.87688 1.5745 1.5294 0.28242 0.4887 0.44818 1.0318 0.54101 1.7721 0.01512 0.12067 0.04147 0.18636 0.07108 0.17716 0.07948-0.02467 0.33578-0.54782 0.46407-0.94714 0.23564-0.73341 0.2997-1.6026 0.17881-2.4271-0.1691-1.1535-0.42511-1.7576-1.5239-3.5972-0.30672-0.51348-0.62946-1.0771-0.71725-1.2526-0.51776-1.0347-0.47309-1.9154 0.1123-2.2141 0.25211-0.12861 0.53029-0.1391 1.0094-0.038114 0.23452 0.049454 0.43635 0.080008 0.44857 0.067723 0.03381-0.033809-0.06237-0.46482-0.14719-0.65986-0.1555-0.3574-0.44333-0.59475-0.85704-0.70674-0.11672-0.031604-0.18348-0.047354-0.25669-0.047354zm-5.1894 2.3822c-0.019005 0-0.077908 0.081898-0.13107 0.18208-0.24438 0.46067-0.95205 1.0579-1.6439 1.3875-0.63294 0.3015-0.88324 0.66054-0.99465 1.4265l-0.044309 0.3045-0.1852-0.19135c-0.22888-0.23648-0.42985-0.28294-0.78134-0.18075-0.23326 0.067829-0.31758 0.16093-0.21479 0.23729 0.12878 0.095653 0.3175 0.40927 0.3964 0.65868 0.068878 0.21785 0.088513 0.42222 0.11518 1.1996 0.020475 0.59762 0.055544 1.0453 0.096808 1.2361 0.18349 0.84922 0.65386 1.9298 1.1932 2.741 0.084733 0.12751 0.17306 0.17891 0.13441 0.07822-0.01092-0.02845-0.057119-0.18546-0.10269-0.34889-0.29877-1.0714-0.29422-2.2411 0.01344-3.4671 0.23632-0.94158 0.84287-2.325 1.4248-3.2497 0.13801-0.2193 0.30826-0.52433 0.37833-0.67784 0.20775-0.45517 0.43551-1.3357 0.34546-1.3357zm5.3348 0c-0.09009 0 0.13772 0.88058 0.34547 1.3357 0.07003 0.15352 0.24031 0.45855 0.37833 0.67784 0.5819 0.92464 1.1884 2.3081 1.4248 3.2497 0.3077 1.226 0.31225 2.3957 0.01344 3.4671-0.04557 0.16343-0.09177 0.32043-0.10269 0.3489-0.03864 0.10069 0.04966 0.04935 0.13442-0.07822 0.53929-0.81122 1.0097-1.8918 1.1932-2.741 0.04126-0.19074 0.07633-0.63846 0.09681-1.2361 0.02667-0.77741 0.0463-0.98178 0.11518-1.1996 0.07885-0.24941 0.26763-0.56301 0.3964-0.65869 0.10279-0.076333 0.01848-0.16949-0.21478-0.23729-0.3515-0.10216-0.55247-0.055754-0.78135 0.18075l-0.1852 0.19135-0.044309-0.3045c-0.1114-0.76595-0.36171-1.125-0.99465-1.4265-0.69187-0.32957-1.3995-0.92679-1.6439-1.3875-0.053129-0.10017-0.11208-0.18208-0.13107-0.18208zm-2.6674 5.237c-0.04168 0.031079-0.13487 0.19699-0.66212 1.1529-0.42825 0.77645-0.54429 1.0189-0.54397 1.1364 5.25e-4 0.20202 0.15409 0.51791 0.4291 0.88266 0.43137 0.57215 0.55988 0.79989 0.69078 1.2237 0.03633 0.11748 0.06888 0.20127 0.0862 0.23106 0.01732-0.02982 0.04998-0.11358 0.0862-0.23106 0.1309-0.4238 0.25941-0.65154 0.69077-1.2237 0.27501-0.36475 0.42858-0.68065 0.4291-0.88266 3.26e-4 -0.11752-0.11572-0.35994-0.54397-1.1364-0.52723-0.95591-0.62037-1.1218-0.66211-1.1529zm-7.7565 0.78711c-0.237-8.61e-4 -0.49664 0.06636-0.85876 0.21012-0.57931 0.23001-0.96374 0.46169-1.2656 0.76249-0.3444 0.34322-0.43401 0.54849-0.43549 0.99793-9.975e-4 0.30682 0.01554 0.39933 0.11441 0.63797 0.14838 0.3583 0.30247 0.5842 0.5847 0.85728 0.26872 0.26001 0.55086 0.41007 0.97519 0.5186 0.40513 0.10363 0.61942 0.09555 1.1755-0.0442 0.25219-0.06331 0.85329-0.18078 1.3358-0.26089 0.48246-0.08011 0.89119-0.15797 0.90836-0.17296 0.065309-0.05712-0.024989-0.15643-0.25255-0.27772-0.43096-0.2297-1.1278-0.31748-1.9226-0.2422-0.48365 0.045779-0.51737 0.044099-0.77573-0.040424-0.43474-0.14212-0.87281-0.3864-1.0151-0.5661-0.43086-0.544 0.11707-1.3958 0.99769-1.5509 0.44942-0.07917 0.73359 0.10279 0.90712 0.58089 0.1165 0.32092 0.12001 0.44134 0.01806 0.60854-0.18171 0.29802-0.42354 0.30172-0.77434 0.01186-0.29397-0.24292-0.35494-0.20494-0.13433 0.08358 0.19249 0.25182 0.43028 0.36497 0.72769 0.34617 0.34638-0.02184 0.45211-0.08904 0.64653-0.41017 0.21633-0.35734 0.30771-0.70827 0.27772-1.0667-0.040004-0.47828-0.2618-0.72602-0.81469-0.91001-0.1432-0.047669-0.27725-0.072658-0.41944-0.073183zm15.513 0c-0.1422 5.25e-4 -0.27624 0.02551-0.41944 0.07318-0.55288 0.18399-0.77465 0.43173-0.81468 0.91001-0.03003 0.35842 0.06142 0.70936 0.27771 1.0667 0.19442 0.32116 0.30016 0.38828 0.64654 0.41017 0.29741 0.01879 0.5352-0.09439 0.72769-0.34617 0.2206-0.28858 0.15963-0.32655-0.13434-0.08358-0.3508 0.28988-0.59262 0.28617-0.77434-0.01187-0.10195-0.1672-0.09838-0.28761 0.01806-0.60854 0.17354-0.47809 0.4577-0.66005 0.90712-0.58089 0.88063 0.15512 1.4286 1.0069 0.99769 1.5509-0.14231 0.17969-0.5804 0.42398-1.0151 0.5661-0.25837 0.08442-0.29209 0.0862-0.77574 0.04042-0.79486-0.07528-1.4917 0.01249-1.9226 0.2422-0.22756 0.12129-0.31789 0.22063-0.25256 0.27772 0.01712 0.01501 0.4259 0.09282 0.90837 0.17296 0.48246 0.08011 1.0836 0.19752 1.3358 0.26089 0.55606 0.13972 0.77035 0.14777 1.1755 0.0442 0.42432-0.10853 0.70647-0.25859 0.97518-0.5186 0.28224-0.27308 0.43633-0.49898 0.58471-0.85728 0.0988-0.23864 0.11539-0.33114 0.11441-0.63797-1e-3 -0.44944-0.09114-0.65471-0.4355-0.99793-0.30185-0.30081-0.68627-0.53248-1.2656-0.76249-0.3621-0.14378-0.62175-0.21098-0.85876-0.21012zm-10.122 2.2722c-0.02698-9.24e-4 -0.05355-7.67e-4 -0.07969 4.62e-4 -0.31326 0.0147-0.55603 0.18113-0.55527 0.42381 0.00105 0.44864 0.27462 0.94506 0.6143 1.1161 0.53737 0.27053 1.5203 1.0006 1.729 1.2842 0.10206 0.13872 0.15869 0.15507 0.19641 0.0568 0.07119-0.18557-0.22472-1.1351-0.50807-1.6304-0.28608-0.50001-0.89266-1.1415-1.146-1.2119-0.08526-0.02363-0.16973-0.03633-0.25069-0.03906zm4.7308 0c-0.08095 0.0031-0.16543 0.01543-0.25069 0.03906-0.2533 0.07035-0.85989 0.71184-1.146 1.2119-0.28335 0.49525-0.57928 1.4448-0.50807 1.6304 0.03769 0.09828 0.09429 0.0819 0.19641-0.0568 0.20871-0.28362 1.1916-1.0137 1.729-1.2842 0.33969-0.171 0.6129-0.66741 0.6143-1.1161 7.67e-4 -0.24268-0.24201-0.40908-0.55526-0.42381-0.02614-1e-3 -0.05271-1e-3 -0.07969-4.62e-4zm-7.2391 1.7729c-0.37652 0.0021-0.75758 0.0484-1.1375 0.14111-0.58976 0.14388-0.87762 0.26877-1.0157 0.44056-0.29572 0.36798-0.82386 0.47645-1.287 0.26431-0.15989-0.07318-0.22927-0.08946-0.22927-0.05355 0 0.11628 0.51237 0.54286 0.94155 0.78391 0.38264 0.21492 1.1302 0.32101 1.6878 0.23948 0.18097-0.02646 0.33863-0.03853 0.35037-0.02678 0.01176 0.01176-0.046514 0.17901-0.12943 0.37163-0.20249 0.47028-0.2574 0.69272-0.2587 1.048-6.09e-4 0.16448-0.027089 0.40671-0.058904 0.53829-0.10416 0.43139-0.075283 0.43774 0.33815 0.07392 0.27054-0.23809 0.46757-0.40074 0.81741-0.67457 0.065834-0.05145 0.27213-0.21343 0.45855-0.35987 1.0279-0.80751 2.2397-1.4131 2.7299-1.3642 0.17811 0.01774 0.15124-0.05775-0.09576-0.26852-0.89332-0.76253-1.982-1.1594-3.1116-1.1538zm9.7475 0c-1.1296-0.0052-2.2183 0.39122-3.1116 1.1538-0.24696 0.21079-0.27382 0.28629-0.09565 0.26852 0.49019-0.04893 1.702 0.55668 2.7299 1.3642 0.1864 0.14644 0.39276 0.30837 0.45855 0.35987 0.34983 0.27382 0.54686 0.43648 0.8174 0.67457 0.4134 0.36384 0.44231 0.3575 0.33814-0.07392-0.03181-0.13158-0.05827-0.37381-0.0589-0.53829-1e-3 -0.35528-0.05628-0.57772-0.25872-1.048-0.08295-0.19262-0.14117-0.35989-0.12943-0.37163 0.01176-0.01176 0.1694 3.15e-4 0.35037 0.02677 0.55761 0.08158 1.3052-0.02457 1.6878-0.23948 0.42917-0.24105 0.94154-0.66763 0.94154-0.78391 0-0.03591-0.0694-0.01974-0.22927 0.05355-0.46313 0.21214-0.99128 0.10363-1.287-0.26431-0.13805-0.17179-0.42591-0.29668-1.0157-0.44056-0.3799-0.09271-0.76095-0.13923-1.1375-0.14111zm-6.3279 1.8929c-0.0399 0-0.1089 0.05827-0.1535 0.12959-0.09838 0.15724-0.08011 0.35805 0.04452 0.49078 0.15216 0.16198 0.9122 0.29376 1.5632 0.31455 0.65096-0.02079 1.411-0.15257 1.5632-0.31455 0.1247-0.13273 0.14291-0.33354 0.04452-0.49078-0.04462-0.07129-0.11364-0.12959-0.1535-0.12959-0.0399 0-0.24202 0.04483-0.44919 0.09964-0.36933 0.09775-0.69595 0.14808-1.005 0.15568-0.30907-0.0073-0.63568-0.05796-1.005-0.15568-0.20718-0.05481-0.40934-0.09964-0.4492-0.09964zm-7.0307 0.33129c-0.027929-1.15e-4 -0.056069 5.36e-4 -0.084838 0.0021-0.076753 0.0032-0.15825 0.01218-0.25334 0.02488-0.54352 0.07297-0.76839 0.23672-0.76398 0.5562 0.0042 0.28841 0.23484 0.56388 0.62528 0.74623 0.27547 0.12864 0.73537 0.12764 1.0854-0.0021 0.13642-0.05071 0.36428-0.16786 0.50636-0.26043 0.29688-0.19343 0.79336-0.66195 0.77138-0.72792-0.0084-0.02446-0.094708-0.05029-0.19221-0.05743-0.44693-0.03255-0.64058-0.06279-0.97472-0.15209-0.33759-0.0903-0.52371-0.12809-0.71928-0.12897zm16.97 0c-0.19556 8.82e-4 -0.38168 0.03874-0.71928 0.12897-0.33413 0.08935-0.52778 0.11958-0.97472 0.15209-0.09754 0.0073-0.18404 0.03297-0.1922 0.05743-0.02194 0.06594 0.4745 0.53449 0.77138 0.72792 0.14207 0.09261 0.36993 0.20973 0.50636 0.26042 0.35 0.13005 0.8099 0.13106 1.0854 0.0021 0.39044-0.18234 0.62129-0.45782 0.62528-0.74622 0.0042-0.31949-0.22045-0.48322-0.76397-0.5562-0.09513-0.01281-0.17656-0.02132-0.25334-0.02488-0.02877-1e-3 -0.05691-0.0021-0.08484-0.0021zm-10.424 0.66555c-0.17921 3.2e-5 -0.76093 0.26347-1.4403 0.65222-0.83079 0.47541-1.2398 1.1547-1.1019 1.8299 0.056594 0.27693 0.10839 0.36367 0.14695 0.24595 0.013755-0.0421 0.080638-0.19038 0.14875-0.32958 0.17463-0.35713 0.45764-0.59725 1.025-0.86974 0.66499-0.31937 1.0041-0.57558 1.252-0.94614 0.15252-0.22801 0.13392-0.58264-0.03055-0.5826zm3.8777 0c-0.16446-4.2e-5 -0.18305 0.35459-0.03055 0.5826 0.24788 0.37056 0.58697 0.62676 1.252 0.94614 0.56738 0.27249 0.8504 0.51261 1.025 0.86974 0.06804 0.1392 0.13496 0.28753 0.14874 0.32958 0.03853 0.11772 0.0904 0.03097 0.14696-0.24595 0.13794-0.67514-0.27108-1.3545-1.1019-1.8299-0.67935-0.38875-1.2611-0.65219-1.4403-0.65222zm-2.7084 0.4728c-0.02688 0.0063-0.05638 0.10825-0.10059 0.30893-0.03328 0.15121-0.07066 0.49022-0.08305 0.75339-0.02971 0.63385 0.06625 1.1227 0.3207 1.6348 0.17784 0.35794 0.49428 0.75658 0.63244 0.80736 0.13818-0.05082 0.4546-0.44942 0.63244-0.80736 0.25445-0.51213 0.35038-1.001 0.3207-1.6348-0.01229-0.26317-0.04966-0.60218-0.08305-0.75339-0.08851-0.40136-0.11804-0.40818-0.18558-0.04284-0.08022 0.43388-0.18661 0.64763-0.45807 0.92043l-0.22647 0.22764-0.22647-0.22764c-0.27146-0.27281-0.37787-0.48655-0.45807-0.92043-0.03381-0.18268-0.05806-0.27231-0.08494-0.26611zm0.7569 3.9961a0.59486 0.59486 0 0 0-0.58221 0.60316 0.59486 0.59486 0 0 0 0.59288 0.58603c6.41e-4 7.4e-5 1e-3 3.15e-4 0.0021 3.99e-4 3.15e-4 -4.2e-5 6.83e-4 -1.99e-4 1e-3 -2.41e-4a0.59486 0.59486 0 0 0 0.0031 2.41e-4 0.59486 0.59486 0 0 0 0.59062-0.59483l-2.42e-4 -0.0168a0.59486 0.59486 0 0 0-0.60721-0.57793z"/></g></svg>
