<?xml version="1.0" encoding="UTF-8"?>
<!-- Created with Inkscape (http://www.inkscape.org/) -->
<svg id="svg1" width="24" height="24" version="1.1" viewBox="0 0 24 24" xmlns="http://www.w3.org/2000/svg">
 <g id="g1">
  <path id="path1" d="m11.371 22.492c-1.0783-0.095243-1.6523-0.20148-2.4858-0.46025-2.3042-0.71537-4.2951-2.2057-5.6395-4.2216-0.92324-1.3843-1.4942-2.9448-1.6936-4.629-0.069968-0.59079-0.069968-1.7777 0-2.3684 0.10793-0.91138 0.31328-1.7416 0.64687-2.6151 0.56089-1.4687 1.5623-2.9243 2.7359-3.9768 1.6806-1.5072 3.6655-2.4081 5.8802-2.6689 0.59023-0.069476 1.7787-0.069476 2.369 0 1.3688 0.1612 2.7302 0.59462 3.8794 1.235 3.0045 1.6743 4.9803 4.6197 5.3836 8.0257 0.06997 0.59079 0.06997 1.7777 0 2.3684-0.16828 1.421-0.60646 2.7711-1.2892 3.9719-0.96608 1.6993-2.3782 3.0974-4.0945 4.0538-1.1471 0.6392-2.5248 1.0786-3.8639 1.2324-0.36852 0.04228-1.5581 0.07663-1.8286 0.05268zm1.8715-1.5245c2.0508-0.31084 3.7742-1.179 5.2064-2.6225 2.2375-2.2553 3.1213-5.5641 2.3097-8.6474-0.91026-3.4582-3.7944-6.0743-7.3187-6.6384-1.023-0.16375-1.9287-0.15974-2.9544 0.013074-3.4948 0.58887-6.3411 3.1918-7.2449 6.6253-0.42255 1.6053-0.39025 3.3304 0.092305 4.9274 0.54225 1.7948 1.6714 3.4202 3.1665 4.5584 1.3738 1.0458 2.9315 1.6567 4.6881 1.8386 0.43942 0.04552 1.5978 0.01479 2.055-0.05449zm-1.9429-1.1324c-0.55828-0.080546-0.72668-0.10986-0.97145-0.16899-0.9629-0.23261-1.8651-0.7066-2.4946-1.3106-0.89849-0.86209-1.2483-1.676-1.1966-2.7841 0.028064-0.60107 0.13962-0.94653 0.45673-1.4139 0.16981-0.25027 0.2468-0.33469 0.43098-0.47258 0.27537-0.20617 0.41789-0.27646 0.87488-0.43152 0.3219-0.10922 0.391-0.1225 0.70002-0.13451 0.68124-0.02653 1.1851 0.16639 1.6584 0.63488 0.27338 0.27057 0.43283 0.52706 0.5594 0.89984 0.08553 0.25179 0.09221 0.2992 0.09326 0.65702 9.56e-4 0.4213-0.03532 0.60853-0.1814 0.93066-0.16526 0.36439-0.51496 0.76987-0.83673 0.97021-0.07465 0.04648-0.13569 0.09143-0.13572 0.10002-2e-4 0.0586 0.61568 0.44868 1.0608 0.67189 0.9686 0.48574 1.8953 0.7046 2.9964 0.70768 0.57267 0.0019 0.9126-0.03197 1.4382-0.142 0.32713-0.06852 1.0155-0.28044 1.2002-0.36952l0.0902-0.04352-0.08572 0.07367c-0.04715 0.04046-0.2143 0.16104-0.37144 0.26786-0.96377 0.65505-1.9901 1.0606-3.2401 1.2801-0.36607 0.06432-0.51152 0.07425-1.1886 0.0815-0.4243 0.0048-0.81003 0.0029-0.85717-0.0038zm-3.7572-1.1906c-1.1364-0.78122-2.1362-2.0274-2.7299-3.4027-0.87862-2.0353-0.81225-4.1791 0.17682-5.7115 0.35853-0.55549 0.72095-0.89188 1.2618-1.1712 0.73878-0.38149 1.4728-0.48011 2.1627-0.29057 0.32018 0.08799 0.38422 0.11666 0.62859 0.28159 0.21422 0.14458 0.37818 0.30964 0.60843 0.6125 0.40381 0.53116 0.55595 0.94033 0.55464 1.4917-0.0029 1.0248-0.67515 1.8838-1.6917 2.1601-0.2855 0.07759-0.80561 0.07043-1.1-0.01508-0.29085-0.08455-0.5565-0.21819-0.80028-0.40266-0.10571-0.07997-0.19659-0.14102-0.20198-0.13564-0.00573 0.0057-0.055745 0.16991-0.11197 0.36562-0.42002 1.4628-0.33775 2.9787 0.23997 4.4217 0.22816 0.56992 0.7469 1.4283 1.0686 1.7683 0.048109 0.05087 0.0819 0.09775 0.075122 0.10429-0.00668 0.0067-0.070159-0.02787-0.14091-0.07654zm7.0145-0.21923c-0.82212-0.09534-1.5838-0.46315-2.0051-0.9683-0.2483-0.29772-0.34077-0.4548-0.43958-0.74661-0.08629-0.25471-0.09269-0.30209-0.10529-0.77129-0.01174-0.43748-0.0057-0.53098 0.04601-0.7487 0.22454-0.94023 0.95946-1.5995 1.9077-1.7113 1.0418-0.12284 2.0199 0.49811 2.3666 1.5025 0.0399 0.11559 0.07255 0.23692 0.07255 0.26963 0 0.03273 0.0067 0.05945 0.01546 0.05945 0.02702 0 0.32009-0.224 0.57824-0.44197 1.0516-0.88788 1.8374-2.1757 2.162-3.543 0.13495-0.56841 0.17117-0.90148 0.17205-1.5823l8.22e-4 -0.63959 0.11998 0.37756c0.45866 1.4434 0.47195 3.144 0.03637 4.6512-0.26624 0.92121-0.68684 1.7543-1.2313 2.4387-0.26102 0.32813-0.77974 0.82225-1.1127 1.0599-0.31251 0.22309-0.91112 0.52709-1.2418 0.63066-0.48211 0.151-0.95377 0.20842-1.3421 0.16341zm-2.9826-4.9595c-0.39702-0.10674-0.75068-0.39569-0.92869-0.75876-0.48106-0.98116 0.22292-2.1098 1.3159-2.1098 0.96056 0 1.6591 0.93432 1.394 1.8645-0.09974 0.34996-0.40946 0.73109-0.72336 0.89012-0.30464 0.15434-0.73522 0.20073-1.0579 0.11396zm4.4969-0.14598c-1.0505-0.2411-1.6163-0.61904-1.9556-1.3062-0.74352-1.5059 0.39079-3.2761 2.058-3.2117l0.2574 0.00993-0.01785-0.071384c-0.044863-0.17912-0.2342-0.64684-0.399-0.98554-0.51193-1.0522-1.3299-1.9802-2.3381-2.653-0.54077-0.36083-1.3828-0.74108-1.955-0.88292-0.12969-0.032161-0.2288-0.065468-0.22023-0.074057 0.0086-0.00859 0.19827-0.012597 0.42154-0.00859 2.3314 0.03846 4.7112 1.2249 6.0665 3.0246 0.72203 0.95878 1.1098 2.0932 1.0818 3.1652-0.01508 0.57676-0.12441 1.0004-0.37527 1.4538-0.37251 0.6733-0.86841 1.1544-1.4098 1.3677-0.43825 0.1727-0.52634 0.19228-0.84912 0.18881-0.16943-0.0019-0.33377-0.0095-0.3652-0.01641zm-11.717-3.526c0.71561-2.2648 2.6711-4.2834 4.8474-5.0039 1.1855-0.39244 2.449-0.38637 3.4643 0.016605 0.71331 0.28314 1.3296 0.85824 1.7098 1.5955 0.20298 0.39362 0.26014 0.6404 0.26371 1.1385 0.0029 0.38216-0.0029 0.43239-0.07665 0.6491-0.08419 0.24865-0.21951 0.49518-0.45007 0.8202-0.26418 0.37241-0.54302 0.61049-0.92409 0.78903-0.35763 0.16755-0.56049 0.20585-1.0178 0.19213-0.33911-0.010211-0.41574-0.022141-0.63412-0.098698-0.60469-0.21208-1.116-0.69851-1.3526-1.2868-0.21001-0.52217-0.20018-1.1675 0.025963-1.7045l0.046773-0.11108-0.47877 0.015747c-0.52231 0.017083-0.95826 0.083123-1.4721 0.22281-1.5591 0.42384-2.9596 1.4364-3.8493 2.7831-0.083045 0.12569-0.16115 0.2398-0.17356 0.25357-0.012409 0.01374 0.019568-0.10835 0.071113-0.27138z"/>
 </g>
</svg>
