<?xml version="1.0" encoding="UTF-8"?>
<!-- Created with Inkscape (http://www.inkscape.org/) -->
<svg id="svg1" width="24" height="24" version="1.1" viewBox="0 0 6.35 6.35" xml:space="preserve" xmlns="http://www.w3.org/2000/svg"><g id="layer1"><path id="path39" d="m0.76999 3.587c0.0017-0.0017 0.0073 0.0027 0.01733 0.01265 0.01388 0.01377 0.02009 0.03015 0.01384 0.0364-0.0063 0.0063-0.0176-5e-3 -0.02522-0.02506-0.0055-0.01447-0.0077-0.02228-0.0059-0.02399z"/><path id="path38" d="m4.7919 2.5867c-0.00908 0-0.057384 0.032019-0.10734 0.071133-0.049958 0.039115-0.1683 0.11974-0.26298 0.1792l-0.17214 0.1081v1.2166c0 0.6691 0.00403 1.2165 0.00908 1.2165 0.00907 0 0.23111-0.1852 0.2882-0.24041 0.016738-0.016188 0.080245-0.074919 0.1411-0.13049l0.11064-0.10101 0.00495-1.1598c0.00284-0.66533-0.00202-1.1598-0.011522-1.1598z" stroke-width=".99999"/><path id="path37" d="m1.5547 2.5867c-0.00936 0-0.015052 0.50154-0.013227 1.1653l0.00321 1.1653 0.063608 0.055541c0.034989 0.030543 0.1294 0.11541 0.2098 0.18861 0.080401 0.073196 0.16624 0.14549 0.19075 0.16066 0.024512 0.015162 0.044559 0.034008 0.044559 0.041873 0 0.00788 0.00816 0.014282 0.018031 0.014282 0.011413 0 0.018196-0.44642 0.018535-1.2189l5.036e-4 -1.2189-0.1599-0.10319c-0.087954-0.056742-0.2048-0.1363-0.25967-0.17683-0.054872-0.040535-0.10717-0.073718-0.11621-0.073718z" stroke-width=".99999"/><path id="path36" d="m1.2336 0.83627-0.24611 0.005133-0.24611 0.005225-3.667e-5 1.5633c-3.666e-5 0.85979 0.005317 1.5802 0.011852 1.6009 0.011138 0.035063 0.038298 0.070877 0.21754 0.28668 0.15763 0.18979 0.28503 0.32137 0.29827 0.30812 0.00568-0.00568 0.012347-0.50201 0.014832-1.103 0.00248-0.60097 0.00495-1.1972 0.0055-1.3248 0.00101-0.22344 0.0022-0.2304 0.032313-0.1861 0.017206 0.025309 0.11169 0.12558 0.20995 0.22281 0.19785 0.19581 0.45533 0.38763 0.67531 0.5031l0.14423 0.075717 0.00101 0.75742c5.298e-4 0.41658 7.966e-4 1.0422 6.178e-4 1.3902-3.217e-4 0.62763 0.00339 0.69788 0.036896 0.69788 0.00954 0 0.033055 0.014658 0.052232 0.032569 0.05412 0.050554 0.13874 0.11359 0.36134 0.26909 0.11295 0.078898 0.21239 0.13913 0.22096 0.13383 0.00853-0.00532 0.015556-0.71261 0.015556-1.5718v-1.5622h0.26054v1.5726c0 0.95532 0.00678 1.5726 0.017298 1.5726 0.00951 0 0.029828-0.012558 0.045182-0.027913 0.015354-0.015354 0.033596-0.027913 0.040526-0.027913 0.010826 0 0.052012-0.030323 0.15212-0.11195 0.012366-0.010083 0.02651-0.018315 0.031442-0.018315 0.00495 0 0.095289-0.065404 0.20082-0.14536l0.19188-0.14536 0.00467-1.3946c0.00257-0.76705 0.00825-1.4043 0.01265-1.4161 0.0044-0.011779 0.060931-0.04818 0.12562-0.080914 0.26473-0.13396 0.56688-0.3649 0.78479-0.59982l0.14234-0.15346 6.536e-4 0.95821c9.075e-4 1.353 0.00486 1.6933 0.019883 1.6933 0.018223 0 0.30755-0.31713 0.432-0.47351l0.10283-0.12918 0.00183-1.5876 0.00174-1.5876h-0.53628l-0.029443 0.069786c-0.11784 0.27951-0.31027 0.52467-0.61912 0.78865-0.15203 0.12994-0.50377 0.32333-0.68996 0.37937-0.048116 0.014483-0.089228 0.024539-0.091346 0.022358-0.0055917-0.005775-0.055238-0.43673-0.093452-0.81089l-0.033-0.32303 0.059794-0.049179c0.03289-0.027032 0.059739-0.055422 0.059648-0.063103-9.16e-5 -0.0077-0.22888-0.013961-0.5084-0.013961-0.37784 0-0.51609 0.005958-0.53886 0.023265-0.032487 0.024677-0.11356 0.19947-0.099194 0.21384 0.00468 0.00468 0.034494-0.00688 0.066266-0.025658 0.064167-0.037904 0.047823-0.043624 0.2351 0.082766 0.067458 0.045531 0.10452 0.058988 0.14238 0.051654 0.028151-0.00541 0.051178-0.00715 0.051178-0.00376s-0.044477 0.11413-0.098831 0.24611c-0.054358 0.13199-0.11854 0.29022-0.14263 0.35163-0.02409 0.061417-0.063397 0.15517-0.08734 0.20835l-0.043542 0.096686-0.097632-0.028536c-0.20753-0.060645-0.51052-0.23358-0.69109-0.39445-0.22789-0.20304-0.37835-0.39945-0.51251-0.66888z" stroke-width=".99999"/><path id="path35" d="m3.1661 0.2648c-0.01925 0.003575-0.039573 0.049033-0.079823 0.13983-0.028353 0.063974-0.055935 0.11631-0.061279 0.11631-0.00532 0-0.054615-0.033889-0.10948-0.075313-0.054863-0.041424-0.10687-0.070941-0.11555-0.065569-0.013741 0.008525-0.0022 0.11662 0.026281 0.24662 0.00532 0.024347 0.025639 0.042964 0.050738 0.04653 0.071638 0.010175 0.61011 0.0022 0.62152-0.009231 0.013924-0.013924 0.057915-0.27158 0.048052-0.28144-0.00412-0.004125-0.057136 0.026611-0.11784 0.068264-0.060702 0.041653-0.11377 0.072371-0.11791 0.068228-0.00413-0.004125-0.036218-0.06853-0.07128-0.14307-0.035998-0.076523-0.054175-0.11476-0.073425-0.11115z" stroke-width=".99999"/></g></svg>
