<?xml version="1.0" encoding="UTF-8" standalone="no"?>
<!-- Created with Inkscape (http://www.inkscape.org/) -->

<svg
   version="1.1"
   id="svg1"
   width="24"
   height="24"
   viewBox="0 0 24 24"
   sodipodi:docname="myrkheim.svg"
   inkscape:version="1.3.2 (091e20e, 2023-11-25, custom)"
   xml:space="preserve"
   xmlns:inkscape="http://www.inkscape.org/namespaces/inkscape"
   xmlns:sodipodi="http://sodipodi.sourceforge.net/DTD/sodipodi-0.dtd"
   xmlns="http://www.w3.org/2000/svg"
   xmlns:svg="http://www.w3.org/2000/svg"><defs
     id="defs1" /><sodipodi:namedview
     id="namedview1"
     pagecolor="#ffffff"
     bordercolor="#111111"
     borderopacity="1"
     inkscape:showpageshadow="0"
     inkscape:pageopacity="0"
     inkscape:pagecheckerboard="1"
     inkscape:deskcolor="#d1d1d1"
     inkscape:zoom="12.232947"
     inkscape:cx="7.8067858"
     inkscape:cy="17.289374"
     inkscape:window-width="1366"
     inkscape:window-height="697"
     inkscape:window-x="-8"
     inkscape:window-y="-8"
     inkscape:window-maximized="1"
     inkscape:current-layer="g1" /><g
     inkscape:groupmode="layer"
     inkscape:label="Image"
     id="g1"><path
       d="M 1.5769659,20.872966 C 1.662584,20.723011 2.0026026,20.13092 2.3325614,19.557197 l 0.5999255,-1.043132 1.5054311,-0.01262 c 1.3867561,-0.01151 1.5030485,-0.0064 1.4752008,0.06624 -0.016605,0.04333 -0.3542236,0.641061 -0.750215,1.328296 l -0.7199842,1.249617 h -1.510812 -1.510812 z m 4.0407679,0.202027 c 0.014833,-0.03883 0.3022706,-0.545586 0.638597,-1.126108 0.3363241,-0.580519 1.0548995,-1.823616 1.5968356,-2.762436 0.5419337,-0.938817 1.1707205,-2.026993 1.3973032,-2.418167 0.2265807,-0.391176 0.5169246,-0.897326 0.645208,-1.124782 0.1282794,-0.227455 0.2439094,-0.413744 0.2569504,-0.413973 0.01306,-2.31e-4 0.100365,0.132529 0.194078,0.295017 0.09369,0.162485 0.379714,0.655761 0.635588,1.096153 0.396617,0.682636 0.457074,0.813767 0.409962,0.889202 -0.0304,0.04866 -0.346471,0.595158 -0.702395,1.214422 -0.355927,0.619267 -0.7824336,1.35709 -0.947795,1.639609 -0.1653636,0.282517 -0.3006567,0.522554 -0.3006567,0.533418 0,0.01083 1.1521877,0.01971 2.5604137,0.01971 1.408228,0 2.560415,-0.01016 2.560415,-0.02256 0,-0.0124 -0.0426,-0.09241 -0.09465,-0.177806 -0.05205,-0.0854 -0.09474,-0.171252 -0.09483,-0.190802 -9.7e-5,-0.01949 0.57058,-0.03512 1.268174,-0.03456 l 1.268353,10e-4 0.746789,1.295951 c 0.410732,0.712773 0.746785,1.309749 0.746785,1.326611 0,0.01683 -2.882748,0.03067 -6.406105,0.03067 -5.6543755,0 -6.4029271,-0.0082 -6.3790084,-0.0706 z m 13.4911582,-0.69988 c -0.24262,-0.423771 -0.585348,-1.015867 -0.761619,-1.315769 l -0.320493,-0.545272 1.500753,-0.01262 c 0.825414,-0.0068 1.515975,0.0038 1.53458,0.02371 0.03018,0.03232 1.327857,2.267696 1.462481,2.519244 l 0.05411,0.101117 H 21.064365 19.550018 Z M 3.5145182,17.519058 c 0,-0.01262 0.2064311,-0.380708 0.4587364,-0.81791 0.5782415,-1.001994 1.204141,-2.085339 1.5413177,-2.667807 0.1434118,-0.247744 0.4640344,-0.8025 0.7124916,-1.232792 C 6.4755211,12.370258 7.2829089,10.972698 8.0212575,9.6948622 8.7596085,8.4170262 9.4825411,7.1637108 9.6277771,6.9097154 9.7730155,6.6557202 9.904817,6.4476867 9.9206715,6.4474186 9.9366125,6.4471507 10.1372,6.7723171 10.366592,7.1700111 c 0.486963,0.8442068 1.002019,1.7345509 1.446892,2.5011436 0.174044,0.2999016 0.696372,1.2067143 1.160739,2.0151413 0.464364,0.808426 0.990297,1.718017 1.168738,2.021312 0.178449,0.303294 0.324438,0.56467 0.324438,0.580835 0,0.01616 -0.571839,0.02937 -1.270751,0.02937 H 11.925897 L 11.482454,13.547328 C 11.238563,13.123556 10.93896,12.60614 10.81667,12.397512 10.69439,12.188887 10.449104,11.767486 10.27161,11.461066 10.094114,11.154647 9.9355473,10.903939 9.9192368,10.903939 c -0.026678,0 -0.4958206,0.802263 -2.0503732,3.506273 l -0.5056973,0.87962 0.2093558,0.01439 c 0.11515,0.008 0.2093556,0.02192 0.2093556,0.03104 0,0.0091 -0.1451496,0.269334 -0.3225663,0.578237 -0.1774077,0.308904 -0.4601265,0.801441 -0.6282509,1.094526 l -0.3056802,0.532881 -1.5054293,5.38e-4 c -0.8279855,2.96e-4 -1.5054284,-0.0097 -1.5054284,-0.02245 z m 7.8709018,-0.0031 c 0,-0.04895 0.15498,-0.329646 0.699001,-1.265997 l 0.544078,-0.936449 h 1.98629 c 1.156139,0 1.986287,-0.01793 1.986287,-0.043 0,-0.04282 -0.260723,-0.501441 -1.538986,-2.70709 -0.370278,-0.638917 -0.735575,-1.273664 -0.811769,-1.410549 -0.07618,-0.136891 -0.152434,-0.248901 -0.169416,-0.248928 -0.01705,-2.6e-5 -0.0776,0.07915 -0.134721,0.175969 -0.09678,0.164034 -0.10738,0.16968 -0.155756,0.08298 -0.02856,-0.05116 -0.314646,-0.54916 -0.635765,-1.10664 -0.321118,-0.5574809 -0.583853,-1.02109 -0.583853,-1.0302428 0,-0.00908 0.291917,-0.5238564 0.648704,-1.1437827 0.356786,-0.6199286 0.695421,-1.208693 0.752521,-1.3083651 l 0.103812,-0.1812224 0.22807,0.3945895 c 0.334353,0.5784712 1.377803,2.3903923 1.988432,3.4528615 1.312848,2.28429 2.715667,4.712291 2.986038,5.168241 0.548647,0.925223 1.210735,2.07641 1.210735,2.105132 0,0.01572 -2.048332,0.02853 -4.551847,0.02853 -2.503517,0 -4.551847,-0.01173 -4.551847,-0.02606 z M 11.229776,6.7236449 10.483695,5.4356966 11.071515,4.4121603 c 0.3233,-0.5629448 0.658839,-1.1464572 0.745638,-1.2966939 0.08681,-0.1502375 0.174309,-0.2675889 0.194456,-0.2607829 0.02015,0.00679 0.366514,0.5872158 0.769691,1.2897991 l 0.733052,1.277424 -0.151726,0.2670755 c -0.635305,1.118244 -1.341369,2.3222447 -1.361939,2.3224108 -0.01373,1.107e-4 -0.360565,-0.579377 -0.770907,-1.287748 z"
       id="path1"
       style="stroke-width:1" /></g></svg>
