<?xml version="1.0" encoding="UTF-8"?>
<!-- Created with Inkscape (http://www.inkscape.org/) -->
<svg id="svg1" width="24" height="24" version="1.1" viewBox="0 0 24 24" xml:space="preserve" xmlns="http://www.w3.org/2000/svg"><g id="g1"><path id="path1" d="m1.577 20.873c0.085618-0.14996 0.42564-0.74205 0.7556-1.3158l0.59993-1.0431 1.5054-0.01262c1.3868-0.01151 1.503-0.0064 1.4752 0.06624-0.016605 0.04333-0.35422 0.64106-0.75022 1.3283l-0.71998 1.2496h-3.0216zm4.0408 0.20203c0.014833-0.03883 0.30227-0.54559 0.6386-1.1261 0.33632-0.58052 1.0549-1.8236 1.5968-2.7624 0.54193-0.93882 1.1707-2.027 1.3973-2.4182 0.22658-0.39118 0.51692-0.89733 0.64521-1.1248 0.12828-0.22746 0.24391-0.41374 0.25695-0.41397 0.01306-2.31e-4 0.10036 0.13253 0.19408 0.29502 0.09369 0.16248 0.37971 0.65576 0.63559 1.0962 0.39662 0.68264 0.45707 0.81377 0.40996 0.8892-0.0304 0.04866-0.34647 0.59516-0.7024 1.2144-0.35593 0.61927-0.78243 1.3571-0.9478 1.6396-0.16536 0.28252-0.30066 0.52255-0.30066 0.53342 0 0.01083 1.1522 0.01971 2.5604 0.01971 1.4082 0 2.5604-0.01016 2.5604-0.02256s-0.0426-0.09241-0.09465-0.17781c-0.05205-0.0854-0.09474-0.17125-0.09483-0.1908-9.7e-5 -0.01949 0.57058-0.03512 1.2682-0.03456l1.2684 1e-3 0.74679 1.296c0.41073 0.71277 0.74678 1.3097 0.74678 1.3266 0 0.01683-2.8827 0.03067-6.4061 0.03067-5.6544 0-6.4029-0.0082-6.379-0.0706zm13.491-0.69988c-0.24262-0.42377-0.58535-1.0159-0.76162-1.3158l-0.32049-0.54527 1.5008-0.01262c0.82541-0.0068 1.516 0.0038 1.5346 0.02371 0.03018 0.03232 1.3279 2.2677 1.4625 2.5192l0.05411 0.10112h-3.0287zm-15.594-2.8561c0-0.01262 0.20643-0.38071 0.45874-0.81791 0.57824-1.002 1.2041-2.0853 1.5413-2.6678 0.14341-0.24774 0.46403-0.8025 0.71249-1.2328 0.24846-0.43029 1.0558-1.8279 1.7942-3.1057 0.73835-1.2778 1.4613-2.5312 1.6065-2.7851 0.14524-0.254 0.27704-0.46203 0.29289-0.4623 0.015941-2.679e-4 0.21653 0.3249 0.44592 0.72259 0.48696 0.84421 1.002 1.7346 1.4469 2.5011 0.17404 0.2999 0.69637 1.2067 1.1607 2.0151 0.46436 0.80843 0.9903 1.718 1.1687 2.0213 0.17845 0.30329 0.32444 0.56467 0.32444 0.58084 0 0.01616-0.57184 0.02937-1.2708 0.02937h-1.2708l-0.44344-0.77048c-0.24389-0.42377-0.54349-0.94119-0.66578-1.1498-0.12228-0.20862-0.36757-0.63003-0.54506-0.93645-0.1775-0.30642-0.33606-0.55713-0.35237-0.55713-0.026678 0-0.49582 0.80226-2.0504 3.5063l-0.5057 0.87962 0.20936 0.01439c0.11515 8e-3 0.20936 0.02192 0.20936 0.03104 0 0.0091-0.14515 0.26933-0.32257 0.57824-0.17741 0.3089-0.46013 0.80144-0.62825 1.0945l-0.30568 0.53288-1.5054 5.38e-4c-0.82799 2.96e-4 -1.5054-0.0097-1.5054-0.02245zm7.8709-0.0031c0-0.04895 0.15498-0.32965 0.699-1.266l0.54408-0.93645h1.9863c1.1561 0 1.9863-0.01793 1.9863-0.043 0-0.04282-0.26072-0.50144-1.539-2.7071-0.37028-0.63892-0.73558-1.2737-0.81177-1.4105-0.07618-0.13689-0.15243-0.2489-0.16942-0.24893-0.01705-2.6e-5 -0.0776 0.07915-0.13472 0.17597-0.09678 0.16403-0.10738 0.16968-0.15576 0.08298-0.02856-0.05116-0.31465-0.54916-0.63576-1.1066-0.32112-0.55748-0.58385-1.0211-0.58385-1.0302 0-0.00908 0.29192-0.52386 0.6487-1.1438 0.35679-0.61993 0.69542-1.2087 0.75252-1.3084l0.10381-0.18122 0.22807 0.39459c0.33435 0.57847 1.3778 2.3904 1.9884 3.4529 1.3128 2.2843 2.7157 4.7123 2.986 5.1682 0.54865 0.92522 1.2107 2.0764 1.2107 2.1051 0 0.01572-2.0483 0.02853-4.5518 0.02853-2.5035 0-4.5518-0.01173-4.5518-0.02606zm-0.15564-10.792-0.74608-1.2879 0.58782-1.0235c0.3233-0.56294 0.65884-1.1465 0.74564-1.2967 0.08681-0.15024 0.17431-0.26759 0.19446-0.26078 0.02015 0.00679 0.36651 0.58722 0.76969 1.2898l0.73305 1.2774-0.15173 0.26708c-0.6353 1.1182-1.3414 2.3222-1.3619 2.3224-0.01373 1.107e-4 -0.36056-0.57938-0.77091-1.2877z"/></g></svg>
