<?xml version="1.0" encoding="UTF-8"?>
<!-- Created with Inkscape (http://www.inkscape.org/) -->
<svg id="svg1" width="24" height="24" version="1.1" viewBox="0 0 24 24" xml:space="preserve" xmlns="http://www.w3.org/2000/svg"><g id="g1"><path id="path10" d="m3.7578 25.229c-0.0074 0.0052-0.0043531 0.022295-0.0019531 0.041015 0.0187-0.0055 0.039241-0.010415 0.056641-0.015625-0.0025-0.0016-0.0302-0.02502-0.03125-0.02539-0.01096-0.0039-0.017978-0.0038-0.023438 0z"/><g id="g16" transform="matrix(.88953 0 0 .88953 1.3256 -.61169)"><g id="g15" transform="translate(.070215)" stroke-width="1.1242"><path id="path13" d="m17.31 12.541c-0.41281 0.10496-3.8592 1.0821-4.0488 1.2715-0.0184 0.0184-0.16379 0.52706-0.33984 1.1582 0.1797 0.19752 0.47108 0.49994 0.95898 0.99805 0.63359 0.64683 1.3835 1.4122 1.666 1.7031 0.2825 0.2909 0.55332 0.54787 0.60352 0.57031 0.05018 0.02247 0.12617 0.03439 0.16797 0.02539 0.04182-9e-3 0.34906-0.15182 0.68359-0.31641 0.33452-0.16459 0.80825-0.39 1.0508-0.50195 0.61935-0.28587 0.62682-0.29206 0.66602-0.47461 0.08416-0.39243 0.02102-0.48536-0.45312-0.66211-0.48081-0.18763-0.96219-0.37095-1.4434-0.55664-0.98815-0.38384-2.0153-0.8445-3.0215-1.1784l0.12733-0.41148c0.10677-0.02543 2.7406 0.59126 3.0266 0.66468 0.54299 0.1394 0.54015 0.13685 1.5375 0.39782 0.51639 0.13512 0.97773 0.24343 1.0195 0.25781 0.04181 0.01438 0.23343 0.06196 0.42578 0.10547 0.19236 0.0435 0.39101 0.08991 0.44141 0.10352 0.1562 0.0422 0.28812-0.04535 0.64258-0.42188 0.18107-0.19235 0.71329-0.73725 1.1816-1.2109 0.46836-0.47368 0.86852-0.89559 0.89062-0.9375 0.07653-0.1451-0.08644-0.42118-0.30664-0.51758-0.12184-0.05334-0.34184-0.05675-4.8184-0.06445-0.32603-5.62e-4 -0.37305-0.0013-0.6582-2e-3zm-3.6875 4.2363c-0.02615 0.0065-0.04102 0.04104-0.04102 0.10352 0 0.10802-0.11042 0.42976-0.20312 0.5957-0.0963 0.17228-0.35868 0.41728-0.55274 0.51562-0.28689 0.1454-0.26137-0.3343-0.23437 4.5605 0.0203 3.6924 0.02832 4.4731 0.04492 4.5449 0.02217 0.09602 0.4397-0.68651 0.62109-1.1641 0.05721-0.15054 0.12193-0.32232 0.14453-0.38086 0.0334-0.08661 0.04292-0.6374 0.04492-2.957 0.0013-1.5679 0.01057-2.8602 0.02148-2.8711 0.03043-0.03044 0.10593 0.04483 0.24414 0.24219 0.19828 0.28314 0.2273 0.32403 0.59766 0.83008 0.19235 0.26283 0.35949 0.49199 0.37109 0.50977 0.0465 0.07119 0.06129-0.01738 0.02539-0.1543-0.05568-0.21216-0.26765-0.88354-0.31445-0.99414-0.0221-0.05224-0.05732-0.14263-0.07813-0.20117-0.02075-0.05854-0.10359-0.29178-0.18359-0.51758-0.17261-0.48712-0.35397-1.1872-0.32617-1.2598 0.02272-0.05919-0.05537-0.107 0.70312 0.43555 1.3856 0.99111 1.51 1.0759 1.541 1.0449 0.04299-0.04299 0.02384-0.07246-0.30859-0.46289-0.1589-0.18662-0.54759-0.64292-0.86328-1.0137-0.52589-0.61764-0.9462-1.1099-1.1465-1.3398-0.0448-0.05141-0.08127-0.07287-0.10742-0.06641z"/><path id="path13-1" d="m6.5494 12.541c0.41281 0.10496 3.8592 1.0821 4.0488 1.2715 0.0184 0.0184 0.16379 0.52706 0.33984 1.1582-0.1797 0.19752-0.47108 0.49994-0.95898 0.99805-0.63359 0.64683-1.3835 1.4122-1.666 1.7031-0.2825 0.2909-0.55332 0.54787-0.60352 0.57031-0.05018 0.02247-0.12617 0.03439-0.16797 0.02539-0.04182-9e-3 -0.34906-0.15182-0.68359-0.31641-0.33452-0.16459-0.80825-0.39-1.0508-0.50195-0.61935-0.28587-0.62682-0.29206-0.66602-0.47461-0.08416-0.39243-0.02102-0.48536 0.45312-0.66211 0.48081-0.18763 0.96219-0.37095 1.4434-0.55664 0.98815-0.38384 2.0153-0.8445 3.0215-1.1784l-0.12733-0.41148c-0.10677-0.02543-2.7406 0.59126-3.0266 0.66468-0.54299 0.1394-0.54015 0.13685-1.5375 0.39782-0.51639 0.13512-0.97773 0.24343-1.0195 0.25781-0.04181 0.01438-0.23343 0.06196-0.42578 0.10547-0.19236 0.0435-0.39101 0.08991-0.44141 0.10352-0.1562 0.0422-0.28812-0.04535-0.64258-0.42188-0.18107-0.19235-0.71329-0.73725-1.1816-1.2109-0.46836-0.47368-0.86853-0.89559-0.89063-0.9375-0.07653-0.1451 0.08644-0.42118 0.30664-0.51758 0.12184-0.05334 0.34184-0.05675 4.8184-0.06445 0.32603-5.62e-4 0.37305-0.0013 0.6582-2e-3zm3.6875 4.2363c0.02615 0.0065 0.04102 0.04104 0.04102 0.10352 0 0.10802 0.11042 0.42976 0.20312 0.5957 0.0963 0.17228 0.35868 0.41728 0.55274 0.51562 0.28689 0.1454 0.26137-0.3343 0.23437 4.5605-0.0203 3.6924-0.02832 4.4731-0.04492 4.5449-0.02217 0.09602-0.4397-0.68651-0.62109-1.1641-0.05721-0.15054-0.12193-0.32232-0.14453-0.38086-0.0334-0.08661-0.04292-0.6374-0.04492-2.957-0.0013-1.5679-0.01057-2.8602-0.02148-2.8711-0.03043-0.03044-0.10593 0.04483-0.24414 0.24219-0.19828 0.28314-0.2273 0.32403-0.59766 0.83008-0.19235 0.26283-0.35949 0.49199-0.37109 0.50977-0.0465 0.07119-0.06129-0.01738-0.02539-0.1543 0.05568-0.21216 0.26765-0.88354 0.31445-0.99414 0.0221-0.05224 0.05732-0.14263 0.07813-0.20117 0.02075-0.05854 0.10359-0.29178 0.18359-0.51758 0.17261-0.48712 0.35397-1.1872 0.32617-1.2598-0.02272-0.05919 0.05537-0.107-0.70313 0.43555-1.3856 0.99111-1.51 1.0759-1.541 1.0449-0.04299-0.04299-0.02384-0.07246 0.30859-0.46289 0.1589-0.18662 0.54759-0.64292 0.86328-1.0137 0.52589-0.61764 0.9462-1.1099 1.1465-1.3398 0.0448-0.05141 0.08127-0.07287 0.10742-0.06641z"/></g><path id="path8" d="m12.006 1.25c-0.08317-0.012916-0.22195 0.45104-1.002 3.3613-0.49759 1.8566-0.91679 3.4033-0.93164 3.4375-0.020907 0.048022-0.14588-0.056034-0.54883-0.45898-0.58575-0.58575-0.57887-0.52597-0.091797-0.76172 0.10249-0.049583 0.21116-0.1135 0.24023-0.14258 0.060834-0.060834 0.50113-1.6557 0.4668-1.6914-0.077458-0.081824-1.2234 0.37406-1.8125 0.7207-0.45766 0.26934-1.1389 0.78117-1.1602 0.87109-0.0094 0.039776 0.54382 0.61608 1.6562 1.7285 1.3696 1.3696 1.6837 1.667 1.7383 1.6426 0.03665-0.016327 0.366-1.1496 0.73242-2.5176 0.36642-1.3679 0.68506-2.4863 0.70703-2.4863 0.02193 0 0.15573 0.43676 0.29883 0.97266 0.87943 3.2932 1.0809 4.0047 1.1406 4.0312 0.05489 0.024401 0.36014-0.26863 1.7383-1.6621 1.6722-1.6907 1.6725-1.6898 1.4492-1.8945-0.3277-0.30057-0.86749-0.66118-1.3633-0.9082-0.45227-0.22534-1.3549-0.5469-1.4004-0.5-0.03699 0.038567 0.39749 1.626 0.46289 1.6914 0.02997 0.029968 0.13775 0.094948 0.24023 0.14453 0.48692 0.23567 0.49357 0.17635-0.08789 0.75781-0.28484 0.28484-0.52753 0.50763-0.53906 0.49609-0.011507-0.011506-0.11329-0.36623-0.22656-0.78906-0.11327-0.42284-0.52158-1.9524-0.9082-3.3984-0.57365-2.1457-0.72016-2.6323-0.79883-2.6445zm7.4961 3.1016c-0.01627 0.00317-0.03379 0.0092-0.05273 0.019531-0.5515 0.30051-2.3207 1.3514-2.3281 1.3828-0.01735 0.073266 1.0596 1.12 1.123 1.0918 0.03123-0.013903 0.31936-0.47947 0.64062-1.0352 0.32126-0.55569 0.6295-1.0866 0.68359-1.1797 0.09297-0.16006 0.04752-0.30152-0.06641-0.2793zm-15.014 0.0019531c-0.090115 0.0010346-0.15466 0.11209-0.095703 0.21094 0.032979 0.055302 0.33392 0.57995 0.66992 1.166 0.6759 1.1791 0.67499 1.1761 0.74219 1.1172 0.213-0.18772 1.0703-1.0635 1.0703-1.0938 0-0.029008-1.7806-1.0874-2.3262-1.3828-0.014754-0.00799-0.028767-0.013479-0.042969-0.015625-0.00621-9.39e-4 -0.011571-0.00202-0.017578-0.00195zm2.1055 2.8047c-0.089918 0.021224-0.60179 0.70248-0.87109 1.1602-0.34656 0.58899-0.80057 1.7348-0.71875 1.8125 0.013074 0.012481 0.40255-0.080865 0.86719-0.20703 0.84483-0.22937 0.84642-0.23005 0.95117-0.45898 0.24526-0.53577 0.18601-0.5386 0.77539 0.050781 0.40295 0.40295 0.50699 0.5279 0.45898 0.54883-0.034174 0.01488-1.5809 0.43405-3.4375 0.93164-2.9103 0.78001-3.3742 0.91678-3.3613 1 1.837e-4 0.0012 0.0035 0.0027 0.00391 0.0039h3.7188c-0.00355-0.0023-0.019531-0.0084-0.019531-0.0098 0-0.02194 1.1184-0.33865 2.4863-0.70508 1.368-0.36637 2.5013-0.69577 2.5176-0.73238 0.024284-0.054591-0.27099-0.36865-1.6406-1.7383-1.1124-1.1124-1.6907-1.6656-1.7305-1.6562zm10.852 0.10156c-0.16537-0.015727-0.48196 0.29858-1.75 1.5527-1.3944 1.3792-1.6866 1.6832-1.6621 1.7383 0.01635 0.03673 1.1495 0.36731 2.5176 0.73438 1.368 0.36706 2.4883 0.68548 2.4883 0.70703 0 6.37e-4 -0.0215 0.0067-0.02344 0.0078h3.7207c3.56e-4 -0.0071 0.0032-0.01361 2e-3 -0.02148-0.0092-0.05903-0.0453-0.10828-0.08398-0.11328-0.03763-0.0048-0.6621-0.16973-1.3887-0.36523-0.72657-0.1955-2.0569-0.55133-2.9551-0.79102-2.0924-0.55841-2.3813-0.63716-2.4043-0.66016-0.01043-0.01043 0.21358-0.25264 0.49805-0.53711 0.28447-0.28447 0.52355-0.50969 0.53125-0.50195s0.09024 0.15509 0.18164 0.32812c0.09139 0.17303 0.20274 0.33676 0.24805 0.36328 0.15118 0.088509 1.6051 0.45094 1.6289 0.40625 0.03962-0.07437-0.24666-0.8656-0.49219-1.3613-0.25997-0.52488-0.60462-1.0476-0.91211-1.3828-0.0512-0.055818-0.08941-0.098273-0.14453-0.10352zm-5.4492 0.62695c-0.02053 3.589e-4 -0.04079 0.00759-0.05664 0.023437-0.03171 0.031709-0.23866 0.73791-0.46094 1.5684-0.22228 0.83046-0.42168 1.5271-0.44336 1.5488-0.0217 0.0217-0.72033 0.22303-1.5508 0.44531-0.83046 0.22228-1.5347 0.42924-1.5664 0.46094-0.018492 0.01849-0.022594 0.0422-0.019531 0.06641-0.00306 0.02421 0.00104 0.04792 0.019531 0.06641 0.031702 0.0317 0.73595 0.2386 1.5664 0.46094 0.83045 0.22228 1.5291 0.42361 1.5508 0.44531 0.02168 0.02169 0.22108 0.71837 0.44336 1.5488 0.22228 0.83046 0.42923 1.5366 0.46094 1.5684 0.0317 0.03165 0.08262 0.03257 0.11328 2e-3 0.03059-0.0306 0.24033-0.73762 0.46484-1.5703 0.22452-0.83269 0.42486-1.5303 0.44531-1.5508 0.0306-0.0306 2.2148-0.63576 2.8633-0.79297 0.17746-0.04303 0.27969-0.11277 0.27539-0.17773 0.0043-0.06496-0.09793-0.13471-0.27539-0.17773-0.64845-0.15721-2.8327-0.76237-2.8633-0.79297-0.02045-0.02045-0.2208-0.71809-0.44531-1.5508-0.22452-0.83269-0.43426-1.5397-0.46484-1.5703-0.01533-0.015334-0.03612-0.021843-0.05664-0.021484z" stroke-width="1.1242"/></g></g></svg>
