<?xml version="1.0" encoding="UTF-8" standalone="no"?>
<!-- Created with Inkscape (http://www.inkscape.org/) -->

<svg
   version="1.1"
   id="svg1"
   width="24"
   height="24"
   viewBox="0 0 24 24"
   sodipodi:docname="soterrano.svg"
   inkscape:version="1.3.2 (091e20e, 2023-11-25, custom)"
   xml:space="preserve"
   xmlns:inkscape="http://www.inkscape.org/namespaces/inkscape"
   xmlns:sodipodi="http://sodipodi.sourceforge.net/DTD/sodipodi-0.dtd"
   xmlns="http://www.w3.org/2000/svg"
   xmlns:svg="http://www.w3.org/2000/svg"><defs
     id="defs1"><inkscape:path-effect
       effect="fillet_chamfer"
       id="path-effect15"
       is_visible="true"
       lpeversion="1"
       nodesatellites_param="F,0,0,1,0,0,0,1 @ F,0,0,1,0,0,0,1 @ F,0,0,1,0,0,0,1 @ F,0,0,1,0,0,0,1 @ F,0,0,1,0,0,0,1 @ F,0,0,1,0,0,0,1 @ F,0,0,1,0,0,0,1 @ F,0,0,1,0,0,0,1 @ F,0,0,1,0,0,0,1 @ F,0,0,1,0,0,0,1 @ F,0,0,1,0,0,0,1 @ F,0,0,1,0,0,0,1 @ F,0,0,1,0,0,0,1 @ F,0,0,1,0,0,0,1 @ F,0,0,1,0,0,0,1 @ F,0,0,1,0,0,0,1 @ F,0,0,1,0,0,0,1 @ F,0,0,1,0,0,0,1 @ F,0,0,1,0,0,0,1 @ F,0,0,1,0,0,0,1 @ F,0,0,1,0,0,0,1 @ F,0,0,1,0,0,0,1 @ F,0,0,1,0,0,0,1 @ F,0,0,1,0,0,0,1 @ F,0,0,1,0,0,0,1 @ F,0,0,1,0,0,0,1 @ F,0,0,1,0,0,0,1 @ F,0,0,1,0,0,0,1 | F,0,0,1,0,0,0,1 @ F,0,0,1,0,0,0,1 @ F,0,0,1,0,0,0,1 @ F,0,0,1,0,0,0,1 @ F,0,0,1,0,0,0,1 @ F,0,0,1,0,0,0,1 @ F,0,0,1,0,0,0,1 @ F,0,0,1,0,0,0,1 @ F,0,0,1,0,0,0,1 @ F,0,0,1,0,0,0,1 @ F,0,0,1,0,0,0,1 @ F,0,0,1,0,0,0,1 @ F,0,0,1,0,0,0,1 @ F,0,0,1,0,0,0,1 @ F,0,0,1,0,0,0,1 @ F,0,0,1,0,0,0,1 @ F,0,0,1,0,0,0,1 @ F,0,0,1,0,0,0,1 @ F,0,0,1,0,0,0,1 @ F,0,0,1,0,0,0,1 @ F,0,0,1,0,0,0,1 @ F,0,0,1,0,0,0,1 @ F,0,0,1,0,0,0,1 @ F,0,0,1,0,0,0,1"
       radius="0"
       unit="px"
       method="auto"
       mode="F"
       chamfer_steps="1"
       flexible="false"
       use_knot_distance="true"
       apply_no_radius="true"
       apply_with_radius="true"
       only_selected="false"
       hide_knots="false" /></defs><sodipodi:namedview
     id="namedview1"
     pagecolor="#ffffff"
     bordercolor="#111111"
     borderopacity="1"
     inkscape:showpageshadow="0"
     inkscape:pageopacity="0"
     inkscape:pagecheckerboard="1"
     inkscape:deskcolor="#d1d1d1"
     inkscape:zoom="8"
     inkscape:cx="-6.4375"
     inkscape:cy="5.0625"
     inkscape:window-width="1366"
     inkscape:window-height="697"
     inkscape:window-x="-8"
     inkscape:window-y="-8"
     inkscape:window-maximized="1"
     inkscape:current-layer="g1"
     showguides="false" /><g
     inkscape:groupmode="layer"
     inkscape:label="Image"
     id="g1"><path
       id="path10"
       style="fill:#000000;stroke-width:0.999999"
       d="M 3.7578125 25.228516 C 3.7504125 25.233716 3.7534594 25.250811 3.7558594 25.269531 C 3.7745594 25.264031 3.7951 25.259116 3.8125 25.253906 C 3.81 25.252306 3.7823 25.228886 3.78125 25.228516 C 3.77029 25.224616 3.7632725 25.224716 3.7578125 25.228516 z " /><g
       id="g16"
       transform="matrix(0.88953299,0,0,0.88953299,1.3256041,-0.611687)"
       style="stroke-width:1.12419"><g
         id="g15"
         transform="translate(0.07021515)"
         style="stroke-width:1.12419"><path
           id="path13"
           style="fill:#000000;stroke-width:1.12418"
           d="m 17.310207,12.54129 c -0.412812,0.104957 -3.859209,1.082054 -4.048782,1.271483 -0.0184,0.0184 -0.16379,0.527056 -0.339843,1.158203 0.179699,0.197525 0.471081,0.499944 0.958984,0.998047 0.633587,0.646826 1.383516,1.412228 1.666016,1.703125 0.282497,0.290896 0.553316,0.547873 0.603515,0.570313 0.05018,0.02247 0.126169,0.03439 0.167969,0.02539 0.04182,-0.009 0.349064,-0.151815 0.683594,-0.316407 0.334517,-0.164592 0.808251,-0.390004 1.050781,-0.501953 0.619347,-0.285869 0.626816,-0.292061 0.666016,-0.474609 0.08416,-0.392431 0.02102,-0.485363 -0.453125,-0.66211 -0.480806,-0.187627 -0.962194,-0.370948 -1.44336,-0.556637 C 15.833819,15.3723 14.806648,14.91163 13.800496,14.577777 l 0.127329,-0.411483 c 0.106774,-0.02543 2.740599,0.591264 3.026567,0.664679 0.542986,0.139398 0.540148,0.13685 1.537502,0.397822 0.516386,0.13512 0.977732,0.243433 1.019531,0.257813 0.04181,0.01438 0.233434,0.06196 0.425782,0.105468 0.192359,0.0435 0.391006,0.08991 0.441406,0.103516 0.156198,0.0422 0.288118,-0.04535 0.642578,-0.421875 0.18107,-0.192349 0.713293,-0.737253 1.181641,-1.210938 0.468358,-0.473685 0.868525,-0.89559 0.890625,-0.9375 0.07653,-0.145096 -0.08644,-0.421178 -0.306641,-0.517578 -0.12184,-0.05334 -0.341837,-0.05675 -4.818359,-0.06445 -0.326031,-5.62e-4 -0.373054,-0.0013 -0.658203,-0.002 z m -3.6875,4.236328 c -0.02615,0.0065 -0.04102,0.04104 -0.04102,0.103516 0,0.10802 -0.110425,0.429765 -0.203125,0.595703 -0.0963,0.172283 -0.358677,0.417285 -0.552735,0.515625 -0.286889,0.145396 -0.261374,-0.3343 -0.234374,4.560547 0.0203,3.692402 0.02832,4.473122 0.04492,4.544922 0.02217,0.09602 0.439705,-0.68651 0.621094,-1.164063 0.05721,-0.150536 0.121931,-0.322319 0.144531,-0.380859 0.0334,-0.08661 0.04292,-0.637396 0.04492,-2.957032 0.0013,-1.567933 0.01057,-2.860204 0.02148,-2.871093 0.03043,-0.03044 0.105932,0.04483 0.24414,0.242187 0.19828,0.283145 0.227297,0.324027 0.597657,0.830078 0.192347,0.262826 0.359493,0.491986 0.371093,0.509766 0.0465,0.07119 0.06129,-0.01738 0.02539,-0.154297 -0.05568,-0.212157 -0.267653,-0.883544 -0.314453,-0.994141 -0.0221,-0.05224 -0.05732,-0.142631 -0.07813,-0.201171 -0.02075,-0.05854 -0.103594,-0.291775 -0.183594,-0.517579 -0.17261,-0.487124 -0.353972,-1.187235 -0.326172,-1.259765 0.02272,-0.05919 -0.05537,-0.106996 0.703125,0.435547 1.385605,0.991111 1.510016,1.075882 1.541016,1.044922 0.04299,-0.04299 0.02384,-0.07246 -0.308594,-0.462891 -0.1589,-0.186616 -0.547593,-0.642917 -0.863281,-1.013672 -0.525889,-0.617637 -0.946195,-1.109949 -1.146485,-1.339844 -0.0448,-0.05141 -0.08127,-0.07287 -0.107421,-0.06641 z"
           sodipodi:nodetypes="cccsscsscccsccsssccsccsscccsccccccccssccscccscscccc" /><path
           id="path13-1"
           style="fill:#000000;stroke-width:1.12418"
           d="m 6.5493627,12.54129 c 0.412812,0.104957 3.8592093,1.082054 4.0487823,1.271483 0.0184,0.0184 0.16379,0.527056 0.339843,1.158203 -0.179699,0.197525 -0.471081,0.499944 -0.9589843,0.998047 -0.633587,0.646826 -1.383516,1.412228 -1.666016,1.703125 -0.282497,0.290896 -0.553316,0.547873 -0.603515,0.570313 -0.05018,0.02247 -0.126169,0.03439 -0.167969,0.02539 -0.04182,-0.009 -0.349064,-0.151815 -0.683594,-0.316407 -0.334517,-0.164592 -0.808251,-0.390004 -1.050781,-0.501953 -0.619347,-0.285869 -0.626816,-0.292061 -0.666016,-0.474609 -0.08416,-0.392431 -0.02102,-0.485363 0.453125,-0.66211 0.480806,-0.187627 0.962194,-0.370948 1.44336,-0.556637 0.988153,-0.383835 2.015324,-0.844505 3.0214763,-1.178358 L 9.9317447,14.166294 c -0.106774,-0.02543 -2.740599,0.591264 -3.026567,0.664679 -0.542986,0.139398 -0.540148,0.13685 -1.537502,0.397822 -0.516386,0.13512 -0.977732,0.243433 -1.019531,0.257813 -0.04181,0.01438 -0.233434,0.06196 -0.425782,0.105468 -0.192359,0.0435 -0.391006,0.08991 -0.441406,0.103516 -0.156198,0.0422 -0.288118,-0.04535 -0.642578,-0.421875 -0.18107,-0.192349 -0.713293,-0.737253 -1.181641,-1.210938 -0.468358,-0.473685 -0.86852501,-0.89559 -0.89062501,-0.9375 -0.07653,-0.145096 0.08644,-0.421178 0.30664101,-0.517578 0.12184,-0.05334 0.341837,-0.05675 4.818359,-0.06445 0.326031,-5.62e-4 0.373054,-0.0013 0.658203,-0.002 z m 3.6875003,4.236328 c 0.02615,0.0065 0.04102,0.04104 0.04102,0.103516 0,0.10802 0.110425,0.429765 0.203125,0.595703 0.0963,0.172283 0.358677,0.417285 0.552735,0.515625 0.286889,0.145396 0.261374,-0.3343 0.234374,4.560547 -0.0203,3.692402 -0.02832,4.473122 -0.04492,4.544922 -0.02217,0.09602 -0.439705,-0.68651 -0.621094,-1.164063 -0.05721,-0.150536 -0.121931,-0.322319 -0.144531,-0.380859 -0.0334,-0.08661 -0.04292,-0.637396 -0.04492,-2.957032 -0.0013,-1.567933 -0.01057,-2.860204 -0.02148,-2.871093 -0.03043,-0.03044 -0.105932,0.04483 -0.24414,0.242187 -0.1982803,0.283145 -0.2272973,0.324027 -0.5976573,0.830078 -0.192347,0.262826 -0.359493,0.491986 -0.371093,0.509766 -0.0465,0.07119 -0.06129,-0.01738 -0.02539,-0.154297 0.05568,-0.212157 0.267653,-0.883544 0.314453,-0.994141 0.0221,-0.05224 0.05732,-0.142631 0.07813,-0.201171 0.02075,-0.05854 0.103594,-0.291775 0.183594,-0.517579 0.17261,-0.487124 0.3539723,-1.187235 0.3261723,-1.259765 -0.02272,-0.05919 0.05537,-0.106996 -0.7031253,0.435547 -1.385605,0.991111 -1.510016,1.075882 -1.541016,1.044922 -0.04299,-0.04299 -0.02384,-0.07246 0.308594,-0.462891 0.1589,-0.186616 0.547593,-0.642917 0.863281,-1.013672 0.525889,-0.617637 0.946195,-1.109949 1.1464853,-1.339844 0.0448,-0.05141 0.08127,-0.07287 0.107421,-0.06641 z"
           sodipodi:nodetypes="cccsscsscccsccsssccsccsscccsccccccccssccscccscscccc" /></g><path
         id="path8"
         style="fill:#000000;stroke-width:1.12419"
         d="m 12.005859,1.25 c -0.08317,-0.012916 -0.221952,0.4510393 -1.001953,3.3613281 -0.497592,1.8565825 -0.91679,3.4033122 -0.93164,3.4375 C 10.051359,8.0968504 9.9263881,7.9927942 9.5234375,7.5898438 8.9376882,7.0040936 8.9445666,7.0638782 9.4316406,6.828125 9.5341291,6.7785423 9.642798,6.7146237 9.671875,6.6855469 9.7327091,6.6247125 10.173002,5.0298486 10.138672,4.9941406 10.061214,4.9123169 8.9153133,5.3681964 8.3261719,5.7148438 7.8685134,5.9841841 7.1872883,6.4960123 7.1660156,6.5859375 c -0.0094,0.039776 0.543816,0.6160814 1.65625,1.7285156 1.3696324,1.3696327 1.6836504,1.6669588 1.7382814,1.6425781 0.03665,-0.016327 0.366001,-1.1496235 0.732422,-2.5175781 C 11.659387,6.0715058 11.97803,4.953125 12,4.953125 c 0.02193,0 0.155728,0.4367586 0.298828,0.9726562 0.87943,3.293224 1.080885,4.0046592 1.140625,4.03125 0.05489,0.024401 0.360138,-0.268628 1.738281,-1.6621093 1.672202,-1.6907387 1.672492,-1.6897684 1.449219,-1.8945313 -0.327703,-0.3005725 -0.867491,-0.6611779 -1.363281,-0.9082031 -0.452273,-0.2253449 -1.354871,-0.546896 -1.400391,-0.5 -0.03699,0.038567 0.397491,1.6260003 0.462891,1.6914063 0.02997,0.029968 0.137748,0.094948 0.240234,0.1445312 0.486925,0.2356703 0.49357,0.1763515 -0.08789,0.7578125 -0.28484,0.284839 -0.527533,0.5076287 -0.539063,0.4960937 C 13.927946,8.0705248 13.826167,7.7158038 13.712891,7.2929688 13.599621,6.870127 13.19131,5.3406003 12.804688,3.8945312 12.231037,1.7488622 12.084529,1.262225 12.005859,1.25 Z m 7.496094,3.1015625 c -0.01627,0.00317 -0.03379,0.0092 -0.05273,0.019531 -0.551501,0.3005102 -2.320725,1.3513876 -2.328125,1.3828124 -0.01735,0.073266 1.059577,1.1200459 1.123047,1.0917969 0.03123,-0.013903 0.319365,-0.4794711 0.640625,-1.0351562 0.321257,-0.5556854 0.629503,-1.0866407 0.683593,-1.1796875 0.09297,-0.160059 0.04752,-0.3015187 -0.06641,-0.2792966 z M 4.4882812,4.3535156 C 4.3981662,4.3545502 4.3336213,4.4656102 4.3925781,4.5644531 4.4255575,4.6197551 4.7265029,5.1444077 5.0625,5.7304688 5.7384035,6.909524 5.7374857,6.9065702 5.8046875,6.8476562 6.0176831,6.659939 6.875,5.7841572 6.875,5.7539062 6.875,5.7248983 5.0944435,4.666507 4.5488281,4.3710938 c -0.014754,-0.00799 -0.028767,-0.013479 -0.042969,-0.015625 -0.00621,-9.39e-4 -0.011571,-0.00202 -0.017578,-0.00195 z M 6.59375,7.1582031 C 6.5038317,7.1794275 5.9919622,7.8606802 5.7226562,8.3183594 5.376092,8.9073487 4.9220896,10.053186 5.0039062,10.130859 5.0169807,10.14334 5.4064594,10.049994 5.8710938,9.9238281 6.7159208,9.6944569 6.7175117,9.69378 6.8222656,9.4648438 7.0675225,8.9290774 7.0082732,8.9262421 7.5976562,9.515625 c 0.4029505,0.4029506 0.506986,0.5279 0.4589844,0.548828 -0.034174,0.01488 -1.5809245,0.434053 -3.4375,0.931641 -2.9102958,0.780007 -3.3742437,0.916775 -3.3613281,1 1.837e-4,0.0012 0.0035,0.0027 0.00391,0.0039 h 3.71875 c -0.00355,-0.0023 -0.019531,-0.0084 -0.019531,-0.0098 0,-0.02194 1.118374,-0.338651 2.4863281,-0.705078 C 8.81522,10.918743 9.9485438,10.589344 9.9648438,10.552734 9.9891276,10.498143 9.6938512,10.184086 8.3242188,8.8144531 7.2117846,7.702019 6.633532,7.1488131 6.59375,7.1582031 Z m 10.851562,0.1015625 c -0.165374,-0.015727 -0.481965,0.2985836 -1.75,1.5527344 -1.394406,1.379212 -1.686629,1.683231 -1.662109,1.738281 0.01635,0.03673 1.149542,0.367313 2.517578,0.734375 1.368045,0.367056 2.488281,0.685482 2.488281,0.707032 0,6.37e-4 -0.0215,0.0067 -0.02344,0.0078 h 3.720703 c 3.56e-4,-0.0071 0.0032,-0.01361 0.002,-0.02148 -0.0092,-0.05903 -0.0453,-0.108282 -0.08398,-0.113282 -0.03763,-0.0048 -0.662103,-0.169733 -1.388672,-0.365234 -0.72657,-0.195502 -2.056903,-0.551326 -2.955078,-0.791016 -2.092418,-0.558412 -2.381287,-0.637156 -2.404297,-0.660156 -0.01043,-0.01043 0.21358,-0.252643 0.498047,-0.5371092 0.284466,-0.2844663 0.52355,-0.5096932 0.53125,-0.5019532 0.0077,0.00774 0.09024,0.1550916 0.181641,0.328125 0.09139,0.1730337 0.202736,0.3367593 0.248046,0.3632813 0.15118,0.088509 1.605067,0.4509401 1.628907,0.4062501 0.03962,-0.07437 -0.246662,-0.8656 -0.492188,-1.3613282 -0.259969,-0.5248814 -0.604625,-1.0475614 -0.912109,-1.3828126 -0.0512,-0.055818 -0.08941,-0.098273 -0.144532,-0.1035156 z m -5.449218,0.6269532 c -0.02053,3.589e-4 -0.04079,0.00759 -0.05664,0.023437 -0.03171,0.031709 -0.238659,0.7379058 -0.460937,1.5683594 -0.222285,0.8304598 -0.42168,1.5271388 -0.44336,1.5488288 -0.0217,0.0217 -0.720328,0.223033 -1.550781,0.445312 -0.8304603,0.222284 -1.5347045,0.429238 -1.5664062,0.460938 -0.018492,0.01849 -0.022594,0.0422 -0.019531,0.06641 -0.00306,0.02421 0.00104,0.04792 0.019531,0.06641 0.031702,0.0317 0.7359459,0.238604 1.5664062,0.460938 0.830453,0.222279 1.529081,0.423612 1.550781,0.445312 0.02168,0.02169 0.221075,0.718369 0.44336,1.548828 0.222278,0.830455 0.429227,1.53665 0.460937,1.56836 0.0317,0.03165 0.08262,0.03257 0.113281,0.002 0.03059,-0.0306 0.240327,-0.73762 0.464844,-1.570313 0.224516,-0.832691 0.424863,-1.530331 0.445313,-1.550781 0.0306,-0.0306 2.214827,-0.635758 2.863281,-0.792969 0.177461,-0.04303 0.27969,-0.112774 0.27539,-0.177734 0.0043,-0.06496 -0.09793,-0.134707 -0.27539,-0.177734 -0.648454,-0.157211 -2.832681,-0.762369 -2.863281,-0.792969 -0.02045,-0.02045 -0.220797,-0.71809 -0.445313,-1.5507818 -0.224517,-0.8326914 -0.434256,-1.5397165 -0.464844,-1.5703125 -0.01533,-0.015334 -0.03612,-0.021843 -0.05664,-0.021484 z" /></g></g></svg>
