<?xml version="1.0" encoding="UTF-8"?>
<!-- Created with Inkscape (http://www.inkscape.org/) -->
<svg id="svg1" width="24" height="24" version="1.1" viewBox="0 0 24 24" xmlns="http://www.w3.org/2000/svg">
 <g id="g1">
  <path id="path20" d="m12 0.99805c-0.01212 0-0.02401 0.0045-0.0332 0.01367-9.5e-4 9.5e-4 -0.01727 0.06051-0.01953 0.06641-0.0022-0.0056-0.01861-0.06353-0.01953-0.06445-0.0092-0.0092-0.02109-0.01367-0.03321-0.01367v0.25586c-0.08591 0.284-0.27405 0.95832-0.52539 1.8965-0.31031 1.1583-0.59552 2.1531-0.63281 2.2109-0.01616 0.02506-0.05536 0.05092-0.10547 0.07813-0.84378 0.17521-1.6279 0.50807-2.3223 0.9668-0.0128 0.0025-0.03343 0.01172-0.04297 0.01172-0.066 0-0.4548-0.19342-0.86523-0.42969-0.41044-0.23628-1.2789-0.73755-1.9297-1.1133-0.6854-0.39568-1.204-0.66322-1.2305-0.63672-0.02645 0.02645 0.19289 0.45578 0.51953 1.0215 0.31017 0.53717 0.81143 1.4042 1.1133 1.9258 0.30185 0.52159 0.54883 1.0038 0.54883 1.0723 0 0.0079-0.0082 0.02513-0.0098 0.03516-0.47188 0.70788-0.81142 1.511-0.98633 2.3711-0.02069 0.03294-0.04306 0.05773-0.0625 0.07031-0.05782 0.0374-1.051 0.32091-2.209 0.63086-1.158 0.30992-2.122 0.57904-2.1406 0.59764-0.0093 0.0094-0.01367 0.02273-0.01367 0.03516s0.0044 0.02586 0.01367 0.03516c0.01865 0.0186 0.98262 0.28772 2.1406 0.59766 1.158 0.30995 2.1512 0.59346 2.209 0.63086 0.01944 0.01258 0.04181 0.03737 0.0625 0.07031 0.17491 0.86009 0.51445 1.6632 0.98633 2.3711 0.0016 0.01003 0.0098 0.02726 0.0098 0.03516 0 0.0685-0.24698 0.55068-0.54883 1.0723-0.30185 0.52159-0.80312 1.3886-1.1133 1.9258-0.32665 0.56571-0.54598 0.99504-0.51953 1.0215 0.02645 0.0265 0.54507-0.24104 1.2305-0.63672 0.65082-0.37573 1.5193-0.877 1.9297-1.1133 0.41044-0.23627 0.79923-0.42969 0.86523-0.42969 0.0096 0 0.03017 0.0092 0.04297 0.01172 0.69437 0.45873 1.4785 0.79159 2.3223 0.9668 0.05011 0.0272 0.08931 0.05307 0.10547 0.07813 0.03729 0.0578 0.3225 1.0527 0.63281 2.2109 0.25134 0.93814 0.43948 1.6125 0.52539 1.8965v0.25586c0.01212 0 0.024-0.0045 0.0332-0.01367 9.2e-4 -9.2e-4 0.01733-0.05885 0.01953-0.06445 0.0023 0.0059 0.01858 0.06546 0.01953 0.06641 0.0092 0.0092 0.02108 0.01367 0.0332 0.01367v-0.25976c0.08591-0.284 0.27413-0.95829 0.52539-1.8965 0.31031-1.1583 0.59552-2.1531 0.63281-2.2109 0.01616-0.02506 0.05536-0.05092 0.10547-0.07813 0.84378-0.17521 1.6279-0.50807 2.3223-0.9668 0.0128-0.0024 0.03337-0.01172 0.04297-0.01172 0.066 0 0.4548 0.19342 0.86524 0.42969 0.41043 0.23628 1.2789 0.73755 1.9297 1.1133 0.6854 0.39568 1.204 0.66322 1.2305 0.63672 0.02645-0.02645-0.19289-0.45578-0.51953-1.0215-0.31017-0.53717-0.81143-1.4042-1.1133-1.9258-0.30185-0.52159-0.54883-1.0038-0.54883-1.0723 0-0.0079 0.0082-0.02513 0.0098-0.03516 0.47188-0.70788 0.81142-1.511 0.98633-2.3711 0.02069-0.03293 0.04306-0.05773 0.0625-0.07031 0.05782-0.0374 1.051-0.32091 2.209-0.63086 1.158-0.30993 2.122-0.57906 2.1406-0.59766 0.0089-0.0089 0.01324-0.02138 0.01367-0.0332-4.28e-4 -0.01182-0.0048-0.0243-0.01367-0.0332-0.01865-0.0186-0.98262-0.28772-2.1406-0.59766-1.158-0.30995-2.1512-0.59346-2.209-0.63086-0.01944-0.01258-0.04181-0.03738-0.0625-0.07031-0.17491-0.86009-0.51445-1.6632-0.98633-2.3711-0.0016-0.01003-0.0098-0.02724-0.0098-0.03516 0-0.0685 0.24698-0.55068 0.54883-1.0723 0.30185-0.52159 0.80312-1.3886 1.1133-1.9258 0.32664-0.56571 0.54598-0.99503 0.51953-1.0215-0.02645-0.0265-0.54507 0.24104-1.2305 0.63672-0.65082 0.37573-1.5193 0.877-1.9297 1.1133-0.41044 0.23627-0.79924 0.42969-0.86524 0.42969-0.0096 0-0.03017-0.0093-0.04297-0.01172-0.69437-0.45873-1.4785-0.79159-2.3223-0.9668-0.05011-0.0272-0.08931-0.05307-0.10547-0.07813-0.03729-0.0578-0.32251-1.0527-0.63281-2.2109-0.2513-0.93815-0.43948-1.6125-0.52539-1.8965zm-4.2031 0.83203c-2e-3 2.49e-4 -0.0042 9.51e-4 -0.0059 2e-3 -0.04733 0.02741-0.018 0.28931 0.1582 1.6406 0.11536 0.8847 0.21562 1.4695 0.26367 1.5449 0.0616 0.09674 0.11006 0.11685 0.24023 0.09766 0.21366-0.03163 1.1819-0.44003 1.2324-0.51953 0.11778-0.18526 0.0246-0.34548-0.88867-1.5352-0.51134-0.66609-0.95202-1.2195-0.98047-1.2285-0.0049-0.0016-0.0094-0.0019-0.01367-2e-3 -0.0021-4.3e-5 -0.0039-2.48e-4 -0.0059 0zm8.2949 2e-3c-0.0043 8.7e-5 -0.0088 2.92e-4 -0.01367 0.0019-0.02845 9e-3 -0.46913 0.56243-0.98047 1.2285-0.91327 1.1897-1.0065 1.3499-0.88867 1.5352 0.05051 0.0795 1.0188 0.4879 1.2324 0.51953 0.13018 0.01921 0.17864-9.07e-4 0.24024-0.09765 0.04805-0.0754 0.14832-0.66023 0.26367-1.5449 0.1762-1.3513 0.20553-1.6132 0.1582-1.6406-0.0034-2e-3 -0.0074-0.0019-0.01172-0.0019zm-4.1973 5.2168v0.0039c0.03541 1e-5 0.0699-0.0027 0.10547-2e-3 2.7058 0.05731 4.8528 2.2574 4.8535 4.9492-7.61e-4 2.6918-2.1477 4.8919-4.8535 4.9492-0.03557 7e-4 -0.07006-2e-3 -0.10547-2e-3v0.0039c-2.7065-0.057286-4.8538-2.2584-4.8535-4.9511-3.3e-4 -2.6927 2.1471-4.8938 4.8535-4.9512zm-10.01 0.72065c-0.0085 7.1e-4 -0.01528 0.0027-0.02148 0.0039-0.03309 0.0067-0.03779 0.02167-0.03125 0.04102 0.0095 0.02801 0.56112 0.46869 1.2266 0.98047 1.1906 0.91559 1.3524 1.0093 1.5391 0.89062 0.07944-0.05051 0.48595-1.0207 0.51758-1.2344 0.0193-0.13032 0.0011-0.17728-0.0957-0.23828-0.07392-0.04652-0.6776-0.14999-1.543-0.26367-0.86282-0.11334-1.2824-0.16653-1.4805-0.17773-0.04952-0.0028-0.08596-4e-3 -0.11133-0.0019zm20.096 2e-3c-0.02185-3.29e-4 -0.04902 4.1e-5 -0.08203 0.0019-0.19806 0.0112-0.61765 0.06439-1.4805 0.17774-0.86537 0.11359-1.469 0.21715-1.543 0.26367-0.0968 0.061-0.11501 0.10796-0.0957 0.23828 0.03163 0.21367 0.43814 1.1839 0.51758 1.2344 0.18671 0.11871 0.34844 0.02497 1.5391-0.89062 0.66545-0.51178 1.2171-0.95246 1.2266-0.98047 0.0065-0.01935 0.0019-0.03433-0.03125-0.04102-0.01241-0.0025-0.02893-0.0036-0.05078-0.0039zm-9.9805 0.51953c-0.03512-1.2e-5 -0.0703 0.0012-0.10547 2e-3 -0.01368 2.85e-4 -0.02735-5.59e-4 -0.04101 0-0.18907 0.0077-0.37831 0.02951-0.56641 0.06836-1.4095 0.29114-2.5165 1.3233-2.8691 2.6738-0.04113 0.15756-0.06074 0.29855-0.04492 0.31445 0.05039 0.0504 1.6293 0.02901 1.8652-0.02539 0.74033-0.17068 1.3156-0.67464 1.6133-1.4141 0.02965-0.07364 0.06559-0.13601 0.0957-0.17383 0.03005 0.03788 0.06616 0.1024 0.0957 0.17578 0.29769 0.73943 0.87295 1.2434 1.6133 1.4141 0.23589 0.0544 1.8148 0.07579 1.8652 0.02539 0.01582-0.0159-0.0038-0.15689-0.04492-0.31445-0.35268-1.3506-1.4597-2.3827-2.8691-2.6738-0.18809-0.03885-0.37734-0.06064-0.56641-0.06836-0.01368-5.58e-4 -0.02734 2.86e-4 -0.04102 0zm2.9707 4.3281c-0.49562-0.0013-1.167 0.02069-1.3145 0.05469-0.74033 0.17068-1.3156 0.67464-1.6133 1.4141-0.02954 0.07338-0.06565 0.1379-0.0957 0.17578-0.03011-0.03782-0.06605-0.10019-0.0957-0.17383-0.29769-0.73943-0.87295-1.2434-1.6133-1.4141-0.23589-0.0544-1.8148-0.07579-1.8652-0.02539-0.01582 0.0159 0.0038 0.15689 0.04492 0.31445 0.35268 1.3506 1.4597 2.3827 2.8691 2.6738 0.18809 0.03885 0.37734 0.06066 0.56641 0.06836 0.01366 5.59e-4 0.02733-2.86e-4 0.04101 0 0.03517 9e-4 0.07035 2e-3 0.10547 2e-3v-0.0039c0.01368-2.86e-4 0.02734 5.58e-4 0.04102 0 0.18907-0.0077 0.37831-0.02951 0.56641-0.06836 1.4095-0.29114 2.5165-1.3233 2.8691-2.6738 0.04112-0.15756 0.06074-0.29855 0.04492-0.31445-0.0189-0.0189-0.25341-0.02854-0.55078-0.0293zm4.4355 1.6523c-0.0402 0.0033-0.07437 0.01876-0.10938 0.04102-0.07944 0.05051-0.48595 1.0207-0.51758 1.2344-0.01931 0.13032-0.0011 0.17728 0.0957 0.23828 0.07392 0.04652 0.6776 0.15008 1.543 0.26367 0.86282 0.11334 1.2824 0.16654 1.4805 0.17773 0.03301 0.0019 0.06018 0.0023 0.08203 2e-3s0.03837-0.0014 0.05078-0.0039c0.03315-0.0067 0.03775-0.02167 0.03125-0.04102-0.0095-0.02801-0.56112-0.46869-1.2266-0.98047-0.96738-0.74392-1.2555-0.94595-1.4297-0.93164zm-14.939 0.0019c-0.17673 0.0027-0.47803 0.21633-1.4082 0.93164-0.66545 0.51178-1.2171 0.95246-1.2266 0.98047-0.0065 0.01935-0.0019 0.03432 0.03125 0.04102 0.0062 0.0012 0.01299 0.0032 0.02148 0.0039 0.02537 0.0021 0.06181 8.47e-4 0.11133-2e-3 0.19806-0.0112 0.61765-0.06439 1.4805-0.17774 0.86537-0.11368 1.469-0.21715 1.543-0.26367 0.0968-0.061 0.115-0.10796 0.0957-0.23828-0.03163-0.21361-0.43814-1.1838-0.51758-1.2343-0.04084-0.02597-0.08138-0.04176-0.13086-0.04101zm11.059 4.6035c-0.02381-6.97e-4 -0.05144 0.0011-0.08398 0.0059-0.21366 0.03163-1.1819 0.44003-1.2324 0.51953-0.11778 0.18526-0.0246 0.34548 0.88867 1.5352 0.51134 0.66609 0.95202 1.2195 0.98047 1.2285 0.0049 0.0017 0.0094 0.0019 0.01367 2e-3 0.0043 0 0.0083 4.7e-5 0.01172-2e-3 0.04733-0.02741 0.018-0.28931-0.1582-1.6406-0.11536-0.8847-0.21562-1.4695-0.26367-1.5449-0.0462-0.07256-0.08482-0.10142-0.15625-0.10352zm-7.1562 2e-3c-0.07144 0.0021-0.11006 0.03096-0.15625 0.10352-0.04805 0.0754-0.14831 0.66023-0.26367 1.5449-0.1762 1.3513-0.20553 1.6132-0.1582 1.6406 0.0034 2e-3 0.0074 2e-3 0.01172 2e-3 0.0043-1e-4 0.0088-3.53e-4 0.01367-2e-3 0.02845-9e-3 0.46913-0.56243 0.98047-1.2285 0.91327-1.1897 1.0065-1.3499 0.88867-1.5352-0.05051-0.0795-1.0188-0.4879-1.2324-0.51953-0.03254-0.0048-0.06017-0.0066-0.08398-0.0059z"/>
 </g>
</svg>
