<?xml version="1.0" encoding="UTF-8"?>
<!-- Created with Inkscape (http://www.inkscape.org/) -->
<svg id="svg1" width="24" height="24" version="1.1" viewBox="0 0 24 24" xmlns="http://www.w3.org/2000/svg">
 <g id="g1">
  <path id="path1" d="m4.1658 11.373c0.03277-0.34237 0.12932-0.96702 0.16988-1.0991 0.03191-0.10405 0.13818-0.07869 0.52753 0.1259 0.40605 0.21337 0.71881 0.4289 0.71855 0.49517-1.07e-4 0.02401-0.04941 0.17074-0.10964 0.3261-0.35271 0.91009-0.36543 2.022-0.03499 3.0587 0.13817 0.43351 0.43141 1.0837 0.50079 1.1105 0.07754 0.02988 0.10754-0.03039 0.37064-0.74436 0.19004-0.51571 0.26024-0.76203 0.29883-1.0485 0.0277-0.20596 0.08566-0.46893 0.12873-0.58438 0.09361-0.25096 0.28908-0.55777 0.35534-0.55777 0.06832 0 0.25404 0.29642 0.23137 0.36927-0.0105 0.03376-0.06489 0.17091-0.12091 0.30478-0.21395 0.51154-0.14389 1.2496 0.18685 1.9681 0.6478 1.4073 2.324 2.8252 3.3401 2.8252 0.47287 0 0.70852-0.23262 0.77032-0.76041 0.08581-0.73287-0.39657-1.5483-1.1367-1.9215-0.17821-0.08986-0.25636-0.1062-0.51158-0.10701-0.27434-7.17e-4 -0.31368 0.0086-0.4406 0.10565-0.07665 0.05862-0.17561 0.18149-0.21992 0.27302-0.11583 0.23931-0.20779 0.21466-0.2985-0.08005-0.14092-0.45775-0.12213-0.99581 0.04805-1.3764 0.05897-0.13185 0.06268-0.16743 0.0217-0.20876-0.04105-0.04142-0.10648-0.0172-0.38841 0.14369-0.18654 0.10646-0.35854 0.18143-0.38236 0.16666-0.0317-0.01971-0.03612-0.18022-0.0165-0.60049l0.02678-0.57363-0.12251-0.21725c-0.73902-1.3105-1.8276-2.3905-3.007-2.9834-0.10628-0.05338-0.20365-0.11406-0.21639-0.13475-0.05704-0.0927-0.0879-0.46438-0.05519-0.66595 0.04491-0.27717 0.14412-0.46512 0.49584-0.93949 0.16061-0.21661 0.28611-0.42334 0.28611-0.47128 0-0.26648 0.32883-0.46618 0.77282-0.46932 0.26205-0.0021 0.29124 0.02494 0.3043 0.27922 0.01942 0.37775 0.21907 0.79429 0.5313 1.1084 0.25024 0.25176 0.54397 0.40033 0.85624 0.43309 0.22518 0.02365 0.23013 0.02659 0.29413 0.17745 0.03577 0.08439 0.1022 0.26589 0.14756 0.40336 0.10764 0.32625 0.1443 0.35514 0.31915 0.25159 0.11951-0.0708 0.1551-0.07585 0.27636-0.03941 0.19578 0.0589 0.43165 0.22428 0.71389 0.50061 0.2184 0.21381 1.2222 1.3037 1.4015 1.5216 0.03969 0.04823 0.26694 0.24536 0.50501 0.43804 0.93618 0.75768 1.6962 1.7474 2.3281 3.0317 0.4949 1.0059 0.68324 1.6616 0.71528 2.4903 0.02199 0.56811-0.02721 0.86961-0.19648 1.2049-0.13444 0.26627-0.42222 0.56035-0.66527 0.67981-0.35378 0.17387-0.43658 0.11449-0.213-0.1528 0.50458-0.60326 0.58869-1.4418 0.24757-2.4682-0.26606-0.80051-0.64551-1.3993-1.3073-2.063-0.25158-0.2523-0.48484-0.45873-0.51836-0.45873-0.11675 0-0.10102 0.10889 0.04748 0.32833 0.45928 0.67886 0.86855 1.6853 1.0341 2.5432 0.0939 0.48643 0.08606 1.1931-0.01685 1.5155-0.14828 0.46473-0.45042 0.79438-0.87194 0.95134-0.30353 0.11303-1.1562 0.09641-1.7902-0.03489-1.1603-0.2403-2.1513-0.67376-3.126-1.3673-0.39159-0.27864-1.1024-0.94789-1.4165-1.3338-0.95521-1.1734-1.5705-2.5972-1.7498-4.049-0.05804-0.4702-0.0765-1.2312-0.03927-1.6203zm1.9025-3.3092c0.13258 0.05625 0.18516 0.0994 0.18516 0.15205 0 0.11995 0.08476 0.16503 0.18188 0.09674 0.10845-0.07624 0.09283-0.22732-0.03263-0.31583-0.12136-0.0856-0.56772-0.13744-0.53911-0.06264 0.01071 0.02809 0.10287 0.08646 0.20471 0.12965zm0.21063 7.9309c0.13521 0.20145 0.4535 0.59889 0.64246 0.80226 0.13406 0.14427 0.16153 0.15916 0.20723 0.11234 0.04534-0.04651 0.04512-0.14494-0.0015-0.7093-0.04947-0.59622-0.06582-0.68241-0.18119-0.95546-0.06975-0.16506-0.13817-0.34552-0.15205-0.40102-0.0287-0.11477-0.10658-0.19289-0.17084-0.17139-0.0422 0.01412-0.4314 1.0022-0.43981 1.1166-0.0021 0.03125 0.04084 0.12394 0.0959 0.20596zm1.1738 0.89004 0.04326 0.47878 0.17149 0.14166c0.24946 0.20608 0.61515 0.45485 0.6686 0.45485 0.0937 0 0.08276-0.11414-0.05212-0.54409-0.11807-0.3763-0.16304-0.46805-0.31019-0.63295-0.09465-0.10608-0.23201-0.26677-0.30524-0.35709-0.09504-0.11723-0.15108-0.1573-0.19586-0.14006-0.07491 0.02888-0.074 0.0014-0.01992 0.59891zm1.2827 1.0566 0.09433 0.31041 0.26223 0.09756c0.43112 0.1604 0.48608 0.12164 0.32974-0.23252-0.06169-0.13969-0.13443-0.21552-0.357-0.37205-0.26659-0.1875-0.42362-0.24503-0.42362-0.15521 0 0.02278 0.04241 0.18108 0.09433 0.35181zm0.07792-6.9353c0.15478 0.30747 0.35604 0.42158 0.71381 0.40467 0.13667-0.0064 0.09738-0.06421-0.13057-0.19185-0.11799-0.06607-0.30194-0.18564-0.40878-0.26571-0.10685-0.08006-0.20338-0.14557-0.21452-0.14557-0.0367 0-0.02121 0.07675 0.04005 0.19846zm1.0693 7.4689c0.0609 0.07901 0.57942 0.04292 0.59809-0.04164 0.01178-0.05325-0.58271-0.21068-0.63408-0.16789-0.04498 0.03748-0.0302 0.12362 0.03598 0.20952zm-1.9126-12.726c0.05019-0.29776 0.23923-0.59689 0.47649-0.75394 0.13585-0.08991 0.23187-0.09858 0.23187-0.02092 0 0.0215-0.05348 0.14809-0.11879 0.28131-0.23599 0.48115-0.17364 1.1316 0.17542 1.8304 0.09364 0.18743 0.2519 0.44249 0.35169 0.56679 0.117 0.14575 0.23047 0.35054 0.3195 0.57667 0.07593 0.19286 0.2627 0.59424 0.41503 0.89195 0.26674 0.5213 0.30099 0.63831 0.18682 0.63831-0.0835 0-0.80074-0.77409-1.0685-1.1532-0.76919-1.0891-1.1021-2.0703-0.96951-2.8573zm1.326-0.22956c0.11362-0.47049 0.43838-0.90434 0.81578-1.0898 0.35378-0.17387 0.43658-0.11449 0.213 0.1528-0.50458 0.60326-0.5887 1.4418-0.24757 2.4682 0.26606 0.80051 0.64551 1.3993 1.3073 2.063 0.25158 0.2523 0.48484 0.45873 0.51836 0.45873 0.11675 0 0.10102-0.10889-0.04748-0.32833-0.45987-0.67973-0.87024-1.6895-1.0336-2.5432-0.085-0.44425-0.08717-1.1198-0.0042-1.431 0.16036-0.60448 0.53266-0.96965 1.117-1.0957 0.28144-0.0607 1.0037-0.01576 1.566 0.09744 1.1456 0.23062 2.1377 0.66391 3.1339 1.3688 0.43153 0.30532 1.3184 1.1841 1.6439 1.629 1.3139 1.7955 1.8273 3.9362 1.4589 6.0824-0.07295 0.42495-0.083 0.45221-0.16671 0.45221-0.17045 0-1.1548-0.58546-1.1544-0.6866 1.07e-4 -0.02401 0.0494-0.17074 0.10964-0.3261 0.35271-0.91009 0.36543-2.022 0.03498-3.0587-0.13816-0.4335-0.4314-1.0837-0.50078-1.1105-0.07754-0.02988-0.10754 0.03038-0.37064 0.74436-0.19004 0.51571-0.26024 0.76203-0.29883 1.0485-0.02777 0.20596-0.08566 0.46893-0.12873 0.58438-0.09361 0.25096-0.28908 0.55777-0.35534 0.55777-0.06833 0-0.25404-0.29642-0.23137-0.36927 0.01049-0.03376 0.0649-0.17091 0.12091-0.30479 0.21393-0.51154 0.14387-1.2496-0.18687-1.9681-0.61438-1.3347-2.2124-2.7337-3.2168-2.816-0.31289-0.02566-0.47652 0.01176-0.62541 0.14297-0.40698 0.35868-0.35553 1.2688 0.10657 1.885 0.09113 0.12152 0.25251 0.29243 0.35864 0.37981 0.65904 0.54264 1.3651 0.51703 1.6025-0.05811 0.03491-0.08452 0.06861-0.11274 0.12503-0.10451 0.05862 0.0085 0.09393 0.06543 0.14642 0.23595 0.14092 0.45776 0.12213 0.99581-0.04805 1.3764-0.05897 0.13185-0.06269 0.16743-0.0217 0.20877 0.04106 0.04142 0.10648 0.0172 0.38841-0.14369 0.18654-0.10646 0.35854-0.18143 0.38236-0.16666 0.0317 0.0197 0.03612 0.18022 0.01649 0.60049l-0.02678 0.57363 0.12251 0.21725c0.73902 1.3105 1.8276 2.3905 3.007 2.9834 0.10628 0.05339 0.20365 0.11406 0.21639 0.13475 0.05711 0.0927 0.0879 0.46438 0.05526 0.66595-0.04491 0.27717-0.14412 0.46511-0.49585 0.93949-0.18362 0.24766-0.2861 0.42054-0.2861 0.48265 0 0.26327-0.337 0.45959-0.78892 0.45959-0.2441 0-0.27534-0.03046-0.2882-0.28085-0.01942-0.37775-0.21907-0.79429-0.53129-1.1084-0.24927-0.25078-0.54381-0.40031-0.85231-0.43267-0.1238-0.01298-0.23971-0.04228-0.25758-0.06507-0.01785-0.02286-0.08607-0.20454-0.15155-0.40382-0.06546-0.19927-0.14143-0.38095-0.16877-0.40372-0.03734-0.03111-0.08383-0.02121-0.18689 0.03984-0.11996 0.07101-0.15482 0.07593-0.2778 0.03891-0.30844-0.09277-0.62307-0.37334-1.4984-1.3362-0.29888-0.3288-0.57589-0.63729-0.61558-0.68554-0.03969-0.04823-0.26694-0.24536-0.50501-0.43804-0.93658-0.758-1.6972-1.7487-2.3277-3.0317-0.50973-1.0373-0.73056-1.8453-0.7246-2.6513 0.0015-0.23067 0.02642-0.5159 0.0549-0.63386zm4.5224 0.18173c0.22281 0.06499 0.29854 0.07396 0.3336 0.03963 0.03562-0.0349 0.03526-0.06456-0.0014-0.13799-0.04277-0.08536-0.06797-0.0935-0.28786-0.093-0.24462 5.74e-4 -0.40256 0.03698-0.35734 0.08236 0.01371 0.01376 0.1546 0.06278 0.31313 0.10903zm0.78256 7.0922c0.11799 0.06607 0.30176 0.1855 0.40838 0.26539 0.23385 0.17524 0.28563 0.13505 0.13637-0.10585-0.12697-0.20493-0.25144-0.30425-0.43272-0.34529-0.14364-0.03254-0.32654-0.01233-0.32654 0.03612 0 0.01619 0.09653 0.08357 0.21452 0.14964zm-0.02513-6.8979c0.06168 0.13969 0.13443 0.21552 0.357 0.37205 0.26659 0.1875 0.42362 0.24503 0.42362 0.1552 0-0.02279-0.04241-0.18108-0.09433-0.35181l-0.09433-0.31041-0.26223-0.09756c-0.43113-0.1604-0.48608-0.12165-0.32974 0.23252zm1.141 0.7112c0.11309 0.36042 0.16316 0.46438 0.2914 0.60506 0.08516 0.09342 0.2188 0.2499 0.29698 0.34773 0.1394 0.17446 0.21737 0.2157 0.26416 0.13973 0.01292-0.021 0.0028-0.26584-0.02199-0.54414l-0.04548-0.50598-0.1717-0.14184c-0.46623-0.38515-0.74997-0.5281-0.74997-0.37784 0 0.02315 0.06147 0.23793 0.13656 0.47729zm1.1734 1.3553c0.03134 0.38284 0.0664 0.59269 0.11887 0.7115 0.0409 0.09269 0.11187 0.26916 0.1577 0.39216 0.08549 0.22948 0.17502 0.32949 0.2348 0.26233 0.01792-0.02013 0.12079-0.27897 0.2286-0.57521 0.15318-0.42088 0.1881-0.55593 0.15976-0.61788-0.05376-0.11745-0.46151-0.64875-0.67615-0.88096-0.16255-0.17586-0.19508-0.19597-0.24697-0.15273-0.04256 0.0354-0.05419 0.08846-0.04042 0.1838 0.01064 0.0737 0.03933 0.37835 0.06383 0.677zm0.70468 8.0534c0.12136 0.0856 0.56771 0.13744 0.5391 0.06263-0.01077-0.02809-0.10286-0.08646-0.20471-0.12965-0.13259-0.05625-0.18517-0.0994-0.18517-0.15205 0-0.11995-0.08475-0.16503-0.18188-0.09674-0.10845 0.07624-0.09283 0.22732 0.03263 0.31583zm-3.6343-1.7499c0.04048-0.01555 0.14754 0.0647 0.33865 0.25395 0.7611 0.75358 1.3755 1.7292 1.6417 2.6071 0.08297 0.27359 0.09964 0.40016 0.1 0.75899 4.65e-4 0.46239-0.0332 0.592-0.22721 0.87391-0.1637 0.23791-0.4946 0.42462-0.4946 0.27907 0-0.0215 0.05348-0.14809 0.11879-0.28131 0.23599-0.48115 0.17364-1.1316-0.17542-1.8304-0.09364-0.18743-0.25311-0.444-0.35437-0.57014-0.12238-0.15244-0.2289-0.3458-0.3177-0.57666-0.07347-0.19103-0.25855-0.58998-0.41129-0.88654-0.15273-0.29657-0.2777-0.55408-0.2777-0.57225 0-0.01821 0.02663-0.04328 0.05919-0.05583z"/>
  <path id="path4" d="m12 1.5c-0.44424 0-0.88848 0.017996-1.1836 0.052734-0.007138 8.406e-4 -0.014351 0.0010991-0.021484 0.0019531-2.2062 0.26411-4.1842 1.1637-5.8594 2.666-1.1736 1.0525-2.1754 2.5079-2.7363 3.9766-0.33358 0.87348-0.53855 1.7039-0.64648 2.6152-0.069968 0.59079-0.069968 1.7783 0 2.3691 0.19944 1.6842 0.77013 3.2446 1.6934 4.6289 1.3445 2.0159 3.3345 3.5053 5.6387 4.2207 0.83347 0.25877 1.408 0.3657 2.4863 0.46094 0.27056 0.023948 1.4596-0.010455 1.8281-0.052735 1.3391-0.15374 2.7182-0.59322 3.8652-1.2324 1.7162-0.95635 3.1277-2.3554 4.0938-4.0547 0.68269-1.2008 1.1208-2.5497 1.2891-3.9707 0.06997-0.59079 0.06997-1.7784 0-2.3691-0.007315-0.061768-0.018999-0.12213-0.027344-0.18359-0.45184-3.3276-2.4055-6.1979-5.3555-7.8418-1.1493-0.64043-2.5121-1.0732-3.8809-1.2344-0.29512-0.034738-0.73936-0.052734-1.1836-0.052734zm0.076172 1.4414c0.17324 0.0017615 0.34636 0.0090964 0.52148 0.021484 0.27523 0.01947 0.55322 0.049511 0.8418 0.095703 3.3598 0.53779 6.1352 2.9426 7.1758 6.1621 0.050911 0.15751 0.10207 0.31526 0.14453 0.47656 0.81158 3.0833-0.07306 6.3931-2.3105 8.6484-1.4322 1.4436-3.1563 2.3103-5.207 2.6211-0.45721 0.06928-1.6153 0.10021-2.0547 0.054687-1.7566-0.1819-3.3138-0.79212-4.6875-1.8379-1.4951-1.1382-2.6238-2.7638-3.166-4.5586-0.48255-1.597-0.5163-3.3224-0.09375-4.9277 0.90375-3.4335 3.7513-6.0361 7.2461-6.625 0.55226-0.093048 1.0701-0.13614 1.5898-0.13086z"/>
 </g>
</svg>
