<?xml version="1.0" encoding="UTF-8" standalone="no"?>
<!-- Created with Inkscape (http://www.inkscape.org/) -->

<svg
   version="1.1"
   id="svg1"
   width="24"
   height="24"
   viewBox="0 0 24 24"
   sodipodi:docname="tianming.svg"
   inkscape:version="1.3.2 (091e20e, 2023-11-25, custom)"
   xmlns:inkscape="http://www.inkscape.org/namespaces/inkscape"
   xmlns:sodipodi="http://sodipodi.sourceforge.net/DTD/sodipodi-0.dtd"
   xmlns="http://www.w3.org/2000/svg"
   xmlns:svg="http://www.w3.org/2000/svg">
  <defs
     id="defs1" />
  <sodipodi:namedview
     id="namedview1"
     pagecolor="#ffffff"
     bordercolor="#111111"
     borderopacity="1"
     inkscape:showpageshadow="0"
     inkscape:pageopacity="0"
     inkscape:pagecheckerboard="1"
     inkscape:deskcolor="#d1d1d1"
     inkscape:zoom="7.9780093"
     inkscape:cx="26.385028"
     inkscape:cy="5.8285216"
     inkscape:window-width="1366"
     inkscape:window-height="697"
     inkscape:window-x="-8"
     inkscape:window-y="-8"
     inkscape:window-maximized="1"
     inkscape:current-layer="g1" />
  <g
     inkscape:groupmode="layer"
     inkscape:label="Image"
     id="g1">
    <path
       style="stroke-width:1;fill-opacity:1"
       d="m 4.1657589,11.373071 c 0.03277,-0.342372 0.129317,-0.96702 0.169875,-1.099136 0.03191,-0.104046 0.138177,-0.07869 0.527526,0.125902 0.406048,0.213373 0.718812,0.428904 0.718548,0.495169 -1.07e-4,0.02401 -0.04941,0.170735 -0.10964,0.326098 -0.352709,0.910086 -0.365432,2.021979 -0.03499,3.058718 0.13817,0.433506 0.431408,1.083745 0.500789,1.110468 0.07754,0.02988 0.107541,-0.03039 0.370643,-0.744359 0.190038,-0.515709 0.26024,-0.762034 0.298828,-1.048531 0.0277,-0.205963 0.08566,-0.468934 0.128731,-0.58438 0.09361,-0.250961 0.289076,-0.557767 0.355344,-0.557767 0.06832,0 0.254043,0.296422 0.231374,0.369266 -0.0105,0.03376 -0.06489,0.170913 -0.120913,0.304785 -0.213954,0.511538 -0.143888,1.249563 0.186846,1.968082 0.647804,1.40734 2.324049,2.825194 3.3400691,2.825194 0.472874,0 0.708517,-0.232623 0.770323,-0.760413 0.08581,-0.732872 -0.396574,-1.548292 -1.13669,-1.921471 -0.178214,-0.08986 -0.256362,-0.106204 -0.5115831,-0.107006 -0.27434,-7.17e-4 -0.313685,0.0086 -0.440603,0.105651 -0.07665,0.05862 -0.175608,0.181492 -0.219916,0.273025 -0.11583,0.239308 -0.207786,0.214656 -0.2985,-0.08005 -0.140917,-0.457754 -0.122133,-0.995807 0.04805,-1.376404 0.05897,-0.13185 0.06268,-0.16743 0.0217,-0.208765 -0.04105,-0.04142 -0.106484,-0.0172 -0.388414,0.143689 -0.186545,0.106461 -0.358541,0.181427 -0.382359,0.166658 -0.0317,-0.01971 -0.03612,-0.180215 -0.0165,-0.600492 l 0.02678,-0.573629 -0.122514,-0.217251 C 7.3395469,11.45564 6.2509479,10.37558 5.0715349,9.7826991 c -0.106277,-0.05338 -0.203652,-0.114064 -0.216388,-0.134752 -0.05704,-0.0927 -0.0879,-0.464378 -0.05519,-0.665948 0.04491,-0.277174 0.144123,-0.465115 0.49584,-0.939489 0.160608,-0.216612 0.286106,-0.423343 0.286106,-0.471284 0,-0.266482 0.328834,-0.466183 0.772821,-0.469322 0.262046,-0.0021 0.291239,0.02494 0.304297,0.279217 0.01942,0.377752 0.219066,0.794286 0.531296,1.108416 0.250236,0.251757 0.543974,0.400326 0.856245,0.43309 0.225178,0.02365 0.230133,0.02659 0.294131,0.177449 0.03577,0.08439 0.102201,0.265887 0.147558,0.403357 0.10764,0.326248 0.144302,0.355142 0.319153,0.251591 0.119507,-0.0708 0.155098,-0.07585 0.276361,-0.03941 0.195777,0.0589 0.431651,0.224279 0.713893,0.5006079 0.2183951,0.213811 1.2222211,1.303674 1.4014931,1.521604 0.03969,0.04823 0.266942,0.245364 0.505013,0.438042 0.936183,0.757675 1.696183,1.747391 2.328086,3.031737 0.494898,1.005884 0.683237,1.661591 0.715279,2.490254 0.02199,0.568107 -0.02721,0.869611 -0.196477,1.204925 -0.134436,0.266274 -0.422219,0.560353 -0.665274,0.679813 -0.35378,0.173874 -0.436576,0.114487 -0.213005,-0.152804 0.504579,-0.603258 0.588688,-1.441811 0.247574,-2.468153 -0.266058,-0.800507 -0.645512,-1.399315 -1.307273,-2.062975 -0.251579,-0.252301 -0.484838,-0.458731 -0.518358,-0.458731 -0.116751,0 -0.101016,0.10889 0.04748,0.328333 0.459279,0.678862 0.868547,1.685332 1.034138,2.543162 0.0939,0.486427 0.08606,1.193093 -0.01685,1.515535 -0.148278,0.464729 -0.450419,0.794381 -0.871938,0.951342 -0.303534,0.113033 -1.156189,0.09641 -1.790178,-0.03489 -1.1603091,-0.240297 -2.1513261,-0.673758 -3.1260231,-1.367296 -0.39159,-0.278636 -1.102357,-0.947894 -1.416499,-1.333786 -0.955206,-1.173365 -1.570524,-2.597188 -1.749803,-4.049016 -0.05804,-0.470203 -0.0765,-1.231152 -0.03927,-1.620291 z m 1.902495,-3.3092409 c 0.132585,0.05625 0.18516,0.0994 0.18516,0.152052 0,0.119948 0.08476,0.16503 0.181884,0.09674 0.108449,-0.07624 0.09283,-0.227319 -0.03263,-0.315829 -0.121363,-0.0856 -0.56772,-0.137441 -0.539106,-0.06264 0.01071,0.02809 0.102866,0.08646 0.20471,0.12965 z m 0.210634,7.9308709 c 0.135213,0.201449 0.453497,0.598894 0.642463,0.802256 0.134064,0.144269 0.16153,0.15916 0.20723,0.112344 0.04534,-0.04651 0.04512,-0.144936 -0.0015,-0.709303 -0.04947,-0.59622 -0.06582,-0.682409 -0.181192,-0.955455 -0.06975,-0.165059 -0.138169,-0.345525 -0.152048,-0.40102 -0.0287,-0.114767 -0.106578,-0.192892 -0.17084,-0.171394 -0.0422,0.01412 -0.4314,1.002244 -0.43981,1.116616 -0.0021,0.03125 0.04084,0.123939 0.0959,0.205956 z m 1.17383,0.890035 0.04326,0.47878 0.171489,0.141661 c 0.249465,0.206078 0.615147,0.454846 0.6686,0.454846 0.0937,0 0.08276,-0.114144 -0.05212,-0.544086 -0.118071,-0.376297 -0.163036,-0.468046 -0.310187,-0.632954 -0.09465,-0.106082 -0.23201,-0.26677 -0.305238,-0.357092 -0.09504,-0.117232 -0.151085,-0.157305 -0.195863,-0.140064 -0.07491,0.02888 -0.074,0.0014 -0.01992,0.598909 z m 1.282712,1.05657 0.09433,0.31041 0.262231,0.09756 c 0.431122,0.160401 0.486081,0.121645 0.329735,-0.232522 -0.06169,-0.139691 -0.134428,-0.215524 -0.357001,-0.372054 -0.266593,-0.187497 -0.423618,-0.245028 -0.423618,-0.155206 0,0.02278 0.04241,0.181082 0.09433,0.351811 z m 0.07792,-6.935281 c 0.154776,0.307473 0.356043,0.42158 0.713808,0.404668 0.13667,-0.0064 0.09738,-0.06421 -0.130573,-0.191853 -0.117986,-0.06607 -0.301941,-0.18564 -0.408783,-0.265708 -0.106848,-0.08006 -0.203381,-0.145568 -0.214518,-0.145568 -0.0367,0 -0.02121,0.07675 0.04005,0.198461 z m 1.069266,7.468903 c 0.0609,0.07901 0.5794151,0.04292 0.5980851,-0.04164 0.01178,-0.05325 -0.5827071,-0.210679 -0.6340751,-0.167889 -0.04498,0.03748 -0.0302,0.123624 0.03598,0.209518 z M 7.9700479,5.7485261 c 0.05019,-0.297763 0.239228,-0.596894 0.476493,-0.753942 0.135849,-0.08991 0.231867,-0.09858 0.231867,-0.02092 0,0.0215 -0.05348,0.148089 -0.118793,0.281309 -0.235987,0.481146 -0.173638,1.131649 0.175423,1.830354 0.09364,0.187432 0.251901,0.442491 0.351689,0.566788 0.117,0.145747 0.230467,0.350535 0.319503,0.576672 0.07593,0.192864 0.262703,0.594242 0.415029,0.891948 0.2667441,0.521305 0.3009921,0.638314 0.1868181,0.638314 -0.0835,0 -0.8007381,-0.774093 -1.0685161,-1.153219 -0.769188,-1.089054 -1.102135,-2.070314 -0.969513,-2.857292 z m 1.325992,-0.229562 c 0.113624,-0.47049 0.438375,-0.904338 0.8157801,-1.089829 0.353781,-0.173873 0.436577,-0.114487 0.213005,0.152805 -0.5045791,0.603257 -0.5886961,1.44181 -0.247574,2.468153 0.266058,0.800507 0.645512,1.399314 1.307272,2.062976 0.25158,0.2523 0.484839,0.458729 0.518359,0.458729 0.116751,0 0.101015,-0.108891 -0.04748,-0.328333 -0.45987,-0.679728 -0.870245,-1.689474 -1.033573,-2.543161 -0.085,-0.444247 -0.08717,-1.119783 -0.0042,-1.431026 0.160358,-0.604475 0.532658,-0.96965 1.117035,-1.09566 0.281444,-0.0607 1.003705,-0.01576 1.565955,0.09744 1.145587,0.230616 2.137654,0.663912 3.133898,1.368758 0.431527,0.305316 1.318417,1.184135 1.643925,1.628969 1.313891,1.795549 1.827338,3.9361829 1.458906,6.0823659 -0.07295,0.424948 -0.083,0.452207 -0.166713,0.452207 -0.170453,0 -1.154795,-0.585463 -1.154395,-0.6866 1.07e-4,-0.02401 0.0494,-0.170735 0.10964,-0.326097 0.352709,-0.910086 0.365432,-2.021978 0.03498,-3.0587179 -0.138162,-0.433504 -0.4314,-1.083744 -0.50078,-1.110466 -0.07754,-0.02988 -0.107543,0.03038 -0.370645,0.74436 -0.190037,0.515708 -0.260239,0.7620309 -0.298828,1.0485289 -0.02777,0.205962 -0.08566,0.468933 -0.128731,0.584381 -0.09361,0.25096 -0.289075,0.557766 -0.355344,0.557766 -0.06833,0 -0.254042,-0.296422 -0.231374,-0.369267 0.01049,-0.03376 0.0649,-0.170914 0.120913,-0.304786 0.213934,-0.511536 0.143868,-1.2495609 -0.186866,-1.9680799 -0.614384,-1.334739 -2.212403,-2.733667 -3.216806,-2.816042 -0.312887,-0.02566 -0.476515,0.01176 -0.625408,0.142966 -0.406983,0.358675 -0.355529,1.268818 0.106571,1.885024 0.09113,0.121517 0.252514,0.292431 0.358642,0.379808 0.659041,0.54264 1.365102,0.517027 1.602453,-0.05811 0.03491,-0.08452 0.06861,-0.112738 0.125032,-0.104512 0.05862,0.0085 0.09393,0.06543 0.146416,0.235954 0.140917,0.457756 0.122133,0.995808 -0.04805,1.376404 -0.05897,0.1318509 -0.06269,0.1674309 -0.0217,0.2087659 0.04106,0.04142 0.106484,0.0172 0.388414,-0.143689 0.186545,-0.1064609 0.358542,-0.1814259 0.382359,-0.1666569 0.0317,0.0197 0.03612,0.1802159 0.01649,0.6004909 l -0.02678,0.573631 0.122512,0.217251 c 0.739017,1.310481 1.827617,2.390543 3.007029,2.983423 0.106277,0.05339 0.203653,0.114065 0.216389,0.134753 0.05711,0.0927 0.0879,0.464378 0.05526,0.665948 -0.04491,0.277173 -0.144125,0.465114 -0.495848,0.939488 -0.183619,0.247656 -0.286098,0.420541 -0.286098,0.482651 0,0.263271 -0.336997,0.459589 -0.788923,0.459589 -0.244096,0 -0.275338,-0.03046 -0.288197,-0.28085 -0.01942,-0.377752 -0.219066,-0.794286 -0.531294,-1.108417 -0.249274,-0.250781 -0.543812,-0.400312 -0.852306,-0.432674 -0.123798,-0.01298 -0.239707,-0.04228 -0.257577,-0.06507 -0.01785,-0.02286 -0.08607,-0.204538 -0.151549,-0.403815 -0.06546,-0.199272 -0.141432,-0.380948 -0.168768,-0.403722 -0.03734,-0.03111 -0.08383,-0.02121 -0.18689,0.03984 -0.119956,0.07101 -0.154825,0.07593 -0.277802,0.03891 -0.308445,-0.09277 -0.623066,-0.373344 -1.498353,-1.336245 -0.298877,-0.3288 -0.575888,-0.63729 -0.615576,-0.68554 -0.03969,-0.04823 -0.266943,-0.245364 -0.505014,-0.43804 -0.93658,-0.758005 -1.697207,-1.748687 -2.3277051,-3.0317379 -0.509727,-1.037285 -0.730564,-1.845345 -0.724595,-2.651305 0.0015,-0.230667 0.02642,-0.515895 0.0549,-0.633858 z m 4.5223871,0.181727 c 0.222808,0.06499 0.298536,0.07396 0.333605,0.03963 0.03562,-0.0349 0.03526,-0.06456 -0.0014,-0.137992 -0.04277,-0.08536 -0.06797,-0.0935 -0.287861,-0.093 -0.244619,5.74e-4 -0.402558,0.03698 -0.357343,0.08236 0.01371,0.01376 0.154597,0.06278 0.313129,0.109026 z m 0.782561,7.0922329 c 0.117986,0.06607 0.301755,0.185503 0.408375,0.265392 0.233853,0.175236 0.285627,0.135047 0.13637,-0.105851 -0.126967,-0.204932 -0.251436,-0.304249 -0.43272,-0.345289 -0.143638,-0.03254 -0.326545,-0.01233 -0.326545,0.03612 0,0.01619 0.09653,0.08357 0.21452,0.149645 z m -0.02513,-6.8979139 c 0.06168,0.13969 0.134428,0.215523 0.357,0.372054 0.266594,0.187496 0.423618,0.245026 0.423618,0.155205 0,-0.02279 -0.04241,-0.181082 -0.09433,-0.35181 l -0.09433,-0.31041 -0.262232,-0.09756 c -0.431129,-0.160401 -0.486081,-0.121646 -0.329735,0.232522 z m 1.141017,0.711202 c 0.113089,0.360423 0.163157,0.464383 0.291396,0.605056 0.08516,0.09342 0.218802,0.249899 0.296979,0.347732 0.139404,0.174462 0.217374,0.215703 0.264159,0.139727 0.01292,-0.021 0.0028,-0.265845 -0.02199,-0.544137 l -0.04548,-0.505984 -0.171704,-0.14184 c -0.466233,-0.385147 -0.749968,-0.528099 -0.749968,-0.377845 0,0.02315 0.06147,0.237933 0.136556,0.477291 z m 1.173372,1.355349 c 0.03134,0.38284 0.0664,0.592688 0.118873,0.711495 0.0409,0.09269 0.111867,0.269163 0.157695,0.392164 0.08549,0.229476 0.175016,0.329494 0.234801,0.262326 0.01792,-0.02013 0.120792,-0.278974 0.228598,-0.57521 0.153176,-0.420885 0.188096,-0.555931 0.159759,-0.617883 -0.05376,-0.117447 -0.461506,-0.648749 -0.676146,-0.880962 -0.162552,-0.175859 -0.195079,-0.195974 -0.246974,-0.152733 -0.04256,0.0354 -0.05419,0.08846 -0.04042,0.183805 0.01064,0.0737 0.03933,0.378354 0.06383,0.676998 z m 0.704684,8.0534129 c 0.121363,0.0856 0.567713,0.137441 0.539105,0.06263 -0.01077,-0.02809 -0.102865,-0.08646 -0.204708,-0.129649 -0.132587,-0.05625 -0.185169,-0.0994 -0.185169,-0.152053 0,-0.119948 -0.08475,-0.16503 -0.181876,-0.09674 -0.108449,0.07624 -0.09283,0.227319 0.03263,0.31583 z m -3.634293,-1.749935 c 0.04048,-0.01555 0.147543,0.0647 0.338652,0.253948 0.761099,0.753576 1.375454,1.729218 1.64169,2.607149 0.08297,0.27359 0.09964,0.40016 0.100002,0.758993 4.65e-4,0.462392 -0.0332,0.591999 -0.227212,0.873911 -0.1637,0.23791 -0.494599,0.424618 -0.494599,0.279072 0,-0.0215 0.05348,-0.148089 0.118794,-0.281308 0.235987,-0.481146 0.173638,-1.13165 -0.175424,-1.830354 -0.09364,-0.187432 -0.253106,-0.443996 -0.354372,-0.570136 -0.122377,-0.152439 -0.228904,-0.345805 -0.317698,-0.576663 -0.07347,-0.19103 -0.258548,-0.589979 -0.411289,-0.886545 -0.152732,-0.296573 -0.277701,-0.554083 -0.277701,-0.572249 0,-0.01821 0.02663,-0.04328 0.05919,-0.05583 z"
       id="path1" />
    <path
       id="path4"
       style="stroke-width:1;fill-opacity:1"
       d="M 12 1.5 C 11.555763 1.5 11.111522 1.5179964 10.816406 1.5527344 C 10.809268 1.553575 10.802055 1.5538335 10.794922 1.5546875 C 8.5887688 1.8187982 6.6106985 2.718386 4.9355469 4.2207031 C 3.7619364 5.2732222 2.760108 6.7286081 2.1992188 8.1972656 C 1.8656346 9.0707416 1.6606646 9.9011176 1.5527344 10.8125 C 1.4827664 11.40329 1.4827664 12.590848 1.5527344 13.181641 C 1.7521766 14.865825 2.32286 16.426242 3.2460938 17.810547 C 4.5905768 19.826469 6.580566 21.31588 8.8847656 22.03125 C 9.7182341 22.290019 10.292785 22.396945 11.371094 22.492188 C 11.641657 22.516136 12.830699 22.481733 13.199219 22.439453 C 14.538299 22.285718 15.917397 21.846228 17.064453 21.207031 C 18.780663 20.250681 20.19213 18.851636 21.158203 17.152344 C 21.840892 15.951502 22.278989 14.602685 22.447266 13.181641 C 22.517236 12.590848 22.517236 11.40329 22.447266 10.8125 C 22.439951 10.750732 22.428267 10.690366 22.419922 10.628906 C 21.968081 7.3012926 20.014466 4.4310069 17.064453 2.7871094 C 15.915192 2.1466825 14.55234 1.7139314 13.183594 1.5527344 C 12.888473 1.5179964 12.444237 1.5 12 1.5 z M 12.076172 2.9414062 C 12.249416 2.9431677 12.422537 2.9505026 12.597656 2.9628906 C 12.872886 2.9823606 13.150877 3.0124015 13.439453 3.0585938 C 16.799302 3.5963815 19.574649 6.0012054 20.615234 9.2207031 C 20.666145 9.3782168 20.717308 9.5359651 20.759766 9.6972656 C 21.571347 12.780546 20.686706 16.090385 18.449219 18.345703 C 17.01706 19.789263 15.292954 20.655959 13.242188 20.966797 C 12.78498 21.036077 11.626916 21.067004 11.1875 21.021484 C 9.4309231 20.839579 7.8737493 20.229366 6.5 19.183594 C 5.0048711 18.045423 3.8762314 16.419775 3.3339844 14.625 C 2.8514339 13.028004 2.817687 11.302555 3.2402344 9.6972656 C 4.143986 6.2638004 6.991584 3.6611391 10.486328 3.0722656 C 11.038591 2.9792171 11.556439 2.936122 12.076172 2.9414062 z " />
  </g>
</svg>
