<?xml version="1.0" encoding="UTF-8"?>
<!-- Created with Inkscape (http://www.inkscape.org/) -->
<svg id="svg1" width="24" height="24" version="1.1" viewBox="0 0 24 24" xml:space="preserve" xmlns="http://www.w3.org/2000/svg"><g id="g1"><path id="path4" d="m12 1.4999c-0.44424 0-0.88848 0.018-1.1836 0.05273-0.0071 8.41e-4 -0.01435 0.0011-0.02148 2e-3 -2.2062 0.26411-4.1842 1.1637-5.8594 2.666-1.1736 1.0525-2.1754 2.5079-2.7363 3.9766-0.33358 0.87348-0.53855 1.7039-0.64648 2.6152-0.06997 0.59079-0.06997 1.7783 0 2.3691 0.19944 1.6842 0.77013 3.2446 1.6934 4.6289 1.3445 2.0159 3.3345 3.5053 5.6387 4.2207 0.83347 0.25877 1.408 0.3657 2.4863 0.46094 0.27056 0.02395 1.4596-0.01046 1.8281-0.05273 1.3391-0.15374 2.7182-0.59322 3.8652-1.2324 1.7162-0.95635 3.1277-2.3554 4.0938-4.0547 0.68269-1.2008 1.1208-2.5497 1.2891-3.9707 0.06997-0.59079 0.06997-1.7784 0-2.3691-0.0073-0.06177-0.019-0.12213-0.02734-0.18359-0.45184-3.3276-2.4055-6.1979-5.3555-7.8418-1.1493-0.64043-2.5121-1.0732-3.8809-1.2344-0.29512-0.03474-0.73936-0.05273-1.1836-0.05273zm0.07617 1.4414c0.17324 0.0018 0.34636 0.0091 0.52148 0.02148 0.27523 0.01947 0.55322 0.04951 0.8418 0.0957 3.3598 0.53779 6.1352 2.9426 7.1758 6.1621 0.05091 0.15751 0.10207 0.31526 0.14453 0.47656 0.81158 3.0833-0.07306 6.3931-2.3105 8.6484-1.4322 1.4436-3.1563 2.3103-5.207 2.6211-0.45721 0.06928-1.6153 0.10021-2.0547 0.05469-1.7566-0.1819-3.3138-0.79212-4.6875-1.8379-1.4951-1.1382-2.6238-2.7638-3.166-4.5586-0.48255-1.597-0.5163-3.3224-0.09375-4.9277 0.90375-3.4335 3.7514-6.0361 7.2461-6.625 0.55226-0.09305 1.0701-0.13614 1.5898-0.13086z"/><path id="path2" d="m5.2104 14.933c-0.23591-0.58958-0.22747-1.3219 0.023738-2.0585 0.01036-0.03039-0.00605-0.04009-0.043903-0.026-0.033248 0.01235-0.21137 0.0424-0.39584 0.06671-0.40651 0.05357-0.87087-0.02595-1.2451-0.21321-0.27937-0.13979-1.0352-0.65279-1.0492-0.71211-0.011567-0.04903 0.61729-0.50474 0.93082-0.67455 0.51102-0.27675 1.039-0.35812 1.5607-0.24054 0.12572 0.02832 0.2355 0.04452 0.24397 0.03599 0.00847-0.0085-0.03004-0.15764-0.085578-0.33134-0.13533-0.42327-0.13987-1.2121-0.0091434-1.5872 0.087695-0.25163 0.12865-0.30962 0.4806-0.68046 0.37264-0.39261 0.39363-0.40857 0.66734-0.50729 0.53761-0.19388 0.93792-0.11719 1.5067 0.28864 0.80371 0.57349 0.8614 1.3119 0.15749 2.0158-0.35026 0.35026-0.54111 0.42378-0.87448 0.33687-0.65511-0.17079-0.80359-0.88296-0.29096-1.3956 0.18817-0.18817 0.19369-0.23612 0.025879-0.22473-0.32428 0.02201-0.73237 0.43028-0.79216 0.79251-0.041411 0.25088 0.092057 0.73708 0.26428 0.9627 0.15503 0.2031 0.50374 0.38033 0.82122 0.41738 0.81297 0.09488 1.7556-0.67278 1.9277-1.5698 0.01956-0.10201 0.03865-0.18236 0.04243-0.17859 0.0038 0.0038 0.11034 0.17853 0.23683 0.38833 0.55727 0.92441 1.05 1.3012 1.8588 1.4217 0.10632 0.01584 0.10735 0.01445 0.0907-0.1216-0.03049-0.24925-0.13183-0.56197-0.2544-0.7851-0.17016-0.30976-0.71878-0.80566-1.1947-1.0799l-0.35831-0.20645 0.2274-0.05625c0.39626-0.098018 0.65007-0.24987 0.98975-0.59217 0.37649-0.37938 0.51406-0.65971 0.53733-1.0949 0.031897-0.59669-0.23751-1.0344-0.75701-1.2299-0.49749-0.18725-0.88634-0.099279-1.1945 0.27024-0.15974 0.19157-0.27808 0.48605-0.21904 0.54508 0.01604 0.01604 0.12751-0.053321 0.24772-0.15413 0.4833-0.4053 0.93056-0.39001 1.2612 0.043093 0.1295 0.16965 0.17438 0.48157 0.10154 0.70578-0.0672 0.20688-0.49798 0.64447-0.79066 0.80318-0.4806 0.26062-0.99644 0.11603-1.4436-0.40466-0.50596-0.58912-0.62089-1.0708-0.39484-1.6549 0.080428-0.20782 0.13988-0.28557 0.47334-0.61903 0.37398-0.37398 0.38765-0.38343 0.70547-0.48941 0.17826-0.059426 0.44625-0.11587 0.59553-0.12543 0.30555-0.019561 0.81503 0.054866 1.1341 0.16567l0.21292 0.073952-0.06011-0.30218c-0.15198-0.76416 0.04468-1.3453 0.79783-2.3576 0.11801-0.15862 0.12423-0.15434 0.44929 0.30967 0.56429 0.80551 0.71387 1.3471 0.56932 2.0612l-0.05825 0.28779 0.29229-0.088807c0.79626-0.24193 1.4489-0.18908 2.0526 0.1662 0.38529 0.22675 0.66144 0.56536 0.80781 0.99053 0.20114 0.58425 0.03412 1.1311-0.51348 1.6813-0.30833 0.30978-0.50522 0.41474-0.807 0.43015-0.35261 0.018005-0.62814-0.11392-0.99731-0.4775-0.27439-0.27024-0.31648-0.32886-0.35521-0.49484-0.09653-0.41359 0.19268-0.90258 0.58044-0.98139 0.22751-0.046243 0.55961 0.068483 0.81533 0.28166 0.2303 0.19198 0.28164 0.16957 0.19587-0.085498-0.094039-0.27959-0.289-0.49124-0.54725-0.59405-0.27077-0.1078-0.46776-0.10786-0.79024-2.406e-4 -0.44724 0.14926-0.66871 0.40406-0.7805 0.89794-0.17691 0.7816 0.51507 1.743 1.4557 2.0224 0.13828 0.041074 0.24464 0.081454 0.23635 0.089736-0.0083 0.0083-0.14846 0.09496-0.31151 0.19258-0.51204 0.30663-0.82316 0.55787-1.0311 0.83269-0.1987 0.26258-0.37767 0.69901-0.40379 0.98466l-0.01522 0.16648 0.23684-0.0376c0.72406-0.11495 1.2484-0.54817 1.7626-1.4562 0.08418-0.14868 0.16032-0.27757 0.16918-0.28643 0.0088-0.0088 0.04791 0.09824 0.08681 0.23801 0.21451 0.77114 0.96339 1.4399 1.662 1.4841 0.552 0.03497 1.0085-0.21747 1.2138-0.67123 0.24299-0.53707 0.12605-1.0521-0.30383-1.3381-0.19931-0.13261-0.43275-0.20895-0.48356-0.15814-0.01504 0.01505 0.02574 0.08044 0.09061 0.14531 0.16937 0.16937 0.33854 0.50194 0.35542 0.69873 0.0079 0.09311-0.02489 0.25737-0.07305 0.365-0.07551 0.16872-0.11252 0.21011-0.26863 0.30036-0.22013 0.12727-0.48536 0.16841-0.68893 0.10686-0.18545-0.05607-0.66102-0.51395-0.79971-0.76995-0.1335-0.24642-0.16432-0.59419-0.07632-0.86119 0.065-0.19723 0.11883-0.27468 0.35486-0.51066 0.54208-0.54196 1.0633-0.70897 1.6528-0.52958 1.0689 0.32532 1.5816 1.4691 1.2384 2.7628l-0.10481 0.39508 0.29153-0.06272c0.5325-0.11456 1.0322-0.02675 1.5811 0.27791 0.27728 0.1539 0.87859 0.58534 0.87858 0.63038-1.5e-5 0.0441-0.48929 0.40178-0.8116 0.59332-0.16328 0.09703-0.40546 0.21387-0.53818 0.25965-0.30362 0.10471-0.80271 0.12914-1.1394 0.05576-0.29198-0.06364-0.28226-0.09124-0.14356 0.40777 0.16358 0.58849 0.11997 1.229-0.11722 1.7221-0.16951 0.35241-0.65445 0.79888-1.0097 0.9296-0.31118 0.1145-0.68733 0.13848-0.93147 0.05936-0.40522-0.13132-0.94054-0.56585-1.1287-0.91619-0.24181-0.45022-0.15707-0.86961 0.27207-1.3465 0.28716-0.31911 0.46171-0.43283 0.71001-0.46257 0.30732-0.0368 0.7326 0.2275 0.82191 0.51082 0.0926 0.29372 0.01028 0.57897-0.26778 0.9281-0.19142 0.24035-0.16774 0.27522 0.11478 0.16908 0.23363-0.08778 0.52836-0.37372 0.6041-0.5861 0.08998-0.25224 0.04135-0.62936-0.12225-0.94818l-0.14578-0.28408-0.27712-0.14793c-0.88244-0.47106-2.0203 0.12761-2.3779 1.2511l-0.1076 0.33804-0.06527-0.1263c-0.31206-0.60385-0.85281-1.2303-1.25-1.448-0.11921-0.06536-0.36253-0.15019-0.54072-0.18852l-0.32398-0.0697 0.01474 0.16271c0.0082 0.08949 0.06808 0.31787 0.13328 0.50751 0.1163 0.33824 0.12538 0.35152 0.4764 0.69747 0.33062 0.32587 0.56552 0.49479 1.109 0.79763l0.09366 0.05218-0.20012 0.04079c-0.44527 0.09076-0.95281 0.42683-1.235 0.81776-0.34154 0.4731-0.41715 0.94891-0.23278 1.4648 0.08776 0.24552 0.13003 0.3101 0.28602 0.43689 0.19326 0.15708 0.57931 0.30793 0.81523 0.31856 0.35549 0.01602 0.80243-0.3098 0.94489-0.6888 0.03949-0.10504 0.05821-0.20455 0.0416-0.22115-0.0166-0.0166-0.11909 0.04087-0.22776 0.12772-0.4359 0.34837-0.75673 0.39788-1.1081 0.17102-0.26326-0.16996-0.40006-0.65213-0.27285-0.96173 0.07725-0.18801 0.49351-0.59989 0.74298-0.73521 0.21745-0.11792 0.61144-0.16936 0.81106-0.10586 0.06937 0.02205 0.22722 0.10658 0.35079 0.1878 0.18996 0.12488 0.25945 0.19811 0.45 0.47421 0.41623 0.60311 0.46913 1.0717 0.18513 1.6399-0.10717 0.21444-0.18719 0.31362-0.44478 0.55133-0.28453 0.26258-0.34681 0.30093-0.66174 0.40763-0.51451 0.1743-1.2693 0.14929-1.7718-0.05871-0.07428-0.03076-0.14343-0.04678-0.15366-0.03565-0.01017 0.01118 0.0044 0.11268 0.0322 0.22564 0.07436 0.30052 0.06482 0.82582-0.01966 1.0837-0.10866 0.33161-0.31111 0.70291-0.60043 1.1012-0.14122 0.1944-0.26488 0.35335-0.27481 0.3532-0.0319-4.27e-4 -0.48487-0.63318-0.62625-0.87479-0.29372-0.50197-0.39943-1.1244-0.2804-1.651 0.02717-0.12024 0.04244-0.22555 0.03394-0.23404-0.0085-0.0084-0.13634 0.02251-0.28408 0.06889-0.55648 0.17465-1.1713 0.18115-1.6558 0.01749-0.2289-0.077331-0.29387-0.12367-0.65764-0.4691-0.37977-0.3606-0.40932-0.3985-0.4994-0.64095-0.13087-0.35215-0.15392-0.57436-0.086395-0.83279 0.12449-0.47642 0.60968-1.0846 1.0051-1.2599 0.46477-0.20607 0.96196-0.04578 1.4301 0.46104 0.31639 0.34251 0.37338 0.54086 0.25656 0.89288-0.09304 0.28034-0.20037 0.39326-0.45952 0.48341-0.29678 0.10325-0.57661 0.01302-0.97452-0.31407-0.15227-0.1252-0.20227-0.09488-0.1539 0.09335 0.05005 0.19477 0.31041 0.50638 0.52691 0.63064 0.35524 0.20389 0.93578 0.08636 1.2883-0.26086 0.46208-0.4551 0.47557-1.1834 0.03382-1.8279-0.26019-0.37962-0.82477-0.75864-1.2515-0.84021-0.10092-0.0193-0.17318-0.04476-0.16054-0.05661 0.01263-0.01176 0.15466-0.09792 0.31562-0.19129 0.5026-0.29156 0.88685-0.60783 1.0937-0.90019 0.17971-0.25405 0.32613-0.6384 0.36076-0.94706l0.01801-0.16035-0.28921 0.05853c-0.37997 0.07692-0.53544 0.14393-0.83139 0.3584-0.29293 0.21228-0.63946 0.64131-0.90184 1.1167-0.16414 0.29735-0.22345 0.35042-0.20814 0.1863 0.012848-0.13777-0.18377-0.58584-0.37299-0.84998-0.46621-0.6508-1.216-0.93274-1.9059-0.71663-0.56901 0.17825-0.91821 0.96738-0.67191 1.5184 0.10049 0.22481 0.3962 0.49146 0.62606 0.56456 0.21546 0.06851 0.248-0.0016 0.085536-0.18394-0.39819-0.44719-0.44208-0.87049-0.12334-1.1892 0.18483-0.18483 0.33841-0.25693 0.56054-0.26315 0.27935-0.0078 0.40207 0.05209 0.684 0.33404 0.45152 0.45152 0.59285 0.83834 0.46652 1.2769-0.068165 0.23664-0.09975 0.28392-0.3687 0.55199-0.41745 0.41612-0.78817 0.60657-1.1804 0.6065-0.15927-3.1e-5 -0.39326-0.03538-0.51999-0.07856-0.20396-0.069478-0.27736-0.12377-0.63921-0.47287-0.32971-0.31811-0.42261-0.42894-0.48026-0.573z"/></g></svg>
