<?xml version="1.0" encoding="UTF-8" standalone="no"?>
<!-- Created with Inkscape (http://www.inkscape.org/) -->

<svg
   version="1.1"
   id="svg1"
   width="24"
   height="24"
   viewBox="0 0 24 24"
   sodipodi:docname="valinor.svg"
   xml:space="preserve"
   inkscape:version="1.3.2 (091e20e, 2023-11-25, custom)"
   xmlns:inkscape="http://www.inkscape.org/namespaces/inkscape"
   xmlns:sodipodi="http://sodipodi.sourceforge.net/DTD/sodipodi-0.dtd"
   xmlns="http://www.w3.org/2000/svg"
   xmlns:svg="http://www.w3.org/2000/svg"><defs
     id="defs1"><inkscape:path-effect
       effect="fillet_chamfer"
       id="path-effect16"
       is_visible="true"
       lpeversion="1"
       nodesatellites_param="F,0,1,1,0,1.4522319,0,1 @ F,0,1,1,0,1.4522319,0,1 @ F,0,0,1,0,1.4522319,0,1"
       radius="0"
       unit="px"
       method="auto"
       mode="F"
       chamfer_steps="1"
       flexible="false"
       use_knot_distance="true"
       apply_no_radius="true"
       apply_with_radius="true"
       only_selected="false"
       hide_knots="false" /><inkscape:path-effect
       effect="fillet_chamfer"
       id="path-effect1"
       is_visible="true"
       lpeversion="1"
       nodesatellites_param="F,0,0,1,0,0,0,1 @ F,0,0,1,0,0,0,1 @ F,0,0,1,0,0,0,1"
       radius="0"
       unit="px"
       method="auto"
       mode="F"
       chamfer_steps="1"
       flexible="false"
       use_knot_distance="true"
       apply_no_radius="true"
       apply_with_radius="true"
       only_selected="false"
       hide_knots="false" /><linearGradient
       id="swatch1"
       inkscape:swatch="solid"><stop
         style="stop-color:#ef5552;stop-opacity:1;"
         offset="0"
         id="stop1" /></linearGradient><inkscape:path-effect
       effect="fillet_chamfer"
       id="path-effect15"
       is_visible="true"
       lpeversion="1"
       nodesatellites_param="F,0,0,1,0,0.48222331,0,1 @ F,0,1,1,0,0.48222331,0,1 @ F,0,1,1,0,0.48222331,0,1"
       radius="0"
       unit="px"
       method="auto"
       mode="F"
       chamfer_steps="1"
       flexible="false"
       use_knot_distance="true"
       apply_no_radius="true"
       apply_with_radius="true"
       only_selected="false"
       hide_knots="false" /><inkscape:path-effect
       effect="fillet_chamfer"
       id="path-effect14"
       is_visible="true"
       lpeversion="1"
       nodesatellites_param="F,0,0,1,0,0,0,1 @ F,0,0,1,0,0,0,1 @ F,0,0,1,0,0,0,1"
       radius="0"
       unit="px"
       method="auto"
       mode="F"
       chamfer_steps="1"
       flexible="false"
       use_knot_distance="true"
       apply_no_radius="true"
       apply_with_radius="true"
       only_selected="false"
       hide_knots="false" /><inkscape:path-effect
       effect="fillet_chamfer"
       id="path-effect13"
       is_visible="true"
       lpeversion="1"
       nodesatellites_param="F,0,1,1,0,1.0728753,0,1 @ F,0,1,1,0,1.0728753,0,1 @ F,0,1,1,0,1.0728753,0,1 @ F,0,1,1,0,1.0728753,0,1 @ F,0,0,1,0,1.0728753,0,1 @ F,0,1,1,0,1.0728753,0,1"
       radius="0"
       unit="px"
       method="auto"
       mode="F"
       chamfer_steps="1"
       flexible="false"
       use_knot_distance="true"
       apply_no_radius="true"
       apply_with_radius="true"
       only_selected="false"
       hide_knots="false" /><inkscape:path-effect
       effect="fillet_chamfer"
       id="path-effect12"
       is_visible="true"
       lpeversion="1"
       nodesatellites_param="F,0,0,1,0,0,0,1 @ F,0,0,1,0,0,0,1 @ F,0,0,1,0,0,0,1 @ F,0,0,1,0,0,0,1 @ F,0,0,1,0,0,0,1 @ F,0,0,1,0,0,0,1"
       radius="0"
       unit="px"
       method="auto"
       mode="F"
       chamfer_steps="1"
       flexible="false"
       use_knot_distance="true"
       apply_no_radius="true"
       apply_with_radius="true"
       only_selected="false"
       hide_knots="false" /><inkscape:path-effect
       effect="fillet_chamfer"
       id="path-effect11"
       is_visible="true"
       lpeversion="1"
       nodesatellites_param="F,0,0,1,0,0,0,1 @ F,0,0,1,0,0,0,1 @ F,0,0,1,0,0,0,1 @ F,0,0,1,0,0,0,1 @ F,0,0,1,0,0,0,1 @ F,0,0,1,0,0,0,1"
       radius="0"
       unit="px"
       method="auto"
       mode="F"
       chamfer_steps="1"
       flexible="false"
       use_knot_distance="true"
       apply_no_radius="true"
       apply_with_radius="true"
       only_selected="false"
       hide_knots="false" /><inkscape:path-effect
       effect="fillet_chamfer"
       id="path-effect10"
       is_visible="true"
       lpeversion="1"
       nodesatellites_param="F,0,0,1,0,0,0,1 @ F,0,0,1,0,0,0,1 @ F,0,0,1,0,0,0,1 @ F,0,0,1,0,0,0,1 @ F,0,0,1,0,0,0,1 @ F,0,0,1,0,0,0,1"
       radius="0"
       unit="px"
       method="auto"
       mode="F"
       chamfer_steps="1"
       flexible="false"
       use_knot_distance="true"
       apply_no_radius="true"
       apply_with_radius="true"
       only_selected="false"
       hide_knots="false" /><inkscape:path-effect
       effect="fillet_chamfer"
       id="path-effect9"
       is_visible="true"
       lpeversion="1"
       nodesatellites_param="F,0,0,1,0,0,0,1 @ F,0,0,1,0,0,0,1 @ F,0,0,1,0,0,0,1 @ F,0,0,1,0,0,0,1 @ F,0,0,1,0,0,0,1 @ F,0,0,1,0,0,0,1"
       radius="0"
       unit="px"
       method="auto"
       mode="F"
       chamfer_steps="1"
       flexible="false"
       use_knot_distance="true"
       apply_no_radius="true"
       apply_with_radius="true"
       only_selected="false"
       hide_knots="false" /><inkscape:path-effect
       effect="fillet_chamfer"
       id="path-effect8"
       is_visible="true"
       lpeversion="1"
       nodesatellites_param="F,0,0,1,0,0,0,1 @ F,0,0,1,0,0,0,1 @ F,0,0,1,0,0,0,1 @ F,0,0,1,0,0,0,1 @ F,0,0,1,0,0,0,1 @ F,0,0,1,0,0,0,1"
       radius="0"
       unit="px"
       method="auto"
       mode="F"
       chamfer_steps="1"
       flexible="false"
       use_knot_distance="true"
       apply_no_radius="true"
       apply_with_radius="true"
       only_selected="false"
       hide_knots="false" /><inkscape:path-effect
       effect="fillet_chamfer"
       id="path-effect7"
       is_visible="true"
       lpeversion="1"
       nodesatellites_param="F,0,0,1,0,0,0,1 @ F,0,0,1,0,0,0,1 @ F,0,0,1,0,0,0,1 @ F,0,0,1,0,0,0,1 @ F,0,0,1,0,0,0,1 @ F,0,0,1,0,0,0,1"
       radius="0"
       unit="px"
       method="auto"
       mode="F"
       chamfer_steps="1"
       flexible="false"
       use_knot_distance="true"
       apply_no_radius="true"
       apply_with_radius="true"
       only_selected="false"
       hide_knots="false" /><inkscape:path-effect
       effect="fillet_chamfer"
       id="path-effect6"
       is_visible="true"
       lpeversion="1"
       nodesatellites_param="F,0,0,1,0,0,0,1 @ F,0,0,1,0,0,0,1 @ F,0,0,1,0,0,0,1 @ F,0,0,1,0,0,0,1 @ F,0,0,1,0,0,0,1 @ F,0,0,1,0,0,0,1"
       radius="0"
       unit="px"
       method="auto"
       mode="F"
       chamfer_steps="1"
       flexible="false"
       use_knot_distance="true"
       apply_no_radius="true"
       apply_with_radius="true"
       only_selected="false"
       hide_knots="false" /><inkscape:path-effect
       effect="fillet_chamfer"
       id="path-effect5"
       is_visible="true"
       lpeversion="1"
       nodesatellites_param="F,0,0,1,0,0,0,1 @ F,0,0,1,0,0,0,1 @ F,0,0,1,0,0,0,1 @ F,0,0,1,0,0,0,1 @ F,0,0,1,0,0,0,1 @ F,0,0,1,0,0,0,1"
       radius="0"
       unit="px"
       method="auto"
       mode="F"
       chamfer_steps="1"
       flexible="false"
       use_knot_distance="true"
       apply_no_radius="true"
       apply_with_radius="true"
       only_selected="false"
       hide_knots="false" /><inkscape:path-effect
       effect="fillet_chamfer"
       id="path-effect4"
       is_visible="true"
       lpeversion="1"
       nodesatellites_param="F,0,0,1,0,0,0,1 @ F,0,0,1,0,0,0,1 @ F,0,0,1,0,0,0,1 @ F,0,0,1,0,0,0,1 @ F,0,0,1,0,1.1276705,0,1 @ F,0,0,1,0,1.2418038,0,1"
       radius="0"
       unit="px"
       method="auto"
       mode="F"
       chamfer_steps="1"
       flexible="false"
       use_knot_distance="true"
       apply_no_radius="true"
       apply_with_radius="true"
       only_selected="false"
       hide_knots="false" /><inkscape:path-effect
       effect="fillet_chamfer"
       id="path-effect3"
       is_visible="true"
       lpeversion="1"
       nodesatellites_param="F,0,0,1,0,0,0,1 @ F,0,0,1,0,0,0,1 @ F,0,0,1,0,0,0,1 @ F,0,0,1,0,0,0,1 @ F,0,0,1,0,0,0,1 @ F,0,0,1,0,0,0,1"
       radius="0"
       unit="px"
       method="auto"
       mode="F"
       chamfer_steps="1"
       flexible="false"
       use_knot_distance="true"
       apply_no_radius="true"
       apply_with_radius="true"
       only_selected="false"
       hide_knots="false" /><inkscape:path-effect
       effect="fillet_chamfer"
       id="path-effect2"
       is_visible="true"
       lpeversion="1"
       nodesatellites_param="F,0,0,1,0,0,0,1 @ F,0,0,1,0,0,0,1 @ F,0,0,1,0,0,0,1 @ F,0,0,1,0,0,0,1 @ F,0,0,1,0,0,0,1 @ F,0,0,1,0,0,0,1"
       radius="0"
       unit="px"
       method="auto"
       mode="F"
       chamfer_steps="1"
       flexible="false"
       use_knot_distance="true"
       apply_no_radius="true"
       apply_with_radius="true"
       only_selected="false"
       hide_knots="false" /></defs><sodipodi:namedview
     id="namedview1"
     pagecolor="#ffffff"
     bordercolor="#111111"
     borderopacity="1"
     inkscape:showpageshadow="0"
     inkscape:pageopacity="0"
     inkscape:pagecheckerboard="1"
     inkscape:deskcolor="#d1d1d1"
     inkscape:zoom="11.313709"
     inkscape:cx="-3.8006989"
     inkscape:cy="8.4410872"
     inkscape:window-width="1366"
     inkscape:window-height="697"
     inkscape:window-x="-8"
     inkscape:window-y="-8"
     inkscape:window-maximized="1"
     inkscape:current-layer="g1" /><g
     inkscape:groupmode="layer"
     inkscape:label="Image"
     id="g1"><path
       id="path8"
       style="stroke-width:1"
       d="M 2.8417969 1.6738281 C 2.7676669 1.5986382 3.0443523 3.6379284 3.2011719 4.3222656 C 3.3578711 5.0060628 3.6862924 5.8177781 3.9570312 6.1855469 C 4.2444604 6.5760053 4.619988 6.823357 5.1972656 7.0039062 C 5.9849024 7.2502354 6.0676792 7.2891374 6.2617188 7.5039062 C 6.366788 7.6201758 6.4455469 7.7224219 6.4355469 7.7324219 C 6.4260269 7.7419419 6.2333917 7.6588478 6.0078125 7.5488281 C 5.7822433 7.4387985 5.3967798 7.2981281 5.1503906 7.2363281 C 4.9040118 7.1745285 4.606444 7.0768781 4.4902344 7.0175781 C 3.8518768 6.6919097 3.0983832 5.6448338 2.4785156 4.2246094 C 2.2304668 3.6562214 2.1996156 3.6084479 2.1660156 3.7421875 C 2.1453156 3.8237874 2.1428583 4.1172224 2.1601562 4.3945312 C 2.265787 6.0847948 2.8289825 7.2321678 3.8925781 7.921875 C 4.2885465 8.1786438 4.6710674 8.3213098 5.296875 8.4433594 C 6.2247814 8.6243186 6.6366581 8.8221866 6.9355469 9.234375 C 7.1240861 9.4944238 7.1107861 9.572538 6.9042969 9.4179688 C 6.8105473 9.3477888 6.6614184 9.2549375 6.5742188 9.2109375 C 6.2633 9.0539483 5.480471 8.8985465 4.8710938 8.8730469 C 4.1779562 8.8440469 3.7916337 8.91746 2.6425781 9.2929688 L 1.9628906 9.515625 L 2.6699219 9.5507812 C 4.2547855 9.6330312 5.8518295 9.8522402 6.3671875 10.056641 C 7.1049847 10.349257 8.1444109 11.082011 9.2167969 12.066406 C 9.4632457 12.292636 9.6707344 12.478516 9.6777344 12.478516 C 9.6914844 12.478516 9.590663 12.202365 9.2089844 11.193359 C 8.9943352 10.625903 8.9826974 10.607663 8.4746094 10.091797 C 8.053601 9.6643382 7.9225252 9.4903963 7.7597656 9.1484375 C 7.5566264 8.7216391 7.5335067 8.646787 7.3359375 7.7441406 C 7.1416183 6.8563842 6.7898401 6.3088532 6.2265625 6.0214844 C 6.1035629 5.9587444 5.7898157 5.8303746 5.5292969 5.734375 C 5.1412885 5.5913854 5.0145536 5.5153386 4.8339844 5.3183594 C 4.367346 4.8093314 3.7949138 3.8026582 3.1914062 2.4335938 C 3.013377 2.0297453 2.8559969 1.6882281 2.8417969 1.6738281 z M 21.171875 1.6992188 C 21.161135 1.6884788 21.051081 1.9206246 20.925781 2.2148438 C 20.800471 2.5090626 20.502142 3.1299051 20.263672 3.5957031 C 19.585906 4.9196279 19.200712 5.4331989 18.728516 5.6425781 C 18.576246 5.7101381 18.428334 5.765625 18.398438 5.765625 C 18.262848 5.765625 17.558274 6.1359542 17.367188 6.3085938 C 17.041578 6.6027523 16.800867 7.1480136 16.619141 8 C 16.396671 9.043026 16.188677 9.442754 15.525391 10.107422 C 15.049031 10.584788 15.005102 10.64677 14.851562 11.0625 C 14.761193 11.307189 14.606309 11.725359 14.505859 11.992188 C 14.405419 12.259015 14.334909 12.478516 14.349609 12.478516 C 14.364289 12.478516 14.535699 12.323632 14.730469 12.134766 C 15.176255 11.702506 16.129061 10.937104 16.619141 10.617188 C 17.293117 10.177228 17.793775 9.969308 18.457031 9.8554688 C 19.282257 9.7138192 20.324213 9.6038465 21.255859 9.5605469 L 22.037109 9.5253906 L 21.623047 9.3710938 C 20.806571 9.069264 19.861109 8.859375 19.318359 8.859375 C 18.547413 8.859375 17.61766 9.0779093 17.183594 9.3613281 C 16.944574 9.5174377 16.912881 9.519766 16.988281 9.3789062 C 17.230751 8.9258382 17.71092 8.6585698 18.634766 8.4628906 C 19.411182 8.2984414 19.738637 8.1733244 20.216797 7.8535156 C 21.232893 7.1739085 21.775409 5.995277 21.849609 4.3085938 C 21.881139 3.5915266 21.839558 3.4440281 21.710938 3.8105469 C 21.551318 4.2654049 20.9998 5.3473082 20.6875 5.8164062 C 20.50262 6.0941354 20.183949 6.4799258 19.980469 6.671875 C 19.657439 6.9766038 19.563275 7.0340598 19.230469 7.1308594 C 19.020839 7.1918393 18.726675 7.278266 18.578125 7.3222656 C 18.429575 7.3662756 18.153287 7.4778129 17.962891 7.5703125 C 17.565921 7.7630917 17.512399 7.7075004 17.824219 7.4257812 C 17.957739 7.305162 18.140618 7.2079965 18.335938 7.1542969 C 19.48102 6.8394381 19.891527 6.5571328 20.283203 5.8222656 C 20.542233 5.3362776 20.807553 4.4686499 20.943359 3.6582031 C 21.072419 2.8880963 21.206775 1.7341177 21.171875 1.6992188 z M 14.572266 11.003906 L 14.402344 11.123047 C 13.556357 11.714234 13.302703 12.045402 13.103516 12.824219 C 13.077796 12.924535 13.059402 13.025918 13.044922 13.1875 C 12.955502 13.863698 13.00014 14.780396 13 15.53125 L 13 20.177734 L 13.150391 19.863281 C 13.360268 19.422364 13.846164 18.786861 14.464844 18.144531 C 14.755121 17.843144 14.994141 17.586519 14.994141 17.574219 C 14.994141 17.561819 14.911801 17.546062 14.8125 17.539062 C 14.57386 17.522983 14.308175 17.407615 14.179688 17.265625 C 14.088138 17.164933 14.07738 16.94849 14.076172 14.398438 C 14.07626 14.343708 14.076044 14.308048 14.076172 14.255859 C 14.081372 12.116095 14.123312 12.060639 14.419922 11.361328 L 14.572266 11.003906 z M 9.5078125 11.0625 C 9.4582805 11.05228 9.4967607 11.13812 9.5722656 11.308594 C 9.939469 12.137863 9.9266025 11.948777 9.9414062 15.53125 L 9.9453125 15.53125 C 9.9420525 16.64056 9.9274211 17.091561 9.8925781 17.158203 C 9.7864284 17.361223 9.5674791 17.490078 9.28125 17.517578 C 9.1348703 17.531678 9.0136719 17.557472 9.0136719 17.576172 C 9.0136719 17.594862 9.19336 17.788276 9.4121094 18.003906 C 9.9981276 18.581576 10.602641 19.352249 10.832031 19.816406 L 11.033203 20.224609 L 11.048828 15.900391 C 11.073008 15.034348 11.052332 13.945902 10.982422 13.1875 C 10.860926 12.336637 10.584425 11.851986 9.9746094 11.390625 C 9.6948902 11.179021 9.5573447 11.072724 9.5078125 11.0625 z M 12.009766 11.482422 C 11.992506 11.482752 11.932806 11.574962 11.878906 11.6875 C 11.727716 12.00319 11.412817 12.287359 11.248047 12.255859 C 11.173747 12.241629 11.113281 12.236188 11.113281 12.242188 C 11.113281 12.248087 11.159101 12.388961 11.216797 12.556641 C 11.297477 12.792176 11.316178 13.041329 11.320312 15.53125 L 11.322266 15.53125 C 11.322066 18.938691 11.303825 20.610327 11.265625 20.748047 C 11.214545 20.932077 11.221924 20.964254 11.339844 21.089844 C 11.563594 21.328124 11.895841 21.887259 11.931641 22.085938 C 11.950541 22.190666 11.976988 22.297919 11.992188 22.324219 C 12.007387 22.350509 12.054048 22.244979 12.09375 22.089844 C 12.17272 21.781304 12.370501 21.440013 12.650391 21.134766 C 12.826288 20.942886 12.828366 20.934276 12.759766 20.742188 C 12.703066 20.583199 12.6895 19.586964 12.6875 15.554688 C 12.687495 15.544668 12.687504 15.54121 12.6875 15.53125 L 12.689453 15.53125 C 12.692653 13.085477 12.711143 12.829011 12.791016 12.574219 C 12.848316 12.391359 12.894161 12.239328 12.894531 12.236328 C 12.894901 12.233128 12.838531 12.240726 12.769531 12.253906 C 12.606391 12.285086 12.268409 11.985389 12.136719 11.693359 C 12.084219 11.576919 12.026966 11.482112 12.009766 11.482422 z " /><path
       style="stroke-width:0.999997"
       d="M 11.112816,10.879146 C 10.681228,10.753458 10.362846,10.612318 10.041031,10.403987 9.1415741,9.8217242 8.6120075,8.8898525 8.4433511,7.5925724 8.3991486,7.2524054 8.3924372,6.4312711 8.4312398,6.0966275 8.4640253,5.8132758 8.5268963,5.422272 8.537866,5.4332493 c 0.00463,0.00463 0.018746,0.101396 0.031166,0.2149187 0.080668,0.7338091 0.3936191,1.5883152 0.7353451,2.0078154 0.05554,0.068194 0.10877,0.1239369 0.118313,0.1239369 0.0096,0 0.02391,-0.158813 0.03194,-0.3529109 0.02229,-0.5410612 0.09467,-0.9612865 0.246153,-1.4294019 0.211409,-0.6532879 0.4443709,-1.0897131 1.1350109,-2.126298 0.620526,-0.9313553 0.856127,-1.3851299 1.030885,-1.9855444 l 0.06002,-0.2061553 0.07781,0.1401368 c 0.347419,0.6257095 0.583436,1.2778403 0.679855,1.8784554 0.04459,0.2777974 0.03834,0.9932312 -0.01072,1.2212097 -0.100078,0.4651454 -0.219863,0.8005141 -0.444039,1.2432265 -0.128126,0.253027 -0.449285,0.7893748 -0.463911,0.7747486 -0.0039,-0.00386 0.03232,-0.098341 0.08047,-0.2099584 0.282217,-0.6546148 0.424036,-1.5261153 0.372728,-2.2904031 -0.01898,-0.2830585 -0.09576,-0.8315099 -0.119717,-0.8554703 -0.0098,-0.0098 -0.153436,0.1462465 -0.279564,0.3036787 -0.233649,0.2916367 -0.445543,0.6314874 -0.65166,1.0451862 -0.343847,0.6901388 -0.502382,1.1924128 -0.590355,1.8703323 -0.04575,0.3522552 -0.05199,1.1706432 -0.01165,1.5182699 0.100748,0.8681601 0.321399,1.6559231 0.667791,2.3842009 0.05963,0.125302 0.105269,0.230262 0.101481,0.23324 -0.0039,0.0031 -0.103841,-0.02284 -0.222332,-0.05732 z m 1.887736,-0.0729 c 0.69675,-0.440637 1.107124,-0.8956148 1.340356,-1.4860158 0.290573,-0.7355761 0.12835,-1.4391299 -0.375274,-1.6275579 -0.628502,-0.2351531 -1.514367,0.4049743 -1.946017,1.4061979 -0.205345,0.4763 -0.322802,1.0987848 -0.303007,1.6058488 0.0039,0.108702 1.54e-4,0.190079 -0.0091,0.180837 -0.0093,-0.0093 -0.04351,-0.130054 -0.07614,-0.268478 -0.05431,-0.230587 -0.05932,-0.289438 -0.05917,-0.7027438 1.31e-4,-0.40438 0.0062,-0.47961 0.05871,-0.726596 C 11.735924,8.6935792 11.941554,8.170847 12.201593,7.737006 12.263613,7.6335581 12.415532,7.4053401 12.539222,7.2298566 13.129331,6.3926305 13.4567,5.7125125 13.60894,5.007462 13.6516,4.8099158 13.65885,4.7110196 13.65901,4.3253386 13.659187,3.927284 13.65211,3.8365414 13.59938,3.5533209 13.56644,3.3768037 13.53967,3.2233212 13.53975,3.212259 c 4.24e-4,-0.04104 0.188474,0.2755912 0.340884,0.5739856 0.258412,0.5059228 0.396481,0.8940492 0.583135,1.6392905 0.198556,0.7927613 0.338238,1.1544048 0.529999,1.3722625 0.144665,0.1643442 0.295062,0.1870703 0.477187,0.072128 l 0.0904,-0.057085 0.01697,0.1039956 C 15.604555,7.0777552 15.596835,7.766976 15.566215,8 c -0.177659,1.3492892 -0.820509,2.265417 -1.893305,2.698139 -0.235578,0.09502 -0.570985,0.190804 -0.764373,0.218274 l -0.106125,0.01504 z"
       id="path20" /></g></svg>
