<?xml version="1.0" encoding="UTF-8"?>
<!-- Created with Inkscape (http://www.inkscape.org/) -->
<svg id="svg1" width="24" height="24" version="1.1" viewBox="0 0 24 24" xml:space="preserve" xmlns="http://www.w3.org/2000/svg"><g id="g1"><path id="path8" d="m2.8418 1.6738c-0.07413-0.07519 0.20256 1.9641 0.35938 2.6484 0.1567 0.6838 0.48512 1.4955 0.75586 1.8633 0.28743 0.39046 0.66296 0.63781 1.2402 0.81836 0.78764 0.24633 0.87041 0.28523 1.0645 0.5 0.10507 0.11627 0.18383 0.21852 0.17383 0.22852-0.00952 0.00952-0.20216-0.073574-0.42773-0.18359-0.22557-0.11003-0.61103-0.2507-0.85742-0.3125-0.24638-0.0618-0.54395-0.15945-0.66016-0.21875-0.63836-0.32567-1.3919-1.3727-2.0117-2.793-0.24805-0.56839-0.2789-0.61616-0.3125-0.48242-0.0207 0.0816-0.023157 0.37503-0.0058594 0.65234 0.10563 1.6903 0.66883 2.8376 1.7324 3.5273 0.39597 0.25677 0.77849 0.39943 1.4043 0.52148 0.92791 0.18096 1.3398 0.37883 1.6387 0.79102 0.18854 0.26005 0.17524 0.33816-0.03125 0.18359-0.09375-0.07018-0.24288-0.16303-0.33008-0.20703-0.31092-0.15699-1.0937-0.31239-1.7031-0.33789-0.69314-0.029-1.0795 0.044413-2.2285 0.41992l-0.67969 0.22266 0.70703 0.035156c1.5849 0.08225 3.1819 0.30146 3.6973 0.50586 0.7378 0.29262 1.7772 1.0254 2.8496 2.0098 0.24645 0.22623 0.45394 0.41211 0.46094 0.41211 0.01375 0-0.087071-0.27615-0.46875-1.2852-0.21465-0.56746-0.22629-0.5857-0.73438-1.1016-0.42101-0.42746-0.55208-0.6014-0.71484-0.94336-0.20314-0.4268-0.22626-0.50165-0.42383-1.4043-0.19432-0.88776-0.5461-1.4353-1.1094-1.7227-0.123-0.06274-0.43675-0.19111-0.69727-0.28711-0.38801-0.14299-0.51474-0.21904-0.69531-0.41602-0.46664-0.50903-1.0391-1.5157-1.6426-2.8848-0.17803-0.40385-0.33541-0.74537-0.34961-0.75977zm18.33 0.025391c-0.01074-0.01074-0.12079 0.22141-0.24609 0.51562-0.12531 0.29422-0.42364 0.91506-0.66211 1.3809-0.67777 1.3239-1.063 1.8375-1.5352 2.0469-0.15227 0.06756-0.30018 0.12305-0.33008 0.12305-0.13559 0-0.84016 0.37033-1.0312 0.54297-0.32561 0.29416-0.56632 0.83942-0.74805 1.6914-0.22247 1.043-0.43046 1.4428-1.0938 2.1074-0.47636 0.47737-0.52029 0.53935-0.67383 0.95508-0.090369 0.24469-0.24525 0.66286-0.3457 0.92969-0.10044 0.26683-0.17095 0.48633-0.15625 0.48633 0.01468 0 0.18609-0.15488 0.38086-0.34375 0.44579-0.43226 1.3986-1.1977 1.8887-1.5176 0.67398-0.43996 1.1746-0.64788 1.8379-0.76172 0.82523-0.14165 1.8672-0.25162 2.7988-0.29492l0.78125-0.035156-0.41406-0.1543c-0.81648-0.30183-1.7619-0.51172-2.3047-0.51172-0.77095 0-1.7007 0.21853-2.1348 0.50195-0.23902 0.15611-0.27071 0.15844-0.19531 0.017578 0.24247-0.45307 0.72264-0.72034 1.6465-0.91602 0.77642-0.16445 1.1039-0.28957 1.582-0.60938 1.0161-0.67961 1.5586-1.8582 1.6328-3.5449 0.03153-0.71707-0.010051-0.86457-0.13867-0.49805-0.15962 0.45486-0.71114 1.5368-1.0234 2.0059-0.18488 0.27773-0.50355 0.66352-0.70703 0.85547-0.32303 0.30473-0.41719 0.36218-0.75 0.45898-0.20963 0.06098-0.50379 0.14741-0.65234 0.19141-0.14855 0.04401-0.42484 0.15555-0.61523 0.24805-0.39697 0.19278-0.45049 0.13719-0.13867-0.14453 0.13352-0.12062 0.3164-0.21778 0.51172-0.27148 1.1451-0.31486 1.5556-0.59716 1.9473-1.332 0.25903-0.48599 0.52435-1.3536 0.66016-2.1641 0.12906-0.77011 0.26342-1.9241 0.22852-1.959zm-6.5996 9.3047-0.16992 0.11914c-0.84599 0.59119-1.0996 0.92236-1.2988 1.7012-0.02572 0.10032-0.044114 0.2017-0.058594 0.36328-0.08942 0.6762-0.044782 1.5929-0.044922 2.3438v4.6465l0.15039-0.31445c0.20988-0.44092 0.69577-1.0764 1.3145-1.7188 0.29028-0.30139 0.5293-0.55801 0.5293-0.57031 0-0.0124-0.08234-0.028157-0.18164-0.035157-0.23864-0.016079-0.50432-0.13145-0.63281-0.27344-0.09155-0.10069-0.10231-0.31714-0.10352-2.8672 8.8e-5 -0.05473-1.28e-4 -0.09039 0-0.14258 0.0052-2.1398 0.04714-2.1952 0.34375-2.8945l0.15234-0.35742zm-5.0645 0.058594c-0.049532-0.01022-0.011052 0.07562 0.064453 0.24609 0.3672 0.82927 0.35434 0.64018 0.36914 4.2227h0.0039063c-0.00326 1.1093-0.017891 1.5603-0.052734 1.627-0.10615 0.20302-0.3251 0.33188-0.61133 0.35938-0.14638 0.0141-0.26758 0.039894-0.26758 0.058594 0 0.01869 0.17969 0.2121 0.39844 0.42773 0.58602 0.57767 1.1905 1.3483 1.4199 1.8125l0.20117 0.4082 0.015625-4.3242c0.02418-0.86604 0.003504-1.9545-0.066406-2.7129-0.1215-0.85086-0.398-1.3355-1.0078-1.7969-0.27972-0.2116-0.41726-0.3179-0.4668-0.32812zm2.502 0.41992c-0.01726 3.3e-4 -0.07696 0.09254-0.13086 0.20508-0.15119 0.31569-0.46609 0.59986-0.63086 0.56836-0.0743-0.01423-0.13477-0.019671-0.13477-0.013671 0 0.005899 0.04582 0.14677 0.10352 0.31445 0.08068 0.23554 0.099381 0.48469 0.10352 2.9746h0.001954c-2e-4 3.4074-0.018441 5.0791-0.056641 5.2168-0.05108 0.18403-0.043701 0.21621 0.074219 0.3418 0.22375 0.23828 0.556 0.79742 0.5918 0.99609 0.0189 0.10473 0.045347 0.21198 0.060547 0.23828 0.015199 0.02629 0.06186-0.07924 0.10156-0.23438 0.07897-0.30854 0.27675-0.64983 0.55664-0.95508 0.1759-0.19188 0.17798-0.20049 0.10938-0.39258-0.0567-0.15899-0.070266-1.1552-0.072266-5.1875-5e-6 -0.01002 4e-6 -0.013478 0-0.023438h0.001953c0.0032-2.4458 0.02169-2.7022 0.10156-2.957 0.0573-0.18286 0.10314-0.33489 0.10352-0.33789 3.7e-4 -0.0032-0.056 0.004398-0.125 0.017578-0.16314 0.03118-0.50112-0.26852-0.63281-0.56055-0.0525-0.11644-0.10975-0.21125-0.12695-0.21094z"/><path id="path20" d="m11.113 10.879c-0.43159-0.12569-0.74997-0.26683-1.0718-0.47516-0.89946-0.58226-1.429-1.5141-1.5977-2.8114-0.044202-0.34017-0.050914-1.1613-0.012111-1.4959 0.032786-0.28335 0.095656-0.67436 0.10663-0.66338 0.00463 0.00463 0.018746 0.1014 0.031166 0.21492 0.080668 0.73381 0.39362 1.5883 0.73535 2.0078 0.05554 0.068194 0.10877 0.12394 0.11831 0.12394 0.0096 0 0.02391-0.15881 0.03194-0.35291 0.02229-0.54106 0.09467-0.96129 0.24615-1.4294 0.21141-0.65329 0.44437-1.0897 1.135-2.1263 0.62053-0.93136 0.85613-1.3851 1.0309-1.9855l0.06002-0.20616 0.07781 0.14014c0.34742 0.62571 0.58344 1.2778 0.67986 1.8785 0.04459 0.2778 0.03834 0.99323-0.01072 1.2212-0.10008 0.46515-0.21986 0.80051-0.44404 1.2432-0.12813 0.25303-0.44928 0.78937-0.46391 0.77475-0.0039-0.00386 0.03232-0.098341 0.08047-0.20996 0.28222-0.65461 0.42404-1.5261 0.37273-2.2904-0.01898-0.28306-0.09576-0.83151-0.11972-0.85547-0.0098-0.0098-0.15344 0.14625-0.27956 0.30368-0.23365 0.29164-0.44554 0.63149-0.65166 1.0452-0.34385 0.69014-0.50238 1.1924-0.59036 1.8703-0.04575 0.35226-0.05199 1.1706-0.01165 1.5183 0.10075 0.86816 0.3214 1.6559 0.66779 2.3842 0.05963 0.1253 0.10527 0.23026 0.10148 0.23324-0.0039 0.0031-0.10384-0.02284-0.22233-0.05732zm1.8877-0.0729c0.69675-0.44064 1.1071-0.89561 1.3404-1.486 0.29057-0.73558 0.12835-1.4391-0.37527-1.6276-0.6285-0.23515-1.5144 0.40497-1.946 1.4062-0.20534 0.4763-0.3228 1.0988-0.30301 1.6058 0.0039 0.1087 1.54e-4 0.19008-0.0091 0.18084-0.0093-0.0093-0.04351-0.13005-0.07614-0.26848-0.05431-0.23059-0.05932-0.28944-0.05917-0.70274 1.31e-4 -0.40438 0.0062-0.47961 0.05871-0.7266 0.10501-0.49416 0.31064-1.0169 0.57068-1.4507 0.06202-0.10345 0.21394-0.33167 0.33763-0.50715 0.59011-0.83723 0.91748-1.5173 1.0697-2.2224 0.04266-0.19755 0.04991-0.29644 0.05007-0.68212 1.77e-4 -0.39805-0.0069-0.4888-0.05963-0.77202-0.03294-0.17652-0.05971-0.33-0.05963-0.34106 4.24e-4 -0.04104 0.18847 0.27559 0.34088 0.57399 0.25841 0.50592 0.39648 0.89405 0.58314 1.6393 0.19856 0.79276 0.33824 1.1544 0.53 1.3723 0.14466 0.16434 0.29506 0.18707 0.47719 0.072128l0.0904-0.057085 0.01697 0.104c0.02623 0.16092 0.01851 0.85014-0.01211 1.0832-0.17766 1.3493-0.82051 2.2654-1.8933 2.6981-0.23558 0.09502-0.57098 0.1908-0.76437 0.21827l-0.10612 0.01504z"/></g></svg>
