<?xml version="1.0" encoding="UTF-8" standalone="no"?>
<svg
   viewBox="0 0 24 24"
   version="1.1"
   id="svg1"
   sodipodi:docname="action-hide.svg"
   width="24"
   height="24"
   inkscape:version="1.3.2 (091e20e, 2023-11-25, custom)"
   xmlns:inkscape="http://www.inkscape.org/namespaces/inkscape"
   xmlns:sodipodi="http://sodipodi.sourceforge.net/DTD/sodipodi-0.dtd"
   xmlns="http://www.w3.org/2000/svg"
   xmlns:svg="http://www.w3.org/2000/svg">
  <defs
     id="defs1" />
  <sodipodi:namedview
     id="namedview1"
     pagecolor="#ffffff"
     bordercolor="#666666"
     borderopacity="1.0"
     inkscape:showpageshadow="2"
     inkscape:pageopacity="0.0"
     inkscape:pagecheckerboard="0"
     inkscape:deskcolor="#d1d1d1"
     inkscape:zoom="5.9330678"
     inkscape:cx="-7.4160622"
     inkscape:cy="2.2753827"
     inkscape:window-width="1360"
     inkscape:window-height="715"
     inkscape:window-x="-8"
     inkscape:window-y="-8"
     inkscape:window-maximized="1"
     inkscape:current-layer="svg1" />
  <path
     id="path1"
     style="stroke-width:20.203"
     d="M 11.894531 0.75 C 7.3754748 0.75 -0.95270984 9.4084503 2.3671875 17.447266 C 2.8113209 18.851836 3.913198 20.244267 5.0957031 21.726562 C 5.492268 22.223894 5.8994465 22.734891 6.3046875 23.25 L 7.6230469 23.25 C 7.0497722 22.498311 6.4612666 21.773489 5.90625 21.078125 C 4.3850932 19.173902 3.1992187 17.459446 3.1992188 16.199219 C 3.2047704 15.694017 3.3246075 15.195472 3.5078125 14.740234 C 4.784696 11.331511 9.8346737 8.0915925 11.75 7.2421875 L 11.951172 7.1328125 L 12.166016 7.2050781 C 15.54698 8.3653767 19.345536 10.909585 20.716797 14.740234 C 20.944416 15.389781 21.043998 15.737601 21.027344 16.253906 C 20.999584 17.131069 19.667868 19.290166 17.974609 21.177734 C 17.375076 21.845255 16.744012 22.535863 16.136719 23.25 L 17.509766 23.25 C 17.918811 22.785082 18.33351 22.326296 18.740234 21.873047 C 20.02822 20.45182 21.254149 19.097517 21.787109 17.720703 C 24.723941 10.836635 16.28035 0.75 11.894531 0.75 z M 11.939453 9.3398438 C 9.7909564 10.533452 7.2147301 12.237728 5.6269531 14.236328 C 6.1654649 18.844213 8.9031737 22.347656 12.195312 22.347656 C 15.4819 22.347656 18.208196 18.866927 18.757812 14.28125 C 17.153379 11.943997 14.426598 10.233663 11.939453 9.3398438 z M 8.703125 13.949219 L 8.8359375 13.949219 C 9.563206 13.954819 10.286097 14.098446 11.007812 14.359375 C 10.075133 16.61335 7.7302903 16.691074 6.6699219 14.359375 C 7.3472253 14.092894 8.0258215 13.960322 8.703125 13.949219 z M 15.636719 13.949219 C 16.358434 13.943719 17.079372 14.076239 17.806641 14.359375 C 16.74072 16.691074 14.403076 16.61335 13.464844 14.359375 C 14.192112 14.098446 14.915001 13.954771 15.636719 13.949219 z " />
</svg>
