<?xml version="1.0" encoding="UTF-8" standalone="no"?>
<svg
   width="512"
   height="512"
   viewBox="0 0 135.46667 135.46667"
   version="1.1"
   id="svg8"
   inkscape:version="1.3.2 (091e20e, 2023-11-25, custom)"
   sodipodi:docname="class-monk.svg"
   xmlns:inkscape="http://www.inkscape.org/namespaces/inkscape"
   xmlns:sodipodi="http://sodipodi.sourceforge.net/DTD/sodipodi-0.dtd"
   xmlns="http://www.w3.org/2000/svg"
   xmlns:svg="http://www.w3.org/2000/svg"
   xmlns:rdf="http://www.w3.org/1999/02/22-rdf-syntax-ns#"
   xmlns:cc="http://creativecommons.org/ns#"
   xmlns:dc="http://purl.org/dc/elements/1.1/">
  <defs
     id="defs2">
    <clipPath
       clipPathUnits="userSpaceOnUse"
       id="clipPath28">
      <path
         d="M 0,2020 H 2020 V 0 H 0 Z"
         id="path26" />
    </clipPath>
    <clipPath
       clipPathUnits="userSpaceOnUse"
       id="clipPath48">
      <path
         d="M 0,2020 H 2020 V 0 H 0 Z"
         id="path46" />
    </clipPath>
    <clipPath
       clipPathUnits="userSpaceOnUse"
       id="clipPath167">
      <path
         d="M 0,2020 H 2020 V 0 H 0 Z"
         id="path165" />
    </clipPath>
    <clipPath
       clipPathUnits="userSpaceOnUse"
       id="clipPath179">
      <path
         d="M 0,2020 H 2020 V 0 H 0 Z"
         id="path177" />
    </clipPath>
    <clipPath
       clipPathUnits="userSpaceOnUse"
       id="clipPath281">
      <path
         d="M 0,2020 H 2020 V 0 H 0 Z"
         id="path279" />
    </clipPath>
    <clipPath
       clipPathUnits="userSpaceOnUse"
       id="clipPath301">
      <path
         d="M 0,2020 H 2020 V 0 H 0 Z"
         id="path299" />
    </clipPath>
    <clipPath
       clipPathUnits="userSpaceOnUse"
       id="clipPath396">
      <path
         d="M 0,2020 H 2020 V 0 H 0 Z"
         id="path394" />
    </clipPath>
    <clipPath
       clipPathUnits="userSpaceOnUse"
       id="clipPath456">
      <path
         d="M 0,2020 H 2020 V 0 H 0 Z"
         id="path454" />
    </clipPath>
    <clipPath
       clipPathUnits="userSpaceOnUse"
       id="clipPath619">
      <path
         d="M 0,2020 H 2020 V 0 H 0 Z"
         id="path617" />
    </clipPath>
    <clipPath
       clipPathUnits="userSpaceOnUse"
       id="clipPath659">
      <path
         d="M 0,2020 H 2020 V 0 H 0 Z"
         id="path657" />
    </clipPath>
    <clipPath
       clipPathUnits="userSpaceOnUse"
       id="clipPath782">
      <path
         d="M 0,2020 H 2020 V 0 H 0 Z"
         id="path780" />
    </clipPath>
    <clipPath
       clipPathUnits="userSpaceOnUse"
       id="clipPath798">
      <path
         d="M 0,2020 H 2020 V 0 H 0 Z"
         id="path796" />
    </clipPath>
    <clipPath
       clipPathUnits="userSpaceOnUse"
       id="clipPath881">
      <path
         d="M 0,2020 H 2020 V 0 H 0 Z"
         id="path879" />
    </clipPath>
    <clipPath
       clipPathUnits="userSpaceOnUse"
       id="clipPath901">
      <path
         d="M 0,2020 H 2020 V 0 H 0 Z"
         id="path899" />
    </clipPath>
    <clipPath
       clipPathUnits="userSpaceOnUse"
       id="clipPath980">
      <path
         d="M 0,2020 H 2020 V 0 H 0 Z"
         id="path978" />
    </clipPath>
    <clipPath
       clipPathUnits="userSpaceOnUse"
       id="clipPath1008">
      <path
         d="M 0,2020 H 2020 V 0 H 0 Z"
         id="path1006" />
    </clipPath>
    <clipPath
       clipPathUnits="userSpaceOnUse"
       id="clipPath1103">
      <path
         d="M 0,2020 H 2020 V 0 H 0 Z"
         id="path1101" />
    </clipPath>
    <clipPath
       clipPathUnits="userSpaceOnUse"
       id="clipPath1155">
      <path
         d="M 0,2020 H 2020 V 0 H 0 Z"
         id="path1153" />
    </clipPath>
  </defs>
  <sodipodi:namedview
     id="base"
     pagecolor="#ffffff"
     bordercolor="#666666"
     borderopacity="1.0"
     inkscape:pageopacity="0.0"
     inkscape:pageshadow="2"
     inkscape:zoom="0.32345808"
     inkscape:cx="103.56829"
     inkscape:cy="694.06212"
     inkscape:document-units="mm"
     inkscape:current-layer="layer1"
     inkscape:document-rotation="0"
     showgrid="false"
     inkscape:showpageshadow="false"
     units="px"
     inkscape:window-width="1360"
     inkscape:window-height="715"
     inkscape:window-x="-8"
     inkscape:window-y="-8"
     inkscape:window-maximized="1"
     inkscape:pagecheckerboard="0"
     inkscape:deskcolor="#d1d1d1" />
  <metadata
     id="metadata5">
    <rdf:RDF>
      <cc:Work
         rdf:about="">
        <dc:format>image/svg+xml</dc:format>
        <dc:type
           rdf:resource="http://purl.org/dc/dcmitype/StillImage" />
        <dc:title />
      </cc:Work>
    </rdf:RDF>
  </metadata>
  <g
     inkscape:label="Layer 1"
     inkscape:groupmode="layer"
     id="layer1"
     transform="translate(23.921389,96.715152)">
    <g
       id="g1097"
       transform="matrix(0.11370148,0,0,-0.11370148,-72.764358,85.856699)"
       style="stroke-width:3.10267">
      <g
         id="g1099"
         clip-path="url(#clipPath1103)"
         style="stroke-width:3.10267">
        <g
           id="g1105"
           transform="translate(1026.9463,1594.3232)"
           style="stroke-width:3.10267">
          <path
             d="M 0,0 C 0,0 -34.56,11.389 -66.081,11.389 -93.975,11.389 -131.545,0 -131.545,0 V -225.026 H 0 Z"
             style="fill-opacity:1;fill-rule:nonzero;stroke:none;stroke-width:3.10267"
             id="path1107" />
        </g>
        <g
           id="g1109"
           transform="translate(869.1885,1538.8682)"
           style="stroke-width:3.10267">
          <path
             d="m 0,0 -121.896,-46.182 c -5.701,-2.16 -9.428,-7.319 -9.428,-13.049 v -110.34 H 0 Z"
             style="fill-opacity:1;fill-rule:nonzero;stroke:none;stroke-width:3.10267"
             id="path1111" />
        </g>
        <g
           id="g1113"
           transform="translate(1180.0479,1288.708)"
           style="stroke-width:3.10267">
          <path
             d="m 0,0 v 238.648 c 0,6.197 -4.349,11.666 -10.716,13.475 L -126.89,285.135 V -34.01 l 111.538,17.161 C -6.495,-15.485 0,-8.356 0,0"
             style="fill-opacity:1;fill-rule:nonzero;stroke:none;stroke-width:3.10267"
             id="path1115" />
        </g>
        <g
           id="g1117"
           transform="translate(1333.1484,1295.1738)"
           style="stroke-width:3.10267">
          <path
             d="m 0,0 v 116.267 c 0,5.73 -3.728,10.889 -9.429,13.049 l -117.46,44.501 V -40.476 l 112.612,23.825 C -5.926,-14.885 0,-7.973 0,0"
             style="fill-opacity:1;fill-rule:nonzero;stroke:none;stroke-width:3.10267"
             id="path1119" />
        </g>
        <g
           id="g1121"
           transform="translate(1045.5928,956.6992)"
           style="stroke-width:3.10267">
          <path
             d="M 0,0 -18.646,-157.404 -37.293,0 -160.583,-23.604 -18.646,45.343 123.29,-23.604 Z m 194.644,-37.691 c 41.955,34.706 68.361,82.829 73.98,134.818 l 14.498,175.192 H -9.082 l 53.735,-140.268 -87.4,100.025 h -140.426 l -43.678,27.065 h 134.452 c 40.727,0 73.742,30.734 73.753,68.651 v 57.952 H -304.437 C -332.7,352.317 -338.139,338.018 -366.4,304.59 l 51.889,-225.557 c 10.717,-41.29 34.74,-78.541 68.849,-106.756 l 7.438,-6.153 122.202,-374.24 36.36,233.183 61.016,-367.478 61.304,368.985 37.591,-234.69 z"
             style="fill-opacity:1;fill-rule:nonzero;stroke:none;stroke-width:3.10267"
             id="path1123" />
        </g>
        <g
           id="g1125"
           transform="translate(1391.7793,593.8008)"
           style="stroke-width:3.10267">
          <path
             d="m 0,0 c -5.469,-10.521 -13.444,-19.682 -23.335,-25.575 5.856,9.864 10.533,19.546 13.566,29.617 3.076,10.023 4.607,20.278 4.607,30.54 -0.003,1.848 -0.072,3.695 -0.174,5.542 -0.358,-0.27 -0.727,-0.526 -1.119,-0.753 -8.999,-5.195 -23.611,3.268 -32.637,18.901 -9.027,15.635 -9.05,32.521 -0.051,37.716 4.397,2.538 10.135,1.809 15.907,-1.419 -0.034,0.057 -0.065,0.113 -0.099,0.17 C -13.434,88.857 -5.449,79.695 0.018,69.171 5.473,58.615 8.344,46.598 8.328,34.582 8.326,22.567 5.455,10.554 0,0 m -148.691,109.238 c -41.233,-41.231 -41.233,-108.081 0,-149.312 41.23,-41.233 108.081,-41.233 149.312,0 41.232,41.231 41.232,108.081 0,149.312 -41.231,41.233 -108.082,41.233 -149.312,0"
             style="fill-opacity:1;fill-rule:nonzero;stroke:none;stroke-width:3.10267"
             id="path1127" />
        </g>
        <g
           id="g1129"
           transform="translate(1448.543,783.2734)"
           style="stroke-width:3.10267">
          <path
             d="m 0,0 c 5.855,9.863 10.533,19.545 13.566,29.617 3.075,10.024 4.607,20.278 4.607,30.539 -0.004,2.103 -0.087,4.204 -0.219,6.304 -0.501,-0.423 -1.037,-0.804 -1.61,-1.135 -8.999,-5.195 -23.612,3.268 -32.637,18.902 -9.027,15.634 -9.05,32.519 -0.051,37.714 4.516,2.608 10.446,1.774 16.373,-1.679 L 0,120.314 C 9.901,114.432 17.886,105.271 23.352,94.746 28.807,84.189 31.679,72.172 31.662,60.157 31.66,48.143 28.79,36.129 23.335,25.574 17.865,15.055 9.89,5.893 0,0 m -43.072,154.004 c -51.83,0 -93.848,-42.017 -93.848,-93.847 0,-51.831 42.018,-93.846 93.848,-93.846 51.83,0 93.847,42.015 93.847,93.846 0,51.83 -42.017,93.847 -93.847,93.847"
             style="fill-opacity:1;fill-rule:nonzero;stroke:none;stroke-width:3.10267"
             id="path1131" />
        </g>
        <g
           id="g1133"
           transform="translate(1376.4082,1091.5723)"
           style="stroke-width:3.10267">
          <path
             d="M 0,0 C 3.686,2.799 9.518,1.797 15.174,-1.993 22.647,-6.479 29.024,-13 33.75,-20.699 c 5.611,-9.17 8.741,-20.109 8.721,-31.097 0.002,-10.987 -3.126,-21.921 -8.738,-31.089 -5.626,-9.155 -13.568,-16.659 -22.924,-21.049 2.784,4.368 5.418,8.537 7.668,12.809 2.263,4.254 4.208,8.535 5.757,12.88 3.135,8.668 4.743,17.554 4.747,26.449 -0.014,5.704 -0.688,11.401 -1.991,17.041 -0.121,-0.103 -0.225,-0.223 -0.353,-0.319 -5.575,-4.235 -16.057,0.185 -23.412,9.871 C -4.131,-15.518 -5.575,-4.234 0,0 m 36.924,-106.537 c 30.234,30.235 30.234,79.256 0,109.492 -17.671,17.67 -41.757,24.995 -64.762,22.01 l -9.369,-93.137 c -1.882,-18.696 -6.178,-36.855 -12.669,-54.103 28.537,-12.973 63.327,-7.735 86.8,15.738"
             style="fill-opacity:1;fill-rule:nonzero;stroke:none;stroke-width:3.10267"
             id="path1135" />
        </g>
        <g
           id="g1137"
           transform="translate(640.4092,1070.873)"
           style="stroke-width:3.10267">
          <path
             d="m 0,0 c 4.684,7.63 10.988,14.104 18.376,18.586 5.712,3.891 11.629,4.942 15.355,2.113 5.575,-4.234 4.13,-15.517 -3.226,-25.203 -7.356,-9.685 -17.838,-14.105 -23.412,-9.871 -0.121,0.092 -0.221,0.206 -0.336,0.305 -1.301,-5.635 -1.974,-11.327 -1.988,-17.027 0.003,-8.895 1.612,-17.781 4.748,-26.449 1.548,-4.345 3.494,-8.626 5.757,-12.88 2.249,-4.272 4.883,-8.441 7.667,-12.808 -9.356,4.389 -17.299,11.893 -22.924,21.048 -5.612,9.168 -8.74,20.102 -8.738,31.089 C -8.741,-20.108 -5.611,-9.17 0,0 m 76.802,-104.297 c -5.288,11.864 -9.524,24.262 -12.623,37.087 L 37.075,44.962 C 22.329,42.165 8.239,35.066 -3.174,23.654 c -30.235,-30.236 -30.235,-79.257 0,-109.492 21.631,-21.631 52.873,-27.777 79.976,-18.459"
             style="fill-opacity:1;fill-rule:nonzero;stroke:none;stroke-width:3.10267"
             id="path1139" />
        </g>
        <g
           id="g1141"
           transform="translate(697.4814,652.0732)"
           style="stroke-width:3.10267">
          <path
             d="m 0,0 c -9.026,-15.634 -23.638,-24.097 -32.636,-18.901 -0.254,0.146 -0.498,0.304 -0.737,0.469 -0.092,-1.752 -0.155,-3.505 -0.159,-5.258 0,-10.262 1.532,-20.517 4.607,-30.54 3.033,-10.072 7.711,-19.753 13.567,-29.618 -9.891,5.894 -17.868,15.055 -23.336,25.576 -5.455,10.553 -8.325,22.567 -8.327,34.582 -0.017,12.015 2.856,24.033 8.311,34.588 3.879,7.47 9.032,14.246 15.234,19.658 8.012,7.676 17.17,10.83 23.528,7.16 C 9.05,32.521 9.026,15.635 0,0 m -39.314,50.966 c -41.232,-41.232 -41.232,-108.081 0,-149.313 41.231,-41.232 108.081,-41.232 149.313,0 41.231,41.232 41.231,108.081 0,149.313 -41.232,41.232 -108.082,41.232 -149.313,0"
             style="fill-opacity:1;fill-rule:nonzero;stroke:none;stroke-width:3.10267"
             id="path1143" />
        </g>
        <g
           id="g1145"
           transform="translate(617.9189,867.5)"
           style="stroke-width:3.10267">
          <path
             d="m 0,0 c -9.026,-15.634 -23.638,-24.097 -32.636,-18.901 -0.433,0.25 -0.839,0.535 -1.23,0.837 -0.119,-2 -0.197,-4.002 -0.201,-6.006 0,-10.262 1.532,-20.516 4.607,-30.539 3.033,-10.073 7.711,-19.754 13.566,-29.618 -9.89,5.893 -17.867,15.055 -23.335,25.575 -5.456,10.554 -8.326,22.568 -8.328,34.583 -0.016,12.014 2.856,24.032 8.311,34.589 4.163,8.016 9.792,15.238 16.612,20.826 7.805,7.1 16.55,9.912 22.686,6.369 C 9.05,32.52 9.026,15.635 0,0 m 121.024,-24.069 c 0,51.83 -42.015,93.846 -93.846,93.846 -51.831,0 -93.847,-42.016 -93.847,-93.846 0,-51.831 42.016,-93.847 93.847,-93.847 51.831,0 93.846,42.016 93.846,93.847"
             style="fill-opacity:1;fill-rule:nonzero;stroke:none;stroke-width:3.10267"
             id="path1147" />
        </g>
      </g>
    </g>
  </g>
</svg>
