<?xml version="1.0" encoding="UTF-8" standalone="no"?>
<svg
   viewBox="0 0 24 24"
   version="1.1"
   id="svg1"
   sodipodi:docname="d20-disadvantage.svg"
   inkscape:version="1.3.2 (091e20e, 2023-11-25, custom)"
   xmlns:inkscape="http://www.inkscape.org/namespaces/inkscape"
   xmlns:sodipodi="http://sodipodi.sourceforge.net/DTD/sodipodi-0.dtd"
   xmlns="http://www.w3.org/2000/svg"
   xmlns:svg="http://www.w3.org/2000/svg">
  <defs
     id="defs1" />
  <sodipodi:namedview
     id="namedview1"
     pagecolor="#ffffff"
     bordercolor="#666666"
     borderopacity="1.0"
     inkscape:showpageshadow="2"
     inkscape:pageopacity="0.0"
     inkscape:pagecheckerboard="0"
     inkscape:deskcolor="#d1d1d1"
     inkscape:zoom="7.9107571"
     inkscape:cx="-1.2641015"
     inkscape:cy="9.7967867"
     inkscape:window-width="1360"
     inkscape:window-height="715"
     inkscape:window-x="-8"
     inkscape:window-y="-8"
     inkscape:window-maximized="1"
     inkscape:current-layer="svg1" />
  <path
     id="path2"
     style="stroke-width:1;paint-order:markers stroke fill;fill:#ef5552;fill-opacity:1"
     d="m 12,21.986373 a 2.6252115,2.6252115 0 0 0 1.3125,-0.351563 l 6.374999,-3.681641 A 2.6252113,2.6252113 0 0 0 21,15.679732 V 8.3203572 A 2.6252113,2.6252113 0 0 0 19.687499,6.0469192 L 13.3125,2.3652782 a 2.6252115,2.6252115 0 0 0 -2.625,0 l -6.3750002,3.681641 a 2.6252112,2.6252112 0 0 0 -1.3125,2.273438 v 7.3593748 a 2.6252112,2.6252112 0 0 0 1.3125,2.273437 L 10.6875,21.63481 A 2.6252115,2.6252115 0 0 0 12,21.986373 Z M 12,15.69731 A 0.61537849,0.61537849 0 0 1 11.466797,15.388716 L 8.2070308,9.7422312 a 0.61537856,0.61537856 0 0 1 0.533203,-0.921875 h 6.5195312 a 0.61537876,0.61537876 0 0 1 0.533204,0.921875 L 12.533202,15.388716 A 0.61537849,0.61537849 0 0 1 12,15.69731 Z" />
</svg>
