<?xml version="1.0" encoding="UTF-8" standalone="no"?>
<svg
   height="24"
   viewBox="0 0 24 24"
   width="24"
   version="1.1"
   id="svg1"
   sodipodi:docname="damage-void.svg"
   inkscape:version="1.3.2 (091e20e, 2023-11-25, custom)"
   xmlns:inkscape="http://www.inkscape.org/namespaces/inkscape"
   xmlns:sodipodi="http://sodipodi.sourceforge.net/DTD/sodipodi-0.dtd"
   xmlns="http://www.w3.org/2000/svg"
   xmlns:svg="http://www.w3.org/2000/svg">
  <defs
     id="defs1" />
  <sodipodi:namedview
     id="namedview1"
     pagecolor="#ffffff"
     bordercolor="#666666"
     borderopacity="1.0"
     inkscape:showpageshadow="2"
     inkscape:pageopacity="0.0"
     inkscape:pagecheckerboard="0"
     inkscape:deskcolor="#d1d1d1"
     inkscape:zoom="5.9330678"
     inkscape:cx="-18.877249"
     inkscape:cy="20.984085"
     inkscape:window-width="1360"
     inkscape:window-height="715"
     inkscape:window-x="-8"
     inkscape:window-y="-8"
     inkscape:window-maximized="1"
     inkscape:current-layer="svg1" />
  <path
     d="M 22.366875,7.6318364 Q 23.25,9.7144925 23.25,12.000351 q 0,2.28586 -0.883125,4.391016 -0.859922,1.991953 -2.399063,3.553593 -1.56164,1.584844 -3.576796,2.422266 Q 14.285859,23.250351 12,23.250351 q -2.2858592,0 -4.3685153,-0.883125 Q 5.6395317,21.529804 4.0546877,19.94496 2.5380471,18.45082 1.6556252,16.391367 0.75000025,14.241211 0.75000025,12.000351 q 0,-2.2408585 0.90562495,-4.3685146 Q 2.5387502,5.5266794 4.0546877,4.0550392 5.6395317,2.4701955 7.6314847,1.6327736 9.7816407,0.74964855 12,0.74964855 q 2.195859,0 4.391016,0.88312495 2.014453,0.8374219 3.576796,2.4222656 1.539141,1.5391403 2.399063,3.5767973 z M 11.886797,2.3119923 Q 8.0385938,2.2894923 5.3561718,4.8587115 2.6737503,7.4279295 2.3341409,11.185429 h 0.0225 v -0.135703 l 0.0225,-0.0682 v -0.045 l 0.045,-0.248906 0.045,-0.135703 0.0225,-0.113203 q 0.045,-0.181407 0.068203,-0.248907 0,-0.0225 0.01125,-0.0682 0.01125,-0.0457 0.01125,-0.0682 l 0.045,-0.1132026 0.0225,-0.135703 q 0.0225,-0.0225 0.0225,-0.045 0.0225,-0.045 0.0225,-0.0682 0.3621095,-1.018831 0.859922,-1.878753 0.4753124,-0.792422 1.2902343,-1.629844 0.7017185,-0.701719 1.6523436,-1.290234 0.8149219,-0.5203129 1.90125,-0.9056254 0.045,-0.0225 0.124453,-0.045 0.07945,-0.0225 0.124453,-0.0225 0.0225,0 0.0682,-0.0225 0.0457,-0.0225 0.0682,-0.0225 l 0.135704,-0.0225 q 0.0682,-0.0225 0.248906,-0.068203 l 0.271406,-0.068203 q 0.0682,0 0.113203,-0.0225 l 0.135703,-0.0225 q 0.045,0 0.135703,-0.01125 0.0907,-0.01125 0.135704,-0.01125 l 0.2714062,-0.0225 q 0.0225,0 0.0682,-0.0225 h 0.181406 q 0.045,0 0.135704,-0.01125 0.0907,-0.01125 0.135702,-0.01125 h 0.271406 q 0.045,0 0.135704,0.01125 0.0907,0.01125 0.135703,0.01125 h 0.113203 q 0.0907,0 0.135703,0.0225 0.203906,0 0.520312,0.045 0.045,0.0225 0.135704,0.0225 l 0.0682,0.0225 h 0.0682 q 0.045,0.0225 0.124453,0.045 0.07945,0.0225 0.124453,0.0225 h 0.0907 q 0.0225,0.0225 0.045,0.0225 0.0225,0 0.05625,0.01125 0.03375,0.01125 0.05625,0.01125 0.0225,0 0.0682,0.0225 0.0457,0.0225 0.0682,0.0225 h 0.0682 l 0.045,0.0225 q 0.181406,0.045 0.248906,0.090703 h 0.0682 l 0.0682,0.0225 q 0.0907,0.045 0.113203,0.045 0.0907,0.045 0.135703,0.045 l 0.045,0.0225 0.0682,0.0225 q 0.0225,0.0225 0.101954,0.05625 0.07945,0.03375 0.124453,0.05625 l 0.135703,0.045 q 0.045,0.045 0.113203,0.045 0.0225,0.0225 0.113203,0.068203 l 0.045,0.0225 0.0682,0.0225 q 1.810547,0.9506254 2.942578,2.5804684 0.543516,0.769922 0.859922,1.629844 0.045,0.0907 0.045,0.113203 0.0225,0.0225 0.0225,0.045 0,0.0225 0.0225,0.045 0.0225,0.0907 0.0682,0.226407 0,0.0225 0.0225,0.045 l 0.0225,0.045 v 0.0682 l 0.0225,0.045 q 0.0225,0.0225 0.045,0.113203 0.0225,0.0907 0.0225,0.113203 0.045,0.135703 0.045,0.203906 0.0225,0.0907 0.0682,0.226406 0,0.0225 0.01125,0.1019525 0.01125,0.07945 0.01125,0.124454 l 0.0225,0.045 v 0.045 q 0,0.0225 0.0225,0.0682 v 0.045 q 0.113204,0.973125 0.0225,1.697343 -0.0682,0.746719 -0.317109,1.516641 -0.203906,0.588516 -0.566016,1.267734 -0.407109,0.633516 -0.701718,0.995625 -0.045,0.0682 -0.181407,0.203907 -0.0225,0.045 -0.0907,0.113203 -0.0682,0.0682 -0.0907,0.113203 -0.0225,0.045 -0.0907,0.101953 -0.0682,0.05695 -0.113203,0.07945 l -0.113203,0.0907 q -0.0225,0.0225 -0.045,0.05625 -0.0225,0.03375 -0.045,0.05625 l -0.113203,0.0907 q -0.045,0.0225 -0.113203,0.0907 -0.045,0.0225 -0.113204,0.07945 -0.0682,0.05695 -0.0907,0.07945 -0.0907,0.0682 -0.226406,0.158203 -0.135703,0.09 -0.248906,0.158203 -0.045,0.045 -0.0907,0.045 0.362109,-0.113203 0.859922,-0.362109 0.746718,-0.38461 1.335234,-0.883125 0.656719,-0.588516 1.108828,-1.199532 0.430313,-0.588515 0.814922,-1.425937 l 0.0225,-0.045 v -0.045 l 0.0907,-0.181406 q 0,-0.0225 0.01125,-0.05625 0.01125,-0.03375 0.01125,-0.05625 0.0225,-0.0225 0.045,-0.0907 0.0225,-0.0682 0.0225,-0.0907 l 0.0225,-0.113203 0.045,-0.0907 q 0.0225,-0.045 0.0225,-0.113203 0,-0.0682 0.0225,-0.0907 0.0225,-0.0225 0.0225,-0.045 v -0.045 l 0.0225,-0.113203 q 0.045,-0.0907 0.045,-0.181407 0.0225,-0.0225 0.0225,-0.0907 0,-0.0682 0.0225,-0.113203 l 0.0225,-0.113203 v -0.0907 q 0,-0.0225 0.0225,-0.0907 0.0225,-0.0682 0.0225,-0.113203 v -0.203909 q 0.0225,-0.0682 0.0225,-0.203907 v -0.203909 l 0.0225,-0.113203 v -0.0907 q 0,-0.135703 -0.0225,-0.203906 v -0.203907 q 0,-0.0682 -0.01125,-0.203906 -0.01125,-0.1357025 -0.01125,-0.2039055 -0.0225,-0.0682 -0.0225,-0.203906 -0.0225,-0.0225 -0.0225,-0.0907 l -0.0225,-0.113203 q 0,-0.0225 -0.01125,-0.0907 -0.01122,-0.0682 -0.01122,-0.113204 -0.045,-0.0907 -0.045,-0.181406 -0.045,-0.135703 -0.045,-0.203906 l -0.0682,-0.203907 q -0.0225,-0.0682 -0.05625,-0.181406 -0.03375,-0.113203 -0.03375,-0.135703 -0.181406,-0.543516 -0.407109,-0.996328 -0.36211,-0.746719 -0.814922,-1.335234 -0.0225,-0.0682 -0.113203,-0.158204 -0.045,-0.0907 -0.113204,-0.158203 -0.0225,-0.0225 -0.05625,-0.0682 -0.03375,-0.0457 -0.05625,-0.0682 -0.0225,-0.0225 -0.05625,-0.07945 -0.03375,-0.05695 -0.05625,-0.07945 -0.0907,-0.0907 -0.260156,-0.271406 -0.169453,-0.180704 -0.260156,-0.271407 -0.181406,-0.181406 -0.543516,-0.4978123 -0.0225,-0.0225 -0.237656,-0.1814062 Q 16.589297,4.0691017 16.476094,3.9791017 15.412266,3.232383 14.144531,2.7795704 h -0.045 l -0.045,-0.0225 q -0.0225,-0.0225 -0.0682,-0.0225 -0.0907,-0.045 -0.135703,-0.045 -0.0225,0 -0.0682,-0.0225 -0.0457,-0.0225 -0.0682,-0.0225 h -0.0225 q -0.045,-0.0225 -0.0682,-0.0225 -0.0232,0 -0.0682,-0.0225 -0.045,0 -0.135703,-0.045 -0.0225,0 -0.0682,-0.01125 -0.0457,-0.01125 -0.0682,-0.01125 L 13.011797,2.4638673 Q 12.174375,2.3056642 11.879766,2.3056642 Z m 4.459219,9.6883587 q 0,-1.743047 -1.233985,-2.9650775 -1.233984,-1.222031 -2.953828,-1.222031 -1.743046,0 -2.9763282,1.222031 -1.233281,1.2220305 -1.233984,2.9650775 -7.03e-4,1.743047 1.233984,2.965078 1.2346882,1.222031 2.9763282,1.222031 1.720547,0 2.953828,-1.222031 1.233282,-1.222031 1.233985,-2.965078 z m -4.210313,9.688359 q 1.90125,0.0682 3.621797,-0.611015 1.720547,-0.679219 2.953828,-1.90125 1.233281,-1.222031 2.014453,-2.875078 0.781172,-1.653047 0.939375,-3.486094 v 0.0225 l -0.0225,0.113203 v 0.0682 l -0.0225,0.0225 v 0.045 q 0,0.0682 -0.045,0.248907 l -0.0225,0.113203 -0.0225,0.135703 q -0.0225,0.0682 -0.0682,0.248906 0,0.0225 -0.045,0.113203 l -0.0682,0.248906 v 0.0682 l -0.0225,0.045 q -0.339609,1.018828 -0.883125,1.87875 -0.543516,0.883125 -1.290234,1.629843 -0.814922,0.814922 -1.652344,1.312735 -0.859922,0.543515 -1.87875,0.883125 -0.181406,0.045 -0.271406,0.0907 -0.0225,0 -0.05625,0.01125 -0.03375,0.01125 -0.05625,0.01125 l -0.135704,0.045 q -0.181406,0.045 -0.248906,0.0682 -0.0907,0 -0.271406,0.045 -0.0225,0 -0.0682,0.01125 -0.0457,0.01125 -0.0682,0.01125 l -0.135703,0.0225 q -0.0682,0 -0.248907,0.045 -0.181406,0 -0.271406,0.0225 h -0.271406 q -0.0907,0.0225 -0.271406,0.0225 h -0.248907 q -0.181406,0 -0.271406,-0.0225 h -0.271406 q -0.158203,-0.0225 -0.520313,-0.0682 -0.0225,0 -0.0682,-0.01125 -0.0457,-0.01125 -0.0682,-0.01125 h -0.06822 q -0.0225,-0.0225 -0.045,-0.0225 -0.045,-0.0225 -0.135703,-0.0225 -0.0907,0 -0.135703,-0.0225 l -0.045,-0.0225 h -0.0682 q -0.0225,0 -0.0682,-0.0225 -0.0457,-0.0225 -0.0682,-0.0225 -0.0225,0 -0.05625,-0.01125 -0.03375,-0.01125 -0.05625,-0.01125 l -0.135703,-0.045 q -0.045,-0.0225 -0.124453,-0.045 -0.07945,-0.0225 -0.124453,-0.0225 l -0.0682,-0.0225 -0.045,-0.0225 q -0.0225,0 -0.0682,-0.0225 -0.0457,-0.0225 -0.0682,-0.0225 -0.0225,-0.0225 -0.045,-0.0225 -0.0225,0 -0.03375,-0.01125 -0.01125,-0.01125 -0.03375,-0.01125 l -0.0682,-0.0225 -0.045,-0.0225 q -0.045,0 -0.124453,-0.03375 -0.07945,-0.03375 -0.1244533,-0.05625 l -0.045,-0.0225 -0.0682,-0.045 q -0.0225,0 -0.113203,-0.045 -0.0907,-0.045 -0.113203,-0.045 l -0.0682,-0.045 -0.045,-0.0225 Q 7.6792968,18.635742 6.5472658,16.960898 6.0037498,16.190976 5.6641408,15.331054 l -0.045,-0.0907 q 0,-0.0225 -0.0225,-0.0682 v -0.045 q -0.045,-0.0682 -0.0907,-0.203906 0,-0.0225 -0.01125,-0.05625 -0.01125,-0.03375 -0.01125,-0.05625 -0.0225,-0.0225 -0.0225,-0.045 v -0.0225 q -0.045,-0.0907 -0.045,-0.113203 0,-0.0225 -0.01125,-0.05625 -0.01125,-0.03375 -0.01125,-0.05625 l -0.0682,-0.203907 q -0.0225,-0.0907 -0.0682,-0.226406 0,-0.045 -0.045,-0.226406 0,-0.0682 -0.045,-0.203906 v -0.113203 q -0.0225,-0.045 -0.0225,-0.113204 -0.113203,-0.973125 -0.0225,-1.674843 0.0682,-0.792428 0.317109,-1.516647 0.248906,-0.7699215 0.566016,-1.2677335 0.362109,-0.611016 0.701718,-1.018828 0.045,-0.0682 0.181407,-0.203907 0.0225,-0.0225 0.07945,-0.0907 0.05695,-0.0682 0.101953,-0.113203 l 0.203906,-0.203906 0.113203,-0.0907 0.0907,-0.0907 0.113204,-0.0907 q 0.0225,-0.045 0.113203,-0.0907 0.045,-0.0225 0.113203,-0.07945 0.0682,-0.05695 0.0907,-0.101954 0.135703,-0.0682 0.226406,-0.158203 0.045,-0.0225 0.1244531,-0.0682 0.07945,-0.0457 0.124453,-0.0682 0.045,-0.045 0.0907,-0.0682 -0.588515,0.226406 -0.859921,0.362109 -0.769922,0.407109 -1.335235,0.905625 -0.633515,0.520313 -1.108828,1.177031 -0.4753122,0.679219 -0.8149216,1.4259375 0,0.0225 -0.0225,0.045 v 0.045 l -0.045,0.113203 -0.045,0.0907 q 0,0.0225 -0.01125,0.045 -0.01125,0.0225 -0.01125,0.045 l -0.068203,0.203906 -0.045,0.0907 -0.0225,0.0907 q -0.045,0.135703 -0.045,0.203907 l -0.0225,0.045 v 0.0682 l -0.0225,0.0907 q -0.045,0.135703 -0.045,0.203906 -0.045,0.135703 -0.045,0.203906 l -0.0225,0.0907 q 0,0.0682 -0.0225,0.113204 0,0.135703 -0.0225,0.203906 0,0.135703 -0.0225,0.203906 v 0.203906 q 0,0.135703 -0.0225,0.203907 v 0.497812 q 0,0.0225 0.01125,0.05625 0.01125,0.03375 0.01125,0.05625 0,0.271406 0.0225,0.384609 0.0225,0.0682 0.0225,0.203907 0,0.0225 0.01125,0.05625 0.01125,0.03375 0.01125,0.05625 l 0.0225,0.0907 q 0,0.0225 0.01125,0.0907 0.01125,0.0682 0.01125,0.113203 0.045,0.135703 0.045,0.203906 0,0.0225 0.0225,0.0907 0.0225,0.0682 0.0225,0.0907 0.045,0.135703 0.045,0.203906 0.2714063,0.883125 0.5885157,1.49414 0.2714062,0.588516 0.7924219,1.358438 0.0225,0.0225 0.113203,0.158203 0.0907,0.0907 0.113203,0.135703 0.0225,0.0225 0.0682,0.07945 0.0457,0.05695 0.0682,0.07945 0.0225,0.045 0.113203,0.135704 0.2039069,0.271406 0.520313,0.543515 0.203906,0.226406 0.5435149,0.497813 0.181407,0.158203 0.5435161,0.430312 1.154531,0.814922 2.354063,1.199531 0.0225,0 0.0225,0.0225 l 0.045,0.0225 q 0.045,0 0.0682,0.0225 0.0682,0 0.158203,0.045 0.0225,0 0.0682,0.01125 0.0457,0.01125 0.0682,0.01125 0.0225,0.0225 0.0682,0.0225 0.0225,0.0225 0.0682,0.0225 0.0225,0 0.0682,0.0225 0.0457,0.0225 0.0682,0.0225 0.0225,0 0.07945,0.01125 0.05695,0.01125 0.07945,0.01125 l 0.271406,0.0682 q 0.475312,0.113203 1.041328,0.158203 h 0.0907 z"
     id="path1"
     style="stroke-width:0.999998" />
</svg>
