<?xml version="1.0" encoding="UTF-8" standalone="no"?>
<!-- Uploaded to: SVG Repo, www.svgrepo.com, Generator: SVG Repo Mixer Tools -->

<svg
   fill="#000000"
   width="24"
   height="24"
   viewBox="0 0 0.96000001 0.96000001"
   version="1.1"
   id="svg5"
   sodipodi:docname="damage-radiant.svg"
   inkscape:version="1.3.2 (091e20e, 2023-11-25, custom)"
   xmlns:inkscape="http://www.inkscape.org/namespaces/inkscape"
   xmlns:sodipodi="http://sodipodi.sourceforge.net/DTD/sodipodi-0.dtd"
   xmlns="http://www.w3.org/2000/svg"
   xmlns:svg="http://www.w3.org/2000/svg"
   xmlns:rdf="http://www.w3.org/1999/02/22-rdf-syntax-ns#"
   xmlns:cc="http://creativecommons.org/ns#"
   xmlns:dc="http://purl.org/dc/elements/1.1/">
  <defs
     id="defs5" />
  <sodipodi:namedview
     id="namedview5"
     pagecolor="#ffffff"
     bordercolor="#666666"
     borderopacity="1.0"
     inkscape:showpageshadow="2"
     inkscape:pageopacity="0.0"
     inkscape:pagecheckerboard="0"
     inkscape:deskcolor="#d1d1d1"
     inkscape:zoom="10.74"
     inkscape:cx="17.597765"
     inkscape:cy="14.664805"
     inkscape:window-width="1360"
     inkscape:window-height="715"
     inkscape:window-x="-8"
     inkscape:window-y="-8"
     inkscape:window-maximized="1"
     inkscape:current-layer="svg5" />
  <title
     id="title1">crimson_days</title>
  <g
     id="g5"
     transform="matrix(0.02812676,0,0,0.02812676,0.02997185,0.02994372)"
     style="stroke-width:35.5533">
    <path
       d="M 25.619,14.134 C 24.811,13.732 21.676,12.206 20.86,11.847 20.542,11.715 20.293,11.469 20.162,11.161 l -0.003,-0.008 c -0.462,-1.131 -1.919,-4.127 -2.15,-4.649 0,-0.005 0,-0.012 0,-0.018 0,-0.263 0.079,-0.508 0.214,-0.712 L 18.22,5.779 c 0.339,-0.583 2.494,-5.242 2.738,-5.766 0.075,0.104 2.993,5.983 3.076,6.126 0.104,0.352 -0.113,0.637 -0.239,0.949 -0.244,0.607 -0.474,1.219 -0.725,1.87 0.9,-0.273 1.743,-0.692 2.624,-1.005 0.88,0.417 5.959,2.859 6.305,3.116 -2.105,1.068 -4.265,1.984 -6.381,3.067 z"
       id="path1"
       style="stroke-width:35.5533" />
    <path
       d="M 6.308,7.94 8.829,8.945 C 8.864,8.491 8.153,6.988 7.957,6.512 7.962,6.237 8.041,5.982 8.174,5.764 L 8.17,5.77 c 0.462,-0.873 2.79,-5.652 2.855,-5.753 0.509,1.061 2.768,5.923 2.923,6.2 0.035,0.064 0.055,0.141 0.055,0.222 0,0.109 -0.037,0.21 -0.099,0.29 l 10e-4,-0.001 c -0.209,0.318 -2.08,4.31 -2.169,4.565 -0.082,0.234 -0.239,0.334 -0.451,0.436 C 9.957,12.367 6.66,13.912 6.359,14.101 5.905,13.887 5.448,13.675 4.994,13.458 4.103,13.031 0.117,11.088 0.005,11 Z"
       id="path2"
       style="stroke-width:35.5533" />
    <path
       d="m 20.408,20.339 c 0.265,-0.113 0.446,-0.182 0.619,-0.266 0.748,-0.367 1.48,-0.769 2.243,-1.098 0.783,-0.339 1.525,-0.754 2.352,-1.122 0.456,0.224 6.26,3.028 6.367,3.106 l -6.283,3.056 -2.513,-0.974 c -0.087,0.445 0.647,1.924 0.813,2.294 0.085,0.305 -0.014,0.568 -0.158,0.847 -0.739,1.429 -2.819,5.691 -2.871,5.759 -0.525,-1.066 -2.86,-5.956 -2.937,-6.194 -0.012,-0.05 -0.019,-0.108 -0.019,-0.167 0,-0.127 0.032,-0.246 0.087,-0.351 l -0.002,0.004 c 0.412,-1.047 0.974,-2.022 1.435,-3.046 0.288,-0.635 0.592,-1.262 0.866,-1.848 z"
       id="path3"
       style="stroke-width:35.5533" />
    <path
       d="m 6.392,17.837 c 0.7,0.356 1.373,0.701 2.049,1.04 0.779,0.39 1.581,0.739 2.37,1.105 0.628,0.29 1.025,0.7 1.242,1.303 0.217,0.603 0.527,1.123 0.802,1.68 0.367,0.745 0.674,1.522 1.037,2.271 0.048,0.088 0.076,0.192 0.076,0.303 0,0.111 -0.028,0.216 -0.078,0.307 l 0.002,-0.003 c -0.341,0.847 -2.646,5.862 -2.89,6.146 L 8.009,25.847 C 7.828,25.41 8.65,23.746 8.838,23.28 8.843,23.243 8.847,23.201 8.847,23.158 8.847,23.115 8.844,23.073 8.838,23.031 L 8.839,23.036 6.284,24.012 0.001,20.95 c 1.05,-0.628 2.136,-1.072 3.198,-1.571 1.062,-0.499 2.095,-1.01 3.194,-1.542 z"
       id="path4"
       style="stroke-width:35.5533" />
    <path
       d="m 12.73,18.239 -4.563,-2.191 4.524,-2.22 1.841,0.754 C 14.364,14.146 13.852,12.81 13.871,12.62 l 2.114,-4.409 c 0.08,0.157 1.363,2.905 2.052,4.162 0.21,0.377 0.023,0.653 -0.068,0.951 -0.158,0.516 -0.315,0.932 -0.491,1.338 l 0.032,-0.081 c 0,0 1.199,-0.503 1.618,-0.653 0.061,-0.032 0.133,-0.05 0.209,-0.05 0.084,0 0.162,0.022 0.23,0.062 l -0.002,-10e-4 c 1.069,0.549 2.15,1.077 3.229,1.606 0.243,0.118 0.915,0.425 1.038,0.503 l -4.563,2.186 -1.753,-0.718 c 0.126,0.538 0.368,1.033 0.628,1.654 0.04,0.187 -0.054,0.451 -0.202,0.731 -0.537,1.005 -1.684,3.662 -1.946,3.929 -0.09,-0.137 -1.694,-3.409 -2.011,-4.014 -0.075,-0.137 -0.12,-0.3 -0.12,-0.473 0,-0.097 0.014,-0.191 0.04,-0.28 l -0.002,0.007 0.628,-1.576 z"
       id="path5"
       style="stroke-width:35.5533" />
  </g>
  <metadata
     id="metadata5">
    <rdf:RDF>
      <cc:Work
         rdf:about="">
        <dc:title>crimson_days</dc:title>
      </cc:Work>
    </rdf:RDF>
  </metadata>
</svg>
