<?xml version="1.0" encoding="UTF-8" standalone="no"?>
<svg
   viewBox="0 0 24 24"
   version="1.1"
   id="svg1"
   sodipodi:docname="damage-cold.svg"
   inkscape:version="1.3.2 (091e20e, 2023-11-25, custom)"
   xmlns:inkscape="http://www.inkscape.org/namespaces/inkscape"
   xmlns:sodipodi="http://sodipodi.sourceforge.net/DTD/sodipodi-0.dtd"
   xmlns="http://www.w3.org/2000/svg"
   xmlns:svg="http://www.w3.org/2000/svg">
  <defs
     id="defs1" />
  <sodipodi:namedview
     id="namedview1"
     pagecolor="#ffffff"
     bordercolor="#666666"
     borderopacity="1.0"
     inkscape:showpageshadow="2"
     inkscape:pageopacity="0.0"
     inkscape:pagecheckerboard="0"
     inkscape:deskcolor="#d1d1d1"
     inkscape:zoom="3.9553786"
     inkscape:cx="-50.31124"
     inkscape:cy="17.823831"
     inkscape:window-width="1360"
     inkscape:window-height="715"
     inkscape:window-x="-8"
     inkscape:window-y="-8"
     inkscape:window-maximized="1"
     inkscape:current-layer="svg1" />
  <path
     d="m 21.6635,14.145 -2.563,0.682 -2.2,-1.243 v -3.168 l 2.2,-1.243 2.563,0.682 0.572,-2.123 -1.947,-0.517 0.506,-1.947 -2.123,-0.572 -0.682,2.563 -2.2,1.243 -2.695,-1.584 V 4.432 L 14.9755,2.551 13.4135,1 11.9945,2.419 10.5755,1 l -1.562,1.551 1.881,1.881 v 2.486 l -2.75,1.584 -2.2,-1.243 -0.638,-2.563 -2.112,0.572 0.517,1.947 -1.947,0.517 0.572,2.123 2.563,-0.682 2.2,1.243 v 3.179 l -2.2,1.243 -2.563,-0.682 -0.572,2.123 1.947,0.517 -0.517,1.936 2.123,0.572 0.682,-2.563 2.2,-1.243 2.695,1.584 v 2.486 l -1.881,1.881 1.562,1.551 1.419,-1.419 1.419,1.419 1.551,-1.551 -1.87,-1.881 v -2.486 l 2.75,-1.595 2.2,1.243 0.682,2.563 2.068,-0.561 -0.517,-1.947 1.947,-0.517 -0.561,-2.123 m -12.419,-3.729 2.75,-1.595 2.75,1.595 v 3.168 l -2.75,1.595 -2.75,-1.595 z"
     id="path1"
     style="stroke-width:1" />
</svg>
