<?xml version="1.0" encoding="UTF-8" standalone="no"?>
<svg
   viewBox="0 0 24 24"
   version="1.1"
   id="svg1"
   sodipodi:docname="damage-psychic.svg"
   inkscape:version="1.3.2 (091e20e, 2023-11-25, custom)"
   xmlns:inkscape="http://www.inkscape.org/namespaces/inkscape"
   xmlns:sodipodi="http://sodipodi.sourceforge.net/DTD/sodipodi-0.dtd"
   xmlns="http://www.w3.org/2000/svg"
   xmlns:svg="http://www.w3.org/2000/svg">
  <defs
     id="defs1" />
  <sodipodi:namedview
     id="namedview1"
     pagecolor="#ffffff"
     bordercolor="#666666"
     borderopacity="1.0"
     inkscape:showpageshadow="2"
     inkscape:pageopacity="0.0"
     inkscape:pagecheckerboard="0"
     inkscape:deskcolor="#d1d1d1"
     inkscape:zoom="15.821514"
     inkscape:cx="13.525886"
     inkscape:cy="13.810309"
     inkscape:window-width="1360"
     inkscape:window-height="715"
     inkscape:window-x="-8"
     inkscape:window-y="-8"
     inkscape:window-maximized="1"
     inkscape:current-layer="svg1" />
  <g
     id="g2"
     transform="matrix(1.006875,0,0,1.006875,-0.08250005,0.0299998)"
     style="stroke-width:0.993172">
    <path
       d="M 12,9.5895386 A 2.2987303,2.2987303 0 0 0 9.7012697,11.888269 2.2987303,2.2987303 0 0 0 12,14.186998 2.2987303,2.2987303 0 0 0 14.29873,11.888269 2.2987303,2.2987303 0 0 0 12,9.5895386 m 0,6.1299474 A 3.8312172,3.8312172 0 0 1 8.1687828,11.888269 3.8312172,3.8312172 0 0 1 12,8.0570509 3.8312172,3.8312172 0 0 1 15.831217,11.888269 3.8312172,3.8312172 0 0 1 12,15.719486 m 0,-9.5780437 c -3.8312172,0 -7.1030767,2.3830171 -8.4286779,5.7468267 1.3256012,3.363809 4.5974607,5.746825 8.4286779,5.746825 3.831217,0 7.103076,-2.383016 8.428678,-5.746825 C 19.103076,8.5244594 15.831217,6.1414423 12,6.1414423 Z"
       id="path1"
       style="stroke-width:0.993172" />
    <path
       style="stroke-width:0.993172;paint-order:stroke markers fill"
       id="path2"
       sodipodi:type="arc"
       sodipodi:cx="12"
       sodipodi:cy="3.2150838"
       sodipodi:rx="2.5"
       sodipodi:ry="2.5"
       sodipodi:start="0"
       sodipodi:end="6.254895"
       sodipodi:open="true"
       sodipodi:arc-type="chord"
       d="M 14.5,3.2150838 A 2.5,2.5 0 0 1 12.017681,5.7150213 2.5,2.5 0 0 1 9.5002501,3.2504455 2.5,2.5 0 0 1 11.94696,0.71564656 2.5,2.5 0 0 1 14.499,3.1443675 Z" />
    <path
       style="stroke-width:0.993172;paint-order:stroke markers fill"
       id="path2-8"
       sodipodi:type="arc"
       sodipodi:cx="12"
       sodipodi:cy="20.561453"
       sodipodi:rx="2.5"
       sodipodi:ry="2.5"
       sodipodi:start="0"
       sodipodi:end="6.254895"
       sodipodi:open="true"
       sodipodi:arc-type="chord"
       d="M 14.5,20.561453 A 2.5,2.5 0 0 1 12.017681,23.06139 2.5,2.5 0 0 1 9.5002501,20.596815 2.5,2.5 0 0 1 11.94696,18.062016 2.5,2.5 0 0 1 14.499,20.490737 Z" />
  </g>
</svg>
