<?xml version="1.0" encoding="UTF-8" standalone="no"?>
<svg
   viewBox="0 0 24 24"
   version="1.1"
   id="svg1"
   sodipodi:docname="damage-poison.svg"
   width="24"
   height="24"
   inkscape:version="1.3.2 (091e20e, 2023-11-25, custom)"
   xmlns:inkscape="http://www.inkscape.org/namespaces/inkscape"
   xmlns:sodipodi="http://sodipodi.sourceforge.net/DTD/sodipodi-0.dtd"
   xmlns="http://www.w3.org/2000/svg"
   xmlns:svg="http://www.w3.org/2000/svg">
  <defs
     id="defs1" />
  <sodipodi:namedview
     id="namedview1"
     pagecolor="#ffffff"
     bordercolor="#666666"
     borderopacity="1.0"
     inkscape:showpageshadow="2"
     inkscape:pageopacity="0.0"
     inkscape:pagecheckerboard="0"
     inkscape:deskcolor="#d1d1d1"
     inkscape:zoom="8.390625"
     inkscape:cx="7.0912477"
     inkscape:cy="16.744879"
     inkscape:window-width="1360"
     inkscape:window-height="715"
     inkscape:window-x="-8"
     inkscape:window-y="-8"
     inkscape:window-maximized="1"
     inkscape:current-layer="svg1" />
  <!--! Font Awesome Free 6.5.2 by @fontawesome - https://fontawesome.com License - https://fontawesome.com/license/free (Icons: CC BY 4.0, Fonts: SIL OFL 1.1, Code: MIT License) Copyright 2024 Fonticons, Inc.-->
  <path
     d="m 18.185536,6.5001648 c 0,1.9078697 -1.091438,3.5879982 -2.750082,4.5720122 v 0.928153 c 0,0.760569 -0.614471,1.375041 -1.375041,1.375041 H 9.9352897 c -0.7605698,0 -1.3750413,-0.614472 -1.3750413,-1.375041 V 11.072177 C 6.901605,10.083866 5.810166,8.4037374 5.810166,6.5001648 c 0,-3.0379816 2.7715674,-5.50016484 6.187685,-5.50016484 3.416118,0 6.187685,2.46218324 6.187685,5.50016484 z M 9.5915293,8.5627266 a 1.3750413,1.3750413 0 1 0 0,-2.7500824 1.3750413,1.3750413 0 1 0 0,2.7500824 z M 15.779215,7.1876854 a 1.3750415,1.3750415 0 1 0 -2.750083,0 1.3750415,1.3750415 0 1 0 2.750083,0 z M 2.5186611,12.760899 c 0.3394633,-0.678926 1.1644881,-0.953935 1.8434147,-0.614471 l 7.6357752,3.815739 7.635775,-3.815739 c 0.678927,-0.339464 1.503952,-0.06446 1.843415,0.614471 0.339463,0.678927 0.06445,1.503952 -0.614471,1.843415 l -5.788065,2.89618 5.792361,2.89618 c 0.678928,0.339464 0.953936,1.164489 0.614472,1.843415 -0.339463,0.678927 -1.164488,0.953936 -1.843414,0.614472 L 11.997851,19.038822 4.3620758,22.854561 C 3.6831492,23.194025 2.8581244,22.919021 2.5186611,22.240089 2.1791978,21.561163 2.4542061,20.736138 3.1331327,20.396674 l 5.788064,-2.89618 -5.788064,-2.89618 C 2.4542061,14.264851 2.1791978,13.439826 2.5186611,12.760899 Z"
     id="path1"
     style="stroke-width:1" />
</svg>
