<?xml version="1.0" encoding="UTF-8" standalone="no"?>
<!-- Created with Inkscape (http://www.inkscape.org/) -->

<svg
   width="512"
   height="512"
   viewBox="0 0 135.46667 135.46667"
   version="1.1"
   id="svg1"
   inkscape:version="1.3.2 (091e20e, 2023-11-25, custom)"
   xmlns:inkscape="http://www.inkscape.org/namespaces/inkscape"
   xmlns:sodipodi="http://sodipodi.sourceforge.net/DTD/sodipodi-0.dtd"
   xmlns="http://www.w3.org/2000/svg"
   xmlns:svg="http://www.w3.org/2000/svg">
  <sodipodi:namedview
     id="namedview1"
     pagecolor="#ffffff"
     bordercolor="#666666"
     borderopacity="1.0"
     inkscape:showpageshadow="false"
     inkscape:pageopacity="0.0"
     inkscape:pagecheckerboard="0"
     inkscape:deskcolor="#d1d1d1"
     inkscape:document-units="mm"
     inkscape:zoom="0.21986955"
     inkscape:cx="395.68917"
     inkscape:cy="559.42262"
     inkscape:window-width="698"
     inkscape:window-height="706"
     inkscape:window-x="654"
     inkscape:window-y="0"
     inkscape:window-maximized="0"
     inkscape:current-layer="layer1" />
  <defs
     id="defs1" />
  <g
     inkscape:label="Layer 1"
     inkscape:groupmode="layer"
     id="layer1">
    <path
       id="path2839"
       style="color:#000000;font-style:normal;font-variant:normal;font-weight:normal;font-stretch:normal;font-size:medium;line-height:normal;font-family:sans-serif;font-variant-ligatures:normal;font-variant-position:normal;font-variant-caps:normal;font-variant-numeric:normal;font-variant-alternates:normal;font-variant-east-asian:normal;font-feature-settings:normal;font-variation-settings:normal;text-indent:0;text-align:start;text-decoration:none;text-decoration-line:none;text-decoration-style:solid;text-decoration-color:#000000;letter-spacing:normal;word-spacing:normal;text-transform:none;writing-mode:lr-tb;direction:ltr;text-orientation:mixed;dominant-baseline:auto;baseline-shift:baseline;text-anchor:start;white-space:normal;shape-padding:0;shape-margin:0;inline-size:0;clip-rule:nonzero;display:inline;overflow:visible;visibility:visible;isolation:auto;mix-blend-mode:normal;color-interpolation:sRGB;color-interpolation-filters:linearRGB;solid-color:#000000;solid-opacity:1;vector-effect:none;fill-opacity:1;fill-rule:nonzero;stroke-width:0.999999;color-rendering:auto;image-rendering:auto;shape-rendering:auto;text-rendering:auto;enable-background:accumulate;stop-color:#000000"
       d="M 66.093002,36.365389 C 50.968686,36.806586 36.011344,42.536139 24.38743,52.174489 14.35313,60.494706 5.2061982,69.549376 3.1625106e-6,79.830203 5.6604142,75.27579 11.565032,70.579072 17.669824,66.287654 c 1.879311,2.265447 3.890561,4.420462 6.032357,6.437812 l -1.10779,11.509684 8.273047,-5.594412 c 0.142793,0.103447 0.28112,0.211757 0.424752,0.313878 2.128733,1.51466 4.353509,2.905624 6.653615,4.150524 l 0.436246,9.417215 5.020476,-6.82512 c 2.621698,1.06533 5.326574,1.91307 8.099464,2.48897 l 1.1329,8.66316 4.40605,-7.884 c 2.104817,0.17065 4.220552,0.21309 6.333857,0.11937 l 3.293685,10.0383 3.469565,-10.75337 c 0.0615,-0.009 0.12378,-0.0177 0.18523,-0.0265 2.23684,-0.37621 4.45371,-0.88968 6.63533,-1.52177 l 4.47458,9.29578 2.23843,-11.725145 c 1.34766,-0.58689 2.67513,-1.21785 3.96751,-1.91594 l 5.342531,6.233835 0.63722,-10.036045 c 2.21787,-1.652921 4.2881,-3.487183 6.2585,-5.431701 l 7.064751,6.37371 V 65.541575 c 0.5921,-0.687724 1.17607,-1.3823 1.76331,-2.07418 1.03668,0.65364 2.08735,1.292072 3.17719,1.874779 3.74103,1.999955 8.06483,3.418528 12.36162,2.702047 3.03042,-0.505189 5.8557,-2.083972 7.88245,-4.400281 2.02681,-2.31633 3.22317,-5.337493 3.33026,-8.418028 0.10699,-3.080512 -0.66206,-6.346013 -2.73637,-8.619572 -2.11149,-2.314253 -4.92338,-4.03994 -7.55582,-4.948108 -0.0133,-0.0044 -0.0309,-0.0088 -0.0442,-0.0088 -0.0659,-0.01326 -0.13307,-0.01326 -0.19894,0 -0.0442,0.0088 -0.0871,0.0221 -0.12776,0.04421 -0.0265,0.01326 -0.053,0.02652 -0.0778,0.04421 -0.0265,0.01326 -0.0482,0.02652 -0.0707,0.04554 -0.0177,0.01768 -0.0354,0.03094 -0.0504,0.0504 -0.0309,0.03095 -0.0557,0.0672 -0.0778,0.105657 -0.0265,0.03979 -0.0464,0.07869 -0.0619,0.121573 v 0.0088 c -0.002,0.0088 -0.004,0.01768 -0.009,0.02652 -0.004,0.03537 -0.009,0.06896 -0.009,0.103447 -0.004,0.03537 -0.004,0.06852 0,0.103448 0.002,0.01768 0.004,0.03537 0.009,0.05261 -9e-5,0.0044 -9e-5,0.01326 0,0.01768 0.009,0.03095 0.0221,0.0641 0.0354,0.09416 0.009,0.0221 0.0221,0.03979 0.0354,0.06189 0.0133,0.02652 0.031,0.05305 0.0504,0.07825 0.0177,0.0221 0.0354,0.03979 0.0526,0.05924 1.84204,1.739193 3.2987,3.880282 4.2393,6.236156 0.82273,2.060808 1.22598,4.334786 0.65551,6.375855 -0.28465,1.018069 -0.81177,1.97133 -1.55318,2.686043 -0.73876,0.712149 -1.70723,1.19331 -2.70209,1.290303 -1.14692,0.111847 -2.35937,-0.270996 -3.497,-0.822802 -3.41716,-1.658071 -6.15103,-4.579876 -9.23692,-7.120673 -5.52692,-4.550611 -12.05828,-7.67248 -18.741121,-10.065777 -8.861521,-3.173504 -18.251201,-5.152548 -27.694854,-4.877043 z m -9.588704,11.264413 h 22.96675 c 0,7.036723 -5.14001,12.740326 -11.48227,12.740326 -6.342232,0 -11.48448,-5.703603 -11.48448,-12.740326 z m -8.003532,3.428586 c 1.147798,11.403714 9.302744,20.250693 19.209397,20.250693 9.705515,-4.4e-5 17.718575,-8.495392 19.120265,-19.563212 6.193121,2.282688 12.137481,5.434884 17.704122,9.020717 0.66474,0.428377 1.33323,0.865508 1.99861,1.301798 -7.906941,6.721186 -17.333952,11.635939 -27.365912,14.246165 -9.41337,2.44922 -19.321675,2.877465 -28.944265,1.466738 C 44.748798,76.978777 39.354298,75.584894 34.215919,73.527623 28.915162,71.405322 23.900035,68.570784 19.332692,65.137181 28.643857,58.749479 38.409371,53.408891 48.500766,51.058388 Z" />
  </g>
</svg>
