<?xml version="1.0" encoding="UTF-8" standalone="no"?>
<!-- Created with Inkscape (http://www.inkscape.org/) -->

<svg
   width="512"
   height="512"
   viewBox="0 0 135.46667 135.46667"
   version="1.1"
   id="svg1"
   inkscape:version="1.3.2 (091e20e, 2023-11-25, custom)"
   xmlns:inkscape="http://www.inkscape.org/namespaces/inkscape"
   xmlns:sodipodi="http://sodipodi.sourceforge.net/DTD/sodipodi-0.dtd"
   xmlns="http://www.w3.org/2000/svg"
   xmlns:svg="http://www.w3.org/2000/svg">
  <sodipodi:namedview
     id="namedview1"
     pagecolor="#ffffff"
     bordercolor="#666666"
     borderopacity="1.0"
     inkscape:showpageshadow="false"
     inkscape:pageopacity="0.0"
     inkscape:pagecheckerboard="0"
     inkscape:deskcolor="#d1d1d1"
     inkscape:document-units="mm"
     inkscape:zoom="0.49041216"
     inkscape:cx="394.56607"
     inkscape:cy="559.73326"
     inkscape:window-width="1344"
     inkscape:window-height="729"
     inkscape:window-x="202"
     inkscape:window-y="107"
     inkscape:window-maximized="0"
     inkscape:current-layer="layer1" />
  <defs
     id="defs1" />
  <g
     inkscape:label="Layer 1"
     inkscape:groupmode="layer"
     id="layer1">
    <path
       id="path2700"
       style="color:#000000;font-style:normal;font-variant:normal;font-weight:normal;font-stretch:normal;font-size:medium;line-height:normal;font-family:sans-serif;font-variant-ligatures:normal;font-variant-position:normal;font-variant-caps:normal;font-variant-numeric:normal;font-variant-alternates:normal;font-variant-east-asian:normal;font-feature-settings:normal;font-variation-settings:normal;text-indent:0;text-align:start;text-decoration:none;text-decoration-line:none;text-decoration-style:solid;text-decoration-color:#000000;letter-spacing:normal;word-spacing:normal;text-transform:none;writing-mode:lr-tb;direction:ltr;text-orientation:mixed;dominant-baseline:auto;baseline-shift:baseline;text-anchor:start;white-space:normal;shape-padding:0;shape-margin:0;inline-size:0;clip-rule:nonzero;display:inline;overflow:visible;visibility:visible;isolation:auto;mix-blend-mode:normal;color-interpolation:sRGB;color-interpolation-filters:linearRGB;solid-color:#000000;solid-opacity:1;vector-effect:none;fill-opacity:1;fill-rule:nonzero;stroke-width:1;color-rendering:auto;image-rendering:auto;shape-rendering:auto;text-rendering:auto;enable-background:accumulate;stop-color:#000000"
       d="M 47.829367,8.333333e-7 C 44.791942,1.6583333e-4 42.330062,2.4716688 42.331492,5.5193228 V 21.949158 H 16.012729 c -3.037425,-0.0014 -5.500514,2.468809 -5.500734,5.516463 -0.0014,3.048918 2.462209,5.520752 5.500734,5.519377 h 26.318763 v 96.962292 c -0.0014,3.04771 2.46045,5.51916 5.497875,5.51938 3.037425,-2.2e-4 5.49925,-2.47167 5.497875,-5.51938 V 71.976926 c 0.129781,-4.10476 1.176058,-8.49306 3.202401,-11.38652 1.700846,-2.36014 4.06671,-4.284477 6.679818,-5.419621 1.605216,-0.697243 2.988816,-0.862274 3.702226,-0.689874 0.54717,0.132531 1.21829,0.640051 1.49446,1.131789 0.27661,0.491628 0.27386,1.081362 0.18202,1.873026 -1.81869,15.67639 -3.3864,31.4378 -5.026208,47.151194 L 75.665797,87.634126 c 4.92024,-6.90732 9.85824,-13.80072 14.80873,-20.68626 1.91009,-2.65667 3.567,-4.73657 5.18535,-5.77592 0.78188,-0.50208 1.57316,-0.76714 2.1707,-0.82961 0.55767,-0.0561 1.07427,0.0885 1.27576,0.21392 h 0.011 c 0.18917,0.11823 0.51417,0.46248 0.71033,0.92651 0.207873,0.49437 0.334903,1.22357 0.289813,2.04696 -0.0929,1.69133 -0.947903,3.87424 -2.255993,6.40315 -4.46568,8.63385 -10.51787,16.69671 -16.76353,24.93121 -1.79235,2.3631 -3.80346,4.96131 -5.46658,8.125114 -1.67682,3.18964 -2.97688,6.95945 -2.92943,11.15269 0.033,3.04744 0.8008,6.05731 2.29581,8.76946 1.4977,2.7171 3.66362,5.03061 6.35877,6.65969 4.82296,2.91518 10.41619,3.19124 15.34573,1.87589 7.077183,-1.88832 12.132653,-6.58854 16.280473,-10.71084 2.26512,-2.25115 4.63335,-4.72585 6.73102,-7.6832 2.10652,-2.97012 3.9201,-6.43142 4.77055,-10.40871 0.60818,-2.845564 0.75254,-6.099554 -0.33545,-9.396524 -0.54607,-1.65411 -1.39069,-3.25927 -2.60833,-4.69549 -1.22412,-1.44409 -2.78149,-2.6653 -4.65116,-3.46103 -3.13471,-1.33422 -6.57946,-1.28329 -9.67457,0.13968 -3.09528,1.42352 -5.39366,4.02194 -6.43263,7.2756 -0.928153,2.90098 0.66321,6.00775 3.55441,6.93904 2.89461,0.930354 5.99236,-0.67228 6.91573,-3.57789 0.0594,-0.18697 0.3591,-0.52242 0.53727,-0.60435 0.17818,-0.0814 0.62675,-0.088 0.8069,-0.011 0.14353,0.061 0.37559,0.21447 0.56834,0.44213 0.19962,0.23481 0.40694,0.59457 0.54827,1.02351 0.28651,0.86876 0.32885,2.16701 0.022,3.612094 -0.44489,2.0812 -1.50068,4.25627 -2.97485,6.33469 -1.48308,2.09096 -3.39531,4.11988 -5.51778,6.22927 -3.82898,3.80541 -7.589163,6.89021 -11.362273,7.897 -2.46095,0.65675 -5.1142,0.36573 -6.84177,-0.67846 -0.97088,-0.58687 -1.84135,-1.49088 -2.41508,-2.53161 -0.57643,-1.04572 -0.9094,-2.31978 -0.92343,-3.5665 -0.022,-1.74501 0.5805,-3.8099 1.665,-5.87292 1.09813,-2.08887 2.69724,-4.23152 4.48921,-6.59409 6.25286,-8.244004 12.731183,-16.784414 17.772243,-26.530584 1.4998,-2.89978 3.22379,-6.4549 3.46631,-10.87053 0.12263,-2.23009 -0.14958,-4.61548 -1.12514,-6.93911 -0.98848,-2.353927 -2.63911,-4.514671 -5.03759,-6.012596 -2.58847,-1.616709 -5.481873,-2.105917 -8.194243,-1.833157 -2.67096,0.268911 -5.01961,1.250627 -7.00086,2.523086 -3.91757,2.515936 -6.23625,5.917957 -8.17158,8.609757 -0.91347,1.27048 -1.82656,2.54327 -2.73899,3.81452 l 0.44929,-4.25066 c 0.8499,-3.339495 0.41409,-6.827194 -1.28709,-9.855656 -1.832,-3.261298 -4.87685,-5.56678 -8.50395,-6.443077 -4.06512,-0.981991 -7.738142,0.022 -10.643477,1.282962 -1.973056,0.857105 -3.813911,1.958539 -5.509203,3.244305 V 32.98574 h 28.78218 c 3.03743,-1.65e-4 5.49925,-2.471668 5.49788,-5.519377 -2.2e-4,-3.046554 -2.46161,-5.516297 -5.49788,-5.516462 H 53.329222 V 5.5200658 c 0.0014,-3.047654 -2.46045,-5.51915696667 -5.497875,-5.51932196667 z"
       sodipodi:nodetypes="ccccccccccccssssccsscccssssssssssscsssccccssssssssssssssssscssccsssccccccccc" />
  </g>
</svg>
