<?xml version="1.0" encoding="UTF-8" standalone="no"?>
<!-- Created with Inkscape (http://www.inkscape.org/) -->

<svg
   width="512"
   height="512"
   viewBox="0 0 135.46667 135.46667"
   version="1.1"
   id="svg1"
   inkscape:version="1.3.2 (091e20e, 2023-11-25, custom)"
   xmlns:inkscape="http://www.inkscape.org/namespaces/inkscape"
   xmlns:sodipodi="http://sodipodi.sourceforge.net/DTD/sodipodi-0.dtd"
   xmlns="http://www.w3.org/2000/svg"
   xmlns:svg="http://www.w3.org/2000/svg">
  <sodipodi:namedview
     id="namedview1"
     pagecolor="#ffffff"
     bordercolor="#666666"
     borderopacity="1.0"
     inkscape:showpageshadow="false"
     inkscape:pageopacity="0.0"
     inkscape:pagecheckerboard="0"
     inkscape:deskcolor="#d1d1d1"
     inkscape:document-units="mm"
     inkscape:zoom="0.49041216"
     inkscape:cx="394.56607"
     inkscape:cy="559.73326"
     inkscape:window-width="1344"
     inkscape:window-height="729"
     inkscape:window-x="74"
     inkscape:window-y="142"
     inkscape:window-maximized="0"
     inkscape:current-layer="layer1" />
  <defs
     id="defs1" />
  <g
     inkscape:label="Layer 1"
     inkscape:groupmode="layer"
     id="layer1">
    <path
       id="path2797"
       style="color:#000000;font-style:normal;font-variant:normal;font-weight:normal;font-stretch:normal;font-size:medium;line-height:normal;font-family:sans-serif;font-variant-ligatures:normal;font-variant-position:normal;font-variant-caps:normal;font-variant-numeric:normal;font-variant-alternates:normal;font-variant-east-asian:normal;font-feature-settings:normal;font-variation-settings:normal;text-indent:0;text-align:start;text-decoration:none;text-decoration-line:none;text-decoration-style:solid;text-decoration-color:#000000;letter-spacing:normal;word-spacing:normal;text-transform:none;writing-mode:lr-tb;direction:ltr;text-orientation:mixed;dominant-baseline:auto;baseline-shift:baseline;text-anchor:start;white-space:normal;shape-padding:0;shape-margin:0;inline-size:0;clip-rule:nonzero;display:inline;overflow:visible;visibility:visible;isolation:auto;mix-blend-mode:normal;color-interpolation:sRGB;color-interpolation-filters:linearRGB;solid-color:#000000;solid-opacity:1;vector-effect:none;fill-opacity:1;fill-rule:nonzero;stroke-width:1;color-rendering:auto;image-rendering:auto;shape-rendering:auto;text-rendering:auto;enable-background:accumulate;stop-color:#000000"
       d="m 11.00975,0.00238167 c -0.368364,0.02183 -0.662237,0.315429 -0.682375,0.684667 C 9.99612,6.0819217 10.783056,11.535733 12.608451,16.620962 c 1.744683,4.860117 4.352811,9.304119 6.77834,13.74119 2.421819,4.430304 4.638935,8.967462 6.713509,13.580038 l 17.828342,39.650733 c -1.394491,0.0382 -2.781232,-0.0546 -4.12508,-0.35635 -3.852381,-0.87109 -7.324065,-3.44517 -9.282126,-6.88618 l -0.0027,-0.003 c -0.01091,-0.0218 -0.02729,-0.0437 -0.04366,-0.0677 l -0.0055,-0.005 c -0.01637,-0.0218 -0.03274,-0.0436 -0.04912,-0.0622 l -0.0027,-0.003 c -0.01637,-0.0164 -0.0382,-0.0382 -0.05948,-0.0546 -0.0015,-9.8e-4 -0.0055,-0.001 -0.0055,-0.003 -0.02183,-0.0164 -0.04366,-0.0327 -0.0704,-0.0491 -0.04912,-0.0328 -0.09878,-0.0546 -0.152257,-0.0731 -0.0055,-0.003 -0.01637,-0.005 -0.02183,-0.0109 -0.05512,-0.0164 -0.111874,-0.0273 -0.169175,-0.0327 -0.02729,-10e-4 -0.05839,-10e-4 -0.08732,0 -0.02729,0.001 -0.05457,0.005 -0.07913,0.0109 -0.0015,-6e-5 -0.0055,-6e-5 -0.0055,0 -0.0027,8.7e-4 -0.0055,10e-4 -0.01092,0.003 -0.02729,0.005 -0.04912,0.0109 -0.07585,0.0218 -0.02183,0.005 -0.04366,0.0164 -0.06221,0.0218 -0.01637,0.005 -0.03274,0.0164 -0.04912,0.0218 -0.01091,0.005 -0.02183,0.0109 -0.0382,0.0218 -0.0055,0.005 -0.01637,0.0109 -0.02183,0.0164 -0.01637,0.0109 -0.03274,0.0218 -0.04912,0.0327 l -0.0055,0.005 c -0.02183,0.0164 -0.04366,0.0382 -0.06494,0.0568 l -0.0055,0.005 c -0.01637,0.0164 -0.03274,0.0327 -0.04912,0.0491 -9.83e-4,10e-4 -0.0015,0.005 -0.0027,0.005 -0.01637,0.0218 -0.03274,0.0437 -0.04912,0.0649 -9.28e-4,0.001 -0.0014,0.005 -0.0027,0.005 -0.01637,0.0218 -0.02729,0.0436 -0.0382,0.0677 -9.82e-4,0.003 -0.0014,0.005 -0.0027,0.0109 -0.03274,0.0688 -0.05457,0.14244 -0.06494,0.21775 -10e-4,0.005 -0.0014,0.0164 -0.0027,0.0218 -0.578359,2.00309 -0.637189,4.1515 -0.149529,6.17897 0.499339,2.07431 1.559355,4.00437 3.036741,5.53944 1.977653,2.05487 4.572575,3.29716 7.181577,4.14762 3.028937,0.98732 6.205602,1.49016 9.386469,1.5277 L 67.04183,134.99394 c 0.01637,0.0382 0.03274,0.0709 0.04912,0.10478 0.0055,0.0109 0.01637,0.0218 0.02183,0.0327 0.01091,0.0109 0.01637,0.0273 0.02729,0.0382 0.0055,0.0109 0.01091,0.0164 0.02183,0.0273 0.01091,0.0109 0.02183,0.0273 0.0382,0.0382 0.01091,0.0109 0.01637,0.0164 0.02729,0.0273 0.01091,0.0109 0.02183,0.0164 0.03274,0.0273 0.0055,0.003 0.0055,0.005 0.01091,0.0109 0.01637,0.0164 0.0382,0.0273 0.05675,0.0437 0.02729,0.0164 0.05457,0.0273 0.07913,0.0437 0.0027,10e-4 0.0055,0.005 0.01091,0.005 0.0027,9.2e-4 0.0055,0.001 0.01091,0.003 0.02183,0.0109 0.04912,0.0218 0.07313,0.0273 h 0.0027 c 0.0015,9.3e-4 0.0055,0.001 0.0055,0.003 0.02183,0.005 0.04912,0.0164 0.07313,0.0218 0.02183,0.005 0.0382,0.005 0.05894,0.0109 0.01091,10e-4 0.01637,10e-4 0.02729,0.003 0.03274,0.003 0.06003,0.005 0.09005,0.003 0.0015,0 0.0055,0 0.0055,0 0.02729,-0.001 0.04912,-0.005 0.07586,-0.0109 0.05621,-0.0109 0.111328,-0.0273 0.163717,-0.0491 0.0027,-8.7e-4 0.0055,-0.001 0.01091,-0.003 9.82e-4,-9.8e-4 0.0015,-0.001 0.0027,-0.003 0.02729,-0.0109 0.05948,-0.0273 0.08732,-0.0437 0.02183,-0.0109 0.0382,-0.0273 0.05948,-0.0382 l 0.0027,-0.003 c 0.0027,-0.001 0.0055,-0.005 0.01091,-0.005 0.04366,-0.0327 0.07913,-0.0693 0.112965,-0.11078 0.0027,-0.005 0.0055,-0.005 0.01091,-0.0109 0.01637,-0.0218 0.02729,-0.0382 0.04366,-0.0595 0.0027,-0.005 0.0055,-0.005 0.01091,-0.0109 0.01092,-0.0218 0.02183,-0.0382 0.03274,-0.0622 0.0015,-0.005 0.0055,-0.0109 0.0055,-0.0164 9.83e-4,-0.001 0.0015,-0.005 0.0027,-0.005 L 90.168157,86.629283 c 5.85667,0.8068 11.524463,3.03123 16.325473,6.49009 0.005,0.003 0.0109,0.005 0.0164,0.0109 0.0218,0.0164 0.0437,0.0273 0.0622,0.0382 0.0273,0.0164 0.0573,0.0273 0.0873,0.0382 0.0273,0.0109 0.0546,0.0218 0.0819,0.0273 0.0164,0.003 0.0273,0.005 0.0437,0.0109 0.0164,0.003 0.0273,0.005 0.0437,0.0109 0.0273,0.005 0.0584,0.005 0.0873,0.005 0.001,6e-5 0.005,6e-5 0.005,0 10e-4,6e-5 0.005,6e-5 0.005,0 0.0551,-3.2e-4 0.11023,-0.005 0.16371,-0.0218 0.005,-0.001 0.0109,-0.005 0.0218,-0.005 0.0218,-0.005 0.0382,-0.0109 0.0568,-0.0164 10e-4,-9.3e-4 0.005,-0.001 0.005,-0.003 0.0218,-0.0109 0.0436,-0.0164 0.0649,-0.0273 0.003,-9.3e-4 0.005,-0.001 0.0109,-0.003 0.005,-0.005 0.0164,-0.005 0.0218,-0.0109 0.0164,-0.0109 0.0382,-0.0218 0.0546,-0.0327 0.0218,-0.0164 0.0437,-0.0327 0.0677,-0.0491 0.0218,-0.0164 0.0437,-0.0382 0.0649,-0.0595 0.0164,-0.0164 0.0328,-0.0382 0.0437,-0.0562 l 0.0109,-0.0109 c 0.001,-0.003 0.005,-0.005 0.005,-0.0109 0.003,-0.005 0.005,-0.005 0.0109,-0.0109 0.0109,-0.0218 0.0273,-0.0382 0.0382,-0.0622 0.09,-0.1599 0.11624,-0.34763 0.0731,-0.52611 -1.09849,-4.24961 -3.34202,-8.18816 -6.4371,-11.29118 -1.876703,-1.8815 -4.063633,-3.44192 -6.437163,-4.62846 l 14.611303,-32.49317 c 2.07452,-4.612549 4.29164,-9.149733 6.71346,-13.58001 2.42553,-4.437071 5.03365,-8.881128 6.77828,-13.741245 1.82556,-5.085229 2.60093,-10.5389853 2.26984,-15.93385833 -0.0218,-0.4022 -0.36619,-0.70977 -0.76691,-0.684667 -0.29524,0.02183 -0.54906,0.217744 -0.64008,0.500976 -1.50342,3.07772503 -2.93584,6.19419603 -4.2745,9.34755803 -1.1236,2.6465483 -2.17941,5.2927683 -3.53865,7.7434013 -2.94833,5.315743 -7.38191,9.807223 -10.7624,15.141684 -1.94906,3.075597 -3.479,6.331228 -5.233183,9.409771 -1.75341,3.077125 -3.7649,6.014981 -6.41461,8.210268 -2.39682,1.98573 -5.3063,3.351024 -8.35456,4.085302 -3.04986,0.73465 -6.24306,0.85602 -9.38922,0.52335 -4.094305,-0.43331 -8.110458,-1.627029 -12.062326,-3.004548 -4.833049,-1.684762 -9.700697,-3.690737 -14.921375,-4.382389 -2.451942,-0.324707 -4.850185,-0.357996 -7.009509,-1.060944 -1.816609,-0.591348 -3.494877,-1.662715 -4.934281,-2.98195 -1.440823,-1.3206 -2.660682,-2.887649 -3.7416,-4.566299 -2.162598,-3.358173 -3.767193,-7.152926 -6.000191,-10.660273 -2.398188,-3.766812 -5.392471,-7.017886 -7.511412,-10.725405 -1.385705,-2.424492 -2.42613,-5.078298 -3.53859,-7.7320223 -1.334461,-3.183377 -2.76175,-6.319113 -4.291472,-9.41266403 -0.108599,-0.252125 -0.349809,-0.420754 -0.623108,-0.436034 -0.02729,-0.001400004 -0.05676,-0.001400004 -0.08459,0 z M 50.300963,62.309163 c 0.656125,0.0164 1.312414,0.0584 1.962427,0.16099 4.347627,0.68854 8.458355,2.77796 12.894116,4.1391 6.311964,1.93689 13.087851,2.06863 19.545521,0.70726 l -3.26796,6.49577 c -0.47097,0.0218 -0.9422,0.0273 -1.41261,0.0677 -3.3089,0.27559 -6.59847,0.98323 -9.761495,1.88138 -4.473089,1.27023 -8.800033,2.90506 -13.128068,4.47577 l -8.802816,-17.90581 c 0.657871,-0.0218 1.314815,-0.0382 1.970885,-0.0218 z m 24.175284,25.33222 -6.930539,13.775247 -4.937174,-10.043517 c 2.287297,-0.77204 4.549654,-1.59587 6.81223,-2.31994 1.667681,-0.53371 3.355063,-1.00528 5.055483,-1.41179 z"
       sodipodi:nodetypes="ccssccsccccscccsccsccccscsscccscccccccscsssccccsccscccccccccccsscccccccccscccccccsscccccsssccccccscccccccccsccsscccssssssssssssssscscccccssccscsccccsc" />
  </g>
</svg>
