<?xml version="1.0" encoding="UTF-8" standalone="no"?>
<!-- Created with Inkscape (http://www.inkscape.org/) -->

<svg
   width="512"
   height="512"
   viewBox="0 0 135.46667 135.46667"
   version="1.1"
   id="svg1"
   inkscape:version="1.3.2 (091e20e, 2023-11-25, custom)"
   xmlns:inkscape="http://www.inkscape.org/namespaces/inkscape"
   xmlns:sodipodi="http://sodipodi.sourceforge.net/DTD/sodipodi-0.dtd"
   xmlns="http://www.w3.org/2000/svg"
   xmlns:svg="http://www.w3.org/2000/svg">
  <sodipodi:namedview
     id="namedview1"
     pagecolor="#ffffff"
     bordercolor="#666666"
     borderopacity="1.0"
     inkscape:showpageshadow="false"
     inkscape:pageopacity="0.0"
     inkscape:pagecheckerboard="0"
     inkscape:deskcolor="#d1d1d1"
     inkscape:document-units="mm"
     inkscape:zoom="0.49041216"
     inkscape:cx="394.56607"
     inkscape:cy="559.73326"
     inkscape:window-width="1344"
     inkscape:window-height="729"
     inkscape:window-x="202"
     inkscape:window-y="107"
     inkscape:window-maximized="0"
     inkscape:current-layer="layer1" />
  <defs
     id="defs1" />
  <g
     inkscape:label="Layer 1"
     inkscape:groupmode="layer"
     id="layer1">
    <path
       id="path2656"
       style="color:#000000;font-style:normal;font-variant:normal;font-weight:normal;font-stretch:normal;font-size:medium;line-height:normal;font-family:sans-serif;font-variant-ligatures:normal;font-variant-position:normal;font-variant-caps:normal;font-variant-numeric:normal;font-variant-alternates:normal;font-variant-east-asian:normal;font-feature-settings:normal;font-variation-settings:normal;text-indent:0;text-align:start;text-decoration:none;text-decoration-line:none;text-decoration-style:solid;text-decoration-color:#000000;letter-spacing:normal;word-spacing:normal;text-transform:none;writing-mode:lr-tb;direction:ltr;text-orientation:mixed;dominant-baseline:auto;baseline-shift:baseline;text-anchor:start;white-space:normal;shape-padding:0;shape-margin:0;inline-size:0;clip-rule:nonzero;display:inline;overflow:visible;visibility:visible;isolation:auto;mix-blend-mode:normal;color-interpolation:sRGB;color-interpolation-filters:linearRGB;solid-color:#000000;solid-opacity:1;vector-effect:none;fill-opacity:1;fill-rule:nonzero;stroke-width:1;color-rendering:auto;image-rendering:auto;shape-rendering:auto;text-rendering:auto;enable-background:accumulate;stop-color:#000000"
       d="m 35.436105,0.01023132 c -1.849985,-0.08227 -3.715778,0.331228 -5.356325,1.21817698 -0.02151,0.01075 -0.04302,0.01613 -0.06399,0.02689 -0.01075,0.0054 -0.01613,0.01075 -0.02689,0.01613 -0.07528,0.04302 -0.143031,0.09517 -0.200028,0.159161 l -0.0027,0.0027 c -9.68e-4,9.14e-4 -0.0015,0.0015 -0.0027,0.0027 -0.131201,0.152172 -0.195188,0.351124 -0.177981,0.551904 -5.4e-5,0.0054 -5.4e-5,0.01075 0,0.01613 0.0054,0.03226 0.01075,0.0613 0.01613,0.09249 0.0054,0.02151 0.01075,0.04839 0.02151,0.06936 0.02151,0.06506 0.05377,0.127437 0.09195,0.183896 0.0054,0.0054 0.0054,0.01076 0.01075,0.01613 0.04839,0.06775 0.109154,0.127436 0.177981,0.17583 9.14e-4,9.68e-4 0.0015,0.0015 0.0027,0.0027 l 0.0027,0.0027 c 0.142493,0.09732 0.314559,0.141955 0.486088,0.125824 h 0.0027 c 0.02689,-0.0027 0.05592,-0.0054 0.08334,-0.01613 0.0054,-8.61e-4 0.01076,-0.0014 0.01613,-0.0027 1.945481,-0.455976 4.101045,-0.08711 5.784232,0.992394 1.683088,1.079825 2.91573,2.881792 3.319925,4.844857 0.267779,1.300608 0.195726,2.6937547 -0.07474,4.0560117 -0.271005,1.364272 -0.737736,2.710613 -1.227964,4.078273 -2.119922,5.913578 -4.553373,11.783145 -6.195372,17.940977 -1.642806,6.160843 -2.478081,12.696146 -1.291844,19.05051 1.475417,7.903291 6.148753,15.134981 12.737988,19.711141 5.446821,3.78272 12.121767,5.68766 18.730521,5.44698 0.06883,4.11202 0.209706,8.22237 0.419412,12.32959 -7.946303,0.41296 -15.845287,1.75266 -23.475686,4.0169 7.760793,2.53685 15.857546,4.0248 24.009092,4.44066 0.31671,4.236063 0.689019,8.469923 1.155696,12.691953 -8.520091,0.29843 -17.000499,1.67459 -25.175919,4.10056 8.469493,2.7685 17.338502,4.28115 26.242785,4.51869 0.659123,4.87889 1.410409,9.74568 2.269773,14.59307 0.943033,-4.84233 1.765941,-9.70724 2.489266,-14.58748 8.949777,-0.22584 17.866297,-1.74169 26.378807,-4.52428 -8.18516,-2.42888 -16.67602,-3.80987 -25.206442,-4.10615 0.511898,-4.22251 0.919588,-8.45535 1.266893,-12.694753 8.131599,-0.42049 16.208589,-1.90155 23.950679,-4.43227 -7.59561,-2.25397 -15.45483,-3.58866 -23.364523,-4.00856 0.230139,-4.10416 0.380159,-8.21134 0.455976,-12.3212 6.426477,0.11883 12.878357,-1.7853 18.174887,-5.46371 6.58929,-4.57616 11.262608,-11.80785 12.737978,-19.711141 1.18629,-6.354364 0.35112,-12.889667 -1.29185,-19.05051 -1.64205,-6.157832 -4.064318,-12.027399 -6.184228,-17.94095 -0.49039,-1.367661 -0.95965,-2.714028 -1.23076,-4.0783 -0.27047,-1.36223 -0.35112,-2.7553767 -0.0833,-4.0559857 0.40435,-1.963064 1.64511,-3.765031 3.3283,-4.844856 1.668078,-1.070254 3.802348,-1.437831 5.734168,-1.000729 0.3393,0.104854 0.70462,-0.04839 0.87233,-0.359726 0.17852,-0.329077 0.0855,-0.739402 -0.2167,-0.958949 -0.0215,-0.01613 -0.0484,-0.03226 -0.0726,-0.04839 l -0.005,-0.0054 c -0.0215,-0.01075 -0.0484,-0.02151 -0.0721,-0.03226 -2.64552,-1.43697098 -5.896778,-1.63307298 -8.695758,-0.52372698 -2.82367,1.11875498 -5.06774,3.52021198 -6.00641,6.41706098 -0.57245,1.766639 -0.65934,3.6256027 -0.4834,5.4134817 0.17583,1.785729 0.60863,3.510642 1.05019,5.184957 1.46972,5.573828 3.23055,11.029574 4.17837,16.614102 0.94712,5.580495 1.05025,11.379568 -0.73343,16.647601 -1.62071,4.786946 -4.81921,9.040431 -8.95687,11.925341 -3.52739,2.45948 -7.74485,3.91505 -12.032326,4.2037 -0.331766,-19.12843 -2.324727,-38.227388 -5.98141,-57.003721 -3.3375,18.825802 -5.15291,37.918308 -5.453596,57.037161 -4.478785,-0.19411 -8.910198,-1.67093 -12.590755,-4.23714 -4.13761,-2.88491 -7.324928,-7.138395 -8.945741,-11.925341 -1.783631,-5.268033 -1.691629,-11.067106 -0.744564,-16.647601 0.947818,-5.584528 2.719727,-11.040274 4.189552,-16.614102 0.441458,-1.674315 0.86329,-3.399228 1.039013,-5.184957 0.17583,-1.787879 0.100014,-3.6468427 -0.472645,-5.4134817 -0.938731,-2.896849 -3.193932,-5.298306 -6.017544,-6.41706098 -1.058909,-0.41995 -2.182028,-0.652348 -3.311591,-0.702516 z"
       sodipodi:nodetypes="ccccssccccsccsscscscssssssscccccccccccccccsssssssccccccssssssscccssssssssc" />
  </g>
</svg>
