<?xml version="1.0" encoding="UTF-8" standalone="no"?>
<svg
   viewBox="0 0 24 24"
   version="1.1"
   id="svg1"
   sodipodi:docname="stat-spellcasting.svg"
   width="24"
   height="24"
   inkscape:version="1.3.2 (091e20e, 2023-11-25, custom)"
   xmlns:inkscape="http://www.inkscape.org/namespaces/inkscape"
   xmlns:sodipodi="http://sodipodi.sourceforge.net/DTD/sodipodi-0.dtd"
   xmlns="http://www.w3.org/2000/svg"
   xmlns:svg="http://www.w3.org/2000/svg">
  <defs
     id="defs1" />
  <sodipodi:namedview
     id="namedview1"
     pagecolor="#ffffff"
     bordercolor="#666666"
     borderopacity="1.0"
     inkscape:showpageshadow="2"
     inkscape:pageopacity="0.0"
     inkscape:pagecheckerboard="0"
     inkscape:deskcolor="#d1d1d1"
     inkscape:zoom="5.9330678"
     inkscape:cx="-4.6350389"
     inkscape:cy="10.028539"
     inkscape:window-width="1360"
     inkscape:window-height="715"
     inkscape:window-x="-8"
     inkscape:window-y="-8"
     inkscape:window-maximized="1"
     inkscape:current-layer="svg1" />
  <path
     id="path1"
     style="stroke-width:1"
     d="M 9.5587615,5.6685617 8.2585503,12.255226 C 8.064752,12.504845 7.8869247,12.705692 7.6646267,12.908007 L 5.9818436,9.6922598 4.4943595,10.473456 6.5516889,14.46505 c 0.2935146,0.751738 0.6556616,1.356145 0.992548,1.870056 1.8385932,2.804307 4.2291941,2.309608 6.2442231,0.626026 l 5.71718,-3.175616 -0.832023,-1.474108 -4.334038,2.421174 c -0.09939,-0.20664 -0.214466,-0.429553 -0.331741,-0.623352 L 18.45156,9.8527788 17.303846,8.6274777 12.948407,12.806344 C 12.794048,12.654476 12.669862,12.510176 12.5043,12.378291 L 15.457867,7.2603836 13.970384,6.4016022 10.963309,11.530212 c -0.248305,-0.08583 -0.50324,-0.143542 -0.757117,-0.179248 l 1.024653,-5.3640381 z" />
  <path
     id="path3"
     style="stroke-width:1"
     d="M 11.658203 0.81640625 C 6.4053259 0.76197526 0.75688757 4.5578996 0.75 11.617188 L 1.7734375 9.1582031 C 1.3197663 12.615383 1.4028798 16.202309 3.6289062 18.845703 L 1.6328125 17.970703 C 3.5096771 21.308021 7.6758178 22.321159 11.240234 22.394531 C 5.7423699 20.482989 3.052594 16.292372 2.8632812 11.710938 C 2.5417654 1.581417 15.329842 1.2996101 19.162109 8.0878906 C 18.998673 7.1555807 18.750589 6.2481764 18.416016 5.4023438 C 22.118375 9.6666624 21.252754 15.680603 17.398438 17.505859 C 16.238551 17.694789 15.057534 18.08212 14.482422 18.414062 C 11.682048 20.030826 14.181675 24.467097 17.027344 22.824219 C 17.478863 22.563543 18.147338 21.996188 18.773438 21.324219 C 21.851801 18.477354 23.465331 15.668719 23.226562 12.287109 C 22.914708 13.678974 22.310152 15.05704 21.523438 16.337891 C 24.544309 9.3153363 21.9039 3.7157459 14.595703 1.9238281 C 15.174308 2.2029184 15.718843 2.575626 16.214844 3.0410156 C 13.468662 1.9049482 9.9444143 1.9594154 7.2773438 3.2089844 C 8.6197515 1.9558281 10.374058 1.1167577 12.164062 0.83398438 C 11.9957 0.82417914 11.827666 0.81817598 11.658203 0.81640625 z " />
</svg>
