<?xml version="1.0" encoding="UTF-8" standalone="no"?>
<svg
   viewBox="0 0 24 24"
   version="1.1"
   id="svg1"
   sodipodi:docname="stat-expert.svg"
   inkscape:version="1.3.2 (091e20e, 2023-11-25, custom)"
   xmlns:inkscape="http://www.inkscape.org/namespaces/inkscape"
   xmlns:sodipodi="http://sodipodi.sourceforge.net/DTD/sodipodi-0.dtd"
   xmlns="http://www.w3.org/2000/svg"
   xmlns:svg="http://www.w3.org/2000/svg">
  <defs
     id="defs1">
    <inkscape:path-effect
       effect="fillet_chamfer"
       id="path-effect3"
       is_visible="true"
       lpeversion="1"
       nodesatellites_param="F,0,0,1,0,0,0,1 @ F,0,0,1,0,0,0,1 @ F,0,0,1,0,1.1334654,0,1 @ F,0,0,1,0,0,0,1 @ F,0,0,1,0,0,0,1 @ F,0,0,1,0,1.1334654,0,1 @ F,0,0,1,0,0,0,1 @ F,0,0,1,0,0,0,1 @ F,0,0,1,0,0,0,1 @ F,0,0,1,0,1.0986825,0,1 @ F,0,0,1,0,0,0,1 | F,0,0,1,0,1.1334654,0,1 @ F,0,0,1,0,0,0,1 @ F,0,0,1,0,0,0,1 @ F,0,0,1,0,0,0,1 @ F,0,0,1,0,0,0,1 @ F,0,0,1,0,0,0,1 @ F,0,0,1,0,0,0,1 @ F,0,0,1,0,0,0,1 @ F,0,0,1,0,1.1334654,0,1 | F,0,0,1,0,0.32729027,0,1 @ F,0,0,1,0,0,0,1 @ F,0,0,1,0,0.24813745,0,1 @ F,0,0,1,0,0.19586454,0,1 @ F,0,0,1,0,0.19586454,0,1 @ F,0,0,1,0,0.24813745,0,1 @ F,0,0,1,0,0,0,1 @ F,0,0,1,0,0,0,1 @ F,0,0,1,0,0.32729027,0,1 @ F,0,1,1,0,0.15239973,0,1 @ F,0,0,1,0,0.15239973,0,1 @ F,0,0,1,0,0,0,1"
       radius="0"
       unit="px"
       method="auto"
       mode="F"
       chamfer_steps="1"
       flexible="false"
       use_knot_distance="true"
       apply_no_radius="true"
       apply_with_radius="true"
       only_selected="false"
       hide_knots="false" />
  </defs>
  <sodipodi:namedview
     id="namedview1"
     pagecolor="#ffffff"
     bordercolor="#666666"
     borderopacity="1.0"
     inkscape:showpageshadow="2"
     inkscape:pageopacity="0.0"
     inkscape:pagecheckerboard="0"
     inkscape:deskcolor="#d1d1d1"
     inkscape:zoom="5.59375"
     inkscape:cx="18.502793"
     inkscape:cy="17.96648"
     inkscape:window-width="1360"
     inkscape:window-height="715"
     inkscape:window-x="-8"
     inkscape:window-y="-8"
     inkscape:window-maximized="1"
     inkscape:current-layer="svg1" />
  <path
     id="path1"
     style="stroke-width:1"
     d="M 3.205078,1.0006773 V 3.1979429 L 8.6870775,7.3106994 C 9.1878189,7.6863703 9.106012,8.1425017 8.5467964,8.4225961 5.1898174,10.104007 3.4821877,14.034846 4.689453,17.707709 c 1.3263607,4.039719 5.67904,6.236619 9.716797,4.904297 C 21.094198,20.414422 21.444167,11.333668 15.456159,8.4157137 14.893855,8.1417032 14.812181,7.6863703 15.312923,7.3106994 L 20.794922,3.1979429 V 1.0006773 h -4.5 l -3.517859,3.5162596 a 1.0991824,1.0991824 0 0 1 -1.554126,0 L 7.705078,1.0006773 Z m 9.808825,9.0964507 c 2.383813,0.465119 4.221415,2.538005 4.292738,5.059799 v 0.0059 l 0.002,0.134765 v 0.0039 0.0058 c 0,2.908542 -2.363016,5.288023 -5.271485,5.308594 -2.908515,0.02057 -5.3046094,-2.326125 -5.3457499,-5.234375 -0.035685,-2.5226 1.7115303,-4.671005 4.0732359,-5.236702 0.607612,-0.1455404 1.122077,-0.144146 1.122077,-0.144132 z m -2.087566,1.555574 c -1.606106,0.467212 -2.7597747,1.953068 -2.7349309,3.709304 0.024708,1.746574 1.2061426,3.193072 2.8111139,3.623303 0.132356,0.03548 0.241621,-0.05471 0.241621,-0.191753 v -0.97592 a 0.19586454,0.19586454 135 0 1 0.195865,-0.195865 h 1.119988 a 0.19586454,0.19586454 45 0 1 0.195865,0.195865 v 0.973967 c 0,0.137042 0.109251,0.227209 0.241593,0.191719 1.625089,-0.435804 2.811142,-1.910526 2.811142,-3.676004 l -0.002,-0.107422 c -0.04804,-1.699223 -1.187424,-3.097623 -2.732911,-3.54722 -0.173516,-0.05048 -0.317824,0.06875 -0.317824,0.24951 v 4.022263 a 0.15239973,0.15239973 135 0 1 -0.1524,0.1524 h -1.206918 a 0.15239973,0.15239973 45 0 1 -0.1524,-0.1524 v -0.621037 l 0,-3.401226 c 0,-0.180757 -0.144294,-0.299958 -0.317804,-0.249484 z"
     inkscape:path-effect="#path-effect3"
     inkscape:original-d="M 3.205078,1.0006773 V 3.1979429 L 9.59375,7.9909117 a 7.6994923,7.6994923 0 0 0 -4.904297,9.7167973 7.6906979,7.6906979 0 0 0 9.716797,4.904297 7.6950951,7.6950951 0 0 0 0,-14.6210943 L 20.794922,3.1979429 V 1.0006773 h -4.5 L 12,5.293646 7.705078,1.0006773 Z m 8.681641,8.9999997 c 2.907887,-0.061708 5.337696,2.248947 5.419922,5.15625 v 0.0059 l 0.002,0.134765 v 0.0039 0.0058 c 0,2.908542 -2.363016,5.288023 -5.271485,5.308594 -2.908515,0.02057 -5.3046094,-2.326125 -5.3457499,-5.234375 -0.04114,-2.908252 2.2874251,-5.319152 5.1953129,-5.38086 z m -0.642578,1.574219 c -1.7694088,0.353542 -3.0791889,1.917043 -3.0527349,3.78711 0.025932,1.833121 1.3260687,3.33569 3.0527349,3.679687 v -1.419922 h 1.511718 v 1.417969 c 1.747785,-0.348613 3.052735,-1.880566 3.052735,-3.732422 l -0.002,-0.107422 c -0.05128,-1.813751 -1.345972,-3.284762 -3.050735,-3.625 v 4.501953 h -1.511718 v -0.773437 z" />
</svg>
