<?xml version="1.0" encoding="UTF-8" standalone="no"?>
<svg
   viewBox="0 0 24 24"
   version="1.1"
   id="svg1"
   sodipodi:docname="stat-prof.svg"
   inkscape:version="1.3.2 (091e20e, 2023-11-25, custom)"
   xmlns:inkscape="http://www.inkscape.org/namespaces/inkscape"
   xmlns:sodipodi="http://sodipodi.sourceforge.net/DTD/sodipodi-0.dtd"
   xmlns="http://www.w3.org/2000/svg"
   xmlns:svg="http://www.w3.org/2000/svg">
  <defs
     id="defs1" />
  <sodipodi:namedview
     id="namedview1"
     pagecolor="#ffffff"
     bordercolor="#666666"
     borderopacity="1.0"
     inkscape:showpageshadow="2"
     inkscape:pageopacity="0.0"
     inkscape:pagecheckerboard="0"
     inkscape:deskcolor="#d1d1d1"
     inkscape:zoom="7.9179809"
     inkscape:cx="-9.2195221"
     inkscape:cy="23.1751"
     inkscape:window-width="1360"
     inkscape:window-height="715"
     inkscape:window-x="-8"
     inkscape:window-y="-8"
     inkscape:window-maximized="1"
     inkscape:current-layer="svg1" />
  <path
     d="M 12,5.590909 A 6.4090908,6.4090908 0 0 1 18.409091,12 c 0,2.371363 -1.2925,4.443636 -3.204546,5.554545 v 1.922727 a 1.0681818,1.0681818 0 0 1 -1.068182,1.068182 H 9.863636 A 1.0681818,1.0681818 0 0 1 8.7954544,19.477272 V 17.554545 C 6.883409,16.443636 5.590909,14.371363 5.590909,12 A 6.4090908,6.4090908 0 0 1 12,5.590909 m 2.136363,16.022727 v 1.068182 A 1.0681818,1.0681818 0 0 1 13.068182,23.75 H 10.931818 A 1.0681818,1.0681818 0 0 1 9.863636,22.681818 v -1.068182 h 4.272727 M 20.545454,10.931818 H 23.75 v 2.136364 h -3.204546 v -2.136364 m -20.29545401,0 H 3.4545454 v 2.136364 H 0.24999999 V 10.931818 M 13.068182,0.24999999 V 3.4545454 H 10.931818 V 0.24999999 h 2.136364 M 4.4372726,2.9204545 6.7124999,5.2063635 5.1956817,6.7124999 2.9204545,4.4479545 4.4372726,2.9204545 M 17.2875,5.1956817 l 2.264545,-2.2752272 1.5275,1.5275 -2.275227,2.2645454 z"
     id="path1"
     style="stroke-width:1" />
</svg>
