<?xml version="1.0" encoding="UTF-8" standalone="no"?>
<svg
   viewBox="0 0 24 24"
   version="1.1"
   id="svg1"
   sodipodi:docname="trait-savage-attack.svg"

   inkscape:version="1.3.2 (091e20e, 2023-11-25, custom)"
   xmlns:inkscape="http://www.inkscape.org/namespaces/inkscape"
   xmlns:sodipodi="http://sodipodi.sourceforge.net/DTD/sodipodi-0.dtd"
   xmlns="http://www.w3.org/2000/svg"
   xmlns:svg="http://www.w3.org/2000/svg">
  <defs
     id="defs1" />
  <sodipodi:namedview
     id="namedview1"
     pagecolor="#ffffff"
     bordercolor="#666666"
     borderopacity="1.0"
     inkscape:showpageshadow="2"
     inkscape:pageopacity="0.0"
     inkscape:pagecheckerboard="0"
     inkscape:deskcolor="#d1d1d1"
     inkscape:zoom="11.866136"
     inkscape:cx="6.7418747"
     inkscape:cy="14.1158"
     inkscape:window-width="1360"
     inkscape:window-height="715"
     inkscape:window-x="-8"
     inkscape:window-y="-8"
     inkscape:window-maximized="1"
     inkscape:current-layer="svg1" />
  <path
     d="M 7.4458152,0.25000084 C 9.0737739,4.1497916 9.5849806,9.7771153 9.1836216,14.333473 c -0.016694,0.134149 -0.034723,0.26805 -0.05364,0.401705 -0.00514,-0.01432 -0.00998,-0.02875 -0.015311,-0.04297 h -9.88e-5 C 8.584596,17.777574 6.3618595,21.116766 3.7781172,23.749999 h 2.7403642 l 9.878e-4,-0.0015 h 1.0513077 l -0.00148,0.0015 H 10.309711 C 12.261977,20.930361 13.7994,17.059168 12.9059,14.692256 h -9.9e-5 c -0.229673,1.33704 -0.777627,2.721645 -1.534608,4.075824 C 12.316059,14.34513 11.915243,9.4927658 10.152692,5.260666 9.4656496,3.1611624 8.5555536,1.3290668 7.4457659,0.25005023 Z M 19.022794,4.6888554 17.09715,5.2047543 l 0.23886,0.8916729 0.62382,-0.1671918 1.527298,5.7002266 -0.623672,0.167142 0.238958,0.891673 1.925595,-0.515948 -0.239057,-0.891525 -0.713022,0.191048 C 20.4439,10.365077 20.484599,9.3010757 20.223216,8.3255847 19.970823,7.383532 19.432846,6.511122 18.610915,5.7549312 L 19.261604,5.5804789 19.022745,4.6889542 Z M 0.25849625,6.0582966 2.2061196,9.394871 6.9583661,12.110934 7.2820809,10.052772 8.0763035,10.408987 8.338229,8.9368594 3.9369123,6.3894202 Z M 23.741504,7.0733012 21.028404,7.796103 c 0.03122,0.096117 0.06046,0.1928755 0.08663,0.2905728 0.07952,0.2966974 0.134742,0.5994207 0.166748,0.9064905 l 2.459719,-0.655283 V 7.0732024 Z m -6.288929,0.5289877 -5.169806,1.3619337 c 0.242119,1.1354224 0.401161,2.2889714 0.476484,3.4462734 L 18.346619,10.93911 17.452526,7.6022889 Z m -9.4378139,5.0809501 -2.2746968,2.17374 1.5165798,0.606533 0.7580676,-2.780273 z m 5.2255199,0.220288 0.781085,1.781271 0.77249,0.01748 0.0014,-0.779257 -1.555007,-1.01945 z m 2.348587,1.933053 1.363218,1.985556 L 18.40253,16.289987 17.2109,15.384929 15.588868,14.83653 Z M 5.2365133,16.058141 2.8349285,16.245584 2.5706816,17.767943 3.9501988,17.188377 Z m 9.8243057,0.05295 0.01013,1.737905 1.056099,0.780146 0.61577,-0.633502 -1.682043,-1.884549 z m -7.7210977,0.342681 -2.1124937,1.38495 0.00188,1.058717 1.049579,-0.02405 z m -3.5684696,3.065511 -1.1781955,0.798668 0.2948699,1.007497 1.3264208,-0.25585 -0.4430458,-1.550413 z"
     fill-opacity="1"
     id="path1"
     style="stroke-width:0.999999" />
</svg>
