<?xml version="1.0" encoding="UTF-8" standalone="no"?>
<!-- Uploaded to: SVG Repo, www.svgrepo.com, Generator: SVG Repo Mixer Tools -->

<svg
   fill="#000000"
   width="24"
   height="24"
   viewBox="0 -27.5 2.61 2.61"
   version="1.1"
   id="svg1"
   sodipodi:docname="weapon-rifle.svg"
   inkscape:version="1.3.2 (091e20e, 2023-11-25, custom)"
   xmlns:inkscape="http://www.inkscape.org/namespaces/inkscape"
   xmlns:sodipodi="http://sodipodi.sourceforge.net/DTD/sodipodi-0.dtd"
   xmlns="http://www.w3.org/2000/svg"
   xmlns:svg="http://www.w3.org/2000/svg"
   xmlns:rdf="http://www.w3.org/1999/02/22-rdf-syntax-ns#"
   xmlns:cc="http://creativecommons.org/ns#"
   xmlns:dc="http://purl.org/dc/elements/1.1/">
  <defs
     id="defs1" />
  <sodipodi:namedview
     id="namedview1"
     pagecolor="#ffffff"
     bordercolor="#666666"
     borderopacity="1.0"
     inkscape:showpageshadow="2"
     inkscape:pageopacity="0.0"
     inkscape:pagecheckerboard="0"
     inkscape:deskcolor="#d1d1d1"
     inkscape:zoom="10.74"
     inkscape:cx="-1.8621974"
     inkscape:cy="10.66108"
     inkscape:window-width="1360"
     inkscape:window-height="715"
     inkscape:window-x="-8"
     inkscape:window-y="-8"
     inkscape:window-maximized="1"
     inkscape:current-layer="svg1" />
  <title
     id="title1">pulse_rifle</title>
  <path
     d="m 2.436814,-27.472785 0.015469,8.96e-4 0.075568,0.07557 -1.7e-6,0.02367 -0.396055,0.396054 0.029132,-3e-6 0.036418,-0.03643 0.04552,0.04552 0.01639,0.02368 0.0091,0.03277 -0.00364,0.02914 -0.010938,0.0273 -0.6491685,0.649168 -0.029134,0.04917 -0.011827,0.0519 -0.00637,0.0519 0.00364,0.02914 0.1174508,0.248559 0.013656,0.04279 -0.00181,0.03642 -0.010925,0.04552 -0.02916,0.0364 -0.041858,0.03461 -0.3614586,0.203034 -0.016401,0.0073 -0.018215,-0.0091 0.018209,-0.0437 -0.042788,-0.061 -0.030957,-0.07102 -0.023669,-0.08741 -0.00729,-0.08741 -9.104e-4,-0.04279 -0.012747,-0.02367 -0.022764,-0.01548 -0.028226,-0.0045 -0.044611,0.01548 -0.0400733,0.03094 -0.0938033,0.08829 0.0191206,0.01912 -0.009102,0.02914 0.3022757,0.247647 0.00637,0.02641 -0.05368,0.06832 -0.02185,0.0036 -0.010938,0.01456 0.00183,0.02003 -0.093777,0.113813 -0.013695,-9.48e-4 -0.0154904,0.01911 0.002722,0.01364 -0.04465,0.05551 -0.0182468,0.0036 -0.13110745,-0.0947 -0.0182464,0.01634 -0.0364238,-0.02913 -0.009098,0.0091 -0.0354771,-0.0045 -0.10561475,0.105616 0.006374,0.0064 -0.0655566,0.120184 -0.027317,-4e-6 -0.10470475,-0.122914 -0.10015537,-0.103788 -0.11653875,-0.111074 -0.0892248,-0.08377 -0.01821621,-0.02913 8.9573e-4,-0.01 0.04370243,-0.0437 h 0.0127471 l 0.0391507,-0.03915 0.0318632,0.01 0.61729961,-0.6173 0.0300425,-0.08285 -0.0245771,0.02458 -0.0227573,9.15e-4 -0.050076,-0.133838 0.004553,-0.02277 0.20303506,-0.203035 0.0246202,-0.01 0.027311,0.0019 0.025494,0.01821 0.033685,0.03367 0.020942,-9.09e-4 0.010012,0.01 -2.5e-6,0.04188 -0.023672,0.02367 0.020034,0.02003 0.146586,-0.146586 0.061002,-0.03551 0.66191,-0.607287 0.020939,-0.0026 0.028224,0.02822 -1.8e-6,0.03643 h 0.012747 z m -0.9596372,1.387558 -0.010926,-0.01097 -0.01639,-0.0091 -0.016425,0.0019 -0.1329276,0.132926 0.016381,0.0255 0.031868,0.02095 0.026405,0.0064 0.00183,0.01821 -0.023667,0.0019 -0.029135,-0.0091 -0.030051,-0.01548 -0.024581,-0.01729 -0.00543,0.01097 -8e-7,0.01821 0.010012,0.02822 0.020938,0.01731 0.029136,0.0091 0.034601,-0.0073 0.012747,0.02003 -0.013694,0.01182 -0.018222,0.02183 -0.00823,0.01908 0.00274,0.03187 0.018208,0.03277 0.026398,0.0355 -0.00544,0.01458 9.137e-4,0.02641 0.00545,0.0255 0.030959,0.06555 0.1638889,-0.07284 0.032814,-0.01817 0.026403,-0.02641 0.01095,-0.02732 -2.7e-6,-0.02732 -0.1575112,-0.337785 z m 0.5663134,-0.788468 -0.025494,-0.0255 -0.3905922,0.390593 0.025494,0.0255 z"
     id="path1"
     style="stroke-width:1" />
  <metadata
     id="metadata1">
    <rdf:RDF>
      <cc:Work
         rdf:about="">
        <dc:title>pulse_rifle</dc:title>
      </cc:Work>
    </rdf:RDF>
  </metadata>
</svg>
