<?xml version="1.0" encoding="UTF-8" standalone="no"?>
<svg
   viewBox="0 0 24 24"
   version="1.1"
   id="svg1"
   sodipodi:docname="darkvision.svg"
   inkscape:version="1.3.2 (091e20e, 2023-11-25, custom)"
   xmlns:inkscape="http://www.inkscape.org/namespaces/inkscape"
   xmlns:sodipodi="http://sodipodi.sourceforge.net/DTD/sodipodi-0.dtd"
   xmlns="http://www.w3.org/2000/svg"
   xmlns:svg="http://www.w3.org/2000/svg">
  <defs
     id="defs1" />
  <sodipodi:namedview
     id="namedview1"
     pagecolor="#ffffff"
     bordercolor="#666666"
     borderopacity="1.0"
     inkscape:showpageshadow="2"
     inkscape:pageopacity="0.0"
     inkscape:pagecheckerboard="0"
     inkscape:deskcolor="#d1d1d1"
     inkscape:zoom="1.9776893"
     inkscape:cx="-52.080982"
     inkscape:cy="78.121473"
     inkscape:window-width="1366"
     inkscape:window-height="697"
     inkscape:window-x="-8"
     inkscape:window-y="-8"
     inkscape:window-maximized="1"
     inkscape:current-layer="svg1" />
  <path
     id="path1"
     d="M 12 4.5 C 7.000005 4.5 2.7299983 7.6100044 1 12 C 2.7299983 16.389996 7.000005 19.5 12 19.5 C 16.999995 19.5 21.270002 16.389996 23 12 C 21.270002 7.6100044 16.999995 4.5 12 4.5 z M 12 7 A 5 5 0 0 1 17 12 A 5 5 0 0 1 12 17 A 5 5 0 0 1 7 12 A 5 5 0 0 1 12 7 z " />
  <path
     sodipodi:type="star"
     style="stroke-width:0.524516;paint-order:stroke markers fill"
     id="path2"
     inkscape:flatsided="false"
     sodipodi:sides="4"
     sodipodi:cx="10.234637"
     sodipodi:cy="9.8770952"
     sodipodi:r1="3.6716111"
     sodipodi:r2="1.1773473"
     sodipodi:arg1="0"
     sodipodi:arg2="0.78539816"
     inkscape:rounded="-3.469447e-18"
     inkscape:randomized="0"
     d="m 13.906248,9.8770952 -2.8391,0.8325098 -0.832511,2.839101 L 9.402127,10.709605 6.5630262,9.8770952 9.402127,9.044585 10.234637,6.2054842 11.067148,9.044585 Z"
     transform="matrix(1.90652,0,0,1.90652,-7.5125406,-6.8308796)" />
</svg>
