<?xml version="1.0" encoding="UTF-8"?>
<svg id="svg1" width="24" height="24" version="1.1" viewBox="0 0 24 24" xmlns="http://www.w3.org/2000/svg">
 <path id="path8" transform="translate(.023086)" d="m6.6803 18.955v1.5372a0.57928 0.57928 49.065 0 0 0.49735 0.57346l3.6487 0.52127a0.43573 0.43573 139.07 0 0 0.49735-0.43135v-0.81996a0.67352 0.67352 53.279 0 0-0.48157-0.64559l-3.6803-1.0943a0.37476 0.37476 143.28 0 0-0.48157 0.35922z"/>
 <path id="path7" transform="translate(.023086)" d="m6.6803 15.228v1.595a0.63265 0.63265 53.28 0 0 0.45233 0.60641l3.7388 1.1117a0.35201 0.35201 143.28 0 0 0.45233-0.33741v-0.39597a0.80202 0.80202 59.527 0 0-0.41252-0.70109l-3.8184-2.1214a0.27767 0.27767 149.53 0 0-0.41252 0.24273z"/>
 <path id="path5" transform="translate(.023086)" d="m6.0526 8.7229-0.5619 1.6857a1.8748 1.8748 92.2 0 0-0.04024 1.0476l0.3578 1.4313a1.2583 1.2583 52.51 0 0 0.60964 0.79477l4.4287 2.4604a0.32123 0.32123 149.53 0 0 0.47724-0.28081v-5.8362a0.69924 0.69924 52.018 0 0-0.52964-0.67836l-4.0393-1.0099a0.58954 0.58954 151.24 0 0-0.70228 0.38551z"/>
 <g id="g15" transform="translate(-.011464)" stroke-width=".8861">
  <path id="path3" transform="matrix(1.1285 0 0 1.1285 -.44124 -1.2818)" d="m2.9305 7.654-1.8545 1.8546a0.45001 0.45001 94.065 0 0-0.041797 0.58821l1.6956 2.2608a0.33848 0.33848 4.064 0 0 0.51013 0.03624l0.60982-0.60986a1.6534 1.6534 121.72 0 0 0.39938-0.64623l0.9532-2.8595a0.36142 0.36142 61.237 0 0-0.25521-0.46492l-1.362-0.34055a0.68928 0.68928 164.52 0 0-0.6546 0.18131z"/>
  <path id="path3-4" transform="matrix(-1.1285 0 0 1.1285 24.464 -1.2818)" d="m2.9305 7.654-1.8545 1.8546a0.45001 0.45001 94.065 0 0-0.041797 0.58821l1.6956 2.2608a0.33848 0.33848 4.064 0 0 0.51013 0.03624l0.60982-0.60986a1.6534 1.6534 121.72 0 0 0.39938-0.64623l0.9532-2.8595a0.36142 0.36142 61.237 0 0-0.25521-0.46492l-1.362-0.34055a0.68928 0.68928 164.52 0 0-0.6546 0.18131z"/>
 </g>
 <path id="path8-8" transform="matrix(-1 0 0 1 23.977 0)" d="m6.6803 18.955v1.5372a0.57928 0.57928 49.065 0 0 0.49735 0.57346l3.6487 0.52127a0.43573 0.43573 139.07 0 0 0.49735-0.43135v-0.81996a0.67352 0.67352 53.279 0 0-0.48157-0.64559l-3.6803-1.0943a0.37476 0.37476 143.28 0 0-0.48157 0.35922z"/>
 <path id="path7-3" transform="matrix(-1 0 0 1 23.977 0)" d="m6.6803 15.228v1.595a0.63265 0.63265 53.28 0 0 0.45233 0.60641l3.7388 1.1117a0.35201 0.35201 143.28 0 0 0.45233-0.33741v-0.39597a0.80202 0.80202 59.527 0 0-0.41252-0.70109l-3.8184-2.1214a0.27767 0.27767 149.53 0 0-0.41252 0.24273z"/>
 <path id="path5-6" transform="matrix(-1 0 0 1 23.977 0)" d="m6.0526 8.7229-0.5619 1.6857a1.8748 1.8748 92.2 0 0-0.04024 1.0476l0.3578 1.4313a1.2583 1.2583 52.51 0 0 0.60964 0.79477l4.4287 2.4604a0.32123 0.32123 149.53 0 0 0.47724-0.28081v-5.8362a0.69924 0.69924 52.018 0 0-0.52964-0.67836l-4.0393-1.0099a0.58954 0.58954 151.24 0 0-0.70228 0.38551z"/>
 <path id="path2" transform="matrix(.77001 0 0 1.1447 2.9757 -1.3016)" d="m9.732 3.2584-0.51309 2.0524a0.63841 0.63841 137.95 0 1-0.52906 0.47716l-3.5938 0.51342a0.084087 0.084087 92.953 0 0-0.0085 0.16482l6.496 1.6239a1.7171 1.7171 9.1971e-8 0 0 0.8329 0l6.496-1.6239a0.084087 0.084087 87.047 0 0-0.0085-0.16482l-3.5938-0.51342a0.63841 0.63841 42.047 0 1-0.52906-0.47716l-0.51309-2.0524a0.3025 0.3025 21.136 0 0-0.46127-0.17832l-0.51495 0.34333a1.1104 1.1104 125.17 0 0-0.46128 0.65457l-0.33283 1.3312a0.5498 0.5498 142.02 0 1-0.53338 0.41645 0.50537 0.50537 42.03 0 1-0.46203-0.41645l-0.33283-1.3312a1.1104 1.1104 54.827 0 0-0.46128-0.65457l-0.51495-0.34333a0.3025 0.3025 158.86 0 0-0.46127 0.17832z" stroke-width="1.0651"/>
</svg>
