<?xml version="1.0" encoding="UTF-8"?>
<!-- Created with Inkscape (http://www.inkscape.org/) -->
<svg id="svg1" width="24" height="24" version="1.1" viewBox="0 0 6.35 6.35" xml:space="preserve" xmlns="http://www.w3.org/2000/svg"><g id="layer1"><path id="path7" d="m3.175 0.26458-0.2744 0.18862a5.378 5.378 0 0 1-1.8237 0.80357l-0.28319 0.066146v1.5875c0 1.4684 1.016 2.8416 2.3813 3.175 1.3653-0.33338 2.3812-1.7066 2.3812-3.175v-1.5875l-0.28319-0.066146a5.378 5.378 0 0 1-1.8237-0.80357l-0.2744-0.18862zm-0.0036174 0.66146 0.25373 0.54777v0.90072 0.83664 0.059428 0.50901l0.43512-0.0025838a0.12695 0.12695 0 0 1 0.089917 0.037207 0.12695 0.12695 0 0 1 0.037724 0.0894 0.12695 0.12695 0 0 1-0.12609 0.12816l-0.52555 0.0020671v0.80202a0.31738 0.31738 0 0 1 0.059428 0.046509 0.31738 0.31738 0 0 1 0 0.44907 0.31738 0.31738 0 0 1-0.19947 0.091467 0.31738 0.31738 0 0 1-0.074931-0.0025839 0.31738 0.31738 0 0 1-0.17415-0.088883 0.31738 0.31738 0 0 1 0-0.44907 0.31738 0.31738 0 0 1 0.058911-0.046509v-0.79995l-0.51573 0.0025839a0.12695 0.12695 0 0 1-0.12816-0.12609 0.12695 0.12695 0 0 1 0.12609-0.12764l0.42943-0.0020671v-0.16175-0.091467-0.2589-0.059428-0.83664l-5.167e-4 -0.90072 0.25425-0.54777z" stroke-width=".26458"/></g></svg>
