<?xml version="1.0" encoding="UTF-8"?>
<!-- Uploaded to: SVG Repo, www.svgrepo.com, Generator: SVG Repo Mixer Tools -->
<svg id="svg1" fill="#000000" version="1.1" viewBox="0 0 .96 .96" xmlns="http://www.w3.org/2000/svg" xmlns:cc="http://creativecommons.org/ns#" xmlns:dc="http://purl.org/dc/elements/1.1/" xmlns:rdf="http://www.w3.org/1999/02/22-rdf-syntax-ns#">
 <title id="title1">grenade</title>
 <g id="g12" transform="translate(0 -.0040095)">
  <path id="path1" d="m0.18394 0.51424c-0.021691 0.026534-0.034887 0.054919-0.039297 0.085234-0.005426 0.037311-2.2164e-4 0.073198 0.015547 0.10766 0.015768 0.034459 0.040271 0.068341 0.073594 0.10164 0.033323 0.033299 0.067205 0.05788 0.10164 0.073672 0.034436 0.015792 0.070155 0.020919 0.10719 0.015469 0.030268-0.004454 0.058685-0.017775 0.085312-0.039688z"/>
  <path id="path11" d="m0.30641 0.3408-0.11633 0.11633 0.39539 0.39531 0.020859-0.020938 0.095391-0.095391z"/>
  <path id="path9" d="m0.58192 0.26427-0.024922 0.024922c-0.072906-0.026412-0.13805-0.011133-0.19547 0.045703 0.14639 0.14642 0.26176 0.26148 0.34617 0.34531 0.057416-0.057416 0.072617-0.12226 0.045625-0.19461l0.025-0.025z"/>
  <path id="path8" d="m0.70675 0.1592-0.091328 0.091328 0.025859 0.025859 0.12484 0.12398 0.025859 0.026719 0.090469-0.091328-0.001719-0.049922-0.12406-0.12484z"/>
  <path id="path7" d="m0.59684 0.068002-0.15328 0.0025781-0.049922 0.049922 8.5937e-4 0.001797-0.15586 0.071484-0.13953 0.14031-0.021562 0.11281 0.018984 0.018125 0.037891-0.099922 0.12398-0.12227 0.16969-0.041328-7.812e-5 -7.813e-5h0.027578l0.040469-0.040469h0.027578l0.069766 0.069766 0.066328-0.06625 0.016328-0.017266z"/>
 </g>
 <metadata id="metadata1">
  <rdf:RDF>
   <cc:Work rdf:about="">
    <dc:title>grenade</dc:title>
   </cc:Work>
  </rdf:RDF>
 </metadata>
</svg>
