<?xml version="1.0" encoding="UTF-8" standalone="no"?>
<svg
   id="svg1"
   version="1.1"
   viewBox="0 0 24 24"
   sodipodi:docname="sorc-point.svg"
   inkscape:version="1.4 (86a8ad7, 2024-10-11)"
   xml:space="preserve"
   xmlns:inkscape="http://www.inkscape.org/namespaces/inkscape"
   xmlns:sodipodi="http://sodipodi.sourceforge.net/DTD/sodipodi-0.dtd"
   xmlns="http://www.w3.org/2000/svg"
   xmlns:svg="http://www.w3.org/2000/svg"><defs
     id="defs1" /><sodipodi:namedview
     id="namedview1"
     pagecolor="#ffffff"
     bordercolor="#111111"
     borderopacity="1"
     inkscape:showpageshadow="0"
     inkscape:pageopacity="0"
     inkscape:pagecheckerboard="1"
     inkscape:deskcolor="#d1d1d1"
     inkscape:zoom="16"
     inkscape:cx="-0.3125"
     inkscape:cy="6.34375"
     inkscape:window-width="1920"
     inkscape:window-height="1009"
     inkscape:window-x="-8"
     inkscape:window-y="-8"
     inkscape:window-maximized="1"
     inkscape:current-layer="svg1" /><path
     style="fill-opacity:1;fill-rule:nonzero;stroke-width:0.0603264"
     d="m 12,3 5.685982,5.5519749 c 0.758214,0.7582168 1.338607,1.6181211 1.740015,2.5770411 0.401409,0.958917 0.601998,1.951173 0.601998,2.976994 0,2.185447 -0.780981,4.046229 -2.342013,5.584962 C 16.12495,21.229706 14.230048,22 12,22 10.914606,22 9.908683,21.816116 8.981771,21.451607 c 0.888249,-1.776947 2.37397,-4.674964 2.766711,-4.945857 0.652079,-0.449771 4.403645,-0.107205 4.403645,-0.107205 L 11.93815,9.4900174 c 0,0 -2.9937574,6.0488136 -3.4532321,6.3271486 C 8.146436,16.022214 4.4350856,15.933052 4.1719832,15.926435 4.0404156,15.34647 3.972005,14.74048 3.972005,14.10601 c 0,-1.070421 0.2005893,-2.073361 0.601997,-3.009982 C 4.9754098,10.15941 5.5558029,9.3101917 6.314019,8.5519749 Z"
     id="path4" /></svg>
