<?xml version="1.0" encoding="UTF-8" standalone="no"?>
<svg
   viewBox="0 0 24 24"
   version="1.1"
   id="svg1"
   sodipodi:docname="cylinder.svg"
   inkscape:version="1.3.2 (091e20e, 2023-11-25, custom)"
   xmlns:inkscape="http://www.inkscape.org/namespaces/inkscape"
   xmlns:sodipodi="http://sodipodi.sourceforge.net/DTD/sodipodi-0.dtd"
   xmlns="http://www.w3.org/2000/svg"
   xmlns:svg="http://www.w3.org/2000/svg">
  <defs
     id="defs1" />
  <sodipodi:namedview
     id="namedview1"
     pagecolor="#ffffff"
     bordercolor="#111111"
     borderopacity="1"
     inkscape:showpageshadow="0"
     inkscape:pageopacity="0"
     inkscape:pagecheckerboard="1"
     inkscape:deskcolor="#d1d1d1"
     inkscape:zoom="7.6455921"
     inkscape:cx="-9.6787795"
     inkscape:cy="15.89151"
     inkscape:window-width="1366"
     inkscape:window-height="697"
     inkscape:window-x="-8"
     inkscape:window-y="-8"
     inkscape:window-maximized="1"
     inkscape:current-layer="svg1" />
  <path
     d="M 12,1.5 C 9.7845,1.5 2.55,1.8045 2.55,5.7 v 12.6 c 0,3.8955 7.2345,4.2 9.45,4.2 2.2155,0 9.45,-0.3045 9.45,-4.2 V 5.7 C 21.45,1.8045 14.2155,1.5 12,1.5 m 0,8.4 c 1.449,0 5.04,-0.1365 7.35,-1.3125 v 6.825 C 17.04,14.2365 13.449,14.1 12,14.1 c -1.449,0 -5.04,0.1365 -7.35,1.3125 V 8.5875 C 6.96,9.7635 10.551,9.9 12,9.9 m 0,-6.3 c 4.0635,0 7.35,0.9345 7.35,2.1 0,1.1655 -3.2865,2.1 -7.35,2.1 C 7.9365,7.8 4.65,6.8655 4.65,5.7 4.65,4.5345 7.9365,3.6 12,3.6 m 0,16.8 c -4.0635,0 -7.35,-0.9345 -7.35,-2.1 0,-1.155 3.2865,-2.1 7.35,-2.1 4.0635,0 7.35,0.945 7.35,2.1 0,1.1655 -3.2865,2.1 -7.35,2.1 z"
     id="path1"
     style="stroke-width:1" />
</svg>
