<?xml version="1.0" encoding="UTF-8"?>
<svg id="svg1" version="1.1" viewBox="0 0 24 24" xml:space="preserve" xmlns="http://www.w3.org/2000/svg"><path id="path1" d="m7 2c-1.1 0-2 0.9-2 2v16c0 1.1 0.9 2 2 2h10c1.1 0 2-0.9 2-2v-16c0-1.1-0.9-2-2-2h-10zm5 2.8574a1.4286 1.4286 0 0 1 1.4277 1.4277c0 0.32857-0.11384 0.65106-0.32812 0.9082 0.61429 0.23571 1.1712 0.59169 1.6426 1.0488l-3.25 3.25 1.0156 1.0156 3.1777-3.1797a6.3857 6.3857 0 0 1 1.3145 3.3867c0 1.9714-2.2357 3.5703-5 3.5703-2.7643 0-5-1.5989-5-3.5703 0-1.7 1.6647-4.7215 3.9004-5.5215-0.21429-0.25714-0.32812-0.57963-0.32812-0.9082a1.4286 1.4286 0 0 1 1.4277-1.4277zm-5 12.857h10v1.4277h-10v-1.4277z"/></svg>
