<?xml version="1.0" encoding="UTF-8"?>
<svg id="svg1" version="1.1" viewBox="0 0 24 24" xml:space="preserve" xmlns="http://www.w3.org/2000/svg"><path id="path1" d="m7 22c-1.1 0-2-0.90001-2-2v-16c0-1.1 0.90001-2 2-2h10c1.1 0 2 0.90001 2 2v16c0 1.1-0.90001 2-2 2zm9.8262-4.791c0.1379 0 0.2754-0.05275 0.38086-0.1582l0.38477-0.38476a0.53863 0.53863 0 0 0 0-0.76172l-1.7188-1.7246 1.334-1.3359-0.76172-0.76367-1.1465 1.1465-1.1953-1.1953-1.5293 1.5527 1.1934 1.1738-1.1465 1.1465 0.76367 0.76172 1.3184-1.3359 1.7422 1.7207c0.10546 0.10546 0.24296 0.1582 0.38086 0.1582zm-9.6523-0.0059a0.53863 0.53863 0 0 0 0.38086-0.1582l1.7422-1.7148 1.3184 1.3359 0.76367-0.76172-1.1465-1.1465 6.4355-6.4355v-1.5312h-1.5312l-6.4355 6.4355-1.1465-1.1465-0.76172 0.76367 1.334 1.3359-1.7188 1.7188c-0.21091 0.21091-0.21091 0.55081 0 0.76172l0.38477 0.38477a0.53863 0.53863 0 0 0 0.38086 0.1582zm2.7227-6.3242 1.5312-1.5234-2.5645-2.5645h-1.5312v1.5254z"/></svg>
