<?xml version="1.0" encoding="UTF-8"?>
<svg id="svg1" version="1.1" viewBox="0 0 24 24" xml:space="preserve" xmlns="http://www.w3.org/2000/svg"><path id="path1" d="m7 2c-1.1 0-2 0.9-2 2v16c0 1.1 0.9 2 2 2h10c1.1 0 2-0.9 2-2v-16c0-1.1-0.9-2-2-2h-10zm4.9688 2.8555c0.83571-0.012388 1.6347 0.46892 1.9883 1.2832a2.1357 2.1357 0 0 1-1.0996 2.8203l0.048828 0.18555h1.9512v1.4297h-1.5566l1.5566 5.7129h-5.7148l1.5566-5.7129h-1.5566v-1.4297h1.9434l0.048828-0.18555a2.1214 2.1214 0 0 1-1.0996-1.0996c-0.47857-1.0857 0.013891-2.3508 1.0996-2.8223 0.27143-0.11964 0.55541-0.17751 0.83398-0.18164zm-4.9688 12.861h10v1.4277h-10v-1.4277z"/></svg>
