<?xml version="1.0" encoding="UTF-8" standalone="no"?>
<svg
   viewBox="0 0 24 24"
   version="1.1"
   id="svg1"
   sodipodi:docname="feat-fighting.svg"
   inkscape:version="1.3.2 (091e20e, 2023-11-25, custom)"
   xml:space="preserve"
   xmlns:inkscape="http://www.inkscape.org/namespaces/inkscape"
   xmlns:sodipodi="http://sodipodi.sourceforge.net/DTD/sodipodi-0.dtd"
   xmlns="http://www.w3.org/2000/svg"
   xmlns:svg="http://www.w3.org/2000/svg"><defs
     id="defs1" /><sodipodi:namedview
     id="namedview1"
     pagecolor="#ffffff"
     bordercolor="#111111"
     borderopacity="1"
     inkscape:showpageshadow="0"
     inkscape:pageopacity="0"
     inkscape:pagecheckerboard="1"
     inkscape:deskcolor="#d1d1d1"
     inkscape:zoom="7.645592"
     inkscape:cx="9.4825881"
     inkscape:cy="13.668006"
     inkscape:window-width="1366"
     inkscape:window-height="697"
     inkscape:window-x="-8"
     inkscape:window-y="-8"
     inkscape:window-maximized="1"
     inkscape:current-layer="svg1" /><path
     id="path1"
     d="M 7,22 C 5.9000066,22 5,21.099993 5,20 V 18.572266 6.472656 4 C 5,2.900006 5.9000066,2 7,2 h 10 c 1.099994,0 2,0.900006 2,2 V 6.472656 18.572266 20 c 0,1.099993 -0.900006,2 -2,2 z m 9.826172,-4.791016 c 0.137903,0 0.275404,-0.05275 0.380859,-0.158203 l 0.384766,-0.384765 a 0.53863303,0.53863303 0 0 0 0,-0.761719 l -1.71875,-1.724609 1.333984,-1.335938 -0.761719,-0.763672 -1.146484,1.146484 -1.195312,-1.195312 -1.529297,1.552734 1.193359,1.173829 -1.146484,1.146484 0.763672,0.761719 1.318359,-1.335938 1.742187,1.720703 c 0.105456,0.105455 0.242957,0.158203 0.38086,0.158203 z m -9.6523439,-0.0059 a 0.53863303,0.53863303 0 0 0 0.3808594,-0.158203 l 1.7421875,-1.714844 1.318359,1.335938 0.763672,-0.761719 -1.146484,-1.146484 6.435547,-6.435547 v -1.53125 h -1.53125 l -6.4355471,6.435546 -1.1464844,-1.146484 -0.7617187,0.763672 1.3339843,1.335938 -1.71875,1.71875 c -0.2109104,0.21091 -0.2109104,0.550808 0,0.761718 l 0.3847657,0.384766 a 0.53863303,0.53863303 0 0 0 0.3808593,0.158203 z M 9.8964844,10.878906 11.427734,9.355469 8.8632812,6.791016 h -1.53125 v 1.52539 z" /></svg>
