<?xml version="1.0" encoding="UTF-8"?>
<svg id="svg1" version="1.1" viewBox="0 0 24 24" xml:space="preserve" xmlns="http://www.w3.org/2000/svg"><path id="path1" d="m7 2c-1.1 0-2 0.9-2 2v16c0 1.1 0.9 2 2 2h10c1.1 0 2-0.9 2-2v-16c0-1.1-0.9-2-2-2h-10zm5 3.75a1.25 1.25 0 0 1 1.25 1.25c0 0.41875-0.20703 0.78672-0.51953 1.0117l0.33203 2.332 1.7305-1.9121a1.25 1.25 0 0 1-0.29297-0.80664 1.25 1.25 0 0 1 1.25-1.25 1.25 1.25 0 0 1 1.25 1.25c0 0.50625-0.31172 0.93672-0.73047 1.1367l-1.1445 3.957v3.0312h-6.25v-3.0312l-1.1445-3.957c-0.41875-0.2-0.73047-0.63047-0.73047-1.1367a1.25 1.25 0 0 1 1.25-1.25 1.25 1.25 0 0 1 1.25 1.25c0 0.3125-0.1125 0.59375-0.3125 0.8125l1.75 1.9062 0.33203-2.332c-0.3125-0.225-0.51953-0.59297-0.51953-1.0117a1.25 1.25 0 0 1 1.25-1.25zm-4.375 11.25h8.75v1.25h-8.75v-1.25z"/></svg>
