<?xml version="1.0" encoding="UTF-8"?>
<svg id="svg1" version="1.1" viewBox="0 0 24 24" xml:space="preserve" xmlns="http://www.w3.org/2000/svg"><path id="path1" d="m7 2c-1.1 0-2 0.9-2 2v16c0 1.1 0.9 2 2 2h10c1.1 0 2-0.9 2-2v-16c0-1.1-0.9-2-2-2h-10zm5.7148 2.8574a2.8571 2.8571 0 0 1 2.8574 2.8574v8.5703h-6.1289c-0.26429 0-0.52132-0.11311-0.70703-0.29883-0.4-0.39286-0.40067-1.0355-0.0078125-1.4355l3.4277-3.4297c0.33571-0.33571 0.41546-0.84224 0.20117-1.2637 0-0.028572-0.020876-0.050837-0.035156-0.072266-0.22143-0.32857-0.67986-0.41283-0.99414-0.19141l-1.4707 0.97852-1.4297-1.4297 2.0645-3.0996c0.49286-0.74286 1.3298-1.1855 2.2227-1.1855zm-5.7148 12.857h10v1.4277h-10v-1.4277z"/></svg>
