<?xml version="1.0" encoding="UTF-8" standalone="no"?>
<svg
   width="24"
   height="24"
   version="1.1"
   viewBox="0 0 24 24"
   id="svg1"
   sodipodi:docname="bow.svg"
   inkscape:version="1.3.2 (091e20e, 2023-11-25, custom)"
   xmlns:inkscape="http://www.inkscape.org/namespaces/inkscape"
   xmlns:sodipodi="http://sodipodi.sourceforge.net/DTD/sodipodi-0.dtd"
   xmlns="http://www.w3.org/2000/svg"
   xmlns:svg="http://www.w3.org/2000/svg">
  <defs
     id="defs1" />
  <sodipodi:namedview
     id="namedview1"
     pagecolor="#ffffff"
     bordercolor="#111111"
     borderopacity="1"
     inkscape:showpageshadow="0"
     inkscape:pageopacity="0"
     inkscape:pagecheckerboard="1"
     inkscape:deskcolor="#d1d1d1"
     inkscape:zoom="1.0875"
     inkscape:cx="-43.678161"
     inkscape:cy="113.56322"
     inkscape:window-width="1366"
     inkscape:window-height="697"
     inkscape:window-x="-8"
     inkscape:window-y="-8"
     inkscape:window-maximized="1"
     inkscape:current-layer="svg1" />
  <path
     d="m 2.0136647,2.0001338 c -0.00878,-3.078e-4 -0.013667,0.00322 -0.013667,0.010889 0,0.1392734 0.698557,1.0802161 1.155855,1.5570341 0.1315201,0.1371256 0.2686391,0.266299 0.409758,0.390238 L 4.9777062,16.240248 5.2722453,15.944149 5.5351443,15.837893 4.2281092,4.4671373 c 1.0316561,0.690937 2.2975912,1.1082761 3.8893843,1.2886751 1.2106757,0.1371956 2.0419925,0.4040391 2.8597895,0.9183561 0.210019,0.1320756 0.445258,0.325099 0.667178,0.534378 0.05239,-0.074789 0.112471,-0.1464545 0.180467,-0.214459 l 0.626178,-0.626177 c 0.09694,-0.096933 0.205279,-0.1765079 0.319538,-0.242579 C 12.092242,5.4929389 11.492584,5.0566609 10.825727,4.7261219 10.07111,4.3520839 9.6338722,4.2528438 8.4867359,4.1948838 7.4688798,4.1434505 6.6365238,4.0394804 5.9407456,3.8765259 4.4903515,3.5369268 3.2163564,2.9341687 2.1723603,2.0933327 2.1013603,2.0361438 2.0399913,2.0008993 2.0137669,1.9999771 Z M 18.925,5.0715221 c -0.144073,0.00689 -2.242591,0.6290781 -2.296391,0.683197 -0.01446,0.0145 0.212959,0.1551456 0.505458,0.312499 l 0.194531,0.1043001 -1.333195,1.333195 0.565618,0.5656182 1.312896,-1.3128952 0.06992,0.1363267 c 0.152895,0.2974191 0.285759,0.5331181 0.294919,0.5234381 0.03572,-0.037711 0.707917,-2.3095901 0.693757,-2.3445902 -4.4e-4,-0.0011 -0.0028,-0.00144 -0.0074,-0.00122 z m -5.326579,1.6308542 c -0.219659,7.6e-4 -0.426979,0.076611 -0.581638,0.231239 l -0.626178,0.626177 c -0.353478,0.353479 -0.295259,0.980916 0.130468,1.4066352 l 2.47459,2.4741905 c 0.425719,0.425718 1.052776,0.483958 1.406235,0.130467 l 0.626177,-0.626178 C 17.381554,10.591428 17.323334,9.964371 16.897608,9.538673 L 14.423418,7.0640819 C 14.183938,6.824603 13.88084,6.701384 13.598421,6.702364 Z m -0.636718,3.8359847 -5.9933768,5.993377 -0.2945391,-0.0062 -0.8339771,-0.01719 -2.3015912,2.315591 1.3843752,0.319138 0.3191379,1.384375 2.3155913,-2.301591 -0.017189,-0.833977 -0.00622,-0.294539 5.993372,-5.993403 -0.565618,-0.565618 z m 4.878581,0.653898 c -0.06619,0.112535 -0.147601,0.219479 -0.246479,0.318359 l -0.626178,0.626177 c -0.06741,0.06741 -0.138404,0.126838 -0.212499,0.178905 0.223419,0.233439 0.430939,0.484778 0.570698,0.707037 0.514318,0.817837 0.781157,1.649055 0.918356,2.85979 0.1804,1.591933 0.597718,2.857788 1.288675,3.889384 L 8.2501013,18.475036 8.1215857,18.793395 7.8774467,19.035974 20.0418,20.434409 c 0.123923,0.141129 0.253099,0.278239 0.390238,0.409758 0.476799,0.457298 1.417755,1.155856 1.557034,1.155856 0.03098,0 -0.0062,-0.07759 -0.08242,-0.172265 -0.840837,-1.044057 -1.443595,-2.317992 -1.783193,-3.768386 -0.162956,-0.695978 -0.266919,-1.528334 -0.318359,-2.54599 -0.05797,-1.147256 -0.157219,-1.584494 -0.531238,-2.338991 -0.336557,-0.679017 -0.781876,-1.288115 -1.433593,-1.982032 z"
     id="path1"
     style="stroke-width:1" />
</svg>
