<?xml version="1.0" encoding="UTF-8" standalone="no"?>
<svg
   width="24"
   height="24"
   version="1.1"
   viewBox="0 0 26.181818 26.181818"
   id="svg1"
   sodipodi:docname="glaive.svg"
   inkscape:version="1.3.2 (091e20e, 2023-11-25, custom)"
   xmlns:inkscape="http://www.inkscape.org/namespaces/inkscape"
   xmlns:sodipodi="http://sodipodi.sourceforge.net/DTD/sodipodi-0.dtd"
   xmlns="http://www.w3.org/2000/svg"
   xmlns:svg="http://www.w3.org/2000/svg">
  <defs
     id="defs1" />
  <sodipodi:namedview
     id="namedview1"
     pagecolor="#ffffff"
     bordercolor="#111111"
     borderopacity="1"
     inkscape:showpageshadow="0"
     inkscape:pageopacity="0"
     inkscape:pagecheckerboard="1"
     inkscape:deskcolor="#d1d1d1"
     inkscape:zoom="2.9278846"
     inkscape:cx="-20.663383"
     inkscape:cy="41.83908"
     inkscape:window-width="1366"
     inkscape:window-height="697"
     inkscape:window-x="-8"
     inkscape:window-y="-8"
     inkscape:window-maximized="1"
     inkscape:current-layer="svg1" />
  <path
     d="M 24.545455,1.6363377 17.49466,8.6580373 c 0.319378,0.057773 0.616742,0.2104172 0.849248,0.4429741 0.620338,0.6204759 0.620338,1.6471786 0,2.2676536 l -3.488399,3.4884 a 3.6654875,6.8727891 45 0 1 -0.878342,4.462043 c 0.496284,-0.319561 1.040792,-0.680498 1.415726,-0.969613 0.847231,-0.65335 1.595449,-1.34434 2.473059,-2.217093 0.877585,-0.872776 1.974872,-1.971598 2.757134,-3.04121 0.782306,-1.069681 1.304088,-1.958997 1.932513,-3.3255127 0.628425,-1.3664483 1.410617,-3.5149739 1.705666,-4.8888444 0.295049,-1.3737332 0.284121,-3.2405202 0.284121,-3.2405202 z m -7.335786,7.6821746 a 0.91637188,0.91637188 0 0 0 -0.647898,0.268474 L 1.6363635,24.512393 v 0.03311 H 4.1948739 L 17.85775,10.882629 a 0.91637188,0.91637188 0 0 0 0,-1.2957957 0.91637188,0.91637188 0 0 0 -0.647898,-0.2684745 z"
     id="path1"
     style="stroke-width:1" />
</svg>
