<?xml version="1.0" encoding="UTF-8" standalone="no"?>
<svg
   width="24"
   height="24"
   version="1.1"
   viewBox="0 0 26.181818 26.181818"
   xml:space="preserve"
   id="svg1"
   sodipodi:docname="mace.svg"
   inkscape:version="1.4 (86a8ad7, 2024-10-11)"
   xmlns:inkscape="http://www.inkscape.org/namespaces/inkscape"
   xmlns:sodipodi="http://sodipodi.sourceforge.net/DTD/sodipodi-0.dtd"
   xmlns="http://www.w3.org/2000/svg"
   xmlns:svg="http://www.w3.org/2000/svg"><defs
     id="defs1" /><sodipodi:namedview
     id="namedview1"
     pagecolor="#ffffff"
     bordercolor="#111111"
     borderopacity="1"
     inkscape:showpageshadow="0"
     inkscape:pageopacity="0"
     inkscape:pagecheckerboard="1"
     inkscape:deskcolor="#d1d1d1"
     inkscape:zoom="13.98143"
     inkscape:cx="-0.14304688"
     inkscape:cy="13.625216"
     inkscape:window-width="1920"
     inkscape:window-height="1017"
     inkscape:window-x="-8"
     inkscape:window-y="-8"
     inkscape:window-maximized="1"
     inkscape:current-layer="svg1" /><path
     id="path1"
     style="stroke-width:1.176;stroke-dasharray:none"
     d="m 18.014048,2.1818181 -0.867313,1.3435828 c 0,0 0.359908,0.3789642 0.463736,0.6141377 0.07598,0.1721064 0.133994,0.3705679 0.105281,0.5564839 -0.02253,0.1458503 -0.109522,0.28096 -0.210562,0.3885361 -0.166634,0.1773813 -0.396246,0.2883613 -0.619151,0.3860294 -0.180969,0.079287 -0.378062,0.117727 -0.571524,0.1579211 -0.169724,0.035264 -0.51387,0.072694 -0.51387,0.072694 0,0 -0.790397,2.1890219 -0.995154,3.328877 -0.02998,0.1668418 -0.04242,0.3371443 -0.03259,0.5063502 0.0062,0.1074317 0.0093,0.222262 0.05765,0.3183489 0.0013,0.00262 0.0036,0.00485 0.005,0.00752 l -2.41895,2.4189508 a 1.0483987,1.0483987 0 0 0 -0.300803,0.797125 L 8.7443078,16.449866 4.1595823,21.034592 2.1818082,22.518549 V 24 H 3.6632788 L 5.1472359,22.022226 9.7319618,17.4375 13.103452,14.066009 a 1.0483987,1.0483987 0 0 0 0.797126,-0.300802 l 2.418951,-2.418951 c 0.0027,0.0014 0.0048,0.0037 0.0075,0.005 0.09609,0.04844 0.210923,0.05141 0.318348,0.05765 0.169227,0.0099 0.339507,-0.0026 0.506351,-0.03259 1.139855,-0.204765 3.328877,-0.995154 3.328877,-0.995154 0,0 0.03742,-0.344151 0.07269,-0.5138705 0.04019,-0.1934446 0.07863,-0.3905364 0.157921,-0.5715241 0.09766,-0.2229194 0.20864,-0.4525377 0.38603,-0.619151 0.107564,-0.1010435 0.242676,-0.1880377 0.388536,-0.2105615 0.185927,-0.028713 0.384378,0.029302 0.556484,0.1052808 0.235179,0.1038188 0.614137,0.4637366 0.614137,0.4637366 L 24.00001,8.1677804 23.937343,7.2804142 23.814515,5.503175 23.784435,5.0594918 c 0,0 -0.03824,-0.2751149 -0.09275,-0.4010695 -0.05043,-0.116573 -0.213068,-0.3158422 -0.213068,-0.3158422 L 23.152748,4.016711 23.253016,3.91895 a 0.40291631,0.40291631 0 0 0 0,-0.5690174 L 23.042456,3.1393715 22.831895,2.92881 a 0.40291631,0.40291631 0 0 0 -0.569018,0 l -0.09776,0.1002674 -0.05264,-0.05264 -0.273228,-0.2732286 c 0,0 -0.199263,-0.1626272 -0.315843,-0.2130682 -0.125945,-0.054494 -0.401069,-0.092747 -0.401069,-0.092747 z" /></svg>
