<?xml version="1.0" encoding="UTF-8" standalone="no"?>
<svg
   width="24"
   height="24"
   version="1.1"
   viewBox="0 0 26.181818 26.181818"
   id="svg1"
   sodipodi:docname="macddde.svg"
   inkscape:version="1.3.2 (091e20e, 2023-11-25, custom)"
   xmlns:inkscape="http://www.inkscape.org/namespaces/inkscape"
   xmlns:sodipodi="http://sodipodi.sourceforge.net/DTD/sodipodi-0.dtd"
   xmlns="http://www.w3.org/2000/svg"
   xmlns:svg="http://www.w3.org/2000/svg">
  <defs
     id="defs1" />
  <sodipodi:namedview
     id="namedview1"
     pagecolor="#ffffff"
     bordercolor="#111111"
     borderopacity="1"
     inkscape:showpageshadow="0"
     inkscape:pageopacity="0"
     inkscape:pagecheckerboard="1"
     inkscape:deskcolor="#d1d1d1"
     inkscape:zoom="6.9907148"
     inkscape:cx="16.378869"
     inkscape:cy="21.814651"
     inkscape:window-width="1366"
     inkscape:window-height="697"
     inkscape:window-x="-8"
     inkscape:window-y="-8"
     inkscape:window-maximized="1"
     inkscape:current-layer="svg1" />
  <path
     d="m 18.987821,2.181859 -0.790905,1.641046 a 4.3636162,4.3636162 0 0 0 -0.196873,-0.0047 4.3636162,4.3636162 0 0 0 -1.47187,0.267184 L 15.27959,2.746043 15.60217,4.540078 A 4.3636162,4.3636162 0 0 0 14.396634,5.732829 L 12.610278,5.38638 13.925756,6.649865 a 4.3636162,4.3636162 0 0 0 -0.289351,1.531956 4.3636162,4.3636162 0 0 0 0.01023,0.141903 L 12.000046,9.0946 13.797899,9.340905 a 4.3636162,4.3636162 0 0 0 2.991041,3.031622 l 0.223286,1.809373 0.795598,-1.649992 a 4.3636162,4.3636162 0 0 0 0.192185,0.01364 4.3636162,4.3636162 0 0 0 1.47187,-0.267184 l 1.248583,1.339347 -0.322579,-1.794036 a 4.3636162,4.3636162 0 0 0 1.205535,-1.192751 l 1.786357,0.34645 -1.315478,-1.263485 a 4.3636162,4.3636162 0 0 0 0.289351,-1.531957 4.3636162,4.3636162 0 0 0 -0.0034,-0.144885 L 24.000008,7.26916 22.205557,7.02327 A 4.3636162,4.3636162 0 0 0 21.440637,5.499844 L 22.318466,3.909502 20.718328,4.769877 A 4.3636162,4.3636162 0 0 0 19.211091,3.990906 L 18.987805,2.181969 Z m -5.500993,8.970504 -10.9854025,10.985403 0.0017,0.0017 a 1.090904,1.090904 0 0 0 -0.321315,0.769589 1.090904,1.090904 0 0 0 1.090904,1.090904 1.090904,1.090904 0 0 0 0.769589,-0.321315 l 0.0017,0.0017 L 15.029407,12.69494 c -0.615182,-0.404965 -1.139034,-0.926941 -1.542603,-1.542603 z"
     id="path1"
     style="stroke-width:0.999999" />
</svg>
