<?xml version="1.0" encoding="UTF-8" standalone="no"?>
<svg
   viewBox="0 0 24 24"
   version="1.1"
   id="svg1"
   sodipodi:docname="ms-cleave.svg"
   width="24"
   height="24"
   inkscape:version="1.4 (86a8ad7, 2024-10-11)"
   xmlns:inkscape="http://www.inkscape.org/namespaces/inkscape"
   xmlns:sodipodi="http://sodipodi.sourceforge.net/DTD/sodipodi-0.dtd"
   xmlns="http://www.w3.org/2000/svg"
   xmlns:svg="http://www.w3.org/2000/svg">
  <defs
     id="defs1" />
  <sodipodi:namedview
     id="namedview1"
     pagecolor="#ffffff"
     bordercolor="#111111"
     borderopacity="1"
     inkscape:showpageshadow="0"
     inkscape:pageopacity="0"
     inkscape:pagecheckerboard="1"
     inkscape:deskcolor="#d1d1d1"
     inkscape:zoom="12.734375"
     inkscape:cx="38.007362"
     inkscape:cy="6.2429448"
     inkscape:window-width="1920"
     inkscape:window-height="1017"
     inkscape:window-x="-8"
     inkscape:window-y="-8"
     inkscape:window-maximized="1"
     inkscape:current-layer="svg1" />
  <g
     class=""
     id="g1"
     transform="matrix(0.05932362,0,0,0.05932362,-3.302387,-2.16171)">
    <path
       d="m 174.844,14.875 c 47.1,42.275 78.124,90.35 95.312,138.063 C 200.613,126.285 119.028,114.165 32,129.155 c 96.11,-8.437 180.524,13 245.625,47.72 43.035,161.78 -70.46,307.352 -250.97,192.155 112.67,95.877 201.475,101.817 254.94,60.908 307.477,77.54 238.903,-156.1 27.374,-260.094 C 283.083,114.039 239.229,59.15 174.843,14.874 Z M 323,205.345 C 446.386,296.095 462.423,432.968 284.344,427.781 336.51,385.317 353.196,296.868 323,205.345 Z"
       fill="#000000"
       fill-opacity="1"
       transform="matrix(0.8,0,0,0.8,51.2,51.2)"
       id="path1" />
  </g>
</svg>
