<?xml version="1.0" encoding="UTF-8" standalone="no"?>
<svg
   viewBox="0 0 24 24"
   version="1.1"
   id="svg1"
   sodipodi:docname="prop-sighted.svg"
   inkscape:version="1.3.2 (091e20e, 2023-11-25, custom)"
   xmlns:inkscape="http://www.inkscape.org/namespaces/inkscape"
   xmlns:sodipodi="http://sodipodi.sourceforge.net/DTD/sodipodi-0.dtd"
   xmlns="http://www.w3.org/2000/svg"
   xmlns:svg="http://www.w3.org/2000/svg">
  <defs
     id="defs1" />
  <sodipodi:namedview
     id="namedview1"
     pagecolor="#ffffff"
     bordercolor="#111111"
     borderopacity="1"
     inkscape:showpageshadow="0"
     inkscape:pageopacity="0"
     inkscape:pagecheckerboard="1"
     inkscape:deskcolor="#d1d1d1"
     inkscape:zoom="5.40625"
     inkscape:cx="-16.092486"
     inkscape:cy="24.693642"
     inkscape:window-width="1366"
     inkscape:window-height="697"
     inkscape:window-x="-8"
     inkscape:window-y="-8"
     inkscape:window-maximized="1"
     inkscape:current-layer="svg1" />
  <path
     d="M 12,8.3636364 A 3.6363636,3.6363636 0 0 1 15.636364,12 3.6363636,3.6363636 0 0 1 12,15.636364 3.6363636,3.6363636 0 0 1 8.3636364,12 3.6363636,3.6363636 0 0 1 12,8.3636364 M 3.8636364,12.909091 H 2 V 11.090909 H 3.8636364 C 4.2727273,7.3 7.3,4.2727273 11.090909,3.8636364 V 2 h 1.818182 V 3.8636364 C 16.7,4.2727273 19.727273,7.3 20.136364,11.090909 H 22 v 1.818182 H 20.136364 C 19.727273,16.7 16.7,19.727273 12.909091,20.136364 V 22 H 11.090909 V 20.136364 C 7.3,19.727273 4.2727273,16.7 3.8636364,12.909091 M 12,5.6363636 A 6.3636364,6.3636364 0 0 0 5.6363636,12 6.3636364,6.3636364 0 0 0 12,18.363636 6.3636364,6.3636364 0 0 0 18.363636,12 6.3636364,6.3636364 0 0 0 12,5.6363636"
     id="path1"
     style="stroke-width:1" />
</svg>
