<?xml version="1.0" encoding="UTF-8"?>
<svg id="svg1" version="1.1" viewBox="0 0 24 24" xml:space="preserve" xmlns="http://www.w3.org/2000/svg"><path id="path1" d="m4.2227 2c-1.2222 0-2.2227 1.0004-2.2227 2.2227v3.3847c0 0.54048 0.2739 0.63569 0.64509 0.24302 0.48597-0.51409 1.0135-0.98849 1.5776-1.4167v-2.2109h4.4434v-2.2227zm11.111 0v2.2227h4.4434v2.2109c0.56412 0.42825 1.0916 0.90265 1.5776 1.4167 0.37119 0.39267 0.64508 0.29746 0.64508-0.24302v-3.3847c0-1.2222-1.0004-2.2227-2.2227-2.2227zm-13.334 14.393v3.3847c0 1.2222 1.0004 2.2227 2.2227 2.2227h4.4434v-2.2227h-4.4434v-2.2109c-0.56412-0.42825-1.0916-0.90265-1.5776-1.4167-0.37119-0.39268-0.64508-0.29746-0.64508 0.24302zm19.355-0.24302c-0.48597 0.51409-1.0135 0.98849-1.5776 1.4167v2.2109h-4.4434v2.2227h4.4434c1.2222 0 2.2227-1.0004 2.2227-2.2227v-3.3847c0-0.54048-0.2739-0.63569-0.64509-0.24302z"/><path id="path1-0" d="m12 9.4091a2.5909 2.5909 0 0 0-2.5909 2.5909 2.5909 2.5909 0 0 0 2.5909 2.5909 2.5909 2.5909 0 0 0 2.5909-2.5909 2.5909 2.5909 0 0 0-2.5909-2.5909m0 6.9091a4.3182 4.3182 0 0 1-4.3182-4.3182 4.3182 4.3182 0 0 1 4.3182-4.3182 4.3182 4.3182 0 0 1 4.3182 4.3182 4.3182 4.3182 0 0 1-4.3182 4.3182m0-10.795c-4.3182 0-8.0059 2.6859-9.5 6.4773 1.4941 3.7914 5.1818 6.4773 9.5 6.4773 4.3182 0 8.0059-2.6859 9.5-6.4773-1.4941-3.7914-5.1818-6.4773-9.5-6.4773z"/></svg>
