<?xml version="1.0" encoding="UTF-8"?>
<svg id="svg1" version="1.1" viewBox="0 0 24 24" xmlns="http://www.w3.org/2000/svg">
 <path id="path1" d="M11 7a2 2 0 0 0-2 2v6a2 2 0 0 0 2 2h2a2 2 0 0 0 2-2V9a2 2 0 0 0-2-2h-2m0 2h2v6h-2V9Z"/>
 <path id="rect1" d="m4.5801 2c-1.4121 0-2.5801 1.168-2.5801 2.5801v0.75977h2v-0.75977c0-0.33869 0.24139-0.58008 0.58008-0.58008h14.84c0.33869 0 0.58008 0.24139 0.58008 0.58008v0.75977h2v-0.75977c0-1.4121-1.168-2.5801-2.5801-2.5801h-14.84zm-2.5801 16.66v0.75977c0 1.4121 1.168 2.5801 2.5801 2.5801h14.84c1.4121 0 2.5801-1.168 2.5801-2.5801v-0.75977h-2v0.75977c0 0.33869-0.24139 0.58008-0.58008 0.58008h-14.84c-0.33869 0-0.58008-0.24139-0.58008-0.58008v-0.75977h-2z" style="-inkscape-stroke:none;paint-order:stroke markers fill"/>
</svg>
