<?xml version="1.0" encoding="UTF-8" standalone="no"?>
<svg
   viewBox="0 0 24 24"
   version="1.1"
   id="svg1"
   sodipodi:docname="level-1.svg"
   inkscape:version="1.3.2 (091e20e, 2023-11-25, custom)"
   xmlns:inkscape="http://www.inkscape.org/namespaces/inkscape"
   xmlns:sodipodi="http://sodipodi.sourceforge.net/DTD/sodipodi-0.dtd"
   xmlns="http://www.w3.org/2000/svg"
   xmlns:svg="http://www.w3.org/2000/svg">
  <defs
     id="defs1" />
  <sodipodi:namedview
     id="namedview1"
     pagecolor="#ffffff"
     bordercolor="#666666"
     borderopacity="1.0"
     inkscape:showpageshadow="2"
     inkscape:pageopacity="0.0"
     inkscape:pagecheckerboard="0"
     inkscape:deskcolor="#d1d1d1"
     inkscape:zoom="15.821514"
     inkscape:cx="9.5439664"
     inkscape:cy="13.999924"
     inkscape:window-width="1360"
     inkscape:window-height="715"
     inkscape:window-x="-8"
     inkscape:window-y="-8"
     inkscape:window-maximized="1"
     inkscape:current-layer="svg1" />
  <path
     d="M14 7v2h-1v6h1v2h-4v-2h1V9h-1V7h4Z"
     id="path1" />
  <path
     id="rect1"
     style="fill-opacity:1;-inkscape-stroke:none;paint-order:stroke markers fill"
     d="M 4.5800781 2 C 3.1679885 2 2 3.1679879 2 4.5800781 L 2 5.3398438 L 4 5.3398438 L 4 4.5800781 C 4 4.2413913 4.2413915 4 4.5800781 4 L 19.419922 4 C 19.758609 4 20 4.2413916 20 4.5800781 L 20 5.3398438 L 22 5.3398438 L 22 4.5800781 C 22 3.1679876 20.832011 2 19.419922 2 L 4.5800781 2 z M 2 18.660156 L 2 19.419922 C 2 20.832011 3.1679875 22 4.5800781 22 L 19.419922 22 C 20.832012 22 22 20.832012 22 19.419922 L 22 18.660156 L 20 18.660156 L 20 19.419922 C 20 19.758608 19.758608 20 19.419922 20 L 4.5800781 20 C 4.2413915 20 4 19.758609 4 19.419922 L 4 18.660156 L 2 18.660156 z " />
</svg>
