<?xml version="1.0" encoding="UTF-8" standalone="no"?>
<svg
   viewBox="0 0 24 24"
   version="1.1"
   id="svg1"
   sodipodi:docname="lv2.svg"
   inkscape:version="1.3.2 (091e20e, 2023-11-25, custom)"
   xmlns:inkscape="http://www.inkscape.org/namespaces/inkscape"
   xmlns:sodipodi="http://sodipodi.sourceforge.net/DTD/sodipodi-0.dtd"
   xmlns="http://www.w3.org/2000/svg"
   xmlns:svg="http://www.w3.org/2000/svg">
  <defs
     id="defs1" />
  <sodipodi:namedview
     id="namedview1"
     pagecolor="#ffffff"
     bordercolor="#666666"
     borderopacity="1.0"
     inkscape:showpageshadow="2"
     inkscape:pageopacity="0.0"
     inkscape:pagecheckerboard="0"
     inkscape:deskcolor="#d1d1d1"
     inkscape:zoom="11.1875"
     inkscape:cx="3.9776536"
     inkscape:cy="10.502793"
     inkscape:window-width="1366"
     inkscape:window-height="697"
     inkscape:window-x="-8"
     inkscape:window-y="-8"
     inkscape:window-maximized="1"
     inkscape:current-layer="svg1" />
  <path
     d="M11 7v2h-1v6h1v2H7v-2h1V9H7V7h4m6 0v2h-1v6h1v2h-4v-2h1V9h-1V7h4Z"
     id="path1" />
  <path
     id="rect1"
     style="fill-opacity:1;stroke-width:0.999995;-inkscape-stroke:none;paint-order:stroke markers fill"
     d="m 5.3220702,2.9999998 c -1.2708806,0 -2.3220703,1.0511892 -2.3220703,2.3220702 V 6.0058593 H 4.8 V 5.3220701 C 4.8,5.0172521 5.0172523,4.7999999 5.3220701,4.7999999 H 18.67793 c 0.304817,0 0.52207,0.2172524 0.52207,0.5220702 V 6.0058593 H 21 V 5.3220701 C 21,4.0511887 19.948809,2.9999998 18.67793,2.9999998 Z M 2.9999999,17.99414 v 0.68379 C 2.9999999,19.948809 4.0511888,21 5.3220701,21 H 18.67793 C 19.94881,21 21,19.94881 21,18.67793 v -0.68379 h -1.8 v 0.68379 C 19.2,18.982746 18.982746,19.2 18.67793,19.2 H 5.3220702 C 5.0172523,19.2 4.8,18.982747 4.8,18.67793 v -0.68379 z" />
</svg>
