<?xml version="1.0" encoding="UTF-8"?>
<svg id="svg1" version="1.1" viewBox="0 0 24 24" xmlns="http://www.w3.org/2000/svg">
 <path id="path1" d="M9 7v2H8v6h1v2H5v-2h1V9H5V7h4m5 0v2h-1v6h1v2h-4v-2h1V9h-1V7h4m5 0v2h-1v6h1v2h-4v-2h1V9h-1V7h4Z"/>
 <path id="path2" transform="matrix(1.1864 0 0 1.1837 35.012 15.068)" d="m-12.08 1.6319c-0.12672 0.21949-7.0629 4.2241-7.3164 4.2241-0.25345 0-7.1897-4.0046-7.3164-4.2241-0.12672-0.21949-0.12672-8.2287 0-8.4482 0.12672-0.21949 7.0629-4.2241 7.3164-4.2241 0.25345 0 7.1897 4.0046 7.3164 4.2241 0.12672 0.21949 0.12672 8.2287 0 8.4482z" fill="none" stroke-width="1.1687" style="paint-order:stroke markers fill"/>
 <path id="rect1" d="m4.5801 2c-1.4121 0-2.5801 1.168-2.5801 2.5801v0.75977h2v-0.75977c0-0.33869 0.24139-0.58008 0.58008-0.58008h14.84c0.33869 0 0.58008 0.24139 0.58008 0.58008v0.75977h2v-0.75977c0-1.4121-1.168-2.5801-2.5801-2.5801h-14.84zm-2.5801 16.66v0.75977c0 1.4121 1.168 2.5801 2.5801 2.5801h14.84c1.4121 0 2.5801-1.168 2.5801-2.5801v-0.75977h-2v0.75977c0 0.33869-0.24139 0.58008-0.58008 0.58008h-14.84c-0.33869 0-0.58008-0.24139-0.58008-0.58008v-0.75977h-2z" style="-inkscape-stroke:none;paint-order:stroke markers fill"/>
</svg>
