<?xml version="1.0" encoding="UTF-8" standalone="no"?>
<svg
   viewBox="0 0 24 24"
   version="1.1"
   id="svg1"
   sodipodi:docname="lv3.svg"
   inkscape:version="1.3.2 (091e20e, 2023-11-25, custom)"
   xmlns:inkscape="http://www.inkscape.org/namespaces/inkscape"
   xmlns:sodipodi="http://sodipodi.sourceforge.net/DTD/sodipodi-0.dtd"
   xmlns="http://www.w3.org/2000/svg"
   xmlns:svg="http://www.w3.org/2000/svg">
  <defs
     id="defs1" />
  <sodipodi:namedview
     id="namedview1"
     pagecolor="#ffffff"
     bordercolor="#666666"
     borderopacity="1.0"
     inkscape:showpageshadow="2"
     inkscape:pageopacity="0.0"
     inkscape:pagecheckerboard="0"
     inkscape:deskcolor="#d1d1d1"
     inkscape:zoom="11.1875"
     inkscape:cx="5.0502793"
     inkscape:cy="11.039106"
     inkscape:window-width="1366"
     inkscape:window-height="697"
     inkscape:window-x="-8"
     inkscape:window-y="-8"
     inkscape:window-maximized="1"
     inkscape:current-layer="svg1" />
  <path
     d="M9 7v2H8v6h1v2H5v-2h1V9H5V7h4m5 0v2h-1v6h1v2h-4v-2h1V9h-1V7h4m5 0v2h-1v6h1v2h-4v-2h1V9h-1V7h4Z"
     id="path1" />
  <path
     sodipodi:type="star"
     style="paint-order:stroke markers fill;fill:none;stroke-width:1.16873769;stroke-dasharray:none"
     id="path2"
     inkscape:flatsided="true"
     sodipodi:sides="6"
     sodipodi:cx="-19.396648"
     sodipodi:cy="-2.5921788"
     sodipodi:r1="8.4482279"
     sodipodi:r2="7.31638"
     sodipodi:arg1="0.52359878"
     sodipodi:arg2="1.0471976"
     inkscape:rounded="0.03"
     inkscape:randomized="0"
     d="m -12.080268,1.6319352 c -0.126724,0.2194914 -7.062934,4.2241139 -7.31638,4.2241139 -0.253447,0 -7.189657,-4.0046226 -7.31638,-4.224114 -0.126724,-0.2194914 -0.126724,-8.2287365 0,-8.4482279 0.126723,-0.2194914 7.062933,-4.2241142 7.31638,-4.2241142 0.253446,0 7.189656,4.0046229 7.31638,4.2241143 0.126723,0.2194914 0.126723,8.2287365 0,8.4482279 z"
     transform="matrix(1.1863998,0,0,1.1836802,35.01218,15.068311)" />
  <path
     id="rect1"
     style="fill-opacity:1;stroke-width:0.999999;-inkscape-stroke:none;paint-order:stroke markers fill"
     d="M 5.3220703,3 C 4.0511897,3 3,4.0511891 3,5.3220703 V 6.0058594 H 4.8 V 5.3220703 C 4.8,5.0172522 5.0172523,4.8 5.3220703,4.8 H 18.67793 C 18.982748,4.8 19.2,5.0172524 19.2,5.3220703 V 6.0058594 H 21 V 5.3220703 C 21,4.0511888 19.94881,3 18.67793,3 Z M 3,17.99414 v 0.68379 C 3,19.94881 4.0511888,21 5.3220703,21 H 18.67793 C 19.948811,21 21,19.948811 21,18.67793 v -0.68379 h -1.8 v 0.68379 C 19.2,18.982747 18.982747,19.2 18.67793,19.2 H 5.3220703 C 5.0172523,19.2 4.8,18.982748 4.8,18.67793 v -0.68379 z" />
</svg>
