<?xml version="1.0" encoding="UTF-8"?>
<svg viewBox="0 0 24 24" xmlns="http://www.w3.org/2000/svg">
 <path d="m4 7 2 10h2l2-10H8l-1 5-1-5H4m11 0v2h-1v6h1v2h-4v-2h1V9h-1V7h4m5 0v2h-1v6h1v2h-4v-2h1V9h-1V7h4Z"/>
 <path id="rect1" d="m4.5801 2c-1.4121 0-2.5801 1.168-2.5801 2.5801v0.75977h2v-0.75977c0-0.33869 0.24139-0.58008 0.58008-0.58008h14.84c0.33869 0 0.58008 0.24139 0.58008 0.58008v0.75977h2v-0.75977c0-1.4121-1.168-2.5801-2.5801-2.5801h-14.84zm-2.5801 16.66v0.75977c0 1.4121 1.168 2.5801 2.5801 2.5801h14.84c1.4121 0 2.5801-1.168 2.5801-2.5801v-0.75977h-2v0.75977c0 0.33869-0.24139 0.58008-0.58008 0.58008h-14.84c-0.33869 0-0.58008-0.24139-0.58008-0.58008v-0.75977h-2z" style="-inkscape-stroke:none;paint-order:stroke markers fill"/>
</svg>
