<?xml version="1.0" encoding="UTF-8" standalone="no"?>
<svg
   viewBox="0 0 24 24"
   version="1.1"
   id="svg1"
   sodipodi:docname="lv8.svg"
   inkscape:version="1.3.2 (091e20e, 2023-11-25, custom)"
   xmlns:inkscape="http://www.inkscape.org/namespaces/inkscape"
   xmlns:sodipodi="http://sodipodi.sourceforge.net/DTD/sodipodi-0.dtd"
   xmlns="http://www.w3.org/2000/svg"
   xmlns:svg="http://www.w3.org/2000/svg">
  <defs
     id="defs1" />
  <sodipodi:namedview
     id="namedview1"
     pagecolor="#ffffff"
     bordercolor="#666666"
     borderopacity="1.0"
     inkscape:showpageshadow="2"
     inkscape:pageopacity="0.0"
     inkscape:pagecheckerboard="0"
     inkscape:deskcolor="#d1d1d1"
     inkscape:zoom="5.59375"
     inkscape:cx="-5.273743"
     inkscape:cy="16.893855"
     inkscape:window-width="1366"
     inkscape:window-height="697"
     inkscape:window-x="-8"
     inkscape:window-y="-8"
     inkscape:window-maximized="1"
     inkscape:current-layer="svg1" />
  <path
     d="m1 7 2 10h2L7 7H5l-1 5-1-5H1m11 0v2h-1v6h1v2H8v-2h1V9H8V7h4m5 0v2h-1v6h1v2h-4v-2h1V9h-1V7h4m5 0v2h-1v6h1v2h-4v-2h1V9h-1V7h4Z"
     id="path1" />
  <path
     id="rect1"
     style="fill-opacity:1;stroke-width:0.999999;-inkscape-stroke:none;paint-order:stroke markers fill"
     d="M 5.3220703,3 C 4.0511897,3 3,4.0511891 3,5.3220703 V 6.0058594 H 4.8 V 5.3220703 C 4.8,5.0172522 5.0172523,4.8 5.3220703,4.8 H 18.67793 C 18.982748,4.8 19.2,5.0172524 19.2,5.3220703 V 6.0058594 H 21 V 5.3220703 C 21,4.0511888 19.94881,3 18.67793,3 Z M 3,17.99414 v 0.68379 C 3,19.94881 4.0511888,21 5.3220703,21 H 18.67793 C 19.948811,21 21,19.948811 21,18.67793 v -0.68379 h -1.8 v 0.68379 C 19.2,18.982747 18.982747,19.2 18.67793,19.2 H 5.3220703 C 5.0172523,19.2 4.8,18.982748 4.8,18.67793 v -0.68379 z" />
</svg>
