<?xml version="1.0" encoding="UTF-8"?>
<svg id="svg1" version="1.1" viewBox="0 0 24 24" xmlns="http://www.w3.org/2000/svg">
 <path id="path1" d="m12 4.5c-5 0-9.27 3.11-11 7.5 1.73 4.39 6 7.5 11 7.5s9.27-3.11 11-7.5c-1.73-4.39-6-7.5-11-7.5zm0 2.5a5 5 0 0 1 5 5 5 5 0 0 1-5 5 5 5 0 0 1-5-5 5 5 0 0 1 5-5z"/>
 <path id="path2" transform="matrix(1.9065 0 0 1.9065 -7.5125 -6.8309)" d="m13.906 9.8771-2.8391 0.83251-0.83251 2.8391-0.83251-2.8391-2.8391-0.83251 2.8391-0.83251 0.83251-2.8391 0.83251 2.8391z" stroke-width=".52452" style="paint-order:stroke markers fill"/>
</svg>
