<?xml version="1.0" encoding="UTF-8"?>
<svg id="svg1" version="1.1" viewBox="0 0 24 24" xmlns="http://www.w3.org/2000/svg">
 <path id="path1" d="m10.4 4.6094c-3.9497 0.53565-7.2766 3.0245-8.9863 6.4629l6.1289-1.2891a5 5 0 0 1 2.2402-2.2402l0.61719-2.9336zm3.1992 0 0.61133 2.9082a5 5 0 0 1 2.2715 2.2715l6.1035 1.2832c-1.7097-3.4383-5.0366-5.9272-8.9863-6.4629zm-12.186 8.3184c1.7097 3.4384 5.0366 5.9272 8.9863 6.4629l-0.61719-2.9336a5 5 0 0 1-2.2402-2.2402l-6.1289-1.2891zm21.172 0-6.1289 1.2891a5 5 0 0 1-2.2402 2.2402l-0.61719 2.9336c3.9497-0.53565 7.2766-3.0245 8.9863-6.4629z"/>
 <path id="path2-2-0" transform="matrix(1.4861 0 0 1.4861 -3.2097 -2.6783)" d="m16.964 9.8771-5.5605 1.1685-1.1685 5.5605-1.1685-5.5605-5.5605-1.1685 5.5605-1.1685 1.1685-5.5605 1.1685 5.5605z" stroke-width=".6729" style="paint-order:stroke markers fill"/>
</svg>
