<?xml version="1.0" encoding="UTF-8"?>
<svg id="svg1" version="1.1" viewBox="0 0 24 24" xml:space="preserve" xmlns="http://www.w3.org/2000/svg"><path id="path1" d="m10.955 0.5v3.1367h2.0898v-3.1367h-2.0898zm-6.3574 2.6133-1.4844 1.4961 2.2266 2.2148 1.4844-1.4727-2.2266-2.2383zm14.793 0-2.2148 2.2266 1.4844 1.4844 2.2266-2.2148-1.4961-1.4961zm-7.3906 2.6133a6.2727 6.2727 0 0 0-6.2734 6.2734c0 2.3209 1.2654 4.3483 3.1367 5.4355v1.8828a1.0455 1.0455 0 0 0 1.0449 1.0449h4.1836a1.0455 1.0455 0 0 0 1.0449-1.0449v-1.8828c1.8714-1.0873 3.1367-3.1146 3.1367-5.4355a6.2727 6.2727 0 0 0-6.2734-6.2734zm-1 3.2832h2v4.7949h-2v-0.80078-3.9941zm-10.5 1.9453v2.0898h3.1367v-2.0898h-3.1367zm19.863 0v2.0898h3.1367v-2.0898h-3.1367zm-9.3633 4.4473h2v1.5977h-2v-1.5977zm-1.0918 6.0059v1.0469a1.0455 1.0455 0 0 0 1.0469 1.0449h2.0898a1.0455 1.0455 0 0 0 1.0469-1.0449v-1.0469h-4.1836z"/></svg>
