<?xml version="1.0" encoding="UTF-8" standalone="no"?>
<!-- Created with Inkscape (http://www.inkscape.org/) -->

<svg
   width="24"
   height="24"
   viewBox="0 0 24 24.000001"
   id="svg2"
   version="1.1"
   inkscape:version="1.3.2 (091e20e, 2023-11-25, custom)"
   sodipodi:docname="damage-piercing.svg"
   xmlns:inkscape="http://www.inkscape.org/namespaces/inkscape"
   xmlns:sodipodi="http://sodipodi.sourceforge.net/DTD/sodipodi-0.dtd"
   xmlns="http://www.w3.org/2000/svg"
   xmlns:svg="http://www.w3.org/2000/svg"
   xmlns:rdf="http://www.w3.org/1999/02/22-rdf-syntax-ns#"
   xmlns:cc="http://creativecommons.org/ns#"
   xmlns:dc="http://purl.org/dc/elements/1.1/">
  <defs
     id="defs4" />
  <sodipodi:namedview
     id="base"
     pagecolor="#ffffff"
     bordercolor="#666666"
     borderopacity="1.0"
     inkscape:pageopacity="0.0"
     inkscape:pageshadow="2"
     inkscape:zoom="11.313708"
     inkscape:cx="7.1594562"
     inkscape:cy="13.302446"
     inkscape:document-units="px"
     inkscape:current-layer="layer1"
     showgrid="false"
     units="px"
     inkscape:window-width="1360"
     inkscape:window-height="715"
     inkscape:window-x="-8"
     inkscape:window-y="-8"
     inkscape:window-maximized="1"
     inkscape:showpageshadow="2"
     inkscape:pagecheckerboard="0"
     inkscape:deskcolor="#d1d1d1" />
  <metadata
     id="metadata7">
    <rdf:RDF>
      <cc:Work
         rdf:about="">
        <dc:format>image/svg+xml</dc:format>
        <dc:type
           rdf:resource="http://purl.org/dc/dcmitype/StillImage" />
      </cc:Work>
    </rdf:RDF>
  </metadata>
  <g
     inkscape:label="Layer 1"
     inkscape:groupmode="layer"
     id="layer1"
     transform="translate(0,-1020.3622)">
    <g
       id="g5"
       transform="matrix(1.0804854,0,0,1.0804854,-1.5667207,-83.403622)"
       style="stroke-width:0.92551">
      <path
         style="fill-opacity:1;fill-rule:evenodd;stroke:none;stroke-width:0.92551px;stroke-linecap:butt;stroke-linejoin:miter;stroke-opacity:1"
         d="m 2.8650479,1025.6468 16.3603191,15.3653 c 0.377384,0.048 1.333623,-0.7718 1.208445,-1.1458 l -14.8127302,-16.756 c -0.7907928,-0.4219 -3.0671886,1.8332 -2.7560339,2.5365 z"
         id="path3349"
         inkscape:connector-curvature="0"
         sodipodi:nodetypes="ccccc" />
      <path
         id="path2"
         style="fill-opacity:1;fill-rule:evenodd;stroke:none;stroke-width:0.925508px;stroke-linecap:butt;stroke-linejoin:miter;stroke-opacity:1"
         d="m 7.5430269,1031.2458 c -5.2435749,5.4101 -5.8121739,8.8172 -4.6824031,10.071 0.024857,0.023 0.053663,0.04 0.079742,0.061 0.00163,-10e-5 0.00337,0.01 0.00502,0.01 0.03151,0.03 0.065983,0.053 0.099476,0.079 0.00133,-2e-4 0.00253,-3e-4 0.00502,0.01 0.024857,0.023 0.053663,0.04 0.079742,0.061 0.00163,-2e-4 0.00337,0.01 0.00502,0.01 0.069716,0.064 0.1463489,0.1201 0.2259145,0.1708 0.015143,0.011 0.030227,0.024 0.045403,0.036 0.00133,-10e-5 0.0025,-5e-4 0.00502,0.01 0.024857,0.023 0.053436,0.038 0.079515,0.059 0.00163,-2e-4 0.0036,0.012 0.00525,0.012 3.8080422,3.5317 22.6169557,-14.1053 18.7100347,-17.7003 -0.01529,-0.01 -0.03492,-0.022 -0.05099,-0.033 -0.01179,-0.012 -0.02127,-0.024 -0.03354,-0.035 -0.01976,-0.014 -0.04472,-0.027 -0.06572,-0.042 -0.01379,-0.014 -0.02387,-0.029 -0.03832,-0.043 -0.01529,-0.01 -0.03494,-0.022 -0.05099,-0.033 -0.01179,-0.012 -0.02127,-0.024 -0.03354,-0.035 -0.02189,-0.016 -0.04884,-0.031 -0.07222,-0.047 -0.0063,-0.01 -0.0099,-0.013 -0.01585,-0.018 -0.01529,-0.01 -0.03492,-0.022 -0.05099,-0.033 -0.01179,-0.012 -0.02127,-0.024 -0.03354,-0.035 -0.01976,-0.014 -0.04472,-0.027 -0.06572,-0.042 -0.01379,-0.014 -0.02387,-0.029 -0.03832,-0.043 -0.01529,-0.01 -0.03493,-0.022 -0.05099,-0.033 -0.01179,-0.012 -0.02127,-0.024 -0.03354,-0.035 -0.490824,-0.3466 -1.335118,-0.768 -2.688154,-0.5757 v 0 c -1.696656,0.2411 -4.194395,1.4543 -7.787692,4.9822 l 0.706724,0.68 c 1.011476,-0.9295 5.864005,-5.2561 7.932705,-4.6075 1.144252,2.8319 -12.1493758,15.3997 -15.7455375,15.0498 -0.1549727,-1.2836 2.3513748,-4.8396 4.360558,-7.1228 z" />
    </g>
  </g>
</svg>
