<?xml version="1.0" encoding="UTF-8" standalone="no"?>
<svg
   viewBox="0 0 24 24"
   version="1.1"
   id="svg1"
   sodipodi:docname="damage-thunder.svg"
   inkscape:version="1.3.2 (091e20e, 2023-11-25, custom)"
   xmlns:inkscape="http://www.inkscape.org/namespaces/inkscape"
   xmlns:sodipodi="http://sodipodi.sourceforge.net/DTD/sodipodi-0.dtd"
   xmlns="http://www.w3.org/2000/svg"
   xmlns:svg="http://www.w3.org/2000/svg">
  <defs
     id="defs1">
    <inkscape:path-effect
       effect="fillet_chamfer"
       id="path-effect15"
       is_visible="true"
       lpeversion="1"
       nodesatellites_param="F,0,0,1,0,0,0,1 @ F,0,0,1,0,0,0,1 @ F,0,0,1,0,0,0,1 @ F,0,0,1,0,0,0,1 @ F,0,0,1,0,0,0,1 @ F,0,0,1,0,0,0,1"
       radius="0"
       unit="px"
       method="auto"
       mode="F"
       chamfer_steps="1"
       flexible="false"
       use_knot_distance="true"
       apply_no_radius="true"
       apply_with_radius="true"
       only_selected="false"
       hide_knots="false" />
  </defs>
  <sodipodi:namedview
     id="namedview1"
     pagecolor="#ffffff"
     bordercolor="#666666"
     borderopacity="1.0"
     inkscape:showpageshadow="2"
     inkscape:pageopacity="0.0"
     inkscape:pagecheckerboard="0"
     inkscape:deskcolor="#d1d1d1"
     inkscape:zoom="8.0448373"
     inkscape:cx="-7.147441"
     inkscape:cy="18.70765"
     inkscape:window-width="1360"
     inkscape:window-height="715"
     inkscape:window-x="-8"
     inkscape:window-y="-8"
     inkscape:window-maximized="1"
     inkscape:current-layer="svg1" />
  <path
     id="path2"
     style="stroke-width:0.999999;stroke-linecap:round;-inkscape-stroke:none;paint-order:stroke markers fill"
     d="m 5.1870003,2.7477564 c -2.846775,2.102762 -4.69591207,5.4831267 -4.686968,9.2790876 0.008899,3.776986 1.8562031,7.133819 4.6887576,9.2254 l 3.437826,-1.433472 C 5.6042831,18.520551 3.4951501,15.530351 3.4868784,12.019685 3.4785731,8.4951398 5.5909799,5.4850772 8.6266159,4.1812278 Z m 13.6260317,0 -3.439615,1.4334714 c 3.015495,1.2948283 5.123228,4.2739649 5.139738,7.7776112 v 0.04474 c -0.0016,3.515802 -2.112061,6.514577 -5.139738,7.815193 l 3.439615,1.433471 C 21.652708,19.155137 23.5,15.786613 23.5,11.999998 v -0.0018 -0.0018 -0.04833 -0.0036 C 23.48225,8.1782182 21.637453,4.8339138 18.813032,2.7477564 Z M 9.9204982,5.763236 c -2.6130114,0.8771202 -4.5058885,3.3547109 -4.4990599,6.25287 0.00679,2.887066 1.8973928,5.345187 4.4990599,6.218869 L 10.675711,15.974707 C 9.0092401,15.425807 7.8167284,13.86858 7.8123467,12.008948 7.8079467,10.142088 9.0020698,8.57627 10.675711,8.0252932 Z m 4.1590358,0.00179 -0.755212,2.2602676 c 1.662977,0.5477062 2.854617,2.0987884 2.863363,3.9550214 v 0.02148 c -8.76e-4,1.862606 -1.193837,3.423344 -2.863363,3.972918 l 0.755212,2.260268 c 2.607032,-0.875568 4.49906,-3.342567 4.49906,-6.234975 v -0.0018 -0.02685 -0.0018 c -0.01358,-2.8812995 -1.902987,-5.3325679 -4.49906,-6.20453 z" />
</svg>
