<?xml version="1.0" encoding="UTF-8" standalone="no"?>
<svg
   viewBox="0 0 24 24"
   version="1.1"
   id="svg1"
   sodipodi:docname="cold.svg"
   inkscape:version="1.3.2 (091e20e, 2023-11-25, custom)"
   xml:space="preserve"
   xmlns:inkscape="http://www.inkscape.org/namespaces/inkscape"
   xmlns:sodipodi="http://sodipodi.sourceforge.net/DTD/sodipodi-0.dtd"
   xmlns="http://www.w3.org/2000/svg"
   xmlns:svg="http://www.w3.org/2000/svg"><defs
     id="defs1"><inkscape:path-effect
       effect="fillet_chamfer"
       id="path-effect1"
       is_visible="true"
       lpeversion="1"
       nodesatellites_param="F,0,1,1,0,0,0,1 @ F,0,0,1,0,0,0,1 @ F,0,1,1,0,0,0,1 @ F,0,1,1,0,0,0,1 @ F,0,1,1,0,0,0,1 @ F,0,1,1,0,0,0,1 @ F,0,1,1,0,0,0,1 @ F,0,1,1,0,0,0,1 @ F,0,1,1,0,0,0,1 @ F,0,1,1,0,0,0,1 @ F,0,1,1,0,0,0,1 @ F,0,1,1,0,0,0,1 @ F,0,1,1,0,0,0,1 @ F,0,1,1,0,0,0,1 @ F,0,1,1,0,0,0,1 @ F,0,1,1,0,0,0,1 @ F,0,1,1,0,0,0,1 @ F,0,1,1,0,0,0,1 @ F,0,1,1,0,0,0,1 @ F,0,1,1,0,0,0,1 @ F,0,1,1,0,0,0,1 @ F,0,1,1,0,0,0,1 @ F,0,1,1,0,0,0,1 @ F,0,1,1,0,0,0,1 @ F,0,1,1,0,0,0,1 @ F,0,1,1,0,0,0,1 @ F,0,1,1,0,0,0,1 @ F,0,1,1,0,0,0,1 @ F,0,1,1,0,0,0,1 @ F,0,1,1,0,0,0,1 @ F,0,1,1,0,0,0,1 @ F,0,1,1,0,0,0,1 @ F,0,1,1,0,0,0,1 @ F,0,1,1,0,0,0,1 @ F,0,1,1,0,0,0,1 @ F,0,1,1,0,0,0,1 @ F,0,1,1,0,0,0,1 @ F,0,1,1,0,0,0,1 @ F,0,1,1,0,0,0,1 @ F,0,1,1,0,0,0,1 @ F,0,1,1,0,0,0,1 @ F,0,1,1,0,0,0,1 @ F,0,1,1,0,0,0,1 @ F,0,1,1,0,0,0,1 @ F,0,1,1,0,0,0,1 @ F,0,1,1,0,0,0,1 @ F,0,1,1,0,0,0,1 @ F,0,1,1,0,0,0,1 @ F,0,1,1,0,0,0,1 @ F,0,1,1,0,0,0,1 @ F,0,1,1,0,0,0,1 @ F,0,1,1,0,0,0,1 @ F,0,1,1,0,0,0,1 @ F,0,1,1,0,0,0,1 @ F,0,1,1,0,0,0,1 @ F,0,1,1,0,0,0,1 @ F,0,1,1,0,0,0,1 @ F,0,1,1,0,0,0,1 @ F,0,1,1,0,0,0,1 @ F,0,1,1,0,0,0,1 @ F,0,1,1,0,0,0,1 @ F,0,1,1,0,0,0,1 @ F,0,1,1,0,0,0,1 @ F,0,1,1,0,0,0,1 @ F,0,1,1,0,0,0,1 @ F,0,1,1,0,0,0,1 @ F,0,1,1,0,0,0,1 @ F,0,1,1,0,0,0,1 @ F,0,1,1,0,0,0,1 @ F,0,1,1,0,0,0,1 @ F,0,1,1,0,0,0,1 @ F,0,1,1,0,0,0,1 @ F,0,1,1,0,0,0,1 @ F,0,1,1,0,0,0,1 @ F,0,1,1,0,0,0,1 @ F,0,1,1,0,0,0,1 @ F,0,1,1,0,0,0,1 @ F,0,1,1,0,0,0,1 @ F,0,1,1,0,0,0,1 @ F,0,1,1,0,0,0,1 @ F,0,1,1,0,0,0,1 @ F,0,1,1,0,0,0,1 @ F,0,1,1,0,0,0,1 @ F,0,1,1,0,0,0,1 @ F,0,1,1,0,0,0,1"
       radius="0"
       unit="px"
       method="auto"
       mode="F"
       chamfer_steps="1"
       flexible="false"
       use_knot_distance="true"
       apply_no_radius="true"
       apply_with_radius="true"
       only_selected="false"
       hide_knots="false" /></defs><sodipodi:namedview
     id="namedview1"
     pagecolor="#ffffff"
     bordercolor="#666666"
     borderopacity="1.0"
     inkscape:showpageshadow="2"
     inkscape:pageopacity="0.0"
     inkscape:pagecheckerboard="0"
     inkscape:deskcolor="#d1d1d1"
     inkscape:zoom="11.1875"
     inkscape:cx="-4.2905028"
     inkscape:cy="16.134078"
     inkscape:window-width="1360"
     inkscape:window-height="715"
     inkscape:window-x="-8"
     inkscape:window-y="-8"
     inkscape:window-maximized="1"
     inkscape:current-layer="svg1" /><path
     d="m 12.000005,2 c 0.51953,0 0.9375,0.41797 0.9375,0.9375 v 1.80078 l 0.89843,-0.89844 c 0.36719,-0.36718 0.96094,-0.36718 1.32422,0 0.36328,0.36719 0.36719,0.96094 0,1.32422 l -2.22656,2.22657 v 2.98828 l 2.58594,-1.49219 0.8164,-3.03906 c 0.13282,-0.5 0.64844,-0.79688 1.14844,-0.66407 0.5,0.13282 0.79688,0.64844 0.66406,1.14844 l -0.32812,1.22266 1.44922,-0.83594 c 0.44922,-0.25781 1.02343,-0.10547 1.28125,0.34375 0.25781,0.44922 0.10547,1.02344 -0.34375,1.28125 l -1.44922,0.83594 1.23047,0.32812 c 0.5,0.13282 0.79687,0.64844 0.66406,1.14844 -0.13281,0.5 -0.64844,0.79688 -1.14844,0.66406 l -3.03906,-0.8164 -2.58984,1.49609 2.58593,1.49219 3.03907,-0.81641 c 0.5,-0.13281 1.01562,0.16406 1.14843,0.66406 0.13282,0.5 -0.16406,1.01563 -0.66406,1.14844 l -1.22656,0.33203 1.44922,0.83594 c 0.44922,0.25781 0.60156,0.83203 0.34375,1.28125 -0.25782,0.44922 -0.83203,0.60156 -1.28125,0.34375 l -1.44922,-0.83594 0.32812,1.23047 c 0.13282,0.5 -0.16406,1.01563 -0.66406,1.14844 -0.5,0.13281 -1.01562,-0.16406 -1.14844,-0.66406 l -0.8164,-3.03907 -2.58203,-1.49609 v 2.98828 l 2.22656,2.22656 c 0.36719,0.36719 0.36719,0.96094 0,1.32422 -0.36719,0.36328 -0.96094,0.36719 -1.32422,0 l -0.89844,-0.89843 v 1.79687 c 0,0.51953 -0.41797,0.9375 -0.9375,0.9375 -0.51953,0 -0.9375,-0.41797 -0.9375,-0.9375 v -1.80078 l -0.89844,0.89844 c -0.36718,0.36718 -0.96093,0.36718 -1.32421,0 -0.36329,-0.36719 -0.36719,-0.96094 0,-1.32422 l 2.22656,-2.22656 V 13.625 l -2.58594,1.49219 -0.81641,3.03906 c -0.13281,0.5 -0.64843,0.79688 -1.14843,0.66406 -0.5,-0.13281 -0.79688,-0.64843 -0.66407,-1.14843 l 0.32422,-1.22657 -1.44922,0.83594 c -0.44921,0.25781 -1.02343,0.10547 -1.28125,-0.34375 -0.25781,-0.44922 -0.10546,-1.02344 0.34375,-1.28125 l 1.44922,-0.83594 -1.23047,-0.32812 c -0.5,-0.13281 -0.79687,-0.64844 -0.66406,-1.14844 0.13281,-0.5 0.64844,-0.79687 1.14844,-0.66406 l 3.03906,0.8164 2.58985,-1.49609 -2.58594,-1.49219 -3.04297,0.8125 c -0.5,0.13282 -1.01563,-0.16406 -1.14844,-0.66406 -0.13281,-0.5 0.16406,-1.01562 0.66406,-1.14844 L 5.242185,9.17969 3.792965,8.34375 C 3.343755,8.08594 3.191405,7.51172 3.449215,7.0625 3.707035,6.61328 4.281255,6.46094 4.730465,6.71875 l 1.44922,0.83594 -0.32812,-1.23047 c -0.13281,-0.5 0.16406,-1.01563 0.66406,-1.14844 0.5,-0.13281 1.01563,0.16406 1.14844,0.66406 l 0.8164,3.03907 2.58204,1.49609 V 7.38672 L 8.835935,5.16406 c -0.36718,-0.36718 -0.36718,-0.96093 0,-1.32422 0.36719,-0.36328 0.96094,-0.36718 1.32422,0 l 0.89844,0.89844 V 2.9375 c 0,-0.51953 0.41797,-0.9375 0.9375,-0.9375 z"
     id="path1-3"
     style="stroke-width:0.999999"
     inkscape:path-effect="#path-effect1"
     inkscape:original-d="m 12.000005,2 c 0.51953,0 0.9375,0.41797 0.9375,0.9375 v 1.80078 l 0.89843,-0.89844 c 0.36719,-0.36718 0.96094,-0.36718 1.32422,0 0.36328,0.36719 0.36719,0.96094 0,1.32422 l -2.22656,2.22657 v 2.98828 l 2.58594,-1.49219 0.8164,-3.03906 c 0.13282,-0.5 0.64844,-0.79688 1.14844,-0.66407 0.5,0.13282 0.79688,0.64844 0.66406,1.14844 l -0.32812,1.22266 1.44922,-0.83594 c 0.44922,-0.25781 1.02343,-0.10547 1.28125,0.34375 0.25781,0.44922 0.10547,1.02344 -0.34375,1.28125 l -1.44922,0.83594 1.23047,0.32812 c 0.5,0.13282 0.79687,0.64844 0.66406,1.14844 -0.13281,0.5 -0.64844,0.79688 -1.14844,0.66406 l -3.03906,-0.8164 -2.58984,1.49609 2.58593,1.49219 3.03907,-0.81641 c 0.5,-0.13281 1.01562,0.16406 1.14843,0.66406 0.13282,0.5 -0.16406,1.01563 -0.66406,1.14844 l -1.22656,0.33203 1.44922,0.83594 c 0.44922,0.25781 0.60156,0.83203 0.34375,1.28125 -0.25782,0.44922 -0.83203,0.60156 -1.28125,0.34375 l -1.44922,-0.83594 0.32812,1.23047 c 0.13282,0.5 -0.16406,1.01563 -0.66406,1.14844 -0.5,0.13281 -1.01562,-0.16406 -1.14844,-0.66406 l -0.8164,-3.03907 -2.58203,-1.49609 v 2.98828 l 2.22656,2.22656 c 0.36719,0.36719 0.36719,0.96094 0,1.32422 -0.36719,0.36328 -0.96094,0.36719 -1.32422,0 l -0.89844,-0.89843 v 1.79687 c 0,0.51953 -0.41797,0.9375 -0.9375,0.9375 -0.51953,0 -0.9375,-0.41797 -0.9375,-0.9375 v -1.80078 l -0.89844,0.89844 c -0.36718,0.36718 -0.96093,0.36718 -1.32421,0 -0.36329,-0.36719 -0.36719,-0.96094 0,-1.32422 l 2.22656,-2.22656 V 13.625 l -2.58594,1.49219 -0.81641,3.03906 c -0.13281,0.5 -0.64843,0.79688 -1.14843,0.66406 -0.5,-0.13281 -0.79688,-0.64843 -0.66407,-1.14843 l 0.32422,-1.22657 -1.44922,0.83594 c -0.44921,0.25781 -1.02343,0.10547 -1.28125,-0.34375 -0.25781,-0.44922 -0.10546,-1.02344 0.34375,-1.28125 l 1.44922,-0.83594 -1.23047,-0.32812 c -0.5,-0.13281 -0.79687,-0.64844 -0.66406,-1.14844 0.13281,-0.5 0.64844,-0.79687 1.14844,-0.66406 l 3.03906,0.8164 2.58985,-1.49609 -2.58594,-1.49219 -3.04297,0.8125 c -0.5,0.13282 -1.01563,-0.16406 -1.14844,-0.66406 -0.13281,-0.5 0.16406,-1.01562 0.66406,-1.14844 L 5.242185,9.17969 3.792965,8.34375 C 3.343755,8.08594 3.191405,7.51172 3.449215,7.0625 3.707035,6.61328 4.281255,6.46094 4.730465,6.71875 l 1.44922,0.83594 -0.32812,-1.23047 c -0.13281,-0.5 0.16406,-1.01563 0.66406,-1.14844 0.5,-0.13281 1.01563,0.16406 1.14844,0.66406 l 0.8164,3.03907 2.58204,1.49609 V 7.38672 L 8.835935,5.16406 c -0.36718,-0.36718 -0.36718,-0.96093 0,-1.32422 0.36719,-0.36328 0.96094,-0.36718 1.32422,0 l 0.89844,0.89844 V 2.9375 c 0,-0.51953 0.41797,-0.9375 0.9375,-0.9375 z" /></svg>
