<?xml version="1.0" encoding="UTF-8" standalone="no"?>
<svg
   viewBox="0 0 24 24"
   version="1.1"
   id="svg1"
   sodipodi:docname="imm.svg"
   inkscape:version="1.3.2 (091e20e, 2023-11-25, custom)"
   xmlns:inkscape="http://www.inkscape.org/namespaces/inkscape"
   xmlns:sodipodi="http://sodipodi.sourceforge.net/DTD/sodipodi-0.dtd"
   xmlns="http://www.w3.org/2000/svg"
   xmlns:svg="http://www.w3.org/2000/svg">
  <defs
     id="defs1" />
  <sodipodi:namedview
     id="namedview1"
     pagecolor="#ffffff"
     bordercolor="#111111"
     borderopacity="1"
     inkscape:showpageshadow="0"
     inkscape:pageopacity="0"
     inkscape:pagecheckerboard="1"
     inkscape:deskcolor="#d1d1d1"
     inkscape:zoom="5.40625"
     inkscape:cx="-0.92485549"
     inkscape:cy="17.849711"
     inkscape:window-width="1366"
     inkscape:window-height="697"
     inkscape:window-x="-8"
     inkscape:window-y="-8"
     inkscape:window-maximized="1"
     inkscape:current-layer="svg1" />
  <path
     d="M21 11c0 5.55-3.84 10.74-9 12-5.16-1.26-9-6.45-9-12V5l9-4 9 4zm-9 10c3.75-1 7-5.46 7-9.78V6.3l-7-3.12L5 6.3v4.92C5 15.54 8.25 20 12 21"
     id="path1" />
  <path
     d="m 17.727272,11.363637 c 0,3.531817 -2.443635,6.834544 -5.727271,7.636363 C 8.7163646,18.198181 6.2727275,14.895455 6.2727275,11.363637 V 7.5454543 l 5.7272735,-2.5454545 5.727271,2.5454545 z m -5.727271,6.363634 c 2.386364,-0.636361 4.454545,-3.474543 4.454545,-6.223634 V 8.3727271 L 12.000001,6.3872726 Z"
     id="path1-6-4"
     style="stroke-width:0.999997" />
</svg>
