<?xml version="1.0" encoding="UTF-8" standalone="no"?>
<svg
   viewBox="0 0 24 24"
   version="1.1"
   id="svg1"
   sodipodi:docname="vul.svg"
   inkscape:version="1.3.2 (091e20e, 2023-11-25, custom)"
   xmlns:inkscape="http://www.inkscape.org/namespaces/inkscape"
   xmlns:sodipodi="http://sodipodi.sourceforge.net/DTD/sodipodi-0.dtd"
   xmlns="http://www.w3.org/2000/svg"
   xmlns:svg="http://www.w3.org/2000/svg">
  <defs
     id="defs1" />
  <sodipodi:namedview
     id="namedview1"
     pagecolor="#ffffff"
     bordercolor="#111111"
     borderopacity="1"
     inkscape:showpageshadow="0"
     inkscape:pageopacity="0"
     inkscape:pagecheckerboard="1"
     inkscape:deskcolor="#d1d1d1"
     inkscape:zoom="2.703125"
     inkscape:cx="-12.023121"
     inkscape:cy="49.757225"
     inkscape:window-width="1366"
     inkscape:window-height="697"
     inkscape:window-x="-8"
     inkscape:window-y="-8"
     inkscape:window-maximized="1"
     inkscape:current-layer="svg1" />
  <path
     id="path1-6-4"
     style="stroke-width:0.999996"
     d="M 12,2.0000003 6.4034092,4.4875711 12,10.084162 V 3.9815344 l 6.363637,2.8373576 v 4.472657 c 0,1.410049 -0.38313,2.835699 -1.029829,4.126421 l 1.333452,1.33345 c 0.960969,-1.698797 1.51456,-3.653572 1.51456,-5.66051 V 5.6363637 Z M 2.9588069,3.6139916 1.6732955,4.8995031 3.8181819,7.0443895 V 11.09091 c 0,5.045442 3.49092,9.763637 8.1818181,10.90909 1.644579,-0.401584 3.140112,-1.242816 4.390981,-2.382812 l 2.254971,2.254971 1.285512,-1.285511 -2.299361,-2.29936 -1.27841,-1.27841 L 12,12.655184 4.6225143,5.2776992 3.1629972,3.818182 Z M 12,15.226208 15.139206,18.365412 C 14.202038,19.234907 13.126731,19.881357 12,20.181818 Z" />
</svg>
