<?xml version="1.0" encoding="UTF-8"?>
<svg id="svg1" width="24" height="24" version="1.1" viewBox="0 0 26.182 26.182" xmlns="http://www.w3.org/2000/svg">
 <path id="path1" d="m23.969 2.183c-0.0055 2.585e-4 -0.05566 0.015902-0.06392 0.017045-0.1156 0.02151-0.33729 0.07507-0.63707 0.15554-0.08394 0.022721-0.13746 0.035465-0.23224 0.06179-1.5396 0.42269-4.3909 1.2844-4.4872 1.3807-0.0342 0.034193 0.50326 0.36616 1.1953 0.73722l0.46236 0.24503 0.08949 0.098011-2.3544 2.3459-0.01278-0.012784-9.0661 9.0341-0.57315-0.01278-1.6236-0.03196-4.483 4.4957 2.6868 0.61577 0.61577 2.6868 4.4957-4.483-0.03196-1.6236-0.012784-0.57315 9.0341-9.0661-0.01278-0.012784 2.3459-2.3544 0.09801 0.089489 0.24503 0.46236c0.37106 0.69205 0.70303 1.2295 0.73722 1.1953 0.09633-0.096298 0.95799-2.9476 1.3807-4.4872 0.02633-0.094779 0.03907-0.1483 0.06179-0.23224 0.08047-0.29978 0.13403-0.52148 0.15554-0.63707 0.0012-0.00826 0.01679-0.05842 0.01705-0.063921 5e-4 -0.00898-3.1e-5 -0.011944-0.0021-0.012784 2.88e-4 -0.00606-0.0013-0.00807-0.0021-0.010653-1.58e-4 -5.028e-4 1.74e-4 -0.0017 0-0.00213-4.32e-4 -1.749e-4 -0.0016 1.594e-4 -0.0021 0-0.0026-8.193e-4 -0.0046-0.00242-0.01065-0.00213-8.4e-4 -0.00214-0.0038-0.00256-0.01278-0.00213z" fill-opacity=".90361" stroke-width=".29999"/>
</svg>
