<?xml version="1.0" encoding="UTF-8"?>
<svg id="svg1" width="24" height="24" version="1.1" viewBox="0 0 24 24" xmlns="http://www.w3.org/2000/svg">
 <path id="path1" d="m2.0137 2.0001c-0.00878-3.078e-4 -0.013667 0.00322-0.013667 0.010889 0 0.13927 0.69856 1.0802 1.1559 1.557 0.13152 0.13713 0.26864 0.2663 0.40976 0.39024l1.4121 12.282 0.29454-0.2961 0.2629-0.10626-1.307-11.371c1.0317 0.69094 2.2976 1.1083 3.8894 1.2887 1.2107 0.1372 2.042 0.40404 2.8598 0.91836 0.21002 0.13208 0.44526 0.3251 0.66718 0.53438 0.05239-0.074789 0.11247-0.14645 0.18047-0.21446l0.62618-0.62618c0.09694-0.096933 0.20528-0.17651 0.31954-0.24258-0.6784-0.63239-1.2781-1.0687-1.9449-1.3992-0.75462-0.37404-1.1919-0.47328-2.339-0.53124-1.0179-0.051433-1.8502-0.1554-2.546-0.31836-1.4504-0.3396-2.7244-0.94236-3.7684-1.7832-0.071-0.057189-0.13237-0.092433-0.15859-0.093356zm16.911 3.0714c-0.14407 0.00689-2.2426 0.62908-2.2964 0.6832-0.01446 0.0145 0.21296 0.15515 0.50546 0.3125l0.19453 0.1043-1.3332 1.3332 0.56562 0.56562 1.3129-1.3129 0.06992 0.13633c0.1529 0.29742 0.28576 0.53312 0.29492 0.52344 0.03572-0.037711 0.70792-2.3096 0.69376-2.3446-4.4e-4 -0.0011-0.0028-0.00144-0.0074-0.00122zm-5.3266 1.6309c-0.21966 7.6e-4 -0.42698 0.076611-0.58164 0.23124l-0.62618 0.62618c-0.35348 0.35348-0.29526 0.98092 0.13047 1.4066l2.4746 2.4742c0.42572 0.42572 1.0528 0.48396 1.4062 0.13047l0.62618-0.62618c0.35348-0.35348 0.29526-0.98054-0.13047-1.4062l-2.4742-2.4746c-0.23948-0.23948-0.54258-0.3627-0.825-0.36172zm-0.63672 3.836-5.9934 5.9934-0.29454-0.0062-0.83398-0.01719-2.3016 2.3156 1.3844 0.31914 0.31914 1.3844 2.3156-2.3016-0.017189-0.83398-0.00622-0.29454 5.9934-5.9934-0.56562-0.56562zm4.8786 0.6539c-0.06619 0.11254-0.1476 0.21948-0.24648 0.31836l-0.62618 0.62618c-0.06741 0.06741-0.1384 0.12684-0.2125 0.1789 0.22342 0.23344 0.43094 0.48478 0.5707 0.70704 0.51432 0.81784 0.78116 1.6491 0.91836 2.8598 0.1804 1.5919 0.59772 2.8578 1.2887 3.8894l-11.283-1.2969-0.12852 0.31836-0.24414 0.24258 12.164 1.3984c0.12392 0.14113 0.2531 0.27824 0.39024 0.40976 0.4768 0.4573 1.4178 1.1559 1.557 1.1559 0.03098 0-0.0062-0.07759-0.08242-0.17226-0.84084-1.0441-1.4436-2.318-1.7832-3.7684-0.16296-0.69598-0.26692-1.5283-0.31836-2.546-0.05797-1.1473-0.15722-1.5845-0.53124-2.339-0.33656-0.67902-0.78188-1.2881-1.4336-1.982z"/>
</svg>
