<?xml version="1.0" encoding="UTF-8"?>
<svg id="svg1" width="20" height="20" version="1.1" viewBox="0 0 20 20" xml:space="preserve" xmlns="http://www.w3.org/2000/svg"><path id="path1" d="m17.965 2.035c-0.89467-0.89469-1.9561-1.2836-2.3708-0.86888 0 0-0.03997 0.043688-0.12107 0.13274-0.07798 0.085637-0.82496-0.40457-1.0731-0.15851-0.25346 0.25346 0.27803 1.0291 0.19838 1.1164-0.07965 0.087239-0.55775 0.61052-0.63743 0.69773-0.07968 0.08721-0.75098-0.36572-0.97657-0.14222-0.23042 0.23042 0.25979 0.92727 0.18014 1.0145-0.07965 0.087235-0.30364 0.33282-0.30364 0.33282s-0.33296 0.36544-0.41402 0.45389c-0.07855 0.085727-0.67527-0.331-0.87834-0.12958-0.20738 0.20738 0.24744 0.83104 0.16507 0.9158-0.08226 0.084627-0.69456 0.75535-0.69456 0.75535s-0.7248 0.79392-0.81781 0.89271c-0.094741 0.10062-0.37546-0.060808-0.4658 0.028201-0.092167 0.092169 0.095942 0.38617 0.022124 0.46701-0.089824 0.098375-0.61855 0.67287-1.4715 1.6053-0.85298 0.9324-2.4889 2.6087-3.6439 3.9911-0.92286 1.1045-2.6204 3.4321-2.6204 3.4321a0.47203 0.47203 0 0 0-0.65493 0.0097 0.47203 0.47203 0 0 0-2.43e-4 0.66735l0.01094 0.01094-0.12107 0.12934c-0.18434 0.18434-0.27617 0.42599-0.27617 0.66758 0 0.2416 0.091836 0.48324 0.27617 0.66758 0.18434 0.18434 0.42597 0.27617 0.66758 0.27617 0.2416 0 0.48325-0.09184 0.66758-0.27617l0.12933-0.12107 0.01094 0.01094a0.47203 0.47203 0 0 0 0.66733-2.52e-4 0.47203 0.47203 0 0 0 0.010696-0.65592s2.3269-1.697 3.431-2.6195c1.3824-1.1551 3.0598-2.79 3.9911-3.6439 0.93136-0.85406 1.508-1.3896 1.6016-1.4752 0.09936-0.09088 0.37849 0.11794 0.47066 0.02577 0.08978-0.09006-0.07572-0.37298 0.02309-0.47091 0.08882-0.087995 0.8978-0.81272 0.8978-0.81272s0.66209-0.62093 0.74927-0.70065c0.08717-0.079716 0.71472 0.37829 0.9221 0.17091 0.2021-0.20291-0.22476-0.80861-0.1376-0.88833 0.08717-0.079716 0.45292-0.41305 0.45292-0.41305s0.24493-0.22417 0.33208-0.30389c0.08717-0.079716 0.79355 0.42005 1.024 0.18963 0.22466-0.2252-0.2396-0.90741-0.15413-0.98557 0.07847-0.071771 0.61176-0.55942 0.69894-0.63914 0.08717-0.079715 0.87359 0.46255 1.127 0.20907 0.24719-0.24775-0.25517-1.0063-0.16799-1.086 0.08717-0.079715 0.14246-0.10794 0.14246-0.10794 0.41476-0.41476 0.02556-1.4764-0.86911-2.3711z"/></svg>
