<?xml version="1.0" encoding="UTF-8" standalone="no"?>
<svg
   width="20"
   height="20"
   version="1.1"
   viewBox="0 0 20 20"
   xml:space="preserve"
   id="svg1"
   sodipodi:docname="club.svg"
   inkscape:version="1.3.2 (091e20e, 2023-11-25, custom)"
   xmlns:inkscape="http://www.inkscape.org/namespaces/inkscape"
   xmlns:sodipodi="http://sodipodi.sourceforge.net/DTD/sodipodi-0.dtd"
   xmlns="http://www.w3.org/2000/svg"
   xmlns:svg="http://www.w3.org/2000/svg"><defs
     id="defs1" /><sodipodi:namedview
     id="namedview1"
     pagecolor="#ffffff"
     bordercolor="#111111"
     borderopacity="1"
     inkscape:showpageshadow="0"
     inkscape:pageopacity="0"
     inkscape:pagecheckerboard="1"
     inkscape:deskcolor="#d1d1d1"
     inkscape:zoom="4.35"
     inkscape:cx="50"
     inkscape:cy="50"
     inkscape:window-width="1366"
     inkscape:window-height="697"
     inkscape:window-x="-8"
     inkscape:window-y="-8"
     inkscape:window-maximized="1"
     inkscape:current-layer="svg1" /><path
     d="m 17.964758,2.0349504 c -0.89467,-0.8946886 -1.956057,-1.2836319 -2.370776,-0.8688766 0,0 -0.03997,0.043688 -0.121068,0.132739 -0.07798,0.085637 -0.824956,-0.40456734 -1.073086,-0.1585078 -0.253457,0.2534576 0.278028,1.0291303 0.198378,1.1163582 -0.07965,0.087239 -0.557747,0.610523 -0.637433,0.6977328 -0.07968,0.08721 -0.750977,-0.3657234 -0.97657,-0.1422195 -0.230418,0.2304176 0.259793,0.9272684 0.180143,1.0144963 -0.07965,0.087235 -0.303641,0.3328194 -0.303641,0.3328194 0,0 -0.332964,0.3654354 -0.414018,0.4538873 -0.07855,0.085727 -0.675268,-0.3310015 -0.878344,-0.1295782 -0.207378,0.2073776 0.247445,0.8310406 0.16507,0.9158025 -0.08226,0.084627 -0.694564,0.7553507 -0.694564,0.7553507 0,0 -0.724805,0.7939247 -0.817811,0.8927085 C 10.126297,7.1482828 9.8455768,6.986855 9.755235,7.075864 9.663068,7.168033 9.851177,7.4620353 9.777359,7.5428732 9.6875353,7.641248 9.1588078,8.2157477 8.3058252,9.1481281 7.4528426,10.080527 5.8169694,11.756864 4.6619113,13.139261 3.7390528,14.24374 2.0414757,16.571316 2.0414757,16.571316 a 0.47203121,0.47203121 0 0 0 -0.6549289,0.0097 0.47203121,0.47203121 0 0 0 -2.43e-4,0.667349 l 0.01094,0.01094 -0.1210678,0.129336 c -0.1843377,0.184337 -0.2761736,0.425987 -0.2761736,0.667583 0,0.241595 0.091836,0.483245 0.2761736,0.667582 0.1843376,0.184338 0.4259692,0.276174 0.6675828,0.276174 0.2415956,0 0.4832453,-0.09184 0.6675829,-0.276174 l 0.1293334,-0.121069 0.01094,0.01094 a 0.47203121,0.47203121 0 0 0 0.6673309,-2.52e-4 0.47203121,0.47203121 0 0 0 0.010696,-0.655919 c 0,0 2.3268561,-1.696965 3.4309743,-2.619535 1.3824157,-1.155058 3.0598149,-2.789996 3.9911327,-3.643914 0.931355,-0.854063 1.508002,-1.389616 1.601601,-1.475206 0.09936,-0.09088 0.378486,0.11794 0.470664,0.02577 0.08978,-0.09006 -0.07572,-0.3729771 0.02309,-0.4709149 0.08882,-0.087995 0.897803,-0.8127167 0.897803,-0.8127167 0,0 0.662093,-0.6209269 0.749267,-0.7006488 0.08717,-0.079716 0.714725,0.3782874 0.922102,0.1709079 0.202104,-0.2029137 -0.224765,-0.8086126 -0.137599,-0.8883345 0.08717,-0.079716 0.452915,-0.4130453 0.452915,-0.4130453 0,0 0.244926,-0.2241716 0.332082,-0.3038935 0.08717,-0.079716 0.793547,0.4200473 1.023982,0.1896297 0.224658,-0.2251977 -0.239597,-0.9074145 -0.15413,-0.9855704 0.07847,-0.071771 0.611765,-0.5594211 0.698939,-0.6391429 0.08717,-0.079715 0.873592,0.4625452 1.12705,0.2090696 0.247193,-0.2477516 -0.255168,-1.0062703 -0.167987,-1.0859742 0.08717,-0.079715 0.142461,-0.1079422 0.142461,-0.1079422 0.414755,-0.4147553 0.02556,-1.4763935 -0.86911,-2.371136 z"
     id="path1"
     style="stroke-width:0.999999" /></svg>
