<?xml version="1.0" encoding="UTF-8"?>
<svg id="svg1" width="24" height="24" version="1.1" viewBox="0 0 26.182 26.182" xmlns="http://www.w3.org/2000/svg">
 <path id="path1" d="m2.1967 2.1818c-0.00954-3.354e-4 -0.014915 0.00348-0.014915 0.011932 0 0.15194 0.76208 1.1784 1.2609 1.6986 0.14348 0.14959 0.29307 0.29051 0.44702 0.42571l1.4399 12.523 0.59063-0.59063-1.3078-11.378c1.1254 0.75376 2.5066 1.2091 4.243 1.4058 1.3207 0.14967 2.2276 0.44079 3.1198 1.0019 0.33287 0.20933 0.72573 0.55556 1.044 0.89916l0.94858 0.94858 1.2162-1.2162-0.9162-0.9162-0.03921-0.038346c-0.87024-0.85386-1.5939-1.3933-2.4187-1.8021-0.82322-0.40805-1.3002-0.51631-2.5517-0.57953-1.1104-0.056111-2.0184-0.16952-2.7775-0.34725-1.5823-0.37047-2.9721-1.0281-4.111-1.9454-0.077462-0.062383-0.1444-0.10084-0.17301-0.10185zm18.449 3.3508c-0.15717 0.00749-2.4465 0.68625-2.5053 0.74535-0.01577 0.015817 0.23234 0.16925 0.55143 0.34092l0.21222 0.11378-0.72315 0.72315 0.61706 0.61705 0.701-0.701 0.07628 0.14872c0.1668 0.32446 0.31175 0.58159 0.32173 0.57102 0.03897-0.041137 0.77224-2.5195 0.75683-2.5577-4.78e-4 -0.00119-3e-3 -0.00152-0.0081-0.00128zm-3.7346 2.1579c-0.16732 0-0.33458 0.063983-0.46279 0.19219l-6.5672 6.5672c-0.33487-0.19838-0.77132-0.15426-1.0598 0.13424l-5.1461 5.1461c-0.34188 0.34188-0.34188 0.89223 0 1.2341l1.5426 1.5426c0.34188 0.34188 0.89223 0.34188 1.2341 0l5.1461-5.1461c0.28849-0.28849 0.33263-0.72493 0.13424-1.0598l6.5672-6.5672c0.25641-0.25641 0.25641-0.66917 0-0.92558l-0.92558-0.92558c-0.1282-0.12821-0.29548-0.1922-0.46279-0.19219zm1.359 3.3073-1.2171 1.2171 0.90682 0.90682c0.35736 0.32431 0.72338 0.73835 0.94135 1.085 0.56108 0.8922 0.85218 1.799 1.0019 3.1198 0.19681 1.7367 0.65201 3.1176 1.4058 4.243l-11.378-1.3078-0.59063 0.59063 12.523 1.4399c0.13519 0.15396 0.27611 0.30355 0.42571 0.44702 0.52014 0.49887 1.5467 1.2609 1.6986 1.2609 0.03379 0-0.0067-0.08464-0.08992-0.18793-0.91728-1.139-1.5748-2.5287-1.9454-4.111-0.17778-0.75925-0.29119-1.6673-0.34725-2.7775-0.06324-1.2516-0.17151-1.7286-0.57953-2.5517-0.40884-0.82484-0.94826-1.5485-1.8021-2.4187l-0.07884-0.08054-0.87529-0.87485z"/>
</svg>
