<?xml version="1.0" encoding="UTF-8" standalone="no"?>
<svg
   width="24"
   height="24"
   version="1.1"
   viewBox="0 0 26.181818 26.181818"
   xml:space="preserve"
   id="svg1"
   sodipodi:docname="dagger.svg"
   inkscape:version="1.3.2 (091e20e, 2023-11-25, custom)"
   xmlns:inkscape="http://www.inkscape.org/namespaces/inkscape"
   xmlns:sodipodi="http://sodipodi.sourceforge.net/DTD/sodipodi-0.dtd"
   xmlns="http://www.w3.org/2000/svg"
   xmlns:svg="http://www.w3.org/2000/svg"><defs
     id="defs1" /><sodipodi:namedview
     id="namedview1"
     pagecolor="#ffffff"
     bordercolor="#111111"
     borderopacity="1"
     inkscape:showpageshadow="0"
     inkscape:pageopacity="0"
     inkscape:pagecheckerboard="1"
     inkscape:deskcolor="#d1d1d1"
     inkscape:zoom="6.9907148"
     inkscape:cx="9.3695712"
     inkscape:cy="-2.2172268"
     inkscape:window-width="1366"
     inkscape:window-height="697"
     inkscape:window-x="-8"
     inkscape:window-y="-8"
     inkscape:window-maximized="1"
     inkscape:current-layer="svg1" /><path
     d="m 25.090768,1.0909087 c 0,0 -3.476725,2.059635 -5.073636,3.289523 -2.446967,1.884614 -4.538732,4.19073 -6.859249,6.2292443 -1.021807,0.897607 -2.023304,1.823773 -3.109521,2.642089 -0.6761747,0.509344 -2.1148347,1.40674 -2.1148347,1.40674 l -0.03814,1.772022 -2.288506,-2.288506 a 1.2996392,1.2996392 0 0 0 -1.837963,0 1.2996392,1.2996392 0 0 0 0,1.837963 l 2.297476,2.297476 -4.5948321,4.594833 a 1.2996392,1.2996392 0 0 0 0,1.837963 1.2996392,1.2996392 0 0 0 1.8379631,0 l 4.594832,-4.594833 2.2974767,2.297477 a 1.2996392,1.2996392 0 0 0 1.837963,0 1.2996392,1.2996392 0 0 0 0,-1.837963 L 9.7248303,18.25997 11.523763,18.24785 c 0,0 0.896976,-1.43827 1.40629,-2.114385 0.818346,-1.086367 1.744452,-2.087804 2.642089,-3.109522 2.038364,-2.320456 4.34463,-4.4121313 6.229244,-6.8592483 1.229918,-1.596941 3.289523,-5.073636 3.289523,-5.073636 z"
     id="path1"
     style="stroke-width:1" /></svg>
