<?xml version="1.0" encoding="UTF-8"?>
<svg id="svg1" width="24" height="24" version="1.1" viewBox="0 0 26.182 26.182" xml:space="preserve" xmlns="http://www.w3.org/2000/svg"><path id="path1" d="m25.091 1.0909s-3.4767 2.0596-5.0736 3.2895c-2.447 1.8846-4.5387 4.1907-6.8592 6.2292-1.0218 0.89761-2.0233 1.8238-3.1095 2.6421-0.67617 0.50934-2.1148 1.4067-2.1148 1.4067l-0.03814 1.772-2.2885-2.2885a1.2996 1.2996 0 0 0-1.838 0 1.2996 1.2996 0 0 0 0 1.838l2.2975 2.2975-4.5948 4.5948a1.2996 1.2996 0 0 0 0 1.838 1.2996 1.2996 0 0 0 1.838 0l4.5948-4.5948 2.2975 2.2975a1.2996 1.2996 0 0 0 1.838 0 1.2996 1.2996 0 0 0 0-1.838l-2.315-2.315 1.7989-0.01212s0.89698-1.4383 1.4063-2.1144c0.81835-1.0864 1.7445-2.0878 2.6421-3.1095 2.0384-2.3205 4.3446-4.4121 6.2292-6.8592 1.2299-1.5969 3.2895-5.0736 3.2895-5.0736z"/></svg>
