<?xml version="1.0" encoding="UTF-8" standalone="no"?>
<svg
   width="24"
   height="24"
   version="1.1"
   viewBox="0 0 24 24"
   xml:space="preserve"
   id="svg1"
   sodipodi:docname="morningstar.svg"
   inkscape:version="1.3.2 (091e20e, 2023-11-25, custom)"
   xmlns:inkscape="http://www.inkscape.org/namespaces/inkscape"
   xmlns:sodipodi="http://sodipodi.sourceforge.net/DTD/sodipodi-0.dtd"
   xmlns="http://www.w3.org/2000/svg"
   xmlns:svg="http://www.w3.org/2000/svg"><defs
     id="defs1" /><sodipodi:namedview
     id="namedview1"
     pagecolor="#ffffff"
     bordercolor="#111111"
     borderopacity="1"
     inkscape:showpageshadow="0"
     inkscape:pageopacity="0"
     inkscape:pagecheckerboard="1"
     inkscape:deskcolor="#d1d1d1"
     inkscape:zoom="6.151829"
     inkscape:cx="9.0217072"
     inkscape:cy="19.425117"
     inkscape:window-width="1366"
     inkscape:window-height="697"
     inkscape:window-x="-8"
     inkscape:window-y="-8"
     inkscape:window-maximized="1"
     inkscape:current-layer="svg1" /><path
     d="m 17.788915,2.0010834 c -0.0156,0.0055 -0.03107,0.031768 -0.05071,0.0796 -0.0272,0.066214 -0.181547,0.200281 -0.343262,0.2981615 -0.306521,0.1854949 -0.421562,0.2959214 -0.691283,0.6659432 -0.270002,0.3704219 -0.354702,0.4109421 -0.667104,0.3182416 -0.420522,-0.1247586 -0.739303,-0.1187086 -0.715283,0.013401 0.0215,0.1182085 -0.06683,0.2560412 -0.422902,0.6585631 -0.232681,0.2630413 -0.248482,0.2699814 -0.459883,0.2052411 -0.321141,-0.098343 -0.389342,-0.065714 -0.636143,0.3020015 L 13.578864,4.8757379 13.339623,4.7579653 c -0.314502,-0.1544327 -0.398962,-0.04561 -0.220061,0.2826814 0.123505,0.2266411 0.122271,0.2481213 -0.0219,0.4130621 -0.08364,0.095688 -0.146131,0.207041 -0.202381,0.3431417 -0.05625,0.1360866 -0.08574,0.2336611 -0.07426,0.2967414 0.03335,0.1833569 -0.208746,0.4371622 -0.517947,0.5429427 -0.157029,0.053722 -0.363361,0.1582888 -0.458942,0.2319612 -0.09558,0.073662 -0.265201,0.1504167 -0.463102,0.3075415 -0.197897,0.1571168 -0.336822,0.4357021 -0.477463,0.6848034 -0.140646,0.2491012 -0.260441,0.5257426 -0.266341,0.614783 -0.0069,0.1042185 -0.07388,0.1866749 -0.187513,0.2316612 -0.09708,0.038428 -0.312741,0.2579812 -0.312741,0.2579812 L 7.4275582,11.885281 6.0722115,13.345528 4.7172648,14.805755 4.2515025,14.373793 c 0,0 -0.00613,0.137497 0.013632,0.298862 0.019764,0.161372 0.1659328,0.442022 0.1659328,0.442022 l -0.422042,0.454182 -0.8432642,0.909125 -0.4224221,0.454982 c -0.08606,-0.07964 -0.200241,-0.121857 -0.3174616,-0.117437 -0.028894,0.0011 -0.057692,0.0047 -0.085828,0.01138 -0.085196,0.02025 -0.1622508,0.06534 -0.2218211,0.129479 -0.1663188,0.179125 -0.1559408,0.459362 0.02344,0.625423 l 0.9211646,0.852704 c 0.1792109,0.165883 0.4589023,0.155103 0.6251031,-0.02382 0.1659508,-0.178869 0.1557028,-0.458102 -0.023,-0.624223 L 4.0904378,17.32819 4.5109199,16.874868 5.351864,15.967423 c 0,0 0.2738614,0.108755 0.4280822,0.107187 0.1542187,-0.0016 0.2845614,-0.0247 0.2845614,-0.0247 L 5.6384854,15.658861 8.3478988,12.738047 9.7028655,11.27822 11.057812,9.8179924 c 0,0 0.294702,-0.3119816 0.289922,-0.3398017 -0.0048,-0.027828 0.06433,-0.063772 0.153688,-0.080004 0.258882,-0.047018 0.812104,-0.4338422 1.103745,-0.7661438 0.291662,-0.3323216 0.321442,-0.610023 0.509823,-1.0727053 0.187673,-0.4609423 0.310001,-0.597523 0.579403,-0.6464632 0.09381,-0.017038 0.289021,-0.1284106 0.433662,-0.2474412 l 0.263081,-0.2167411 0.241341,0.098141 c 0.321382,0.1299626 0.449243,0.00337 0.300602,-0.2970615 -0.05544,-0.1120465 -0.101295,-0.206661 -0.101955,-0.210381 -6.8e-4,-0.00371 0.133839,-0.1382707 0.298942,-0.2986015 0.282481,-0.2743214 0.295641,-0.3053015 0.225501,-0.5271426 -0.06308,-0.199471 -0.04722,-0.2746014 0.104688,-0.4886024 0.177849,-0.2505613 0.471123,-0.3794219 0.582243,-0.2562213 0.09145,0.1013925 0.249522,0.031196 0.225641,-0.1000765 -0.01243,-0.06834 0.02799,-0.1900449 0.08995,-0.2705613 0.06196,-0.080512 0.10238,-0.202221 0.08995,-0.2705613 -0.02418,-0.1329127 0.177851,-0.194731 0.527683,-0.1613128 0.119583,0.011423 0.240421,-0.037202 0.371222,-0.1494627 0.201061,-0.1725889 0.336141,-0.1759689 0.366542,-0.00881 0.02332,0.1281907 0.199873,0.093055 0.225961,-0.045008 0.01123,-0.059438 0.06974,-0.1169146 0.13006,-0.1278726 0.06033,-0.010957 0.181789,-0.094386 0.270182,-0.185051 0.157103,-0.1611527 0.453642,-0.211141 0.477422,-0.08053 0.0061,0.033516 0.09053,0.081046 0.187715,0.1056006 0.103973,0.026268 0.169331,0.085436 0.158309,0.1437467 -0.01174,0.062106 0.02798,0.090876 0.106474,0.076906 0.0689,-0.012262 0.227281,0.021332 0.351902,0.074724 0.124617,0.053392 0.289382,0.085984 0.366582,0.072214 0.176387,-0.031462 0.314781,0.1538007 0.441002,0.5916828 0.104187,0.3614218 0.03034,0.5757829 -0.213861,0.6201231 -0.06196,0.011252 -0.109529,0.036908 -0.105771,0.057576 0.01046,0.057466 0.715644,0.5269826 0.775284,0.5161425 0.06102,-0.011082 0.08971,0.1755569 0.09235,0.598263 0.0016,0.2537013 -0.01931,0.2987015 -0.132963,0.2848214 -0.455242,-0.055556 -0.440042,-0.058614 -0.365162,0.082598 0.04746,0.089515 0.03431,0.2089411 -0.04011,0.3602218 -0.06126,0.1245166 -0.08592,0.2687013 -0.05469,0.3200216 0.06603,0.1085145 -0.04977,0.193595 -0.333542,0.2451412 -0.110036,0.019988 -0.279881,0.097943 -0.377562,0.1732329 -0.159726,0.1231006 -0.203341,0.1300566 -0.431542,0.068152 -0.13957,-0.037862 -0.280821,-0.1271686 -0.313901,-0.198183 -0.05679,-0.1219186 -0.06965,-0.1160006 -0.229081,0.1041885 -0.492003,0.6794634 -0.599623,0.7426437 -0.984505,0.5799829 -0.092,-0.038872 -0.301162,-0.054394 -0.465463,-0.034438 -0.164292,0.019958 -0.340801,0.019782 -0.392022,-2.8e-4 -0.05121,-0.020066 -0.261101,-0.016336 -0.466362,0.0083 -0.295941,0.03552 -0.369522,0.065774 -0.354982,0.1457027 0.01009,0.055436 -0.02844,0.1886949 -0.08545,0.2963415 -0.05702,0.1076485 -0.09389,0.2490612 -0.08204,0.3141815 0.02913,0.1601408 -0.128502,0.2498813 -0.546442,0.3100416 -0.250161,0.036016 -0.383542,0.090916 -0.467083,0.1935209 -0.143202,0.1758769 -0.735623,0.4557823 -0.915804,0.4327022 -0.138671,-0.017758 -0.159093,0.1612388 -0.02446,0.213981 0.03853,0.015094 0.07211,0.1316867 0.07452,0.259221 0.0024,0.127541 0.04701,0.285962 0.09931,0.351762 0.07754,0.09754 0.0687,0.155301 -0.04812,0.313802 -0.07879,0.1069 -0.248841,0.346801 -0.377781,0.532862 -0.128945,0.186049 -0.294642,0.348742 -0.368182,0.362102 -0.07353,0.01335 -0.201541,0.115499 -0.284702,0.226261 -0.08317,0.110769 -0.210501,0.211881 -0.282761,0.225001 -0.154873,0.02813 -0.153513,0.153801 0.002,0.183131 0.05949,0.01122 0.120611,0.08526 0.135881,0.164487 0.01527,0.07923 0.09696,0.206561 0.181537,0.283021 0.184764,0.167051 0.186098,0.367242 0.0041,0.620503 -0.07363,0.102461 -0.135433,0.280562 -0.137465,0.395942 -0.0023,0.133065 -0.07587,0.278262 -0.200921,0.396562 -0.108419,0.102585 -0.221061,0.261321 -0.250741,0.352802 -0.04152,0.127997 -0.113593,0.176769 -0.312322,0.212861 -0.299181,0.05434 -0.314681,0.133669 -0.04808,0.246341 0.152001,0.06424 0.204341,0.304322 0.245781,0.533843 -0.154169,0.01198 -0.307241,0.03719 -0.457222,0.07543 l -1.066585,-0.912684 0.05716,1.408127 c -0.142563,0.112008 -0.273562,0.238171 -0.390823,0.376472 L 9.0412882,16.30436 9.9544127,17.441126 c -0.045574,0.155594 -0.077024,0.315001 -0.093942,0.476242 -1.624e-4,0.0059 -4.4e-4,0.01207 -5.8e-4,0.01798 l -1.2616663,0.736144 1.4032866,0.392442 c 0.06052,0.165692 0.137313,0.325041 0.228981,0.475742 L 9.6622137,20.847102 10.99718,20.36944 c 0.160067,0.114037 0.332422,0.210381 0.513403,0.287001 l 0.315981,1.343607 0.779723,-1.140006 c 0.199753,-0.0055 0.398282,-0.03316 0.591903,-0.08253 l 1.066966,0.912665 -0.05716,-1.408127 c 0.142583,-0.111999 0.273582,-0.238162 0.390842,-0.376462 l 1.446827,0.130288 -0.913124,-1.136765 c 0.04571,-0.155569 0.07728,-0.315022 0.09434,-0.476263 4.4e-4,-0.006 9.6e-4,-0.01198 0.0014,-0.01801 l 1.260887,-0.736123 -1.403707,-0.392822 c -0.05914,-0.167939 -0.134706,-0.329624 -0.225686,-0.482645 l 0.565342,-1.300146 -1.329466,0.475082 c -0.162183,-0.11454 -0.336462,-0.210941 -0.519803,-0.287181 0,0 -0.0043,-0.01044 -0.0048,-0.01181 l 0.06139,0.009 c 0.09054,-0.128053 0.185175,-0.279942 0.179559,-0.310802 -0.0056,-0.03087 0.111101,-0.07791 0.259402,-0.104848 0.313541,-0.05695 0.323661,-0.112501 0.05221,-0.288002 -0.121285,-0.07842 -0.210801,-0.201941 -0.232341,-0.320361 -0.01928,-0.105971 -0.0966,-0.257362 -0.171825,-0.336462 -0.09377,-0.0986 -0.134335,-0.212601 -0.128845,-0.363102 0.0044,-0.120728 -0.01108,-0.322741 -0.03405,-0.449022 -0.02297,-0.126283 -0.01697,-0.251161 0.01265,-0.277841 0.02962,-0.02666 0.04378,-0.103865 0.03155,-0.171131 -0.01445,-0.07944 0.03973,-0.147219 0.155715,-0.193427 0.09821,-0.03913 0.234341,-0.146163 0.302262,-0.237661 0.06793,-0.0915 0.168508,-0.174633 0.223481,-0.184617 0.124406,-0.0226 0.190301,-0.173537 0.09425,-0.216021 -0.03914,-0.01731 -0.120886,-0.131811 -0.181745,-0.254682 -0.0944,-0.190599 -0.09425,-0.264381 1e-6,-0.502902 0.06076,-0.153771 0.105385,-0.306302 0.09956,-0.338342 -0.02203,-0.121108 0.235041,-0.367982 0.436042,-0.419142 0.115034,-0.02928 0.334701,-0.09622 0.487822,-0.148347 0.278041,-0.09465 0.278201,-0.09472 0.194755,-0.332881 -0.07557,-0.215701 -0.06569,-0.2543817 0.105729,-0.4016224 0.104218,-0.089516 0.209561,-0.2418212 0.234081,-0.3386417 0.02451,-0.09683 0.125674,-0.2367611 0.224661,-0.3107815 0.159275,-0.1191086 0.205421,-0.1264026 0.401662,-0.06631 0.122464,0.0375 0.288801,0.036918 0.371622,-6.2e-4 0.08248,-0.037366 0.174361,-0.040526 0.204121,-0.00753 0.09999,0.1108766 0.262321,0.031802 0.195079,-0.095018 -0.07941,-0.1497688 0.02336,-0.2592813 0.318281,-0.3392017 0.127757,-0.034616 0.278682,-0.099543 0.335082,-0.1442107 0.217401,-0.1722349 0.495402,-0.1579468 0.805404,0.041326 0.601423,0.3866019 0.544203,0.3743018 0.715563,0.1546247 0.817264,-1.0476851 1.265927,-1.428847 1.515848,-1.2882263 0.06219,0.034992 0.244121,0.061304 0.404442,0.05892 0.160311,-0.00237 0.348522,0.00883 0.418402,0.024506 0.100034,0.022436 0.121467,-0.00514 0.100432,-0.1304287 -0.0147,-0.08752 0.007,-0.2264211 0.04832,-0.3082215 C 21.91339,6.875919 21.86037,6.6374778 21.663447,6.4122367 21.532764,6.262758 21.489428,6.1330953 21.449306,5.7671335 c -0.04767,-0.4347821 -0.03978,-0.4670423 0.153501,-0.6339831 0.11206,-0.096789 0.198377,-0.207461 0.191411,-0.2457612 -0.007,-0.03829 0.03094,-0.077856 0.08436,-0.08756 C 22.094402,4.7606265 22.02034,4.6068838 21.673701,4.3743266 21.47252,4.239388 21.303859,4.1081653 21.299059,4.0829052 21.294247,4.0576291 21.237187,3.9270885 21.171949,3.7923838 21.080226,3.6029949 20.997036,3.5348625 20.804607,3.4926823 20.519545,3.43021 20.507365,3.4048839 20.605068,3.0713803 20.770757,2.5058375 20.868929,2.5954579 19.815864,2.3513767 19.508342,2.2800944 19.215701,2.334923 18.99452,2.5053815 18.809757,2.6477762 18.399697,2.6887284 18.377517,2.5668378 18.370827,2.5300556 18.259834,2.415885 18.130756,2.3136165 18.001679,2.211356 17.871654,2.0900554 17.841894,2.0439152 17.820402,2.010587 17.8045,1.995563 17.788902,2.001063 Z m 0.0043,0.5454627 c 0.05413,-0.00465 0.125081,0.019003 0.206621,0.075406 0.164087,0.1135005 0.183823,0.2508212 0.05298,0.3625618 -0.127268,0.1086605 -0.150522,0.1152265 -0.248761,0.067356 -0.04203,-0.02048 -0.09448,-0.1358367 -0.116728,-0.2561613 -0.02844,-0.1537048 0.01565,-0.2414212 0.105864,-0.2491613 z m 1.541208,0.1581248 c 0.0104,-3.3e-5 0.01925,0.00226 0.02619,0.00707 0.02002,0.013851 0.02252,0.061242 0.0053,0.1051865 -0.03797,0.096706 -0.221081,0.1388587 -0.236421,0.054554 -0.0093,-0.051202 0.09418,-0.1371687 0.170026,-0.1607988 0.01264,-0.00394 0.02452,-0.00598 0.03492,-0.00601 z m 0.796544,0.084742 c 0.02877,-0.010205 0.05806,0.00675 0.103766,0.04507 0.168807,0.1415507 0.08832,0.3001615 -0.176257,0.3482017 -0.13093,0.02378 -0.243201,0.012641 -0.249941,-0.0244 -0.0067,-0.037042 0.0167,-0.072386 0.05233,-0.078858 0.03563,-0.00647 0.110799,-0.083938 0.167245,-0.1718769 0.04533,-0.070614 0.07409,-0.1079365 0.102857,-0.1181406 z m -2.947235,0.2613613 c 0.02795,-0.00473 0.05131,-2.62e-4 0.06603,0.016054 0.02998,0.033246 -0.01016,0.1016445 -0.08971,0.1516088 -0.193447,0.1215026 -0.258041,0.1342906 -0.222781,0.044498 0.03987,-0.1015525 0.162619,-0.197957 0.246481,-0.212161 z m -1.328387,0.620723 c 0.04158,-0.00475 0.09291,0.015688 0.150741,0.064184 0.133645,0.1120646 0.07584,0.3083815 -0.100284,0.3403616 -0.127921,0.023234 -0.150361,-0.0032 -0.156401,-0.1805328 -0.0047,-0.1378626 0.03664,-0.216101 0.105944,-0.2240211 z m 4.878625,0.2443612 c 0.01094,-0.00439 0.02824,-0.0034 0.04886,0.00468 0.04124,0.016158 0.08468,0.096592 0.09684,0.1782228 0.02131,0.1430907 0.01924,0.1437707 -0.06024,0.024056 -0.04534,-0.068294 -0.08917,-0.1483167 -0.09722,-0.1778108 -0.004,-0.014748 8.2e-4,-0.024752 0.01176,-0.029148 z m -5.514828,0.2971214 c 0.07655,-0.015174 0.09413,0.1076586 -0.0058,0.3247016 -0.0639,0.1387527 -0.101254,0.1599708 -0.191387,0.1092586 -0.09596,-0.05399 -0.09518,-0.089724 0.0077,-0.2485213 0.07633,-0.1178265 0.143595,-0.1763248 0.189525,-0.1854269 z m 6.10043,0.3410017 c 0.07204,-0.013088 0.140335,0.2745814 0.08427,0.3554818 -0.06905,0.099635 -0.374642,0.1145145 -0.518463,0.025288 -0.212981,-0.1321487 -0.190495,-0.193905 0.0717,-0.198875 0.137046,-0.0026 0.247281,-0.038436 0.266401,-0.087132 0.01796,-0.045744 0.0612,-0.088418 0.09609,-0.094756 z m -0.348741,2.01581 c 0.05042,6.4e-4 0.09155,0.037984 0.104882,0.1112865 0.03127,0.1719109 0.159585,0.2167411 0.263902,0.092564 0.06913,-0.082288 0.08874,-0.07089 0.113688,0.066276 0.04864,0.2673614 -0.09011,0.3504618 -0.467242,0.2805414 -0.200901,-0.037248 -0.293542,-0.2720613 -0.175145,-0.4429022 0.05024,-0.072494 0.109489,-0.1084065 0.159905,-0.1077605 z m -1.92219,1.1858659 c 0.0364,-2.2e-6 0.06792,0.00668 0.08896,0.02124 0.02766,0.019134 0.01793,0.1038365 -0.02097,0.1883229 -0.05099,0.1107145 -0.04528,0.1852389 0.02012,0.2675213 0.08137,0.1023665 0.07062,0.1136126 -0.106149,0.1038885 -0.10842,-0.00596 -0.222301,-0.019748 -0.252941,-0.030282 -0.08762,-0.030122 -0.117637,-0.3112016 -0.04449,-0.4167421 0.03514,-0.050704 0.115028,-0.092988 0.196747,-0.1158325 0.04086,-0.011422 0.08233,-0.018116 0.118724,-0.018116 z m -2.502012,0.5264026 c 0.05241,-0.00453 0.06459,0.028326 0.05793,0.1157205 -0.0061,0.080112 0.03465,0.184109 0.0907,0.2311212 0.08678,0.072768 0.07036,0.091126 -0.110637,0.1240006 -0.134645,0.024456 -0.235761,0.00148 -0.275261,-0.06343 -0.0833,-0.1369067 0.0026,-0.3336417 0.170381,-0.390702 0.02715,-0.00924 0.04941,-0.015216 0.06688,-0.016704 z m 0.786644,-0.00432 c 0.02324,-0.0052 0.05093,-0.0056 0.07703,-3e-4 0.05769,0.01173 0.0445,0.030766 -0.03344,0.048264 -0.07053,0.015832 -0.113231,0.00661 -0.0949,-0.019836 0.0092,-0.013222 0.02807,-0.022924 0.05131,-0.028134 z m -1.93101,1.0476852 c 0.01734,0.00364 0.02888,0.013382 0.03176,0.029224 0.01761,0.096819 -0.198041,0.2586213 -0.275021,0.206381 -0.05189,-0.03522 -0.04857,-0.081398 0.01005,-0.1352567 0.05118,-0.047022 0.114731,-0.080822 0.166743,-0.094828 0.02601,-0.00701 0.04913,-0.00916 0.06647,-0.00551 z m -0.852264,0.400142 0.07807,0.1321807 c 0.04298,0.07259 0.148827,0.1548107 0.235122,0.1825747 0.125636,0.04042 0.144296,0.07237 0.09425,0.161151 -0.08274,0.146767 -0.342342,0.188541 -0.498562,0.08047 -0.166049,-0.114852 -0.170895,-0.177987 -0.02856,-0.3833596 z m -1.171626,2.2860114 c 0.02293,-0.0057 0.04063,0.01436 0.06667,0.05714 0.03235,0.05317 0.13517,0.08249 0.229021,0.06545 0.205541,-0.03733 0.233881,0.04861 0.08542,0.262841 -0.132809,0.191633 -0.260341,0.223641 -0.428162,0.107548 -0.165023,-0.114148 -0.179843,-0.227841 -0.05093,-0.395361 0.04677,-0.06077 0.07506,-0.09195 0.09798,-0.09762 z m -0.457642,2.521213 c 0.02171,-0.0065 0.04552,1.45e-4 0.07169,0.01825 0.04567,0.03159 0.171641,0.04147 0.280202,0.02175 0.193501,-0.03515 0.197191,-0.03036 0.203141,0.249941 0.0047,0.223581 -0.02689,0.427002 -0.07488,0.519083 -0.07105,-0.100679 -0.160823,-0.190209 -0.264861,-0.211462 -0.132045,-0.02698 -0.294601,0.05968 -0.424962,0.153337 l -0.01984,0.0035 0.05746,-0.297761 c 0.05782,-0.299942 0.106949,-0.437202 0.172071,-0.456622 z"
     id="path1"
     style="stroke-width:1" /></svg>
