<?xml version="1.0" encoding="UTF-8"?>
<svg id="svg1" width="24" height="24" version="1.1" viewBox="0 0 24 24" xml:space="preserve" xmlns="http://www.w3.org/2000/svg"><path id="path1" d="m17.789 2.0011c-0.0156 0.0055-0.03107 0.031768-0.05071 0.0796-0.0272 0.066214-0.18155 0.20028-0.34326 0.29816-0.30652 0.18549-0.42156 0.29592-0.69128 0.66594-0.27 0.37042-0.3547 0.41094-0.6671 0.31824-0.42052-0.12476-0.7393-0.11871-0.71528 0.013401 0.0215 0.11821-0.06683 0.25604-0.4229 0.65856-0.23268 0.26304-0.24848 0.26998-0.45988 0.20524-0.32114-0.098343-0.38934-0.065714-0.63614 0.302l-0.22348 0.3335-0.23924-0.11777c-0.3145-0.15443-0.39896-0.04561-0.22006 0.28268 0.1235 0.22664 0.12227 0.24812-0.0219 0.41306-0.08364 0.095688-0.14613 0.20704-0.20238 0.34314-0.05625 0.13609-0.08574 0.23366-0.07426 0.29674 0.03335 0.18336-0.20875 0.43716-0.51795 0.54294-0.15703 0.053722-0.36336 0.15829-0.45894 0.23196-0.09558 0.073662-0.2652 0.15042-0.4631 0.30754-0.1979 0.15712-0.33682 0.4357-0.47746 0.6848-0.14065 0.2491-0.26044 0.52574-0.26634 0.61478-0.0069 0.10422-0.07388 0.18667-0.18751 0.23166-0.09708 0.038428-0.31274 0.25798-0.31274 0.25798l-2.7094 2.92-1.3553 1.4602-1.3549 1.4602-0.46576-0.43196s-0.00613 0.1375 0.013632 0.29886c0.019764 0.16137 0.16593 0.44202 0.16593 0.44202l-0.42204 0.45418-0.84326 0.90912-0.42242 0.45498c-0.08606-0.07964-0.20024-0.12186-0.31746-0.11744-0.028894 0.0011-0.057692 0.0047-0.085828 0.01138-0.085196 0.02025-0.16225 0.06534-0.22182 0.12948-0.16632 0.17912-0.15594 0.45936 0.02344 0.62542l0.92116 0.8527c0.17921 0.16588 0.4589 0.1551 0.6251-0.02382 0.16595-0.17887 0.1557-0.4581-0.023-0.62422l0.4255-0.45828 0.42048-0.45332 0.84094-0.90744s0.27386 0.10876 0.42808 0.10719c0.15422-0.0016 0.28456-0.0247 0.28456-0.0247l-0.42602-0.39105 2.7094-2.9208 1.355-1.4598 1.3549-1.4602s0.2947-0.31198 0.28992-0.3398c-0.0048-0.027828 0.06433-0.063772 0.15369-0.080004 0.25888-0.047018 0.8121-0.43384 1.1037-0.76614 0.29166-0.33232 0.32144-0.61002 0.50982-1.0727 0.18767-0.46094 0.31-0.59752 0.5794-0.64646 0.09381-0.017038 0.28902-0.12841 0.43366-0.24744l0.26308-0.21674 0.24134 0.098141c0.32138 0.12996 0.44924 0.00337 0.3006-0.29706-0.05544-0.11205-0.1013-0.20666-0.10196-0.21038-6.8e-4 -0.00371 0.13384-0.13827 0.29894-0.2986 0.28248-0.27432 0.29564-0.3053 0.2255-0.52714-0.06308-0.19947-0.04722-0.2746 0.10469-0.4886 0.17785-0.25056 0.47112-0.37942 0.58224-0.25622 0.09145 0.10139 0.24952 0.031196 0.22564-0.10008-0.01243-0.06834 0.02799-0.19004 0.08995-0.27056 0.06196-0.080512 0.10238-0.20222 0.08995-0.27056-0.02418-0.13291 0.17785-0.19473 0.52768-0.16131 0.11958 0.011423 0.24042-0.037202 0.37122-0.14946 0.20106-0.17259 0.33614-0.17597 0.36654-0.00881 0.02332 0.12819 0.19987 0.093055 0.22596-0.045008 0.01123-0.059438 0.06974-0.11691 0.13006-0.12787 0.06033-0.010957 0.18179-0.094386 0.27018-0.18505 0.1571-0.16115 0.45364-0.21114 0.47742-0.08053 0.0061 0.033516 0.09053 0.081046 0.18772 0.1056 0.10397 0.026268 0.16933 0.085436 0.15831 0.14375-0.01174 0.062106 0.02798 0.090876 0.10647 0.076906 0.0689-0.012262 0.22728 0.021332 0.3519 0.074724 0.12462 0.053392 0.28938 0.085984 0.36658 0.072214 0.17639-0.031462 0.31478 0.1538 0.441 0.59168 0.10419 0.36142 0.03034 0.57578-0.21386 0.62012-0.06196 0.011252-0.10953 0.036908-0.10577 0.057576 0.01046 0.057466 0.71564 0.52698 0.77528 0.51614 0.06102-0.011082 0.08971 0.17556 0.09235 0.59826 0.0016 0.2537-0.01931 0.2987-0.13296 0.28482-0.45524-0.055556-0.44004-0.058614-0.36516 0.082598 0.04746 0.089515 0.03431 0.20894-0.04011 0.36022-0.06126 0.12452-0.08592 0.2687-0.05469 0.32002 0.06603 0.10851-0.04977 0.1936-0.33354 0.24514-0.11004 0.019988-0.27988 0.097943-0.37756 0.17323-0.15973 0.1231-0.20334 0.13006-0.43154 0.068152-0.13957-0.037862-0.28082-0.12717-0.3139-0.19818-0.05679-0.12192-0.06965-0.116-0.22908 0.10419-0.492 0.67946-0.59962 0.74264-0.9845 0.57998-0.092-0.038872-0.30116-0.054394-0.46546-0.034438-0.16429 0.019958-0.3408 0.019782-0.39202-2.8e-4 -0.05121-0.020066-0.2611-0.016336-0.46636 0.0083-0.29594 0.03552-0.36952 0.065774-0.35498 0.1457 0.01009 0.055436-0.02844 0.18869-0.08545 0.29634-0.05702 0.10765-0.09389 0.24906-0.08204 0.31418 0.02913 0.16014-0.1285 0.24988-0.54644 0.31004-0.25016 0.036016-0.38354 0.090916-0.46708 0.19352-0.1432 0.17588-0.73562 0.45578-0.9158 0.4327-0.13867-0.017758-0.15909 0.16124-0.02446 0.21398 0.03853 0.015094 0.07211 0.13169 0.07452 0.25922 0.0024 0.12754 0.04701 0.28596 0.09931 0.35176 0.07754 0.09754 0.0687 0.1553-0.04812 0.3138-0.07879 0.1069-0.24884 0.3468-0.37778 0.53286-0.12894 0.18605-0.29464 0.34874-0.36818 0.3621-0.07353 0.01335-0.20154 0.1155-0.2847 0.22626-0.08317 0.11077-0.2105 0.21188-0.28276 0.225-0.15487 0.02813-0.15351 0.1538 2e-3 0.18313 0.05949 0.01122 0.12061 0.08526 0.13588 0.16449 0.01527 0.07923 0.09696 0.20656 0.18154 0.28302 0.18476 0.16705 0.1861 0.36724 0.0041 0.6205-0.07363 0.10246-0.13543 0.28056-0.13746 0.39594-0.0023 0.13306-0.07587 0.27826-0.20092 0.39656-0.10842 0.10258-0.22106 0.26132-0.25074 0.3528-0.04152 0.128-0.11359 0.17677-0.31232 0.21286-0.29918 0.05434-0.31468 0.13367-0.04808 0.24634 0.152 0.06424 0.20434 0.30432 0.24578 0.53384-0.15417 0.01198-0.30724 0.03719-0.45722 0.07543l-1.0666-0.91268 0.05716 1.4081c-0.14256 0.11201-0.27356 0.23817-0.39082 0.37647l-1.4472-0.13028 0.91312 1.1368c-0.045574 0.15559-0.077024 0.315-0.093942 0.47624-1.624e-4 0.0059-4.4e-4 0.01207-5.8e-4 0.01798l-1.2617 0.73614 1.4033 0.39244c0.06052 0.16569 0.13731 0.32504 0.22898 0.47574l-0.56828 1.3074 1.335-0.47766c0.16007 0.11404 0.33242 0.21038 0.5134 0.287l0.31598 1.3436 0.77972-1.14c0.19975-0.0055 0.39828-0.03316 0.5919-0.08253l1.067 0.91266-0.05716-1.4081c0.14258-0.112 0.27358-0.23816 0.39084-0.37646l1.4468 0.13029-0.91312-1.1368c0.04571-0.15557 0.07728-0.31502 0.09434-0.47626 4.4e-4 -6e-3 9.6e-4 -0.01198 0.0014-0.01801l1.2609-0.73612-1.4037-0.39282c-0.05914-0.16794-0.13471-0.32962-0.22569-0.48264l0.56534-1.3001-1.3295 0.47508c-0.16218-0.11454-0.33646-0.21094-0.5198-0.28718 0 0-0.0043-0.01044-0.0048-0.01181l0.06139 9e-3c0.09054-0.12805 0.18518-0.27994 0.17956-0.3108-0.0056-0.03087 0.1111-0.07791 0.2594-0.10485 0.31354-0.05695 0.32366-0.1125 0.05221-0.288-0.12128-0.07842-0.2108-0.20194-0.23234-0.32036-0.01928-0.10597-0.0966-0.25736-0.17182-0.33646-0.09377-0.0986-0.13434-0.2126-0.12884-0.3631 0.0044-0.12073-0.01108-0.32274-0.03405-0.44902-0.02297-0.12628-0.01697-0.25116 0.01265-0.27784 0.02962-0.02666 0.04378-0.10386 0.03155-0.17113-0.01445-0.07944 0.03973-0.14722 0.15572-0.19343 0.09821-0.03913 0.23434-0.14616 0.30226-0.23766 0.06793-0.0915 0.16851-0.17463 0.22348-0.18462 0.12441-0.0226 0.1903-0.17354 0.09425-0.21602-0.03914-0.01731-0.12089-0.13181-0.18174-0.25468-0.0944-0.1906-0.09425-0.26438 1e-6 -0.5029 0.06076-0.15377 0.10538-0.3063 0.09956-0.33834-0.02203-0.12111 0.23504-0.36798 0.43604-0.41914 0.11503-0.02928 0.3347-0.09622 0.48782-0.14835 0.27804-0.09465 0.2782-0.09472 0.19476-0.33288-0.07557-0.2157-0.06569-0.25438 0.10573-0.40162 0.10422-0.089516 0.20956-0.24182 0.23408-0.33864 0.02451-0.09683 0.12567-0.23676 0.22466-0.31078 0.15928-0.11911 0.20542-0.1264 0.40166-0.06631 0.12246 0.0375 0.2888 0.036918 0.37162-6.2e-4 0.08248-0.037366 0.17436-0.040526 0.20412-0.00753 0.09999 0.11088 0.26232 0.031802 0.19508-0.095018-0.07941-0.14977 0.02336-0.25928 0.31828-0.3392 0.12776-0.034616 0.27868-0.099543 0.33508-0.14421 0.2174-0.17223 0.4954-0.15795 0.8054 0.041326 0.60142 0.3866 0.5442 0.3743 0.71556 0.15462 0.81726-1.0477 1.2659-1.4288 1.5158-1.2882 0.06219 0.034992 0.24412 0.061304 0.40444 0.05892 0.16031-0.00237 0.34852 0.00883 0.4184 0.024506 0.10003 0.022436 0.12147-0.00514 0.10043-0.13043-0.0147-0.08752 7e-3 -0.22642 0.04832-0.30822 0.10177-0.20125 0.04875-0.43969-0.14817-0.66493-0.13068-0.14948-0.17402-0.27914-0.21414-0.6451-0.04767-0.43478-0.03978-0.46704 0.1535-0.63398 0.11206-0.096789 0.19838-0.20746 0.19141-0.24576-7e-3 -0.03829 0.03094-0.077856 0.08436-0.08756 0.21582-0.039203 0.14176-0.19295-0.20488-0.4255-0.20118-0.13494-0.36984-0.26616-0.37464-0.29142-0.004812-0.025276-0.061872-0.15582-0.12711-0.29052-0.091723-0.18939-0.17491-0.25752-0.36734-0.2997-0.28506-0.062472-0.29724-0.087798-0.19954-0.4213 0.16569-0.56554 0.26386-0.47592-0.7892-0.72-0.30752-0.071282-0.60016-0.016454-0.82134 0.154-0.18476 0.14239-0.59482 0.18335-0.617 0.061456-0.00669-0.036782-0.11768-0.15095-0.24676-0.25322-0.12908-0.10226-0.2591-0.22356-0.28886-0.2697-0.021492-0.033328-0.037394-0.048352-0.052992-0.042852zm0.0043 0.54546c0.05413-0.00465 0.12508 0.019003 0.20662 0.075406 0.16409 0.1135 0.18382 0.25082 0.05298 0.36256-0.12727 0.10866-0.15052 0.11523-0.24876 0.067356-0.04203-0.02048-0.09448-0.13584-0.11673-0.25616-0.02844-0.1537 0.01565-0.24142 0.10586-0.24916zm1.5412 0.15812c0.0104-3.3e-5 0.01925 0.00226 0.02619 0.00707 0.02002 0.013851 0.02252 0.061242 0.0053 0.10519-0.03797 0.096706-0.22108 0.13886-0.23642 0.054554-0.0093-0.051202 0.09418-0.13717 0.17003-0.1608 0.01264-0.00394 0.02452-0.00598 0.03492-0.00601zm0.79654 0.084742c0.02877-0.010205 0.05806 0.00675 0.10377 0.04507 0.16881 0.14155 0.08832 0.30016-0.17626 0.3482-0.13093 0.02378-0.2432 0.012641-0.24994-0.0244-0.0067-0.037042 0.0167-0.072386 0.05233-0.078858 0.03563-0.00647 0.1108-0.083938 0.16724-0.17188 0.04533-0.070614 0.07409-0.10794 0.10286-0.11814zm-2.9472 0.26136c0.02795-0.00473 0.05131-2.62e-4 0.06603 0.016054 0.02998 0.033246-0.01016 0.10164-0.08971 0.15161-0.19345 0.1215-0.25804 0.13429-0.22278 0.044498 0.03987-0.10155 0.16262-0.19796 0.24648-0.21216zm-1.3284 0.62072c0.04158-0.00475 0.09291 0.015688 0.15074 0.064184 0.13364 0.11206 0.07584 0.30838-0.10028 0.34036-0.12792 0.023234-0.15036-0.0032-0.1564-0.18053-0.0047-0.13786 0.03664-0.2161 0.10594-0.22402zm4.8786 0.24436c0.01094-0.00439 0.02824-0.0034 0.04886 0.00468 0.04124 0.016158 0.08468 0.096592 0.09684 0.17822 0.02131 0.14309 0.01924 0.14377-0.06024 0.024056-0.04534-0.068294-0.08917-0.14832-0.09722-0.17781-4e-3 -0.014748 8.2e-4 -0.024752 0.01176-0.029148zm-5.5148 0.29712c0.07655-0.015174 0.09413 0.10766-0.0058 0.3247-0.0639 0.13875-0.10125 0.15997-0.19139 0.10926-0.09596-0.05399-0.09518-0.089724 0.0077-0.24852 0.07633-0.11783 0.1436-0.17632 0.18952-0.18543zm6.1004 0.341c0.07204-0.013088 0.14034 0.27458 0.08427 0.35548-0.06905 0.099635-0.37464 0.11451-0.51846 0.025288-0.21298-0.13215-0.1905-0.1939 0.0717-0.19888 0.13705-0.0026 0.24728-0.038436 0.2664-0.087132 0.01796-0.045744 0.0612-0.088418 0.09609-0.094756zm-0.34874 2.0158c0.05042 6.4e-4 0.09155 0.037984 0.10488 0.11129 0.03127 0.17191 0.15958 0.21674 0.2639 0.092564 0.06913-0.082288 0.08874-0.07089 0.11369 0.066276 0.04864 0.26736-0.09011 0.35046-0.46724 0.28054-0.2009-0.037248-0.29354-0.27206-0.17514-0.4429 0.05024-0.072494 0.10949-0.10841 0.1599-0.10776zm-1.9222 1.1859c0.0364-2.2e-6 0.06792 0.00668 0.08896 0.02124 0.02766 0.019134 0.01793 0.10384-0.02097 0.18832-0.05099 0.11071-0.04528 0.18524 0.02012 0.26752 0.08137 0.10237 0.07062 0.11361-0.10615 0.10389-0.10842-0.00596-0.2223-0.019748-0.25294-0.030282-0.08762-0.030122-0.11764-0.3112-0.04449-0.41674 0.03514-0.050704 0.11503-0.092988 0.19675-0.11583 0.04086-0.011422 0.08233-0.018116 0.11872-0.018116zm-2.502 0.5264c0.05241-0.00453 0.06459 0.028326 0.05793 0.11572-0.0061 0.080112 0.03465 0.18411 0.0907 0.23112 0.08678 0.072768 0.07036 0.091126-0.11064 0.124-0.13464 0.024456-0.23576 0.00148-0.27526-0.06343-0.0833-0.13691 0.0026-0.33364 0.17038-0.3907 0.02715-0.00924 0.04941-0.015216 0.06688-0.016704zm0.78664-0.00432c0.02324-0.0052 0.05093-0.0056 0.07703-3e-4 0.05769 0.01173 0.0445 0.030766-0.03344 0.048264-0.07053 0.015832-0.11323 0.00661-0.0949-0.019836 0.0092-0.013222 0.02807-0.022924 0.05131-0.028134zm-1.931 1.0477c0.01734 0.00364 0.02888 0.013382 0.03176 0.029224 0.01761 0.096819-0.19804 0.25862-0.27502 0.20638-0.05189-0.03522-0.04857-0.081398 0.01005-0.13526 0.05118-0.047022 0.11473-0.080822 0.16674-0.094828 0.02601-0.00701 0.04913-0.00916 0.06647-0.00551zm-0.85226 0.40014 0.07807 0.13218c0.04298 0.07259 0.14883 0.15481 0.23512 0.18257 0.12564 0.04042 0.1443 0.07237 0.09425 0.16115-0.08274 0.14677-0.34234 0.18854-0.49856 0.08047-0.16605-0.11485-0.1709-0.17799-0.02856-0.38336zm-1.1716 2.286c0.02293-0.0057 0.04063 0.01436 0.06667 0.05714 0.03235 0.05317 0.13517 0.08249 0.22902 0.06545 0.20554-0.03733 0.23388 0.04861 0.08542 0.26284-0.13281 0.19163-0.26034 0.22364-0.42816 0.10755-0.16502-0.11415-0.17984-0.22784-0.05093-0.39536 0.04677-0.06077 0.07506-0.09195 0.09798-0.09762zm-0.45764 2.5212c0.02171-0.0065 0.04552 1.45e-4 0.07169 0.01825 0.04567 0.03159 0.17164 0.04147 0.2802 0.02175 0.1935-0.03515 0.19719-0.03036 0.20314 0.24994 0.0047 0.22358-0.02689 0.427-0.07488 0.51908-0.07105-0.10068-0.16082-0.19021-0.26486-0.21146-0.13204-0.02698-0.2946 0.05968-0.42496 0.15334l-0.01984 0.0035 0.05746-0.29776c0.05782-0.29994 0.10695-0.4372 0.17207-0.45662z"/></svg>
