<?xml version="1.0" encoding="UTF-8"?>
<svg id="svg1" width="24" height="24" version="1.1" viewBox="0 0 26.182 26.182" xmlns="http://www.w3.org/2000/svg">
 <path id="path1" d="m24.545 1.6363-7.0508 7.0217c0.31938 0.057773 0.61674 0.21042 0.84925 0.44297 0.62034 0.62048 0.62034 1.6472 0 2.2677l-3.4884 3.4884a3.6655 6.8728 45 0 1-0.87834 4.462c0.49628-0.31956 1.0408-0.6805 1.4157-0.96961 0.84723-0.65335 1.5954-1.3443 2.4731-2.2171 0.87758-0.87278 1.9749-1.9716 2.7571-3.0412 0.78231-1.0697 1.3041-1.959 1.9325-3.3255 0.62842-1.3664 1.4106-3.515 1.7057-4.8888 0.29505-1.3737 0.28412-3.2405 0.28412-3.2405zm-7.3358 7.6822a0.91637 0.91637 0 0 0-0.6479 0.26847l-14.925 14.925v0.03311h2.5585l13.663-13.663a0.91637 0.91637 0 0 0 0-1.2958 0.91637 0.91637 0 0 0-0.6479-0.26847z"/>
</svg>
