<?xml version="1.0" encoding="UTF-8"?>
<svg id="svg1" width="24" height="24" version="1.1" viewBox="0 0 26.182 26.182" xmlns="http://www.w3.org/2000/svg">
 <path id="path1" d="m23.014 2.6727-2.6638 0.88805-1.2477 1.8656c0.05806 0.043091 0.11437 0.089202 0.16678 0.14161l0.84928 0.84923c0.05231 0.052305 0.09816 0.10883 0.14119 0.16677l1.8666-1.2476zm-13.161 3.1106c-0.62093-0.0069448-1.2029 0.19792-1.632 0.62699l4.2925 4.2921 1.7758-1.7761-2.0914-2.0913c-0.68366-0.68361-1.5465-1.0429-2.3448-1.0518zm8.3359 0.21028c-0.16768 0-0.3353 0.064013-0.46325 0.19194-0.17972 0.18119-0.23815 0.45048-0.1493 0.6897l-15.394 15.349 0.00128 1.2834 1.2827 0.0017 15.346-15.399c0.23924 0.088852 0.50813 0.030845 0.68933-0.14886 0.25586-0.25586 0.25586-0.671 0-0.92686l-0.84928-0.84923c-0.12793-0.12793-0.29557-0.19194-0.46325-0.19194zm0.28152 3.6938-5.196 5.1956c1.4381 1.9252 1.7049 4.178 0.51528 5.3675-0.01911 0.01911-0.03964 0.03623-0.05929 0.0546 2.702 0.42404 5.544-0.54103 7.5856-2.5763 2.0417-2.0419 3.0111-4.889 2.5861-7.5952-0.02133 0.02309-0.04206 0.04675-0.06441 0.0691-1.1896 1.1895-3.4421 0.92281-5.3673-0.51526z"/>
</svg>
