<?xml version="1.0" encoding="UTF-8"?>
<svg id="svg1" width="24" height="24" version="1.1" viewBox="0 0 26.182 26.182" xmlns="http://www.w3.org/2000/svg">
 <path id="path1" d="m14.073 2.183c-0.16516 0.00876-0.31588 0.067878-0.42912 0.18111l-4.3601 4.3606c-0.30194 0.30194-0.22106 0.86897 0.18153 1.2716l1.4535 1.4535c0.40261 0.40261 0.96962 0.48347 1.2716 0.18153l0.80921 0.80921 4.3601-4.3606-0.8088-0.8088c0.30194-0.30194 0.22065-0.86897-0.18196-1.2716l-1.4531-1.4535c-0.25163-0.25163-0.56762-0.37765-0.84288-0.36305zm4.6579 3.9831a1.2851 1.2851 0 0 0-0.90637 0.37883l-0.0021-0.00214-15.263 15.264 0.00213 0.0021a1.2851 1.2851 0 0 0-0.37886 0.90641 1.2851 1.2851 0 0 0 1.2848 1.2848 1.2851 1.2851 0 0 0 0.90637-0.37883l0.00214 0.0021 15.264-15.263-0.0021-0.00214a1.2851 1.2851 0 0 0 0.37839-0.90637 1.2851 1.2851 0 0 0-1.2848-1.2852zm1.3713 2.6566-4.3606 4.3601 0.80921 0.80921c-0.30194 0.30194-0.22106 0.86897 0.18153 1.2716l1.4535 1.4535c0.40261 0.40261 0.96962 0.48347 1.2716 0.18153l4.3606-4.3601c0.30194-0.30194 0.22065-0.86938-0.18196-1.272l-1.4535-1.4531c-0.40261-0.40261-0.96962-0.4839-1.2716-0.18196z"/>
</svg>
