<?xml version="1.0" encoding="UTF-8"?>
<svg id="svg1" width="24" height="24" version="1.1" viewBox="0 0 26.182 26.182" xmlns="http://www.w3.org/2000/svg">
 <path id="path1" class="fil0" d="m15.616 3.0326c-0.15968-0.054228-0.34572-0.00457-0.47137 0.12705l-2.3186 2.6162c-0.17812 0.21007-0.36688 0.45499-0.03767 0.74486l3.5866 3.1777c0.49534 0.49197 1.8096 3.2764 2.358 4.4649 0.13444 0.30581 0.27628 0.46239 0.60692 0.37465 2.0336-0.81361 4.7085-3.8503 5.2033-5.9668 0.01808-0.18348-0.07863-0.36425-0.24171-0.45202l-4.9162-1.8082-3.6214-3.1889c-0.04417-0.041885-0.09438-0.071522-0.14761-0.089599zm-3.3495 4.5524c-0.99832 1.2146-10.177 12.383-10.176 12.444-1.5518 2.0953 1.2493 4.2386 2.7649 2.5101l10.497-12.219z"/>
</svg>
