<?xml version="1.0" encoding="UTF-8" standalone="no"?>
<svg
   width="24"
   height="24"
   version="1.1"
   viewBox="0 0 26.181818 26.181818"
   id="svg1"
   sodipodi:docname="handaxe.svg"
   inkscape:version="1.3.2 (091e20e, 2023-11-25, custom)"
   xmlns:inkscape="http://www.inkscape.org/namespaces/inkscape"
   xmlns:sodipodi="http://sodipodi.sourceforge.net/DTD/sodipodi-0.dtd"
   xmlns="http://www.w3.org/2000/svg"
   xmlns:svg="http://www.w3.org/2000/svg">
  <defs
     id="defs1" />
  <sodipodi:namedview
     id="namedview1"
     pagecolor="#ffffff"
     bordercolor="#111111"
     borderopacity="1"
     inkscape:showpageshadow="0"
     inkscape:pageopacity="0"
     inkscape:pagecheckerboard="1"
     inkscape:deskcolor="#d1d1d1"
     inkscape:zoom="3.4953574"
     inkscape:cx="-20.741799"
     inkscape:cy="18.453049"
     inkscape:window-width="1366"
     inkscape:window-height="697"
     inkscape:window-x="-8"
     inkscape:window-y="-8"
     inkscape:window-maximized="1"
     inkscape:current-layer="svg1" />
  <path
     class="fil0"
     d="m 15.616112,3.0326148 c -0.159679,-0.054228 -0.345718,-0.00457 -0.471372,0.1270548 l -2.318607,2.6161919 c -0.178125,0.2100651 -0.366884,0.4549929 -0.03767,0.7448587 l 3.586612,3.177688 c 0.495335,0.4919678 1.809616,3.2764258 2.358009,4.4649368 0.134438,0.30581 0.27628,0.462393 0.606924,0.374652 2.033639,-0.813608 4.708455,-3.850292 5.203286,-5.9668416 0.01808,-0.1834822 -0.07863,-0.3642512 -0.241711,-0.4520155 L 19.385337,6.3109438 15.763905,3.1220303 c -0.04417,-0.041885 -0.09438,-0.071522 -0.147607,-0.089599 z m -3.349505,4.552449 C 11.268285,8.799691 2.0895754,19.96799 2.0904917,20.028699 0.53873709,22.124035 3.3397806,24.267296 4.8553621,22.538823 L 15.352661,10.319695 Z"
     id="path1"
     style="stroke-width:1" />
</svg>
