<?xml version="1.0" encoding="UTF-8"?>
<svg id="svg1" width="24" height="24" version="1.1" viewBox="0 0 26.182 26.182" xml:space="preserve" xmlns="http://www.w3.org/2000/svg"><path id="path1" d="m25.091 1.0909-9.1283 8.2264-4.5647 4.1133-4.5643 4.1133s-0.073819 0.04277-0.11156 0.0052c-0.079645-0.07938-0.2591-0.12558-0.38532-0.09937-0.061622 0.01279-0.44805 0.02752-0.85828 0.03329-0.75945 0.01067-1.2243-0.03234-1.574-0.14578-0.10735-0.03483-0.2537-0.06107-0.32532-0.0586l-0.13031 0.0042 1.0795 1.0758 1.0312 1.028-3.8944 4.3538-0.10453 0.28548c-0.057453 0.157-0.18642 0.45383-0.28687 0.65951-0.10045 0.20568-0.18281 0.38736-0.18281 0.40358 1.6e-6 0.01624 0.18052-0.06563 0.40125-0.18187 0.22073-0.11625 0.5225-0.26368 0.67031-0.32719l0.26858-0.11529 4.3461-3.839 1.0134 0.99748h4.81e-4c0.99234 0.9764 1.0638 1.041 1.0978 0.99092 0.02041-0.03004-0.00408-0.18738-0.05578-0.35812-0.14191-0.46862-0.18564-1.0037-0.15094-1.8478 0.034845-0.84755 0.033709-0.87169-0.044531-0.94967-0.040965-0.04083-0.049218-0.09937-0.049218-0.09937l4.1258-4.567 12.376-13.701z"/></svg>
