<?xml version="1.0" encoding="UTF-8" standalone="no"?>
<svg
   width="24"
   height="24"
   version="1.1"
   viewBox="0 0 26.181818 26.181818"
   xml:space="preserve"
   id="svg1"
   sodipodi:docname="lance.svg"
   inkscape:version="1.3.2 (091e20e, 2023-11-25, custom)"
   xmlns:inkscape="http://www.inkscape.org/namespaces/inkscape"
   xmlns:sodipodi="http://sodipodi.sourceforge.net/DTD/sodipodi-0.dtd"
   xmlns="http://www.w3.org/2000/svg"
   xmlns:svg="http://www.w3.org/2000/svg"><defs
     id="defs1" /><sodipodi:namedview
     id="namedview1"
     pagecolor="#ffffff"
     bordercolor="#111111"
     borderopacity="1"
     inkscape:showpageshadow="0"
     inkscape:pageopacity="0"
     inkscape:pagecheckerboard="1"
     inkscape:deskcolor="#d1d1d1"
     inkscape:zoom="11.711538"
     inkscape:cx="8.2824302"
     inkscape:cy="17.802956"
     inkscape:window-width="1366"
     inkscape:window-height="697"
     inkscape:window-x="-8"
     inkscape:window-y="-8"
     inkscape:window-maximized="1"
     inkscape:current-layer="svg1" /><path
     d="m 25.090909,1.090883 -9.128283,8.2263742 -4.564741,4.1133068 -4.5642622,4.113308 c 0,0 -0.073819,0.04277 -0.1115601,0.0052 -0.079645,-0.07938 -0.259101,-0.125576 -0.3853152,-0.09937 -0.061622,0.01279 -0.44805,0.02752 -0.8582771,0.03329 -0.7594462,0.01067 -1.2242963,-0.03234 -1.5740436,-0.145778 -0.1073534,-0.03483 -0.2537009,-0.06107 -0.3253159,-0.0586 l -0.130311,0.0042 1.0795059,1.075761 1.0312428,1.027956 -3.8944298,4.353783 -0.1045308,0.285477 c -0.057453,0.157003 -0.1864153,0.453833 -0.2868684,0.659511 -0.1004531,0.205679 -0.1828057,0.387355 -0.1828104,0.403579 1.6e-6,0.01624 0.1805185,-0.06563 0.4012508,-0.181873 0.2207253,-0.116251 0.5224974,-0.263684 0.6703115,-0.327187 l 0.2685806,-0.115288 4.3461043,-3.83899 1.0134349,0.997476 h 4.81e-4 c 0.9923393,0.976403 1.0637862,1.040986 1.097794,0.990923 0.02041,-0.03004 -0.00408,-0.187385 -0.05578,-0.358124 C 8.6911737,21.7872 8.6474464,21.252127 8.6821499,20.408034 c 0.034845,-0.847549 0.033709,-0.871693 -0.044531,-0.949668 -0.040965,-0.04083 -0.049218,-0.09937 -0.049218,-0.09937 l 4.1257861,-4.56696 12.37616,-13.7009442 z"
     id="path1"
     style="stroke-width:0.999998" /></svg>
