<?xml version="1.0" encoding="UTF-8"?>
<svg id="svg1" width="24" height="24" version="1.1" viewBox="0 0 26.182 26.182" xml:space="preserve" xmlns="http://www.w3.org/2000/svg"><path id="path1" d="m18.014 2.1818-0.86731 1.3436s0.35991 0.37896 0.46374 0.61414c0.07598 0.17211 0.13399 0.37057 0.10528 0.55648-0.02253 0.14585-0.10952 0.28096-0.21056 0.38854-0.16663 0.17738-0.39625 0.28836-0.61915 0.38603-0.18097 0.079287-0.37806 0.11773-0.57152 0.15792-0.16972 0.035264-0.51387 0.072694-0.51387 0.072694s-0.7904 2.189-0.99515 3.3289c-0.02998 0.16684-0.04242 0.33714-0.03259 0.50635 0.0062 0.10743 0.0093 0.22226 0.05765 0.31835 0.0013 0.00262 0.0036 0.00485 5e-3 0.00752l-2.419 2.419a1.0484 1.0484 0 0 0-0.3008 0.79712l-7.9562 7.9562-1.9778 1.484v1.4815h1.4815l1.484-1.9778 7.9562-7.9562a1.0484 1.0484 0 0 0 0.79713-0.3008l2.419-2.419c0.0027 0.0014 0.0048 0.0037 0.0075 5e-3 0.09609 0.04844 0.21092 0.05141 0.31835 0.05765 0.16923 0.0099 0.33951-0.0026 0.50635-0.03259 1.1399-0.20476 3.3289-0.99515 3.3289-0.99515s0.03742-0.34415 0.07269-0.51387c0.04019-0.19344 0.07863-0.39054 0.15792-0.57152 0.09766-0.22292 0.20864-0.45254 0.38603-0.61915 0.10756-0.10104 0.24268-0.18804 0.38854-0.21056 0.18593-0.028713 0.38438 0.029302 0.55648 0.10528 0.23518 0.10382 0.61414 0.46374 0.61414 0.46374l1.3436-0.86729-0.062667-0.88737-0.12283-1.7772-0.03008-0.44368s-0.03824-0.27511-0.09275-0.40107c-0.05043-0.11657-0.21307-0.31584-0.21307-0.31584l-0.32587-0.32587 0.10027-0.097761a0.40292 0.40292 0 0 0 0-0.56902l-0.42112-0.42112a0.40292 0.40292 0 0 0-0.56902 0l-0.09776 0.10027-0.32587-0.32587s-0.19926-0.16263-0.31584-0.21307c-0.12594-0.054494-0.40107-0.092747-0.40107-0.092747z" stroke-width="1.176"/></svg>
