<?xml version="1.0" encoding="UTF-8"?>
<svg id="svg1" width="24" height="24" version="1.1" viewBox="0 0 26.182 26.182" xmlns="http://www.w3.org/2000/svg">
 <path id="path1" d="m18.988 2.1819-0.7909 1.641a4.3636 4.3636 0 0 0-0.19687-0.0047 4.3636 4.3636 0 0 0-1.4719 0.26718l-1.2486-1.3393 0.32258 1.794a4.3636 4.3636 0 0 0-1.2055 1.1928l-1.7864-0.34645 1.3155 1.2635a4.3636 4.3636 0 0 0-0.28935 1.532 4.3636 4.3636 0 0 0 0.01023 0.1419l-1.6466 0.77088 1.7979 0.2463a4.3636 4.3636 0 0 0 2.991 3.0316l0.22329 1.8094 0.7956-1.65a4.3636 4.3636 0 0 0 0.19218 0.01364 4.3636 4.3636 0 0 0 1.4719-0.26718l1.2486 1.3393-0.32258-1.794a4.3636 4.3636 0 0 0 1.2055-1.1928l1.7864 0.34645-1.3155-1.2635a4.3636 4.3636 0 0 0 0.28935-1.532 4.3636 4.3636 0 0 0-0.0034-0.14488l1.6398-0.76789-1.7945-0.24589a4.3636 4.3636 0 0 0-0.76492-1.5234l0.87783-1.5903-1.6001 0.86038a4.3636 4.3636 0 0 0-1.5072-0.77897l-0.22329-1.8089zm-5.501 8.9705-10.985 10.985 0.0017 0.0017a1.0909 1.0909 0 0 0-0.32132 0.76959 1.0909 1.0909 0 0 0 1.0909 1.0909 1.0909 1.0909 0 0 0 0.76959-0.32132l0.0017 0.0017 10.985-10.985c-0.61518-0.40496-1.139-0.92694-1.5426-1.5426z"/>
</svg>
