<?xml version="1.0" encoding="UTF-8"?>
<svg id="svg1" width="24" height="24" version="1.1" viewBox="0 0 24 24" xmlns="http://www.w3.org/2000/svg">
 <g id="g1" class="" transform="matrix(.059324 0 0 .059324 -3.3024 -2.1617)">
  <path id="path1" transform="matrix(.8 0 0 .8 51.2 51.2)" d="m174.84 14.875c47.1 42.275 78.124 90.35 95.312 138.06-69.543-26.653-151.13-38.773-238.16-23.783 96.11-8.437 180.52 13 245.62 47.72 43.035 161.78-70.46 307.35-250.97 192.16 112.67 95.877 201.48 101.82 254.94 60.908 307.48 77.54 238.9-156.1 27.374-260.09-25.886-55.805-69.74-110.69-134.13-154.97zm148.16 190.47c123.39 90.75 139.42 227.62-38.656 222.44 52.166-42.464 68.852-130.91 38.656-222.44z"/>
 </g>
</svg>
