<?xml version="1.0" encoding="UTF-8"?>
<svg id="svg1" width="24" height="24" version="1.1" viewBox="0 0 26.182 26.182" xml:space="preserve" xmlns="http://www.w3.org/2000/svg"><path id="path1" d="m25.091 1.0909s-2.5941 1.7048-3.8328 2.6381c-1.5507 1.1685-3.0597 2.3965-4.4976 3.7015-1.0604 0.96242-2.1461 1.9174-3.0379 3.0379-0.78115 0.98147-1.9956 3.1903-1.9956 3.1903l-0.21748 0.21748c-0.3234-0.06093-0.65606 0.04145-0.88924 0.27367-0.23222 0.23318-0.33461 0.56584-0.27367 0.88924l-0.12442 0.12442-0.3078-0.3078c-0.097461-0.09746-0.25548-0.09746-0.35294 0l-0.97058 0.97058-0.80479-0.80478c0.112-0.07276 0.22722-0.14002 0.34915-0.19336 0.22226-0.09724 0.7007-0.1968 0.7007-0.1968s-0.58039-0.37298-0.89752-0.5039c-0.42717-0.17635-1.0732-0.30655-1.3359-0.37224-0.26273-0.065683-0.94192-0.11313-1.4142-0.096163-0.43776 0.01573-1.3011 0.18302-1.3011 0.18302s0.7841 0.4842 1.0733 0.83272c0.25617 0.30871 0.47606 0.54163 0.62419 0.86476 0.17665 0.38539 0.29539 1.237 0.29539 1.237l0.41671-0.42084s0.1107-0.08823 0.17647-0.08823c0.065767-1e-6 0.17647 0.08823 0.17647 0.08823l0.70588 0.70588-2.7353 2.7353c-0.097461 0.09746-0.097461 0.25548 0 0.35294l-3.5294 3.5294v1.4118h1.4118l3.5294-3.5294c0.097461 0.09746 0.25548 0.09746 0.35294 0l2.7353-2.7353 0.70588 0.70588s0.088235 0.1107 0.088235 0.17647c0 0.06577-0.088235 0.17647-0.088235 0.17647l-0.42084 0.41671s0.85161 0.11873 1.237 0.29539c0.32316 0.14812 0.55605 0.36804 0.86476 0.62419 0.34852 0.2892 0.83272 1.0733 0.83272 1.0733s0.16729-0.86337 0.18302-1.3011c0.01697-0.47224-0.03048-1.1514-0.09616-1.4142s-0.19589-0.90875-0.37224-1.3359c-0.13092-0.31713-0.5039-0.89752-0.5039-0.89752s-0.09956 0.47844-0.1968 0.7007c-0.05334 0.12192-0.1206 0.23715-0.19336 0.34915l-0.80479-0.80479 0.97058-0.97058c0.09746-0.09746 0.09746-0.25548 0-0.35294l-0.3078-0.3078 0.12442-0.12442c0.3234 0.06093 0.65606-0.04144 0.88924-0.27367 0.23316-0.23322 0.33609-0.56654 0.27504-0.89061l0.21611-0.21611s2.2087-1.2145 3.1903-1.9956c1.1204-0.89174 2.0755-1.9775 3.0379-3.0379 1.3049-1.4378 2.5329-2.9469 3.7015-4.4976 0.93333-1.2387 2.6381-3.8328 2.6381-3.8328z" color="#000000" stroke-linejoin="round" stroke-width="1.0004" style="paint-order:stroke fill markers"/></svg>
