<?xml version="1.0" encoding="UTF-8" standalone="no"?>
<!-- Uploaded to: SVG Repo, www.svgrepo.com, Generator: SVG Repo Mixer Tools -->

<svg
   fill="#000000"
   viewBox="0 -15 1.86 1.86"
   version="1.1"
   id="svg1"
   sodipodi:docname="weapon-pistol.svg"
   inkscape:version="1.3.2 (091e20e, 2023-11-25, custom)"
   xmlns:inkscape="http://www.inkscape.org/namespaces/inkscape"
   xmlns:sodipodi="http://sodipodi.sourceforge.net/DTD/sodipodi-0.dtd"
   xmlns="http://www.w3.org/2000/svg"
   xmlns:svg="http://www.w3.org/2000/svg"
   xmlns:rdf="http://www.w3.org/1999/02/22-rdf-syntax-ns#"
   xmlns:cc="http://creativecommons.org/ns#"
   xmlns:dc="http://purl.org/dc/elements/1.1/">
  <defs
     id="defs1" />
  <sodipodi:namedview
     id="namedview1"
     pagecolor="#ffffff"
     bordercolor="#666666"
     borderopacity="1.0"
     inkscape:showpageshadow="2"
     inkscape:pageopacity="0.0"
     inkscape:pagecheckerboard="0"
     inkscape:deskcolor="#d1d1d1"
     inkscape:zoom="10.74"
     inkscape:cx="13.96648"
     inkscape:cy="12.243948"
     inkscape:window-width="1360"
     inkscape:window-height="715"
     inkscape:window-x="-8"
     inkscape:window-y="-8"
     inkscape:window-maximized="1"
     inkscape:current-layer="svg1" />
  <title
     id="title1">hand_cannon</title>
  <path
     d="m 1.7295616,-14.826312 -0.09102,0.05255 0.020404,0.03534 0.03962,-0.02288 0.01689,0.0045 0.068006,0.11779 -0.020769,0.02338 -0.7553278,0.484635 -0.0584999,-0.01477 -0.0299834,0.01731 -0.023657,0.09503 -0.013921,0.0081 0.006803,0.01178 -0.0460422,0.165076 -0.0237864,0.06514 -0.0275877,0.03877 -0.0481013,0.04776 -0.0495505,0.03287 -0.0420868,0.01861 -0.0442803,0.0099 -0.0464672,0.0011 -0.0326115,0.01031 -0.0276799,0.01883 -0.0140507,0.01523 -0.003126,0.02179 0.009201,0.03324 0.0166945,0.02892 -0.0130511,0.0318 -4.8692e-4,0.02883 0.0364559,0.12744 0.0439293,0.04889 0.0289985,0.0032 0.008036,0.01392 -0.0183358,0.01771 -0.30517808,0.07483 -0.0174301,-0.02277 -0.0252278,-0.05112 -0.0249833,-0.06553 -0.0212845,-0.09622 -0.009917,-0.09137 0.004669,-0.08835 0.0201149,-0.0987 0.00596,-0.03914 -0.00532,-0.02405 -0.015456,-0.02676 -0.0281385,-0.01659 -0.042843,-0.01239 -0.0526046,3.84e-4 0.0104123,-0.03885 0.0556834,-0.03214 0.004813,-0.02134 0.0497884,-0.04731 0.005555,-0.02747 0.004148,-0.03238 -0.005078,-0.03847 -0.0133566,-0.03797 0.00477,-0.03131 0.0160624,-0.0093 -0.0189254,-0.04761 -0.0147146,-0.03291 0.31482281,-0.181764 0.066493,0.01872 0.84273959,-0.486556 0.00906,-0.03378 0.1873945,-0.108192 0.052977,0.0151 z m -0.92477583,0.937977 -0.0204044,-0.03534 -0.022333,-0.02137 -0.0253371,-0.0068 -0.0257316,0.0049 -0.0569153,0.03002 -0.0760283,0.04389 -0.004722,0.04128 0.009321,0.02603 0.0120363,0.01589 0.0149132,0.0085 0.018128,0.0067 -0.004707,0.01411 -0.024715,-0.0057 -0.0275221,-0.01552 -0.0294209,-0.0287 -0.0147882,-0.01572 -0.009023,0.0066 -0.009833,0.02996 -0.002461,0.03283 0.0121237,0.03584 0.0191659,0.0332 0.0323027,0.02133 0.0374461,0.0055 0.0513233,-0.0125 0.0364082,-0.02103 0.0403672,-0.029 0.0360296,-0.03652 0.0202601,-0.03167 0.0150245,-0.0358 0.005387,-0.03024 z"
     id="path1"
     style="stroke-width:1" />
  <metadata
     id="metadata1">
    <rdf:RDF>
      <cc:Work
         rdf:about="">
        <dc:title>hand_cannon</dc:title>
      </cc:Work>
    </rdf:RDF>
  </metadata>
</svg>
