<?xml version="1.0" encoding="UTF-8"?>
<!-- Uploaded to: SVG Repo, www.svgrepo.com, Generator: SVG Repo Mixer Tools -->
<svg id="svg1" fill="#000000" version="1.1" viewBox="0 -15 1.86 1.86" xmlns="http://www.w3.org/2000/svg" xmlns:cc="http://creativecommons.org/ns#" xmlns:dc="http://purl.org/dc/elements/1.1/" xmlns:rdf="http://www.w3.org/1999/02/22-rdf-syntax-ns#">
 <title id="title1">hand_cannon</title>
 <path id="path1" d="m1.7296-14.826-0.09102 0.05255 0.020404 0.03534 0.03962-0.02288 0.01689 0.0045 0.068006 0.11779-0.020769 0.02338-0.75533 0.48464-0.0585-0.01477-0.029983 0.01731-0.023657 0.09503-0.013921 0.0081 0.006803 0.01178-0.046042 0.16508-0.023786 0.06514-0.027588 0.03877-0.048101 0.04776-0.04955 0.03287-0.042087 0.01861-0.04428 0.0099-0.046467 0.0011-0.032612 0.01031-0.02768 0.01883-0.014051 0.01523-0.003126 0.02179 0.009201 0.03324 0.016694 0.02892-0.013051 0.0318-4.8692e-4 0.02883 0.036456 0.12744 0.043929 0.04889 0.028998 0.0032 0.008036 0.01392-0.018336 0.01771-0.30518 0.07483-0.01743-0.02277-0.025228-0.05112-0.024983-0.06553-0.021284-0.09622-0.009917-0.09137 0.004669-0.08835 0.020115-0.0987 0.00596-0.03914-0.00532-0.02405-0.015456-0.02676-0.028138-0.01659-0.042843-0.01239-0.052605 3.84e-4 0.010412-0.03885 0.055683-0.03214 0.004813-0.02134 0.049788-0.04731 0.005555-0.02747 0.004148-0.03238-0.005078-0.03847-0.013357-0.03797 0.00477-0.03131 0.016062-0.0093-0.018925-0.04761-0.014715-0.03291 0.31482-0.18176 0.066493 0.01872 0.84274-0.48656 0.00906-0.03378 0.18739-0.10819 0.052977 0.0151zm-0.92478 0.93798-0.020404-0.03534-0.022333-0.02137-0.025337-0.0068-0.025732 0.0049-0.056915 0.03002-0.076028 0.04389-0.004722 0.04128 0.009321 0.02603 0.012036 0.01589 0.014913 0.0085 0.018128 0.0067-0.004707 0.01411-0.024715-0.0057-0.027522-0.01552-0.029421-0.0287-0.014788-0.01572-0.009023 0.0066-0.009833 0.02996-0.002461 0.03283 0.012124 0.03584 0.019166 0.0332 0.032303 0.02133 0.037446 0.0055 0.051323-0.0125 0.036408-0.02103 0.040367-0.029 0.03603-0.03652 0.02026-0.03167 0.015024-0.0358 0.005387-0.03024z"/>
 <metadata id="metadata1">
  <rdf:RDF>
   <cc:Work rdf:about="">
    <dc:title>hand_cannon</dc:title>
   </cc:Work>
  </rdf:RDF>
 </metadata>
</svg>
