<?xml version="1.0" encoding="UTF-8" standalone="no"?>
<svg
   viewBox="0 0 24 24"
   version="1.1"
   id="svg1"
   sodipodi:docname="prop-explosive.svg"
   width="24"
   height="24"
   inkscape:version="1.3.2 (091e20e, 2023-11-25, custom)"
   xmlns:inkscape="http://www.inkscape.org/namespaces/inkscape"
   xmlns:sodipodi="http://sodipodi.sourceforge.net/DTD/sodipodi-0.dtd"
   xmlns="http://www.w3.org/2000/svg"
   xmlns:svg="http://www.w3.org/2000/svg">
  <defs
     id="defs1" />
  <sodipodi:namedview
     id="namedview1"
     pagecolor="#ffffff"
     bordercolor="#111111"
     borderopacity="1"
     inkscape:showpageshadow="0"
     inkscape:pageopacity="0"
     inkscape:pagecheckerboard="1"
     inkscape:deskcolor="#d1d1d1"
     inkscape:zoom="11.468388"
     inkscape:cx="12.381862"
     inkscape:cy="14.605366"
     inkscape:window-width="1366"
     inkscape:window-height="697"
     inkscape:window-x="-8"
     inkscape:window-y="-8"
     inkscape:window-maximized="1"
     inkscape:current-layer="svg1" />
  <!--! Font Awesome Free 6.6.0 by @fontawesome - https://fontawesome.com License - https://fontawesome.com/license/free (Icons: CC BY 4.0, Fonts: SIL OFL 1.1, Code: MIT License) Copyright 2024 Fonticons, Inc.-->
  <path
     d="m 19.898263,2.8670642 c 0.250086,-0.3993924 0.765191,-0.5412326 1.183246,-0.3172743 0.418055,0.2239583 0.589757,0.7278645 0.39566,1.1571179 L 16.359722,15.083991 c 0.08212,0.08585 0.160502,0.175433 0.235156,0.265016 l 3.628124,-2.041753 c 0.391928,-0.220225 0.880904,-0.115711 1.153386,0.238889 0.272482,0.354601 0.235156,0.858507 -0.08212,1.175781 l -3.247395,3.247396 h -2.665104 c -0.492708,-1.392275 -1.817795,-2.388889 -3.378037,-2.388889 -1.560244,0 -2.8890633,0.996614 -3.3780389,2.388889 H 5.6545138 L 2.8289063,16.020882 C 2.4668404,15.770795 2.3399306,15.289286 2.5340279,14.889893 2.7281251,14.4905 3.183507,14.296404 3.6052952,14.427046 l 3.6281247,1.134722 C 7.345399,15.416195 7.4611109,15.274355 7.5842879,15.13998 L 5.258854,11.265501 C 5.031163,10.888505 5.1132811,10.403262 5.4492186,10.119582 5.7851561,9.8359007 6.2778644,9.8396327 6.6100691,10.123382 l 3.8222229,3.280991 c 0.05599,-0.01493 0.111978,-0.02986 0.167969,-0.04105 L 11.107899,8.0367686 C 11.15269,7.5776541 11.537152,7.226786 12,7.226786 c 0.462847,0 0.847309,0.3508681 0.892099,0.8099826 l 0.503907,5.2966144 z M 3.6388888,19.167497 H 21.555555 c 0.660676,0 1.194445,0.533767 1.194445,1.194445 0,0.660677 -0.533769,1.194444 -1.194445,1.194444 H 2.4444445 c -0.6606771,0 -1.1944444,-0.533767 -1.1944444,-1.194444 0,-0.660678 0.5337673,-1.194445 1.1944443,-1.194445 z M 12,2.445276 c 0.49644,0 0.895833,0.3993923 0.895833,0.8958333 v 1.7916665 c 0,0.4964409 -0.399393,0.8958333 -0.895833,0.8958333 -0.496441,0 -0.895833,-0.3993924 -0.895833,-0.8958333 V 3.3411093 C 11.104167,2.8446683 11.503559,2.445276 12,2.445276"
     id="path1"
     style="stroke-width:1" />
</svg>
