<?xml version="1.0" encoding="UTF-8"?>
<svg id="svg1" version="1.1" viewBox="0 0 24 24" xml:space="preserve" xmlns="http://www.w3.org/2000/svg"><path id="path1" d="m11.458 2.25a9.2542 9.2542 0 0 0-6.5149 2.6931l-2.4541-2.4541v6.543h6.543l-2.4541-2.4541a6.9407 6.9407 0 0 1 7.1194-1.6649l1.7593-1.7593a9.2542 9.2542 0 0 0-3.9985-0.90373zm8.9389 1.3516s-1.5258 0.00151-3.0526 1.5283l-0.76315 0.76315 1.5263 1.5263 0.76315-0.76315s1.5263-1.5278 1.5263-3.0546zm-4.5789 3.0546-2.2915 2.2915-1.9079 0.37957-6.4888 6.4908 3.0546 3.0546 6.4888-6.4908 0.38158-1.9079 2.2895-2.2915zm-0.84951 8.3123 2.4541 2.4541a6.9407 6.9407 0 0 1-7.1194 1.6649l-1.7593 1.7593a9.2542 9.2542 0 0 0 10.513-1.7894l2.4541 2.4541v-6.543zm-10.602 1.6106-0.76315 0.76516 3.0546 3.0546 0.76315-0.76516z"/></svg>
