<?xml version="1.0" encoding="UTF-8"?>
<svg id="svg1" version="1.1" viewBox="0 0 24 24" xml:space="preserve" xmlns="http://www.w3.org/2000/svg"><path id="path1-9" d="m17.219 2.9683a3.7669 3.7669 0 0 0-2.6505 1.1048l-0.07271 0.07506a3.7669 3.7669 0 0 0-0.99922 2.2049l-2.8546 4.5247-4.0532 6.5231 6.5208-4.0532 4.5645-2.8757a3.7669 3.7669 0 0 0 2.2612-1.1095 3.7669 3.7669 0 0 0-0.058637-5.3081 3.7669 3.7669 0 0 0-2.6576-1.086zm-10.996 0.10555a2.9557 2.9557 0 0 0-3.0305 2.1861l-0.018769 0.079754a2.9557 2.9557 0 0 0 0.18531 1.8905l-0.16419 4.1939-0.19468 6.0235 2.8405-5.3128 1.9726-3.7459a2.9557 2.9557 0 0 0 1.1001-1.6419 2.9557 2.9557 0 0 0-2.1204-3.5841 2.9557 2.9557 0 0 0-0.56998-0.089132zm11.522 11.958a2.9449 2.9449 0 0 0-0.56763 0.09383l-0.07977 0.02345a2.9449 2.9449 0 0 0-1.5387 1.1024l-3.7014 1.9468-5.294 2.8335 6-0.19469 4.215-0.16419a2.9449 2.9449 0 0 0 1.9633 0.13135 2.9449 2.9449 0 0 0 2.036-3.6169 2.9449 2.9449 0 0 0-3.0329-2.1556z" stroke-width=".99999" style="paint-order:stroke markers fill"/></svg>
