<?xml version="1.0" encoding="UTF-8" standalone="no"?>
<svg
   id="svg1"
   version="1.1"
   viewBox="0 0 24 24"
   xml:space="preserve"
   sodipodi:docname="prop-light.svg"
   inkscape:version="1.4 (86a8ad7, 2024-10-11)"
   xmlns:inkscape="http://www.inkscape.org/namespaces/inkscape"
   xmlns:sodipodi="http://sodipodi.sourceforge.net/DTD/sodipodi-0.dtd"
   xmlns="http://www.w3.org/2000/svg"
   xmlns:svg="http://www.w3.org/2000/svg"><defs
     id="defs1" /><sodipodi:namedview
     id="namedview1"
     pagecolor="#ffffff"
     bordercolor="#111111"
     borderopacity="1"
     inkscape:showpageshadow="0"
     inkscape:pageopacity="0"
     inkscape:pagecheckerboard="1"
     inkscape:deskcolor="#d1d1d1"
     inkscape:zoom="11.888233"
     inkscape:cx="0.25235038"
     inkscape:cy="7.1078689"
     inkscape:window-width="1920"
     inkscape:window-height="1009"
     inkscape:window-x="-8"
     inkscape:window-y="-8"
     inkscape:window-maximized="1"
     inkscape:current-layer="svg1" /><g
     id="g1"
     transform="matrix(0.9,0,0,0.9,1.425,1.4252343)"><path
       id="path1"
       d="m 1.75,1.7512373 c 0,0 7.6398137,-0.369991 13.660155,7.8798078 C 20.030042,15.960842 21.75,21.750749 21.75,21.750749 L 19.810047,20.750774 C 18.370082,18.250835 17.620052,17.220909 16.210135,15.750896 13.680246,16.490878 11.04031,16.40088 8.7503171,13.750945 10.750268,13.190958 12.350229,13.320955 14.710172,13.560949 12.060285,11.751042 10.25028,11.351052 7.7503415,11.751042 L 6.7503658,9.7510909 C 8.5503219,9.4110992 9.7502927,9.3811 11.530249,9.79109 9.5602485,8.4011726 8.1903307,7.6211917 5.7503902,7.7511397 L 4.5404685,5.8212356 C 6.1004305,5.7112382 7.0404076,5.8812341 8.8303151,6.3212234 7.2204032,4.861259 5.7503902,4.2012751 3.6104424,4.071327 c 0,0 -1.0499256,-1.8899051 -1.8599546,-2.3199434 z"
       style="stroke-width:0.975586" /><path
       id="path1-6"
       d="m 18.049115,2.1505446 c 0,0 2.874856,1.4791834 3.334943,5.771469 0.353376,3.2935784 -0.240677,5.7765424 -0.240677,5.7765424 l -0.498808,-0.776059 c 0.0013,-1.219483 -0.05563,-1.754982 -0.261086,-2.591157 -1.08251,-0.263818 -2.029902,-0.8547009 -2.308139,-2.308724 0.850467,0.2176923 1.408649,0.6034292 2.221897,1.1900198 C 19.709728,7.9900314 19.131713,7.4610687 18.13203,7.0791268 l 0.05663,-0.9434501 c 0.730753,0.2559547 1.176362,0.4985927 1.741324,1.024853 C 19.502621,6.235362 19.165965,5.6602736 18.245344,5.1921875 l -0.03503,-0.9622107 c 0.594297,0.2894271 0.902456,0.550328 1.464744,1.0897295 -0.280793,-0.8747006 -0.679407,-1.4269896 -1.435282,-1.9268798 0,0 0.01508,-0.9137533 -0.190551,-1.2423112 z"
       stroke-width="0.975576"
       sodipodi:nodetypes="cccccccccccccccc" /><path
       id="path1-6-4"
       d="m 1.9981891,15.525243 c 0,0 3.0787541,-0.986903 6.43916,1.722885 2.5787659,2.078973 3.9144409,4.254823 3.9144409,4.254823 L 11.45032,21.306897 C 10.588916,20.443698 10.16996,20.105268 9.4334906,19.659327 8.4814944,20.23824 7.3937355,20.490302 6.1688873,19.658879 6.924186,19.211446 7.5916819,19.089478 8.5815114,18.929287 7.3015426,18.480205 6.51883,18.514897 5.5418782,18.951715 L 4.9148009,18.244542 C 5.6125107,17.908814 6.0991622,17.765286 6.8707532,17.73795 5.9143667,17.385958 5.269719,17.217377 4.2876942,17.537379 L 3.5825309,16.881766 c 0.6248823,-0.215575 1.027292,-0.248999 1.8061999,-0.265184 -0.8170533,-0.41996 -1.4894271,-0.528611 -2.3774055,-0.347572 0,0 -0.6354576,-0.656794 -1.0132435,-0.743738 z"
       stroke-width="0.975576" /></g></svg>
