<?xml version="1.0" encoding="UTF-8"?>
<svg id="svg1" version="1.1" viewBox="0 0 24 24" xml:space="preserve" xmlns="http://www.w3.org/2000/svg"><path id="path1" d="m11.059 1.8882c-2.1916 0-4.2004 1.1691-5.7625 3.1095 0.50594-0.29519 1.0388-0.50441 1.5887-0.6254 0.37913-0.083467 0.76512-0.12559 1.1542-0.12727 1.1673-0.0055 2.3623 0.35005 3.4979 1.0292 2.9997 1.7941 5.6163 5.8213 6.5108 11.654l-2.0934 0.53543 3.1468 4.6477 3.149-6.2562-2.1966 0.55957c0.02388-0.36144 0.0395-0.72683 0.0395-1.0972-4e-6 -7.4153-4.0596-13.43-9.0343-13.43zm-3.3135 3.9916c-0.3356 0.0018364-0.66606 0.038474-0.98967 0.10972-1.2905 0.28396-2.4893 1.1204-3.4452 2.6201-0.38837 0.84934-0.71024 1.7715-0.96114 2.7452-0.38491 1.4937-0.59907 3.1126-0.59907 4.8079 0 0.67691 0.057985 1.3292 0.12289 1.9793 0.22555-2.1181 0.82217-4.0514 1.6875-5.6484 1.4723-2.7172 3.7224-4.4568 6.2474-4.4568 1.4702 0 2.8448 0.59224 4.0267 1.6238-0.91515-1.2692-1.9453-2.2296-3.0019-2.8615-1.0307-0.61647-2.0807-0.92461-3.0875-0.91945z"/></svg>
