<?xml version="1.0" encoding="UTF-8"?>
<svg id="svg1" version="1.1" viewBox="0 0 24 24" xml:space="preserve" xmlns="http://www.w3.org/2000/svg"><path id="rect14" d="m18.519 1.5116c0.10206-0.00747 0.20169 0.022726 0.27404 0.095075l3.6091 3.6091c0.1447 0.1447 0.12656 0.39728-0.04101 0.56486l-0.83144 0.83144c-0.16758 0.16758-0.4183 0.18571-0.563 0.041012l-3.611-3.611c-0.1447-0.1447-0.12657-0.39542 0.041013-0.56299l0.83144-0.82958c0.08379-0.083789 0.18876-0.13047 0.29082-0.13795zm-2.5409 1.3012c0.10182-0.00725 0.19983 0.024592 0.27218 0.09694l4.8488 4.8488c0.1447 0.1447 0.12842 0.39542-0.03915 0.56299l-0.83144 0.83144c-0.16758 0.16758-0.42016 0.18571-0.56486 0.041013l-4.8488-4.8488c-0.1447-0.1447-0.12656-0.39728 0.041014-0.56486l0.83144-0.83144c0.08378-0.083789 0.189-0.12884 0.29082-0.13609zm-2.2296 2.1849c0.18957-0.0059 0.37845 0.063394 0.52198 0.20693l4.5338 4.5338a0.70583 0.70583 0 0 1 0.17524 0.71027l-1.743 6.2134c-0.02014 0.14102-0.08998 0.27267-0.19574 0.37844s-0.23742 0.1756-0.37844 0.19574l-6.2134 1.743c-0.24678 0.07555-0.51889 0.01614-0.71027-0.17524l-4.5338-4.5338c-0.19138-0.19138-0.25078-0.46349-0.17524-0.71027l1.743-6.2134c0.020144-0.14102 0.08998-0.27267 0.19574-0.37844 0.10576-0.10576 0.23742-0.1756 0.37844-0.19574l6.2134-1.743c0.0617-0.018886 0.1251-0.029724 0.18829-0.031692zm-1.743 3.4451a3.5612 3.5612 0 0 0-2.5186 1.044 3.5612 3.5612 0 0 0 0 5.0353 3.5612 3.5612 0 0 0 5.0353 0 3.5612 3.5612 0 0 0 0-5.0353 3.5612 3.5612 0 0 0-2.5167-1.044zm-7.9434 6.2656c0.10205-0.0074 0.20169 0.02458 0.27404 0.09694l4.8488 4.8488c0.1447 0.1447 0.12657 0.39728-0.041014 0.56486l-0.83144 0.83144c-0.16758 0.16756-0.4183 0.18384-0.56299 0.03915l-4.8488-4.8488c-0.1447-0.1447-0.12843-0.39542 0.039158-0.56299l0.83144-0.83144c0.083795-0.0838 0.18877-0.13047 0.29082-0.13795zm-1.3012 2.5409c0.10182-0.0072 0.19983 0.02459 0.27218 0.09694l3.611 3.611c0.14469 0.1447 0.12656 0.39542-0.041014 0.56299l-0.83144 0.82958c-0.16758 0.16757-0.42016 0.18757-0.56486 0.04288l-3.6091-3.6091c-0.1447-0.1447-0.12657-0.39728 0.041014-0.56486l0.83144-0.83145c0.083785-0.08378 0.189-0.13071 0.29082-0.13795z" stroke-width=".99999" style="paint-order:stroke markers fill"/></svg>
