<?xml version="1.0" encoding="UTF-8" standalone="no"?>
<!-- Created with Inkscape (http://www.inkscape.org/) -->

<svg
   width="24"
   height="24"
   viewBox="0 0 6.3500001 6.3500001"
   version="1.1"
   id="svg1"
   xml:space="preserve"
   inkscape:version="1.4 (86a8ad7, 2024-10-11)"
   sodipodi:docname="prop-burst.svg"
   xmlns:inkscape="http://www.inkscape.org/namespaces/inkscape"
   xmlns:sodipodi="http://sodipodi.sourceforge.net/DTD/sodipodi-0.dtd"
   xmlns="http://www.w3.org/2000/svg"
   xmlns:svg="http://www.w3.org/2000/svg"><sodipodi:namedview
     id="namedview1"
     pagecolor="#ffffff"
     bordercolor="#111111"
     borderopacity="1"
     inkscape:showpageshadow="0"
     inkscape:pageopacity="0"
     inkscape:pagecheckerboard="1"
     inkscape:deskcolor="#d1d1d1"
     inkscape:document-units="mm"
     inkscape:zoom="11.502694"
     inkscape:cx="5.8681907"
     inkscape:cy="11.953722"
     inkscape:window-width="1920"
     inkscape:window-height="1009"
     inkscape:window-x="-8"
     inkscape:window-y="-8"
     inkscape:window-maximized="1"
     inkscape:current-layer="layer1" /><defs
     id="defs1" /><g
     inkscape:label="Layer 1"
     inkscape:groupmode="layer"
     id="layer1"><g
       id="g2"
       transform="matrix(1.0597782,0,0,1.0597782,-0.23200471,-0.0888985)"><path
         id="path2"
         style="stroke-width:0.0342495"
         d="m 1.7450415,2.4113529 -7.92e-4,0.7612715 -0.00158,0.7612714 0.1980417,7.921e-4 v 7.92e-4 l 0.9917918,0.00158 0.9917919,0.00158 7.92e-4,-0.7612717 0.00158,-0.7612716 -0.991792,-0.00158 -0.7549342,-0.00158 v -7.923e-4 l -0.2170535,-10e-8 z m 2.4533384,0.00475 -0.00158,0.7612716 -7.92e-4,0.7612715 0.08397,-4e-7 C 4.5176674,3.9390041 4.7933494,3.8742616 5.0254063,3.7635794 5.2813127,3.6415209 5.4779339,3.4838112 5.6472567,3.2637226 l 0.064163,-0.08397 -0.064166,-0.08397 C 5.4785893,2.8751873 5.2825252,2.7163743 5.0269855,2.593551 4.7952614,2.4821737 4.5200384,2.4172487 4.2823495,2.4168978 Z" /><path
         id="path2-3"
         style="stroke-width:0.0285413"
         d="m 0.72021655,0.6223331 -6.601e-4,0.6343969 -0.00132,0.6343961 0.1650355,6.603e-4 2e-7,6.605e-4 0.82649835,0.00131 0.8264979,0.00131 6.603e-4,-0.6343967 0.00131,-0.63439668 -0.8264987,-0.001317 -0.6291155,-0.001316 4e-7,-6.6074e-4 -0.18087925,6.4e-7 z m 2.04446065,0.00396 -0.00131,0.6343967 -6.599e-4,0.6343964 0.069975,1e-7 C 3.030752,1.8953841 3.2604881,1.8414304 3.4538701,1.7491953 3.6671258,1.6474782 3.8309787,1.5160538 3.9720817,1.3326454 l 0.053446,-0.069989 -0.053476,-0.069978 C 3.831525,1.0088636 3.668137,0.87651899 3.4551858,0.77416632 3.2620812,0.6813519 3.0327274,0.62724712 2.8346524,0.62695455 Z" /><path
         id="path2-3-6"
         style="stroke-width:0.0220368"
         d="m 3.0868916,4.5545547 -5.096e-4,0.4898198 -0.00102,0.4898195 0.1274239,5.104e-4 2e-7,5.099e-4 0.6381422,0.00101 0.6381421,0.00102 5.098e-4,-0.4898196 0.00102,-0.4898198 -0.6381425,-0.00102 -0.485742,-0.00102 3e-7,-5.101e-4 -0.1396573,6e-7 z m 1.5785348,0.00306 -0.00102,0.4898199 -5.096e-4,0.4898196 0.054028,-3e-7 C 4.8708637,5.5374815 5.0482436,5.4958238 5.1975545,5.4246087 5.3622098,5.3460727 5.4887213,5.2445993 5.5976674,5.1029891 l 0.04126,-0.054044 -0.041289,-0.05403 C 5.4891431,4.852996 5.3629907,4.7508125 5.1985703,4.6717856 5.0494736,4.6001231 4.8723889,4.5583487 4.7194544,4.5581228 Z" /></g></g></svg>
