<?xml version="1.0" encoding="UTF-8"?>
<svg id="svg1" version="1.1" viewBox="0 0 24 24" xml:space="preserve" xmlns="http://www.w3.org/2000/svg"><path id="path1-0-8" d="m4.5591 2v1.8182h0.90909v9.0909l-2.7273 5.4545 8.1818 3.6364 0.79901-1.9993a5.9091 5.9091 0 0 1-0.83274-2.9173 5.9091 5.9091 0 0 1 3.6701-5.5362v-7.729h0.90909v-1.8182zm2.7273 1.8182h5.4545v1.8182h-3.7447v7.6811l-2.0739 4.2649-1.4542-0.58239 1.8182-3.6364zm8.5263 8.9258a4.4213 4.4213 0 0 0-2.168 1.1914 4.4604 4.4604 0 0 0 0 6.3068l-1.1825 1.1825h3.1534v-3.1534l-1.1825 1.1825a3.3453 3.3453 0 0 1 0-4.7301c0.39424-0.39425 0.87498-0.67938 1.3796-0.82919zm2.1697 0.0065v3.1552l1.1825-1.1825a3.3453 3.3453 0 0 1 0 4.7301c-0.39424 0.39424-0.87498 0.6776-1.3796 0.82741v1.1524a4.4213 4.4213 0 0 0 2.168-1.1914 4.4604 4.4604 0 0 0 0-6.3068l1.1825-1.1843z"/></svg>
