<?xml version="1.0" encoding="UTF-8"?>
<svg id="svg1" width="24" height="24" version="1.1" viewBox="0 0 24 24" xmlns="http://www.w3.org/2000/svg">
 <!--! Font Awesome Free 6.6.0 by @fontawesome - https://fontawesome.com License - https://fontawesome.com/license/free (Icons: CC BY 4.0, Fonts: SIL OFL 1.1, Code: MIT License) Copyright 2024 Fonticons, Inc.-->
 <path id="path1" d="m19.898 2.8671c0.25009-0.39939 0.76519-0.54123 1.1832-0.31727s0.58976 0.72786 0.39566 1.1571l-5.1174 11.377c0.08212 0.08585 0.1605 0.17543 0.23516 0.26502l3.6281-2.0418c0.39193-0.22022 0.8809-0.11571 1.1534 0.23889 0.27248 0.3546 0.23516 0.85851-0.08212 1.1758l-3.2474 3.2474h-2.6651c-0.49271-1.3923-1.8178-2.3889-3.378-2.3889-1.5602 0-2.8891 0.99661-3.378 2.3889h-2.9712l-2.8256-1.9484c-0.36207-0.25009-0.48898-0.7316-0.29488-1.131 0.1941-0.39939 0.64948-0.59349 1.0713-0.46285l3.6281 1.1347c0.11198-0.14557 0.22769-0.28741 0.35087-0.42179l-2.3254-3.8745c-0.22769-0.377-0.14557-0.86224 0.19036-1.1459 0.33594-0.28368 0.82865-0.27995 1.1609 0.0038l3.8222 3.281c0.05599-0.01493 0.11198-0.02986 0.16797-0.04105l0.50764-5.3266c0.044791-0.45911 0.42925-0.80998 0.8921-0.80998 0.46285 0 0.84731 0.35087 0.8921 0.80998l0.50391 5.2966zm-16.259 16.3h17.917c0.66068 0 1.1944 0.53377 1.1944 1.1944 0 0.66068-0.53377 1.1944-1.1944 1.1944h-19.111c-0.66068 0-1.1944-0.53377-1.1944-1.1944 0-0.66068 0.53377-1.1944 1.1944-1.1944zm8.3611-16.722c0.49644 0 0.89583 0.39939 0.89583 0.89583v1.7917c0 0.49644-0.39939 0.89583-0.89583 0.89583-0.49644 0-0.89583-0.39939-0.89583-0.89583v-1.7917c0-0.49644 0.39939-0.89583 0.89583-0.89583"/>
</svg>
