<?xml version="1.0" encoding="UTF-8"?>
<svg id="svg1" version="1.1" viewBox="0 0 24 24" xml:space="preserve" xmlns="http://www.w3.org/2000/svg"><path id="path1" d="m9.4478 2.9172c0.27258 0.018081 0.53759 0.14037 0.73229 0.36289l6.6297 7.5098 0.48023-0.42373-1.0908-3.0465c-0.16688-0.4784-0.11273-1.0133 0.15428-1.4472l0.3455-0.61278a0.85111 0.85111 0 0 1 1.5363 0.14559l2.3685 6.5971a6.7755 6.7755 0 0 1-1.9122 7.3772 6.82 6.82 0 0 1-9.6349-0.61278l-5.7866-6.5863c-0.38939-0.41165-0.35593-1.0904 0.089091-1.4798 0.44503-0.38939 1.1252-0.34507 1.5146 0.09995l3.5267 3.9939 0.63233-0.56714-5.2173-5.9409c-0.3894-0.41165-0.33394-1.0904 0.099953-1.4798 0.4339-0.3894 1.1121-0.34507 1.5015 0.099952l5.2195 5.9192 0.64537-0.56715-6.0539-6.8753c-0.41165-0.4339-0.3668-1.1252 0.078228-1.5146 0.4339-0.38939 1.1121-0.34507 1.5015 0.099953l6.0648 6.8775 0.64537-0.56932-4.9522-5.5954c-0.37827-0.4339-0.33177-1.1121 0.10213-1.5015 0.22807-0.1947 0.50752-0.28101 0.7801-0.26293z"/></svg>
