<?xml version="1.0" encoding="UTF-8" standalone="no"?>
<svg
   id="svg1"
   version="1.1"
   viewBox="0 0 24 24"
   xml:space="preserve"
   xmlns="http://www.w3.org/2000/svg"
   xmlns:svg="http://www.w3.org/2000/svg"><defs
     id="defs1" /><path
     id="path1"
     d="m 20.644619,3.0040399 a 0.3048827,0.3048827 0 0 0 -0.107181,0.038656 l -3.501878,2.0803814 -4.535006,2.7357577 -0.0018,0.00176 -0.0018,0.00176 0.0018,0.00176 -0.312763,2.1067404 -0.179224,1.3441296 a 0.60175874,0.60175874 0 0 0 0.676473,0.676472 l 1.344129,-0.179223 2.10674,-0.312764 0.0018,0.0018 0.0018,-0.0018 0.0018,-0.0018 2.737557,-4.5350072 2.078582,-3.5018778 a 0.3048827,0.3048827 0 0 0 -0.311,-0.4568383 z M 10.89629,11.548672 a 0.47432695,0.54264442 43.919 0 0 -0.448058,0.172197 l -2.7533002,2.770933 a 0.47458784,0.54295029 43.919 0 0 -0.047441,0.720402 L 8.82294,16.392961 a 0.47458784,0.5429413 43.919 0 0 0.7168926,-0.04744 l 2.7550994,-2.767424 a 0.47432695,0.54264442 43.919 0 0 0.0492,-0.722156 l -1.177251,-1.182558 a 0.47432695,0.54264442 43.919 0 0 -0.270588,-0.124751 z m -5.251917,4.055327 a 2.6988731,2.6988731 0 0 0 -2.6426466,2.735758 2.6988731,2.6988731 0 0 0 2.718215,2.660189 2.6988731,2.6988731 0 0 0 2.6795312,-2.698873 v -0.07555 A 2.6988731,2.6988731 0 0 0 5.644373,15.603924 Z"
     style="stroke-width:0.899624;paint-order:stroke markers fill" /></svg>
