<?xml version="1.0" encoding="UTF-8" standalone="no"?>
<svg
   id="svg1"
   version="1.1"
   viewBox="0 0 24 24"
   xml:space="preserve"
   sodipodi:docname="prop-versatile.svg"
   inkscape:version="1.4 (86a8ad7, 2024-10-11)"
   xmlns:inkscape="http://www.inkscape.org/namespaces/inkscape"
   xmlns:sodipodi="http://sodipodi.sourceforge.net/DTD/sodipodi-0.dtd"
   xmlns="http://www.w3.org/2000/svg"
   xmlns:svg="http://www.w3.org/2000/svg"><defs
     id="defs1" /><sodipodi:namedview
     id="namedview1"
     pagecolor="#ffffff"
     bordercolor="#111111"
     borderopacity="1"
     inkscape:showpageshadow="0"
     inkscape:pageopacity="0"
     inkscape:pagecheckerboard="1"
     inkscape:deskcolor="#d1d1d1"
     inkscape:zoom="2.9720582"
     inkscape:cx="-83.275624"
     inkscape:cy="-11.608117"
     inkscape:window-width="1920"
     inkscape:window-height="1009"
     inkscape:window-x="-8"
     inkscape:window-y="-8"
     inkscape:window-maximized="1"
     inkscape:current-layer="svg1" /><path
     id="path1"
     style="stroke-width:0.9576;stroke-dasharray:none;paint-order:markers fill stroke"
     d="M 12 3 A 9 9 0 0 0 3 12 A 9 9 0 0 0 5.2421875 17.9375 L 7.7636719 14.648438 A 5 5 0 0 1 7 12 A 5 5 0 0 1 12 7 A 5 5 0 0 1 13.460938 7.21875 L 15.982422 3.9316406 A 9 9 0 0 0 12 3 z M 18.759766 6.0605469 L 16.238281 9.3496094 A 5 5 0 0 1 17 12 A 5 5 0 0 1 12 17 A 5 5 0 0 1 10.541016 16.777344 L 8.0253906 20.058594 A 9 9 0 0 0 12 21 A 9 9 0 0 0 21 12 A 9 9 0 0 0 18.759766 6.0605469 z " /></svg>
