<?xml version="1.0" encoding="UTF-8"?>
<svg id="svg1" version="1.1" viewBox="0 0 24 24" xml:space="preserve" xmlns="http://www.w3.org/2000/svg"><path id="path1" d="m18.936 2a3 3 0 0 0-2.9355 3.043 3 3 0 0 0 3.0215 2.957 3 3 0 0 0 2.9785-3l-0.001953-0.083984a3 3 0 0 0-3.0625-2.916zm-4.082 5.2246a0.5286 0.5286 0 0 0-0.29102 0.14844l-2.6895 2.6914a0.5289 0.5289 0 0 0 0 0.74805l1.3145 1.3145a0.5289 0.5289 0 0 0 0.74805 0l2.6914-2.6895a0.52861 0.52861 0 0 0 0-0.74805l-1.3164-1.3164a0.5286 0.5286 0 0 0-0.45703-0.14844zm-4.7188 4.2812a0.5286 0.5286 0 0 0-0.29102 0.14844l-2.6895 2.6914a0.5289 0.5289 0 0 0 0 0.74805l1.3145 1.3125a0.5289 0.5289 0 0 0 0.74805 0l2.6895-2.6895a0.52861 0.52861 0 0 0 0-0.74609l-1.3145-1.3164a0.5286 0.5286 0 0 0-0.45703-0.14844zm-5.1992 4.4941a3 3 0 0 0-2.9355 3.043 3 3 0 0 0 3.0215 2.957 3 3 0 0 0 2.9785-3l-0.0019531-0.083984a3 3 0 0 0-3.0625-2.916z" style="paint-order:stroke markers fill"/></svg>
