<?xml version="1.0" encoding="UTF-8"?>
<svg id="svg1" version="1.1" viewBox="0 0 24 24" xml:space="preserve" xmlns="http://www.w3.org/2000/svg"><path id="path2" d="m1.25 16.618 5.8308-0.67016-1.1394 2.0775 3.2834-1.6869c-1.216-0.83948-2.013-2.2425-2.013-3.8319 0-2.5699 2.0832-4.6533 4.6532-4.6533 1.3857 0 2.6297 0.60585 3.4822 1.567l1.3241-3.0584-2.714 1.1824-0.71077-6.2066-2.0106 5.6966-2.4128-3.6859v4.2221l-7.5-4.7284 4.8195 5.8677-3.2839 0.1341 3.8201 3.1499-3.8202 0.87135 3.0828 1.0052-4.6912 2.7478zm5.6147 6.0451 2.8023-1.9234 0.80702-3.4958-2.9993 1.9019zm5.0759-5.5042 1.2389 2.2302 0.21092-1.9674 4.2861 3.443-2.1782-4.0753 7.2374 3.7242-5.7617-5.6212 3.2321-0.28108-3.7742-1.2097c-0.41262 2.1178-2.2613 3.7218-4.4913 3.7574zm3.9296-7.0219c0.32323 0.5451 0.5382 1.1618 0.61566 1.8207l6.1316-3.3809-6.7473 1.5602zm1.4485 2.3936v1.39e-4l2.7431 0.8137 2.6882-1.164-2.9049-0.73677zm0.60567-5.9207 2.4612-1.3034 0.28046-2.6128h-9e-5l-2.36 1.1387z"/></svg>
