<?xml version="1.0" encoding="UTF-8"?>
<svg id="svg1" version="1.1" viewBox="0 0 24 24" xml:space="preserve" xmlns="http://www.w3.org/2000/svg"><path id="path1" d="m7.227 16.773a6.75 6.75 0 0 0 9.5459 0c0.7955-0.7955 1.3683-1.766 1.6705-2.7842h2.3228a8.9213 8.9213 0 0 1-2.4024 4.3752 9 9 0 0 1-12.728 0l-2.3865 2.3865v-6.364h6.364m8.7504-8.7504 2.3865-2.3865v6.364h-6.364l2.3865-2.3865a6.75 6.75 0 0 0-9.5459 0c-0.7955 0.7955-1.3683 1.766-1.6705 2.7842h-2.3228a8.9213 8.9213 0 0 1 2.4024-4.3752 9 9 0 0 1 12.728 0z"/></svg>
