<?xml version="1.0" encoding="UTF-8"?>
<svg id="svg1" version="1.1" viewBox="0 0 24 24" xml:space="preserve" xmlns="http://www.w3.org/2000/svg"><path id="path1" d="m21.607 2.0039a0.3389 0.3389 0 0 0-0.11914 0.042969l-3.8926 2.3125-5.041 3.041-0.001954 0.0019532-0.001953 0.0019531 0.001953 0.0019531-0.34766 2.3418-0.19922 1.4941a0.6689 0.6689 0 0 0 0.75195 0.75195l1.4941-0.19922 2.3418-0.34766 0.001953 0.001953 0.001953-0.001953 0.001953-0.001954 3.043-5.041 2.3105-3.8926a0.3389 0.3389 0 0 0-0.3457-0.50781zm-10.836 9.498a0.52725 0.60319 43.919 0 0-0.49805 0.19141l-3.0605 3.0801a0.52754 0.60353 43.919 0 0-0.052734 0.80078l1.3066 1.3125a0.52754 0.60352 43.919 0 0 0.79688-0.052735l3.0625-3.0762a0.52725 0.60319 43.919 0 0 0.054687-0.80273l-1.3086-1.3145a0.52725 0.60319 43.919 0 0-0.30078-0.13867zm-5.8379 4.5078a3 3 0 0 0-2.9375 3.041 3 3 0 0 0 3.0215 2.957 3 3 0 0 0 2.9785-3v-0.083984a3 3 0 0 0-3.0625-2.9141z" style="paint-order:stroke markers fill"/></svg>
