<?xml version="1.0" encoding="UTF-8"?>
<svg id="svg1" version="1.1" viewBox="0 0 24 24" xml:space="preserve" xmlns="http://www.w3.org/2000/svg"><path id="path1" d="m12 4.5a3.8 3.8 0 0 1 3.8 3.8c0 0.6935-0.1805 1.3395-0.513 1.9h2.413c0.9025 0 1.6625 0.6365 1.8525 1.482 1.9095 7.6095 1.9475 7.809 1.9475 8.018a1.9 1.9 0 0 1-1.9 1.9h-15.2a1.9 1.9 0 0 1-1.9-1.9c0-0.209 0.038-0.4085 1.9475-8.018 0.19-0.8455 0.95-1.482 1.8525-1.482h2.413a3.6955 3.6955 0 0 1-0.513-1.9 3.8 3.8 0 0 1 3.8-3.8m0 1.9a1.9 1.9 0 0 0-1.9 1.9 1.9 1.9 0 0 0 1.9 1.9 1.9 1.9 0 0 0 1.9-1.9 1.9 1.9 0 0 0-1.9-1.9z"/></svg>
