<?xml version="1.0" encoding="UTF-8"?>
<svg id="svg1" version="1.1" viewBox="0 0 24 24" xml:space="preserve" xmlns="http://www.w3.org/2000/svg"><path id="path1" d="m14.1 22.5h-4.2v-1.05h4.2l-2e-6 1.05m-1.05-12.6-2e-6 -3.15-2.1-1e-7 -1e-6 3.15-1.05 1.575v8.925l4.2-2e-6v-8.925l-1.05-1.575m-1.05-8.4s-1.05 1.05-1.05 3.15v1.05l2.1 1e-6v-1.05s0-2.1-1.05-3.15m-4.2 21h-4.2v-1.05h4.2v1.05m-1.05-12.6-2e-7 -3.15-2.1-1e-7 1e-7 3.15-1.05 1.575v8.925l4.2-2e-6 1.8e-6 -8.925-1.05-1.575m-1.05-8.4s-1.05 1.05-1.05 3.15l1e-7 1.05h2.1v-1.05s7e-7 -2.1-1.05-3.15m14.7 21h-4.2l-1e-6 -1.05 4.2 1e-6v1.05m-1.05-12.6-1e-6 -3.15h-2.1l-2e-6 3.15-1.05 1.575-1e-6 8.925h4.2l1e-6 -8.925-1.05-1.575m-1.05-8.4s-1.05 1.05-1.05 3.15v1.05h2.1v-1.05s0-2.1-1.05-3.15z"/></svg>
