<?xml version="1.0" encoding="UTF-8"?>
<svg id="svg1" version="1.1" viewBox="0 0 24 24" xml:space="preserve" xmlns="http://www.w3.org/2000/svg"><path id="path2" d="m7.7632 3.0051-4.7627 6.8955 3.9374-1.9068 0.68469 2.6417 3.9525-3.9826-0.75333-2.9112-2.3253 2.3437zm10.592 0-11.119 11.121-1.9821-1.9821-1.3175 1.3175 2.3085 2.3085-2.9715 2.9715c-0.36445 0.36445-0.36445 0.95304 0 1.3175l0.66293 0.66293a0.93076 0.93076 0 0 0 1.3175 0l3.01-2.9631 2.2801 2.3102 1.3175-1.3192-1.9804-1.9787 11.119-11.121v-2.645zm-1.0028 9.4149-3.9843 3.9525 2.6433 0.68469-1.9084 3.9374 6.8971-4.7627-3.0803-0.73324 2.3437-2.3236z"/></svg>
