<?xml version="1.0" encoding="UTF-8"?>
<svg id="svg1" version="1.1" viewBox="0 0 24 24" xmlns="http://www.w3.org/2000/svg">
 <path id="path1" d="m12 8.3636a3.6364 3.6364 0 0 1 3.6364 3.6364 3.6364 3.6364 0 0 1-3.6364 3.6364 3.6364 3.6364 0 0 1-3.6364-3.6364 3.6364 3.6364 0 0 1 3.6364-3.6364m-8.1364 4.5455h-1.8636v-1.8182h1.8636c0.40909-3.7909 3.4364-6.8182 7.2273-7.2273v-1.8636h1.8182v1.8636c3.7909 0.40909 6.8182 3.4364 7.2273 7.2273h1.8636v1.8182h-1.8636c-0.40909 3.7909-3.4364 6.8182-7.2273 7.2273v1.8636h-1.8182v-1.8636c-3.7909-0.40909-6.8182-3.4364-7.2273-7.2273m8.1364-7.2727a6.3636 6.3636 0 0 0-6.3636 6.3636 6.3636 6.3636 0 0 0 6.3636 6.3636 6.3636 6.3636 0 0 0 6.3636-6.3636 6.3636 6.3636 0 0 0-6.3636-6.3636"/>
</svg>
