<?xml version="1.0" encoding="UTF-8"?>
<svg id="svg1" version="1.1" viewBox="0 0 24 24" xml:space="preserve" xmlns="http://www.w3.org/2000/svg"><path id="path1" d="m1.75 1.7513s7.831-0.37925 14.002 8.077c4.7355 6.4882 6.4985 12.423 6.4985 12.423l-1.9885-1.025c-1.476-2.5625-2.2448-3.6182-3.69-5.125-2.5932 0.7585-5.2992 0.66625-7.6465-2.05 2.05-0.574 3.69-0.44075 6.109-0.19475-2.7162-1.8552-4.5715-2.2652-7.134-1.8552l-1.025-2.05c1.845-0.3485 3.075-0.37925 4.8995 0.041-2.0193-1.4247-3.4235-2.2242-5.9245-2.091l-1.2402-1.9782c1.599-0.11275 2.5625 0.0615 4.3972 0.5125-1.6502-1.4965-3.157-2.173-5.3505-2.3062 0 0-1.0762-1.9372-1.9065-2.378z"/><path id="path1-6" d="m18.457 2.1606s2.9468 1.5162 3.4184 5.9159c0.36222 3.376-0.2467 5.9211-0.2467 5.9211l-0.51129-0.79548c0.0013-1.25-0.05702-1.7989-0.26762-2.656-1.1096-0.27042-2.0807-0.87609-2.3659-2.3665 0.87175 0.22314 1.4439 0.61853 2.2775 1.2198-0.60222-1.2532-1.1947-1.7954-2.2194-2.1869l0.05805-0.96706c0.74904 0.26236 1.2058 0.51107 1.7849 1.0505-0.43806-0.94832-0.78314-1.5378-1.7268-2.0176l-0.03591-0.98629c0.60917 0.29667 0.92504 0.5641 1.5014 1.117-0.28782-0.89659-0.69641-1.4627-1.4712-1.9751 0 0 0.01546-0.93662-0.19532-1.2734z" stroke-width=".99999"/><path id="path1-6-4" d="m2.0044 15.87s3.1558-1.0116 6.6003 1.766c2.6433 2.131 4.0124 4.3613 4.0124 4.3613l-0.92403-0.20096c-0.88296-0.8848-1.3124-1.2317-2.0673-1.6888-0.97582 0.5934-2.0908 0.85177-3.3463-4.6e-4 0.7742-0.45863 1.4584-0.58365 2.473-0.74785-1.312-0.46032-2.1143-0.42476-3.1157 0.02299l-0.64277-0.72487c0.71517-0.34413 1.214-0.49125 2.0049-0.51927-0.98032-0.3608-1.6411-0.5336-2.6477-0.20559l-0.72281-0.67202c0.64052-0.22097 1.053-0.25523 1.8514-0.27182-0.8375-0.43047-1.5267-0.54184-2.4369-0.35627 0 0-0.65136-0.67323-1.0386-0.76235z" stroke-width=".99999"/></svg>
