<?xml version="1.0" encoding="UTF-8"?>
<svg id="svg1" width="24" height="24" version="1.1" viewBox="0 0 26.182 26.182" xml:space="preserve" xmlns="http://www.w3.org/2000/svg"><path id="path1" d="m22.649 2.182-5.7497 5.9655-3.6046 3.7457s-0.20295-0.18461-0.46832-0.40184c-0.41415-0.33905-0.8113-0.54238-1.4109-0.72272-0.24838-0.0747-0.51207-0.08319-0.6409-0.02045-0.0328 0.01597-0.149 0.0495-0.2578 0.07457-0.35965 0.08288-0.84403 0.31726-1.1062 0.53522-0.16261 0.13518-0.31296 0.37501-0.46108 0.56888-0.063589 0.08324-0.12996 0.16489-0.18366 0.25484-0.11866 0.19875-0.2635 0.42639-0.30384 0.6243-0.00947 0.04648-0.023902 0.20429-0.031959 0.35029-0.00806 0.14599-0.027504 0.2875-0.043038 0.31449-0.01553 0.027-0.079603 0.0622-0.14233 0.07841-0.10268 0.02653-0.12261 0.02258-0.20241-0.04134-0.067387-0.05397-0.087925-0.09372-0.085226-0.16534 0.00782-0.20361 0.11295-0.55051 0.25226-0.8331 0.15188-0.30807 0.34206-0.41626 0.53138-0.60724 0.098214-0.09907 0.20992-0.18358 0.31235-0.27827 0.10403-0.09616 0.22062-0.22141 0.30681-0.29404 0.086181-0.07263 0.12784-0.13381 0.12784-0.13381s-0.44476 0.15434-0.65923 0.25056c-0.19339 0.08677-0.39185 0.17021-0.56419 0.29361-0.18897 0.1353-0.36628 0.29483-0.50411 0.48196-0.11751 0.15953-0.18715 0.30554-0.26463 0.53225-0.033085 0.09682-0.08821 0.17472-0.08821 0.17472s-0.34457-0.31446-0.36135-0.33238c-0.016783-0.01793-0.6274-0.62624-1.5584-1.5865l-0.63366-0.65369c-0.57595-0.59408-1.0721-1.0914-1.1152-1.1182-0.053784-0.033364-0.34558 0.22206-0.45085 0.3946-0.035 0.057366-0.057628 0.090859-0.056674 0.12486 0.00155 0.055149 0.064867 0.11119 0.23651 0.27102 0.42805 0.39864 0.87296 0.82435 1.3219 1.246 0.15421 0.14673 0.30523 0.28702 0.45809 0.42997 0.17699 0.16553 0.35478 0.33011 0.53181 0.4956 0.33283 0.31117 0.68395 0.6433 0.99671 0.93495 0.51222 0.4776 0.56827 0.53869 0.5612 0.61618-0.00431 0.04732-0.017206 0.09477-0.028551 0.10526-0.011339 0.01048-0.36074 2e-3 -0.77642-0.01875-0.58743-0.02926-0.66488-0.03682-0.9946-0.0017-0.23398 0.02492-0.46481 0.0814-0.68991 0.15-0.092212 0.0281-0.17998 0.06928-0.26889 0.10653-0.073525 0.03081-0.14646 0.06284-0.2186 0.09673-0.11371 0.05343-0.22614 0.1097-0.3375 0.1679-0.15092 0.07887-0.31141 0.14414-0.4483 0.24545-0.33942 0.25124-0.70612 0.51305-0.90595 0.88509-0.38646 0.71943-0.55686 1.7255-0.46023 2.4063 0.039486 0.2782 0.055442 0.34075 0.16236 0.64049 0.13413 0.37601 0.29051 0.63194 0.61533 1.0065 0.10471 0.12077 0.19015 0.23033 0.18963 0.24332-4.975e-4 0.01299-0.028128 0.05047-0.061363 0.08352s-0.090266 0.11241-0.12656 0.176c-0.064867 0.11364-0.064968 0.11743-0.016193 0.22586 0.080135 0.17813 0.17737 0.23607 0.41079 0.24504 0.189 0.0073 0.20677 2e-3 0.30766-0.08864 0.12917-0.11597 0.18429-0.25121 0.17173-0.42102-0.009479-0.12818-0.15535-0.23176-0.23991-0.3426-0.2232-0.29254-0.54486-0.51855-0.7044-0.85014-0.17545-0.36467-0.30715-0.78828-0.24715-1.1885 0.082869-0.55278 0.40331-1.0837 0.80753-1.4698 0.28198-0.26932 0.66783-0.43822 1.05-0.51563 0.6855-0.13885 1.4178-0.05609 2.0949 0.11932 0.34416 0.08916 0.65323 0.28523 0.9605 0.46407 0.25248 0.14695 0.74349 0.46331 0.72144 0.49774-0.020664 0.03226-0.22281 0.26766-0.33792 0.398-0.096451 0.10922-0.19936 0.21245-0.29574 0.32173-0.14544 0.16491-0.28599 0.33425-0.42613 0.50369-0.16055 0.19415-0.31536 0.39251-0.47472 0.58765-0.18022 0.22069-0.36109 0.44092-0.54416 0.65923-0.10782 0.12856-0.22102 0.25254-0.32642 0.3831-0.071042 0.08798-0.13772 0.17979-0.20625 0.26974-0.081305 0.10673-0.23982 0.319-0.24331 0.32046-0.053592 0.02244-0.14867 0.03036-0.29147 0.02514-0.41605-0.0152-0.89594 0.1274-1.1817 0.35155-0.084903 0.06661-0.16236 0.11464-0.28977 0.2429-0.12741 0.12826-0.29494 0.40806-0.39416 0.67457-0.11862 0.31859-0.14146 0.82269-0.052413 1.151 0.060774 0.22407 0.06065 0.22994 0.00469 0.28721-0.031411 0.03215-0.11616 0.08523-0.18878 0.11804-0.21949 0.09918-0.30825 0.32563-0.20625 0.52586 0.068592 0.13465 0.28405 0.33449 0.44105 0.40909 0.11434 0.05432 0.15692 0.06104 0.25056 0.03963 0.13456-0.03076 0.2535-0.15187 0.28507-0.29062 0.012603-0.05538 0.043034-0.11622 0.078835-0.17855 0.035799-0.06234 0.05297-0.07013 0.084375-0.05668 0.10128 0.04342 0.38284 0.07465 0.57698 0.07884 0.16703 0.0036 0.33811-0.0014 0.499-0.04645 0.24731-0.06926 0.48275-0.18944 0.6929-0.33707 0.094448-0.06635 0.17576-0.1516 0.24801-0.24161 0.39735-0.49507 0.52948-0.8814 0.49389-1.5l-0.015771-0.27231c0.13029-0.11012 0.37542-0.34774 0.37542-0.34774l0.89445-0.78621s0.3684-0.29993 0.64217-0.548c0.27379-0.24807 0.54246-0.48827 0.91363-0.85269 0.19724-0.19432 0.59915-0.5936 0.59915-0.5936s0.14671 0.04834 0.34645 0.1892c0.61869 0.43634 1.244 0.75141 1.8226 0.91832 0.25985 0.07497 0.40822 0.09793 0.80923 0.12571l0.49132 0.03409s0.10618 0.09922 0.1598 0.1483c0.06353 0.05814 0.12773 0.11585 0.19176 0.17344 0.11784 0.10598 0.23705 0.21026 0.35454 0.31662 0.15637 0.14154 0.31126 0.28473 0.46619 0.42785 0.7448 0.68799 1.9191 1.7797 2.227 2.0719 0.17075 0.16202 0.33984 0.31163 0.37584 0.33238 0.0949 0.05472 0.17274 0.02126 0.26463-0.11378 0.04452-0.06542 0.11346-0.15503 0.15298-0.19901 0.10814-0.12033 0.09732-0.21071-0.04176-0.34944-0.12472-0.1244-0.89663-0.76664-1.3483-1.1459-0.20733-0.17409-0.41672-0.34582-0.62513-0.51862-0.12914-0.10706-0.25976-0.21239-0.38736-0.32131-0.12371-0.10561-0.24476-0.21425-0.36648-0.32216-0.10968-0.09724-0.22119-0.19251-0.32812-0.29276-0.13362-0.12526-0.39318-0.33674-0.39161-0.38522 6.54e-4 -0.01968 0.04484-0.05642 0.09801-0.08139 0.21905-0.10287 0.71419-0.55062 0.92556-0.93495 0.35192-0.6399 0.41461-1.2582 0.49047-1.9117 0.05411-0.46606 0.0232-0.94116-0.02812-1.4075-0.02104-0.19116-0.04079-0.38773-0.1142-0.56548-0.109-0.26393-0.29679-0.48927-0.47216-0.71463-0.1684-0.21643-0.55396-0.60809-0.55396-0.60809l3.6724-3.9392 3.7846-4.0717 2.114-2.2747v-0.41422zm-12.394 9.2177c0.0755 0.0029 0.07391 0.01272-0.02855 0.15469-0.17006 0.23564-0.22381 0.38762-0.25313 0.71592l-0.022158 0.2446-0.20241 0.17386c-0.11146 0.09567-0.21605 0.18878-0.21605 0.18878s-0.39484 0.29426-0.54331 0.3324l-0.071165 0.01832 0.026419-0.18537c0.058632-0.41026 0.2575-0.80792 0.57443-1.1497 0.13862-0.1495 0.50293-0.40723 0.6068-0.42912 0.03782-8e-3 0.06932-0.02615 0.06988-0.04048 5.45e-4 -0.01433 0.0271-0.02509 0.05923-0.02387zm1.226 0.05625c0.18512 0.0027 0.35271 0.01317 0.37243 0.02301 0.06138 0.03062 0.055 0.2256 0.11804 0.35199 0.04204 0.08429 0.10218 0.16719 0.16193 0.23481 0.05974 0.06761 0.07969 0.14361 0.07969 0.14361s-0.51953 0.54466-0.75085 0.72996c-0.19341 0.13581-0.57342 0.27676-0.61959 0.25695-0.05191-0.02225-0.27681-0.52366-0.29745-0.66307-0.01089-0.07354 6e-3 -0.13845 0.06477-0.24971 0.10944-0.20727 0.14326-0.29952 0.17258-0.46832 0.03458-0.19911 0.0576-0.2309 0.22032-0.30214 0.118-0.05165 0.1973-0.06113 0.47812-0.0571zm1.0713 1.0892c0.01177 0.0045 0.02038 0.01703 0.03196 0.03366l0.04645 0.06648s0.02381 0.02459-0.14701 0.21563c-0.34239 0.38293-0.35695 0.39733-0.49857 0.55525-0.14162 0.15792-0.16654 0.18005-0.32472 0.35029l-0.22073 0.25143-0.15298-0.17983c-0.08413-0.09892-0.15251-0.19714-0.1517-0.21818 8.07e-4 -0.02105 0.06115-0.06438 0.1338-0.09631 0.21081-0.09264 0.57521-0.36587 0.93536-0.70099 0.24995-0.23258 0.31285-0.29086 0.34815-0.27742zm-2.5198 0.49645c0.0215-0.0023 0.06314 0.05336 0.0929 0.12358 0.05742 0.13549 0.09574 0.28165 0.0733 0.28082-0.0074-2.84e-4 -0.10541 0.02941-0.21775 0.06562-0.11235 0.03622-0.27081 0.08168-0.35199 0.10099-0.45104 0.10728-0.61357 0.14074-0.62472 0.12869-0.00684-0.0074 0.12003-0.09367 0.28167-0.19134 0.16164-0.09766 0.38696-0.25104 0.5007-0.34091 0.11374-0.08988 0.22438-0.16513 0.24587-0.16747zm3.6131 0.62897c0.02094-0.0076 0.03207 7.63e-4 0.03111 0.02557-6.11e-4 0.01566-0.04436 0.04874-0.09758 0.0733l-0.09673 0.04432 0.07372-0.07372c0.03809-0.03824 0.06854-0.06189 0.08949-0.06946zm-3.2118 0.18835c0.03806 0.01391 0.09456 0.0777 0.21349 0.23182 0.10812 0.1401 0.19587 0.26847 0.19517 0.28551-7.86e-4 0.0202-0.13056 0.02592-0.37328 0.01662-0.40664-0.01558-1.2903-0.10815-1.2891-0.13509 4.145e-4 -0.0092 0.10372-0.04508 0.22968-0.07969 0.12596-0.03461 0.24257-0.07151 0.25909-0.08225 0.016501-0.01073 0.1764-0.06275 0.35539-0.11548 0.179-0.05273 0.34806-0.10683 0.37584-0.12017 0.01019-0.0049 0.02098-0.0059 0.03366-0.0013zm3.6643 0.1206c0.02777 0.0026 0.13355 0.06642 0.23522 0.1419 0.10167 0.07549 0.2897 0.19379 0.41803 0.26293 0.24063 0.12963 0.2408 0.12976 0.31747 0.39035 0.04711 0.16014 0.04343 0.71928-0.0064 0.95838-0.05478 0.26293-0.13824 0.38044-0.3115 0.43935-0.17708 0.0602-0.29408 0.05373-0.58381-0.03153-0.39244-0.11549-0.78931-0.34398-1.1847-0.68225-0.21825-0.18674-0.58156-0.54944-0.57868-0.57785 1e-3 -0.01009 0.07346-0.08963 0.16065-0.17685 0.16556-0.1656 0.24035-0.2059 0.55865-0.29958 0.22479-0.06615 0.45968-0.16951 0.73038-0.32131 0.10661-0.05978 0.21684-0.1062 0.2446-0.10355zm-7.9721 0.35413c0.14206-0.0025 0.26718 0.0014 0.34475 0.0115 0.24772 0.03245 0.56319 0.09631 0.82202 0.1662l0.27017 0.07287 0.095879 0.21051c0.082075 0.1806 0.28898 0.53799 0.33921 0.58594 0.00878 0.0084 0.054482 0.07618 0.10184 0.15043 0.047363 0.07425 0.13251 0.18955 0.1892 0.2561 0.23917 0.2808 0.23496 0.27198 0.079686 0.1679-0.48534-0.32533-1.1103-0.59847-1.7263-0.75384-0.52165-0.13158-0.72794-0.16381-1.1446-0.17983-0.4916-0.01889-0.88917 0.01663-1.1923 0.10653-0.2887 0.08562-0.79514 0.3514-0.92768 0.48707-0.035332 0.03617-0.070739 0.0571-0.070739 0.0571s0.00183-0.05182 0.077129-0.13935c0.18061-0.20994 0.44808-0.45704 0.46534-0.47258 0.017269-0.01555 0.27637-0.20108 0.54501-0.34815 0.438-0.23978 0.61422-0.28817 1.2856-0.35328 0.14453-0.01401 0.30369-0.02268 0.44574-0.02514zm3.7128 0.51519c0.069078-0.0034 0.17923-0.0023 0.3439 3e-3l0.4402 0.01449-0.16534 0.20028-0.25141-0.02088c-0.25737-0.02143-0.46767-0.09917-0.4649-0.17173 5.237e-4 -0.01356 0.028505-0.0217 0.097583-0.02514zm-1.2264 0.22372c0.041417 0.0064 0.095879 0.03239 0.095879 0.03239l0.63877 0.41803s0.073885 0.07564 0.073296 0.09077c-0.00135 0.03538-0.22115 0.25226-0.2544 0.25099-0.013883-5.01e-4 -0.065973-0.05193-0.11591-0.1142-0.049935-0.06228-0.15215-0.18992-0.22713-0.28337-0.074975-0.09347-0.17762-0.23219-0.22798-0.30853-0.052104-0.07898-0.023945-0.09245 0.017472-0.08608zm3.2803 0.40099c0.0127 3e-3 0.02307 0.01179 0.03111 0.02599 0.03386 0.05984 0.66951 0.55706 0.8902 0.6963 0.23053 0.14546 0.29618 0.20094 0.23522 0.19858-0.05311-2e-3 -0.93346-0.34603-1.1408-0.44574-0.11057-0.05319-0.23062-0.10701-0.26633-0.11932-0.09114-0.03138-0.07959-0.07176 0.06264-0.22542 0.08962-0.09683 0.14981-0.13927 0.18792-0.1304zm-0.51264 0.71378c0.0781 0.01518 0.14655 0.04478 0.36947 0.15256 0.22289 0.10778 0.32566 0.15377 0.39929 0.176 0.07362 0.02223 0.13284 0.04296 0.27742 0.09588 0.14457 0.05292 0.29777 0.10632 0.41718 0.15767 0.22804 0.09806 0.39652 0.14213 0.78067 0.20412 0.12791 0.02064 0.28398 0.04936 0.34686 0.06392l0.1142 0.02642-0.07585 0.0456c-0.32298 0.19438-0.88378 0.28014-1.2903 0.19687-0.30798-0.06309-0.47509-0.11295-0.63578-0.16832-0.30639-0.21227-0.61346-0.52206-0.76747-0.71122 0.01963-0.03905 0.03742-0.10978 0.0392-0.15724 0.0018-0.04746 0.01316-0.08455 0.02514-0.08225zm3.7056 0.72442c0.02909 0.0011-0.02428 0.26943-0.09204 0.46237-0.08834 0.25152-0.4304 0.70874-0.71463 0.95583-0.36512 0.31743-0.4006 0.34045-0.55184 0.35413l-0.1402 0.01278s-0.15904-0.15462-0.23991-0.23053c-0.09974-0.09364-0.20433-0.18219-0.30255-0.27742-0.04891-0.04742-0.0991-0.09387-0.14275-0.14617-0.02955-0.0354-0.08011-0.11293-0.08011-0.11293s0.06669-0.02403 0.1598-0.03068c0.47945-0.03424 0.9761-0.19178 1.399-0.4436 0.18496-0.11014 0.59692-0.43086 0.62557-0.47515 0.02864-0.04427 0.07047-0.06898 0.07969-0.06861zm-4.2072 0.04986c0.20582 0.20409 0.22791 0.1929 0.4078 0.37841 0.05011 0.05167 0.28344 0.28374 0.3098 0.30085 0.02636 0.01711 0.12891 0.10846 0.22798 0.20284 0.09907 0.09438 0.24373 0.23036 0.37627 0.34688 0.13255 0.11651 0.32675 0.29688 0.33451 0.31108 0.0078 0.0142 0.13384 0.11197 0.13253 0.14574-0.0026 0.06809-0.94946-0.40324-1.2515-0.62301-0.25431-0.18502-0.74873-0.61213-0.79217-0.68437-0.04074-0.06775-0.03793-0.07649 0.05838-0.17429 0.0557-0.05656 0.11242-0.12099 0.12614-0.14318-0.0071-0.03745 0.07031-0.06094 0.07031-0.06094z"/></svg>
