<?xml version="1.0" encoding="UTF-8"?>
<!-- Uploaded to: SVG Repo, www.svgrepo.com, Generator: SVG Repo Mixer Tools -->
<svg id="svg1" fill="#000000" version="1.1" viewBox="0 -27.5 2.61 2.61" xmlns="http://www.w3.org/2000/svg" xmlns:cc="http://creativecommons.org/ns#" xmlns:dc="http://purl.org/dc/elements/1.1/" xmlns:rdf="http://www.w3.org/1999/02/22-rdf-syntax-ns#">
 <title id="title1">pulse_rifle</title>
 <path id="path1" d="m2.4368-27.473 0.015469 8.96e-4 0.075568 0.07557-1.7e-6 0.02367-0.39606 0.39605 0.029132-3e-6 0.036418-0.03643 0.04552 0.04552 0.01639 0.02368 0.0091 0.03277-0.00364 0.02914-0.010938 0.0273-0.64917 0.64917-0.029134 0.04917-0.011827 0.0519-0.00637 0.0519 0.00364 0.02914 0.11745 0.24856 0.013656 0.04279-0.00181 0.03642-0.010925 0.04552-0.02916 0.0364-0.041858 0.03461-0.36146 0.20303-0.016401 0.0073-0.018215-0.0091 0.018209-0.0437-0.042788-0.061-0.030957-0.07102-0.023669-0.08741-0.00729-0.08741-9.104e-4 -0.04279-0.012747-0.02367-0.022764-0.01548-0.028226-0.0045-0.044611 0.01548-0.040073 0.03094-0.093803 0.08829 0.019121 0.01912-0.009102 0.02914 0.30228 0.24765 0.00637 0.02641-0.05368 0.06832-0.02185 0.0036-0.010938 0.01456 0.00183 0.02003-0.093777 0.11381-0.013695-9.48e-4 -0.01549 0.01911 0.002722 0.01364-0.04465 0.05551-0.018247 0.0036-0.13111-0.0947-0.018246 0.01634-0.036424-0.02913-0.009098 0.0091-0.035477-0.0045-0.10561 0.10562 0.006374 0.0064-0.065557 0.12018-0.027317-4e-6 -0.1047-0.12291-0.10016-0.10379-0.11654-0.11107-0.089225-0.08377-0.018216-0.02913 8.9573e-4 -0.01 0.043702-0.0437h0.012747l0.039151-0.03915 0.031863 0.01 0.6173-0.6173 0.030042-0.08285-0.024577 0.02458-0.022757 9.15e-4 -0.050076-0.13384 0.004553-0.02277 0.20304-0.20304 0.02462-0.01 0.027311 0.0019 0.025494 0.01821 0.033685 0.03367 0.020942-9.09e-4 0.010012 0.01-2.5e-6 0.04188-0.023672 0.02367 0.020034 0.02003 0.14659-0.14659 0.061002-0.03551 0.66191-0.60729 0.020939-0.0026 0.028224 0.02822-1.8e-6 0.03643h0.012747zm-0.95964 1.3876-0.010926-0.01097-0.01639-0.0091-0.016425 0.0019-0.13293 0.13293 0.016381 0.0255 0.031868 0.02095 0.026405 0.0064 0.00183 0.01821-0.023667 0.0019-0.029135-0.0091-0.030051-0.01548-0.024581-0.01729-0.00543 0.01097-8e-7 0.01821 0.010012 0.02822 0.020938 0.01731 0.029136 0.0091 0.034601-0.0073 0.012747 0.02003-0.013694 0.01182-0.018222 0.02183-0.00823 0.01908 0.00274 0.03187 0.018208 0.03277 0.026398 0.0355-0.00544 0.01458 9.137e-4 0.02641 0.00545 0.0255 0.030959 0.06555 0.16389-0.07284 0.032814-0.01817 0.026403-0.02641 0.01095-0.02732-2.7e-6 -0.02732-0.15751-0.33778zm0.56631-0.78847-0.025494-0.0255-0.39059 0.39059 0.025494 0.0255z"/>
 <metadata id="metadata1">
  <rdf:RDF>
   <cc:Work rdf:about="">
    <dc:title>pulse_rifle</dc:title>
   </cc:Work>
  </rdf:RDF>
 </metadata>
</svg>
