<?xml version="1.0" encoding="UTF-8" standalone="no"?>
<svg
   width="24"
   height="24"
   version="1.1"
   viewBox="0 0 26.181818 26.181818"
   xml:space="preserve"
   id="svg1"
   sodipodi:docname="scimitar.svg"
   inkscape:version="1.3.2 (091e20e, 2023-11-25, custom)"
   xmlns:inkscape="http://www.inkscape.org/namespaces/inkscape"
   xmlns:sodipodi="http://sodipodi.sourceforge.net/DTD/sodipodi-0.dtd"
   xmlns="http://www.w3.org/2000/svg"
   xmlns:svg="http://www.w3.org/2000/svg"><defs
     id="defs1" /><sodipodi:namedview
     id="namedview1"
     pagecolor="#ffffff"
     bordercolor="#111111"
     borderopacity="1"
     inkscape:showpageshadow="0"
     inkscape:pageopacity="0"
     inkscape:pagecheckerboard="1"
     inkscape:deskcolor="#d1d1d1"
     inkscape:zoom="4.9431818"
     inkscape:cx="8.8"
     inkscape:cy="4.9563218"
     inkscape:window-width="1366"
     inkscape:window-height="697"
     inkscape:window-x="-8"
     inkscape:window-y="-8"
     inkscape:window-maximized="1"
     inkscape:current-layer="svg1" /><path
     d="m 18.951488,7.3443658 c -0.115698,0.6615581 -0.304805,1.3810879 -0.665268,2.1744951 -0.360463,0.7934071 -0.892311,1.6606911 -1.693507,2.6177801 -0.801196,0.957068 -1.87172,2.003919 -3.309645,3.156479 -1.437838,1.15254 -3.243099,2.410724 -5.5135298,3.790525 L 7.1407733,17.96811 C 6.9882534,17.697604 6.6465411,17.60265 6.377563,17.756028 6.1085629,17.90941 6.0141543,18.253052 6.1666786,18.523558 L 6.755603,19.56827 3.2330095,21.619077 2.7504502,21.893597 C 2.2121666,22.199819 2.0226513,22.886905 2.3271718,23.428221 2.6316705,23.96956 3.3148943,24.160144 3.853178,23.8539 l 0.4873157,-0.277248 c 0.00335,-0.0019 0.00667,-0.0037 0.00999,-0.0056 l 3.5081933,-2.041926 0.1017657,0.18091 c 3.273e-4,-4.37e-4 0.00148,-0.0017 0.00185,-0.0024 l 0.5208071,0.92362 c 0.1525199,0.270505 0.4942321,0.36546 0.7632104,0.212083 0.2689782,-0.153382 0.3634086,-0.497026 0.2108843,-0.767531 l -0.6188156,-1.09784 5.1973801,-3.346737 3.421356,-2.201266 c 0.953205,-0.631187 1.881364,-1.459111 2.72491,-2.424906 0.84359,-0.965791 1.602633,-2.069391 2.217412,-3.2518655 0.614888,-1.1825397 1.085643,-2.444106 1.352702,-3.7255053 0.267059,-1.2815302 0.33042,-2.5830898 0.130547,-3.8459433 -0.868812,1.7441037 -1.587491,2.7646195 -2.346142,3.4839747 -0.758585,0.7195299 -1.557075,1.138161 -2.585489,1.6786702 z"
     id="path1"
     style="stroke-width:1" /></svg>
