<?xml version="1.0" encoding="UTF-8"?>
<svg id="svg1" width="24" height="24" version="1.1" viewBox="0 0 26.182 26.182" xml:space="preserve" xmlns="http://www.w3.org/2000/svg"><path id="path1" d="m18.951 7.3444c-0.1157 0.66156-0.3048 1.3811-0.66527 2.1745-0.36046 0.79341-0.89231 1.6607-1.6935 2.6178-0.8012 0.95707-1.8717 2.0039-3.3096 3.1565-1.4378 1.1525-3.2431 2.4107-5.5135 3.7905l-0.62876-1.1155c-0.15252-0.27051-0.49423-0.36546-0.76321-0.21208-0.269 0.15338-0.36341 0.49702-0.21088 0.76753l0.58892 1.0447-3.5226 2.0508-0.48256 0.27452c-0.53828 0.30622-0.7278 0.99331-0.42328 1.5346 0.3045 0.54134 0.98772 0.73192 1.526 0.42568l0.48732-0.27725c0.00335-0.0019 0.00667-0.0037 0.00999-0.0056l3.5082-2.0419 0.10177 0.18091c3.273e-4 -4.37e-4 0.00148-0.0017 0.00185-0.0024l0.52081 0.92362c0.15252 0.2705 0.49423 0.36546 0.76321 0.21208 0.26898-0.15338 0.36341-0.49703 0.21088-0.76753l-0.61882-1.0978 5.1974-3.3467 3.4214-2.2013c0.9532-0.63119 1.8814-1.4591 2.7249-2.4249 0.84359-0.96579 1.6026-2.0694 2.2174-3.2519 0.61489-1.1825 1.0856-2.4441 1.3527-3.7255 0.26706-1.2815 0.33042-2.5831 0.13055-3.8459-0.86881 1.7441-1.5875 2.7646-2.3461 3.484-0.75858 0.71953-1.5571 1.1382-2.5855 1.6787z"/></svg>
