<?xml version="1.0" encoding="UTF-8"?>
<svg id="svg1" width="24" height="24" version="1.1" viewBox="0 0 26.182 26.182" xml:space="preserve" xmlns="http://www.w3.org/2000/svg"><path id="path1" d="m20.917 3.868c-0.82247-0.64144-1.0048-0.76059-1.4723-0.96296-1.3974-0.60483-2.6756-0.81621-4.1553-0.68695-2.0259 0.17699-3.8278 1.159-5.1138 2.7866-0.83565 1.0576-1.368 2.1849-1.6677 3.53-0.44566 2.0005-0.14229 4.2897 0.82768 6.2514l0.20992 0.42485-0.25637 0.25741c-0.16338 0.16424-0.47603 0.27908-0.52574 0.29702a1.0799 1.0801 0 0 0-0.69136 0.33749l-5.6047 6.0852a1.0799 1.0801 0 0 0 0.062447 1.5263 1.0799 1.0801 0 0 0 1.5261-0.06245l5.6049-6.0856a1.0799 1.0801 0 0 0 0.28497-0.75003c-0.00116-0.08346 0.011614-0.43934 0.32363-0.82426l0.40157-0.49602 0.06996-0.93306c0.05406-0.72038 0.03568-1.2157-0.08101-2.1717-0.16589-1.3592-0.15652-1.9699 0.04446-2.9575 0.21328-1.048 0.59401-1.8701 1.2624-2.7253 1.5786-2.0203 4.2766-2.7421 6.9483-1.8588 0.74154 0.2452 1.3194 0.56226 2.0035 1.0995 1.4767 1.1596 2.481 2.7605 2.8929 4.6126 0.07022 0.31558 0.14356 0.55414 0.16261 0.5298 0.06901-0.0882-0.01134-1.5944-0.12214-2.2903-0.17979-1.1291-0.53756-2.0941-1.1043-2.9802-0.58668-0.91716-0.81317-1.1592-1.8311-1.9531z"/></svg>
