<?xml version="1.0" encoding="UTF-8"?>
<svg id="svg1" width="24" height="24" version="1.1" viewBox="0 0 26.182 26.182" xmlns="http://www.w3.org/2000/svg">
 <path id="path1" d="m11.916 1.5079a1.4244 1.4244 0 0 0-1.0072-0.41705 1.4244 1.4244 0 0 0-1.4243 1.4243v1.0649l2.8472 1e-7c4.37e-4 -1.8e-6 8.73e-4 -1e-7 0.0013-1.7e-6v-1.0649a1.4244 1.4244 0 0 0-0.41704-1.0072zm12.588 12.613a1.4244 1.4244 0 0 0-0.83704-0.27179h-1.0649c-1e-6 4.38e-4 1e-6 8.74e-4 -2e-6 0.0013l1e-6 2.8472h1.0649a1.4244 1.4244 0 0 0 1.4243-1.4243 1.4244 1.4244 0 0 0-0.5872-1.1524zm-11.836-9.9268a0.4748 0.4748 0 0 0-0.33574-0.13902l-3.0485-1e-7 -3.957 3.957 0.67147 0.67147 3.679-3.679 2.6551-1e-7a0.4748 0.4748 0 0 0 0.47475-0.47475 0.4748 0.4748 0 0 0-0.13902-0.33574zm9.3484 9.351a0.4748 0.4748 0 0 0-0.12623-0.1059 0.4748 0.4748 0 0 0-0.23737-0.0636 0.4748 0.4748 0 0 0-0.47475 0.47475l-1e-6 2.6551-3.679 3.679 0.67147 0.67147 3.957-3.957v-3.0485a0.4748 0.4748 0 0 0-0.11114-0.30524zm-9.6828-8.0658c-4.38e-4 2e-7 -8.74e-4 4e-7 -0.0013-1e-7l-2.4584 3e-7 -0.38885 0.38885-1e-6 8.8151-7.9764 7.9764a1.4244 1.4244 0 0 0-7e-7 2.0144 1.4244 1.4244 0 0 0 2.0144-1e-6l7.9764-7.9764h8.8151l0.38885-0.38885v-2.4584-0.0013h-8.3699v-8.3699zm-7.0143 2.5528c-3.1623 3.3967-3.8762 8.0934-1.624 11.098l0.68032-0.68032c-1.8195-2.5773-1.2368-6.668 1.6147-9.7466l-0.67113-0.67113zm12.16 12.16c-3.0785 2.8516-7.1691 3.4344-9.7466 1.6147l-0.39081 0.39081-0.2895 0.2895c3.0044 2.2522 7.7014 1.5383 11.098-1.624l-0.67114-0.67114z"/>
</svg>
