<?xml version="1.0" encoding="UTF-8" standalone="no"?>
<svg
   width="24"
   height="24"
   version="1.1"
   viewBox="0 0 26.181818 26.181818"
   id="svg1"
   sodipodi:docname="sling.svg"
   inkscape:version="1.3.2 (091e20e, 2023-11-25, custom)"
   xmlns:inkscape="http://www.inkscape.org/namespaces/inkscape"
   xmlns:sodipodi="http://sodipodi.sourceforge.net/DTD/sodipodi-0.dtd"
   xmlns="http://www.w3.org/2000/svg"
   xmlns:svg="http://www.w3.org/2000/svg">
  <defs
     id="defs1" />
  <sodipodi:namedview
     id="namedview1"
     pagecolor="#ffffff"
     bordercolor="#111111"
     borderopacity="1"
     inkscape:showpageshadow="0"
     inkscape:pageopacity="0"
     inkscape:pagecheckerboard="1"
     inkscape:deskcolor="#d1d1d1"
     inkscape:zoom="1.2357955"
     inkscape:cx="-44.910345"
     inkscape:cy="2.8321839"
     inkscape:window-width="1366"
     inkscape:window-height="697"
     inkscape:window-x="-8"
     inkscape:window-y="-8"
     inkscape:window-maximized="1"
     inkscape:current-layer="svg1" />
  <path
     d="m 11.915856,1.5078643 a 1.4244031,1.4244031 0 0 0 -1.007205,-0.41705 1.4244031,1.4244031 0 0 0 -1.424255,1.4242551 v 1.0649179 l 2.847201,10e-8 c 4.37e-4,-1.8e-6 8.73e-4,-10e-8 0.0013,-1.7e-6 V 2.5150678 A 1.4244031,1.4244031 0 0 0 11.915858,1.5078626 Z M 24.5037,14.120626 a 1.4244031,1.4244031 0 0 0 -0.837038,-0.271794 h -1.064918 c -1e-6,4.38e-4 1e-6,8.74e-4 -2e-6,0.0013 l 10e-7,2.847202 h 1.064917 a 1.4244031,1.4244031 0 0 0 1.424256,-1.424256 1.4244031,1.4244031 0 0 0 -0.587201,-1.152443 z M 12.667447,4.1938656 A 0.47480103,0.47480103 0 0 0 12.331704,4.0548441 l -3.048507,-1e-7 -3.9569732,3.9569728 0.6714702,0.6714701 3.678984,-3.6789841 2.65506,-10e-8 A 0.47480103,0.47480103 0 0 0 12.806484,4.5295565 0.47480103,0.47480103 0 0 0 12.667463,4.1938151 Z m 9.3484,9.3510304 a 0.47480103,0.47480103 0 0 0 -0.126228,-0.105901 0.47480103,0.47480103 0 0 0 -0.237374,-0.0636 0.47480103,0.47480103 0 0 0 -0.474747,0.474746 l -1e-6,2.655059 -3.678984,3.678984 0.67147,0.671471 3.956977,-3.956977 V 13.850167 A 0.47480103,0.47480103 0 0 0 22.015819,13.544931 Z M 12.333019,5.4790943 c -4.38e-4,2e-7 -8.74e-4,4e-7 -0.0013,-1e-7 l -2.458352,3e-7 -0.388849,0.3888482 -10e-7,8.8150593 -3.7797285,3.779706 -1.0491721,1.049171 -1.0491721,1.049173 -2.0983435,2.098343 a 1.4244031,1.4244031 0 0 0 -7e-7,2.014411 1.4244031,1.4244031 0 0 0 2.0144107,-10e-7 l 2.0983435,-2.098343 1.0491721,-1.049173 1.0491716,-1.049172 3.779706,-3.779706 h 8.815059 l 0.388848,-0.388848 v -2.458352 c 0,-4.36e-4 0,-8.73e-4 0,-0.0013 h -8.36986 V 5.4790272 Z M 5.318674,8.0318561 C 2.1564221,11.428525 1.4424454,16.125252 3.6947235,19.129913 L 3.984228,18.840408 4.3750397,18.449597 C 2.555525,15.872326 3.1381924,11.781563 5.989758,8.7030408 L 5.3186236,8.0319064 Z M 17.478829,20.192011 c -3.078463,2.851626 -7.169119,3.434402 -9.746557,1.614717 L 7.34146,22.197541 7.051955,22.487045 c 3.00441,2.252195 7.701427,1.538337 11.098059,-1.62395 L 17.478879,20.19196 Z"
     id="path1"
     style="stroke-width:0.999996" />
</svg>
