<?xml version="1.0" encoding="UTF-8"?>
<svg id="svg1" width="24" height="24" version="1.1" viewBox="0 0 26.182 26.182" xmlns="http://www.w3.org/2000/svg">
 <g id="g5" transform="matrix(1.1 0 0 1.1 -2.5091 -.10907)" stroke-width=".90909">
  <path id="path1" d="m9.1491 18.051-1.0185-1.0185-4.647 4.647v0.0021a0.72001 0.72001 0 0 0-0.21094 0.5071 0.72001 0.72001 0 0 0 0.72017 0.72017 0.72001 0.72001 0 0 0 0.5071-0.21094h0.00213z"/>
  <path id="path5" d="m13.641 11.523-7.6918 7.6918 1.0185 1.0185 7.6918-7.6918-0.49645-0.52841z"/>
  <path id="path4" d="m25.091 1.0909-7.4915 4.2614-0.56889 2.3416-3.0938 2.7933 0.9098 0.84801v0.0021l0.84801 0.90767 2.7933-3.0937 2.3416-0.56889z"/>
 </g>
</svg>
