<?xml version="1.0" encoding="UTF-8"?>
<svg id="svg1" width="24" height="24" version="1.1" viewBox="0 0 26.182 26.182" xml:space="preserve" xmlns="http://www.w3.org/2000/svg"><g id="g3" transform="matrix(1 0 0 1 1.0909 -1.0909)" stroke-width=".99997"><path id="path1" d="m12.582 12.582-5.6506 5.6506a0.24 0.24 0 0 0-0.33878 0l-5.4311 5.4311a0.24 0.24 0 0 0 0 0.33878l1.0185 1.0185a0.24 0.24 0 0 0 0.33878 0l5.4311-5.4311a0.24 0.24 0 0 0 0-0.33878l5.6506-5.6506z"/><path id="path2" d="m10.4 14.763 1.0185 1.0185 5.6506-5.6506a0.24 0.24 0 0 0 0.33878 0l5.4311-5.4311a0.24 0.24 0 0 0 0-0.33878l-1.0185-1.0185a0.24 0.24 0 0 0-0.23224-0.06179 0.24 0.24 0 0 0-0.10653 0.06179l-5.4311 5.4311a0.24 0.24 0 0 0 0 0.33878z"/></g></svg>
