<?xml version="1.0" encoding="UTF-8"?>
<svg id="svg1" width="24" height="24" version="1.1" viewBox="0 0 24 24" xmlns="http://www.w3.org/2000/svg">
 <path id="path1" d="m22 2-2.7285 1-5.9121 5.9141-4.4453 4.4453-1.7344 1.7305-1.4727-1.4883a0.61111 0.61111 0 0 0-0.43164-0.18164 0.61111 0.61111 0 0 0-0.43164 0.17773 0.61111 0.61111 0 0 0-0.0078125 0.86328l1.7812 1.7988-2.7285 2.7285a1.5278 1.5278 0 0 0-0.36133-0.042969 1.5278 1.5278 0 0 0-1.5273 1.5273 1.5278 1.5278 0 0 0 1.5273 1.5273 1.5278 1.5278 0 0 0 1.5273-1.5273 1.5278 1.5278 0 0 0-0.042969-0.36133l2.7227-2.7227 1.7461 1.7656a0.61111 0.61111 0 0 0 0.86523 0.005859 0.61111 0.61111 0 0 0 0.005859-0.86523l-1.4531-1.4668 6.1875-6.1875 5.9141-5.9121 1-2.7285z"/>
</svg>
