<?xml version="1.0" encoding="UTF-8" standalone="no"?>
<svg
   width="24"
   height="24"
   version="1.1"
   viewBox="0 0 24 24"
   id="svg1"
   sodipodi:docname="sword.svg"
   inkscape:version="1.4 (86a8ad7, 2024-10-11)"
   xmlns:inkscape="http://www.inkscape.org/namespaces/inkscape"
   xmlns:sodipodi="http://sodipodi.sourceforge.net/DTD/sodipodi-0.dtd"
   xmlns="http://www.w3.org/2000/svg"
   xmlns:svg="http://www.w3.org/2000/svg">
  <defs
     id="defs1" />
  <sodipodi:namedview
     id="namedview1"
     pagecolor="#ffffff"
     bordercolor="#111111"
     borderopacity="1"
     inkscape:showpageshadow="0"
     inkscape:pageopacity="0"
     inkscape:pagecheckerboard="1"
     inkscape:deskcolor="#d1d1d1"
     inkscape:zoom="12.81631"
     inkscape:cx="9.5971458"
     inkscape:cy="25.319299"
     inkscape:window-width="1920"
     inkscape:window-height="1017"
     inkscape:window-x="-8"
     inkscape:window-y="-8"
     inkscape:window-maximized="1"
     inkscape:current-layer="svg1" />
  <path
     id="path1"
     style="stroke-width:1;fill-opacity:1"
     d="M 22 2 L 19.271484 3 L 13.359375 8.9140625 L 12.003906 10.269531 L 8.9140625 13.359375 L 7.1796875 15.089844 L 5.7070312 13.601562 A 0.61110621 0.61110621 0 0 0 5.2753906 13.419922 A 0.61110621 0.61110621 0 0 0 4.84375 13.597656 A 0.61110621 0.61110621 0 0 0 4.8359375 14.460938 L 6.6171875 16.259766 L 3.8886719 18.988281 A 1.5277655 1.5277655 0 0 0 3.5273438 18.945312 A 1.5277655 1.5277655 0 0 0 2 20.472656 A 1.5277655 1.5277655 0 0 0 3.5273438 22 A 1.5277655 1.5277655 0 0 0 5.0546875 20.472656 A 1.5277655 1.5277655 0 0 0 5.0117188 20.111328 L 7.734375 17.388672 L 9.4804688 19.154297 A 0.61110621 0.61110621 0 0 0 10.345703 19.160156 A 0.61110621 0.61110621 0 0 0 10.351562 18.294922 L 8.8984375 16.828125 L 10.640625 15.085938 L 14.001953 11.724609 L 15.085938 10.640625 L 21 4.7285156 L 22 2 z " />
</svg>
