<?xml version="1.0" encoding="UTF-8" standalone="no"?>
<svg
   width="24"
   height="24"
   version="1.1"
   viewBox="0 0 24 24"
   id="svg1"
   sodipodi:docname="trident.svg"
   inkscape:version="1.3.2 (091e20e, 2023-11-25, custom)"
   xmlns:inkscape="http://www.inkscape.org/namespaces/inkscape"
   xmlns:sodipodi="http://sodipodi.sourceforge.net/DTD/sodipodi-0.dtd"
   xmlns="http://www.w3.org/2000/svg"
   xmlns:svg="http://www.w3.org/2000/svg">
  <defs
     id="defs1" />
  <sodipodi:namedview
     id="namedview1"
     pagecolor="#ffffff"
     bordercolor="#111111"
     borderopacity="1"
     inkscape:showpageshadow="0"
     inkscape:pageopacity="0"
     inkscape:pagecheckerboard="1"
     inkscape:deskcolor="#d1d1d1"
     inkscape:zoom="9.0625"
     inkscape:cx="10.648276"
     inkscape:cy="4.137931"
     inkscape:window-width="1366"
     inkscape:window-height="697"
     inkscape:window-x="-8"
     inkscape:window-y="-8"
     inkscape:window-maximized="1"
     inkscape:current-layer="svg1" />
  <path
     d="m 14.837769,1.5001741 c -0.0099,-0.010185 -0.887411,0.4929498 -1.949875,1.1176736 -1.462407,0.8599007 -1.931417,1.1562923 -1.931417,1.2201947 0,0.060705 -0.36063,0.4447133 -1.2833621,1.3674455 C 8.685661,6.1929416 8.3282441,6.5762724 8.1219207,6.868653 6.7661932,8.7899478 6.544099,11.258876 7.5353957,13.387628 c 0.153284,0.329173 0.16597,0.396708 0.098846,0.531968 -0.1123826,0.226483 -0.098932,0.603178 0.033222,0.922439 l 0.088594,0.214093 -6.2560575,6.256057 v 1.187793 h 1.187792 L 8.9438496,16.24392 9.1575438,16.3321 c 0.3192604,0.132156 0.6959554,0.146016 0.9224382,0.03363 0.13527,-0.06713 0.203199,-0.05485 0.532387,0.09844 2.128752,0.991297 4.597701,0.769203 6.518976,-0.586524 0.292402,-0.206322 0.675291,-0.563741 1.662766,-1.551195 0.920023,-0.920023 1.307134,-1.282963 1.367446,-1.282963 0.06349,0 0.362708,-0.473462 1.220614,-1.931817 0.625018,-1.062464 1.127964,-1.9399843 1.117674,-1.9498752 -0.01029,-0.00987 -0.885899,0.494063 -1.945361,1.1197112 l -1.926083,1.13777 -0.05045,0.386355 c -0.09835,0.754986 -0.684048,1.656971 -1.536851,2.36626 -1.388466,1.154676 -3.301382,1.476687 -5.039538,0.847784 -0.395947,-0.143264 -1.066303,-0.494143 -1.200513,-0.628353 -0.04037,-0.04037 0.375456,-0.473482 2.388309,-2.486379 l 2.43703,-2.4370296 1.183698,-0.4909549 c 0.650972,-0.2698897 1.200013,-0.5071037 1.220194,-0.5270535 0.05267,-0.052061 1.790885,-4.2276845 1.768983,-4.2495244 -0.02189,-0.02189 -4.197445,1.7163156 -4.249524,1.7689832 -0.01995,0.020183 -0.257143,0.5692422 -0.527054,1.2201947 L 14.53215,8.3732567 12.0947,10.810707 c -2.012874,2.012854 -2.4456381,2.42863 -2.4859581,2.38831 C 9.4745299,13.064805 9.1236648,12.394448 8.9803831,11.998496 8.7573439,11.382047 8.6670237,10.869105 8.6670237,10.219664 c 0,-1.53599 0.6528635,-2.9445951 1.8194453,-3.9259169 0.639046,-0.5375535 1.175319,-0.8114332 1.717302,-0.8764907 l 0.376527,-0.045116 1.137771,-1.9264818 C 14.343843,2.3860075 14.84767,1.5104829 14.837779,1.500298 Z"
     id="path1"
     style="stroke-width:1" />
</svg>
