<?xml version="1.0" encoding="UTF-8"?>
<svg id="svg1" width="24" height="24" version="1.1" viewBox="0 0 24 24" xmlns="http://www.w3.org/2000/svg">
 <path id="path1" d="m14.838 1.5002c-0.0099-0.010185-0.88741 0.49295-1.9499 1.1177-1.4624 0.8599-1.9314 1.1563-1.9314 1.2202 0 0.060705-0.36063 0.44471-1.2834 1.3674-0.98745 0.98745-1.3449 1.3708-1.5512 1.6632-1.3557 1.9213-1.5778 4.3902-0.58652 6.519 0.15328 0.32917 0.16597 0.39671 0.098846 0.53197-0.11238 0.22648-0.098932 0.60318 0.033222 0.92244l0.088594 0.21409-6.2561 6.2561v1.1878h1.1878l6.2561-6.2561 0.21369 0.08818c0.31926 0.13216 0.69596 0.14602 0.92244 0.03363 0.13527-0.06713 0.2032-0.05485 0.53239 0.09844 2.1288 0.9913 4.5977 0.7692 6.519-0.58652 0.2924-0.20632 0.67529-0.56374 1.6628-1.5512 0.92002-0.92002 1.3071-1.283 1.3674-1.283 0.06349 0 0.36271-0.47346 1.2206-1.9318 0.62502-1.0625 1.128-1.94 1.1177-1.9499-0.01029-0.00987-0.8859 0.49406-1.9454 1.1197l-1.9261 1.1378-0.05045 0.38636c-0.09835 0.75499-0.68405 1.657-1.5369 2.3663-1.3885 1.1547-3.3014 1.4767-5.0395 0.84778-0.39595-0.14326-1.0663-0.49414-1.2005-0.62835-0.04037-0.04037 0.37546-0.47348 2.3883-2.4864l2.437-2.437 1.1837-0.49095c0.65097-0.26989 1.2-0.5071 1.2202-0.52705 0.05267-0.052061 1.7909-4.2277 1.769-4.2495-0.02189-0.02189-4.1974 1.7163-4.2495 1.769-0.01995 0.020183-0.25714 0.56924-0.52705 1.2202l-0.49054 1.1837-2.4374 2.4375c-2.0129 2.0129-2.4456 2.4286-2.486 2.3883-0.13421-0.13421-0.48508-0.80457-0.62836-1.2005-0.22304-0.61645-0.31336-1.1294-0.31336-1.7788 0-1.536 0.65286-2.9446 1.8194-3.9259 0.63905-0.53755 1.1753-0.81143 1.7173-0.87649l0.37653-0.045116 1.1378-1.9265c0.62577-1.0597 1.1296-1.9352 1.1197-1.9454z"/>
</svg>
