<?xml version="1.0" encoding="UTF-8" standalone="no"?>
<svg
   width="24"
   height="24"
   version="1.1"
   viewBox="0 0 24 24"
   id="svg1"
   sodipodi:docname="whip.svg"
   inkscape:version="1.3.2 (091e20e, 2023-11-25, custom)"
   xmlns:inkscape="http://www.inkscape.org/namespaces/inkscape"
   xmlns:sodipodi="http://sodipodi.sourceforge.net/DTD/sodipodi-0.dtd"
   xmlns="http://www.w3.org/2000/svg"
   xmlns:svg="http://www.w3.org/2000/svg">
  <defs
     id="defs1" />
  <sodipodi:namedview
     id="namedview1"
     pagecolor="#ffffff"
     bordercolor="#111111"
     borderopacity="1"
     inkscape:showpageshadow="0"
     inkscape:pageopacity="0"
     inkscape:pagecheckerboard="1"
     inkscape:deskcolor="#d1d1d1"
     inkscape:zoom="9.0625"
     inkscape:cx="10.427586"
     inkscape:cy="12.965517"
     inkscape:window-width="1366"
     inkscape:window-height="697"
     inkscape:window-x="-8"
     inkscape:window-y="-8"
     inkscape:window-maximized="1"
     inkscape:current-layer="svg1" />
  <path
     d="M 16.393911,3.7999211 C 15.396055,3.5206426 14.355249,3.3927038 13.33503,3.4296121 11.904346,3.4404092 10.572631,3.8828692 9.2766211,4.3558353 7.9284989,4.9994581 6.6117399,5.7858369 5.7259579,6.9432749 4.8428149,7.9631201 4.1663952,9.1415388 3.6680696,10.36869 3.4280963,10.957631 3.2191945,11.543177 3.0292427,12.092917 l 1.8286975,0.489997 c 0.025263,0.0067 0.049475,0.01552 0.073945,0.02386 C 5.0646531,12.186977 5.2084698,11.751932 5.361525,11.363429 5.9343307,9.8053836 6.7607234,8.2873463 8.0063721,7.1169923 8.7953529,6.4990121 9.6531926,5.9086183 10.647705,5.5897351 c 2.116847,-0.9173224 4.740234,-0.8997501 6.894126,0.1488975 0.992312,0.4060316 1.787348,1.100597 2.489526,1.8579856 0.917722,1.2676615 1.625034,2.7307818 1.693707,4.2479338 0.1913,2.474558 -1.236538,4.847016 -3.386892,6.167471 -1.263124,0.81648 -3.018511,1.177662 -4.517495,0.552924 -1.861759,-0.684813 -3.470217,-2.09356 -4.1216324,-3.868116 -0.6572899,-1.41028 -0.1491233,-2.984338 0.7324034,-4.137542 0.769208,-0.8721809 1.911284,-1.5268636 3.166096,-1.5633717 1.382005,-0.091781 2.803297,0.782642 3.301365,2.0117287 0.320047,1.015948 0.08952,2.495653 -0.543292,3.574948 -0.431416,0.728279 -1.247964,1.313366 -2.208704,1.199425 -1.105429,-0.103828 -1.62779,-1.339074 -1.299274,-2.205175 0.523149,-1.350408 1.883298,-2.228302 3.208849,-2.843766 -1.136483,0.298775 -2.081657,1.017719 -2.835007,1.829639 -0.792313,0.805904 -1.016019,2.265775 -0.02842,3.090753 0.662987,0.579051 1.634428,0.449566 2.332379,0.084 1.331906,-0.87924 1.944351,-2.38102 1.848651,-3.995946 -0.02963,-1.074988 -0.90817,-2.3747923 -2.12433,-2.8699444 C 13.616895,8.1566282 11.676053,8.6754339 10.45338,9.7409899 9.1116566,10.910508 8.3428551,12.761853 8.8837018,14.502256 9.407337,16.44981 10.96113,18.11035 12.872256,19.04368 c 1.332609,0.749567 2.959897,0.917135 4.398353,0.509607 0.487736,-0.138643 0.937686,-0.355562 1.386361,-0.571182 1.604589,-0.866862 2.894882,-2.222028 3.664314,-3.789927 0.781697,-1.603948 0.860804,-3.464861 0.377669,-5.2046837 C 22.285478,8.7031027 21.691839,7.4330278 20.733719,6.4003647 19.601769,5.1516336 18.057433,4.265096 16.394437,3.7996549 Z M 2.8126734,12.861876 c -0.2136774,-0.05725 -0.4317931,0.06868 -0.4890473,0.282351 l -0.03381,0.126182 c -0.053188,0.1985 0.05188,0.400381 0.238339,0.47403 l -1.4938932,5.575285 c -0.14269211,0.532536 0.1733438,1.079926 0.7058789,1.222618 0.5325353,0.142693 1.0799259,-0.173344 1.2226185,-0.705878 l 1.4938926,-5.575285 c 0.1981667,0.02923 0.3898857,-0.09309 0.4430377,-0.291456 l 0.03381,-0.126181 c 0.057255,-0.213678 -0.068676,-0.431794 -0.2823513,-0.489048 l -1.2689706,-0.34002 z"
     id="path1"
     style="stroke-width:0.999999" />
</svg>
