<?xml version="1.0" encoding="UTF-8"?>
<svg id="svg1" width="24" height="24" version="1.1" viewBox="0 0 24 24" xmlns="http://www.w3.org/2000/svg">
 <path id="path1" d="m16.394 3.7999c-0.99786-0.27928-2.0387-0.40722-3.0589-0.37031-1.4307 0.010797-2.7624 0.45326-4.0584 0.92622-1.3481 0.64362-2.6649 1.43-3.5507 2.5874-0.88314 1.0198-1.5596 2.1983-2.0579 3.4254-0.23997 0.58894-0.44888 1.1745-0.63883 1.7242l1.8287 0.49c0.025263 0.0067 0.049475 0.01552 0.073945 0.02386 0.13277-0.4198 0.27658-0.85484 0.42964-1.2433 0.57281-1.558 1.3992-3.0761 2.6448-4.2464 0.78898-0.61798 1.6468-1.2084 2.6413-1.5273 2.1168-0.91732 4.7402-0.89975 6.8941 0.1489 0.99231 0.40603 1.7873 1.1006 2.4895 1.858 0.91772 1.2677 1.625 2.7308 1.6937 4.2479 0.1913 2.4746-1.2365 4.847-3.3869 6.1675-1.2631 0.81648-3.0185 1.1777-4.5175 0.55292-1.8618-0.68481-3.4702-2.0936-4.1216-3.8681-0.65729-1.4103-0.14912-2.9843 0.7324-4.1375 0.76921-0.87218 1.9113-1.5269 3.1661-1.5634 1.382-0.091781 2.8033 0.78264 3.3014 2.0117 0.32005 1.0159 0.08952 2.4957-0.54329 3.5749-0.43142 0.72828-1.248 1.3134-2.2087 1.1994-1.1054-0.10383-1.6278-1.3391-1.2993-2.2052 0.52315-1.3504 1.8833-2.2283 3.2088-2.8438-1.1365 0.29878-2.0817 1.0177-2.835 1.8296-0.79231 0.8059-1.016 2.2658-0.02842 3.0908 0.66299 0.57905 1.6344 0.44957 2.3324 0.084 1.3319-0.87924 1.9444-2.381 1.8487-3.9959-0.02963-1.075-0.90817-2.3748-2.1243-2.8699-1.6329-0.71495-3.5737-0.19615-4.7964 0.86941-1.3417 1.1695-2.1105 3.0209-1.5697 4.7613 0.52364 1.9476 2.0774 3.6081 3.9886 4.5414 1.3326 0.74957 2.9599 0.91714 4.3984 0.50961 0.48774-0.13864 0.93769-0.35556 1.3864-0.57118 1.6046-0.86686 2.8949-2.222 3.6643-3.7899 0.7817-1.6039 0.8608-3.4649 0.37767-5.2047-0.41348-1.2844-1.0071-2.5545-1.9652-3.5871-1.132-1.2487-2.6763-2.1353-4.3393-2.6007zm-13.581 9.062c-0.21368-0.05725-0.43179 0.06868-0.48905 0.28235l-0.03381 0.12618c-0.053188 0.1985 0.05188 0.40038 0.23834 0.47403l-1.4939 5.5753c-0.14269 0.53254 0.17334 1.0799 0.70588 1.2226 0.53254 0.14269 1.0799-0.17334 1.2226-0.70588l1.4939-5.5753c0.19817 0.02923 0.38989-0.09309 0.44304-0.29146l0.03381-0.12618c0.057255-0.21368-0.068676-0.43179-0.28235-0.48905l-1.269-0.34002z"/>
</svg>
